<?xml version="1.0" encoding="UTF-8" standalone="no"?>
<!-- Created with Inkscape (http://www.inkscape.org/) -->

<svg
   width="176.91808mm"
   height="176.91736mm"
   viewBox="0 0 176.91808 176.91736"
   version="1.1"
   id="svg999"
   inkscape:version="1.1.2 (0a00cf5339, 2022-02-04)"
   sodipodi:docname="fluide1.svg"
   xmlns:inkscape="http://www.inkscape.org/namespaces/inkscape"
   xmlns:sodipodi="http://sodipodi.sourceforge.net/DTD/sodipodi-0.dtd"
   xmlns="http://www.w3.org/2000/svg"
   xmlns:svg="http://www.w3.org/2000/svg"
   xmlns:rdf="http://www.w3.org/1999/02/22-rdf-syntax-ns#"
   xmlns:cc="http://creativecommons.org/ns#">
  <sodipodi:namedview
     id="namedview1001"
     pagecolor="#ffffff"
     bordercolor="#666666"
     borderopacity="1.0"
     inkscape:pageshadow="2"
     inkscape:pageopacity="0.0"
     inkscape:pagecheckerboard="0"
     inkscape:document-units="mm"
     showgrid="false"
     inkscape:zoom="0.50155022"
     inkscape:cx="337.9522"
     inkscape:cy="345.92747"
     inkscape:window-width="1366"
     inkscape:window-height="740"
     inkscape:window-x="0"
     inkscape:window-y="0"
     inkscape:window-maximized="1"
     inkscape:current-layer="layer1"
     fit-margin-top="0"
     fit-margin-left="0"
     fit-margin-right="0"
     fit-margin-bottom="0" />
  <defs
     id="defs996">
    <marker
       style="overflow:visible"
       id="Arrow2Mstart-8"
       refX="0"
       refY="0"
       orient="auto"
       inkscape:stockid="Arrow2Mstart"
       inkscape:isstock="true">
      <path
         transform="scale(0.6)"
         d="M 8.7185878,4.0337352 -2.2072895,0.01601326 8.7185884,-4.0017078 c -1.7454984,2.3720609 -1.7354408,5.6174519 -6e-7,8.035443 z"
         style="fill:context-stroke;fill-rule:evenodd;stroke:context-stroke;stroke-width:0.625;stroke-linejoin:round"
         id="path26833-5" />
    </marker>
  </defs>
  <g
     inkscape:label="Calque 1"
     inkscape:groupmode="layer"
     id="layer1"
     transform="translate(-15.848754,-109.82448)">
    <g
       id="g3302">
      <path
         d="M 15.848754,286.74184 H 192.76682 V 109.82448 H 15.848754 v 176.91736"
         style="fill:#c7edfb;fill-opacity:1;fill-rule:evenodd;stroke:none;stroke-width:0.0352778"
         id="path1360" />
      <path
         d="m 15.848892,195.61616 v -43.694 c 3.34064,-1.70568 7.123504,-2.66771 11.131519,-2.66771 11.738116,0 21.547844,8.25112 23.950014,19.26908 1.765617,-0.70379 3.691431,-1.09114 5.708262,-1.09114 4.629856,0 8.782756,2.04011 11.609918,5.26979 -0.0049,-0.15416 -0.0081,-0.30903 -0.0081,-0.46425 0.0081,0.46425 3.788833,9.59167 3.788833,9.59167 0.02222,0.34008 0.03492,0.68263 0.03492,1.02835 0,8.51923 -6.906331,15.42556 -15.425562,15.42556 -5.30472,0 -9.983471,-2.67793 -12.759514,-6.75534 -4.397623,4.18571 -10.348137,6.75534 -16.898762,6.75534 -4.008015,0 -7.790879,-0.96238 -11.131519,-2.66735 z M 192.76682,164.59888 v 30.29938 c -3.01943,2.13219 -6.70278,3.38525 -10.68035,3.38525 -4.79143,0 -9.15776,-1.81821 -12.44812,-4.80236 -2.43452,4.80307 -7.41927,8.0959 -13.17272,8.0959 -6.48088,0 -11.98563,-4.17689 -13.97106,-9.98538 -3.06352,2.25319 -6.84671,3.58563 -10.9414,3.58563 -10.21186,0 -18.48944,-8.27828 -18.48944,-18.48943 0,-10.21116 8.27758,-18.48909 18.48944,-18.48909 9.17575,0 16.7894,6.68479 18.23931,15.44955 2.00378,-1.01776 4.27109,-1.59173 6.67315,-1.59173 2.90089,0 5.60634,0.83785 7.88846,2.28388 2.31458,-7.59813 9.37719,-13.12686 17.73238,-13.12686 3.97757,0 7.66092,1.25307 10.68035,3.38526 v 0"
         style="fill:#e8f8fe;fill-opacity:1;fill-rule:evenodd;stroke:none;stroke-width:0.0352778"
         id="path1362"
         sodipodi:nodetypes="ccscscccsscsscccscscssscscssc" />
      <path
         d="m 46.102625,125.8032 h 43.092161 l -5.873044,-0.91511 -0.762706,-1.52576 c -0.839258,-1.67817 -2.422172,-2.86174 -4.269317,-3.19194 -1.847497,-0.33055 -3.74262,0.23072 -5.11175,1.51448 l -0.609953,-0.83891 c -1.580797,-2.17417 -4.180064,-3.36726 -6.859059,-3.14924 -2.678994,0.21801 -5.05072,1.8161 -6.259336,4.21675 l -0.686506,-0.38135 c -1.023408,-0.56868 -2.255308,-0.62054 -3.323167,-0.1397 -1.067858,0.48048 -1.845733,1.43721 -2.098675,2.58057 l -7.238648,1.83021"
         style="fill:#ffffff;fill-opacity:1;fill-rule:evenodd;stroke:none;stroke-width:0.0352778"
         id="path1364" />
      <path
         d="M 15.848892,286.74184 H 192.76682 V 186.27672 H 15.848892 v 100.46512"
         style="fill:#47a2dd;fill-opacity:1;fill-rule:evenodd;stroke:none;stroke-width:0.0352778"
         id="path1372" />
      <path
         d="M 15.848754,241.45575 H 192.76682 v -7.37658 H 15.848754 v 7.37658"
         style="fill:#4199d4;fill-opacity:1;fill-rule:evenodd;stroke:none;stroke-width:0.0352778"
         id="path1374" />
      <path
         d="M 60.10861,186.27672 H 75.694333 V 286.74184 H 60.10861 Z m 35.876796,0 H 125.16507 V 286.74184 H 95.985406 Z m 40.421634,0 h 7.65351 v 100.46512 h -7.65351 z m 22.00416,0 h 21.76604 V 286.74184 H 158.4112 Z m -132.026808,0 H 49.106317 V 286.74184 H 26.384392 v -100.46512 0"
         style="fill:#4cace5;fill-opacity:1;fill-rule:evenodd;stroke:none;stroke-width:0.0352778"
         id="path1378" />
      <path
         d="m 158.4112,234.07917 h 21.76604 v 7.37658 H 158.4112 Z m -22.00416,0 h 7.65351 v 7.37658 h -7.65351 z m -40.421634,0 h 29.179664 v 7.37658 H 95.985406 Z m -35.876796,0 h 15.585723 v 7.37658 H 60.10861 Z m -11.002293,0 v 7.37658 H 26.384392 v -7.37658 h 22.721925 v 0"
         style="fill:#47a2dd;fill-opacity:1;fill-rule:evenodd;stroke:none;stroke-width:0.0352778"
         id="path1380" />
      <g
         id="g3172"
         transform="translate(0.60800297,-49.475744)">
        <path
           d="M 15.240751,336.21758 H 192.15882 V 301.81472 H 15.240751 v 34.40286"
           style="fill:#4199d4;fill-opacity:1;fill-rule:evenodd;stroke:none;stroke-width:0.0352778"
           id="path1376" />
        <path
           d="m 157.8032,301.81472 h 21.76604 v 34.40286 H 157.8032 Z m -22.00416,0 h 7.65351 v 34.40286 h -7.65351 z m -40.421637,0 h 29.179667 v 34.40286 H 95.377403 Z m -35.876796,0 H 75.08633 v 34.40286 H 59.500607 Z m -11.002293,0 v 34.40286 H 25.776389 v -34.40286 h 22.721925 v 0"
           style="fill:#47a2dd;fill-opacity:1;fill-rule:evenodd;stroke:none;stroke-width:0.0352778"
           id="path1382" />
      </g>
      <path
         d="M 15.848754,186.27672 H 192.76682 v -1.14088 H 15.848754 v 1.14088"
         style="fill:#ffffff;fill-opacity:1;fill-rule:evenodd;stroke:none;stroke-width:0.0352778"
         id="path1392" />
      <g
         id="g3168"
         transform="translate(0.60800297,-49.475744)">
        <path
           d="m 134.72236,187.72811 h 43.09181 l -5.8727,-0.9151 -0.76305,-1.52541 c -0.83961,-1.67852 -2.42218,-2.86209 -4.26967,-3.19264 -1.84715,-0.33056 -3.74192,0.23107 -5.1114,1.51447 l -0.6096,-0.8389 c -1.58115,-2.17347 -4.18042,-3.36692 -6.85906,-3.14925 -2.67935,0.21837 -5.05107,1.8161 -6.25934,4.2171 l -0.6865,-0.38135 c -1.02376,-0.56868 -2.25566,-0.62053 -3.32387,-0.14005 -1.06751,0.48083 -1.84503,1.43757 -2.09833,2.58057 l -7.23829,1.83056"
           style="fill:#ffffff;fill-opacity:1;fill-rule:evenodd;stroke:none;stroke-width:0.0352778"
           id="path1366" />
        <path
           d="m 106.81593,235.75246 21.47547,-29.21071 5.56616,7.57132 16.51325,-22.46066 20.87774,28.39756 5.58412,-4.38503 14.76763,20.08752 h -84.78437"
           style="fill:#ffffff;fill-opacity:1;fill-rule:evenodd;stroke:none;stroke-width:0.0352778"
           id="path1368" />
        <path
           d="m 128.2914,206.54175 1.42841,8.12694 -5.08462,8.53899 4.18574,5.91679 5.50089,0.84526 -3.46782,5.78273 h 60.7463 l -14.76763,-20.08752 -1.96921,5.6642 0.35807,0.0942 4.06647,4.5078 -2.27259,5.63492 -9.9254,1.22096 1.67428,-5.56366 -2.63102,-3.35844 5.11528,-3.81494 -20.87774,-28.39756 -1.16241,8.17069 5.92244,5.54073 2.8702,9.67316 -7.05591,-6.1983 0.95673,17.09244 5.55378,-5.2758 -0.77046,10.81688 -10.69199,0.0938 v -8.5464 l -2.7023,1.7847 -8.25151,-5.72911 5.86002,-0.28151 -7.04184,-4.68066 -5.56616,-7.57132"
           style="fill:#7fd6f5;fill-opacity:1;fill-rule:evenodd;stroke:none;stroke-width:0.0352778"
           id="path1370" />
        <path
           d="m 106.81593,235.75246 21.47547,63.32467 5.56616,-16.41122 16.51325,48.69036 20.87774,-61.56322 5.58412,9.50736 14.76763,-43.54795 h -84.78437"
           style="fill:#3077a9;fill-opacity:1;fill-rule:evenodd;stroke:none;stroke-width:0.0352778"
           id="path1384" />
        <path
           d="m 181.30766,266.1037 7.65351,-22.56861 v -7.78263 h -7.65351 z m -14.72601,17.45121 3.48404,-10.27642 V 235.75246 H 140.886 v 47.80245 z m -6.19336,18.25981 3.69076,-10.88323 H 140.886 v 10.88323 z m -53.57236,-66.06226 13.77888,40.63048 v -40.63048 h -13.77888 v 0"
           style="fill:#3886be;fill-opacity:1;fill-rule:evenodd;stroke:none;stroke-width:0.0352778"
           id="path1386" />
        <path
           d="m 128.2914,299.07713 1.42841,-17.61772 -5.08462,-18.51131 4.18574,-12.82594 5.50089,-1.83268 -3.46782,-12.53702 h 60.7463 l -14.76763,43.54795 -1.96921,-12.2802 0.35807,-0.20355 4.06647,-9.77265 -2.27259,-12.21564 -9.9254,-2.64653 1.67428,12.06076 -2.63102,7.28063 5.11528,8.26982 -20.87774,61.56322 -1.16241,-17.71287 5.92244,-12.01208 2.8702,-20.96919 -7.05591,13.43731 0.95673,-37.05543 5.55378,11.4367 -0.77046,-23.44878 -10.69199,-0.20356 v 18.52684 l -2.7023,-3.86786 -8.25151,12.41884 5.86002,0.6103 -7.04184,10.14942 -5.56616,16.41122"
           style="fill:#23557b;fill-opacity:1;fill-rule:evenodd;stroke:none;stroke-width:0.0352778"
           id="path1388" />
        <path
           d="m 140.886,272.51649 v 0.0212 l 0.0134,-0.0212 z m 40.42166,-36.76403 h 7.65351 v 7.78263 l -7.65351,22.56861 z m -28.70024,55.17903 -1.66229,3.16795 0.0818,-3.16795 z m 11.47163,0 -3.69076,10.88323 h -5.34847 l 0.091,-0.1834 1.46403,-10.69983 z M 140.886,235.75246 h 29.17969 v 7.22277 l -2.97568,-0.79339 1.67428,12.06076 -2.63102,7.28063 3.93242,6.35917 v 5.39609 l -3.48404,10.27642 h -8.97643 l 0.39582,-2.89278 -1.51942,2.89278 h -5.2645 l 0.68474,-26.5109 5.55378,11.4367 -0.77046,-23.44878 -10.69199,-0.20356 v 18.52684 l -2.7023,-3.86786 -2.40489,3.61985 v -27.35474 0"
           style="fill:#2b6b9a;fill-opacity:1;fill-rule:evenodd;stroke:none;stroke-width:0.0352778"
           id="path1390" />
        <path
           d="m 130.854,235.75246 h 60.7463 l -0.83855,-1.14088 h -59.22336 l -0.68439,1.14088"
           style="fill:#abe4f9;fill-opacity:1;fill-rule:evenodd;stroke:none;stroke-width:0.0352778"
           id="path1394" />
      </g>
      <path
         d="m 61.91589,154.9938 c 5.73017,0 10.40377,-4.67325 10.40377,-10.40377 0,-5.73017 -4.6736,-10.40377 -10.40377,-10.40377 -5.73017,0 -10.40377,4.6736 -10.40377,10.40377 0,5.73052 4.6736,10.40377 10.40377,10.40377"
         style="fill:#ffffff;fill-opacity:1;fill-rule:evenodd;stroke:none;stroke-width:0.0352778"
         id="path1396" />
      <path
         d="m 149.49262,191.85625 c 20.03355,0 36.27473,0.26776 36.27473,0.59761 0,0.33055 -16.24118,0.59796 -36.27473,0.59796 -20.03425,0 -36.27543,-0.26741 -36.27543,-0.59796 0,-0.32985 16.24118,-0.59761 36.27543,-0.59761 z m -99.976199,3.82694 c 16.689247,0 30.218276,-0.26741 30.218276,-0.59796 0,-0.3302 -13.529029,-0.59761 -30.218276,-0.59761 -16.689001,0 -30.218022,0.26741 -30.218022,0.59761 0,0.33055 13.529021,0.59796 30.218022,0.59796 z M 164.38196,211.9727 c 14.57819,0 26.39625,0.32385 26.39625,0.7232 0,0.39969 -11.81806,0.72354 -26.39625,0.72354 -14.57783,0 -26.39589,-0.32385 -26.39589,-0.72354 0,-0.39935 11.81806,-0.7232 26.39589,-0.7232 z M 60.997257,276.28558 c 16.688859,0 30.217888,0.268 30.217888,0.59972 0,0.32808 -13.529029,0.59612 -30.217888,0.59612 -16.689106,0 -30.218276,-0.26804 -30.218276,-0.59612 0,-0.33172 13.52917,-0.59972 30.218276,-0.59972 z M 157.8584,223.18892 c 7.62,0 13.79714,0.26811 13.79714,0.59619 0,0.33161 -6.17714,0.59973 -13.79714,0.59973 -7.62071,0 -13.79785,-0.26812 -13.79785,-0.59973 0,-0.32808 6.17714,-0.59619 13.79785,-0.59619 z M 44.576297,205.48935 c 7.620212,0 13.797351,0.26776 13.797351,0.59796 0,0.3302 -6.177139,0.59796 -13.797351,0.59796 -7.620142,0 -13.797316,-0.26776 -13.797316,-0.59796 0,-0.3302 6.177174,-0.59796 13.797316,-0.59796 z m -28.727405,49.49547 v -2.74105 c 8.465577,-0.0742 17.761519,-0.11303 27.516954,-0.11303 39.314193,0 71.185544,0.66326 71.185544,1.48526 0,0.81841 -31.871351,1.48527 -71.185544,1.48527 -9.755435,0 -19.051377,-0.0425 -27.516954,-0.11645 z m 176.917928,11.75092 v 2.46242 c -8.01229,0.15875 -17.67911,0.25411 -28.08641,0.25411 -27.68565,0 -50.12902,-0.66682 -50.12902,-1.48523 0,-0.82201 22.44337,-1.48526 50.12902,-1.48526 10.4073,0 20.07412,0.0918 28.08641,0.25396 z m 0,-28.80776 v 1.12536 c -15.15498,0.0988 -34.46992,0.15875 -55.51065,0.15875 -48.683684,0 -88.149853,-0.32103 -88.149853,-0.71967 0,-0.40217 39.466169,-0.72319 88.149853,-0.72319 21.04073,0 40.35567,0.06 55.51065,0.15875 z M 35.083964,216.49214 c 34.741205,0 62.904162,-0.26811 62.904162,-0.59831 0,-0.32985 -28.162957,-0.59796 -62.904162,-0.59796 -6.709376,0 -13.1717,0.0102 -19.235072,0.0286 v 1.13912 c 6.063372,0.018 12.525696,0.0286 19.235072,0.0286 v 0"
         style="fill:#ffffff;fill-opacity:1;fill-rule:evenodd;stroke:none;stroke-width:0.0352778"
         id="path1398" />
    </g>
    <g
       id="g3334"
       transform="translate(-6.977164,178.68888)">
      <path
         style="fill:none;stroke:#c60000;stroke-width:1.12451;stroke-linecap:round;stroke-linejoin:bevel;stroke-miterlimit:4;stroke-dasharray:none;stroke-opacity:1;marker-start:url(#Arrow2Mstart-8)"
         d="M 77.379827,103.81926 V 8.6489529"
         id="path127828-4-2"
         sodipodi:nodetypes="cc"
         inkscape:export-filename="/home/paulhenry/2.png"
         inkscape:export-xdpi="109.616"
         inkscape:export-ydpi="109.616" />
      <path
         style="fill:none;stroke:#c60000;stroke-width:1.365;stroke-linecap:round;stroke-linejoin:bevel;stroke-miterlimit:4;stroke-dasharray:none;stroke-opacity:1"
         d="M 72.088158,7.7651929 H 82.671497"
         id="path128746-2-1"
         inkscape:export-filename="/home/paulhenry/2.png"
         inkscape:export-xdpi="109.616"
         inkscape:export-ydpi="109.616" />
      <path
         style="fill:none;stroke:#c60000;stroke-width:1.365;stroke-linecap:round;stroke-linejoin:bevel;stroke-miterlimit:4;stroke-dasharray:none;stroke-opacity:1"
         d="M 72.088158,39.515253 H 82.671497"
         id="path128746-0-2-9"
         inkscape:export-filename="/home/paulhenry/2.png"
         inkscape:export-xdpi="109.616"
         inkscape:export-ydpi="109.616" />
      <path
         style="fill:none;stroke:#c60000;stroke-width:1.365;stroke-linecap:round;stroke-linejoin:bevel;stroke-miterlimit:4;stroke-dasharray:none;stroke-opacity:1"
         d="m 72.088157,24.169393 h 10.58334"
         id="path128746-03-4-4-9"
         inkscape:export-filename="/home/paulhenry/2.png"
         inkscape:export-xdpi="109.616"
         inkscape:export-ydpi="109.616" />
      <path
         style="fill:none;stroke:#c60000;stroke-width:1.365;stroke-linecap:round;stroke-linejoin:bevel;stroke-miterlimit:4;stroke-dasharray:none;stroke-opacity:1"
         d="m 72.088157,55.390293 h 10.58334"
         id="path128746-03-4-8-6"
         inkscape:export-filename="/home/paulhenry/2.png"
         inkscape:export-xdpi="109.616"
         inkscape:export-ydpi="109.616" />
      <path
         style="fill:none;stroke:#c60000;stroke-width:1.365;stroke-linecap:round;stroke-linejoin:bevel;stroke-miterlimit:4;stroke-dasharray:none;stroke-opacity:1"
         d="m 72.088157,72.323663 h 10.58334"
         id="path128746-03-4-1-0"
         inkscape:export-filename="/home/paulhenry/2.png"
         inkscape:export-xdpi="109.616"
         inkscape:export-ydpi="109.616" />
      <text
         xml:space="preserve"
         style="font-style:normal;font-weight:normal;font-size:10.5833px;line-height:1.25;font-family:sans-serif;letter-spacing:0px;word-spacing:0px;fill:#c60000;fill-opacity:1;stroke:none;stroke-width:0.264583"
         x="51.593742"
         y="10.82911"
         id="text144737"
         inkscape:export-filename="/home/paulhenry/2.png"
         inkscape:export-xdpi="109.616"
         inkscape:export-ydpi="109.616"><tspan
           sodipodi:role="line"
           id="tspan144735"
           style="fill:#c60000;fill-opacity:1;stroke-width:0.264583"
           x="51.593742"
           y="10.82911">0 m</tspan></text>
      <text
         xml:space="preserve"
         style="font-style:normal;font-weight:normal;font-size:10.5833px;line-height:1.25;font-family:sans-serif;letter-spacing:0px;word-spacing:0px;fill:#c60000;fill-opacity:1;stroke:none;stroke-width:0.264583"
         x="45.847397"
         y="26.607872"
         id="text144737-9"
         inkscape:export-filename="/home/paulhenry/2.png"
         inkscape:export-xdpi="109.616"
         inkscape:export-ydpi="109.616"><tspan
           sodipodi:role="line"
           id="tspan144735-0"
           style="fill:#c60000;fill-opacity:1;stroke-width:0.264583"
           x="45.847397"
           y="26.607872">10 m</tspan></text>
      <text
         xml:space="preserve"
         style="font-style:normal;font-weight:normal;font-size:10.5833px;line-height:1.25;font-family:sans-serif;letter-spacing:0px;word-spacing:0px;fill:#c60000;fill-opacity:1;stroke:none;stroke-width:0.264583"
         x="45.78479"
         y="41.836403"
         id="text144737-8"
         inkscape:export-filename="/home/paulhenry/2.png"
         inkscape:export-xdpi="109.616"
         inkscape:export-ydpi="109.616"><tspan
           sodipodi:role="line"
           id="tspan144735-9"
           style="fill:#c60000;fill-opacity:1;stroke-width:0.264583"
           x="45.78479"
           y="41.836403">20 m</tspan></text>
      <text
         xml:space="preserve"
         style="font-style:normal;font-weight:normal;font-size:10.5833px;line-height:1.25;font-family:sans-serif;letter-spacing:0px;word-spacing:0px;fill:#c60000;fill-opacity:1;stroke:none;stroke-width:0.264583"
         x="45.437912"
         y="57.696968"
         id="text144737-9-3"
         inkscape:export-filename="/home/paulhenry/2.png"
         inkscape:export-xdpi="109.616"
         inkscape:export-ydpi="109.616"><tspan
           sodipodi:role="line"
           id="tspan144735-0-1"
           style="fill:#c60000;fill-opacity:1;stroke-width:0.264583"
           x="45.437912"
           y="57.696968">30 m</tspan></text>
      <text
         xml:space="preserve"
         style="font-style:normal;font-weight:normal;font-size:10.5833px;line-height:1.25;font-family:sans-serif;letter-spacing:0px;word-spacing:0px;fill:#c60000;fill-opacity:1;stroke:none;stroke-width:0.264583"
         x="45.375305"
         y="74.512856"
         id="text144737-8-4"
         inkscape:export-filename="/home/paulhenry/2.png"
         inkscape:export-xdpi="109.616"
         inkscape:export-ydpi="109.616"><tspan
           sodipodi:role="line"
           id="tspan144735-9-8"
           style="fill:#c60000;fill-opacity:1;stroke-width:0.264583"
           x="45.375305"
           y="74.512856">40 m</tspan></text>
      <text
         xml:space="preserve"
         style="font-style:normal;font-weight:normal;font-size:10.5833px;line-height:1.25;font-family:sans-serif;letter-spacing:0px;word-spacing:0px;fill:#000000;fill-opacity:1;stroke:none;stroke-width:0.264583"
         x="83.728668"
         y="11.590158"
         id="text151869"
         inkscape:export-filename="/home/paulhenry/2.png"
         inkscape:export-xdpi="109.616"
         inkscape:export-ydpi="109.616"><tspan
           sodipodi:role="line"
           id="tspan151867"
           style="stroke-width:0.264583"
           x="83.728668"
           y="11.590158">1 bar</tspan></text>
      <text
         xml:space="preserve"
         style="font-style:normal;font-weight:normal;font-size:10.5833px;line-height:1.25;font-family:sans-serif;letter-spacing:0px;word-spacing:0px;fill:#000000;fill-opacity:1;stroke:none;stroke-width:0.264583"
         x="83.70237"
         y="27.833519"
         id="text151869-3"
         inkscape:export-filename="/home/paulhenry/2.png"
         inkscape:export-xdpi="109.616"
         inkscape:export-ydpi="109.616"><tspan
           sodipodi:role="line"
           id="tspan151867-7"
           style="stroke-width:0.264583"
           x="83.70237"
           y="27.833519">2 bar</tspan></text>
      <text
         xml:space="preserve"
         style="font-style:normal;font-weight:normal;font-size:10.5833px;line-height:1.25;font-family:sans-serif;letter-spacing:0px;word-spacing:0px;fill:#000000;fill-opacity:1;stroke:none;stroke-width:0.264583"
         x="83.799622"
         y="43.400703"
         id="text151869-1"
         inkscape:export-filename="/home/paulhenry/2.png"
         inkscape:export-xdpi="109.616"
         inkscape:export-ydpi="109.616"><tspan
           sodipodi:role="line"
           style="stroke-width:0.264583"
           x="83.799622"
           y="43.400703"
           id="tspan153489">3 bar</tspan></text>
      <text
         xml:space="preserve"
         style="font-style:normal;font-weight:normal;font-size:10.5833px;line-height:1.25;font-family:sans-serif;letter-spacing:0px;word-spacing:0px;fill:#000000;fill-opacity:1;stroke:none;stroke-width:0.264583"
         x="83.773323"
         y="59.115059"
         id="text151869-3-2"
         inkscape:export-filename="/home/paulhenry/2.png"
         inkscape:export-xdpi="109.616"
         inkscape:export-ydpi="109.616"><tspan
           sodipodi:role="line"
           id="tspan151867-7-1"
           style="stroke-width:0.264583"
           x="83.773323"
           y="59.115059">4 bar</tspan></text>
      <text
         xml:space="preserve"
         style="font-style:normal;font-weight:normal;font-size:10.5833px;line-height:1.25;font-family:sans-serif;letter-spacing:0px;word-spacing:0px;fill:#000000;fill-opacity:1;stroke:none;stroke-width:0.264583"
         x="83.709549"
         y="75.184669"
         id="text151869-5"
         inkscape:export-filename="/home/paulhenry/2.png"
         inkscape:export-xdpi="109.616"
         inkscape:export-ydpi="109.616"><tspan
           sodipodi:role="line"
           id="tspan151867-0"
           style="stroke-width:0.264583"
           x="83.709549"
           y="75.184669">5 bar</tspan></text>
      <text
         xml:space="preserve"
         style="font-style:normal;font-weight:normal;font-size:7.05556px;line-height:1.25;font-family:sans-serif;letter-spacing:0px;word-spacing:0px;fill:#c60000;fill-opacity:1;stroke:none;stroke-width:0.264583"
         x="36.273407"
         y="90.312813"
         id="text144737-8-4-4"
         inkscape:export-filename="/home/paulhenry/2.png"
         inkscape:export-xdpi="109.616"
         inkscape:export-ydpi="109.616"><tspan
           sodipodi:role="line"
           id="tspan144735-9-8-0"
           style="font-size:7.05556px;fill:#c60000;fill-opacity:1;stroke-width:0.264583"
           x="36.273407"
           y="90.312813">Profondeur</tspan></text>
      <text
         xml:space="preserve"
         style="font-style:normal;font-weight:normal;font-size:7.05556px;line-height:1.25;font-family:sans-serif;letter-spacing:0px;word-spacing:0px;fill:#000000;fill-opacity:1;stroke:none;stroke-width:0.264583"
         x="84.066559"
         y="90.104439"
         id="text151869-5-1"
         inkscape:export-filename="/home/paulhenry/2.png"
         inkscape:export-xdpi="109.616"
         inkscape:export-ydpi="109.616"><tspan
           sodipodi:role="line"
           id="tspan151867-0-3"
           style="font-size:7.05556px;stroke-width:0.264583"
           x="84.066559"
           y="90.104439">Pression</tspan></text>
    </g>
  </g>
  <metadata
     id="metadata4764">
    <rdf:RDF>
      <cc:License
         rdf:about="http://creativecommons.org/licenses/by-sa/4.0/">
        <cc:permits
           rdf:resource="http://creativecommons.org/ns#Reproduction" />
        <cc:permits
           rdf:resource="http://creativecommons.org/ns#Distribution" />
        <cc:requires
           rdf:resource="http://creativecommons.org/ns#Notice" />
        <cc:requires
           rdf:resource="http://creativecommons.org/ns#Attribution" />
        <cc:permits
           rdf:resource="http://creativecommons.org/ns#DerivativeWorks" />
        <cc:requires
           rdf:resource="http://creativecommons.org/ns#ShareAlike" />
      </cc:License>
      <cc:Work
         rdf:about="">
        <cc:license
           rdf:resource="http://creativecommons.org/licenses/by-sa/4.0/" />
      </cc:Work>
    </rdf:RDF>
  </metadata>
</svg>
