<?xml version="1.0" encoding="UTF-8" standalone="no"?>
<!-- Created with Inkscape (http://www.inkscape.org/) -->

<svg
   width="145.94919mm"
   height="132.75928mm"
   viewBox="0 0 145.94919 132.75928"
   version="1.1"
   id="svg78076"
   inkscape:version="1.2 (1:1.2+202206011327+fc4e4096c5)"
   sodipodi:docname="chap3-fig7.svg"
   xmlns:inkscape="http://www.inkscape.org/namespaces/inkscape"
   xmlns:sodipodi="http://sodipodi.sourceforge.net/DTD/sodipodi-0.dtd"
   xmlns="http://www.w3.org/2000/svg"
   xmlns:svg="http://www.w3.org/2000/svg"
   xmlns:rdf="http://www.w3.org/1999/02/22-rdf-syntax-ns#"
   xmlns:cc="http://creativecommons.org/ns#"
   xmlns:dc="http://purl.org/dc/elements/1.1/">
  <sodipodi:namedview
     id="namedview78078"
     pagecolor="#ffffff"
     bordercolor="#666666"
     borderopacity="1.0"
     inkscape:showpageshadow="2"
     inkscape:pageopacity="0.0"
     inkscape:pagecheckerboard="0"
     inkscape:deskcolor="#d1d1d1"
     inkscape:document-units="mm"
     showgrid="true"
     inkscape:zoom="2.084596"
     inkscape:cx="251.1278"
     inkscape:cy="129.28164"
     inkscape:window-width="1366"
     inkscape:window-height="740"
     inkscape:window-x="0"
     inkscape:window-y="0"
     inkscape:window-maximized="1"
     inkscape:current-layer="layer1">
    <inkscape:grid
       type="xygrid"
       id="grid78566"
       originx="-22.275412"
       originy="-95.659178" />
  </sodipodi:namedview>
  <defs
     id="defs78073" />
  <g
     inkscape:label="Calque 1"
     inkscape:groupmode="layer"
     id="layer1"
     transform="translate(-22.27541,-95.65917)">
    <path
       style="fill:#ffd42a;stroke:#ffd42a;stroke-width:0.565;stroke-linecap:round;stroke-linejoin:round;stroke-dasharray:none;stroke-opacity:1"
       d="M 63.499999,137.58333 H 127 v 31.75 H 63.499999 Z"
       id="path78568" />
    <g
       id="path79659">
      <path
         style="color:#000000;fill:#939393;stroke-linecap:round;-inkscape-stroke:none"
         d="m 95.25,95.658203 a 4.8825002,4.8825002 0 0 0 -4.882813,4.882817 v 23.8125 a 4.8825002,4.8825002 0 0 0 4.882813,4.88281 4.8825002,4.8825002 0 0 0 4.88281,-4.88281 v -23.8125 A 4.8825002,4.8825002 0 0 0 95.25,95.658203 Z"
         id="path47152" />
      <g
         id="g47142">
        <g
           id="path47144">
          <path
             style="color:#000000;fill:#939393;fill-rule:evenodd;stroke-width:1.58642pt;-inkscape-stroke:none"
             d="m 95.25,133.50778 -7.932079,-13.7225 h 15.864159 z"
             id="path47148" />
          <path
             style="color:#000000;fill:#939393;fill-rule:evenodd;-inkscape-stroke:none"
             d="m 85.484375,118.72852 9.765625,16.89257 0.916016,-1.58398 8.849614,-15.30859 z m 3.667969,2.11523 H 101.34766 L 95.25,131.39453 Z"
             id="path47150" />
        </g>
      </g>
    </g>
    <g
       id="path79661">
      <path
         style="color:#000000;fill:#ffd42a;stroke-linecap:round;-inkscape-stroke:none"
         d="m 136.25977,147.2793 a 3.5325,3.5325 0 0 0 -3.53125,3.5332 3.5325,3.5325 0 0 0 3.53125,3.5332 h 23.8125 a 3.5325,3.5325 0 0 0 3.5332,-3.5332 3.5325,3.5325 0 0 0 -3.5332,-3.5332 z"
         id="path48151" />
      <g
         id="g48141">
        <g
           id="path48143">
          <path
             style="color:#000000;fill:#ffd42a;fill-rule:evenodd;stroke-width:1.14778pt;-inkscape-stroke:none"
             d="m 166.69558,150.81253 -9.92826,5.73886 2e-5,-11.47775 z"
             id="path48147" />
          <path
             style="color:#000000;fill:#ffd42a;fill-rule:evenodd;-inkscape-stroke:none"
             d="m 156.00195,143.74805 v 14.1289 l 12.22266,-7.06445 -1.14649,-0.66211 z m 1.53125,2.65234 7.63477,4.41211 -7.63477,4.41211 z"
             id="path48149" />
        </g>
      </g>
    </g>
    <g
       id="path79671">
      <path
         style="color:#000000;fill:#ffd42a;stroke-linecap:round;-inkscape-stroke:none"
         d="m 47.625,112.5332 a 3.8824999,3.8824999 0 0 0 -2.746094,1.13868 3.8824999,3.8824999 0 0 0 0,5.49023 l 13.230469,13.22851 a 3.8824999,3.8824999 0 0 0 5.490234,0 3.8824999,3.8824999 0 0 0 0,-5.49023 L 50.371094,113.67188 A 3.8824999,3.8824999 0 0 0 47.625,112.5332 Z"
         id="path48425" />
      <g
         id="g48415">
        <g
           id="path48417">
          <path
             style="color:#000000;fill:#ffd42a;fill-rule:evenodd;stroke-width:1.2615pt;-inkscape-stroke:none"
             d="m 42.478077,111.26976 12.175984,3.25583 -8.920119,8.92015 z"
             id="path48421" />
          <path
             style="color:#000000;fill:#ffd42a;fill-rule:evenodd;-inkscape-stroke:none"
             d="m 41.289062,110.08203 0.376954,1.4043 3.632812,13.58398 10.980469,-10.98047 z m 2.376954,2.375 9.363281,2.50391 -6.859375,6.85937 z"
             id="path48423" />
        </g>
      </g>
    </g>
    <g
       id="path79673">
      <path
         style="color:#000000;fill:#ffd42a;stroke-linecap:round;-inkscape-stroke:none"
         d="m 142.875,112.5332 a 3.8824999,3.8824999 0 0 0 -2.74609,1.13868 l -13.22852,13.22851 a 3.8824999,3.8824999 0 0 0 0,5.49023 3.8824999,3.8824999 0 0 0 5.49023,0 l 13.23047,-13.22851 a 3.8824999,3.8824999 0 0 0 0,-5.49023 3.8824999,3.8824999 0 0 0 -2.74609,-1.13868 z"
         id="path48137" />
      <g
         id="g48127">
        <g
           id="path48129">
          <path
             style="color:#000000;fill:#ffd42a;fill-rule:evenodd;stroke-width:1.2615pt;-inkscape-stroke:none"
             d="m 148.02192,111.26976 -3.25586,12.17598 -8.92012,-8.92015 z"
             id="path48133" />
          <path
             style="color:#000000;fill:#ffd42a;fill-rule:evenodd;-inkscape-stroke:none"
             d="m 149.21094,110.08203 -1.40625,0.375 -13.58399,3.63281 10.98047,10.98047 z m -2.37696,2.375 -2.5039,9.36328 -6.85938,-6.85937 z"
             id="path48135" />
        </g>
      </g>
    </g>
    <g
       id="path84553">
      <path
         style="color:#000000;fill:#aad400;stroke-width:0.264583px"
         d="m 92.604166,100.54167 v 23.8125"
         id="path2765" />
      <path
         style="color:#000000;fill:#000080"
         d="m 92.472656,100.54102 v 23.8125 h 0.263672 v -23.8125 z"
         id="path2767" />
      <g
         id="g2755">
        <g
           id="path2757">
          <path
             style="color:#000000;fill:#000080;fill-rule:evenodd;stroke-width:0.132291pt"
             d="m 92.604166,125.11749 -0.661457,-1.14432 h 1.322914 z"
             id="path2761" />
          <path
             style="color:#000000;fill:#000080;fill-rule:evenodd"
             d="m 91.789062,123.88477 0.814454,1.4082 0.07617,-0.13086 0.738282,-1.27734 z m 0.306641,0.17578 h 1.017578 l -0.509765,0.88086 z"
             id="path2763" />
        </g>
      </g>
    </g>
    <g
       id="path84555">
      <path
         style="color:#000000;fill:#44aa00;stroke-width:0.264583px"
         d="m 95.249999,100.54167 v 23.8125"
         id="path2785" />
      <path
         style="color:#000000;fill:#44aa00"
         d="m 95.117187,100.54102 v 23.8125 h 0.265625 v -23.8125 z"
         id="path2787" />
      <g
         id="g2775">
        <g
           id="path2777">
          <path
             style="color:#000000;fill:#44aa00;fill-rule:evenodd;stroke-width:0.132291pt"
             d="m 95.249999,125.11749 -0.661457,-1.14432 h 1.322914 z"
             id="path2781" />
          <path
             style="color:#000000;fill:#44aa00;fill-rule:evenodd"
             d="m 94.435547,123.88477 0.814453,1.4082 0.07617,-0.13086 0.738281,-1.27734 z m 0.304687,0.17578 h 1.019532 L 95.25,124.94336 Z"
             id="path2783" />
        </g>
      </g>
    </g>
    <g
       id="path84557">
      <path
         style="color:#000000;fill:#d40000;stroke-width:0.264583px;-inkscape-stroke:none"
         d="m 97.895832,100.54167 v 23.8125"
         id="path2805" />
      <path
         style="color:#000000;fill:#d40000;-inkscape-stroke:none"
         d="m 97.763672,100.54102 v 23.8125 h 0.263672 v -23.8125 z"
         id="path2807" />
      <g
         id="g2795">
        <g
           id="path2797">
          <path
             style="color:#000000;fill:#d40000;fill-rule:evenodd;stroke-width:0.132291pt;-inkscape-stroke:none"
             d="m 97.895832,125.11749 -0.661457,-1.14432 h 1.322914 z"
             id="path2801" />
          <path
             style="color:#000000;fill:#d40000;fill-rule:evenodd;-inkscape-stroke:none"
             d="m 97.082031,123.88477 0.814453,1.4082 0.07617,-0.13086 0.738281,-1.27734 z m 0.304688,0.17578 h 1.017578 l -0.507813,0.88086 z"
             id="path2803" />
        </g>
      </g>
    </g>
    <g
       id="path84629">
      <path
         style="color:#000000;fill:#d40000;-inkscape-stroke:none"
         d="m 140.13477,116.32227 -13.22852,13.23046 0.1875,0.1875 13.22852,-13.23046 z"
         id="path436" />
      <g
         id="g48995">
        <g
           id="path48997">
          <path
             style="color:#000000;fill:#d40000;fill-rule:evenodd;stroke-width:0.1325pt;-inkscape-stroke:none"
             d="m 140.76976,115.87607 -0.34197,1.27889 -0.93692,-0.93692 z"
             id="path433" />
          <path
             style="color:#000000;fill:#d40000;fill-rule:evenodd;-inkscape-stroke:none"
             d="m 140.89453,115.75195 -0.14844,0.0391 -1.42578,0.38086 1.15235,1.15429 z m -0.25,0.24805 -0.26367,0.98438 -0.7207,-0.72071 z"
             id="path430" />
        </g>
      </g>
    </g>
    <g
       id="path84631">
      <path
         style="color:#000000;fill:#44aa00;-inkscape-stroke:none"
         d="m 142.78125,118.96875 -13.22852,13.22852 0.1875,0.1875 13.22852,-13.22852 z"
         id="path451" />
      <g
         id="g48799">
        <g
           id="path48801">
          <path
             style="color:#000000;fill:#44aa00;fill-rule:evenodd;stroke-width:0.1325pt;-inkscape-stroke:none"
             d="m 143.4156,118.5219 -0.34197,1.27889 -0.93692,-0.93692 z"
             id="path448" />
          <path
             style="color:#000000;fill:#44aa00;fill-rule:evenodd;-inkscape-stroke:none"
             d="m 143.54102,118.39648 -0.14844,0.041 -1.42578,0.38086 1.15234,1.15234 z m -0.25,0.25 -0.26368,0.98243 -0.71875,-0.71875 z"
             id="path445" />
        </g>
      </g>
    </g>
    <g
       id="path84629-9">
      <path
         style="color:#000000;fill:#d40000"
         d="m 50.365234,116.32227 -0.1875,0.1875 13.228516,13.23046 0.1875,-0.1875 z"
         id="path2665" />
      <g
         id="g2655">
        <g
           id="path2657">
          <path
             style="color:#000000;fill:#d40000;fill-rule:evenodd;stroke-width:0.132291pt"
             d="m 49.731087,115.87692 1.276878,0.34144 -0.935442,0.93544 z"
             id="path2661" />
          <path
             style="color:#000000;fill:#d40000;fill-rule:evenodd"
             d="m 49.607422,115.75195 0.03906,0.14844 0.38086,1.42383 1.15039,-1.15234 z m 0.248047,0.25 0.982422,0.26172 -0.71875,0.71875 z"
             id="path2663" />
        </g>
      </g>
    </g>
    <g
       id="path84631-4">
      <path
         style="color:#000000;fill:#44aa00;-inkscape-stroke:none"
         d="m 47.71875,118.96875 -0.1875,0.1875 13.228516,13.22852 0.1875,-0.1875 z"
         id="path2683" />
      <g
         id="g2673">
        <g
           id="path2675">
          <path
             style="color:#000000;fill:#44aa00;fill-rule:evenodd;stroke-width:0.132291pt;-inkscape-stroke:none"
             d="m 47.085247,118.52275 1.276878,0.34144 -0.935441,0.93544 z"
             id="path2679" />
          <path
             style="color:#000000;fill:#44aa00;fill-rule:evenodd;-inkscape-stroke:none"
             d="M 46.960937,118.39844 47,118.54492 l 0.380859,1.42578 1.152344,-1.15234 z m 0.248047,0.24804 0.982422,0.26368 -0.71875,0.71875 z"
             id="path2681" />
        </g>
      </g>
    </g>
    <g
       id="path84629-9-9">
      <path
         style="color:#000000;fill:#d40000;-inkscape-stroke:none"
         d="m 134.9375,152.00391 v 0.26367 h 21.16602 v -0.26367 z"
         id="path1782" />
      <g
         id="g1772">
        <g
           id="path1774">
          <path
             style="color:#000000;fill:#d40000;fill-rule:evenodd;stroke-width:0.132291pt;-inkscape-stroke:none"
             d="m 156.86749,152.13542 -1.14432,0.66146 v -1.32292 z"
             id="path1778" />
          <path
             style="color:#000000;fill:#d40000;fill-rule:evenodd;-inkscape-stroke:none"
             d="m 155.63477,151.32031 v 1.62891 l 1.4082,-0.81445 -0.13086,-0.0762 z m 0.17578,0.30664 0.88086,0.50782 -0.88086,0.50976 z"
             id="path1780" />
        </g>
      </g>
    </g>
    <g
       id="path84631-4-1">
      <path
         style="color:#000000;fill:#44aa00;-inkscape-stroke:none"
         d="m 134.9375,149.35742 v 0.26367 h 21.16602 v -0.26367 z"
         id="path1402" />
      <g
         id="g1392">
        <g
           id="path1394">
          <path
             style="color:#000000;fill:#44aa00;fill-rule:evenodd;stroke-width:0.132291pt;-inkscape-stroke:none"
             d="m 156.86749,149.48958 -1.14432,0.66146 v -1.32292 z"
             id="path1398" />
          <path
             style="color:#000000;fill:#44aa00;fill-rule:evenodd;-inkscape-stroke:none"
             d="m 155.63477,148.67578 v 1.62891 l 1.4082,-0.81446 -0.13086,-0.0762 z m 0.17578,0.30469 0.88086,0.50976 -0.88086,0.50782 z"
             id="path1400" />
        </g>
      </g>
    </g>
    <g
       id="path79661-0">
      <path
         style="color:#000000;fill:#ffd42a;stroke-linecap:round;-inkscape-stroke:none"
         d="m 95.25,173.73828 a 3.5325,3.5325 0 0 0 -3.533203,3.5332 v 23.8125 a 3.5325,3.5325 0 0 0 3.533203,3.53125 3.5325,3.5325 0 0 0 3.533203,-3.53125 v -23.8125 A 3.5325,3.5325 0 0 0 95.25,173.73828 Z"
         id="path48239" />
      <g
         id="g48229">
        <g
           id="path48231">
          <path
             style="color:#000000;fill:#ffd42a;fill-rule:evenodd;stroke-width:1.14778pt;-inkscape-stroke:none"
             d="m 95.249949,207.70599 -5.738861,-9.92826 11.477752,2e-5 z"
             id="path48235" />
          <path
             style="color:#000000;fill:#ffd42a;fill-rule:evenodd;-inkscape-stroke:none"
             d="m 88.185547,197.01172 7.064453,12.22265 0.662109,-1.14453 6.402341,-11.07812 z m 2.652344,1.53125 h 8.824218 L 95.25,206.17578 Z"
             id="path48237" />
        </g>
      </g>
    </g>
    <g
       id="path84629-9-9-96">
      <path
         style="color:#000000;fill:#d40000"
         d="m 93.794922,179.91602 v 21.16796 h 0.263672 v -21.16796 z"
         id="path2263" />
      <g
         id="g2253">
        <g
           id="path2255">
          <path
             style="color:#000000;fill:#d40000;fill-rule:evenodd;stroke-width:0.132291pt"
             d="m 93.927064,201.84665 -0.661457,-1.14432 h 1.322914 z"
             id="path2259" />
          <path
             style="color:#000000;fill:#d40000;fill-rule:evenodd"
             d="m 93.113281,200.61328 0.814453,1.41016 0.07617,-0.13282 0.738281,-1.27734 z m 0.304688,0.17774 h 1.017578 l -0.507813,0.8789 z"
             id="path2261" />
        </g>
      </g>
    </g>
    <g
       id="path84631-4-1-3">
      <path
         style="color:#000000;fill:#44aa00;-inkscape-stroke:none"
         d="m 96.441406,179.91602 v 21.16796 h 0.263672 v -21.16796 z"
         id="path2281" />
      <g
         id="g2271">
        <g
           id="path2273">
          <path
             style="color:#000000;fill:#44aa00;fill-rule:evenodd;stroke-width:0.132291pt;-inkscape-stroke:none"
             d="m 96.572898,201.84665 -0.661457,-1.14432 h 1.322914 z"
             id="path2277" />
          <path
             style="color:#000000;fill:#44aa00;fill-rule:evenodd;-inkscape-stroke:none"
             d="m 95.757812,200.61328 0.814454,1.41016 0.07617,-0.13282 0.738282,-1.27734 z m 0.306641,0.17774 h 1.017578 l -0.509765,0.8789 z"
             id="path2279" />
        </g>
      </g>
    </g>
    <g
       id="path79661-5">
      <path
         style="color:#000000;fill:#ffd42a;stroke-linecap:round;-inkscape-stroke:none"
         d="m 30.427734,147.2793 a 3.5325,3.5325 0 0 0 -3.533203,3.5332 3.5325,3.5325 0 0 0 3.533203,3.5332 h 23.8125 a 3.5325,3.5325 0 0 0 3.53125,-3.5332 3.5325,3.5325 0 0 0 -3.53125,-3.5332 z"
         id="path48369" />
      <g
         id="g48359">
        <g
           id="path48361">
          <path
             style="color:#000000;fill:#ffd42a;fill-rule:evenodd;stroke-width:1.14778pt;-inkscape-stroke:none"
             d="m 23.804418,150.81251 9.928249,-5.73889 1.9e-5,11.47775 z"
             id="path48365" />
          <path
             style="color:#000000;fill:#ffd42a;fill-rule:evenodd;-inkscape-stroke:none"
             d="m 34.498047,143.74805 -12.222656,7.06445 1.146484,0.66211 11.076172,6.40234 z m -1.53125,2.65234 v 8.82422 l -7.634766,-4.41211 z"
             id="path48367" />
        </g>
      </g>
    </g>
    <g
       id="path84629-9-9-9">
      <path
         style="color:#000000;fill:#d40000"
         d="m 34.396484,152.00391 v 0.26367 H 55.5625 v -0.26367 z"
         id="path2571" />
      <g
         id="g2561">
        <g
           id="path2563">
          <path
             style="color:#000000;fill:#d40000;fill-rule:evenodd;stroke-width:0.132291pt"
             d="m 33.632511,152.1354 1.144322,-0.66146 v 1.32292 z"
             id="path2567" />
          <path
             style="color:#000000;fill:#d40000;fill-rule:evenodd"
             d="m 34.865234,151.32031 -1.408203,0.81446 0.13086,0.0762 1.277343,0.73828 z m -0.175781,0.30664 v 1.01758 l -0.880859,-0.50976 z"
             id="path2569" />
        </g>
      </g>
    </g>
    <g
       id="path84631-4-1-7">
      <path
         style="color:#000000;fill:#44aa00;-inkscape-stroke:none"
         d="m 34.396484,149.35742 v 0.26367 H 55.5625 v -0.26367 z"
         id="path2589" />
      <g
         id="g2579">
        <g
           id="path2581">
          <path
             style="color:#000000;fill:#44aa00;fill-rule:evenodd;stroke-width:0.132291pt;-inkscape-stroke:none"
             d="m 33.632511,149.48956 1.144322,-0.66146 v 1.32292 z"
             id="path2585" />
          <path
             style="color:#000000;fill:#44aa00;fill-rule:evenodd;-inkscape-stroke:none"
             d="m 34.865234,148.67578 -1.408203,0.81445 0.13086,0.0762 1.277343,0.73828 z m -0.175781,0.30469 v 1.01758 l -0.880859,-0.50782 z"
             id="path2587" />
        </g>
      </g>
    </g>
    <g
       id="path79673-6">
      <path
         style="color:#000000;fill:#ffd42a;stroke-linecap:round;-inkscape-stroke:none"
         d="m 133.61523,169.41992 a 3.8824999,3.8824999 0 0 0 -2.74609,1.13672 3.8824999,3.8824999 0 0 0 0,5.49023 l 13.22852,13.23047 a 3.8824999,3.8824999 0 0 0 5.49218,0 3.8824999,3.8824999 0 0 0 0,-5.49218 l -13.23047,-13.22852 a 3.8824999,3.8824999 0 0 0 -2.74414,-1.13672 z"
         id="path48165" />
      <g
         id="g48155">
        <g
           id="path48157">
          <path
             style="color:#000000;fill:#ffd42a;fill-rule:evenodd;stroke-width:1.2615pt;-inkscape-stroke:none"
             d="m 151.99067,191.67814 -12.17598,-3.25583 8.92012,-8.92015 z"
             id="path48161" />
          <path
             style="color:#000000;fill:#ffd42a;fill-rule:evenodd;-inkscape-stroke:none"
             d="m 149.16992,177.87695 -10.98047,10.98047 14.99024,4.00977 -0.37696,-1.40625 z m -0.87109,3.25196 2.5039,9.36132 -9.36132,-2.5039 z"
             id="path48163" />
        </g>
      </g>
    </g>
    <g
       id="path84629-3">
      <path
         style="color:#000000;fill:#d40000"
         d="m 131.0625,173.20898 -0.1875,0.1875 13.22852,13.22852 0.1875,-0.1875 z"
         id="path2008" />
      <g
         id="g1998">
        <g
           id="path2000">
          <path
             style="color:#000000;fill:#d40000;fill-rule:evenodd;stroke-width:0.1325pt"
             d="m 144.73851,187.07183 -1.27889,-0.34197 0.93692,-0.93692 z"
             id="path2004" />
          <path
             style="color:#000000;fill:#d40000;fill-rule:evenodd"
             d="m 144.44141,185.62305 -1.15235,1.15234 1.57422,0.42188 -0.0391,-0.14844 z m -0.0918,0.34179 0.26367,0.98243 -0.98242,-0.26368 z"
             id="path2006" />
        </g>
      </g>
    </g>
    <g
       id="path84631-9">
      <path
         style="color:#000000;fill:#44aa00;-inkscape-stroke:none"
         d="m 133.70898,170.5625 -0.1875,0.1875 13.22852,13.22852 0.1875,-0.1875 z"
         id="path2026" />
      <g
         id="g2016">
        <g
           id="path2018">
          <path
             style="color:#000000;fill:#44aa00;fill-rule:evenodd;stroke-width:0.1325pt;-inkscape-stroke:none"
             d="m 147.38435,184.426 -1.27889,-0.34197 0.93692,-0.93692 z"
             id="path2022" />
          <path
             style="color:#000000;fill:#44aa00;fill-rule:evenodd;-inkscape-stroke:none"
             d="m 147.08789,182.97656 -1.15234,1.15235 1.57422,0.42187 -0.041,-0.14844 z m -0.0918,0.3418 0.26368,0.98242 -0.98243,-0.26367 z"
             id="path2024" />
        </g>
      </g>
    </g>
    <g
       id="path79673-6-9">
      <path
         style="color:#000000;fill:#ffd42a;stroke-linecap:round;-inkscape-stroke:none"
         d="m 58.115234,169.51367 a 3.8824999,3.8824999 0 0 0 -2.746093,1.13672 l -13.228516,13.22852 a 3.8824999,3.8824999 0 0 0 0,5.49218 3.8824999,3.8824999 0 0 0 5.490234,0 l 13.228516,-13.23047 a 3.8824999,3.8824999 0 0 0 0,-5.49023 3.8824999,3.8824999 0 0 0 -2.744141,-1.13672 z"
         id="path48307" />
      <g
         id="g48297">
        <g
           id="path48299">
          <path
             style="color:#000000;fill:#ffd42a;fill-rule:evenodd;stroke-width:1.2615pt;-inkscape-stroke:none"
             d="m 39.738549,191.77184 3.255866,-12.17598 8.920117,8.92015 z"
             id="path48303" />
          <path
             style="color:#000000;fill:#ffd42a;fill-rule:evenodd;-inkscape-stroke:none"
             d="m 42.558594,177.9707 -4.007813,14.99024 1.404297,-0.37696 13.583984,-3.63281 z m 0.871093,3.25 6.859375,6.85938 -9.363281,2.5039 z"
             id="path48305" />
        </g>
      </g>
    </g>
    <g
       id="path84629-3-3">
      <path
         style="color:#000000;fill:#d40000"
         d="m 60.666016,173.30273 -13.228516,13.22852 0.1875,0.1875 13.228516,-13.22852 z"
         id="path2435" />
      <g
         id="g2425">
        <g
           id="path2427">
          <path
             style="color:#000000;fill:#d40000;fill-rule:evenodd;stroke-width:0.1325pt"
             d="m 46.990711,187.16553 0.341975,-1.27889 0.936916,0.93692 z"
             id="path2431" />
          <path
             style="color:#000000;fill:#d40000;fill-rule:evenodd"
             d="m 47.287109,185.7168 -0.421875,1.57422 0.148438,-0.041 1.425781,-0.38086 z m 0.0918,0.34179 0.71875,0.71875 -0.982422,0.26368 z"
             id="path2433" />
        </g>
      </g>
    </g>
    <g
       id="path84631-9-9">
      <path
         style="color:#000000;fill:#44aa00;-inkscape-stroke:none"
         d="m 58.021484,170.65625 -13.230468,13.22852 0.1875,0.1875 13.230468,-13.22852 z"
         id="path2453" />
      <g
         id="g2443">
        <g
           id="path2445">
          <path
             style="color:#000000;fill:#44aa00;fill-rule:evenodd;stroke-width:0.1325pt;-inkscape-stroke:none"
             d="m 44.344871,184.5197 0.341975,-1.27889 0.936916,0.93692 z"
             id="path2449" />
          <path
             style="color:#000000;fill:#44aa00;fill-rule:evenodd;-inkscape-stroke:none"
             d="m 44.640625,183.07031 -0.419922,1.57422 0.146484,-0.0391 1.427735,-0.38281 z m 0.0918,0.33985 0.720703,0.7207 -0.984375,0.26367 z"
             id="path2451" />
        </g>
      </g>
    </g>
    <text
       xml:space="preserve"
       style="font-style:normal;font-weight:normal;font-size:7.05556px;line-height:1.25;font-family:sans-serif;letter-spacing:0px;word-spacing:0px;fill:#000000;fill-opacity:1;stroke:none;stroke-width:0.264583"
       x="96.097237"
       y="151.57823"
       id="text89949"><tspan
         sodipodi:role="line"
         id="tspan89947"
         style="font-style:normal;font-variant:normal;font-weight:normal;font-stretch:normal;font-size:7.05556px;font-family:arial;-inkscape-font-specification:arial;text-align:center;text-anchor:middle;stroke-width:0.264583"
         x="96.097237"
         y="151.57823">Objet absorbant </tspan><tspan
         sodipodi:role="line"
         style="font-style:normal;font-variant:normal;font-weight:normal;font-stretch:normal;font-size:7.05556px;font-family:arial;-inkscape-font-specification:arial;text-align:center;text-anchor:middle;stroke-width:0.264583"
         x="96.097237"
         y="160.46204"
         id="tspan89951">le bleu</tspan></text>
    <text
       xml:space="preserve"
       style="font-style:normal;font-weight:normal;font-size:7.05556px;line-height:1.25;font-family:sans-serif;text-align:center;letter-spacing:0px;word-spacing:0px;text-anchor:middle;fill:#000000;fill-opacity:1;stroke:none;stroke-width:0.264583"
       x="99.756798"
       y="218.0498"
       id="text90813"><tspan
         sodipodi:role="line"
         id="tspan90811"
         style="font-style:normal;font-variant:normal;font-weight:normal;font-stretch:normal;font-size:7.05556px;font-family:arial;-inkscape-font-specification:arial;text-align:center;text-anchor:middle;stroke-width:0.264583"
         x="99.756798"
         y="218.0498">Lumière diffusée jaune</tspan><tspan
         sodipodi:role="line"
         style="font-style:normal;font-variant:normal;font-weight:normal;font-stretch:normal;font-size:7.05556px;font-family:arial;-inkscape-font-specification:arial;text-align:center;text-anchor:middle;stroke-width:0.264583"
         x="99.756798"
         y="226.93361"
         id="tspan90815">car composée de rouge et de vert</tspan></text>
    <path
       style="fill:none;stroke:#0000ff;stroke-width:0.465;stroke-linecap:butt;stroke-linejoin:miter;stroke-dasharray:none;stroke-opacity:1"
       d="M 93.133332,161.39583 H 106.3625"
       id="path2962" />
    <path
       style="fill:none;stroke:#ffcf10;stroke-width:0.465;stroke-linecap:butt;stroke-linejoin:miter;stroke-dasharray:none;stroke-opacity:1"
       d="m 119.0625,219.60416 h 15.875"
       id="path2964" />
    <path
       style="fill:none;stroke:#aa0000;stroke-width:0.483987;stroke-linecap:butt;stroke-linejoin:miter;stroke-dasharray:none;stroke-opacity:1"
       d="m 103.1875,227.77416 h 17.19792"
       id="path2964-3" />
    <path
       style="fill:none;stroke:#44aa00;stroke-width:0.402702;stroke-linecap:butt;stroke-linejoin:miter;stroke-dasharray:none;stroke-opacity:1"
       d="m 141.55208,227.54166 h 11.90625"
       id="path2964-6" />
  </g>
  <metadata
     id="metadata96535">
    <rdf:RDF>
      <cc:Work
         rdf:about="">
        <dc:date>été 2022 - V1 du TST</dc:date>
        <dc:creator>
          <cc:Agent>
            <dc:title>Paulhenry Saux</dc:title>
          </cc:Agent>
        </dc:creator>
        <dc:publisher>
          <cc:Agent>
            <dc:title>Paulhenry.eu</dc:title>
          </cc:Agent>
        </dc:publisher>
        <dc:language>FR</dc:language>
        <cc:license
           rdf:resource="http://creativecommons.org/licenses/by-sa/4.0/" />
      </cc:Work>
      <cc:License
         rdf:about="http://creativecommons.org/licenses/by-sa/4.0/">
        <cc:permits
           rdf:resource="http://creativecommons.org/ns#Reproduction" />
        <cc:permits
           rdf:resource="http://creativecommons.org/ns#Distribution" />
        <cc:requires
           rdf:resource="http://creativecommons.org/ns#Notice" />
        <cc:requires
           rdf:resource="http://creativecommons.org/ns#Attribution" />
        <cc:permits
           rdf:resource="http://creativecommons.org/ns#DerivativeWorks" />
        <cc:requires
           rdf:resource="http://creativecommons.org/ns#ShareAlike" />
      </cc:License>
    </rdf:RDF>
  </metadata>
</svg>
