<?xml version="1.0" encoding="UTF-8" standalone="no"?>
<!-- Created with Inkscape (http://www.inkscape.org/) -->

<svg
   width="128.39861mm"
   height="100.09221mm"
   viewBox="0 0 128.39861 100.09221"
   version="1.1"
   id="svg31738"
   inkscape:version="1.2 (1:1.2+202206011327+fc4e4096c5)"
   sodipodi:docname="chap3-fig8.svg"
   xmlns:inkscape="http://www.inkscape.org/namespaces/inkscape"
   xmlns:sodipodi="http://sodipodi.sourceforge.net/DTD/sodipodi-0.dtd"
   xmlns="http://www.w3.org/2000/svg"
   xmlns:svg="http://www.w3.org/2000/svg"
   xmlns:rdf="http://www.w3.org/1999/02/22-rdf-syntax-ns#"
   xmlns:cc="http://creativecommons.org/ns#"
   xmlns:dc="http://purl.org/dc/elements/1.1/">
  <sodipodi:namedview
     id="namedview31740"
     pagecolor="#ffffff"
     bordercolor="#666666"
     borderopacity="1.0"
     inkscape:showpageshadow="2"
     inkscape:pageopacity="0.0"
     inkscape:pagecheckerboard="0"
     inkscape:deskcolor="#d1d1d1"
     inkscape:document-units="mm"
     showgrid="true"
     inkscape:zoom="1.042298"
     inkscape:cx="248.9691"
     inkscape:cy="210.59236"
     inkscape:window-width="1366"
     inkscape:window-height="740"
     inkscape:window-x="0"
     inkscape:window-y="0"
     inkscape:window-maximized="1"
     inkscape:current-layer="layer1">
    <inkscape:grid
       type="xygrid"
       id="grid32333"
       originx="-30.433436"
       originy="-99.627929" />
  </sodipodi:namedview>
  <defs
     id="defs31735" />
  <g
     inkscape:label="Calque 1"
     inkscape:groupmode="layer"
     id="layer1"
     transform="translate(-30.433435,-99.62793)">
    <path
       style="fill:#ff0000;fill-opacity:1;stroke:#ff0000;stroke-width:0.565;stroke-linecap:round;stroke-linejoin:round;stroke-dasharray:none;stroke-opacity:1"
       d="m 62.177085,141.55208 h 63.499995 v 31.75001 H 62.177085 Z"
       id="path78568" />
    <g
       id="path79659">
      <path
         style="color:#000000;fill:#ff00ff;stroke-linecap:round;-inkscape-stroke:none"
         d="m 93.927734,99.628906 a 4.8825002,4.8825002 0 0 0 -4.882812,4.880864 v 23.8125 a 4.8825002,4.8825002 0 0 0 4.882812,4.88281 4.8825002,4.8825002 0 0 0 4.882813,-4.88281 v -23.8125 a 4.8825002,4.8825002 0 0 0 -4.882813,-4.880864 z"
         id="path3824" />
      <g
         id="g3814">
        <g
           id="path3816">
          <path
             style="color:#000000;fill:#ff00ff;fill-rule:evenodd;stroke-width:1.58642pt;-inkscape-stroke:none"
             d="m 93.927083,137.47653 -7.932079,-13.7225 h 15.864156 z"
             id="path3820" />
          <path
             style="color:#000000;fill:#ff00ff;fill-rule:evenodd;-inkscape-stroke:none"
             d="m 84.162109,122.69727 9.765625,16.89257 0.914063,-1.58398 8.849613,-15.30859 z m 3.666016,2.11523 h 12.197265 l -6.099609,10.55078 z"
             id="path3822" />
        </g>
      </g>
    </g>
    <g
       id="path84555">
      <path
         style="color:#000000;fill:#44aa00;stroke-width:0.264583px;-inkscape-stroke:none"
         d="m 92.604167,104.51042 v 23.81249"
         id="path4363" />
      <path
         style="color:#000000;fill:#ff0000;-inkscape-stroke:none"
         d="m 92.472656,104.50977 v 23.8125 h 0.263672 v -23.8125 z"
         id="path4365" />
      <g
         id="g4353">
        <g
           id="path4355">
          <path
             style="color:#000000;fill:#ff0000;fill-rule:evenodd;stroke-width:0.132291pt;-inkscape-stroke:none"
             d="m 92.604167,129.08623 -0.661457,-1.14432 h 1.322914 z"
             id="path4359" />
          <path
             style="color:#000000;fill:#ff0000;fill-rule:evenodd;-inkscape-stroke:none"
             d="m 91.789062,127.85352 0.814454,1.4082 0.07617,-0.13086 0.738282,-1.27734 z m 0.306641,0.17578 h 1.017578 l -0.509765,0.88086 z"
             id="path4361" />
        </g>
      </g>
    </g>
    <g
       id="path84555-2">
      <path
         style="color:#000000;fill:#44aa00;stroke-width:0.264583px;-inkscape-stroke:none"
         d="m 95.25,104.51042 v 23.81249"
         id="path4293" />
      <path
         style="color:#000000;fill:#0000ff;-inkscape-stroke:none"
         d="m 95.117187,104.50977 v 23.8125 h 0.265625 v -23.8125 z"
         id="path4295" />
      <g
         id="g4283">
        <g
           id="path4285">
          <path
             style="color:#000000;fill:#0000ff;fill-rule:evenodd;stroke-width:0.132291pt;-inkscape-stroke:none"
             d="m 95.25,129.08623 -0.661457,-1.14432 h 1.322914 z"
             id="path4289" />
          <path
             style="color:#000000;fill:#0000ff;fill-rule:evenodd;-inkscape-stroke:none"
             d="m 94.435547,127.85352 0.814453,1.4082 0.07617,-0.13086 0.738281,-1.27734 z m 0.304687,0.17578 h 1.019532 L 95.25,128.91211 Z"
             id="path4291" />
        </g>
      </g>
    </g>
    <text
       xml:space="preserve"
       style="font-style:normal;font-weight:normal;font-size:7.05556px;line-height:1.25;font-family:sans-serif;letter-spacing:0px;word-spacing:0px;fill:#ffffff;fill-opacity:1;stroke:none;stroke-width:0.264583"
       x="94.774323"
       y="155.54698"
       id="text89949"><tspan
         sodipodi:role="line"
         id="tspan89947"
         style="font-style:normal;font-variant:normal;font-weight:normal;font-stretch:normal;font-size:7.05556px;font-family:arial;-inkscape-font-specification:arial;text-align:center;text-anchor:middle;fill:#ffffff;stroke-width:0.264583"
         x="94.774323"
         y="155.54698">Objet absorbant </tspan><tspan
         sodipodi:role="line"
         style="font-style:normal;font-variant:normal;font-weight:normal;font-stretch:normal;font-size:7.05556px;font-family:arial;-inkscape-font-specification:arial;text-align:center;text-anchor:middle;fill:#ffffff;stroke-width:0.264583"
         x="94.774323"
         y="164.43079"
         id="tspan89951">le bleu</tspan></text>
    <text
       xml:space="preserve"
       style="font-style:normal;font-weight:normal;font-size:7.05556px;line-height:1.25;font-family:sans-serif;letter-spacing:0px;word-spacing:0px;fill:#000000;fill-opacity:1;stroke:none;stroke-width:0.264583"
       x="102.39374"
       y="117.73958"
       id="text27709"><tspan
         sodipodi:role="line"
         id="tspan27707"
         style="font-style:normal;font-variant:normal;font-weight:normal;font-stretch:normal;font-size:7.05556px;font-family:arial;-inkscape-font-specification:arial;stroke-width:0.264583"
         x="102.39374"
         y="117.73958">Lumière magenta</tspan></text>
    <path
       style="fill:none;stroke:#0000ff;stroke-width:0.402702;stroke-linecap:butt;stroke-linejoin:miter;stroke-dasharray:none;stroke-opacity:1"
       d="m 92.60416,165.56593 h 11.90625"
       id="path2964-6-2" />
    <path
       style="fill:none;stroke:#ff00ff;stroke-width:0.586651;stroke-linecap:butt;stroke-linejoin:miter;stroke-dasharray:none;stroke-opacity:1"
       d="m 130.8364,119.0625 h 25.26777"
       id="path2964-6-3" />
    <text
       xml:space="preserve"
       style="font-style:normal;font-weight:normal;font-size:7.05556px;line-height:1.25;font-family:sans-serif;text-align:center;letter-spacing:0px;word-spacing:0px;text-anchor:middle;fill:#000000;fill-opacity:1;stroke:none;stroke-width:0.264583"
       x="96.572914"
       y="183.88542"
       id="text27709-7"><tspan
         sodipodi:role="line"
         id="tspan27707-5"
         style="font-style:normal;font-variant:normal;font-weight:normal;font-stretch:normal;font-size:7.05556px;font-family:arial;-inkscape-font-specification:arial;text-align:center;text-anchor:middle;stroke-width:0.264583"
         x="96.572914"
         y="183.88542">Lumière rouge renvoyée, </tspan><tspan
         sodipodi:role="line"
         style="font-style:normal;font-variant:normal;font-weight:normal;font-stretch:normal;font-size:7.05556px;font-family:arial;-inkscape-font-specification:arial;text-align:center;text-anchor:middle;stroke-width:0.264583"
         x="96.572914"
         y="192.76923"
         id="tspan27795">l'objet est perçu rouge</tspan></text>
    <g
       id="path79673">
      <path
         style="color:#000000;fill:#ff0000;stroke-linecap:round;-inkscape-stroke:none"
         d="m 146.35156,126.61523 -13.22851,13.22852 a 2.4825001,2.4825001 0 0 0 0,3.50977 2.4825001,2.4825001 0 0 0 3.50976,0 L 149.86328,130.125 a 2.4825001,2.4825001 0 0 0 0,-3.50977 2.4825001,2.4825001 0 0 0 -3.51172,0 z"
         id="path3400" />
      <g
         id="g3390">
        <g
           id="path3392">
          <path
             style="color:#000000;fill:#ff0000;fill-rule:evenodd;stroke-width:0.806611pt;-inkscape-stroke:none"
             d="m 151.39804,125.07886 -2.08182,7.78541 -5.70359,-5.70361 z"
             id="path3396" />
          <path
             style="color:#000000;fill:#ff0000;fill-rule:evenodd;-inkscape-stroke:none"
             d="m 152.1582,124.31836 -0.89843,0.24023 -8.68555,2.32422 7.02148,7.02149 z m -1.51953,1.51953 -1.60156,5.98633 -4.38672,-4.38477 z"
             id="path3398" />
        </g>
      </g>
    </g>
    <g
       id="path79673-6">
      <path
         style="color:#000000;fill:#ff0000;stroke-linecap:round;-inkscape-stroke:none"
         d="m 139.4043,180.68555 a 2.4825001,2.4825001 0 0 0 0,3.50976 l 13.22851,13.22852 a 2.4825001,2.4825001 0 0 0 3.51172,0 2.4825001,2.4825001 0 0 0 0,-3.50977 l -13.23047,-13.22851 a 2.4825001,2.4825001 0 0 0 -3.50976,0 z"
         id="path3604" />
      <g
         id="g3594">
        <g
           id="path3596">
          <path
             style="color:#000000;fill:#ff0000;fill-rule:evenodd;stroke-width:0.806611pt;-inkscape-stroke:none"
             d="m 157.67958,198.96033 -7.78541,-2.0818 5.70359,-5.70361 z"
             id="path3600" />
          <path
             style="color:#000000;fill:#ff0000;fill-rule:evenodd;-inkscape-stroke:none"
             d="m 155.87695,190.13477 -7.02148,7.02343 9.58398,2.5625 -0.24023,-0.89843 z m -0.55859,2.08007 1.60156,5.98633 -5.98828,-1.60156 z"
             id="path3602" />
        </g>
      </g>
    </g>
    <g
       id="path79673-6-3">
      <path
         style="color:#000000;fill:#ff0000;stroke-linecap:round;-inkscape-stroke:none"
         d="m 139.79687,163.60937 a 2.4825001,2.4825001 0 0 0 0,3.50977 l 13.22852,13.23047 a 2.4825001,2.4825001 0 0 0 3.51172,0 2.4825001,2.4825001 0 0 0 0,-3.51172 l -13.23047,-13.22852 a 2.4825001,2.4825001 0 0 0 -3.50977,0 z"
         id="path3542" />
      <g
         id="g3532">
        <g
           id="path3534">
          <path
             style="color:#000000;fill:#ff0000;fill-rule:evenodd;stroke-width:0.806611pt;-inkscape-stroke:none"
             d="m 158.07223,181.8847 -7.78541,-2.0818 5.70359,-5.70361 z"
             id="path3538" />
          <path
             style="color:#000000;fill:#ff0000;fill-rule:evenodd;-inkscape-stroke:none"
             d="m 156.26953,173.06055 -7.02148,7.02148 9.58398,2.5625 -0.24023,-0.89844 z m -0.55859,2.08007 1.60156,5.98438 -5.98438,-1.60156 z"
             id="path3540" />
        </g>
      </g>
    </g>
    <g
       id="path79673-6-2">
      <path
         style="color:#000000;fill:#ff0000;stroke-linecap:round;-inkscape-stroke:none"
         d="m 152.95117,136.55078 -13.22851,13.23047 a 2.4825001,2.4825001 0 0 0 0,3.50977 2.4825001,2.4825001 0 0 0 3.50976,0 l 13.22852,-13.22852 a 2.4825001,2.4825001 0 0 0 0,-3.51172 2.4825001,2.4825001 0 0 0 -3.50977,0 z"
         id="path3474" />
      <g
         id="g3464">
        <g
           id="path3466">
          <path
             style="color:#000000;fill:#ff0000;fill-rule:evenodd;stroke-width:0.806611pt;-inkscape-stroke:none"
             d="m 157.99729,135.0161 -2.08182,7.78541 -5.70359,-5.70361 z"
             id="path3470" />
          <path
             style="color:#000000;fill:#ff0000;fill-rule:evenodd;-inkscape-stroke:none"
             d="m 158.75781,134.25586 -0.90039,0.24023 -8.68555,2.32227 7.02149,7.02148 z m -1.51953,1.51953 -1.60156,5.98828 -4.38477,-4.38672 z"
             id="path3472" />
        </g>
      </g>
    </g>
    <g
       id="path79673-9">
      <path
         style="color:#000000;fill:#ff0000;stroke-linecap:round;-inkscape-stroke:none"
         d="m 41.158203,123.92188 a 2.4825001,2.4825001 0 0 0 -1.755859,0.72851 2.4825001,2.4825001 0 0 0 0,3.50977 l 13.230468,13.23046 a 2.4825001,2.4825001 0 0 0 3.509766,0 2.4825001,2.4825001 0 0 0 0,-3.51171 L 42.914062,124.65039 a 2.4825001,2.4825001 0 0 0 -1.755859,-0.72851 z"
         id="path3792" />
      <g
         id="g3782">
        <g
           id="path3784">
          <path
             style="color:#000000;fill:#ff0000;fill-rule:evenodd;stroke-width:0.806611pt;-inkscape-stroke:none"
             d="m 37.867431,123.11423 7.785417,2.0818 -5.703591,5.70361 z"
             id="path3788" />
          <path
             style="color:#000000;fill:#ff0000;fill-rule:evenodd;-inkscape-stroke:none"
             d="m 37.107422,122.35352 0.240234,0.90039 2.322266,8.68554 7.021484,-7.02148 z m 1.519531,1.51953 5.988281,1.60156 -4.386718,4.38476 z"
             id="path3790" />
        </g>
      </g>
    </g>
    <g
       id="path79673-6-4">
      <path
         style="color:#000000;fill:#ff0000;stroke-linecap:round;-inkscape-stroke:none"
         d="m 48.105469,177.99219 a 2.4825001,2.4825001 0 0 0 -1.753907,0.72851 l -13.230468,13.22852 a 2.4825001,2.4825001 0 0 0 0,3.51172 2.4825001,2.4825001 0 0 0 3.511718,0 l 13.228516,-13.23047 a 2.4825001,2.4825001 0 0 0 0,-3.50977 2.4825001,2.4825001 0 0 0 -1.755859,-0.72851 z"
         id="path3660" />
      <g
         id="g3650">
        <g
           id="path3652">
          <path
             style="color:#000000;fill:#ff0000;fill-rule:evenodd;stroke-width:0.806611pt;-inkscape-stroke:none"
             d="m 31.585891,196.9957 2.081826,-7.78541 5.703591,5.70361 z"
             id="path3656" />
          <path
             style="color:#000000;fill:#ff0000;fill-rule:evenodd;-inkscape-stroke:none"
             d="m 33.388672,188.17187 -2.5625,9.58399 0.898437,-0.24024 8.685547,-2.32226 z m 0.558594,2.07813 4.384765,4.38477 -5.986328,1.60156 z"
             id="path3658" />
        </g>
      </g>
    </g>
    <g
       id="path79673-6-3-7">
      <path
         style="color:#000000;fill:#ff0000;stroke-linecap:round;-inkscape-stroke:none"
         d="m 45.957031,161.64453 -13.228515,13.22852 a 2.4825001,2.4825001 0 0 0 0,3.51172 2.4825001,2.4825001 0 0 0 3.511718,0 L 49.46875,165.15625 a 2.4825001,2.4825001 0 0 0 0,-3.51172 2.4825001,2.4825001 0 0 0 -3.511719,0 z"
         id="path3710" />
      <g
         id="g3700">
        <g
           id="path3702">
          <path
             style="color:#000000;fill:#ff0000;fill-rule:evenodd;stroke-width:0.806611pt;-inkscape-stroke:none"
             d="m 31.193241,179.92007 2.081826,-7.78541 5.703591,5.70361 z"
             id="path3706" />
          <path
             style="color:#000000;fill:#ff0000;fill-rule:evenodd;-inkscape-stroke:none"
             d="m 32.996094,171.0957 -2.5625,9.58399 0.898437,-0.24024 8.685547,-2.32226 z m 0.558593,2.08008 4.382813,4.38281 -5.984375,1.60157 z"
             id="path3708" />
        </g>
      </g>
    </g>
    <g
       id="path79673-6-2-8">
      <path
         style="color:#000000;fill:#ff0000;stroke-linecap:round;-inkscape-stroke:none"
         d="m 32.804687,134.58789 a 2.4825001,2.4825001 0 0 0 0,3.50977 l 13.228516,13.22851 a 2.4825001,2.4825001 0 0 0 3.509766,0 2.4825001,2.4825001 0 0 0 0,-3.50976 L 36.314453,134.58789 a 2.4825001,2.4825001 0 0 0 -3.509766,0 z"
         id="path3754" />
      <g
         id="g3744">
        <g
           id="path3746">
          <path
             style="color:#000000;fill:#ff0000;fill-rule:evenodd;stroke-width:0.806611pt;-inkscape-stroke:none"
             d="m 31.268181,133.05147 7.785417,2.0818 -5.703591,5.70361 z"
             id="path3750" />
          <path
             style="color:#000000;fill:#ff0000;fill-rule:evenodd;-inkscape-stroke:none"
             d="m 30.507812,132.29102 0.240235,0.89843 2.322265,8.6875 7.023438,-7.02148 z m 1.519532,1.51953 5.988281,1.60156 -4.386719,4.38672 z"
             id="path3752" />
        </g>
      </g>
    </g>
  </g>
  <metadata
     id="metadata44813">
    <rdf:RDF>
      <cc:Work
         rdf:about="">
        <dc:date>été 2022 - V1 du TST</dc:date>
        <dc:creator>
          <cc:Agent>
            <dc:title>Paulhenry Saux</dc:title>
          </cc:Agent>
        </dc:creator>
        <dc:publisher>
          <cc:Agent>
            <dc:title>Paulhenry.eu</dc:title>
          </cc:Agent>
        </dc:publisher>
        <dc:language>FR</dc:language>
        <cc:license
           rdf:resource="http://creativecommons.org/licenses/by-sa/4.0/" />
      </cc:Work>
      <cc:License
         rdf:about="http://creativecommons.org/licenses/by-sa/4.0/">
        <cc:permits
           rdf:resource="http://creativecommons.org/ns#Reproduction" />
        <cc:permits
           rdf:resource="http://creativecommons.org/ns#Distribution" />
        <cc:requires
           rdf:resource="http://creativecommons.org/ns#Notice" />
        <cc:requires
           rdf:resource="http://creativecommons.org/ns#Attribution" />
        <cc:permits
           rdf:resource="http://creativecommons.org/ns#DerivativeWorks" />
        <cc:requires
           rdf:resource="http://creativecommons.org/ns#ShareAlike" />
      </cc:License>
    </rdf:RDF>
  </metadata>
</svg>
