<?xml version="1.0" encoding="UTF-8" standalone="no"?>
<!-- Created with Inkscape (http://www.inkscape.org/) -->

<svg
   width="192.51566mm"
   height="326.81763mm"
   viewBox="0 0 192.51566 326.81763"
   version="1.1"
   id="svg18081"
   xml:space="preserve"
   inkscape:version="1.2 (1:1.2+202206011327+fc4e4096c5)"
   sodipodi:docname="chap1-fig2.svg"
   xmlns:inkscape="http://www.inkscape.org/namespaces/inkscape"
   xmlns:sodipodi="http://sodipodi.sourceforge.net/DTD/sodipodi-0.dtd"
   xmlns="http://www.w3.org/2000/svg"
   xmlns:svg="http://www.w3.org/2000/svg"
   xmlns:rdf="http://www.w3.org/1999/02/22-rdf-syntax-ns#"
   xmlns:cc="http://creativecommons.org/ns#"
   xmlns:dc="http://purl.org/dc/elements/1.1/"><sodipodi:namedview
     id="namedview18083"
     pagecolor="#ffffff"
     bordercolor="#666666"
     borderopacity="1.0"
     inkscape:showpageshadow="2"
     inkscape:pageopacity="0.0"
     inkscape:pagecheckerboard="0"
     inkscape:deskcolor="#d1d1d1"
     inkscape:document-units="mm"
     showgrid="true"
     inkscape:zoom="0.50585814"
     inkscape:cx="437.8698"
     inkscape:cy="651.36839"
     inkscape:window-width="1366"
     inkscape:window-height="740"
     inkscape:window-x="0"
     inkscape:window-y="0"
     inkscape:window-maximized="1"
     inkscape:current-layer="layer1"><inkscape:grid
       type="xygrid"
       id="grid30491"
       originx="23.323704"
       originy="9.5904394" /></sodipodi:namedview><defs
     id="defs18078"><marker
       style="overflow:visible"
       id="TriangleStart"
       refX="0"
       refY="0"
       orient="auto-start-reverse"
       inkscape:stockid="TriangleStart"
       markerWidth="5.3244081"
       markerHeight="6.155385"
       viewBox="0 0 5.3244081 6.1553851"
       inkscape:isstock="true"
       inkscape:collect="always"
       preserveAspectRatio="xMidYMid"><path
         transform="scale(0.5)"
         style="fill:context-stroke;fill-rule:evenodd;stroke:context-stroke;stroke-width:1pt"
         d="M 5.77,0 -2.88,5 V -5 Z"
         id="path135" /></marker><marker
       inkscape:stockid="Arrow2Mend"
       orient="auto"
       refY="0"
       refX="0"
       id="Arrow2Mend"
       style="overflow:visible"><path
         id="path3726"
         style="font-size:12px;fill-rule:evenodd;stroke-width:0.625;stroke-linejoin:round"
         d="M 8.7185878,4.0337352 -2.2072895,0.01601326 8.7185884,-4.0017078 c -1.7454984,2.3720609 -1.7354408,5.6174519 -6e-7,8.035443 z"
         transform="scale(-0.6)" /></marker></defs><g
     inkscape:label="Calque 1"
     inkscape:groupmode="layer"
     id="layer1"
     transform="translate(23.323703,9.590439)"><g
       id="g19464"
       transform="matrix(0.46273041,0,0,0.46273041,59.928252,169.84872)"><path
         id="path2421-2"
         d="m 26.030467,244.48177 c 0.565401,1.85682 4.318984,11.70096 8.711821,13.86059 4.89417,1.19677 7.588107,1.87612 10.296475,-3.1922 2.099133,-1.50266 -8.112376,-4.42313 -9.382281,-5.09876 -5.793433,-2.50786 -10.161172,-4.24223 -4.458743,-9.48841 3.12981,-2.30496 8.242282,8.37563 10.607273,8.63011 3.741791,5.96014 4.362839,0.38686 3.875873,-4.38048 0.846011,-2.25399 -16.574108,5.07476 -13.868889,-10.31356 2.301304,-6.16911 11.95922,11.63106 12.056615,10.80371 1.307754,7.70932 9.401638,2.07608 6.827078,-5.02939 -2.722356,-4.03058 -17.216828,-0.90172 -21.00204,-7.22343 -4.706593,-6.70804 11.322466,2.15588 16.621424,8.11689 4.612566,7.03894 8.859816,1.11387 3.013827,-1.6991 -8.356918,-3.02019 -6.766931,-0.88056 -14.333824,-7.53938 -7.657025,-6.13722 6.932118,-2.18848 9.364536,-0.37984 5.908974,4.42147 6.578486,3.69691 11.561143,-2.08942 2.134333,-2.79165 -8.465098,-1.00723 -10.918499,0.99349 -8.087503,4.22403 -8.95694,-6.08541 -6.493272,-8.5269 0.764434,-0.56717 11.219931,14.091 15.084684,11.86457 5.216792,-0.82052 -9.450083,-10.98885 -9.238988,-10.76686 -7.529319,-3.38958 -4.11485,-6.50681 -2.321735,-6.97061 3.388747,-0.88955 12.438028,5.56248 15.523779,10.01391 0.971862,-0.0915 3.75942,-2.18545 -5.083323,-4.16142 -7.250224,-2.01469 -11.051942,-4.23754 -13.528326,-7.09185 -2.638856,-4.92483 14.635583,3.82177 16.929412,4.169 5.509967,1.53294 -5.506164,-6.14298 -10.685824,-5.49268 -9.350135,-0.88227 -6.354826,-7.24637 -0.788088,-6.55171 5.528034,-0.56085 9.903026,8.50646 11.556449,11.15015 3.959098,6.48122 5.415455,1.29109 3.164631,-3.17545 -2.947424,-5.69094 -10.409092,-3.70342 -13.297725,-7.06183 -5.658874,-4.86431 3.335406,-3.67232 8.230354,-1.66782 7.894881,4.82482 5.701262,9.18338 11.496524,1.92607 3.831283,-5.09284 -10.624706,-3.70507 -12.904123,-3.75496 -5.190715,-0.87636 -13.830546,-3.48556 -6.649742,-2.90704 7.662614,-1.00872 7.150251,3.51948 15.371157,4.35384 4.43366,-1.10638 -6.964752,-2.95941 -11.772149,-5.18153 -6.548572,-2.49799 0.816266,-6.32258 4.886402,-2.14283 3.19056,4.17931 4.284649,10.87811 8.731052,4.98882 3.856056,-4.6892 -10.360491,-4.38822 -13.39287,-6.72404 -6.64111,-2.67294 4.523859,-8.66759 8.625361,-6.45088 4.819266,2.74915 2.304754,9.54663 9.287285,10.46926 1.279623,0.50821 -5.548318,-5.33547 -8.836006,-5.75553 -5.052976,-0.7514 -7.061499,-7.85375 -8.397629,-10.05929 0.965232,-0.003 9.922711,5.18804 15.418072,9.10079 6.850594,7.09792 11.11758,-2.63532 0.871262,-5.33117 -5.664186,-1.51093 -9.694431,-1.24207 -11.018125,-4.10579 -0.376423,0.014 13.378561,3.04821 13.763511,3.03155 5.161309,3.96768 8.52138,-1.1741 2.368709,-2.75708 -4.73846,-1.73759 -9.371844,0.45013 -15.106068,-0.14675 -5.88028,-0.25641 -5.307965,-7.50354 3.649763,-5.76373 6.325555,0.38895 11.595642,3.70014 12.001471,5.09036 0.213897,0.003 -5.935414,-1.21682 -10.265315,-4.52726 -3.86166,-2.85308 -4.981244,-6.43143 2.917669,-6.24394 5.770459,1.3668 9.617175,4.39221 12.056395,8.44829 0.133258,-0.0496 0.142807,-4.33414 -5.809652,-4.63693 -6.53942,0.31391 -10.959724,0.56126 -10.575017,-6.63908 0.259461,-1.06907 13.022612,13.51401 15.436474,5.35134 0.453814,-1.69965 -12.424478,-6.47039 -13.081732,-8.65651 -1.028714,-2.46619 9.255638,0.0304 13.847891,-0.20004 3.864999,0.77789 11.295634,5.64913 3.72635,2.67621 -5.303875,0.27277 -13.12282,1.52009 -16.860912,-0.24847 -7.086107,-2.9517 7.316134,-3.87042 9.208336,-4.80108 5.545778,1.27655 5.960169,14.98232 10.800601,4.47286 0.06686,-0.39251 -14.019852,-0.27942 -15.47687,-3.52993 -7.986779,-3.23077 6.611263,-6.20327 9.558932,-3.57544 6.148925,2.17812 5.092179,5.26813 9.411936,3.18023 4.340183,-2.58676 -5.925119,-4.58099 -10.143741,-5.06925 -6.469981,0.0929 -10.381605,-4.41193 -4.298897,-3.09955 9.434996,2.09952 5.974527,2.77576 13.365413,4.17779 0.573178,1.11322 5.018585,-6.25405 -4.979767,-3.26461 -4.74866,4.1801 -11.248808,-1.493 -10.027415,-6.82808 -0.977567,0.46915 9.787869,2.5994 16.343815,7.35316 3.803171,0.78785 6.169657,-4.87255 -2.983283,-4.50503 -7.951787,-0.36352 -13.865008,0.75588 -12.116837,-4.38538 0.988661,-5.79136 11.077017,1.61974 13.051692,3.19206 3.84216,2.89724 6.250739,9.21719 9.793256,1.01363 2.243644,-4.71092 -7.811947,-2.33933 -12.304332,-4.59847 -6.306026,-3.12113 -8.785158,-7.43468 -1.520856,-5.18857 4.718793,-0.45286 6.7584,5.75247 12.111587,6.83218 5.241935,2.4436 -7.974808,-6.23704 -11.619367,-6.13913 -6.28029,-1.56386 3.183527,-2.80192 8.236553,-1.42457 7.208929,2.28402 6.859919,3.70769 10.074402,1.56988 4.70815,-2.5456 -10.260957,-3.45903 -13.173837,-2.92129 -9.716765,-2.67253 -2.41065,-8.59378 4.896342,-1.71718 4.231712,3.44351 6.761852,1.50785 5.582412,-2.08269 -1.35807,-4.10693 -8.673626,-4.34528 -12.999437,-2.96482 -2.300237,-1.42383 8.056266,-4.90905 12.236037,-3.06082 4.817793,2.04699 3.418863,0.34433 -3.446105,-0.54011 -3.796083,-0.0125 -6.83184,-7.68292 0.193381,-3.95404 3.221994,1.49752 14.156357,9.39301 8.766337,1.34327 -0.9733,-0.83827 -7.942228,3.93835 -12.757298,-1.8487 -5.020593,-4.12904 8.513665,-4.2135 9.270215,-2.88485 4.590503,2.05069 1.867603,10.02834 3.560553,3.76458 0.90056,-3.81907 -1.3162,-3.28083 -3.486683,-6.1865 -1.68863,-1.22169 8.446143,12.33039 2.314193,4.0529 -3.120823,-3.09088 -1.648973,0.53431 -4.825333,-1.35392 -6.024389,-3.53653 1.19941,-7.42665 3.801943,-6.95233 5.18964,2.45177 13.83163,7.54162 5.15296,3.18673 -5.630243,-2.8067 -4.30072,5.19094 -9.545621,-1.51841 -2.867877,-2.86521 7.583411,1.05444 8.552811,5.02002 5.15467,4.88071 6.88877,-1.92632 6.98012,-5.69056 -0.19066,-1.69395 -12.872833,-5.43902 -14.640073,-4.71167 -2.262524,-0.83963 13.038373,-19.993836 16.885283,-11.16616 2.29386,4.80983 0.93153,13.86361 -7.90173,15.67762 -6.923613,2.92806 -6.404603,-4.92017 -8.629653,-8.04635 -0.2998,-3.48094 6.498423,-2.07922 9.061163,-0.74305 6.70663,2.56786 10.86528,0.0602 5.39732,-5.38069 -1.04614,0.14431 -11.642243,0.179 -12.762923,-0.098 -6.114167,-3.04363 3.992093,-6.547725 7.071533,-3.7253 5.33229,2.53035 8.46832,1.26942 15.13587,2.66433 10.17153,-0.33889 2.38438,-4.082345 -2.68292,-5.164035 -5.52121,-0.86049 -6.59711,1.617 -11.89996,-0.76314 -1.08486,-1.96026 1.39683,-5.617821 6.89065,-0.43991 3.23784,4.617615 11.4038,6.727885 14.88065,2.0336 2.70509,-2.41027 -12.2048,-3.75413 -15.12424,-3.74544 -5.53892,-0.440781 -7.84694,2.01222 -6.33902,-4.947751 1.01684,-3.35967 11.76495,1.6869 14.51557,3.74175 -0.27452,-1.05793 16.92149,-3.57228 -4.60739,-2.65628 -4.14717,0.0661 -4.3128,-6.16877 -3.94474,-9.17447 3.14016,-4.34848 7.1659,7.14064 12.33685,8.23094 1.10639,0.63575 1.81788,-8.05336 -7.43894,-5.83639 -5.71331,1.41811 -4.89544,-2.50027 -6.54725,-5.06515 -2.04751,-4.33121 15.63376,1.0015 14.93814,1.61333 2.83506,3.01836 5.45596,4.39352 10.85795,5.52485 0.4636,0.17459 -2.6261,-7.82859 -14.45578,-5.4573 -8.07029,3.92211 -10.57911,1.96738 -12.09216,-7.608343 -0.32314,-2.656946 11.28504,1.886293 12.41599,3.020013 3.71781,1.77457 7.25229,2.15286 11.46375,1.92413 8.19466,2.97461 -9.00237,-3.51007 -13.8889,-3.51175 -6.87041,-0.665347 -5.50968,-7.003518 2.23882,-5.977411 8.65144,0.920898 3.18696,2.491264 7.27661,4.81674"
         style="fill:none;fill-rule:evenodd;stroke:#aa0000;stroke-width:1.32292;stroke-linecap:butt;stroke-linejoin:miter;stroke-miterlimit:4;stroke-dasharray:none;stroke-opacity:1"
         sodipodi:nodetypes="ccccccccccccccccccccccccccccccccccccccccccccccccccccccccccccccccccccccccccccccccccccccccccccccccccccccccccccccccccccccccccccccccccc" /><path
         style="fill:none;fill-rule:evenodd;stroke:#aa0000;stroke-width:1.32292;stroke-linecap:butt;stroke-linejoin:miter;stroke-miterlimit:4;stroke-dasharray:none;stroke-opacity:1"
         d="m 159.14141,246.49289 c -0.80755,2.73093 -1.6213,12.58125 -6.95313,14.4448 -4.51729,3.6416 -6.03409,-3.54695 -10.26023,-5.61098 0.15965,-2.4771 6.67389,-3.16463 7.9917,-2.56921 5.60959,-2.90802 14.59395,-6.43695 8.12153,-11.84762 -4.49837,-4.56786 -10.59917,9.66473 -10.61229,11.23257 -1.28487,5.30644 -4.14041,-4.0376 -3.18304,-7.19919 2.36156,-4.94533 15.86237,6.6847 11.39073,-7.89686 -1.88153,-5.07277 -14.27733,10.64644 -13.73812,10.58056 -3.89289,7.66005 -6.04219,-1.88091 -3.78895,-7.03603 2.36043,-4.68392 15.86329,-1.8812 19.62396,-7.68279 4.32084,-6.59371 -13.51034,0.0513 -17.56329,8.28664 -3.81405,5.25244 -11.69496,2.37112 -3.37355,0.29314 6.45088,-3.63274 10.31823,-3.21967 18.16414,-7.6657 7.68256,-7.53347 -7.3371,-4.12231 -10.68427,-1.00685 -7.60458,4.82284 -8.86857,2.52329 -14.39839,-2.92363 -2.04463,-0.72637 12.06681,0.18201 14.02253,0.95276 4.85534,4.9318 8.25838,-6.06022 7.63777,-7.63638 -1.54705,-1.6025 -17.10213,13.33269 -21.57308,11.11233 -4.56217,-3.40387 14.19928,-11.65726 15.5339,-9.8397 7.71071,-3.45921 2.71291,-5.46037 -1.17241,-5.93461 -3.42438,-1.2782 -10.53833,6.82289 -13.61307,8.94042 -0.2688,1.78089 -2.74251,-3.0536 5.43466,-4.51805 6.49926,-1.54664 8.61394,-0.0235 9.84584,-4.64107 0.40075,-6.70079 -12.53912,0.25811 -13.44501,1.42654 -3.83843,-0.33494 6.74455,-6.58089 10.86758,-5.51956 8.248,0.61903 11.58904,-4.43581 2.577,-4.31309 -4.60795,0.19121 -12.59051,7.3449 -13.18443,9.55077 -4.65007,5.903 -9.31297,0.52632 -5.74312,-2.77615 2.56951,-5.83876 15.54449,-2.87827 18.68037,-6.37696 6.07942,-3.97642 -5.57253,-3.91402 -9.39265,-1.80302 -6.78905,3.38795 -4.79738,11.72255 -11.91065,1.4358 -3.65846,-5.10544 3.86055,-6.26599 7.26396,-5.16685 5.41875,1.4508 21.50923,-3.21926 13.93895,-3.14794 -4.30863,-0.0843 -11.06856,7.3207 -18.55651,6.17892 -3.44817,-1.67793 9.74003,-6.00551 14.95847,-6.79387 6.46152,-3.97935 0.99334,-6.11178 -4.59895,-0.4924 -3.57005,3.84814 -4.66619,5.61265 -9.97028,0.63318 -3.27071,-3.76618 7.91596,-2.57782 12.27581,-4.20845 9.1753,-2.64123 -1.63107,-6.47808 -5.30509,-4.16566 -6.14549,2.98418 -3.38657,5.07078 -11.06886,7.43438 -2.18563,0.19972 5.27055,-7.33136 8.94926,-7.21678 4.02068,1.27215 11.37423,-3.94758 9.47304,-6.76955 -0.25699,-1.76892 -10.88596,3.59739 -16.76886,7.90022 -6.391,4.39786 -10.27852,-1.03562 0.82178,-3.66696 5.97206,-2.87199 7.68612,-3.73003 12.40613,-6.62432 0.53661,-1.3058 -17.43208,5.50295 -18.03649,4.98705 -6.61768,2.73481 -5.01838,0.0375 -0.2312,-1.69186 4.64481,-0.75737 11.26214,-1.75849 17.51392,-2.02514 5.0529,0.5944 1.33798,-6.81215 -8.01986,-5.42346 -5.4113,1.71402 -7.56229,6.43983 -8.20692,5.99972 0.92716,0.22256 6.25725,-2.70515 11.13568,-4.65354 2.00959,-3.01557 4.98551,-7.95917 -3.19538,-8.20888 -3.07101,1.19642 -12.46222,4.45877 -15.34769,6.84603 0.7584,0.72237 0.62306,-1.55154 5.93694,-2.29465 7.03626,-0.21533 12.75433,2.11845 12.34577,-3.87752 0.70145,-0.11146 -14.02737,9.24059 -16.59217,1.12166 -1.30085,-2.04704 11.98409,-5.08422 13.72891,-7.25238 2.78385,-1.08945 -11.61491,-1.87387 -14.08494,-1.42065 -2.16901,1.06406 -9.66245,6.76488 -3.30416,4.66871 6.651,-2.7601 13.23278,0.85315 17.24681,-1.03019 7.45379,-3.9805 -6.80031,-5.45966 -9.67469,-4.03199 -4.6987,2.39197 -5.4601,11.90913 -9.45681,3.61523 -0.24057,-1.10177 11.26483,1.43145 13.75872,-0.29634 6.22249,-4.29693 -4.75093,-7.95574 -7.66908,-6.50964 -4.91761,2.60866 -8.89585,5.27526 -11.37141,2.3119 -4.29578,-2.04039 9.75211,-2.33672 14.13589,-2.74001 7.87658,1.07531 8.90466,-5.61035 1.94184,-4.96938 -6.7771,1.60556 -7.8119,3.17801 -13.52818,6.08914 -2.56208,-1.81939 -6.70729,-5.88002 4.19736,-3.6764 5.86709,2.69512 9.7393,-1.88299 8.90346,-6.7067 0.32883,0.007 -9.72679,4.85492 -15.22255,7.94776 -2.67882,2.24489 -6.131677,-3.61632 3.32121,-3.5929 6.44711,-1.10726 12.05223,-2.16496 11.79231,-8.81276 -0.25393,-6.87715 -10.05498,3.77706 -13.54104,4.51366 -4.0424,3.78176 -5.30081,6.43226 -9.507637,0.0127 -4.796972,-4.12784 12.064047,-0.10718 15.724497,-2.41928 6.39194,-1.77268 6.00865,-6.31648 -1.99532,-4.69677 -4.93391,1.13637 -9.68181,6.48681 -12.819957,5.42082 -4.49953,1.28768 8.168367,-4.2141 13.232777,-5.14035 6.17859,-1.24878 -4.50246,-11.23788 -7.96677,-7.03077 -6.287557,3.20095 -3.12868,7.24493 -7.219587,3.7525 -3.596662,-2.07918 1.21844,2.0217 7.871997,0.67959 9.63324,-0.5541 5.63381,-6.31752 -2.51713,0.14262 -4.349747,3.7363 -9.651249,-3.44165 -8.458497,-7.48979 1.08618,-4.34942 6.920387,1.61368 11.191757,-0.44414 0.94321,0.0403 -6.713517,-4.45202 -11.218747,-2.18219 -0.946842,0.33532 1.47622,-2.77941 9.429427,-1.93885 4.11737,-0.13644 4.29857,-6.20464 -3.420207,-2.51058 -3.13189,1.55571 -15.485552,4.80243 -9.149632,-1.67644 1.02364,-3.71436 9.328112,4.99942 13.291879,2.07585 4.12386,-4.93325 -8.245267,-3.31921 -9.238967,-2.92247 -3.640222,2.82283 -4.975942,7.62754 -6.807192,1.56334 -0.92105,-5.13278 5.37797,-0.53708 8.706832,-2.24342 0.53119,0.23137 -14.226972,4.20504 -7.753102,-2.28961 2.74409,-3.15616 7.180932,3.0179 10.584052,0.58658 5.996117,-3.16989 -2.34402,-7.3728 -5.7246,-5.70345 -3.297662,1.99018 -12.486332,5.09199 -5.052482,1.37988 4.50587,-2.26791 5.747142,-2.23951 10.047332,-4.81465 2.637677,-2.52109 -9.494742,2.24662 -11.629882,6.68489 -1.50519,4.57536 -5.38119,0.36525 -5.05182,-2.92423 -0.59427,-1.28039 11.900042,-3.464 12.314872,-4.53009 1.52122,-1.05935 -7.895442,-19.905414 -12.821332,-10.23634 -2.52541,5.40187 0.76747,13.99161 8.36321,18.05765 5.883072,0.97982 5.531052,-9.75277 7.314012,-13.32523 1.54727,-4.48476 -7.081242,4.34719 -8.619182,5.3685 -7.91031,2.65812 -12.45398,-3.55307 -7.72501,-7.96265 1.23107,0.26293 11.63621,0.7953 14.307592,-1.69669 6.018557,-3.39268 -8.900982,-5.482274 -10.143732,-4.505914 -5.51115,2.649154 -8.10665,6.970694 -13.35105,6.358784 -7.94694,-0.008 -2.90427,-6.901144 2.32673,-8.869064 5.03019,-1.0696 7.41679,4.213004 13.48983,1.59655 1.63187,-3.33671 -2.85207,-9.42489 -7.76471,-1.52723 -3.15951,3.309454 -10.38034,4.741354 -13.55671,1.68584 -1.02156,-2.83812 10.76184,0.0561 13.38478,-1.35574 4.23893,-2.51446 9.59153,-0.46284 7.06042,-5.9879 -1.91528,-2.93288 -12.13321,2.40694 -14.70114,4.13774 -1.77636,-2.16319 -18.77564,-3.63306 2.24095,-3.65796 2.74465,0.37634 7.57234,-6.4476 5.85632,-7.801 -2.81206,-3.21645 -7.91668,5.79254 -12.22533,7.90054 -1.22408,0.59247 -1.15848,-8.16924 7.44313,-5.79402 5.89466,1.58611 4.91688,-1.8883 7.78043,-6.5933 1.80584,-3.8178 -6.88542,-2.60001 -9.27686,1.06114 -2.51334,2.12787 -9.94252,4.51731 -16.34539,5.42166 0.38156,-0.33034 2.3315,-7.58214 14.60925,-5.05365 7.79895,0.35886 12.188,3.04256 11.56565,-6.69419 -0.17263,-3.8637 -11.3433,2.82768 -12.36169,3.34158 -3.76971,1.6241 -8.20157,1.45664 -12.22468,1.11965 -4.59292,0.008 9.24119,-4.1843 14.23049,-2.77106 5.75826,1.3833 7.30546,-3.60418 -1.38145,-3.11682 -5.27129,0.12796 -3.89858,-0.52923 -6.9872,1.15848"
         id="path2419-9"
         sodipodi:nodetypes="ccccccccccccccccccccccccccccccccccccccccccccccccccccccccccccccccccccccccccccccccccccccccccccccccccccccccccccccccccccccccccccccccccc" /><path
         style="fill:none;fill-rule:evenodd;stroke:#4169e1;stroke-width:1.32292;stroke-linecap:butt;stroke-linejoin:miter;stroke-miterlimit:4;stroke-dasharray:none;stroke-opacity:1"
         d="m 163.11387,246.40956 c -0.80755,2.73093 -1.6213,12.58125 -6.95313,14.4448 -4.51729,3.6416 -6.03409,-3.54695 -10.26023,-5.61098 0.15965,-2.4771 6.67389,-3.16463 7.9917,-2.56921 5.60959,-2.90802 14.59395,-6.43695 8.12153,-11.84762 -4.49837,-4.56786 -10.59917,9.66473 -10.61229,11.23257 -1.28487,5.30644 -4.14041,-4.0376 -3.18304,-7.19919 2.36156,-4.94533 15.86237,6.6847 11.39073,-7.89686 -1.88153,-5.07277 -14.27733,10.64644 -13.73812,10.58056 -3.89289,7.66005 -6.04219,-1.88091 -3.78895,-7.03603 2.36043,-4.68392 15.86329,-1.8812 19.62396,-7.68279 4.32084,-6.59371 -13.51034,0.0513 -17.56329,8.28664 -3.81405,5.25244 -11.69496,2.37112 -3.37355,0.29314 6.45088,-3.63274 10.31823,-3.21967 18.16414,-7.6657 7.68256,-7.53347 -7.3371,-4.12231 -10.68427,-1.00685 -7.60458,4.82284 -8.86857,2.52329 -14.39839,-2.92363 -2.04463,-0.72637 12.06681,0.18201 14.02253,0.95276 4.85534,4.9318 8.25838,-6.06022 7.63777,-7.63638 -1.54705,-1.6025 -17.10213,13.33269 -21.57308,11.11233 -4.56217,-3.40387 14.19928,-11.65726 15.5339,-9.8397 7.71071,-3.45921 2.71291,-5.46037 -1.17241,-5.93461 -3.42438,-1.2782 -10.53833,6.82289 -13.61307,8.94042 -0.2688,1.78089 -2.74251,-3.0536 5.43466,-4.51805 6.49926,-1.54664 8.61394,-0.0235 9.84584,-4.64107 0.40075,-6.70079 -12.53912,0.25811 -13.44501,1.42654 -3.83843,-0.33494 6.74455,-6.58089 10.86758,-5.51956 8.248,0.61903 11.58904,-4.43581 2.577,-4.31309 -4.60795,0.19121 -12.59051,7.3449 -13.18443,9.55077 -4.65007,5.903 -9.31297,0.52632 -5.74312,-2.77615 2.56951,-5.83876 15.54449,-2.87827 18.68037,-6.37696 6.07942,-3.97642 -5.57253,-3.91402 -9.39265,-1.80302 -6.78905,3.38795 -4.79738,11.72255 -11.91065,1.4358 -3.65846,-5.10544 3.86055,-6.26599 7.26396,-5.16685 5.41875,1.4508 21.50923,-3.21926 13.93895,-3.14794 -4.30863,-0.0843 -11.06856,7.3207 -18.55651,6.17892 -3.44817,-1.67793 9.74003,-6.00551 14.95847,-6.79387 6.46152,-3.97935 0.99334,-6.11178 -4.59895,-0.4924 -3.57005,3.84814 -4.66619,5.61265 -9.97028,0.63318 -3.27071,-3.76618 7.91596,-2.57782 12.27581,-4.20845 9.1753,-2.64123 -1.63107,-6.47808 -5.30509,-4.16566 -6.14549,2.98418 -3.38657,5.07078 -11.06886,7.43438 -2.18563,0.19972 5.27055,-7.33136 8.94926,-7.21678 4.02068,1.27215 11.37423,-3.94758 9.47304,-6.76955 -0.25699,-1.76892 -10.88596,3.59739 -16.76886,7.90022 -6.391,4.39786 -10.27852,-1.03562 0.82178,-3.66696 5.97206,-2.87199 7.68612,-3.73003 12.40613,-6.62432 0.53661,-1.3058 -17.43208,5.50295 -18.03649,4.98705 -6.61768,2.73481 -5.01838,0.0375 -0.2312,-1.69186 4.64481,-0.75737 11.26214,-1.75849 17.51392,-2.02514 5.0529,0.5944 1.33798,-6.81215 -8.01986,-5.42346 -5.4113,1.71402 -7.56229,6.43983 -8.20692,5.99972 0.92716,0.22256 6.25725,-2.70515 11.13568,-4.65354 2.00959,-3.01557 4.98551,-7.95917 -3.19538,-8.20888 -3.07101,1.19642 -12.46222,4.45877 -15.34769,6.84603 0.7584,0.72237 0.62306,-1.55154 5.93694,-2.29465 7.03626,-0.21533 12.75433,2.11845 12.34577,-3.87752 0.70145,-0.11146 -14.02737,9.24059 -16.59217,1.12166 -1.30085,-2.04704 11.98409,-5.08422 13.72891,-7.25238 2.78385,-1.08945 -11.61491,-1.87387 -14.08494,-1.42065 -2.16901,1.06406 -9.66245,6.76488 -3.30416,4.66871 6.651,-2.7601 13.23278,0.85315 17.24681,-1.03019 7.45379,-3.9805 -6.80031,-5.45966 -9.67469,-4.03199 -4.6987,2.39197 -5.4601,11.90913 -9.45681,3.61523 -0.24057,-1.10177 11.26483,1.43145 13.75872,-0.29634 6.22249,-4.29693 -4.75093,-7.95574 -7.66908,-6.50964 -4.91761,2.60866 -8.89585,5.27526 -11.37141,2.3119 -4.29578,-2.04039 9.75211,-2.33672 14.13589,-2.74001 7.87658,1.07531 8.90466,-5.61035 1.94184,-4.96938 -6.7771,1.60556 -7.8119,3.17801 -13.52818,6.08914 -2.56208,-1.81939 -6.70729,-5.88002 4.19736,-3.6764 5.86709,2.69512 9.7393,-1.88299 8.90346,-6.7067 0.32883,0.007 -9.72679,4.85492 -15.22255,7.94776 -2.67882,2.24489 -6.13168,-3.61632 3.32121,-3.5929 6.44711,-1.10726 12.05223,-2.16496 11.79231,-8.81276 -0.25393,-6.87715 -10.05498,3.77706 -13.54104,4.51366 -4.0424,3.78176 -5.30081,6.43226 -9.50764,0.0127 -4.796976,-4.12784 12.06405,-0.10718 15.7245,-2.41928 6.39194,-1.77268 6.00865,-6.31648 -1.99532,-4.69677 -4.93391,1.13637 -9.68181,6.48681 -12.81996,5.42082 -4.499532,1.28768 8.16837,-4.2141 13.23278,-5.14035 6.17859,-1.24878 -4.50246,-11.23788 -7.96677,-7.03077 -6.28756,3.20095 -3.12868,7.24493 -7.21959,3.7525 -3.596662,-2.07918 1.21844,2.0217 7.872,0.67959 9.63324,-0.5541 5.63381,-6.31752 -2.51713,0.14262 -4.34975,3.7363 -9.651249,-3.44165 -8.458505,-7.48979 1.086181,-4.34942 6.920395,1.61368 11.191765,-0.44414 0.94321,0.0403 -6.71352,-4.45202 -11.218755,-2.18219 -0.946833,0.33532 1.476224,-2.77941 9.429435,-1.93885 4.11737,-0.13644 4.29857,-6.20464 -3.42021,-2.51058 -3.131895,1.55571 -15.485552,4.80243 -9.149628,-1.67644 1.023638,-3.71436 9.328108,4.99942 13.291878,2.07585 4.12386,-4.93325 -8.245271,-3.31921 -9.238975,-2.92247 -3.640219,2.82283 -4.975934,7.62754 -6.807187,1.56334 -0.921049,-5.13278 5.377971,-0.53708 8.706829,-2.24342 0.531193,0.23137 -14.226966,4.20504 -7.753096,-2.28961 2.744089,-3.15616 7.180924,3.0179 10.584049,0.58658 5.99612,-3.16989 -2.34402,-7.3728 -5.724603,-5.70345 -3.297661,1.99018 -12.486327,5.09199 -5.05248,1.37988 4.505875,-2.26791 5.747144,-2.23951 10.047333,-4.81465 2.63768,-2.52109 -9.494743,2.24662 -11.629886,6.68489 -1.505185,4.57536 -5.381183,0.36525 -5.051816,-2.92423 -0.594268,-1.28039 11.900043,-3.464 12.314875,-4.53009 1.521214,-1.05935 -7.89545,-19.905413 -12.821335,-10.23634 -2.525406,5.40187 0.767466,13.99161 8.363214,18.05765 5.883066,0.97982 5.531049,-9.75277 7.314008,-13.32523 1.54727,-4.48476 -7.081238,4.34719 -8.619179,5.3685 -7.910311,2.65812 -12.453987,-3.55307 -7.725008,-7.96265 1.231062,0.26293 11.636209,0.7953 14.307585,-1.69669 6.018562,-3.39268 -8.90098,-5.482273 -10.143726,-4.50591 -5.511154,2.64915 -8.106656,6.97069 -13.351052,6.35878 -7.946937,-0.008 -2.90427,-6.901139 2.326725,-8.869065 5.030195,-1.069597 7.416795,4.213005 13.489837,1.596551 1.63187,-3.33671 -2.852074,-9.424892 -7.764709,-1.527233 -3.159511,3.309457 -10.380342,4.741357 -13.55671,1.68584 -1.021564,-2.838111 10.76184,0.05607 13.384776,-1.355738 4.238929,-2.514457 9.591524,-0.462838 7.060417,-5.987899 -1.915279,-2.932882 -12.133212,2.406941 -14.701142,4.137739 -1.776359,-2.163183 -18.775632,-3.633062 2.24095,-3.657954 2.744652,0.376335 7.572348,-6.447602 5.856324,-7.801004 -2.812055,-3.216447 -7.91668,5.792544 -12.225329,7.900538 -1.224079,0.59247 -1.158481,-8.169233 7.443128,-5.794018 5.89466,1.586113 4.916882,-1.8883 7.780428,-6.593303 1.805847,-3.817797 -6.885414,-2.600007 -9.276855,1.061143 -2.513344,2.127867 -9.942523,4.517306 -16.34539,5.421662 0.381556,-0.33034 2.331501,-7.582143 14.609247,-5.053653 7.79895,0.358865 12.187999,3.04256 11.565651,-6.694186 -0.17263,-3.863702 -11.343301,2.827682 -12.36169,3.341577 -3.769712,1.624097 -8.20157,1.456637 -12.224679,1.119653 -4.592917,0.008 9.241192,-4.184303 14.23049,-2.771066 5.758255,1.383305 7.305461,-3.604181 -1.381453,-3.116815 -5.271288,0.12796 -3.898579,-0.529236 -6.987201,1.158475"
         id="path2419"
         sodipodi:nodetypes="ccccccccccccccccccccccccccccccccccccccccccccccccccccccccccccccccccccccccccccccccccccccccccccccccccccccccccccccccccccccccccccccccccc" /><path
         id="path2421"
         d="m 29.93317,245.43907 c 0.565401,1.85682 4.318984,11.70096 8.711821,13.86059 4.89417,1.19677 7.588107,1.87612 10.296475,-3.1922 2.099133,-1.50266 -8.112376,-4.42313 -9.382281,-5.09876 -5.793433,-2.50786 -10.161172,-4.24223 -4.458743,-9.48841 3.12981,-2.30496 8.242282,8.37563 10.607273,8.63011 3.741791,5.96014 4.362839,0.38686 3.875873,-4.38048 0.846011,-2.25399 -16.574108,5.07476 -13.868889,-10.31356 2.301304,-6.16911 11.95922,11.63106 12.056615,10.80371 1.307754,7.70932 9.401638,2.07608 6.827078,-5.02939 -2.722356,-4.03058 -17.216828,-0.90172 -21.00204,-7.22343 -4.706593,-6.70804 11.322466,2.15588 16.621424,8.11689 4.612566,7.03894 8.859816,1.11387 3.013827,-1.6991 -8.356918,-3.02019 -6.766931,-0.88056 -14.333824,-7.53938 -7.657025,-6.13722 6.932118,-2.18848 9.364536,-0.37984 5.908974,4.42147 6.578486,3.69691 11.561143,-2.08942 2.134333,-2.79165 -8.465098,-1.00723 -10.918499,0.99349 -8.087503,4.22403 -8.95694,-6.08541 -6.493272,-8.5269 0.764434,-0.56717 11.219931,14.091 15.084684,11.86457 5.216792,-0.82052 -9.450083,-10.98885 -9.238988,-10.76686 -7.529319,-3.38958 -4.11485,-6.50681 -2.321735,-6.97061 3.388747,-0.88955 12.438028,5.56248 15.523779,10.01391 0.971862,-0.0915 3.75942,-2.18545 -5.083323,-4.16142 -7.250224,-2.01469 -11.051942,-4.23754 -13.528326,-7.09185 -2.638856,-4.92483 14.635583,3.82177 16.929412,4.169 5.509967,1.53294 -5.506164,-6.14298 -10.685824,-5.49268 -9.350135,-0.88227 -6.354826,-7.24637 -0.788088,-6.55171 5.528034,-0.56085 9.903026,8.50646 11.556449,11.15015 3.959098,6.48122 5.415455,1.29109 3.164631,-3.17545 -2.947424,-5.69094 -10.409092,-3.70342 -13.297725,-7.06183 -5.658874,-4.86431 3.335406,-3.67232 8.230354,-1.66782 7.894881,4.82482 5.701262,9.18338 11.496524,1.92607 3.831283,-5.09284 -10.624706,-3.70507 -12.904123,-3.75496 -5.190715,-0.87636 -13.830546,-3.48556 -6.649742,-2.90704 7.662614,-1.00872 7.150251,3.51948 15.371157,4.35384 4.43366,-1.10638 -6.964752,-2.95941 -11.772149,-5.18153 -6.548572,-2.49799 0.816266,-6.32258 4.886402,-2.14283 3.19056,4.17931 4.284649,10.87811 8.731052,4.98882 3.856056,-4.6892 -10.360491,-4.38822 -13.39287,-6.72404 -6.64111,-2.67294 4.523859,-8.66759 8.625361,-6.45088 4.819266,2.74915 2.304754,9.54663 9.287285,10.46926 1.279623,0.50821 -5.548318,-5.33547 -8.836006,-5.75553 -5.052976,-0.7514 -7.061499,-7.85375 -8.397629,-10.05929 0.965232,-0.003 9.922711,5.18804 15.418072,9.10079 6.850594,7.09792 11.11758,-2.63532 0.871262,-5.33117 -5.664186,-1.51093 -9.694431,-1.24207 -11.018125,-4.10579 -0.376423,0.014 13.378561,3.04821 13.763511,3.03155 5.161309,3.96768 8.52138,-1.1741 2.368709,-2.75708 -4.73846,-1.73759 -9.371844,0.45013 -15.106068,-0.14675 -5.88028,-0.25641 -5.307965,-7.50354 3.649763,-5.76373 6.325555,0.38895 11.595642,3.70014 12.001471,5.09036 0.213897,0.003 -5.935414,-1.21682 -10.265315,-4.52726 -3.86166,-2.85308 -4.981244,-6.43143 2.917669,-6.24394 5.770459,1.3668 9.617175,4.39221 12.056395,8.44829 0.133258,-0.0496 0.142807,-4.33414 -5.809652,-4.63693 -6.53942,0.31391 -10.959724,0.56126 -10.575017,-6.63908 0.259461,-1.06907 13.022612,13.51401 15.436474,5.35134 0.453814,-1.69965 -12.424478,-6.47039 -13.081732,-8.65651 -1.028714,-2.46619 9.255638,0.0304 13.847891,-0.20004 3.864999,0.77789 11.295634,5.64913 3.72635,2.67621 -5.303875,0.27277 -13.12282,1.52009 -16.860912,-0.24847 -7.086107,-2.9517 7.316134,-3.87042 9.208336,-4.80108 5.545778,1.27655 5.960169,14.98232 10.800601,4.47286 0.06686,-0.39251 -14.019852,-0.27942 -15.47687,-3.52993 -7.986779,-3.23077 6.611263,-6.20327 9.558932,-3.57544 6.148925,2.17812 5.092179,5.26813 9.411936,3.18023 4.340183,-2.58676 -5.925119,-4.58099 -10.143741,-5.06925 -6.469981,0.0929 -10.381605,-4.41193 -4.298897,-3.09955 9.434996,2.09952 5.974527,2.77576 13.365413,4.17779 0.573178,1.11322 5.018585,-6.25405 -4.979767,-3.26461 -4.74866,4.1801 -11.248808,-1.493 -10.027415,-6.82808 -0.977567,0.46915 9.787869,2.5994 16.343815,7.35316 3.803171,0.78785 6.169657,-4.87255 -2.983283,-4.50503 -7.951787,-0.36352 -13.865008,0.75588 -12.116837,-4.38538 0.988661,-5.79136 11.077017,1.61974 13.051692,3.19206 3.84216,2.89724 6.250739,9.21719 9.793256,1.01363 2.243644,-4.71092 -7.811947,-2.33933 -12.304332,-4.59847 -6.306026,-3.12113 -8.785158,-7.43468 -1.520856,-5.18857 4.718793,-0.45286 6.7584,5.75247 12.111587,6.83218 5.241935,2.4436 -7.974808,-6.23704 -11.619367,-6.13913 -6.28029,-1.56386 3.183527,-2.80192 8.236553,-1.42457 7.208929,2.28402 6.859919,3.70769 10.074399,1.56988 4.70815,-2.5456 -10.260954,-3.45903 -13.173834,-2.92129 -9.716765,-2.67253 -2.41065,-8.59378 4.896342,-1.71718 4.231712,3.44351 6.761852,1.50785 5.582412,-2.08269 -1.35807,-4.10693 -8.673626,-4.34528 -12.999437,-2.96482 -2.300237,-1.42383 8.056266,-4.90905 12.236037,-3.06082 4.81779,2.04699 3.41886,0.34433 -3.446105,-0.54011 -3.796083,-0.0125 -6.83184,-7.68292 0.193381,-3.95404 3.221994,1.49752 14.156354,9.39301 8.766334,1.34327 -0.9733,-0.83827 -7.942225,3.93835 -12.757295,-1.8487 -5.020593,-4.12904 8.513665,-4.2135 9.270215,-2.88485 4.5905,2.05069 1.8676,10.02834 3.56055,3.76458 0.90056,-3.81907 -1.3162,-3.28083 -3.48668,-6.1865 -1.68863,-1.22169 8.44614,12.33039 2.31419,4.0529 -3.12082,-3.09088 -1.64897,0.53431 -4.82533,-1.35392 -6.024389,-3.53653 1.19941,-7.42665 3.80194,-6.95233 5.18964,2.45177 13.83163,7.54162 5.15296,3.18673 -5.63024,-2.8067 -4.30072,5.19094 -9.545618,-1.51841 -2.867877,-2.86521 7.583408,1.05444 8.552808,5.02002 5.15467,4.88071 6.88877,-1.92632 6.98012,-5.69056 -0.19066,-1.69395 -12.87283,-5.43902 -14.64007,-4.71167 -2.262524,-0.83963 13.03837,-19.993822 16.88528,-11.16616 2.29386,4.80983 0.93153,13.86361 -7.90173,15.67762 -6.92361,2.92806 -6.4046,-4.92017 -8.62965,-8.04635 -0.2998,-3.48094 6.49842,-2.07922 9.06116,-0.74305 6.70663,2.56786 10.86528,0.0602 5.39732,-5.38069 -1.04614,0.14431 -11.64224,0.179 -12.76292,-0.098 -6.114167,-3.04363 3.99209,-6.547711 7.07153,-3.7253 5.33229,2.53035 8.46832,1.26942 15.13587,2.66433 10.17153,-0.33889 2.38438,-4.082338 -2.68292,-5.164021 -5.52121,-0.860499 -6.59711,1.616991 -11.89996,-0.763143 -1.08486,-1.960258 1.39683,-5.617821 6.89065,-0.439909 3.23784,4.617603 11.4038,6.727873 14.88065,2.033601 2.70509,-2.410273 -12.2048,-3.754131 -15.12424,-3.745447 -5.53892,-0.44078 -7.84694,2.012219 -6.33902,-4.947746 1.01684,-3.359666 11.76495,1.686904 14.51557,3.741751 -0.27452,-1.057931 16.92149,-3.572282 -4.60739,-2.656279 -4.14717,0.06606 -4.3128,-6.168776 -3.94474,-9.174472 3.14016,-4.348477 7.1659,7.140641 12.33685,8.230939 1.10639,0.635751 1.81788,-8.053359 -7.43894,-5.836394 -5.71331,1.418111 -4.89544,-2.500262 -6.54725,-5.065143 -2.04751,-4.331208 15.63376,1.0015 14.93814,1.613326 2.83506,3.018358 5.45596,4.393522 10.85795,5.524851 0.4636,0.174591 -2.6261,-7.828594 -14.45578,-5.457301 -8.07029,3.922115 -10.57911,1.967379 -12.09216,-7.608342 -0.32314,-2.656946 11.28504,1.886289 12.41599,3.020012 3.71781,1.774569 7.25229,2.152865 11.46375,1.924135 8.19466,2.97461 -9.00237,-3.510074 -13.8889,-3.511754 -6.87041,-0.665347 -5.50968,-7.003518 2.23882,-5.977411 8.65144,0.920898 3.18696,2.491264 7.27661,4.81674"
         style="fill:none;fill-rule:evenodd;stroke:#4169e1;stroke-width:1.32292;stroke-linecap:butt;stroke-linejoin:miter;stroke-miterlimit:4;stroke-dasharray:none;stroke-opacity:1"
         sodipodi:nodetypes="ccccccccccccccccccccccccccccccccccccccccccccccccccccccccccccccccccccccccccccccccccccccccccccccccccccccccccccccccccccccccccccccccccc" /><circle
         id="path3243"
         style="fill:#808080;fill-opacity:1;stroke:none;stroke-width:5.17098;stroke-miterlimit:4;stroke-dasharray:none;stroke-opacity:1"
         cx="97.690514"
         cy="133.53784"
         r="12.013968" /></g><g
       id="g19578"
       transform="matrix(0.28323382,-0.14384638,0.14384638,0.28323382,-44.021576,177.6406)"><path
         id="path2421-2-7"
         d="m 256.33145,162.81291 c 0.5654,1.85682 4.31898,11.70096 8.71182,13.86059 4.89417,1.19677 7.5881,1.87612 10.29647,-3.1922 2.09914,-1.50266 -8.11237,-4.42313 -9.38228,-5.09876 -5.79343,-2.50786 -10.16117,-4.24223 -4.45874,-9.48841 3.12981,-2.30496 8.24228,8.37563 10.60727,8.63011 3.74179,5.96014 4.36284,0.38686 3.87588,-4.38048 0.84601,-2.25399 -16.57411,5.07476 -13.86889,-10.31356 2.3013,-6.16911 11.95922,11.63106 12.05661,10.80371 1.30776,7.70932 9.40164,2.07608 6.82708,-5.02939 -2.72236,-4.03058 -17.21683,-0.90172 -21.00204,-7.22343 -4.70659,-6.70804 11.32246,2.15588 16.62142,8.11689 4.61257,7.03894 8.85982,1.11387 3.01383,-1.6991 -8.35692,-3.02019 -6.76693,-0.88056 -14.33382,-7.53938 -7.65703,-6.13722 6.93211,-2.18848 9.36453,-0.37984 5.90898,4.42147 6.57849,3.69691 11.56115,-2.08942 2.13433,-2.79165 -8.4651,-1.00723 -10.9185,0.99349 -8.08751,4.22403 -8.95694,-6.08541 -6.49328,-8.5269 0.76444,-0.56717 11.21993,14.091 15.08469,11.86457 5.21679,-0.82052 -9.45009,-10.98885 -9.23899,-10.76686 -7.52932,-3.38958 -4.11485,-6.50681 -2.32173,-6.97061 3.38874,-0.88955 12.43802,5.56248 15.52377,10.01391 0.97187,-0.0915 3.75942,-2.18545 -5.08332,-4.16142 -7.25022,-2.01469 -11.05194,-4.23754 -13.52833,-7.09185 -2.63885,-4.92483 14.63559,3.82177 16.92942,4.169 5.50996,1.53294 -5.50617,-6.14298 -10.68583,-5.49268 -9.35013,-0.88227 -6.35482,-7.24637 -0.78809,-6.55171 5.52804,-0.56085 9.90303,8.50646 11.55645,11.15015 3.9591,6.48122 5.41546,1.29109 3.16464,-3.17545 -2.94743,-5.69094 -10.4091,-3.70342 -13.29773,-7.06183 -5.65887,-4.86431 3.33541,-3.67232 8.23035,-1.66782 7.89489,4.82482 5.70127,9.18338 11.49653,1.92607 3.83128,-5.09284 -10.62471,-3.70507 -12.90412,-3.75496 -5.19072,-0.87636 -13.83055,-3.48556 -6.64975,-2.90704 7.66262,-1.00872 7.15025,3.51948 15.37116,4.35384 4.43366,-1.10638 -6.96475,-2.95941 -11.77215,-5.18153 -6.54857,-2.49799 0.81627,-6.32258 4.8864,-2.14283 3.19056,4.17931 4.28465,10.87811 8.73105,4.98882 3.85606,-4.6892 -10.36049,-4.38822 -13.39287,-6.72404 -6.6411,-2.67294 4.52386,-8.66759 8.62537,-6.45088 4.81926,2.74915 2.30475,9.54663 9.28728,10.46926 1.27962,0.50821 -5.54832,-5.33547 -8.836,-5.75553 -5.05298,-0.7514 -7.0615,-7.85375 -8.39763,-10.05929 0.96523,-0.003 9.92271,5.18804 15.41807,9.10079 6.85059,7.09792 11.11758,-2.63532 0.87126,-5.33117 -5.66419,-1.51093 -9.69443,-1.24207 -11.01813,-4.10579 -0.37642,0.014 13.37857,3.04821 13.76352,3.03155 5.1613,3.96768 8.52138,-1.1741 2.3687,-2.75708 -4.73845,-1.73759 -9.37184,0.45013 -15.10606,-0.14675 -5.88028,-0.25641 -5.30797,-7.503542 3.64976,-5.763732 6.32556,0.38895 11.59564,3.700142 12.00147,5.090362 0.2139,0.003 -5.93541,-1.21682 -10.26531,-4.527262 -3.86166,-2.85308 -4.98125,-6.43143 2.91766,-6.24394 5.77046,1.3668 9.61718,4.39221 12.0564,8.448292 0.13326,-0.0496 0.14281,-4.334142 -5.80965,-4.636932 -6.53942,0.31391 -10.95973,0.56126 -10.57502,-6.63908 0.25946,-1.06907 13.02261,13.514012 15.43648,5.35134 0.45381,-1.69965 -12.42448,-6.47039 -13.08174,-8.65651 -1.02871,-2.46619 9.25564,0.0304 13.84789,-0.20004 3.865,0.77789 11.29564,5.64913 3.72635,2.67621 -5.30387,0.27277 -13.12282,1.52009 -16.86091,-0.24847 -7.08611,-2.9517 7.31614,-3.87042 9.20834,-4.80108 5.54578,1.27655 5.96017,14.98232 10.8006,4.47286 0.0669,-0.39251 -14.01985,-0.27942 -15.47687,-3.52993 -7.98678,-3.23077 6.61126,-6.20327 9.55893,-3.57544 6.14893,2.17812 5.09218,5.26813 9.41194,3.18023 4.34018,-2.58676 -5.92512,-4.58099 -10.14374,-5.06925 -6.46999,0.0929 -10.38161,-4.41193 -4.2989,-3.09955 9.435,2.09952 5.97453,2.77576 13.36541,4.17779 0.57318,1.11322 5.01859,-6.25405 -4.97976,-3.26461 -4.74867,4.1801 -11.24881,-1.493 -10.02742,-6.82808 -0.97757,0.46915 9.78787,2.5994 16.34381,7.35316 3.80318,0.78785 6.16966,-4.87255 -2.98328,-4.50503 -7.95179,-0.36352 -13.86501,0.75588 -12.11684,-4.38538 0.98867,-5.79136 11.07702,1.61974 13.0517,3.19206 3.84216,2.89724 6.25074,9.21719 9.79325,1.01363 2.24365,-4.71092 -7.81194,-2.33933 -12.30433,-4.59847 -6.30602,-3.12113 -8.78516,-7.43468 -1.52085,-5.18857 4.71879,-0.45286 6.75839,5.75247 12.11158,6.83218 5.24194,2.4436 -7.97481,-6.23704 -11.61937,-6.13913 -6.28028,-1.56386 3.18353,-2.80192 8.23656,-1.42457 7.20893,2.28402 6.85992,3.70769 10.0744,1.56988 4.70815,-2.5456 -10.26096,-3.45903 -13.17384,-2.92129 -9.71676,-2.67253 -2.41065,-8.59378 4.89634,-1.71718 4.23172,3.44351 6.76186,1.50785 5.58242,-2.08269 -1.35807,-4.10693 -8.67363,-4.34528 -12.99944,-2.96482 -2.30024,-1.42383 8.05627,-4.90905 12.23604,-3.06082 4.81779,2.04699 3.41886,0.34433 -3.44611,-0.54011 -3.79608,-0.0125 -6.83184,-7.68292 0.19338,-3.95404 3.222,1.49752 14.15636,9.39301 8.76634,1.34327 -0.9733,-0.83827 -7.94223,3.93835 -12.7573,-1.8487 -5.02059,-4.12904 8.51367,-4.2135 9.27022,-2.88485 4.5905,2.05069 1.8676,10.02834 3.56055,3.76458 0.90056,-3.81907 -1.3162,-3.28083 -3.48668,-6.1865 -1.68863,-1.22169 8.44614,12.33039 2.31419,4.0529 -3.12082,-3.09088 -1.64897,0.53431 -4.82533,-1.35392 -6.02439,-3.53653 1.19941,-7.42665 3.80194,-6.95233 5.18964,2.45177 13.83163,7.54162 5.15296,3.18673 -5.63024,-2.8067 -4.30072,5.19094 -9.54562,-1.51841 -2.86788,-2.86521 7.58341,1.05444 8.55281,5.02002 5.15467,4.88071 6.88877,-1.92632 6.98012,-5.69056 -0.19066,-1.69395 -12.87283,-5.43902 -14.64007,-4.71167 -2.26253,-0.83963 13.03837,-19.993836 16.88528,-11.16616 2.29386,4.80983 0.93153,13.86361 -7.90173,15.67762 -6.92361,2.92806 -6.4046,-4.92017 -8.62965,-8.04635 -0.2998,-3.48094 6.49842,-2.07922 9.06116,-0.74305 6.70663,2.56786 10.86528,0.0602 5.39732,-5.38069 -1.04614,0.14431 -11.64224,0.179 -12.76292,-0.098 -6.11417,-3.04363 3.99209,-6.547725 7.07153,-3.7253 5.33229,2.53035 8.46832,1.26942 15.13587,2.66433 10.17153,-0.33889 2.38438,-4.082345 -2.68292,-5.164035 -5.52121,-0.86049 -6.59711,1.617 -11.89996,-0.76314 -1.08486,-1.96026 1.39683,-5.617821 6.89065,-0.43991 3.23784,4.617615 11.4038,6.727885 14.88065,2.0336 2.70509,-2.41027 -12.2048,-3.75413 -15.12424,-3.74544 -5.53892,-0.440781 -7.84694,2.01222 -6.33902,-4.947751 1.01684,-3.35967 11.76495,1.6869 14.51557,3.74175 -0.27452,-1.05793 16.92149,-3.57228 -4.60739,-2.65628 -4.14717,0.0661 -4.3128,-6.16877 -3.94474,-9.17447 3.14016,-4.34848 7.1659,7.14064 12.33685,8.23094 1.10639,0.63575 1.81788,-8.05336 -7.43894,-5.83639 -5.71331,1.41811 -4.89544,-2.50027 -6.54725,-5.06515 -2.04751,-4.33121 15.63376,1.0015 14.93814,1.61333 2.83506,3.01836 5.45596,4.39352 10.85795,5.52485 0.4636,0.17459 -2.6261,-7.82859 -14.45578,-5.4573 -8.07029,3.92211 -10.57911,1.96738 -12.09216,-7.608343 -0.32314,-2.656946 11.28504,1.886293 12.41599,3.020013 3.71781,1.77457 7.25229,2.15286 11.46375,1.92413 8.19466,2.97461 -9.00237,-3.51007 -13.8889,-3.51175 -6.87041,-0.665347 -5.50968,-7.003518 2.23882,-5.977411 8.65144,0.920898 3.18696,2.491264 7.27661,4.81674"
         style="fill:none;fill-rule:evenodd;stroke:#aa0000;stroke-width:1.32292;stroke-linecap:butt;stroke-linejoin:miter;stroke-miterlimit:4;stroke-dasharray:none;stroke-opacity:1"
         sodipodi:nodetypes="ccccccccccccccccccccccccccccccccccccccccccccccccccccccccccccccccccccccccccccccccccccccccccccccccccccccccccccccccccccccccccccccccccc" /><path
         id="path2421-1"
         d="m 260.23415,163.77021 c 0.5654,1.85682 4.31898,11.70096 8.71182,13.86059 4.89417,1.19677 7.58811,1.87612 10.29648,-3.1922 2.09913,-1.50266 -8.11238,-4.42313 -9.38229,-5.09876 -5.79343,-2.50786 -10.16117,-4.24223 -4.45874,-9.48841 3.12981,-2.30496 8.24228,8.37563 10.60727,8.63011 3.7418,5.96014 4.36284,0.38686 3.87588,-4.38048 0.84601,-2.25399 -16.57411,5.07476 -13.86889,-10.31356 2.3013,-6.16911 11.95922,11.63106 12.05661,10.80371 1.30776,7.70932 9.40164,2.07608 6.82708,-5.02939 -2.72235,-4.03058 -17.21683,-0.90172 -21.00204,-7.22343 -4.70659,-6.70804 11.32247,2.15588 16.62143,8.11689 4.61256,7.03894 8.85981,1.11387 3.01382,-1.6991 -8.35691,-3.02019 -6.76693,-0.88056 -14.33382,-7.53938 -7.65703,-6.13722 6.93212,-2.18848 9.36454,-0.37984 5.90897,4.42147 6.57848,3.69691 11.56114,-2.08942 2.13433,-2.79165 -8.4651,-1.00723 -10.9185,0.99349 -8.0875,4.22403 -8.95694,-6.08541 -6.49327,-8.5269 0.76443,-0.56717 11.21993,14.091 15.08468,11.86457 5.21679,-0.82052 -9.45008,-10.98885 -9.23899,-10.76686 -7.52932,-3.38958 -4.11485,-6.50681 -2.32173,-6.97061 3.38875,-0.88955 12.43803,5.56248 15.52378,10.01391 0.97186,-0.0915 3.75942,-2.18545 -5.08333,-4.16142 -7.25022,-2.01469 -11.05194,-4.23754 -13.52832,-7.09185 -2.63886,-4.92483 14.63558,3.82177 16.92941,4.169 5.50997,1.53294 -5.50616,-6.14298 -10.68582,-5.49268 -9.35014,-0.88227 -6.35483,-7.24637 -0.78809,-6.55171 5.52803,-0.56085 9.90302,8.50646 11.55645,11.15015 3.9591,6.48122 5.41545,1.29109 3.16463,-3.17545 -2.94743,-5.69094 -10.40909,-3.70342 -13.29773,-7.06183 -5.65887,-4.86431 3.33541,-3.67232 8.23036,-1.66782 7.89488,4.82482 5.70126,9.18338 11.49652,1.92607 3.83128,-5.09284 -10.6247,-3.70507 -12.90412,-3.75496 -5.19072,-0.87636 -13.83055,-3.48556 -6.64974,-2.90704 7.66261,-1.00872 7.15025,3.51948 15.37115,4.35384 4.43366,-1.10638 -6.96475,-2.95941 -11.77215,-5.18153 -6.54857,-2.49799 0.81627,-6.32258 4.88641,-2.14283 3.19056,4.17931 4.28464,10.87811 8.73105,4.98882 3.85605,-4.6892 -10.36049,-4.38822 -13.39287,-6.72404 -6.64111,-2.67294 4.52386,-8.66759 8.62536,-6.45088 4.81927,2.74915 2.30475,9.54663 9.28728,10.46926 1.27963,0.50821 -5.54831,-5.33547 -8.836,-5.75553 -5.05298,-0.7514 -7.0615,-7.85375 -8.39763,-10.05929 0.96523,-0.003 9.92271,5.18804 15.41807,9.10079 6.8506,7.09792 11.11758,-2.63532 0.87126,-5.33117 -5.66418,-1.51093 -9.69443,-1.24207 -11.01812,-4.10579 -0.37642,0.014 13.37856,3.04821 13.76351,3.03155 5.16131,3.96768 8.52138,-1.1741 2.36871,-2.75708 -4.73846,-1.73759 -9.37185,0.45013 -15.10607,-0.14675 -5.88028,-0.25641 -5.30796,-7.503542 3.64976,-5.763732 6.32556,0.38895 11.59564,3.700142 12.00147,5.090362 0.2139,0.003 -5.93541,-1.21682 -10.26531,-4.527262 -3.86166,-2.85308 -4.98125,-6.43143 2.91767,-6.24394 5.77046,1.3668 9.61717,4.39221 12.05639,8.448292 0.13326,-0.0496 0.14281,-4.334142 -5.80965,-4.636932 -6.53942,0.31391 -10.95972,0.56126 -10.57502,-6.63908 0.25946,-1.06907 13.02262,13.514012 15.43648,5.35134 0.45381,-1.69965 -12.42448,-6.47039 -13.08173,-8.65651 -1.02872,-2.46619 9.25563,0.0304 13.84789,-0.20004 3.865,0.77789 11.29563,5.64913 3.72635,2.67621 -5.30388,0.27277 -13.12282,1.52009 -16.86091,-0.24847 -7.08611,-2.9517 7.31613,-3.87042 9.20833,-4.80108 5.54578,1.27655 5.96017,14.98232 10.8006,4.47286 0.0669,-0.39251 -14.01985,-0.27942 -15.47687,-3.52993 -7.98678,-3.23077 6.61127,-6.20327 9.55893,-3.57544 6.14893,2.17812 5.09218,5.26813 9.41194,3.18023 4.34018,-2.58676 -5.92512,-4.58099 -10.14374,-5.06925 -6.46998,0.0929 -10.38161,-4.41193 -4.2989,-3.09955 9.435,2.09952 5.97453,2.77576 13.36542,4.17779 0.57317,1.11322 5.01858,-6.25405 -4.97977,-3.26461 -4.74866,4.1801 -11.24881,-1.493 -10.02742,-6.82808 -0.97756,0.46915 9.78787,2.5994 16.34382,7.35316 3.80317,0.78785 6.16965,-4.87255 -2.98329,-4.50503 -7.95178,-0.36352 -13.865,0.75588 -12.11683,-4.38538 0.98866,-5.79136 11.07701,1.61974 13.05169,3.19206 3.84216,2.89724 6.25074,9.21719 9.79326,1.01363 2.24364,-4.71092 -7.81195,-2.33933 -12.30434,-4.59847 -6.30602,-3.12113 -8.78515,-7.43468 -1.52085,-5.18857 4.71879,-0.45286 6.7584,5.75247 12.11158,6.83218 5.24194,2.4436 -7.9748,-6.23704 -11.61936,-6.13913 -6.28029,-1.56386 3.18352,-2.80192 8.23655,-1.42457 7.20893,2.28402 6.85992,3.70769 10.0744,1.56988 4.70815,-2.5456 -10.26095,-3.45903 -13.17383,-2.92129 -9.71677,-2.67253 -2.41065,-8.59378 4.89634,-1.71718 4.23171,3.44351 6.76185,1.50785 5.58241,-2.08269 -1.35807,-4.10693 -8.67363,-4.34528 -12.99944,-2.96482 -2.30023,-1.42383 8.05627,-4.90905 12.23604,-3.06082 4.81779,2.04699 3.41886,0.34433 -3.44611,-0.54011 -3.79608,-0.0125 -6.83184,-7.68292 0.19339,-3.95404 3.22199,1.49752 14.15635,9.39301 8.76633,1.34327 -0.9733,-0.83827 -7.94222,3.93835 -12.75729,-1.8487 -5.0206,-4.12904 8.51366,-4.2135 9.27021,-2.88485 4.5905,2.05069 1.8676,10.02834 3.56055,3.76458 0.90056,-3.81907 -1.3162,-3.28083 -3.48668,-6.1865 -1.68863,-1.22169 8.44614,12.33039 2.31419,4.0529 -3.12082,-3.09088 -1.64897,0.53431 -4.82533,-1.35392 -6.02439,-3.53653 1.19941,-7.42665 3.80194,-6.95233 5.18964,2.45177 13.83163,7.54162 5.15296,3.18673 -5.63024,-2.8067 -4.30072,5.19094 -9.54562,-1.51841 -2.86787,-2.86521 7.58341,1.05444 8.55281,5.02002 5.15467,4.88071 6.88877,-1.92632 6.98012,-5.69056 -0.19066,-1.69395 -12.87283,-5.43902 -14.64007,-4.71167 -2.26252,-0.83963 13.03837,-19.993822 16.88528,-11.16616 2.29386,4.80983 0.93153,13.86361 -7.90173,15.67762 -6.92361,2.92806 -6.4046,-4.92017 -8.62965,-8.04635 -0.2998,-3.48094 6.49842,-2.07922 9.06116,-0.74305 6.70663,2.56786 10.86528,0.0602 5.39732,-5.38069 -1.04614,0.14431 -11.64224,0.179 -12.76292,-0.098 -6.11417,-3.04363 3.99209,-6.547711 7.07153,-3.7253 5.33229,2.53035 8.46832,1.26942 15.13587,2.66433 10.17153,-0.33889 2.38438,-4.082338 -2.68292,-5.164021 -5.52121,-0.860499 -6.59711,1.616991 -11.89996,-0.763143 -1.08486,-1.960258 1.39683,-5.617821 6.89065,-0.439909 3.23784,4.617603 11.4038,6.727873 14.88065,2.033601 2.70509,-2.410273 -12.2048,-3.754131 -15.12424,-3.745447 -5.53892,-0.44078 -7.84694,2.012219 -6.33902,-4.947746 1.01684,-3.359666 11.76495,1.686904 14.51557,3.741751 -0.27452,-1.057931 16.92149,-3.572282 -4.60739,-2.656279 -4.14717,0.06606 -4.3128,-6.168776 -3.94474,-9.174472 3.14016,-4.348477 7.1659,7.140641 12.33685,8.230939 1.10639,0.635751 1.81788,-8.053359 -7.43894,-5.836394 -5.71331,1.418111 -4.89544,-2.500262 -6.54725,-5.065143 -2.04751,-4.331208 15.63376,1.0015 14.93814,1.613326 2.83506,3.018358 5.45596,4.393522 10.85795,5.524851 0.4636,0.174591 -2.6261,-7.828594 -14.45578,-5.457301 -8.07029,3.922115 -10.57911,1.967379 -12.09216,-7.608342 -0.32314,-2.656946 11.28504,1.886289 12.41599,3.020012 3.71781,1.774569 7.25229,2.152865 11.46375,1.924135 8.19466,2.97461 -9.00237,-3.510074 -13.8889,-3.511754 -6.87041,-0.665347 -5.50968,-7.003518 2.23882,-5.977411 8.65144,0.920898 3.18696,2.491264 7.27661,4.81674"
         style="fill:none;fill-rule:evenodd;stroke:#4169e1;stroke-width:1.32292;stroke-linecap:butt;stroke-linejoin:miter;stroke-miterlimit:4;stroke-dasharray:none;stroke-opacity:1"
         sodipodi:nodetypes="ccccccccccccccccccccccccccccccccccccccccccccccccccccccccccccccccccccccccccccccccccccccccccccccccccccccccccccccccccccccccccccccccccc" /></g><g
       id="g19574"
       transform="matrix(0.28976199,0.14177996,-0.14177996,0.28976199,20.215561,47.191073)"><path
         style="fill:none;fill-rule:evenodd;stroke:#aa0000;stroke-width:1.32292;stroke-linecap:butt;stroke-linejoin:miter;stroke-miterlimit:4;stroke-dasharray:none;stroke-opacity:1"
         d="m 563.50686,203.2584 c -0.80755,2.73093 -1.6213,12.58125 -6.95313,14.4448 -4.51729,3.6416 -6.03409,-3.54695 -10.26023,-5.61098 0.15965,-2.4771 6.67389,-3.16463 7.9917,-2.56921 5.60959,-2.90802 14.59395,-6.43695 8.12153,-11.84762 -4.49837,-4.56786 -10.59917,9.66473 -10.61229,11.23257 -1.28487,5.30644 -4.14041,-4.0376 -3.18304,-7.19919 2.36156,-4.94533 15.86237,6.6847 11.39073,-7.89686 -1.88153,-5.07277 -14.27733,10.64644 -13.73812,10.58056 -3.89289,7.66005 -6.04219,-1.88091 -3.78895,-7.03603 2.36043,-4.68392 15.86329,-1.8812 19.62396,-7.68279 4.32084,-6.59371 -13.51034,0.0513 -17.56329,8.28664 -3.81405,5.25244 -11.69496,2.37112 -3.37355,0.29314 6.45088,-3.63274 10.31823,-3.21967 18.16414,-7.6657 7.68256,-7.53347 -7.3371,-4.12231 -10.68427,-1.00685 -7.60458,4.82284 -8.86857,2.52329 -14.39839,-2.92363 -2.04463,-0.72637 12.06681,0.18201 14.02253,0.95276 4.85534,4.9318 8.25838,-6.06022 7.63777,-7.63638 -1.54705,-1.6025 -17.10213,13.33269 -21.57308,11.11233 -4.56217,-3.40387 14.19928,-11.65726 15.5339,-9.8397 7.71071,-3.45921 2.71291,-5.46037 -1.17241,-5.93461 -3.42438,-1.2782 -10.53833,6.82289 -13.61307,8.94042 -0.2688,1.78089 -2.74251,-3.0536 5.43466,-4.51805 6.49926,-1.54664 8.61394,-0.0235 9.84584,-4.64107 0.40075,-6.70079 -12.53912,0.25811 -13.44501,1.42654 -3.83843,-0.33494 6.74455,-6.58089 10.86758,-5.51956 8.248,0.61903 11.58904,-4.43581 2.577,-4.31309 -4.60795,0.19121 -12.59051,7.3449 -13.18443,9.55077 -4.65007,5.903 -9.31297,0.52632 -5.74312,-2.77615 2.56951,-5.83876 15.54449,-2.87827 18.68037,-6.37696 6.07942,-3.97642 -5.57253,-3.91402 -9.39265,-1.80302 -6.78905,3.38795 -4.79738,11.72255 -11.91065,1.4358 -3.65846,-5.10544 3.86055,-6.26599 7.26396,-5.16685 5.41875,1.4508 21.50923,-3.21926 13.93895,-3.14794 -4.30863,-0.0843 -11.06856,7.3207 -18.55651,6.17892 -3.44817,-1.67793 9.74003,-6.00551 14.95847,-6.79387 6.46152,-3.97935 0.99334,-6.11178 -4.59895,-0.4924 -3.57005,3.84814 -4.66619,5.61265 -9.97028,0.63318 -3.27071,-3.76618 7.91596,-2.57782 12.27581,-4.20845 9.1753,-2.64123 -1.63107,-6.47808 -5.30509,-4.16566 -6.14549,2.98418 -3.38657,5.07078 -11.06886,7.43438 -2.18563,0.19972 5.27055,-7.33136 8.94926,-7.21678 4.02068,1.27215 11.37423,-3.94758 9.47304,-6.76955 -0.25699,-1.76892 -10.88596,3.59739 -16.76886,7.90022 -6.391,4.39786 -10.27852,-1.03562 0.82178,-3.66696 5.97206,-2.87199 7.68612,-3.73003 12.40613,-6.62432 0.53661,-1.3058 -17.43208,5.50295 -18.03649,4.98705 -6.61768,2.73481 -5.01838,0.0375 -0.2312,-1.69186 4.64481,-0.75737 11.26214,-1.75849 17.51392,-2.02514 5.0529,0.5944 1.33798,-6.81215 -8.01986,-5.42346 -5.4113,1.71402 -7.56229,6.43983 -8.20692,5.99972 0.92716,0.22256 6.25725,-2.70515 11.13568,-4.65354 2.00959,-3.01557 4.98551,-7.95917 -3.19538,-8.20888 -3.07101,1.19642 -12.46222,4.45877 -15.34769,6.84603 0.7584,0.72237 0.62306,-1.55154 5.93694,-2.29465 7.03626,-0.21533 12.75433,2.11845 12.34577,-3.87752 0.70145,-0.11146 -14.02737,9.24059 -16.59217,1.12166 -1.30085,-2.04704 11.98409,-5.08422 13.72891,-7.25238 2.78385,-1.08945 -11.61491,-1.87387 -14.08494,-1.42065 -2.16901,1.06406 -9.66245,6.76488 -3.30416,4.66871 6.651,-2.7601 13.23278,0.85315 17.24681,-1.03019 7.45379,-3.9805 -6.80031,-5.45966 -9.67469,-4.03199 -4.6987,2.39197 -5.4601,11.90913 -9.45681,3.61523 -0.24057,-1.10177 11.26483,1.43145 13.75872,-0.29634 6.22249,-4.29693 -4.75093,-7.95574 -7.66908,-6.50964 -4.91761,2.60866 -8.89585,5.27526 -11.37141,2.3119 -4.29578,-2.04039 9.75211,-2.33672 14.13589,-2.74001 7.87658,1.07531 8.90466,-5.61035 1.94184,-4.96938 -6.7771,1.60556 -7.8119,3.17801 -13.52818,6.08914 -2.56208,-1.81939 -6.70729,-5.88002 4.19736,-3.6764 5.86709,2.69512 9.7393,-1.88299 8.90346,-6.7067 0.32883,0.007 -9.72679,4.85492 -15.22255,7.94776 -2.67882,2.24489 -6.13168,-3.61632 3.32121,-3.5929 6.44711,-1.10726 12.05223,-2.16496 11.79231,-8.81276 -0.25393,-6.877148 -10.05498,3.77706 -13.54104,4.51366 -4.0424,3.78176 -5.30081,6.43226 -9.50764,0.0127 -4.79697,-4.12784 12.06405,-0.10718 15.7245,-2.41928 6.39194,-1.77268 6.00865,-6.31648 -1.99532,-4.69677 -4.93391,1.13637 -9.68181,6.48681 -12.81996,5.42082 -4.49953,1.28768 8.16837,-4.2141 13.23278,-5.14035 6.17859,-1.24878 -4.50246,-11.237878 -7.96677,-7.030768 -6.28756,3.20095 -3.12868,7.244928 -7.21959,3.7525 -3.59666,-2.07918 1.21844,2.021698 7.872,0.679588 9.63324,-0.554098 5.63381,-6.317518 -2.51713,0.14262 -4.34975,3.7363 -9.65125,-3.441648 -8.4585,-7.489788 1.08618,-4.34942 6.92039,1.61368 11.19176,-0.44414 0.94321,0.0403 -6.71352,-4.45202 -11.21875,-2.18219 -0.94684,0.33532 1.47622,-2.77941 9.42943,-1.93885 4.11737,-0.13644 4.29857,-6.20464 -3.42021,-2.51058 -3.13189,1.55571 -15.48555,4.80243 -9.14963,-1.67644 1.02364,-3.71436 9.32811,4.99942 13.29188,2.07585 4.12386,-4.93325 -8.24527,-3.31921 -9.23897,-2.92247 -3.64022,2.82283 -4.97594,7.62754 -6.80719,1.56334 -0.92105,-5.13278 5.37797,-0.53708 8.70683,-2.24342 0.53119,0.23137 -14.22697,4.20504 -7.7531,-2.28961 2.74409,-3.15616 7.18093,3.0179 10.58405,0.58658 5.99612,-3.16989 -2.34402,-7.3728 -5.7246,-5.70345 -3.29766,1.99018 -12.48633,5.09199 -5.05248,1.37988 4.50587,-2.26791 5.74714,-2.23951 10.04733,-4.81465 2.63768,-2.52109 -9.49474,2.24662 -11.62988,6.68489 -1.50519,4.57536 -5.38119,0.36525 -5.05182,-2.92423 -0.59427,-1.28039 11.90004,-3.464 12.31487,-4.53009 1.52122,-1.05935 -7.89544,-19.905414 -12.82133,-10.23634 -2.52541,5.40187 0.76747,13.99161 8.36321,18.05765 5.88307,0.97982 5.53105,-9.75277 7.31401,-13.32523 1.54727,-4.48476 -7.08124,4.34719 -8.61918,5.3685 -7.91031,2.65812 -12.45398,-3.55307 -7.72501,-7.96265 1.23107,0.26293 11.63621,0.7953 14.30759,-1.69669 6.01856,-3.39268 -8.90098,-5.482274 -10.14373,-4.505914 -5.51115,2.649154 -8.10665,6.970694 -13.35105,6.358784 -7.94694,-0.008 -2.90427,-6.901144 2.32673,-8.869064 5.03019,-1.0696 7.41679,4.213004 13.48983,1.59655 1.63187,-3.33671 -2.85207,-9.42489 -7.76471,-1.52723 -3.15951,3.309454 -10.38034,4.741354 -13.55671,1.68584 -1.02156,-2.83812 10.76184,0.0561 13.38478,-1.35574 4.23893,-2.51446 9.59153,-0.46284 7.06042,-5.9879 -1.91528,-2.93288 -12.13321,2.40694 -14.70114,4.13774 -1.77636,-2.16319 -18.77564,-3.63306 2.24095,-3.65796 2.74465,0.37634 7.57234,-6.4476 5.85632,-7.801 -2.81206,-3.21645 -7.91668,5.79254 -12.22533,7.90054 -1.22408,0.59247 -1.15848,-8.16924 7.44313,-5.79402 5.89466,1.58611 4.91688,-1.8883 7.78043,-6.5933 1.80584,-3.8178 -6.88542,-2.60001 -9.27686,1.06114 -2.51334,2.12787 -9.94252,4.51731 -16.34539,5.42166 0.38156,-0.33034 2.3315,-7.58214 14.60925,-5.05365 7.79895,0.35886 12.188,3.04256 11.56565,-6.69419 -0.17263,-3.8637 -11.3433,2.82768 -12.36169,3.34158 -3.76971,1.6241 -8.20157,1.45664 -12.22468,1.11965 -4.59292,0.008 9.24119,-4.1843 14.23049,-2.77106 5.75826,1.3833 7.30546,-3.60418 -1.38145,-3.11682 -5.27129,0.12796 -3.89858,-0.52923 -6.9872,1.15848"
         id="path2419-9-3"
         sodipodi:nodetypes="ccccccccccccccccccccccccccccccccccccccccccccccccccccccccccccccccccccccccccccccccccccccccccccccccccccccccccccccccccccccccccccccccccc" /><path
         style="fill:none;fill-rule:evenodd;stroke:#4169e1;stroke-width:1.32292;stroke-linecap:butt;stroke-linejoin:miter;stroke-miterlimit:4;stroke-dasharray:none;stroke-opacity:1"
         d="m 567.47932,203.17507 c -0.80755,2.73093 -1.6213,12.58125 -6.95313,14.4448 -4.51729,3.6416 -6.03409,-3.54695 -10.26023,-5.61098 0.15965,-2.4771 6.67389,-3.16463 7.9917,-2.56921 5.60959,-2.90802 14.59395,-6.43695 8.12153,-11.84762 -4.49837,-4.56786 -10.59917,9.66473 -10.61229,11.23257 -1.28487,5.30644 -4.14041,-4.0376 -3.18304,-7.19919 2.36156,-4.94533 15.86237,6.6847 11.39073,-7.89686 -1.88153,-5.07277 -14.27733,10.64644 -13.73812,10.58056 -3.89289,7.66005 -6.04219,-1.88091 -3.78895,-7.03603 2.36043,-4.68392 15.86329,-1.8812 19.62396,-7.68279 4.32084,-6.59371 -13.51034,0.0513 -17.56329,8.28664 -3.81405,5.25244 -11.69496,2.37112 -3.37355,0.29314 6.45088,-3.63274 10.31823,-3.21967 18.16414,-7.6657 7.68256,-7.53347 -7.3371,-4.12231 -10.68427,-1.00685 -7.60458,4.82284 -8.86857,2.52329 -14.39839,-2.92363 -2.04463,-0.72637 12.06681,0.18201 14.02253,0.95276 4.85534,4.9318 8.25838,-6.06022 7.63777,-7.63638 -1.54705,-1.6025 -17.10213,13.33269 -21.57308,11.11233 -4.56217,-3.40387 14.19928,-11.65726 15.5339,-9.8397 7.71071,-3.45921 2.71291,-5.46037 -1.17241,-5.93461 -3.42438,-1.2782 -10.53833,6.82289 -13.61307,8.94042 -0.2688,1.78089 -2.74251,-3.0536 5.43466,-4.51805 6.49926,-1.54664 8.61394,-0.0235 9.84584,-4.64107 0.40075,-6.70079 -12.53912,0.25811 -13.44501,1.42654 -3.83843,-0.33494 6.74455,-6.58089 10.86758,-5.51956 8.248,0.61903 11.58904,-4.43581 2.577,-4.31309 -4.60795,0.19121 -12.59051,7.3449 -13.18443,9.55077 -4.65007,5.903 -9.31297,0.52632 -5.74312,-2.77615 2.56951,-5.83876 15.54449,-2.87827 18.68037,-6.37696 6.07942,-3.97642 -5.57253,-3.91402 -9.39265,-1.80302 -6.78905,3.38795 -4.79738,11.72255 -11.91065,1.4358 -3.65846,-5.10544 3.86055,-6.26599 7.26396,-5.16685 5.41875,1.4508 21.50923,-3.21926 13.93895,-3.14794 -4.30863,-0.0843 -11.06856,7.3207 -18.55651,6.17892 -3.44817,-1.67793 9.74003,-6.00551 14.95847,-6.79387 6.46152,-3.97935 0.99334,-6.11178 -4.59895,-0.4924 -3.57005,3.84814 -4.66619,5.61265 -9.97028,0.63318 -3.27071,-3.76618 7.91596,-2.57782 12.27581,-4.20845 9.1753,-2.64123 -1.63107,-6.47808 -5.30509,-4.16566 -6.14549,2.98418 -3.38657,5.07078 -11.06886,7.43438 -2.18563,0.19972 5.27055,-7.33136 8.94926,-7.21678 4.02068,1.27215 11.37423,-3.94758 9.47304,-6.76955 -0.25699,-1.76892 -10.88596,3.59739 -16.76886,7.90022 -6.391,4.39786 -10.27852,-1.03562 0.82178,-3.66696 5.97206,-2.87199 7.68612,-3.73003 12.40613,-6.62432 0.53661,-1.3058 -17.43208,5.50295 -18.03649,4.98705 -6.61768,2.73481 -5.01838,0.0375 -0.2312,-1.69186 4.64481,-0.75737 11.26214,-1.75849 17.51392,-2.02514 5.0529,0.5944 1.33798,-6.81215 -8.01986,-5.42346 -5.4113,1.71402 -7.56229,6.43983 -8.20692,5.99972 0.92716,0.22256 6.25725,-2.70515 11.13568,-4.65354 2.00959,-3.01557 4.98551,-7.95917 -3.19538,-8.20888 -3.07101,1.19642 -12.46222,4.45877 -15.34769,6.84603 0.7584,0.72237 0.62306,-1.55154 5.93694,-2.29465 7.03626,-0.21533 12.75433,2.11845 12.34577,-3.87752 0.70145,-0.11146 -14.02737,9.24059 -16.59217,1.12166 -1.30085,-2.04704 11.98409,-5.08422 13.72891,-7.25238 2.78385,-1.08945 -11.61491,-1.87387 -14.08494,-1.42065 -2.16901,1.06406 -9.66245,6.76488 -3.30416,4.66871 6.651,-2.7601 13.23278,0.85315 17.24681,-1.03019 7.45379,-3.9805 -6.80031,-5.45966 -9.67469,-4.03199 -4.6987,2.39197 -5.4601,11.90913 -9.45681,3.61523 -0.24057,-1.10177 11.26483,1.43145 13.75872,-0.29634 6.22249,-4.29693 -4.75093,-7.95574 -7.66908,-6.50964 -4.91761,2.60866 -8.89585,5.27526 -11.37141,2.3119 -4.29578,-2.04039 9.75211,-2.33672 14.13589,-2.74001 7.87658,1.07531 8.90466,-5.61035 1.94184,-4.96938 -6.7771,1.60556 -7.8119,3.17801 -13.52818,6.08914 -2.56208,-1.81939 -6.70729,-5.88002 4.19736,-3.6764 5.86709,2.69512 9.7393,-1.88299 8.90346,-6.7067 0.32883,0.007 -9.72679,4.85492 -15.22255,7.94776 -2.67882,2.24489 -6.13168,-3.61632 3.32121,-3.5929 6.44711,-1.10726 12.05223,-2.16496 11.79231,-8.81276 -0.25393,-6.877148 -10.05498,3.77706 -13.54104,4.51366 -4.0424,3.78176 -5.30081,6.43226 -9.50764,0.0127 -4.79698,-4.12784 12.06405,-0.10718 15.7245,-2.41928 6.39194,-1.77268 6.00865,-6.31648 -1.99532,-4.69677 -4.93391,1.13637 -9.68181,6.48681 -12.81996,5.42082 -4.49953,1.28768 8.16837,-4.2141 13.23278,-5.14035 6.17859,-1.24878 -4.50246,-11.237878 -7.96677,-7.030768 -6.28756,3.20095 -3.12868,7.244928 -7.21959,3.7525 -3.59666,-2.07918 1.21844,2.021698 7.872,0.67959 9.63324,-0.5541 5.63381,-6.31752 -2.51713,0.142618 -4.34975,3.7363 -9.65125,-3.441648 -8.4585,-7.489788 1.08618,-4.34942 6.92039,1.61368 11.19176,-0.44414 0.94321,0.0403 -6.71352,-4.45202 -11.21875,-2.18219 -0.94684,0.33532 1.47622,-2.77941 9.42943,-1.93885 4.11737,-0.13644 4.29857,-6.20464 -3.42021,-2.51058 -3.1319,1.55571 -15.48555,4.80243 -9.14963,-1.67644 1.02364,-3.71436 9.32811,4.99942 13.29188,2.07585 4.12386,-4.93325 -8.24527,-3.31921 -9.23897,-2.92247 -3.64022,2.82283 -4.97594,7.62754 -6.80719,1.56334 -0.92105,-5.13278 5.37797,-0.53708 8.70683,-2.24342 0.53119,0.23137 -14.22697,4.20504 -7.7531,-2.28961 2.74409,-3.15616 7.18093,3.0179 10.58405,0.58658 5.99612,-3.16989 -2.34402,-7.3728 -5.7246,-5.70345 -3.29766,1.99018 -12.48633,5.09199 -5.05248,1.37988 4.50587,-2.26791 5.74714,-2.23951 10.04733,-4.81465 2.63768,-2.52109 -9.49474,2.24662 -11.62989,6.68489 -1.50518,4.57536 -5.38118,0.36525 -5.05181,-2.92423 -0.59427,-1.28039 11.90004,-3.464 12.31487,-4.53009 1.52122,-1.05935 -7.89545,-19.905413 -12.82133,-10.23634 -2.52541,5.40187 0.76746,13.99161 8.36321,18.05765 5.88307,0.97982 5.53105,-9.75277 7.31401,-13.32523 1.54727,-4.48476 -7.08124,4.34719 -8.61918,5.3685 -7.91031,2.65812 -12.45399,-3.55307 -7.72501,-7.96265 1.23107,0.26293 11.63621,0.7953 14.30759,-1.69669 6.01856,-3.39268 -8.90098,-5.482273 -10.14373,-4.50591 -5.51115,2.64915 -8.10665,6.97069 -13.35105,6.35878 -7.94694,-0.008 -2.90427,-6.901139 2.32672,-8.869065 5.0302,-1.069597 7.4168,4.213005 13.48984,1.596551 1.63187,-3.33671 -2.85207,-9.424892 -7.76471,-1.527233 -3.15951,3.309457 -10.38034,4.741357 -13.55671,1.68584 -1.02156,-2.838111 10.76184,0.05607 13.38478,-1.355738 4.23893,-2.514457 9.59152,-0.462838 7.06042,-5.987899 -1.91528,-2.932882 -12.13322,2.406941 -14.70115,4.137739 -1.77635,-2.163183 -18.77563,-3.633062 2.24095,-3.657954 2.74466,0.376335 7.57235,-6.447602 5.85633,-7.801004 -2.81206,-3.216447 -7.91668,5.792544 -12.22533,7.900538 -1.22408,0.59247 -1.15848,-8.169233 7.44313,-5.794018 5.89466,1.586113 4.91688,-1.8883 7.78042,-6.593303 1.80585,-3.817797 -6.88541,-2.600007 -9.27685,1.061143 -2.51334,2.127867 -9.94252,4.517306 -16.34539,5.421662 0.38156,-0.33034 2.3315,-7.582143 14.60925,-5.053653 7.79895,0.358865 12.188,3.04256 11.56565,-6.694186 -0.17263,-3.863702 -11.3433,2.827682 -12.36169,3.341577 -3.76971,1.624097 -8.20157,1.456637 -12.22468,1.119653 -4.59292,0.008 9.24119,-4.184303 14.23049,-2.771066 5.75825,1.383305 7.30546,-3.604181 -1.38145,-3.116815 -5.27129,0.12796 -3.89858,-0.529236 -6.9872,1.158475"
         id="path2419-6"
         sodipodi:nodetypes="ccccccccccccccccccccccccccccccccccccccccccccccccccccccccccccccccccccccccccccccccccccccccccccccccccccccccccccccccccccccccccccccccccc" /></g><path
       style="fill:#808080;stroke:#808080;stroke-width:0.0536685;stroke-linecap:round;stroke-linejoin:round;stroke-miterlimit:10.8;stroke-dasharray:none"
       id="path20069"
       d="m 15.501145,19.833478 c 1.475182,0.841326 2.917517,1.732392 4.296508,2.723956 1.04324,0.8545 2.302767,1.579537 3.043959,2.745438 0.108151,0.170125 0.186717,0.35734 0.280075,0.536011 0.647878,1.750737 0.536978,3.676518 0.472301,5.51302 -0.124128,1.323632 -0.22309,2.683808 -0.748185,3.919194 -0.43541,0.915447 -1.321938,1.479988 -2.128285,2.041111 -1.085443,0.735901 -2.229706,1.37079 -3.223308,2.231485 -1.236637,1.081369 -2.058397,2.500786 -2.948826,3.857756 -0.935387,1.51205 -1.9333,2.98213 -2.970044,4.42606 -0.640553,0.81658 -1.106826,1.72907 -1.513032,2.6777 -0.3507698,0.95523 -0.6194178,1.93939 -0.8380328,2.93263 -0.213662,1.36635 -0.196227,2.76336 -0.21161,4.14388 -0.0081,1.46134 0.09413,2.93403 0.369982,4.37066 0.252541,0.9498 0.8391408,1.7614 1.4221638,2.53674 0.67754,0.89725 1.524856,1.63829 2.308003,2.44007 1.477528,1.49667 2.350637,3.35965 3.128077,5.28063 0.889535,2.48829 1.456054,5.0737 2.190278,7.60877 1.018997,3.74684 1.201413,7.64311 1.424903,11.49938 0.06318,1.79095 0.24259,3.57825 0.250838,5.37099 0.04483,0.74889 0.181045,1.48779 0.257547,2.23362 0,0 1.973363,-0.65055 1.973363,-0.65055 v 0 c -0.05824,-0.7414 -0.236955,-1.46774 -0.277029,-2.21171 -0.05699,-1.78068 -0.306196,-3.55155 -0.411085,-5.32956 -0.314035,-3.86262 -0.516872,-7.76192 -1.409459,-11.54553 -0.691797,-2.55486 -1.308876,-5.13391 -2.159319,-7.64235 -0.811211,-2.02325 -1.592225,-3.75509 -3.101147,-5.3735 -0.767634,-0.79541 -1.565274,-1.56843 -2.248787,-2.43911 -0.586391,-0.73634 -1.153767,-1.52326 -1.405453,-2.44268 -0.30948,-1.41479 -0.419405,-2.86727 -0.404476,-4.31418 0.0086,-1.37566 0.04644,-2.76376 0.281284,-4.1217 0.210457,-0.98404 0.474255,-1.95983 0.849321,-2.89506 0.396686,-0.93031 0.88388,-1.81072 1.486053,-2.62615 1.005232,-1.45392 1.99914,-2.91479 2.925302,-4.42098 0.898696,-1.35445 1.764636,-2.749198 3.016232,-3.814791 1.010958,-0.830123 2.147076,-1.473857 3.224018,-2.213051 0.834149,-0.589066 1.729418,-1.182336 2.129393,-2.164104 0.467913,-1.268172 0.547115,-2.631835 0.663868,-3.968353 0.03366,-1.862077 0.145534,-3.84246 -0.465696,-5.62425 -0.09949,-0.188146 -0.183531,-0.385308 -0.298464,-0.564438 -0.763306,-1.189663 -2.049334,-1.914869 -3.126605,-2.776244 -1.357228,-0.980548 -2.774231,-1.866057 -4.169443,-2.789749 0,0 -1.935183,0.838939 -1.935183,0.838939 z" /><path
       style="fill:#808080;stroke:#808080;stroke-width:0.0536685;stroke-linecap:round;stroke-linejoin:round;stroke-miterlimit:10.8;stroke-dasharray:none"
       id="path20069-7"
       d="m 22.72048,18.789745 c 1.475182,0.841326 2.917517,1.732393 4.296508,2.723956 1.04324,0.8545 2.302767,1.579537 3.04396,2.745438 0.108148,0.170125 0.186719,0.357341 0.280075,0.536012 0.647875,1.750737 0.536975,3.676517 0.472299,5.513019 -0.124125,1.323632 -0.223089,2.683808 -0.748182,3.919194 -0.435413,0.915448 -1.32194,1.479988 -2.128287,2.041111 -1.085442,0.735902 -2.229706,1.37079 -3.223308,2.231486 -1.236637,1.081369 -2.058397,2.500784 -2.948826,3.857758 -0.935387,1.51205 -1.9333,2.98213 -2.970044,4.42606 -0.640552,0.81658 -1.106826,1.72907 -1.513032,2.6777 -0.35077,0.95523 -0.619418,1.93939 -0.838033,2.93263 -0.213662,1.36634 -0.196227,2.76335 -0.21161,4.14388 -0.0081,1.46134 0.09413,2.93402 0.369982,4.37066 0.252541,0.9498 0.839141,1.7614 1.422164,2.53673 0.67754,0.89726 1.524856,1.6383 2.308004,2.44008 1.477527,1.49667 2.350636,3.35964 3.128076,5.28062 0.889535,2.4883 1.456054,5.07371 2.190278,7.60877 1.018997,3.74684 1.201413,7.64312 1.424903,11.49939 0.06318,1.79094 0.24259,3.57824 0.250838,5.37099 0.04483,0.74888 0.181045,1.48779 0.257547,2.23362 0,0 1.973363,-0.65055 1.973363,-0.65055 v 0 c -0.05824,-0.7414 -0.236955,-1.46775 -0.277029,-2.21171 -0.05699,-1.78068 -0.306196,-3.55156 -0.411085,-5.32956 -0.314035,-3.86262 -0.516872,-7.76193 -1.409459,-11.54553 -0.691797,-2.55487 -1.308876,-5.13391 -2.159319,-7.64236 -0.811211,-2.02324 -1.592225,-3.75509 -3.101147,-5.37349 -0.767634,-0.79541 -1.565274,-1.56844 -2.248787,-2.43912 -0.586391,-0.73633 -1.153767,-1.52325 -1.405453,-2.44267 -0.30948,-1.4148 -0.419405,-2.86728 -0.404475,-4.31418 0.0086,-1.37567 0.04644,-2.76376 0.281283,-4.1217 0.210457,-0.98404 0.474255,-1.95983 0.849321,-2.89506 0.396686,-0.93031 0.88388,-1.81072 1.486053,-2.62615 1.005232,-1.45392 1.99914,-2.91479 2.925302,-4.42098 0.898696,-1.354449 1.764636,-2.7492 3.016232,-3.814793 1.010958,-0.830123 2.147076,-1.473857 3.22402,-2.213051 0.834149,-0.589066 1.729415,-1.182336 2.12939,-2.164104 0.467914,-1.268173 0.547118,-2.631835 0.663869,-3.968353 0.03365,-1.862077 0.145532,-3.84246 -0.465693,-5.624251 -0.09949,-0.188146 -0.183535,-0.385308 -0.298466,-0.564438 -0.763306,-1.189663 -2.049338,-1.914869 -3.126606,-2.776244 -1.357228,-0.980548 -2.774231,-1.866056 -4.169443,-2.789748 0,0 -1.935183,0.838938 -1.935183,0.838938 z" /><path
       style="fill:#4169e1;fill-opacity:1;stroke:#808080;stroke-width:0.0536685;stroke-linecap:round;stroke-linejoin:round;stroke-miterlimit:10.8;stroke-dasharray:none"
       id="path20069-8"
       d="m 115.00971,14.052606 c -1.61871,0.513601 -3.21572,1.082722 -4.77184,1.763381 -1.19911,0.616977 -2.58258,1.062051 -3.55158,2.046798 -0.14139,0.143692 -0.25744,0.310292 -0.38616,0.465439 -1.00029,1.576154 -1.2953,3.482431 -1.61681,5.291729 -0.15592,1.320263 -0.34412,2.670987 -0.0895,3.988967 0.23395,0.986349 0.98254,1.724088 1.65344,2.441698 0.90718,0.94697 1.89304,1.8075 2.68428,2.85725 0.98264,1.31644 1.4888,2.87653 2.07518,4.38993 0.59785,1.67446 1.26564,3.32098 1.97686,4.95007 0.45527,0.93265 0.72003,1.92258 0.91848,2.93526 0.14286,1.00752 0.19936,2.02612 0.20505,3.04312 -0.0773,1.38078 -0.38706,2.74313 -0.66124,4.09625 -0.29833,1.43059 -0.70669,2.8492 -1.27744,4.19615 -0.44591,0.87582 -1.18953,1.54651 -1.92205,2.1825 -0.85048,0.7354 -1.83423,1.28248 -2.76798,1.90239 -1.7583,1.15392 -3.00232,2.79263 -4.16496,4.50811 -1.3911,2.24671 -2.4867,4.65606 -3.735719,6.98104 -1.78135,3.45022 -2.776,7.22181 -3.802433,10.94568 -0.437002,1.73796 -0.986846,3.44802 -1.370495,5.19925 -0.200697,0.72288 -0.488726,1.41684 -0.719781,2.1301 0,0 -1.793277,-1.04954 -1.793277,-1.04954 v 0 c 0.212233,-0.71275 0.539186,-1.38553 0.734239,-2.10459 0.428791,-1.72922 1.043451,-3.40859 1.518509,-5.12517 1.116296,-3.71111 2.131546,-7.48139 3.796988,-10.99403 1.2117,-2.35324 2.355399,-4.74576 3.712489,-7.02038 1.21708,-1.80839 2.34359,-3.33818 4.15808,-4.60455 0.91724,-0.61693 1.85914,-1.2057 2.70989,-1.91386 0.72764,-0.59714 1.44728,-1.24773 1.886,-2.09402 0.59901,-1.31856 1.0108,-2.71578 1.29932,-4.13371 0.27941,-1.34702 0.53365,-2.71214 0.58847,-4.08916 3.8e-4,-1.00629 -0.0531,-2.01569 -0.22395,-3.00874 -0.19298,-0.99277 -0.48492,-1.95572 -0.90289,-2.87921 -0.67833,-1.63225 -1.34413,-3.26892 -1.93418,-4.93572 -0.595,-1.51267 -1.14952,-3.05789 -2.1501,-4.36204 -0.81462,-1.02351 -1.79066,-1.89097 -2.68884,-2.83938 -0.69222,-0.750748 -1.44334,-1.518415 -1.62875,-2.562191 -0.19185,-1.338059 0.0164,-2.68805 0.18224,-4.01937 0.35725,-1.827794 0.6627,-3.787678 1.63365,-5.401873 0.13671,-0.163126 0.26018,-0.338308 0.41009,-0.489385 0.99561,-1.003347 2.40503,-1.443035 3.63885,-2.059605 1.53254,-0.674446 3.10361,-1.243439 4.66137,-1.854334 0,0 1.71649,1.225746 1.71649,1.225746 z" /><path
       style="fill:#a80000;fill-opacity:1;stroke:#808080;stroke-width:0.0536685;stroke-linecap:round;stroke-linejoin:round;stroke-miterlimit:10.8;stroke-dasharray:none"
       id="path20069-7-4"
       d="m 108.16924,11.519573 c -1.6187,0.513603 -3.21571,1.082722 -4.77183,1.763381 -1.19911,0.616976 -2.58259,1.062051 -3.551589,2.046797 -0.14139,0.143693 -0.25744,0.310293 -0.38615,0.465442 -1.00028,1.576154 -1.2953,3.482432 -1.6168,5.291728 -0.15594,1.320262 -0.34412,2.670988 -0.0895,3.988967 0.23396,0.98635 0.98254,1.724092 1.65344,2.441695 0.907179,0.946975 1.893039,1.807495 2.684269,2.857255 0.98265,1.31645 1.4888,2.87652 2.07518,4.38993 0.59786,1.67446 1.26564,3.32097 1.97687,4.95007 0.45527,0.93265 0.72002,1.92258 0.91847,2.93525 0.14287,1.00753 0.19937,2.02613 0.20505,3.04312 -0.0773,1.38079 -0.38705,2.74314 -0.66123,4.09625 -0.29834,1.4306 -0.7067,2.8492 -1.27744,4.19617 -0.44591,0.8758 -1.18954,1.5465 -1.92206,2.18248 -0.85048,0.73541 -1.83423,1.28249 -2.76798,1.90241 -1.758289,1.15391 -3.002319,2.79262 -4.164957,4.50809 -1.391091,2.24671 -2.486688,4.65607 -3.735714,6.98105 -1.781352,3.45021 -2.775999,7.2218 -3.802424,10.94567 -0.437004,1.73797 -0.986856,3.44802 -1.370495,5.19925 -0.200699,0.72289 -0.488728,1.41686 -0.719783,2.13011 0,0 -1.793284,-1.04955 -1.793284,-1.04955 v 0 c 0.212328,-0.71272 0.539195,-1.38552 0.734237,-2.10458 0.428792,-1.72923 1.043462,-3.40859 1.518518,-5.12516 1.116286,-3.71112 2.131536,-7.4814 3.796989,-10.99403 1.211687,-2.35325 2.355388,-4.74578 3.712484,-7.02039 1.21708,-1.80839 2.34358,-3.33818 4.15808,-4.60455 0.91724,-0.61693 1.859119,-1.2057 2.709879,-1.91386 0.72764,-0.59714 1.44729,-1.24773 1.886,-2.09402 0.59902,-1.31857 1.01081,-2.71579 1.29934,-4.1337 0.2794,-1.34703 0.53364,-2.71215 0.58846,-4.08917 3.7e-4,-1.00629 -0.0532,-2.01569 -0.22396,-3.00875 -0.19298,-0.99277 -0.48492,-1.95571 -0.90289,-2.8792 -0.67832,-1.63225 -1.34412,-3.26893 -1.93418,-4.93572 -0.595,-1.51267 -1.14952,-3.05789 -2.15009,-4.36205 -0.814609,-1.023496 -1.790649,-1.890961 -2.688829,-2.839372 -0.69223,-0.750749 -1.443343,-1.518414 -1.628756,-2.562189 -0.191852,-1.338059 0.0164,-2.688053 0.182239,-4.01937 0.357254,-1.827794 0.662697,-3.787679 1.633647,-5.401876 0.13671,-0.163125 0.26019,-0.338306 0.4101,-0.489383 0.99559,-1.003349 2.405019,-1.443036 3.638839,-2.059606 1.53254,-0.674446 3.10361,-1.24344 4.66137,-1.854334 0,0 1.71648,1.225745 1.71648,1.225745 z" /><path
       style="fill:#4169e1;fill-opacity:1;stroke:#4169e1;stroke-width:0.0536685;stroke-linecap:round;stroke-linejoin:round;stroke-miterlimit:10.8;stroke-dasharray:none;stroke-opacity:1"
       id="path20069-5"
       d="m 133.47937,12.109866 c -1.47518,0.841326 -2.91752,1.732392 -4.29651,2.723956 -1.04324,0.8545 -2.30277,1.579537 -3.04396,2.745438 -0.10815,0.170125 -0.18671,0.35734 -0.28007,0.536012 -0.64788,1.750737 -0.53698,3.676517 -0.4723,5.513019 0.12412,1.323632 0.22309,2.683808 0.74818,3.919194 0.43541,0.915447 1.32194,1.479983 2.12829,2.041113 1.08544,0.7359 2.2297,1.37079 3.2233,2.23148 1.23664,1.08137 2.0584,2.50079 2.94883,3.85776 0.93539,1.51205 1.9333,2.98213 2.97004,4.42606 0.64056,0.81658 1.10683,1.72907 1.51303,2.6777 0.35078,0.95523 0.61942,1.93939 0.83804,2.93263 0.21366,1.36635 0.19623,2.76336 0.21161,4.14388 0.008,1.46134 -0.0941,2.93402 -0.36998,4.37066 -0.25255,0.9498 -0.83915,1.76141 -1.42217,2.53674 -0.67754,0.89726 -1.52485,1.6383 -2.308,2.44007 -1.47753,1.49668 -2.35064,3.35965 -3.12808,5.28063 -0.88953,2.48829 -1.45605,5.0737 -2.19027,7.60877 -1.019,3.74684 -1.20142,7.64311 -1.42491,11.49938 -0.0632,1.79095 -0.24259,3.57825 -0.25083,5.37099 -0.0448,0.74889 -0.18105,1.48779 -0.25755,2.23362 0,0 -1.97337,-0.65055 -1.97337,-0.65055 v 0 c 0.0583,-0.7414 0.23696,-1.46774 0.27703,-2.2117 0.057,-1.78069 0.3062,-3.55156 0.41109,-5.32957 0.31403,-3.86262 0.51687,-7.76192 1.40946,-11.54553 0.69179,-2.55486 1.30887,-5.13391 2.15932,-7.64235 0.81121,-2.02324 1.59222,-3.75509 3.10114,-5.37349 0.76764,-0.79542 1.56527,-1.56844 2.24879,-2.43912 0.58639,-0.73634 1.15377,-1.52326 1.40545,-2.44268 0.30948,-1.41479 0.41941,-2.86728 0.40448,-4.31418 -0.009,-1.37566 -0.0464,-2.76376 -0.28128,-4.1217 -0.21046,-0.98404 -0.47426,-1.95983 -0.84933,-2.89506 -0.39668,-0.93031 -0.88388,-1.81072 -1.48605,-2.62615 -1.00523,-1.45392 -1.99914,-2.91479 -2.9253,-4.42098 -0.8987,-1.35445 -1.76464,-2.7492 -3.01623,-3.81479 -1.01096,-0.83012 -2.14708,-1.47386 -3.22402,-2.21305 -0.83415,-0.589069 -1.72942,-1.182338 -2.12939,-2.164107 -0.46792,-1.268172 -0.54712,-2.631835 -0.66387,-3.968353 -0.0336,-1.862077 -0.14554,-3.84246 0.4657,-5.624249 0.0995,-0.188147 0.18353,-0.385309 0.29846,-0.564439 0.7633,-1.189663 2.04933,-1.914869 3.1266,-2.776244 1.35723,-0.980548 2.77423,-1.866057 4.16945,-2.789749 0,0 1.93518,0.838939 1.93518,0.838939 z" /><path
       style="fill:#a80000;fill-opacity:1;stroke:#808080;stroke-width:0.0536685;stroke-linecap:round;stroke-linejoin:round;stroke-miterlimit:10.8;stroke-dasharray:none"
       id="path20069-7-0"
       d="m 126.26003,11.066134 c -1.47518,0.841325 -2.91751,1.732392 -4.2965,2.723955 -1.04324,0.8545 -2.30277,1.579537 -3.04396,2.745438 -0.10815,0.170126 -0.18672,0.357341 -0.28008,0.536012 -0.64787,1.750737 -0.53697,3.676518 -0.4723,5.513019 0.12413,1.323632 0.22309,2.683808 0.74819,3.919195 0.43541,0.915447 1.32193,1.479987 2.12828,2.041111 1.08545,0.735904 2.22971,1.370784 3.22331,2.231484 1.23663,1.08137 2.0584,2.50079 2.94883,3.85776 0.93538,1.51205 1.9333,2.98212 2.97004,4.42606 0.64055,0.81658 1.10683,1.72907 1.51303,2.6777 0.35077,0.95523 0.61942,1.93939 0.83804,2.93262 0.21366,1.36635 0.19622,2.76336 0.2116,4.14389 0.008,1.46134 -0.0941,2.93402 -0.36998,4.37066 -0.25254,0.94979 -0.83914,1.7614 -1.42216,2.53673 -0.67754,0.89726 -1.52486,1.6383 -2.30801,2.44008 -1.47752,1.49667 -2.35063,3.35965 -3.12807,5.28062 -0.88953,2.4883 -1.45606,5.07371 -2.19028,7.60877 -1.019,3.74684 -1.20141,7.64312 -1.4249,11.49939 -0.0632,1.79094 -0.24259,3.57824 -0.25084,5.37099 -0.0448,0.74888 -0.18105,1.48779 -0.25755,2.23362 0,0 -1.97336,-0.65055 -1.97336,-0.65055 v 0 c 0.0582,-0.7414 0.23696,-1.46775 0.27703,-2.21171 0.057,-1.78068 0.3062,-3.55156 0.41109,-5.32956 0.31403,-3.86262 0.51687,-7.76193 1.40945,-11.54553 0.6918,-2.55487 1.30888,-5.13391 2.15932,-7.64236 0.81121,-2.02324 1.59223,-3.75508 3.10115,-5.37349 0.76763,-0.79541 1.56527,-1.56844 2.24878,-2.43912 0.5864,-0.73633 1.15377,-1.52325 1.40546,-2.44267 0.30948,-1.4148 0.4194,-2.86728 0.40447,-4.31418 -0.009,-1.37567 -0.0464,-2.76376 -0.28128,-4.1217 -0.21046,-0.98404 -0.47425,-1.95983 -0.84932,-2.89506 -0.39669,-0.93031 -0.88388,-1.81072 -1.48606,-2.62615 -1.00523,-1.45392 -1.99913,-2.91479 -2.92529,-4.42098 -0.8987,-1.35445 -1.76464,-2.7492 -3.01624,-3.81479 -1.01096,-0.83013 -2.14707,-1.47386 -3.22402,-2.213055 -0.83414,-0.589066 -1.72941,-1.182336 -2.12939,-2.164104 -0.46791,-1.268172 -0.54711,-2.631835 -0.66386,-3.968353 -0.0336,-1.862077 -0.14554,-3.84246 0.46569,-5.62425 0.0995,-0.188147 0.18353,-0.385309 0.29846,-0.564439 0.76331,-1.189662 2.04934,-1.914869 3.12661,-2.776244 1.35723,-0.980547 2.77423,-1.866056 4.16944,-2.789748 0,0 1.93518,0.838939 1.93518,0.838939 z" /><path
       style="fill:none;stroke:#999999;stroke-width:0.765;stroke-linecap:butt;stroke-linejoin:miter;stroke-dasharray:none;stroke-opacity:1;marker-end:url(#TriangleStart)"
       d="M 31.75,58.208333 H 84.666666"
       id="path31231" /><path
       style="fill:none;stroke:#999999;stroke-width:0.765;stroke-linecap:butt;stroke-linejoin:miter;stroke-dasharray:none;stroke-opacity:1;marker-end:url(#TriangleStart)"
       d="m 121.70833,100.54167 c 13.83529,33.1143 14.38474,63.22464 0,89.95833"
       id="path31233"
       sodipodi:nodetypes="cc" /><path
       style="fill:none;stroke:#999999;stroke-width:0.765;stroke-linecap:butt;stroke-linejoin:miter;stroke-dasharray:none;stroke-opacity:1;marker-end:url(#TriangleStart)"
       d="m 84.666666,100.54167 c -12.49877,31.30413 -15.648992,61.62244 0,89.95833"
       id="path31235"
       sodipodi:nodetypes="cc" /><text
       xml:space="preserve"
       style="font-style:normal;font-weight:normal;font-size:10.5833px;line-height:1.25;font-family:sans-serif;letter-spacing:0px;word-spacing:0px;fill:#000000;fill-opacity:1;stroke:none;stroke-width:0.264583"
       x="32.032463"
       y="53.919098"
       id="text32833"><tspan
         sodipodi:role="line"
         id="tspan32831"
         style="font-style:normal;font-variant:normal;font-weight:normal;font-stretch:normal;font-family:arial;-inkscape-font-specification:arial;stroke-width:0.264583"
         x="32.032463"
         y="53.919098">Rplication</tspan></text><text
       xml:space="preserve"
       style="font-style:normal;font-weight:normal;font-size:10.5833px;line-height:1.25;font-family:sans-serif;letter-spacing:0px;word-spacing:0px;fill:#000000;fill-opacity:1;stroke:none;stroke-width:0.264583"
       x="-24.155691"
       y="160.02"
       id="text32833-32"><tspan
         sodipodi:role="line"
         id="tspan32831-0"
         style="font-style:normal;font-variant:normal;font-weight:normal;font-stretch:normal;font-family:arial;-inkscape-font-specification:arial;stroke-width:0.264583"
         x="-24.155691"
         y="160.02">Un Chromatide</tspan></text><text
       xml:space="preserve"
       style="font-style:normal;font-weight:normal;font-size:10.5833px;line-height:1.25;font-family:sans-serif;letter-spacing:0px;word-spacing:0px;fill:#000000;fill-opacity:1;stroke:none;stroke-width:0.211267"
       x="75.953293"
       y="150.22147"
       id="text32833-3"><tspan
         sodipodi:role="line"
         id="tspan32831-6"
         style="font-style:normal;font-variant:normal;font-weight:normal;font-stretch:normal;font-size:10.5833px;font-family:arial;-inkscape-font-specification:arial;stroke-width:0.211267"
         x="75.953293"
         y="150.22147">Compaction</tspan></text><text
       xml:space="preserve"
       style="font-style:normal;font-weight:normal;font-size:7.05556px;line-height:1.25;font-family:sans-serif;letter-spacing:0px;word-spacing:0px;fill:#000000;fill-opacity:1;stroke:none;stroke-width:0.264583"
       x="24.648821"
       y="6.1141934"
       id="text34442"><tspan
         sodipodi:role="line"
         id="tspan34440"
         style="font-size:7.05556px;text-align:center;text-anchor:middle;stroke-width:0.264583"
         x="24.648821"
         y="6.1141934">ADN</tspan><tspan
         sodipodi:role="line"
         style="font-size:7.05556px;text-align:center;text-anchor:middle;stroke-width:0.264583"
         x="24.648821"
         y="14.933643"
         id="tspan34444">bicatnaire</tspan></text><text
       xml:space="preserve"
       style="font-style:normal;font-weight:normal;font-size:7.05556px;line-height:1.25;font-family:sans-serif;letter-spacing:0px;word-spacing:0px;fill:#000000;fill-opacity:1;stroke:none;stroke-width:0.264583"
       x="118.73491"
       y="-4.4822135"
       id="text34442-1"><tspan
         sodipodi:role="line"
         id="tspan34440-0"
         style="font-size:7.05556px;text-align:center;text-anchor:middle;stroke-width:0.264583"
         x="118.73491"
         y="-4.4822135">2 ADN</tspan><tspan
         sodipodi:role="line"
         style="font-size:7.05556px;text-align:center;text-anchor:middle;stroke-width:0.264583"
         x="118.73491"
         y="4.3372364"
         id="tspan34444-6">bicatnaire identiques</tspan></text><text
       xml:space="preserve"
       style="font-style:normal;font-weight:normal;font-size:10.5833px;line-height:1.25;font-family:sans-serif;letter-spacing:0px;word-spacing:0px;fill:#000000;fill-opacity:1;stroke:none;stroke-width:0.264583"
       x="106.20892"
       y="301.79831"
       id="text32833-32-6"><tspan
         sodipodi:role="line"
         id="tspan32831-0-1"
         style="font-style:normal;font-variant:normal;font-weight:normal;font-stretch:normal;font-family:arial;-inkscape-font-specification:arial;text-align:center;text-anchor:middle;stroke-width:0.264583"
         x="106.20892"
         y="301.79831">Un Chromosome</tspan><tspan
         sodipodi:role="line"
         style="font-style:normal;font-variant:normal;font-weight:normal;font-stretch:normal;font-family:arial;-inkscape-font-specification:arial;text-align:center;text-anchor:middle;stroke-width:0.264583"
         x="106.20892"
         y="315.12396"
         id="tspan37570">= 2 chromatides identiques</tspan></text></g><metadata
     id="metadata19327"><rdf:RDF><cc:Work
         rdf:about=""><dc:contributor><cc:Agent><dc:title>File:Chromosome-upright.png Original version: Magnus Manske, this version with upright chromosome: User:Dietzel65Vector:  derivative work Tryphon, CC BY-SA 3.0 &lt;http://creativecommons.org/licenses/by-sa/3.0/&gt;, via Wikimedia Commons</dc:title></cc:Agent></dc:contributor><dc:date>t 2022 - V1 du TST</dc:date><dc:creator><cc:Agent><dc:title>Paulhenry Saux</dc:title></cc:Agent></dc:creator><dc:publisher><cc:Agent><dc:title>Paulhenry.eu</dc:title></cc:Agent></dc:publisher><dc:language>FR</dc:language><cc:license
           rdf:resource="http://creativecommons.org/licenses/by-sa/4.0/" /></cc:Work><cc:License
         rdf:about="http://creativecommons.org/licenses/by-sa/4.0/"><cc:permits
           rdf:resource="http://creativecommons.org/ns#Reproduction" /><cc:permits
           rdf:resource="http://creativecommons.org/ns#Distribution" /><cc:requires
           rdf:resource="http://creativecommons.org/ns#Notice" /><cc:requires
           rdf:resource="http://creativecommons.org/ns#Attribution" /><cc:permits
           rdf:resource="http://creativecommons.org/ns#DerivativeWorks" /><cc:requires
           rdf:resource="http://creativecommons.org/ns#ShareAlike" /></cc:License></rdf:RDF></metadata></svg>
