<?xml version="1.0" encoding="UTF-8" standalone="no"?>
<!-- Created with Inkscape (http://www.inkscape.org/) -->

<svg
   width="106.98627mm"
   height="109.66093mm"
   viewBox="0 0 106.98627 109.66093"
   version="1.1"
   id="svg5"
   inkscape:version="1.2 (1:1.2+202206011327+fc4e4096c5)"
   sodipodi:docname="fig1.svg"
   inkscape:export-filename="/media/paulhenry/New Data/Nextcloud/Documents/TST 1ere/P-C/Constitution et transformation de la matière/cerclechromatique.png"
   inkscape:export-xdpi="109.616"
   inkscape:export-ydpi="109.616"
   xml:space="preserve"
   xmlns:inkscape="http://www.inkscape.org/namespaces/inkscape"
   xmlns:sodipodi="http://sodipodi.sourceforge.net/DTD/sodipodi-0.dtd"
   xmlns="http://www.w3.org/2000/svg"
   xmlns:svg="http://www.w3.org/2000/svg"
   xmlns:rdf="http://www.w3.org/1999/02/22-rdf-syntax-ns#"
   xmlns:cc="http://creativecommons.org/ns#"
   xmlns:dc="http://purl.org/dc/elements/1.1/"><sodipodi:namedview
     id="namedview7"
     pagecolor="#ffffff"
     bordercolor="#666666"
     borderopacity="1.0"
     inkscape:pageshadow="2"
     inkscape:pageopacity="0.0"
     inkscape:pagecheckerboard="0"
     inkscape:document-units="mm"
     showgrid="false"
     inkscape:zoom="1.0031004"
     inkscape:cx="143.05647"
     inkscape:cy="217.82466"
     inkscape:window-width="1366"
     inkscape:window-height="740"
     inkscape:window-x="0"
     inkscape:window-y="0"
     inkscape:window-maximized="1"
     inkscape:current-layer="layer1"
     inkscape:showpageshadow="2"
     inkscape:deskcolor="#d1d1d1" /><defs
     id="defs2"><linearGradient
       y1="10.765"
       x2="0"
       y2="40.485001"
       id="2"
       gradientUnits="userSpaceOnUse"
       gradientTransform="matrix(-1.18474,0,0,1.27706,57,-8.727)"><stop
         id="M"
         stop-color="#fff" /><stop
         id="N"
         offset="1"
         stop-color="#fff"
         stop-opacity="0" /></linearGradient><mask
       id="3"><path
         d="m 3.9828,24 a 20,20 0 0 0 40,0 20,20 0 1 0 -40,0 z"
         id="O"
         fill="#ffffff" /></mask><mask
       id="4"><path
         d="m 3.9828,24 a 20,20 0 0 0 40,0 20,20 0 1 0 -40,0 z"
         id="P"
         fill="#ffffff" /></mask><mask
       id="5"><path
         d="m 3.9828,24 a 20,20 0 0 0 40,0 20,20 0 1 0 -40,0 z"
         id="Q"
         fill="#ffffff" /></mask><mask
       id="6"><path
         d="m 3.9828,24 a 20,20 0 0 0 40,0 20,20 0 1 0 -40,0 z"
         id="R"
         fill="#ffffff" /></mask><mask
       id="7"><path
         d="m 3.9828,24 a 20,20 0 0 0 40,0 20,20 0 1 0 -40,0 z"
         id="S"
         fill="#ffffff" /></mask><mask
       id="8"><path
         d="m 3.9828,24 a 20,20 0 0 0 40,0 20,20 0 1 0 -40,0 z"
         id="T"
         fill="#ffffff" /></mask><mask
       id="9"><path
         d="m 3.9828,24 a 20,20 0 0 0 40,0 20,20 0 1 0 -40,0 z"
         id="U"
         fill="#ffffff" /></mask><mask
       id="A"><path
         d="m 3.9828,24 a 20,20 0 0 0 40,0 20,20 0 1 0 -40,0 z"
         id="V"
         fill="#ffffff" /></mask><filter
       x="-0.51533699"
       y="-0.51533699"
       width="2.030674"
       height="2.030674"
       color-interpolation-filters="sRGB"
       id="B"><feGaussianBlur
         id="W"
         stdDeviation="5.15337" /></filter></defs><g
     inkscape:label="Calque 1"
     inkscape:groupmode="layer"
     id="layer1"
     transform="translate(-47.63097,-91.402883)"><g
       inkscape:label="Calque 1"
       id="layer1-5"
       transform="matrix(5.5278496,0,0,5.5278496,-827.56622,-52.551856)"><g
         id="1"
         transform="matrix(0.48385125,0,0,0.48385125,156.39799,24.10632)"
         style="stroke:none;stroke-width:0.586957;stroke-dasharray:none"><path
           d="m 3.9828,25 a 20,20 0 0 0 40,0 20,20 0 1 0 -40,0 z"
           id="C"
           opacity="0.1"
           style="stroke:none;stroke-width:0.586957;stroke-dasharray:none" /><path
           d="M 24,0 H 48 C 24,24 48,0 24,24 Z"
           mask="url(#5)"
           id="D"
           fill="#ffd506"
           filter="url(#B)"
           style="stroke:none;stroke-width:0.586957;stroke-dasharray:none" /><path
           d="M 24,0 H 0 c 24,24 0,0 24,24 z"
           mask="url(#4)"
           id="E"
           fill="#66b03e"
           filter="url(#B)"
           style="fill:#59ff00;fill-opacity:1;stroke:none;stroke-width:0.586957;stroke-dasharray:none" /><path
           d="M 24,48 H 48 C 24,24 48,48 24,24 Z"
           mask="url(#8)"
           id="F"
           fill="#ee445f"
           filter="url(#B)"
           style="fill:#ff0029;fill-opacity:1;stroke:none;stroke-width:0.586957;stroke-dasharray:none" /><path
           d="M 24,48 H 0 C 24,24 0,48 24,24 Z"
           mask="url(#9)"
           id="G"
           fill="#c268d4"
           filter="url(#B)"
           style="fill:#d400fd;fill-opacity:1;stroke:none;stroke-width:0.586957;stroke-dasharray:none" /><path
           d="M 0,24 V 48 C 24,24 0,48 24,24 Z"
           mask="url(#A)"
           id="H"
           fill="#52a3d1"
           filter="url(#B)"
           style="fill:#00a0fc;fill-opacity:1;stroke:none;stroke-width:0.586957;stroke-dasharray:none" /><path
           d="M 0,24 V 0 c 24,24 0,0 24,24 z"
           mask="url(#3)"
           id="I"
           fill="#3eb084"
           filter="url(#B)"
           style="fill:#00ff9d;fill-opacity:1;stroke:none;stroke-width:0.586957;stroke-dasharray:none" /><path
           d="M 48,24 V 48 C 24,24 48,48 24,24 Z"
           mask="url(#7)"
           id="J"
           fill="#d02604"
           filter="url(#B)"
           style="fill:#ff360d;fill-opacity:1;stroke:none;stroke-width:0.586957;stroke-dasharray:none" /><path
           d="M 48,24 V 0 C 24,24 48,0 24,24 Z"
           mask="url(#6)"
           id="K"
           fill="#ff8b36"
           filter="url(#B)"
           style="fill:#ff6c00;fill-opacity:1;stroke:none;stroke-width:0.586957;stroke-dasharray:none" /><g
           id="L"
           fill="none"
           style="stroke:none;stroke-width:0.586957;stroke-dasharray:none"><path
             d="m 23.9762,4.5222 c 10.7992,0 19.5482,8.7394 19.5482,19.4751 0,10.7357 -8.74902,19.4751 -19.5482,19.4751 -10.7992,0 -19.5112,-8.73812 -19.5112,-19.4751 0,-10.737 8.712,-19.4751 19.5112,-19.4751 z"
             id="X"
             opacity="0.4"
             stroke="#000000"
             style="stroke:none;stroke-width:0.586957;stroke-dasharray:none" /><path
             d="m 23.9762,5.5199 c 10.3443,0 18.6226,8.31366 18.6226,18.4774 0,10.1637 -8.27831,18.4774 -18.6226,18.4774 -10.3443,0 -18.5856,-8.31002 -18.5856,-18.4774 0,-10.1674 8.24128,-18.4774 18.5856,-18.4774 z"
             id="Y"
             opacity="0.6"
             stroke="url(#2)"
             style="stroke:none;stroke-width:0.586957;stroke-dasharray:none" /></g></g><ellipse
         style="opacity:1;fill:#fffefe;fill-opacity:1;stroke:none;stroke-width:0.165;stroke-linecap:round;stroke-linejoin:round;stroke-miterlimit:10.8"
         id="path6771"
         cx="168.01042"
         cy="35.71875"
         rx="6.6145883"
         ry="6.6145835" /></g><path
       style="fill:none;stroke:#000000;stroke-width:0.665;stroke-linecap:butt;stroke-linejoin:miter;stroke-miterlimit:4;stroke-dasharray:none;stroke-opacity:1"
       d="M 51.801384,162.9396 152.59144,128.55469"
       id="path1896" /><text
       xml:space="preserve"
       style="font-style:normal;font-weight:normal;font-size:5.29167px;line-height:1.25;font-family:sans-serif;letter-spacing:0px;word-spacing:0px;fill:#000000;fill-opacity:1;stroke:none;stroke-width:0.264583"
       x="133.382"
       y="127.174"
       id="text8668"><tspan
         sodipodi:role="line"
         id="tspan8666"
         style="font-size:5.29167px;stroke-width:0.264583"
         x="133.382"
         y="127.174">λ(max)</tspan></text><text
       xml:space="preserve"
       style="font-style:normal;font-weight:normal;font-size:3.52778px;line-height:1.25;font-family:sans-serif;letter-spacing:0px;word-spacing:0px;fill:#000000;fill-opacity:1;stroke:none;stroke-width:0.264583"
       x="54.231457"
       y="166.40691"
       id="text10526"><tspan
         sodipodi:role="line"
         id="tspan10524"
         style="font-size:3.52778px;stroke-width:0.264583"
         x="54.231457"
         y="166.40691">couleur complémentaire </tspan><tspan
         sodipodi:role="line"
         style="font-size:3.52778px;stroke-width:0.264583"
         x="54.231457"
         y="170.81664"
         id="tspan13976">= celle que l'on voit</tspan></text></g><metadata
     id="metadata275"><rdf:RDF><cc:Work
         rdf:about=""><dc:date>été 2022 - V1 du TST</dc:date><dc:creator><cc:Agent><dc:title>Paulhenry Saux</dc:title></cc:Agent></dc:creator><dc:publisher><cc:Agent><dc:title>Paulhenry.eu</dc:title></cc:Agent></dc:publisher><dc:language>FR</dc:language><cc:license
           rdf:resource="http://creativecommons.org/licenses/by-sa/4.0/" /></cc:Work><cc:License
         rdf:about="http://creativecommons.org/licenses/by-sa/4.0/"><cc:permits
           rdf:resource="http://creativecommons.org/ns#Reproduction" /><cc:permits
           rdf:resource="http://creativecommons.org/ns#Distribution" /><cc:requires
           rdf:resource="http://creativecommons.org/ns#Notice" /><cc:requires
           rdf:resource="http://creativecommons.org/ns#Attribution" /><cc:permits
           rdf:resource="http://creativecommons.org/ns#DerivativeWorks" /><cc:requires
           rdf:resource="http://creativecommons.org/ns#ShareAlike" /></cc:License></rdf:RDF></metadata></svg>
