<?xml version="1.0" encoding="UTF-8" standalone="no"?>
<!-- Created with Inkscape (http://www.inkscape.org/) -->

<svg
   width="251.03232mm"
   height="201.46089mm"
   viewBox="0 0 251.03232 201.46089"
   version="1.1"
   id="svg12723"
   xml:space="preserve"
   inkscape:version="1.2 (1:1.2+202206011327+fc4e4096c5)"
   sodipodi:docname="chap5-fig2.svg"
   xmlns:inkscape="http://www.inkscape.org/namespaces/inkscape"
   xmlns:sodipodi="http://sodipodi.sourceforge.net/DTD/sodipodi-0.dtd"
   xmlns="http://www.w3.org/2000/svg"
   xmlns:svg="http://www.w3.org/2000/svg"
   xmlns:rdf="http://www.w3.org/1999/02/22-rdf-syntax-ns#"
   xmlns:cc="http://creativecommons.org/ns#"
   xmlns:dc="http://purl.org/dc/elements/1.1/"><sodipodi:namedview
     id="namedview12725"
     pagecolor="#ffffff"
     bordercolor="#666666"
     borderopacity="1.0"
     inkscape:showpageshadow="2"
     inkscape:pageopacity="0.0"
     inkscape:pagecheckerboard="0"
     inkscape:deskcolor="#d1d1d1"
     inkscape:document-units="mm"
     showgrid="true"
     inkscape:zoom="0.52114899"
     inkscape:cx="388.56451"
     inkscape:cy="403.9152"
     inkscape:window-width="1366"
     inkscape:window-height="740"
     inkscape:window-x="0"
     inkscape:window-y="0"
     inkscape:window-maximized="1"
     inkscape:current-layer="layer1"><inkscape:grid
       type="xygrid"
       id="grid22085"
       originx="-14.40326"
       originy="-80.539726" /></sodipodi:namedview><defs
     id="defs12720"><marker
       style="overflow:visible"
       id="marker22843"
       refX="0"
       refY="0"
       orient="auto-start-reverse"
       inkscape:stockid="TriangleStart"
       markerWidth="5.3244081"
       markerHeight="6.155385"
       viewBox="0 0 5.3244081 6.1553851"
       inkscape:isstock="true"
       inkscape:collect="always"
       preserveAspectRatio="xMidYMid"><path
         transform="scale(0.5)"
         style="fill:context-stroke;fill-rule:evenodd;stroke:context-stroke;stroke-width:1pt"
         d="M 5.77,0 -2.88,5 V -5 Z"
         id="path22841" /></marker><marker
       style="overflow:visible"
       id="TriangleStart"
       refX="0"
       refY="0"
       orient="auto-start-reverse"
       inkscape:stockid="TriangleStart"
       markerWidth="5.3244081"
       markerHeight="6.155385"
       viewBox="0 0 5.3244081 6.1553851"
       inkscape:isstock="true"
       inkscape:collect="always"
       preserveAspectRatio="xMidYMid"><path
         transform="scale(0.5)"
         style="fill:context-stroke;fill-rule:evenodd;stroke:context-stroke;stroke-width:1pt"
         d="M 5.77,0 -2.88,5 V -5 Z"
         id="path135" /></marker><marker
       style="overflow:visible"
       id="marker22843-3"
       refX="0"
       refY="0"
       orient="auto-start-reverse"
       inkscape:stockid="TriangleStart"
       markerWidth="5.3244081"
       markerHeight="6.155385"
       viewBox="0 0 5.3244081 6.1553851"
       inkscape:isstock="true"
       inkscape:collect="always"
       preserveAspectRatio="xMidYMid"><path
         transform="scale(0.5)"
         style="fill:context-stroke;fill-rule:evenodd;stroke:context-stroke;stroke-width:1pt"
         d="M 5.77,0 -2.88,5 V -5 Z"
         id="path22841-2" /></marker><marker
       style="overflow:visible"
       id="TriangleStart-0"
       refX="0"
       refY="0"
       orient="auto-start-reverse"
       inkscape:stockid="TriangleStart"
       markerWidth="5.3244081"
       markerHeight="6.155385"
       viewBox="0 0 5.3244081 6.1553851"
       inkscape:isstock="true"
       inkscape:collect="always"
       preserveAspectRatio="xMidYMid"><path
         transform="scale(0.5)"
         style="fill:context-stroke;fill-rule:evenodd;stroke:context-stroke;stroke-width:1pt"
         d="M 5.77,0 -2.88,5 V -5 Z"
         id="path135-6" /></marker></defs><g
     inkscape:label="Calque 1"
     inkscape:groupmode="layer"
     id="layer1"
     transform="translate(-14.40326,-80.539728)"><path
       id="path451-6-5"
       style="fill:#2a7fff;stroke:#000080;stroke-width:0.665;stroke-linecap:butt;stroke-linejoin:miter;stroke-dasharray:none;stroke-opacity:1"
       d="m 73.709015,128.16088 a 24.64086,14.097285 0 0 1 -8.79585,9.05061 c 0.94952,1.13269 3.45736,3.37744 3.26027,3.853 -0.24006,0.57921 -5.17554,0.17548 -5.67304,0.55707 -0.49751,0.38159 -1.38651,5.25286 -2.00815,5.33456 -0.62163,0.0817 -2.73893,-4.39429 -3.31814,-4.63435 -0.57922,-0.24005 -5.24236,1.42561 -5.62395,0.92811 -0.21575,-0.28128 0.5878,-1.70084 1.31517,-2.99775 a 24.64086,14.097285 0 0 1 -3.564124,0.15193 24.64086,14.097285 0 0 1 -1.521871,-0.03 c -0.0206,0.0456 -0.04125,0.0844 -0.06201,0.11524 -0.657416,0.97632 -8.439661,4.77908 -9.613884,4.6979 -1.174224,-0.0812 -8.35862,-4.91888 -8.875427,-5.97638 -0.226002,-0.46245 -0.235694,-2.37856 -0.123507,-4.46639 -1.865166,1.02859 -3.603048,2.34379 -5.321639,3.61528 -1.773638,1.31223 -3.582021,2.6096 -5.06274,4.24522 -1.480728,1.63561 -2.628663,3.66441 -2.803963,5.86373 -0.1774,2.22552 0.639178,4.39165 1.118278,6.57221 0.37101,1.68863 0.542469,3.41767 0.945679,5.09891 0.403219,1.68124 1.065542,3.35105 2.26136,4.59972 0.995189,1.03915 2.294872,1.72286 3.56309,2.40244 1.268229,0.67959 2.556627,1.39487 3.506246,2.47581 1.212719,1.38041 1.747548,3.20672 2.436027,4.9103 0.4807,1.18945 1.055254,2.35122 1.834514,3.37034 0.779269,1.01911 1.774135,1.89416 2.950724,2.40553 0.834419,0.36266 1.737749,0.53539 2.635498,0.68317 7.390453,1.2165 15.04182,0.93121 22.28081,-0.99116 0.85415,-0.22683 1.70693,-0.47753 2.50269,-0.86196 0.79576,-0.38442 1.53735,-0.91013 2.07533,-1.61127 0.86215,-1.12366 1.13268,-2.62871 0.93224,-4.03076 -0.20044,-1.40206 -0.83576,-2.71143 -1.62936,-3.88452 -1.58719,-2.34618 -3.82879,-4.24214 -5.10977,-6.76858 -1.2725,-2.50971 -1.47729,-5.50697 -0.7276,-8.21914 1.04381,-3.77625 3.86922,-6.92847 7.31428,-8.79429 2.59321,-1.40445 5.49886,-2.12716 8.17315,-3.37034 1.33714,-0.62159 2.62335,-1.37988 3.71192,-2.37453 1.08856,-0.99464 1.97557,-2.23768 2.41329,-3.64577 0.30891,-0.99376 0.38851,-2.06073 0.21083,-3.08612 -0.17768,-1.02539 -0.61434,-2.00729 -1.2733,-2.81275 -0.7943,-0.97088 -1.89614,-1.66868 -3.0856,-2.06706 -0.40713,-0.13634 -0.82469,-0.23606 -1.24747,-0.30799 z" /><path
       id="path14131-1"
       style="fill:#ffcc00;fill-opacity:1;stroke:#aa8800;stroke-width:0.765;stroke-linecap:round;stroke-linejoin:round;stroke-miterlimit:10.8;stroke-opacity:1"
       d="m 44.845385,82.317949 a 24.64086,14.097285 0 0 0 -24.64087,14.097331 24.64086,14.097285 0 0 0 4.46278,8.0884 c -0.13272,2.221 -0.13374,4.3274 0.1049,4.81572 0.51681,1.0575 7.7012,5.8952 8.87543,5.97638 1.17422,0.0812 8.95647,-3.72158 9.61388,-4.6979 0.0208,-0.0308 0.0414,-0.0696 0.062,-0.11524 a 24.64086,14.097285 0 0 0 1.52187,0.03 24.64086,14.097285 0 0 0 3.56464,-0.15193 c -0.72737,1.29691 -1.53143,2.71646 -1.31568,2.99775 0.38159,0.4975 5.04473,-1.16817 5.62395,-0.92811 0.57921,0.24006 2.6965,4.71606 3.31814,4.63435 0.62164,-0.0817 1.51064,-4.95298 2.00815,-5.33457 0.4975,-0.38158 5.43298,0.0221 5.67304,-0.55707 0.19709,-0.47555 -2.31075,-2.72031 -3.26027,-3.85299 a 24.64086,14.097285 0 0 0 9.02892,-10.904759 24.64086,14.097285 0 0 0 -24.64088,-14.097332 z" /><path
       id="path451-6-5-9"
       style="fill:#2a7fff;stroke:#000080;stroke-width:0.665;stroke-linecap:butt;stroke-linejoin:miter;stroke-dasharray:none;stroke-opacity:1"
       d="m 178.04826,127.08188 a 24.64086,14.097285 0 0 1 -8.79585,9.05061 c 0.94952,1.13269 3.45736,3.37744 3.26027,3.853 -0.24006,0.57921 -5.17554,0.17548 -5.67304,0.55707 -0.49751,0.38159 -1.38651,5.25286 -2.00815,5.33456 -0.62163,0.0817 -2.73893,-4.39429 -3.31814,-4.63435 -0.57922,-0.24005 -5.24236,1.42561 -5.62395,0.92811 -0.21575,-0.28128 0.5878,-1.70084 1.31517,-2.99775 a 24.64086,14.097285 0 0 1 -3.56412,0.15193 24.64086,14.097285 0 0 1 -1.52187,-0.03 c -0.0206,0.0456 -0.0413,0.0844 -0.062,0.11524 -0.65742,0.97632 -8.43966,4.77908 -9.61388,4.6979 -1.17423,-0.0812 -8.35862,-4.91888 -8.87543,-5.97638 -0.226,-0.46245 -0.2357,-2.37856 -0.12351,-4.46639 -1.86516,1.02859 -3.60305,2.34379 -5.32164,3.61528 -1.77363,1.31223 -3.58202,2.6096 -5.06274,4.24522 -1.48073,1.63561 -2.62866,3.66441 -2.80396,5.86373 -0.1774,2.22552 0.63918,4.39165 1.11828,6.57221 0.37101,1.68863 0.54247,3.41767 0.94568,5.09891 0.40322,1.68124 1.06554,3.35105 2.26136,4.59972 0.99519,1.03915 2.29487,1.72286 3.56309,2.40244 1.26823,0.67959 2.55662,1.39487 3.50624,2.47581 1.21272,1.38041 1.74755,3.20672 2.43603,4.9103 0.4807,1.18945 1.05525,2.35122 1.83451,3.37034 0.77927,1.01911 1.77414,1.89416 2.95073,2.40553 0.83442,0.36266 1.73775,0.53539 2.6355,0.68317 7.39045,1.2165 15.04182,0.93121 22.28081,-0.99116 0.85415,-0.22683 1.70693,-0.47753 2.50269,-0.86196 0.79576,-0.38442 1.53735,-0.91013 2.07533,-1.61127 0.86215,-1.12366 1.13268,-2.62871 0.93224,-4.03076 -0.20044,-1.40206 -0.83576,-2.71143 -1.62936,-3.88452 -1.58719,-2.34618 -3.82879,-4.24214 -5.10977,-6.76858 -1.2725,-2.50971 -1.47729,-5.50697 -0.7276,-8.21914 1.04381,-3.77625 3.86922,-6.92847 7.31428,-8.79429 2.59321,-1.40445 5.49886,-2.12716 8.17315,-3.37034 1.33714,-0.62159 2.62335,-1.37988 3.71192,-2.37453 1.08856,-0.99464 1.97557,-2.23768 2.41329,-3.64577 0.30891,-0.99376 0.38851,-2.06073 0.21083,-3.08612 -0.17768,-1.02539 -0.61434,-2.00729 -1.2733,-2.81275 -0.7943,-0.97088 -1.89614,-1.66868 -3.0856,-2.06706 -0.40713,-0.13634 -0.82469,-0.23606 -1.24747,-0.30799 z" /><path
       id="path14131-1-3"
       style="fill:#ffcc00;fill-opacity:1;stroke:#aa8800;stroke-width:0.765;stroke-linecap:round;stroke-linejoin:round;stroke-miterlimit:10.8;stroke-opacity:1"
       d="m 153.07961,80.922228 a 24.64086,14.097285 0 0 1 24.64086,14.097329 24.64086,14.097285 0 0 1 -4.46277,8.088403 c 0.13271,2.221 0.13374,4.3274 -0.1049,4.81572 -0.51681,1.0575 -7.7012,5.8952 -8.87543,5.97638 -1.17422,0.0812 -8.95647,-3.72158 -9.61388,-4.6979 -0.0208,-0.0308 -0.0414,-0.0696 -0.062,-0.11524 a 24.64086,14.097285 0 0 1 -1.52187,0.03 24.64086,14.097285 0 0 1 -3.56464,-0.15193 c 0.72737,1.29691 1.53143,2.71646 1.31568,2.99775 -0.3816,0.4975 -5.04474,-1.16817 -5.62395,-0.92811 -0.57921,0.24006 -2.6965,4.71606 -3.31814,4.63435 -0.62164,-0.0817 -1.51064,-4.95298 -2.00815,-5.33457 -0.4975,-0.38158 -5.43298,0.0221 -5.67304,-0.55707 -0.19709,-0.47555 2.31075,-2.72031 3.26027,-3.85299 A 24.64086,14.097285 0 0 1 128.43873,95.019587 24.64086,14.097285 0 0 1 153.0796,80.922258 Z" /><path
       style="fill:#2a7fff;stroke:#000080;stroke-width:0.665;stroke-linecap:butt;stroke-linejoin:miter;stroke-dasharray:none;stroke-opacity:1"
       d="m 33.377142,280.25485 c -1.17659,-0.51137 -2.17158,-1.38676 -2.95085,-2.40588 -0.77926,-1.01912 -1.35373,-2.18064 -1.83443,-3.37009 -0.68848,-1.70358 -1.22353,-3.53019 -2.43625,-4.9106 -0.94962,-1.08095 -2.23812,-1.79586 -3.50635,-2.47545 -1.26822,-0.67958 -2.56776,-1.36338 -3.56295,-2.40253 -1.19582,-1.24867 -1.85829,-2.91858 -2.26151,-4.59982 -0.40321,-1.68124 -0.57467,-3.41013 -0.94568,-5.09877 -0.4791,-2.18056 -1.29554,-4.34671 -1.11814,-6.57223 0.1753,-2.19932 1.32358,-4.22816 2.80431,-5.86377 1.48072,-1.63562 3.28903,-2.93316 5.06267,-4.24539 2.79967,-2.07133 5.6485,-4.26075 9.01999,-5.13337 3.49276,-0.90401 7.16975,-0.29987 10.76239,0.0313 3.85199,0.35507 7.762599,0.38618 11.560729,-0.34743 3.05976,-0.59098 6.00219,-1.66872 8.90581,-2.80019 2.3376,-0.91091 4.70708,-1.87076 7.20911,-2.05517 1.25101,-0.0922 2.52602,0.0158 3.71548,0.41414 1.18946,0.39838 2.29103,1.09628 3.08533,2.06716 0.65896,0.80546 1.096,1.78741 1.27369,2.8128 0.17768,1.02539 0.0977,2.092 -0.21122,3.08576 -0.43772,1.4081 -1.32447,2.65125 -2.41304,3.64589 -1.08857,0.99465 -2.37481,1.75274 -3.71195,2.37433 -2.67429,1.24318 -5.58016,1.96598 -8.17337,3.37042 -3.44507,1.86582 -6.27002,5.01844 -7.31383,8.7947 -0.74969,2.71217 -0.5453,5.70897 0.72721,8.21868 1.28098,2.52644 3.52269,4.4228 5.10988,6.76898 0.7936,1.17309 1.4288,2.4825 1.62924,3.88456 0.20044,1.40205 -0.0701,2.90711 -0.93226,4.03077 -0.53798,0.70114 -1.2795,1.22655 -2.07526,1.61097 -0.79576,0.38443 -1.64859,0.63545 -2.50274,0.86228 -7.239,1.92237 -14.890279,2.20717 -22.280739,0.99067 -0.89775,-0.14778 -1.80085,-0.32005 -2.63527,-0.68271 z"
       id="path451-6-5-2-1" /><path
       id="path14131-1-9"
       style="fill:#ffcc00;fill-opacity:1;stroke:#aa8800;stroke-width:0.765;stroke-linecap:round;stroke-linejoin:round;stroke-miterlimit:10.8;stroke-opacity:1"
       d="m 48.273201,212.09482 a 24.64086,14.097285 0 0 0 -24.64087,14.09733 24.64086,14.097285 0 0 0 4.46278,8.0884 c -0.13272,2.221 -0.13374,4.3274 0.1049,4.81572 0.51681,1.0575 7.7012,5.8952 8.87543,5.97638 1.17422,0.0812 8.95647,-3.72158 9.61388,-4.6979 0.0208,-0.0308 0.0414,-0.0696 0.062,-0.11524 a 24.64086,14.097285 0 0 0 1.52187,0.03 24.64086,14.097285 0 0 0 3.56464,-0.15193 c -0.72737,1.29691 -1.53143,2.71646 -1.31568,2.99775 0.38159,0.4975 5.04473,-1.16817 5.62395,-0.92811 0.57921,0.24006 2.6965,4.71606 3.31814,4.63435 0.62164,-0.0817 1.51064,-4.95298 2.00815,-5.33457 0.4975,-0.38158 5.43298,0.0221 5.67304,-0.55707 0.19709,-0.47555 -2.31075,-2.72031 -3.26027,-3.85299 a 24.64086,14.097285 0 0 0 9.02892,-10.90476 24.64086,14.097285 0 0 0 -24.64088,-14.09733 z" /><text
       xml:space="preserve"
       style="font-style:normal;font-weight:normal;font-size:8.81944px;line-height:1.25;font-family:sans-serif;letter-spacing:0px;word-spacing:0px;fill:#000000;fill-opacity:1;stroke:none;stroke-width:0.264583"
       x="27.581104"
       y="100.1258"
       id="text2211-4"><tspan
         sodipodi:role="line"
         id="tspan2209-7"
         style="font-style:normal;font-variant:normal;font-weight:normal;font-stretch:normal;font-size:8.81944px;font-family:arial;-inkscape-font-specification:arial;stroke-width:0.264583"
         x="27.581104"
         y="100.1258">Substrat</tspan></text><text
       xml:space="preserve"
       style="font-style:normal;font-weight:normal;font-size:8.81944px;line-height:1.25;font-family:sans-serif;letter-spacing:0px;word-spacing:0px;fill:#000000;fill-opacity:1;stroke:none;stroke-width:0.264583"
       x="23.013132"
       y="163.81078"
       id="text2211-5-8"><tspan
         sodipodi:role="line"
         id="tspan2209-9-4"
         style="font-style:normal;font-variant:normal;font-weight:normal;font-stretch:normal;font-size:8.81944px;font-family:arial;-inkscape-font-specification:arial;stroke-width:0.264583"
         x="23.013132"
         y="163.81078">Enzyme</tspan></text><text
       xml:space="preserve"
       style="font-style:normal;font-weight:normal;font-size:8.81944px;line-height:1.25;font-family:sans-serif;letter-spacing:0px;word-spacing:0px;fill:#000000;fill-opacity:1;stroke:none;stroke-width:0.264583"
       x="31.004995"
       y="138.6575"
       id="text2211-22-5"><tspan
         sodipodi:role="line"
         id="tspan2209-8-0"
         style="font-style:normal;font-variant:normal;font-weight:normal;font-stretch:normal;font-size:8.81944px;font-family:arial;-inkscape-font-specification:arial;stroke-width:0.264583"
         x="31.004995"
         y="138.6575">Site actif</tspan></text><text
       xml:space="preserve"
       style="font-style:normal;font-weight:normal;font-size:8.81944px;line-height:1.25;font-family:sans-serif;letter-spacing:0px;word-spacing:0px;fill:#000000;fill-opacity:1;stroke:none;stroke-width:0.264583"
       x="89.893547"
       y="250.31493"
       id="text2211-9"><tspan
         sodipodi:role="line"
         id="tspan2209-73"
         style="font-style:normal;font-variant:normal;font-weight:normal;font-stretch:normal;font-size:8.81944px;font-family:arial;-inkscape-font-specification:arial;text-align:center;text-anchor:middle;stroke-width:0.264583"
         x="89.893547"
         y="250.31493">Complexe </tspan><tspan
         sodipodi:role="line"
         style="font-style:normal;font-variant:normal;font-weight:normal;font-stretch:normal;font-size:8.81944px;font-family:arial;-inkscape-font-specification:arial;text-align:center;text-anchor:middle;stroke-width:0.264583"
         x="89.893547"
         y="261.41968"
         id="tspan10241">enzyme-substrat</tspan></text><text
       xml:space="preserve"
       style="font-style:normal;font-weight:normal;font-size:8.81944px;line-height:1.25;font-family:sans-serif;letter-spacing:0px;word-spacing:0px;fill:#000000;fill-opacity:1;stroke:none;stroke-width:0.264583"
       x="89.613823"
       y="116.7884"
       id="text2211-4-3"><tspan
         sodipodi:role="line"
         id="tspan2209-7-6"
         style="font-style:normal;font-variant:normal;font-weight:normal;font-stretch:normal;font-size:8.81944px;font-family:arial;-inkscape-font-specification:arial;stroke-width:0.264583"
         x="89.613823"
         y="116.7884">Formes </tspan><tspan
         sodipodi:role="line"
         style="font-style:normal;font-variant:normal;font-weight:normal;font-stretch:normal;font-size:8.81944px;font-family:arial;-inkscape-font-specification:arial;stroke-width:0.264583"
         x="89.613823"
         y="127.89314"
         id="tspan20271">complémentaires</tspan></text><text
       xml:space="preserve"
       style="font-style:normal;font-weight:normal;font-size:8.81944px;line-height:1.25;font-family:sans-serif;letter-spacing:0px;word-spacing:0px;fill:#000000;fill-opacity:1;stroke:none;stroke-width:0.264583"
       x="198.6223"
       y="112.14647"
       id="text2211-4-3-1"><tspan
         sodipodi:role="line"
         id="tspan2209-7-6-0"
         style="font-style:normal;font-variant:normal;font-weight:normal;font-stretch:normal;font-size:8.81944px;font-family:arial;-inkscape-font-specification:arial;stroke-width:0.264583"
         x="198.6223"
         y="112.14647">Formes non</tspan><tspan
         sodipodi:role="line"
         style="font-style:normal;font-variant:normal;font-weight:normal;font-stretch:normal;font-size:8.81944px;font-family:arial;-inkscape-font-specification:arial;stroke-width:0.264583"
         x="198.6223"
         y="123.25121"
         id="tspan20271-6">complémentaires</tspan></text><path
       style="fill:none;stroke:#000000;stroke-width:0.565;stroke-linecap:round;stroke-linejoin:miter;stroke-dasharray:none;stroke-opacity:1;marker-start:url(#marker22843-3);marker-end:url(#TriangleStart-0)"
       d="m 191.0291,129.64584 h 5.29167 v -29.10417 h -15.875"
       id="path22813-1"
       sodipodi:nodetypes="cccc" /><path
       style="fill:none;stroke:#000000;stroke-width:0.565;stroke-linecap:round;stroke-linejoin:miter;stroke-dasharray:none;stroke-opacity:1;marker-start:url(#marker22843);marker-end:url(#TriangleStart)"
       d="M 82.020832,134.9375 H 87.3125 V 105.83333 H 71.437499"
       id="path22813"
       sodipodi:nodetypes="cccc" /><text
       xml:space="preserve"
       style="font-style:normal;font-weight:normal;font-size:8.81944px;line-height:1.25;font-family:sans-serif;letter-spacing:0px;word-spacing:0px;fill:#000000;fill-opacity:1;stroke:none;stroke-width:0.264583"
       x="148.69597"
       y="232.83333"
       id="text2211-9-5"><tspan
         sodipodi:role="line"
         style="font-style:normal;font-variant:normal;font-weight:normal;font-stretch:normal;font-size:8.81944px;font-family:arial;-inkscape-font-specification:arial;text-align:center;text-anchor:middle;stroke-width:0.264583"
         x="148.69597"
         y="232.83333"
         id="tspan10241-4">Pas de complexe</tspan></text><path
       style="fill:none;stroke:#000000;stroke-width:0.565;stroke-linecap:butt;stroke-linejoin:miter;stroke-dasharray:none;stroke-opacity:1;marker-end:url(#TriangleStart-0)"
       d="M 47.624999,185.20833 47.625,206.375"
       id="path23079"
       sodipodi:nodetypes="cc" /><path
       style="fill:none;stroke:#000000;stroke-width:0.565;stroke-linecap:butt;stroke-linejoin:miter;stroke-dasharray:none;stroke-opacity:1;marker-end:url(#TriangleStart-0)"
       d="m 153.98743,185.20833 v 31.75"
       id="path23081" /></g><metadata
     id="metadata23592"><rdf:RDF><cc:Work
         rdf:about=""><dc:date>été 2022 - V1 du TST</dc:date><dc:creator><cc:Agent><dc:title>Paulhenry Saux</dc:title></cc:Agent></dc:creator><dc:publisher><cc:Agent><dc:title>Paulhenry.eu</dc:title></cc:Agent></dc:publisher><dc:language>FR</dc:language><cc:license
           rdf:resource="http://creativecommons.org/licenses/by-sa/4.0/" /></cc:Work><cc:License
         rdf:about="http://creativecommons.org/licenses/by-sa/4.0/"><cc:permits
           rdf:resource="http://creativecommons.org/ns#Reproduction" /><cc:permits
           rdf:resource="http://creativecommons.org/ns#Distribution" /><cc:requires
           rdf:resource="http://creativecommons.org/ns#Notice" /><cc:requires
           rdf:resource="http://creativecommons.org/ns#Attribution" /><cc:permits
           rdf:resource="http://creativecommons.org/ns#DerivativeWorks" /><cc:requires
           rdf:resource="http://creativecommons.org/ns#ShareAlike" /></cc:License></rdf:RDF></metadata></svg>
