<?xml version="1.0" encoding="UTF-8" standalone="no"?>
<!-- Created with Inkscape (http://www.inkscape.org/) -->

<svg
   width="195.11496mm"
   height="190.7625mm"
   viewBox="0 0 195.11496 190.7625"
   version="1.1"
   id="svg5"
   xml:space="preserve"
   inkscape:version="1.2 (1:1.2+202206011327+fc4e4096c5)"
   sodipodi:docname="chap5-fig1.svg"
   xmlns:inkscape="http://www.inkscape.org/namespaces/inkscape"
   xmlns:sodipodi="http://sodipodi.sourceforge.net/DTD/sodipodi-0.dtd"
   xmlns="http://www.w3.org/2000/svg"
   xmlns:svg="http://www.w3.org/2000/svg"
   xmlns:rdf="http://www.w3.org/1999/02/22-rdf-syntax-ns#"
   xmlns:cc="http://creativecommons.org/ns#"
   xmlns:dc="http://purl.org/dc/elements/1.1/"><sodipodi:namedview
     id="namedview7"
     pagecolor="#ffffff"
     bordercolor="#666666"
     borderopacity="1.0"
     inkscape:showpageshadow="2"
     inkscape:pageopacity="0.0"
     inkscape:pagecheckerboard="0"
     inkscape:deskcolor="#d1d1d1"
     inkscape:document-units="mm"
     showgrid="false"
     inkscape:zoom="0.52114899"
     inkscape:cx="423.10357"
     inkscape:cy="329.08056"
     inkscape:window-width="1366"
     inkscape:window-height="740"
     inkscape:window-x="0"
     inkscape:window-y="0"
     inkscape:window-maximized="1"
     inkscape:current-layer="layer1" /><defs
     id="defs2"><inkscape:path-effect
       effect="bend_path"
       id="path-effect4556"
       is_visible="true"
       lpeversion="1"
       bendpath="m 82.240086,187.86926 c 13.094283,13.76017 33.028044,17.67975 59.989984,-4.17592"
       prop_scale="1"
       scale_y_rel="false"
       vertical="false"
       hide_knot="false"
       bendpath-nodetypes="cc" /><inkscape:path-effect
       effect="bend_path"
       id="path-effect3481"
       is_visible="true"
       lpeversion="1"
       bendpath="m 144.58927,-72.442618 c 28.3566,-13.634013 45.33274,-9.966135 58.16614,0"
       prop_scale="1"
       scale_y_rel="false"
       vertical="false"
       hide_knot="false"
       bendpath-nodetypes="cc" /><inkscape:path-effect
       effect="bend_path"
       id="path-effect2370"
       is_visible="true"
       lpeversion="1"
       bendpath="m -82.914088,83.691054 c 9.58039,-2.56324 19.260364,-4.180054 29.550286,0"
       prop_scale="1"
       scale_y_rel="false"
       vertical="false"
       hide_knot="false"
       bendpath-nodetypes="cc" /><marker
       style="overflow:visible"
       id="TriangleStart"
       refX="0"
       refY="0"
       orient="auto-start-reverse"
       inkscape:stockid="TriangleStart"
       markerWidth="5.3244081"
       markerHeight="6.155385"
       viewBox="0 0 5.3244081 6.1553851"
       inkscape:isstock="true"
       inkscape:collect="always"
       preserveAspectRatio="xMidYMid"><path
         transform="scale(0.5)"
         style="fill:context-stroke;fill-rule:evenodd;stroke:context-stroke;stroke-width:1pt"
         d="M 5.77,0 -2.88,5 V -5 Z"
         id="path135" /></marker><inkscape:path-effect
       effect="spiro"
       id="path-effect455"
       is_visible="true"
       lpeversion="1" /><inkscape:path-effect
       effect="simplify"
       id="path-effect453"
       is_visible="true"
       lpeversion="1"
       steps="1"
       threshold="0.00645161"
       smooth_angles="360"
       helper_size="0"
       simplify_individual_paths="false"
       simplify_just_coalesce="false" /><marker
       style="overflow:visible"
       id="TriangleStart-6"
       refX="0"
       refY="0"
       orient="auto-start-reverse"
       inkscape:stockid="TriangleStart"
       markerWidth="5.3244081"
       markerHeight="6.155385"
       viewBox="0 0 5.3244081 6.1553851"
       inkscape:isstock="true"
       inkscape:collect="always"
       preserveAspectRatio="xMidYMid"><path
         transform="scale(0.5)"
         style="fill:context-stroke;fill-rule:evenodd;stroke:context-stroke;stroke-width:1pt"
         d="M 5.77,0 -2.88,5 V -5 Z"
         id="path135-2" /></marker><marker
       style="overflow:visible"
       id="TriangleStart-1"
       refX="0"
       refY="0"
       orient="auto-start-reverse"
       inkscape:stockid="TriangleStart"
       markerWidth="5.3244081"
       markerHeight="6.155385"
       viewBox="0 0 5.3244081 6.1553851"
       inkscape:isstock="true"
       inkscape:collect="always"
       preserveAspectRatio="xMidYMid"><path
         transform="scale(0.5)"
         style="fill:context-stroke;fill-rule:evenodd;stroke:context-stroke;stroke-width:1pt"
         d="M 5.77,0 -2.88,5 V -5 Z"
         id="path135-27" /></marker><marker
       style="overflow:visible"
       id="TriangleStart-9"
       refX="0"
       refY="0"
       orient="auto-start-reverse"
       inkscape:stockid="TriangleStart"
       markerWidth="5.3244081"
       markerHeight="6.155385"
       viewBox="0 0 5.3244081 6.1553851"
       inkscape:isstock="true"
       inkscape:collect="always"
       preserveAspectRatio="xMidYMid"><path
         transform="scale(0.5)"
         style="fill:context-stroke;fill-rule:evenodd;stroke:context-stroke;stroke-width:1pt"
         d="M 5.77,0 -2.88,5 V -5 Z"
         id="path135-3" /></marker></defs><g
     inkscape:label="Calque 1"
     inkscape:groupmode="layer"
     id="layer1"
     transform="translate(-5.8305215,-45.885129)"><path
       style="fill:#2a7fff;stroke:#000080;stroke-width:0.665;stroke-linecap:butt;stroke-linejoin:miter;stroke-dasharray:none;stroke-opacity:1"
       d="m 155.73641,136.76512 c -1.17659,0.51137 -2.17158,1.38676 -2.95085,2.40588 -0.77926,1.01912 -1.35373,2.18064 -1.83443,3.37009 -0.68848,1.70358 -1.22353,3.53019 -2.43625,4.9106 -0.94962,1.08095 -2.23812,1.79586 -3.50635,2.47545 -1.26822,0.67958 -2.56776,1.36338 -3.56295,2.40253 -1.19582,1.24866 -1.85829,2.91857 -2.26151,4.59981 -0.40321,1.68124 -0.57467,3.41013 -0.94568,5.09877 -0.4791,2.18056 -1.29554,4.34671 -1.11814,6.57223 0.1753,2.19932 1.32358,4.22817 2.80431,5.86378 1.48072,1.63562 3.28903,2.93316 5.06267,4.24539 2.79967,2.07133 5.6485,4.26075 9.01999,5.13337 3.49276,0.90401 7.16975,0.29987 10.76239,-0.0313 3.85199,-0.35507 7.7626,-0.38618 11.56073,0.34743 3.05976,0.59098 6.00219,1.66872 8.90581,2.80019 2.3376,0.91091 4.70708,1.87076 7.20911,2.05517 1.25101,0.0922 2.52602,-0.0158 3.71548,-0.41414 1.18946,-0.39838 2.29103,-1.09628 3.08533,-2.06716 0.65896,-0.80546 1.096,-1.78741 1.27369,-2.8128 0.17768,-1.02539 0.0977,-2.092 -0.21122,-3.08576 -0.43772,-1.4081 -1.32447,-2.65125 -2.41304,-3.64589 -1.08857,-0.99465 -2.37481,-1.75274 -3.71195,-2.37433 -2.67429,-1.24318 -5.58016,-1.96598 -8.17337,-3.37043 -3.44507,-1.86582 -6.27002,-5.01844 -7.31383,-8.7947 -0.74969,-2.71217 -0.5453,-5.70897 0.72721,-8.21868 1.28098,-2.52643 3.52269,-4.42279 5.10988,-6.76897 0.7936,-1.17309 1.4288,-2.4825 1.62924,-3.88456 0.20044,-1.40205 -0.0701,-2.90711 -0.93226,-4.03077 -0.53798,-0.70114 -1.2795,-1.22655 -2.07526,-1.61097 -0.79576,-0.38443 -1.64859,-0.63545 -2.50274,-0.86228 -7.239,-1.92237 -14.89028,-2.20717 -22.28074,-0.99067 -0.89775,0.14778 -1.80085,0.32005 -2.63527,0.68271 z"
       id="path451-6-5" /><path
       sodipodi:type="star"
       style="fill:#ffcc00;stroke:#aa8800;stroke-width:1.1792;stroke-linecap:round;stroke-linejoin:round;stroke-miterlimit:10.8;stroke-dasharray:none"
       id="path384-3"
       inkscape:flatsided="true"
       sodipodi:sides="6"
       sodipodi:cx="37.89991"
       sodipodi:cy="59.966663"
       sodipodi:r1="13.413653"
       sodipodi:r2="10.851874"
       sodipodi:arg1="0.90957035"
       sodipodi:arg2="1.4331691"
       inkscape:rounded="0.16"
       inkscape:randomized="0"
       d="m 46.137032,70.553255 c -1.693855,1.317939 -11.298522,2.648212 -13.286818,1.840261 -1.988297,-0.807951 -7.94268,-8.460701 -8.237122,-10.586591 -0.294442,-2.125891 3.355841,-11.108914 5.049696,-12.426853 1.693855,-1.31794 11.298522,-2.648213 13.286818,-1.840261 1.988296,0.807951 7.94268,8.4607 8.237122,10.586591 0.294442,2.125891 -3.355841,11.108913 -5.049696,12.426853 z"
       inkscape:transform-center-x="0.085467948"
       inkscape:transform-center-y="-0.721009"
       transform="matrix(0.62669472,0,0,0.62669472,142.26844,124.87367)" /><path
       id="path451"
       style="fill:#2a7fff;fill-opacity:1;stroke:#000080;stroke-width:0.665;stroke-linecap:butt;stroke-linejoin:miter;stroke-dasharray:none;stroke-opacity:1"
       d="m 40.360023,140.10673 c -2.80928,0.0268 -5.61722,0.27193 -8.388635,0.72812 -0.897747,0.14777 -1.801074,0.31998 -2.635498,0.68264 -1.176586,0.51137 -2.171457,1.38694 -2.950725,2.40606 -0.779266,1.01911 -1.353814,2.18089 -1.834513,3.37033 -0.688479,1.70359 -1.223317,3.52989 -2.436027,4.9103 -0.949624,1.08095 -2.238022,1.79571 -3.506246,2.4753 -1.268223,0.67959 -2.567908,1.3638 -3.56309,2.40295 -1.195818,1.24866 -1.858145,2.91849 -2.26136,4.59972 -0.403215,1.68124 -0.574666,3.41029 -0.945679,5.09892 -0.479097,2.18056 -1.295673,4.34669 -1.118278,6.57221 0.175307,2.19932 1.323248,4.2281 2.803963,5.86372 1.480715,1.63562 3.289098,2.93299 5.06274,4.24522 2.799648,2.07132 5.648635,4.26091 9.020121,5.13354 3.492756,0.90401 7.170032,0.29963 10.762651,-0.0315 3.852,-0.35507 7.762398,-0.38634 11.560538,0.34727 3.05974,0.59099 6.00229,1.66887 8.90591,2.80035 2.33759,0.9109 4.70685,1.87076 7.20887,2.05517 1.251,0.0922 2.52607,-0.0155 3.71553,-0.41393 1.18946,-0.39838 2.2913,-1.09618 3.0856,-2.06706 0.65896,-0.80545 1.09563,-1.78788 1.27331,-2.81326 0.17768,-1.02539 0.09808,-2.09184 -0.21084,-3.0856 -0.43771,-1.40809 -1.32472,-2.65113 -2.41329,-3.64578 -1.08857,-0.99464 -2.37478,-1.75294 -3.71192,-2.37453 -2.67428,-1.24317 -5.57994,-1.96588 -8.17314,-3.37033 -3.42395,-1.85438 -5.375161,-5.9284 -6.814817,-9.52119 -0.697451,-1.74055 -2.051433,4.25564 -2.601663,4.68375 -1.06153,0.82595 -7.08058,1.65976 -8.326627,1.15342 -1.246049,-0.50634 -4.977946,-5.30193 -5.162476,-6.63422 -0.18452,-1.33228 2.103136,-6.96221 3.164665,-7.78815 1.061529,-0.82595 7.081088,-1.65976 8.327138,-1.15342 0.8302,0.33735 3.23891,4.04574 3.949853,6.16612 0.425479,1.26898 0.524347,-3.22373 0.877247,-3.91975 1.28098,-2.52642 3.52258,-4.42291 5.10976,-6.76909 0.7936,-1.17309 1.42892,-2.48246 1.62936,-3.88452 0.20044,-1.40205 -0.07008,-2.90711 -0.93224,-4.03076 -0.53798,-0.70114 -1.27957,-1.22633 -2.07533,-1.61076 -0.79576,-0.38442 -1.64854,-0.63565 -2.50269,-0.86248 -4.52437,-1.20148 -9.21004,-1.76336 -13.892172,-1.71875 z"
       sodipodi:nodetypes="cssssssssssssssssscssssssssssssssssssscc" /><path
       style="fill:#2a7fff;stroke:#000080;stroke-width:0.665;stroke-linecap:butt;stroke-linejoin:miter;stroke-dasharray:none;stroke-opacity:1"
       d="m 86.551078,47.630897 c -1.17659,0.511372 -2.17158,1.386766 -2.95085,2.405884 -0.77926,1.019117 -1.35373,2.180638 -1.83443,3.370086 -0.68848,1.703587 -1.22353,3.530192 -2.43625,4.910607 -0.94962,1.080947 -2.23812,1.795854 -3.50635,2.475443 -1.26822,0.679589 -2.56777,1.363382 -3.56296,2.402538 -1.19582,1.24866 -1.85828,2.91857 -2.261502,4.59981 -0.40321,1.681233 -0.57467,3.410123 -0.94568,5.098762 -0.4791,2.18056 -1.29554,4.34671 -1.11814,6.57223 0.1753,2.19932 1.32358,4.22817 2.804302,5.86378 1.48072,1.63562 3.28904,2.93316 5.06268,4.24539 2.79966,2.07133 5.64849,4.26075 9.01998,5.13337 3.49276,0.90401 7.16976,0.29987 10.76239,-0.0313 3.852,-0.35507 7.762602,-0.38618 11.560742,0.34743 3.05975,0.59098 6.00218,1.66872 8.90581,2.80019 2.33759,0.91091 4.70708,1.87076 7.2091,2.05517 1.25101,0.0922 2.52603,-0.0158 3.71549,-0.41414 1.18946,-0.39838 2.29103,-1.09628 3.08533,-2.06716 0.65896,-0.80546 1.096,-1.78741 1.27368,-2.8128 0.17768,-1.02539 0.0977,-2.092 -0.21122,-3.08576 -0.43771,-1.4081 -1.32447,-2.65125 -2.41304,-3.64589 -1.08857,-0.99465 -2.37481,-1.75274 -3.71195,-2.37433 -2.67428,-1.24318 -5.58016,-1.96598 -8.17337,-3.37043 -3.44506,-1.86582 -6.27002,-5.01844 -7.31383,-8.7947 -0.74968,-2.712169 -0.5453,-5.708962 0.72721,-8.218672 1.28098,-2.52643 3.52269,-4.422794 5.10988,-6.768975 0.7936,-1.173091 1.4288,-2.482502 1.62924,-3.884558 0.20044,-1.402055 -0.0701,-2.907116 -0.93226,-4.030772 -0.53798,-0.701139 -1.2795,-1.22655 -2.07526,-1.610973 -0.79576,-0.384423 -1.64858,-0.63545 -2.50273,-0.862275 -7.239,-1.922375 -14.890292,-2.207175 -22.280742,-0.990668 -0.89775,0.147774 -1.80085,0.320046 -2.63527,0.682707 z"
       id="path451-6" /><path
       sodipodi:type="star"
       style="fill:#ffcc00;stroke:#aa8800;stroke-width:1.1792;stroke-linecap:round;stroke-linejoin:round;stroke-miterlimit:10.8;stroke-dasharray:none"
       id="path384"
       inkscape:flatsided="true"
       sodipodi:sides="6"
       sodipodi:cx="37.89991"
       sodipodi:cy="59.966663"
       sodipodi:r1="13.413653"
       sodipodi:r2="10.851874"
       sodipodi:arg1="0.90957035"
       sodipodi:arg2="1.4331691"
       inkscape:rounded="0.16"
       inkscape:randomized="0"
       d="m 46.137032,70.553255 c -1.693855,1.317939 -11.298522,2.648212 -13.286818,1.840261 -1.988297,-0.807951 -7.94268,-8.460701 -8.237122,-10.586591 -0.294442,-2.125891 3.355841,-11.108914 5.049696,-12.426853 1.693855,-1.31794 11.298522,-2.648213 13.286818,-1.840261 1.988296,0.807951 7.94268,8.4607 8.237122,10.586591 0.294442,2.125891 -3.355841,11.108913 -5.049696,12.426853 z"
       inkscape:transform-center-x="0.085467948"
       inkscape:transform-center-y="-0.721009"
       transform="matrix(0.62669472,0,0,0.62669472,73.083108,35.739456)" /><path
       sodipodi:type="star"
       style="fill:#00ff13;fill-opacity:1;stroke:#00aa17;stroke-width:1.1792;stroke-linecap:round;stroke-linejoin:round;stroke-miterlimit:10.8;stroke-dasharray:none;stroke-opacity:1"
       id="path384-5"
       inkscape:flatsided="true"
       sodipodi:sides="6"
       sodipodi:cx="37.89991"
       sodipodi:cy="59.966663"
       sodipodi:r1="13.413653"
       sodipodi:r2="10.851874"
       sodipodi:arg1="0.90957035"
       sodipodi:arg2="1.4331691"
       inkscape:rounded="0.16"
       inkscape:randomized="0"
       d="m 46.137032,70.553255 c -1.693855,1.317939 -11.298522,2.648212 -13.286818,1.840261 -1.988297,-0.807951 -7.94268,-8.460701 -8.237122,-10.586591 -0.294442,-2.125891 3.355841,-11.108914 5.049696,-12.426853 1.693855,-1.31794 11.298522,-2.648213 13.286818,-1.840261 1.988296,0.807951 7.94268,8.4607 8.237122,10.586591 0.294442,2.125891 -3.355841,11.108913 -5.049696,12.426853 z"
       inkscape:transform-center-x="0.085467948"
       inkscape:transform-center-y="-0.721009"
       transform="matrix(0.62669472,0,0,0.62669472,71.885738,190.75343)" /><path
       style="fill:none;stroke:#000000;stroke-width:0.765;stroke-linecap:round;stroke-linejoin:miter;stroke-dasharray:none;stroke-opacity:1;marker-end:url(#TriangleStart-9)"
       d="m 142.21396,186.54199 -35.68677,34.68975"
       id="path1489-6"
       sodipodi:nodetypes="cc" /><path
       style="fill:none;stroke:#000000;stroke-width:0.765;stroke-linecap:round;stroke-linejoin:miter;stroke-dasharray:none;stroke-opacity:1;marker-end:url(#TriangleStart)"
       d="M 27.388468,134.74074 C 19.862756,109.3669 37.303198,79.899461 60.060051,79.908521"
       id="path1489"
       sodipodi:nodetypes="cc" /><path
       style="fill:none;stroke:#000000;stroke-width:0.765;stroke-linecap:round;stroke-linejoin:miter;stroke-dasharray:none;stroke-opacity:1;marker-end:url(#TriangleStart-6)"
       d="m 132.95117,76.76544 c 26.43989,1.18338 48.58618,27.2993 41.13765,48.80265"
       id="path1489-9"
       sodipodi:nodetypes="cc" /><path
       style="fill:none;stroke:#000000;stroke-width:0.765;stroke-linecap:round;stroke-linejoin:miter;stroke-dasharray:none;stroke-opacity:1;marker-end:url(#TriangleStart-1)"
       d="m 142.26598,186.50235 c -18.11128,21.3139 -49.731895,25.15169 -63.444059,6.98988"
       id="path1489-0"
       sodipodi:nodetypes="cc" /><path
       sodipodi:type="star"
       style="fill:#ffcc00;stroke:#aa8800;stroke-width:1.1792;stroke-linecap:round;stroke-linejoin:round;stroke-miterlimit:10.8;stroke-dasharray:none"
       id="path384-0"
       inkscape:flatsided="true"
       sodipodi:sides="6"
       sodipodi:cx="37.89991"
       sodipodi:cy="59.966663"
       sodipodi:r1="13.413653"
       sodipodi:r2="10.851874"
       sodipodi:arg1="0.90957035"
       sodipodi:arg2="1.4331691"
       inkscape:rounded="0.16"
       inkscape:randomized="0"
       d="m 46.137032,70.553255 c -1.693855,1.317939 -11.298522,2.648212 -13.286818,1.840261 -1.988297,-0.807951 -7.94268,-8.460701 -8.237122,-10.586591 -0.294442,-2.125891 3.355841,-11.108914 5.049696,-12.426853 1.693855,-1.31794 11.298522,-2.648213 13.286818,-1.840261 1.988296,0.807951 7.94268,8.4607 8.237122,10.586591 0.294442,2.125891 -3.355841,11.108913 -5.049696,12.426853 z"
       inkscape:transform-center-x="0.085467948"
       inkscape:transform-center-y="-0.721009"
       transform="matrix(0.62669472,0,0,0.62669472,-2.4743333,32.836247)" /><path
       style="fill:none;stroke:#000000;stroke-width:0.765;stroke-linecap:round;stroke-linejoin:miter;stroke-dasharray:none;stroke-opacity:1"
       d="M 32.100965,75.579088 60.52376,79.789043"
       id="path1489-6-6"
       sodipodi:nodetypes="cc" /><text
       xml:space="preserve"
       style="font-style:normal;font-weight:normal;font-size:8.81944px;line-height:1.25;font-family:sans-serif;letter-spacing:0px;word-spacing:0px;fill:#000000;fill-opacity:1;stroke:none;stroke-width:0.264583"
       x="5.4343357"
       y="54.134483"
       id="text2211"><tspan
         sodipodi:role="line"
         id="tspan2209"
         style="font-style:normal;font-variant:normal;font-weight:normal;font-stretch:normal;font-size:8.81944px;font-family:arial;-inkscape-font-specification:arial;stroke-width:0.264583"
         x="5.4343357"
         y="54.134483">Substrat</tspan></text><g
       aria-label="Fixation"
       transform="rotate(-59.067812,-6.9671214,4.2819394)"
       id="text2211-1"
       style="font-size:8.81944px;line-height:1.25;letter-spacing:0px;word-spacing:0px;stroke-width:0.264583"
       inkscape:path-effect="#path-effect2370"
       class="UnoptimicedTransforms"><path
         d="m -82.208215,86.716052 -1.635497,-6.097042 c 1.425189,-0.386446 2.870075,-0.754207 4.334263,-1.087098 l 0.165742,0.727263 c -1.16744,0.265567 -2.324202,0.553622 -3.470081,0.855757 l 0.495905,1.89225 c 0.978146,-0.256671 1.960916,-0.502884 2.948176,-0.733188 l 0.169495,0.726443 c -0.979425,0.228542 -1.955704,0.472959 -2.928702,0.727801 l 0.727473,2.775856 c -0.268775,0.06988 -0.537701,0.140568 -0.806774,0.211958 z"
         style="font-family:arial;-inkscape-font-specification:arial"
         id="path2353"
         inkscape:original-d="M -82.914088,86.795944 V 80.48281 h 4.258997 v 0.745002 h -3.423562 v 1.95509 h 2.962781 v 0.745002 h -2.962781 v 2.86804 z" /><path
         d="m -78.296924,80.177807 -0.187872,-0.872283 c 0.268115,-0.05748 0.536866,-0.113672 0.806251,-0.16849 l 0.178948,0.873901 c -0.2663,0.05428 -0.532077,0.109938 -0.797327,0.166872 z m 1.142662,5.305338 -0.963866,-4.475194 c 0.262524,-0.05642 0.525469,-0.111562 0.788833,-0.165334 l 0.918078,4.483491 c -0.247537,0.05102 -0.495219,0.103398 -0.743045,0.157037 z"
         style="font-family:arial;-inkscape-font-specification:arial"
         id="path2355"
         inkscape:original-d="M -77.664627,81.374228 V 80.48281 h 0.775146 v 0.891418 z m 0,5.421716 v -4.573362 h 0.775146 v 4.573362 z" /><path
         d="m -75.776192,85.1982 c 0.381228,-0.882831 0.780585,-1.76202 1.202139,-2.636488 -0.633456,-0.635172 -1.284768,-1.261187 -1.950682,-1.878741 0.330267,-0.0636 0.661185,-0.124903 0.99275,-0.183716 0.302861,0.309244 0.602157,0.620366 0.89756,0.933429 0.16684,0.178513 0.301585,0.330185 0.403965,0.452899 0.09673,-0.207316 0.188126,-0.391702 0.273379,-0.552869 0.205365,-0.396056 0.415793,-0.79099 0.631678,-1.184695 0.319535,-0.0448 0.639652,-0.08694 0.960344,-0.126263 -0.459994,0.77855 -0.896369,1.562851 -1.31242,2.351996 0.685986,0.710501 1.348795,1.432604 1.984085,2.167236 -0.301521,0.0365 -0.603284,0.07598 -0.905285,0.118264 -0.363013,-0.426968 -0.734403,-0.850225 -1.113393,-1.269925 -0.101098,-0.113367 -0.202741,-0.226481 -0.304915,-0.339345 -0.298938,0.656987 -0.585534,1.316477 -0.861386,1.978067 -0.299054,0.05449 -0.598328,0.111262 -0.897819,0.170151 z"
         style="font-family:arial;-inkscape-font-specification:arial"
         id="path2357"
         inkscape:original-d="m -76.2263,86.795944 1.67087,-2.377114 -1.545985,-2.196248 h 0.968932 l 0.701938,1.072286 q 0.198093,0.305752 0.318671,0.512457 0.18948,-0.28422 0.348816,-0.503845 l 0.77084,-1.080898 h 0.925869 l -1.580437,2.153184 1.701015,2.420178 h -0.951707 l -0.938788,-1.421101 -0.249769,-0.383267 -1.201477,1.804368 z" /><path
         d="m -68.276842,83.699976 c -0.0076,0.0073 -0.01514,0.0146 -0.02269,0.02181 0,0 0,0 0,0 -0.256884,0.243046 -0.502862,0.420403 -0.742632,0.53201 -0.24408,0.114721 -0.508499,0.182682 -0.796068,0.205183 -0.474638,0.03714 -0.850659,-0.0476 -1.133879,-0.263309 -0.282985,-0.218157 -0.44931,-0.514855 -0.492047,-0.893837 -0.02506,-0.222231 0.0011,-0.430031 0.08021,-0.623356 0.08162,-0.196436 0.198216,-0.358866 0.349916,-0.486646 0.154514,-0.128031 0.333028,-0.230268 0.535001,-0.305879 0.148162,-0.05335 0.376609,-0.112333 0.68198,-0.172239 0.625495,-0.121296 1.082633,-0.230914 1.379971,-0.34749 -0.0016,-0.10632 -0.0029,-0.17364 -0.0041,-0.202395 -0.01328,-0.315639 -0.09745,-0.53461 -0.255219,-0.65657 -0.212945,-0.164944 -0.524281,-0.236535 -0.929445,-0.208841 -0.378214,0.02585 -0.65275,0.113574 -0.822172,0.257661 -0.166856,0.141099 -0.277274,0.377228 -0.331426,0.707807 -0.259668,-0.0101 -0.51967,-0.0181 -0.779967,-0.02407 0.03454,-0.329801 0.122577,-0.601662 0.265402,-0.815359 0.142387,-0.216331 0.364572,-0.392875 0.667112,-0.526232 0.302118,-0.136135 0.661645,-0.219939 1.075453,-0.247337 0.410773,-0.0272 0.748515,0.0017 1.009185,0.08203 0.02723,0.0084 0.05371,0.0171 0.07945,0.02613 0,0 0,0 0,0 0.221609,0.07769 0.387899,0.178986 0.49934,0.301799 0.124411,0.134325 0.212309,0.307383 0.264613,0.518787 0.02976,0.131717 0.04803,0.369182 0.05543,0.713945 l 0.02217,1.033489 c 0.01543,0.719502 0.0407,1.177769 0.07445,1.368461 0.03661,0.188836 0.102591,0.36993 0.196674,0.543769 -0.252896,0.0036 -0.505783,0.0099 -0.758586,0.0189 -0.08112,-0.15792 -0.137507,-0.344017 -0.168078,-0.558225 2e-6,-10e-7 3e-6,-10e-7 4e-6,-10e-7 z m -0.134663,-1.727121 c -0.277439,0.12685 -0.690328,0.24316 -1.24346,0.363126 -0.312172,0.06812 -0.531757,0.138902 -0.656735,0.207022 -0.125487,0.0684 -0.218257,0.161831 -0.278352,0.279706 -0.06038,0.115055 -0.08376,0.239697 -0.07095,0.373838 0.01963,0.20552 0.111428,0.369411 0.273092,0.492971 0.164617,0.12345 0.390253,0.172766 0.679023,0.15134 0.28603,-0.02122 0.53561,-0.101463 0.751905,-0.242748 0.216107,-0.144134 0.372426,-0.330678 0.468463,-0.561804 0.07308,-0.178142 0.103372,-0.438415 0.08899,-0.779495 z"
         style="font-family:arial;-inkscape-font-specification:arial"
         id="path2359"
         inkscape:original-d="m -68.315504,86.23181 q -0.430637,0.366041 -0.831129,0.516764 -0.396186,0.150723 -0.852661,0.150723 -0.753614,0 -1.158412,-0.366041 -0.404799,-0.370348 -0.404799,-0.943095 0,-0.335896 0.150723,-0.611504 0.155029,-0.279914 0.400492,-0.447862 0.249769,-0.167948 0.559828,-0.254076 0.228237,-0.06029 0.689019,-0.116271 0.938788,-0.111966 1.382343,-0.266995 0.0043,-0.159336 0.0043,-0.202399 0,-0.473701 -0.219625,-0.667487 -0.297139,-0.262689 -0.882805,-0.262689 -0.546909,0 -0.809597,0.193787 -0.258382,0.18948 -0.383267,0.676099 l -0.75792,-0.103352 q 0.103352,-0.48662 0.340203,-0.783759 0.23685,-0.301446 0.684712,-0.460782 0.447862,-0.163641 1.037834,-0.163641 0.585666,0 0.951708,0.137803 0.366041,0.137804 0.538295,0.348816 0.172255,0.206706 0.241157,0.525377 0.03876,0.198093 0.03876,0.714857 v 1.033528 q 0,1.080898 0.04737,1.369425 0.05168,0.28422 0.198093,0.546908 h -0.809597 q -0.120578,-0.241156 -0.155029,-0.564134 z m -0.0646,-1.731159 q -0.422023,0.172254 -1.266071,0.292832 -0.478007,0.0689 -0.6761,0.15503 -0.198093,0.08613 -0.305752,0.254075 -0.107659,0.163642 -0.107659,0.366042 0,0.310058 0.232543,0.516764 0.236851,0.206705 0.689019,0.206705 0.447862,0 0.796678,-0.193786 0.348816,-0.198093 0.512458,-0.538296 0.124884,-0.262689 0.124884,-0.775146 z" /><path
         d="m -64.831662,83.598064 c 0.02275,0.229951 0.04481,0.459914 0.06617,0.689887 -0.206652,0.03385 -0.389667,0.04783 -0.550579,0.04087 -0.262692,-0.01136 -0.464897,-0.06186 -0.60806,-0.154611 -0.143121,-0.09273 -0.243772,-0.210875 -0.301214,-0.35549 -0.0572,-0.146974 -0.08329,-0.454192 -0.07659,-0.918927 l 0.03794,-2.6319 c -0.197652,-0.0028 -0.395315,-0.0042 -0.592962,-0.004 l -4.77e-4,-0.603086 c 0.200698,-1.93e-4 0.401418,0.0011 0.602132,0.004 l 0.01633,-1.13288 c 0.282216,-0.151077 0.567644,-0.299195 0.856243,-0.444229 l -0.05612,1.597302 c 0.275138,0.0097 0.550202,0.02225 0.825124,0.03774 l -0.03386,0.602154 c -0.270684,-0.01524 -0.541519,-0.02762 -0.812439,-0.03714 l -0.09394,2.673651 c -0.0078,0.220908 -2.61e-4,0.363626 0.0222,0.427558 0.02525,0.06414 0.06595,0.115925 0.122041,0.155519 0.05883,0.0397 0.142837,0.06184 0.252275,0.06697 0.08219,0.0039 0.190473,-8.64e-4 0.325792,-0.01343 0,0 -10e-7,0 -10e-7,0 z"
         style="font-family:arial;-inkscape-font-specification:arial"
         id="path2361"
         inkscape:original-d="m -64.702461,86.102619 0.111965,0.684712 q -0.327284,0.0689 -0.585666,0.0689 -0.422024,0 -0.654567,-0.133497 -0.232544,-0.133497 -0.327284,-0.348816 -0.09474,-0.219624 -0.09474,-0.917256 v -2.63119 h -0.568441 V 82.22258 h 0.568441 v -1.132574 l 0.770839,-0.465088 v 1.597662 h 0.779453 v 0.602892 h -0.779453 v 2.674254 q 0,0.33159 0.03876,0.42633 0.04306,0.09474 0.133497,0.150723 0.09474,0.05598 0.266995,0.05598 0.129191,0 0.340203,-0.03014 z" /><path
         d="m -63.742468,78.930533 0.0685,-0.889023 c 0.285284,0.02209 0.570393,0.04723 0.855261,0.07542 l -0.08732,0.887259 c -0.278578,-0.02753 -0.557411,-0.05207 -0.836435,-0.07366 z m -0.416605,5.407149 0.351418,-4.561074 c 0.273065,0.02109 0.545926,0.04508 0.818518,0.07198 l -0.448002,4.552027 c -0.240322,-0.02351 -0.480989,-0.04448 -0.721934,-0.06293 z"
         style="font-family:arial;-inkscape-font-specification:arial"
         id="path2363"
         inkscape:original-d="M -63.940236,81.374228 V 80.48281 h 0.775146 v 0.891418 z m 0,5.421716 v -4.573362 h 0.775146 v 4.573362 z" /><path
         d="m -62.329675,82.222357 c 0.103691,-0.840973 0.415564,-1.434899 0.964667,-1.76963 0.456297,-0.276544 0.989305,-0.36459 1.581291,-0.254982 0.658344,0.121895 1.152569,0.441448 1.46629,0.937577 0.3156,0.495276 0.372639,1.094846 0.197127,1.799368 -0.141932,0.569726 -0.33988,0.999352 -0.583987,1.287723 -0.241441,0.287023 -0.536731,0.485784 -0.885544,0.600755 -0.346578,0.115669 -0.697789,0.139511 -1.062045,0.0725 -0.583821,-0.107401 -1.025525,-0.381185 -1.340615,-0.839888 -0.310905,-0.45614 -0.431578,-1.067852 -0.337184,-1.833425 z m 0.787022,0.105736 c -0.08442,0.578806 -0.0227,1.032475 0.173548,1.358501 0.197384,0.324344 0.472587,0.516322 0.832983,0.582686 0.357714,0.06587 0.681913,-0.01726 0.982412,-0.252578 0.29934,-0.234407 0.520728,-0.643008 0.652048,-1.227226 0.124028,-0.551774 0.09135,-0.996664 -0.10986,-1.336675 -0.197085,-0.341135 -0.495884,-0.551753 -0.888732,-0.624434 -0.398762,-0.07377 -0.755721,0.01425 -1.061344,0.259617 -0.306621,0.246171 -0.496477,0.660215 -0.581055,1.240109 z"
         style="font-family:arial;-inkscape-font-specification:arial"
         id="path2365"
         inkscape:original-d="m -62.273671,84.509263 q 0,-1.270378 0.706245,-1.881882 0.589972,-0.508151 1.438326,-0.508151 0.943095,0 1.54168,0.620116 0.598585,0.615811 0.598585,1.705322 0,0.882805 -0.266995,1.390956 -0.262688,0.503845 -0.77084,0.783759 -0.503845,0.279914 -1.10243,0.279914 -0.96032,0 -1.554598,-0.61581 -0.589973,-0.615811 -0.589973,-1.774224 z m 0.796678,0 q 0,0.878499 0.383267,1.317749 0.383267,0.434943 0.964626,0.434943 0.577053,0 0.96032,-0.43925 0.383267,-0.439249 0.383267,-1.33928 0,-0.848354 -0.387573,-1.283297 -0.383267,-0.43925 -0.956014,-0.43925 -0.581359,0 -0.964626,0.434943 -0.383267,0.434943 -0.383267,1.313442 z" /><path
         d="m -57.872727,85.428489 1.221793,-4.402283 c 0.237909,0.06604 0.475184,0.134519 0.71178,0.205448 l -0.186586,0.622227 c 0.479174,-0.379728 1.051731,-0.466336 1.692121,-0.24374 0.277648,0.09651 0.514412,0.235805 0.707828,0.415237 0.197327,0.177855 0.322054,0.364965 0.375709,0.558549 0.0537,0.193762 0.06075,0.402032 0.02253,0.624903 -0.02595,0.144604 -0.105989,0.382431 -0.240141,0.71562 l -1.050212,2.60839 c -0.221185,-0.0896 -0.44354,-0.176514 -0.666998,-0.260741 l 0.976749,-2.603363 c 0.11097,-0.295771 0.164865,-0.526345 0.160638,-0.693526 -0.0032,-0.169557 -0.06464,-0.325459 -0.1855,-0.466673 -0.116998,-0.142815 -0.278495,-0.250234 -0.483085,-0.320262 -0.326883,-0.111888 -0.644517,-0.104557 -0.945578,0.02032 -0.299476,0.1263 -0.529321,0.471103 -0.698803,1.031601 l -0.722188,2.388365 c -0.22912,-0.06933 -0.459162,-0.136022 -0.69006,-0.200076 z"
         style="font-family:arial;-inkscape-font-specification:arial"
         id="path2367"
         inkscape:original-d="m -57.080193,86.795944 v -4.573362 h 0.697632 v 0.650262 q 0.503845,-0.753614 1.455552,-0.753614 0.413411,0 0.75792,0.150722 0.348816,0.146417 0.521071,0.387573 0.172254,0.241157 0.241156,0.572747 0.04306,0.215319 0.04306,0.753614 v 2.812058 h -0.775146 v -2.781913 q 0,-0.4737 -0.09043,-0.706244 -0.09043,-0.23685 -0.322977,-0.374654 -0.228238,-0.14211 -0.538296,-0.14211 -0.495232,0 -0.856967,0.314365 -0.357429,0.314364 -0.357429,1.192863 v 2.497693 z" /></g><g
       aria-label="Transformation"
       transform="rotate(52.863782,0.87634497,0.92611875)"
       id="text2211-7"
       style="font-size:8.81944px;line-height:1.25;letter-spacing:0px;word-spacing:0px;stroke-width:0.264583"
       inkscape:path-effect="#path-effect3481"
       class="UnoptimicedTransforms"><path
         d="m 147.82414,-70.466586 -2.35057,-5.066975 c -0.6793,0.317581 -1.3544,0.64004 -2.02512,0.966551 l -0.3232,-0.671089 c 1.61993,-0.791143 3.26675,-1.558537 4.9383,-2.290657 l 0.29943,0.68706 c -0.6937,0.30348 -1.38337,0.613052 -2.06885,0.927878 l 2.3209,5.086906 c -0.26396,0.119349 -0.5276,0.239475 -0.79089,0.360326 z"
         style="font-family:arial;-inkscape-font-specification:arial"
         id="path3452"
         inkscape:original-d="m 146.66925,-69.283897 v -5.568133 h -2.07998 v -0.745002 h 5.004 v 0.745002 h -2.08859 v 5.568133 z" /><path
         d="m 151.00358,-71.88039 -1.82306,-4.22543 c 0.23042,-0.09961 0.46125,-0.198528 0.69247,-0.296725 l 0.27247,0.642496 c 0.0485,-0.375289 0.12783,-0.642433 0.23635,-0.800728 0.1114,-0.159519 0.25778,-0.276924 0.43866,-0.351731 0.26126,-0.108048 0.55936,-0.139444 0.8925,-0.09327 0.001,0.259831 0.003,0.519539 0.006,0.779119 -0.23083,-0.02771 -0.44074,-0.0024 -0.62887,0.07541 -0.16818,0.0696 -0.29914,0.180586 -0.39246,0.332486 -0.0944,0.149238 -0.13441,0.319786 -0.12018,0.511395 0.023,0.29145 0.0992,0.588643 0.22764,0.892057 l 0.9394,2.219536 c -0.24719,0.104292 -0.49414,0.209435 -0.74083,0.315387 z"
         style="font-family:arial;-inkscape-font-specification:arial"
         id="path3454"
         inkscape:original-d="m 150.0153,-69.283897 v -4.573362 h 0.69763 v 0.693325 q 0.26699,-0.48662 0.49092,-0.641649 0.22824,-0.155029 0.49954,-0.155029 0.39188,0 0.79668,0.249769 l -0.26699,0.719163 q -0.28422,-0.167948 -0.56844,-0.167948 -0.25408,0 -0.45648,0.155029 -0.2024,0.150723 -0.28853,0.422024 -0.12919,0.413412 -0.12919,0.904337 v 2.394341 z" /><path
         d="m 156.51385,-74.684578 c -0.19618,0.332618 -0.40453,0.594379 -0.62747,0.785801 -0.22012,0.190353 -0.47625,0.341436 -0.76955,0.454172 -0.48417,0.186101 -0.89984,0.21837 -1.2511,0.09343 -0.35201,-0.127507 -0.60112,-0.368323 -0.74453,-0.725099 -0.0841,-0.209226 -0.11178,-0.419321 -0.0822,-0.630487 0.0313,-0.214948 0.10674,-0.406867 0.22636,-0.575451 0.12243,-0.169679 0.27544,-0.32145 0.45887,-0.454837 0.13545,-0.09601 0.34932,-0.220929 0.64045,-0.371902 0.59513,-0.307051 1.02236,-0.558341 1.28335,-0.76409 -0.0338,-0.101455 -0.0556,-0.165681 -0.0655,-0.192863 -0.10843,-0.298695 -0.25828,-0.482409 -0.45076,-0.550561 -0.26023,-0.09241 -0.58861,-0.06574 -0.98216,0.08249 -0.36746,0.138398 -0.61552,0.303656 -0.74414,0.492858 -0.12685,0.185472 -0.17204,0.446654 -0.13574,0.783269 -0.26383,0.06604 -0.52755,0.133165 -0.79113,0.20134 -0.0531,-0.330677 -0.0376,-0.620079 0.047,-0.868233 0.0835,-0.250717 0.2561,-0.485189 0.51856,-0.701747 0.26134,-0.219196 0.5921,-0.404835 0.9913,-0.554526 0.39625,-0.148584 0.73558,-0.223534 1.01539,-0.226758 0.27993,-0.0032 0.50208,0.0417 0.66629,0.133445 0.16328,0.08905 0.30356,0.226246 0.4212,0.411313 0.0705,0.116092 0.16312,0.337271 0.27843,0.664094 l 0.34581,0.980148 c 0.24097,0.682974 0.40959,1.111164 0.50447,1.282306 0.0969,0.167816 0.22206,0.317991 0.37485,0.450905 -0.26182,0.09211 -0.52344,0.185518 -0.78484,0.280174 -0.13265,-0.123945 -0.24728,-0.283595 -0.34343,-0.47911 7e-5,-2.7e-5 1.5e-4,-5.4e-5 2.2e-4,-8.2e-5 z m -0.65732,-1.614231 c -0.2405,0.21059 -0.62386,0.455397 -1.15056,0.74188 -0.29767,0.16237 -0.50101,0.297 -0.60968,0.401003 -0.10888,0.104215 -0.17788,0.222704 -0.2071,0.355189 -0.0303,0.129795 -0.0204,0.257928 0.0292,0.384408 0.076,0.193772 0.21487,0.325498 0.41568,0.39608 0.2037,0.06953 0.45106,0.04778 0.74357,-0.06395 0.28971,-0.110671 0.52462,-0.268492 0.70596,-0.474756 0.18032,-0.208959 0.28517,-0.439734 0.31405,-0.693277 0.0213,-0.195283 -0.0263,-0.454807 -0.14355,-0.777787 z"
         style="font-family:arial;-inkscape-font-specification:arial"
         id="path3456"
         inkscape:original-d="m 155.94516,-69.848031 q -0.43063,0.366041 -0.83113,0.516764 -0.39618,0.150722 -0.85266,0.150722 -0.75361,0 -1.15841,-0.366041 -0.4048,-0.370347 -0.4048,-0.943094 0,-0.335897 0.15073,-0.611504 0.15503,-0.279914 0.40049,-0.447863 0.24977,-0.167948 0.55983,-0.254075 0.22823,-0.06029 0.68901,-0.116272 0.93879,-0.111966 1.38235,-0.266995 0.004,-0.159335 0.004,-0.202399 0,-0.4737 -0.21962,-0.667487 -0.29714,-0.262688 -0.88281,-0.262688 -0.5469,0 -0.80959,0.193786 -0.25838,0.18948 -0.38327,0.6761 l -0.75792,-0.103353 q 0.10335,-0.48662 0.3402,-0.783759 0.23685,-0.301446 0.68472,-0.460781 0.44786,-0.163642 1.03783,-0.163642 0.58567,0 0.95171,0.137804 0.36604,0.137803 0.53829,0.348815 0.17226,0.206706 0.24116,0.525377 0.0388,0.198093 0.0388,0.714857 v 1.033528 q 0,1.080898 0.0474,1.369425 0.0517,0.28422 0.19809,0.546909 h -0.8096 q -0.12058,-0.241157 -0.15503,-0.564134 z m -0.0646,-1.73116 q -0.42203,0.172255 -1.26607,0.292833 -0.47801,0.0689 -0.6761,0.155029 -0.1981,0.08613 -0.30576,0.254076 -0.10765,0.163642 -0.10765,0.366041 0,0.310058 0.23254,0.516764 0.23685,0.206706 0.68902,0.206706 0.44786,0 0.79668,-0.193787 0.34881,-0.198093 0.51245,-0.538296 0.12489,-0.262688 0.12489,-0.775146 z" /><path
         d="m 158.57048,-74.806435 -1.46609,-4.355242 c 0.23876,-0.08011 0.47787,-0.159179 0.7173,-0.237174 l 0.20294,0.620699 c 0.18628,-0.591283 0.61125,-0.99312 1.26969,-1.193714 0.28577,-0.08706 0.56288,-0.117069 0.8297,-0.09044 0.26902,0.023 0.48521,0.09562 0.6484,0.216411 0.16326,0.120841 0.29838,0.281266 0.40594,0.480928 0.0688,0.130095 0.15179,0.367741 0.24959,0.713701 l 0.76611,2.709826 c -0.25266,0.0723 -0.50518,0.146049 -0.75756,0.221201 l -0.78747,-2.674509 c -0.0894,-0.303709 -0.18662,-0.520819 -0.29246,-0.651696 -0.10657,-0.133526 -0.25269,-0.220871 -0.43856,-0.261309 -0.18367,-0.04408 -0.38221,-0.03366 -0.59459,0.03169 -0.3393,0.104394 -0.60096,0.297317 -0.78272,0.576449 -0.17916,0.278687 -0.17562,0.697195 0.007,1.256598 l 0.77709,2.384755 c -0.2515,0.08267 -0.50283,0.166629 -0.75398,0.251829 z"
         style="font-family:arial;-inkscape-font-specification:arial"
         id="path3458"
         inkscape:original-d="m 157.8658,-69.283897 v -4.573362 h 0.69763 v 0.650261 q 0.50385,-0.753614 1.45556,-0.753614 0.41341,0 0.75792,0.150723 0.34881,0.146416 0.52107,0.387573 0.17225,0.241156 0.24115,0.572747 0.0431,0.215318 0.0431,0.753614 v 2.812058 h -0.77515 v -2.781914 q 0,-0.4737 -0.0904,-0.706244 -0.0904,-0.23685 -0.32298,-0.374654 -0.22824,-0.14211 -0.53829,-0.14211 -0.49524,0 -0.85697,0.314365 -0.35743,0.314365 -0.35743,1.192864 v 2.497693 z" /><path
         d="m 162.69866,-77.500494 c 0.24472,-0.108001 0.49008,-0.214612 0.73609,-0.319788 0.11959,0.286261 0.29672,0.483359 0.53025,0.592792 0.23651,0.108769 0.5281,0.119664 0.87753,0.03559 0.35224,-0.08475 0.59756,-0.214453 0.7375,-0.393173 0.13917,-0.181341 0.18885,-0.366745 0.14697,-0.556933 -0.0376,-0.170543 -0.14349,-0.28796 -0.31897,-0.351174 -0.1213,-0.04259 -0.4089,-0.06832 -0.85927,-0.06969 -0.61043,-0.0023 -1.0358,-0.0189 -1.28811,-0.06167 -0.24764,-0.04589 -0.45348,-0.141535 -0.61754,-0.288215 -0.16182,-0.150186 -0.27231,-0.333175 -0.33012,-0.549609 -0.0526,-0.197009 -0.0539,-0.391368 -0.003,-0.583094 0.0533,-0.19526 0.14937,-0.370346 0.28846,-0.524758 0.10355,-0.11853 0.25632,-0.234642 0.45847,-0.347166 0.20449,-0.116072 0.43258,-0.204359 0.68348,-0.264198 0.37783,-0.09011 0.72151,-0.115724 1.02839,-0.07855 0.31,0.03651 0.5514,0.128257 0.72402,0.272841 0.17217,0.141907 0.31342,0.351951 0.42458,0.629885 -0.25527,0.08853 -0.50986,0.178644 -0.76377,0.270308 -0.0867,-0.221297 -0.23099,-0.377082 -0.43379,-0.466196 -0.19972,-0.08975 -0.45795,-0.09829 -0.77248,-0.02336 -0.37141,0.08848 -0.62198,0.211576 -0.75125,0.365272 -0.1293,0.153728 -0.1737,0.307353 -0.13468,0.460245 0.0248,0.09732 0.0797,0.176594 0.16436,0.238009 0.0854,0.06422 0.2038,0.105244 0.35534,0.123665 0.0906,0.0084 0.3322,0.01324 0.74841,0.02132 0.59335,0.0085 1.0137,0.04021 1.25176,0.08393 0.24242,0.04065 0.44465,0.135187 0.60645,0.282374 0.1619,0.147269 0.26858,0.350071 0.32185,0.607888 0.0521,0.252192 0.0249,0.506194 -0.079,0.762353 -0.10167,0.252826 -0.27887,0.471147 -0.53112,0.656964 -0.25297,0.183093 -0.55407,0.316001 -0.90566,0.400826 -0.58228,0.140481 -1.05552,0.135854 -1.42542,-0.02214 -0.36676,-0.158602 -0.65773,-0.459138 -0.86988,-0.904527 2e-5,-4e-6 3e-5,-8e-6 4e-5,-1.1e-5 z"
         style="font-family:arial;-inkscape-font-specification:arial"
         id="path3460"
         inkscape:original-d="m 162.4607,-70.649016 0.76653,-0.120578 q 0.0646,0.460781 0.35743,0.706244 0.29714,0.245463 0.82682,0.245463 0.53399,0 0.79237,-0.215318 0.25838,-0.219625 0.25838,-0.512458 0,-0.262688 -0.22823,-0.413411 -0.15934,-0.103353 -0.79237,-0.262689 -0.85266,-0.215318 -1.18426,-0.370347 -0.32728,-0.159336 -0.49953,-0.434943 -0.16795,-0.279914 -0.16795,-0.615811 0,-0.305752 0.1378,-0.564134 0.14211,-0.262688 0.38327,-0.434943 0.18087,-0.133497 0.49092,-0.223931 0.31437,-0.09474 0.6718,-0.09474 0.53829,0 0.94309,0.155029 0.40911,0.155029 0.60289,0.422024 0.19379,0.262688 0.267,0.706244 l -0.75792,0.103353 q -0.0517,-0.353122 -0.30145,-0.551215 -0.24546,-0.198093 -0.69763,-0.198093 -0.53399,0 -0.76223,0.176561 -0.22823,0.176561 -0.22823,0.413412 0,0.150722 0.0947,0.271301 0.0947,0.124884 0.29714,0.206705 0.11627,0.04306 0.68471,0.198093 0.82251,0.219625 1.14549,0.361735 0.32729,0.137804 0.51246,0.404799 0.18517,0.266994 0.18517,0.66318 0,0.387573 -0.22823,0.732082 -0.22394,0.340203 -0.65027,0.529684 -0.42633,0.185173 -0.96462,0.185173 -0.89142,0 -1.36081,-0.370347 -0.46509,-0.370348 -0.59428,-1.098124 z" /><path
         d="m 167.86947,-77.300285 -0.72753,-3.885539 c -0.23997,0.04477 -0.47972,0.09095 -0.71925,0.138515 l -0.11738,-0.589029 c 0.2418,-0.04789 0.48386,-0.09439 0.72616,-0.13948 l -0.0892,-0.476211 c -0.0563,-0.300741 -0.0689,-0.529281 -0.037,-0.686385 0.0442,-0.211524 0.15686,-0.396291 0.33898,-0.553223 0.18471,-0.160262 0.46363,-0.272392 0.83562,-0.332776 0.23952,-0.03888 0.50892,-0.05518 0.80698,-0.04776 -0.009,0.2279 -0.0178,0.455788 -0.026,0.683664 -0.17908,-0.0017 -0.34676,0.0101 -0.50266,0.03505 -0.25571,0.04093 -0.42816,0.12069 -0.51686,0.237009 -0.0888,0.116514 -0.10928,0.309767 -0.0624,0.580033 l 0.0718,0.413735 c 0.31617,-0.05451 0.63276,-0.10657 0.94974,-0.156111 l 0.0931,0.592223 c -0.31379,0.04916 -0.62723,0.100825 -0.9403,0.154936 l 0.6751,3.892477 c -0.25303,0.04452 -0.506,0.09082 -0.75888,0.138875 z"
         style="font-family:arial;-inkscape-font-specification:arial"
         id="path3462"
         inkscape:original-d="m 167.36565,-69.283897 v -3.970471 h -0.68471 v -0.602891 h 0.68471 v -0.48662 q 0,-0.460781 0.0818,-0.684712 0.11197,-0.301446 0.39188,-0.48662 0.28422,-0.18948 0.79237,-0.18948 0.32728,0 0.72347,0.07751 l -0.11627,0.676099 q -0.24116,-0.04306 -0.45648,-0.04306 -0.35312,0 -0.49954,0.150723 -0.14641,0.150722 -0.14641,0.564134 v 0.422024 h 0.89142 v 0.602891 h -0.89142 v 3.970471 z" /><path
         d="m 169.47616,-79.882519 c -0.12603,-0.832783 0.0237,-1.486504 0.46969,-1.957946 0.37165,-0.390865 0.8666,-0.624453 1.47535,-0.691518 0.67692,-0.07458 1.25232,0.0807 1.71088,0.455799 0.4596,0.373277 0.70514,0.922685 0.75385,1.6429 0.0394,0.582788 -0.0212,1.049433 -0.17548,1.397356 -0.15193,0.345548 -0.38766,0.623559 -0.70683,0.837867 -0.31634,0.214071 -0.66826,0.341677 -1.06115,0.38534 -0.62997,0.07001 -1.16402,-0.06382 -1.61533,-0.412258 -0.44714,-0.347827 -0.73615,-0.898756 -0.85098,-1.65754 z m 0.81848,-0.118137 c 0.0786,0.576355 0.26849,0.99132 0.56177,1.246041 0.29355,0.25245 0.63042,0.355518 1.01656,0.312659 0.38327,-0.04254 0.68722,-0.218208 0.9178,-0.531405 0.23001,-0.312401 0.32427,-0.765867 0.27453,-1.359299 -0.0469,-0.560072 -0.21636,-0.971895 -0.5164,-1.234176 -0.29663,-0.264835 -0.6514,-0.376473 -1.05772,-0.33166 -0.41245,0.04549 -0.73735,0.230768 -0.96948,0.55111 -0.23263,0.321029 -0.30575,0.769759 -0.22706,1.34673 z"
         style="font-family:arial;-inkscape-font-specification:arial"
         id="path3464"
         inkscape:original-d="m 169.34227,-71.570578 q 0,-1.270379 0.70625,-1.881883 0.58997,-0.508151 1.43832,-0.508151 0.9431,0 1.54168,0.620117 0.59859,0.61581 0.59859,1.705321 0,0.882805 -0.267,1.390957 -0.26269,0.503845 -0.77084,0.783759 -0.50384,0.279913 -1.10243,0.279913 -0.96032,0 -1.5546,-0.61581 -0.58997,-0.615811 -0.58997,-1.774223 z m 0.79668,0 q 0,0.878499 0.38327,1.317748 0.38326,0.434943 0.96462,0.434943 0.57706,0 0.96032,-0.439249 0.38327,-0.43925 0.38327,-1.339281 0,-0.848354 -0.38757,-1.283297 -0.38327,-0.439249 -0.95602,-0.439249 -0.58136,0 -0.96462,0.434943 -0.38327,0.434943 -0.38327,1.313442 z" /><path
         d="m 174.93212,-78.153418 -0.22254,-4.53958 c 0.25156,-0.01253 0.50331,-0.02327 0.75526,-0.03219 l 0.0237,0.688964 c 0.17915,-0.328964 0.35051,-0.546899 0.50974,-0.653692 0.16239,-0.106914 0.3427,-0.162132 0.53949,-0.16503 0.28423,-0.0042 0.57451,0.07676 0.86641,0.243418 -0.0975,0.238585 -0.19361,0.477361 -0.28829,0.716324 -0.20254,-0.111051 -0.40629,-0.165007 -0.60915,-0.162021 -0.18138,0.0027 -0.34341,0.05747 -0.48486,0.163738 -0.14152,0.103422 -0.23975,0.246308 -0.29505,0.427919 -0.0829,0.276798 -0.1178,0.577719 -0.10717,0.903048 l 0.0778,2.379565 c -0.2551,0.0077 -0.51021,0.01751 -0.7653,0.02953 z"
         style="font-family:arial;-inkscape-font-specification:arial"
         id="path3466"
         inkscape:original-d="m 174.52714,-69.283897 v -4.573362 h 0.69763 v 0.693325 q 0.26699,-0.48662 0.49093,-0.641649 0.22823,-0.155029 0.49953,-0.155029 0.39188,0 0.79668,0.249769 l -0.26699,0.719163 q -0.28422,-0.167948 -0.56844,-0.167948 -0.25408,0 -0.45648,0.155029 -0.2024,0.150723 -0.28852,0.422024 -0.1292,0.413412 -0.1292,0.904337 v 2.394341 z" /><path
         d="m 177.84006,-78.19443 0.066,-4.559277 c 0.25156,0.0031 0.5033,0.0081 0.7552,0.01504 l -0.0192,0.640243 c 0.16107,-0.218997 0.3741,-0.391632 0.63938,-0.515908 0.0899,-0.04305 0.1838,-0.07782 0.28169,-0.104237 0.19247,-0.05067 0.40013,-0.06901 0.62158,-0.05438 0.37277,0.02463 0.67218,0.120081 0.89465,0.280885 0.22588,0.161282 0.37297,0.373433 0.44305,0.63408 0.44174,-0.490748 0.99068,-0.697187 1.6231,-0.607715 0.49411,0.06991 0.8536,0.257124 1.07294,0.549866 0.22058,0.290935 0.27981,0.692727 0.18722,1.205825 l -0.55597,3.08119 c -0.24589,-0.04425 -0.49218,-0.08587 -0.73881,-0.124843 l 0.45099,-2.838108 c 0.0486,-0.305652 0.0564,-0.528714 0.0227,-0.670474 -0.0302,-0.143863 -0.10919,-0.267827 -0.23772,-0.371025 -0.12846,-0.103154 -0.28864,-0.168338 -0.47935,-0.19436 -0.34465,-0.04703 -0.64527,0.02495 -0.89594,0.212642 -0.25105,0.185366 -0.39747,0.512658 -0.44644,0.980436 l -0.27618,2.638175 c -0.24953,-0.02561 -0.4993,-0.04846 -0.74928,-0.06851 l 0.24497,-2.957931 c 0.0284,-0.343133 -0.0169,-0.605576 -0.13927,-0.788007 -0.12209,-0.181964 -0.33957,-0.28502 -0.65035,-0.303866 -0.1466,-0.0089 -0.28799,0.0055 -0.42347,0.04317 -0.0824,0.02317 -0.16257,0.0549 -0.24045,0.09514 -0.20241,0.106297 -0.35146,0.26897 -0.44755,0.486563 -0.0962,0.217921 -0.14979,0.533946 -0.16303,0.949647 l -0.0754,2.367857 c -0.25498,-0.0097 -0.50999,-0.01708 -0.76503,-0.02211 z"
         style="font-family:arial;-inkscape-font-specification:arial"
         id="path3468"
         inkscape:original-d="m 177.47269,-69.283897 v -4.573362 h 0.69333 v 0.641648 q 0.21532,-0.335896 0.57275,-0.538295 0.35742,-0.206706 0.8139,-0.206706 0.50815,0 0.83113,0.211012 0.32728,0.211012 0.46078,0.589972 0.5426,-0.800984 1.41249,-0.800984 0.6804,0 1.04645,0.37896 0.36604,0.374654 0.36604,1.158413 v 3.139342 h -0.77084 v -2.88096 q 0,-0.465088 -0.0775,-0.667487 -0.0732,-0.206706 -0.2713,-0.33159 -0.19809,-0.124885 -0.46509,-0.124885 -0.48231,0 -0.80098,0.322978 -0.31867,0.318671 -0.31867,1.024915 v 2.657029 h -0.77515 v -2.971394 q 0,-0.516764 -0.18948,-0.775146 -0.18948,-0.258382 -0.62012,-0.258382 -0.32728,0 -0.60719,0.172255 -0.27561,0.172255 -0.4005,0.503845 -0.12488,0.33159 -0.12488,0.956013 v 2.372809 z" /><path
         d="m 187.92508,-77.235423 c -0.34187,0.152489 -0.64928,0.243658 -0.92723,0.271577 -0.27516,0.02865 -0.55459,0.0069 -0.84152,-0.06462 -0.47346,-0.118066 -0.81111,-0.31784 -1.01842,-0.611997 -0.20647,-0.296637 -0.27573,-0.630146 -0.19918,-1.003153 0.0449,-0.218774 0.13527,-0.407755 0.27336,-0.566118 0.14151,-0.160517 0.30697,-0.277509 0.49626,-0.350124 0.19214,-0.07195 0.39995,-0.111425 0.62247,-0.117686 0.16249,-0.0026 0.40589,0.01567 0.725,0.05891 0.65447,0.0901 1.13614,0.138403 1.46673,0.127188 0.0326,-0.100938 0.053,-0.164958 0.0611,-0.192506 0.089,-0.302319 0.0773,-0.537078 -0.0383,-0.70473 -0.15581,-0.226513 -0.43889,-0.397865 -0.84698,-0.505338 -0.38098,-0.100336 -0.68025,-0.107081 -0.89354,-0.02591 -0.20983,0.0792 -0.39403,0.266998 -0.55244,0.56262 -0.25269,-0.0934 -0.50665,-0.184332 -0.76186,-0.272751 0.13774,-0.301845 0.31046,-0.531517 0.51958,-0.688211 0.20947,-0.159295 0.48582,-0.254907 0.82796,-0.282567 0.34273,-0.03044 0.72509,0.0083 1.14214,0.119408 0.41384,0.110241 0.73691,0.250375 0.96693,0.413187 0.23027,0.162989 0.38353,0.331358 0.46111,0.502057 0.0785,0.168159 0.10884,0.360795 0.092,0.577795 -0.0132,0.134258 -0.0718,0.364597 -0.17565,0.692569 l -0.31125,0.983207 c -0.21671,0.684568 -0.33948,1.125557 -0.36765,1.316986 -0.0247,0.19056 -0.018,0.383649 0.0189,0.579362 -0.2508,-0.0814 -0.50234,-0.16015 -0.75459,-0.236202 -0.0289,-0.176178 -0.0243,-0.370644 0.0149,-0.583023 7e-5,2.2e-5 1.5e-4,4.5e-5 2.3e-4,6.7e-5 z m 0.42639,-1.674921 c -0.31374,0.02773 -0.75485,7.05e-4 -1.3363,-0.06682 -0.32784,-0.03766 -0.56575,-0.04181 -0.70985,-0.01775 -0.14474,0.02416 -0.26529,0.08278 -0.36149,0.175116 -0.0956,0.08955 -0.1579,0.200183 -0.18785,0.33137 -0.0459,0.200986 -0.008,0.385651 0.11017,0.554532 0.12127,0.169778 0.3253,0.289032 0.61382,0.362462 0.28581,0.07274 0.55529,0.07844 0.81236,0.0159 0.25766,-0.06526 0.47108,-0.18988 0.63986,-0.376385 0.12916,-0.144047 0.24301,-0.3797 0.3392,-0.70642 z"
         style="font-family:arial;-inkscape-font-specification:arial"
         id="path3470"
         inkscape:original-d="m 187.80367,-69.848031 q -0.43064,0.366041 -0.83113,0.516764 -0.39619,0.150722 -0.85266,0.150722 -0.75362,0 -1.15842,-0.366041 -0.40479,-0.370347 -0.40479,-0.943094 0,-0.335897 0.15072,-0.611504 0.15503,-0.279914 0.40049,-0.447863 0.24977,-0.167948 0.55983,-0.254075 0.22824,-0.06029 0.68902,-0.116272 0.93879,-0.111966 1.38234,-0.266995 0.004,-0.159335 0.004,-0.202399 0,-0.4737 -0.21963,-0.667487 -0.29714,-0.262688 -0.8828,-0.262688 -0.54691,0 -0.8096,0.193786 -0.25838,0.18948 -0.38327,0.6761 l -0.75792,-0.103353 q 0.10336,-0.48662 0.34021,-0.783759 0.23685,-0.301446 0.68471,-0.460781 0.44786,-0.163642 1.03783,-0.163642 0.58567,0 0.95171,0.137804 0.36604,0.137803 0.5383,0.348815 0.17225,0.206706 0.24115,0.525377 0.0388,0.198093 0.0388,0.714857 v 1.033528 q 0,1.080898 0.0474,1.369425 0.0517,0.28422 0.19809,0.546909 h -0.80959 q -0.12058,-0.241157 -0.15503,-0.564134 z m -0.0646,-1.73116 q -0.42202,0.172255 -1.26607,0.292833 -0.47801,0.0689 -0.6761,0.155029 -0.19809,0.08613 -0.30575,0.254076 -0.10766,0.163642 -0.10766,0.366041 0,0.310058 0.23254,0.516764 0.23685,0.206706 0.68902,0.206706 0.44786,0 0.79668,-0.193787 0.34882,-0.198093 0.51246,-0.538296 0.12488,-0.262688 0.12488,-0.775146 z" /><path
         d="m 191.35744,-76.176275 c -0.0501,0.225513 -0.10076,0.450846 -0.15206,0.675995 -0.21544,-0.0376 -0.40118,-0.08609 -0.5583,-0.146931 -0.25651,-0.09933 -0.44054,-0.215245 -0.55257,-0.35118 -0.11199,-0.135892 -0.17373,-0.281449 -0.18428,-0.437479 -0.01,-0.158215 0.0629,-0.457305 0.21805,-0.894431 l 0.87846,-2.475332 c -0.19272,-0.06834 -0.38593,-0.135285 -0.5796,-0.200817 l 0.19299,-0.569938 c 0.19645,0.06643 0.39242,0.134298 0.58789,0.203576 l 0.37813,-1.065487 c 0.32384,-0.04951 0.64959,-0.09539 0.97716,-0.137578 l -0.56286,1.492676 c 0.26613,0.100224 0.53129,0.203077 0.79542,0.308525 l -0.22351,0.559131 c -0.26045,-0.104035 -0.52191,-0.205507 -0.78432,-0.304383 l -0.94215,2.49852 c -0.0778,0.206447 -0.11581,0.343987 -0.11398,0.412027 0.005,0.06918 0.0283,0.131863 0.0712,0.188174 0.0455,0.05733 0.12148,0.106527 0.22805,0.148172 0.08,0.03127 0.18854,0.0632 0.3263,0.09676 0,10e-7 0,3e-6 1e-5,4e-6 z"
         style="font-family:arial;-inkscape-font-specification:arial"
         id="path3472"
         inkscape:original-d="m 191.41671,-69.977223 0.11197,0.684713 q -0.32729,0.0689 -0.58567,0.0689 -0.42202,0 -0.65457,-0.133498 -0.23254,-0.133497 -0.32728,-0.348815 -0.0947,-0.219625 -0.0947,-0.917257 v -2.63119 h -0.56844 v -0.602891 h 0.56844 v -1.132575 l 0.77084,-0.465088 v 1.597663 h 0.77945 v 0.602891 h -0.77945 v 2.674254 q 0,0.33159 0.0387,0.42633 0.0431,0.09474 0.1335,0.150723 0.0947,0.05598 0.267,0.05598 0.12919,0 0.3402,-0.03014 z" /><path
         d="m 193.8973,-80.238743 0.34631,-0.820453 c 0.27105,0.114114 0.54097,0.230854 0.80972,0.350189 l -0.3622,0.813804 c -0.26349,-0.117071 -0.52811,-0.231595 -0.79383,-0.34354 z m -2.10626,4.990102 1.77669,-4.209283 c 0.26063,0.10988 0.52021,0.222295 0.77869,0.337211 l -1.85827,4.175168 c -0.23147,-0.103303 -0.46385,-0.204346 -0.69711,-0.303096 z"
         style="font-family:arial;-inkscape-font-specification:arial"
         id="path3474"
         inkscape:original-d="m 192.17894,-74.705614 v -0.891418 h 0.77514 v 0.891418 z m 0,5.421717 v -4.573362 h 0.77514 v 4.573362 z" /><path
         d="m 194.25838,-76.647297 c 0.36139,-0.765873 0.85196,-1.228204 1.49287,-1.368312 0.53242,-0.114964 1.081,-0.02686 1.62811,0.267351 0.60841,0.327183 0.99777,0.789197 1.16062,1.364267 0.16484,0.574438 0.048,1.169169 -0.32938,1.790413 -0.30534,0.502664 -0.62558,0.852142 -0.95272,1.050349 -0.32392,0.197681 -0.67658,0.292125 -1.0597,0.287456 -0.38072,-0.0033 -0.73972,-0.09719 -1.08414,-0.282829 -0.5521,-0.297577 -0.91042,-0.707619 -1.08382,-1.250201 -0.17012,-0.539078 -0.10092,-1.161088 0.22816,-1.858494 z m 0.74461,0.360576 c -0.26001,0.524049 -0.3373,0.976806 -0.24098,1.353399 0.0979,0.375173 0.31441,0.650418 0.65407,0.833433 0.33715,0.181663 0.6856,0.209088 1.05421,0.08177 0.36747,-0.126926 0.70651,-0.447242 1.00785,-0.965708 0.28446,-0.489422 0.38258,-0.926928 0.28509,-1.316777 -0.0931,-0.389825 -0.32388,-0.68673 -0.68795,-0.882569 -0.36955,-0.198781 -0.74657,-0.23024 -1.12178,-0.09571 -0.37627,0.134907 -0.6901,0.467298 -0.95051,0.992165 z"
         style="font-family:arial;-inkscape-font-specification:arial"
         id="path3476"
         inkscape:original-d="m 193.8455,-71.570578 q 0,-1.270379 0.70625,-1.881883 0.58997,-0.508151 1.43832,-0.508151 0.9431,0 1.54168,0.620117 0.59859,0.61581 0.59859,1.705321 0,0.882805 -0.267,1.390957 -0.26269,0.503845 -0.77084,0.783759 -0.50384,0.279913 -1.10243,0.279913 -0.96032,0 -1.5546,-0.61581 -0.58997,-0.615811 -0.58997,-1.774223 z m 0.79668,0 q 0,0.878499 0.38327,1.317748 0.38326,0.434943 0.96462,0.434943 0.57706,0 0.96032,-0.439249 0.38327,-0.43925 0.38327,-1.339281 0,-0.848354 -0.38757,-1.283297 -0.38327,-0.439249 -0.95602,-0.439249 -0.58136,0 -0.96462,0.434943 -0.38327,0.434943 -0.38327,1.313442 z" /><path
         d="m 197.7484,-72.110462 2.46105,-3.857095 c 0.2147,0.13698 0.42822,0.275781 0.64055,0.416378 l -0.35914,0.542424 c 0.57929,-0.218753 1.16481,-0.128643 1.73233,0.27672 0.24614,0.175817 0.44069,0.380268 0.58247,0.610689 0.14604,0.230024 0.21891,0.447615 0.2205,0.650901 0.002,0.203443 -0.0462,0.407553 -0.14226,0.612676 -0.0634,0.132702 -0.2047,0.340356 -0.42429,0.624533 l -1.71944,2.225217 c -0.20129,-0.155291 -0.40406,-0.308732 -0.60825,-0.460289 l 1.65971,-2.233247 c 0.18853,-0.253669 0.30326,-0.461311 0.34377,-0.624493 0.0421,-0.16525 0.0233,-0.334502 -0.0577,-0.50719 -0.0768,-0.173104 -0.20669,-0.325198 -0.3891,-0.454378 -0.29143,-0.206383 -0.60616,-0.295609 -0.93807,-0.267244 -0.33045,0.0302 -0.65477,0.291698 -0.97936,0.779944 l -1.3834,2.080882 c -0.21183,-0.140794 -0.42496,-0.279614 -0.63935,-0.416428 z"
         style="font-family:arial;-inkscape-font-specification:arial"
         id="path3478"
         inkscape:original-d="m 199.03898,-69.283897 v -4.573362 h 0.69763 v 0.650261 q 0.50384,-0.753614 1.45555,-0.753614 0.41341,0 0.75792,0.150723 0.34882,0.146416 0.52107,0.387573 0.17226,0.241156 0.24116,0.572747 0.0431,0.215318 0.0431,0.753614 v 2.812058 h -0.77514 v -2.781914 q 0,-0.4737 -0.0904,-0.706244 -0.0904,-0.23685 -0.32297,-0.374654 -0.22824,-0.14211 -0.5383,-0.14211 -0.49523,0 -0.85697,0.314365 -0.35743,0.314365 -0.35743,1.192864 v 2.497693 z" /></g><g
       aria-label="Retour  l'tat initial"
       id="text2211-2"
       style="font-size:8.11389px;line-height:1.25;letter-spacing:0px;word-spacing:0px;stroke-width:0.264583"
       inkscape:path-effect="#path-effect4556"
       class="UnoptimicedTransforms"
       transform="translate(-2.1888386,-2.5472616)"><path
         d="m 80.088955,189.77495 4.215673,-3.99461 c 0.533031,0.5597 1.080194,1.10495 1.641067,1.63333 0.338473,0.31886 0.563875,0.59332 0.674341,0.83418 0.111918,0.23821 0.136918,0.50426 0.07473,0.80024 -0.06215,0.29583 -0.195267,0.5665 -0.40331,0.8094 -0.268272,0.31323 -0.58965,0.49645 -0.967915,0.54174 -0.377874,0.0452 -0.796908,-0.0838 -1.245786,-0.39436 0.07834,0.20574 0.124611,0.378 0.137192,0.51788 0.02404,0.29985 0.0084,0.63125 -0.04579,0.99526 -0.0966,0.61714 -0.181086,1.23952 -0.252789,1.86685 -0.255273,-0.21334 -0.507878,-0.42953 -0.757794,-0.64845 0.06709,-0.47723 0.14137,-0.95145 0.222524,-1.42252 0.06847,-0.4112 0.115521,-0.72791 0.137367,-0.96237 0.0217,-0.23288 0.01778,-0.41447 -0.01344,-0.54622 -0.02934,-0.12988 -0.0753,-0.24515 -0.138207,-0.34617 -0.04824,-0.0722 -0.14104,-0.17465 -0.278292,-0.30948 -0.205642,-0.202 -0.409249,-0.406 -0.610802,-0.61187 l -1.843496,1.80537 c -0.183511,-0.18798 -0.365273,-0.3774 -0.545273,-0.5682 z m 2.86453,-1.7031 c 0.368145,0.37576 0.743077,0.74508 1.124686,1.10735 0.243339,0.231 0.46102,0.3831 0.648278,0.45772 0.189328,0.0728 0.373613,0.0821 0.551923,0.0288 0.18013,-0.0552 0.332023,-0.15374 0.456759,-0.29402 0.182722,-0.20548 0.263076,-0.43615 0.24501,-0.69101 -0.01628,-0.25352 -0.168261,-0.51075 -0.454146,-0.77975 -0.407047,-0.383 -0.806793,-0.77467 -1.199084,-1.17413 z"
         style="font-family:arial;-inkscape-font-specification:arial"
         id="path4515"
         inkscape:original-d="m 75.985684,187.2137 v -5.80809 h 2.575209 q 0.776524,0 1.180634,0.15848 0.40411,0.15451 0.645783,0.5507 0.241674,0.39618 0.241674,0.87557 0,0.61805 -0.400148,1.04197 -0.400148,0.42391 -1.236101,0.53881 0.305064,0.14659 0.463538,0.28921 0.336758,0.30903 0.63786,0.77257 l 1.010274,1.58078 h -0.966694 l -0.768601,-1.20837 q -0.336758,-0.52296 -0.55466,-0.80029 -0.217903,-0.27733 -0.392224,-0.38827 -0.17036,-0.11093 -0.348644,-0.15451 -0.130741,-0.0277 -0.427881,-0.0277 h -0.891419 v 2.57917 z m 0.7686,-3.24476 h 1.652096 q 0.526928,0 0.824067,-0.10697 0.29714,-0.11094 0.451652,-0.34865 0.154513,-0.24167 0.154513,-0.52296 0,-0.41204 -0.301102,-0.67748 -0.297139,-0.26545 -0.942922,-0.26545 h -1.838304 z" /><path
         d="m 87.582944,194.48392 c 0.184604,0.16556 0.371088,0.32953 0.559462,0.49187 -0.336338,0.29277 -0.705128,0.4473 -1.107421,0.45811 -0.401544,0.0108 -0.812729,-0.13371 -1.220892,-0.43535 -0.514341,-0.38011 -0.798663,-0.84329 -0.851871,-1.36872 -0.04962,-0.52759 0.151001,-1.05177 0.585522,-1.58115 0.449023,-0.54705 0.935922,-0.85948 1.446891,-0.95027 0.512833,-0.0911 0.975959,0.0241 1.407588,0.34497 0.417862,0.31063 0.652943,0.71029 0.711843,1.2159 0.05867,0.50362 -0.0962,1.04878 -0.48127,1.6253 -0.02344,0.0351 -0.05974,0.0871 -0.108823,0.15582 -0.858914,-0.57342 -1.693537,-1.18232 -2.503104,-1.82234 -0.266583,0.37897 -0.3839,0.73724 -0.346089,1.0778 0.03774,0.33988 0.20231,0.62017 0.491552,0.83398 0.215221,0.15909 0.441214,0.23747 0.67433,0.23511 0.233343,-0.002 0.481023,-0.0962 0.742268,-0.28108 5e-6,2e-5 10e-6,3e-5 1.4e-5,5e-5 z m -1.167881,-2.30197 c 0.597636,0.47174 1.208839,0.92608 1.833289,1.3612 0.176887,-0.30761 0.258097,-0.57493 0.245433,-0.80025 -0.01779,-0.34907 -0.16184,-0.62137 -0.435082,-0.82429 -0.247396,-0.18373 -0.519589,-0.25406 -0.822603,-0.21142 -0.300559,0.0441 -0.575368,0.2009 -0.821037,0.47476 z"
         style="font-family:arial;-inkscape-font-specification:arial"
         id="path4517"
         inkscape:original-d="m 84.622539,185.85874 0.736906,0.0911 q -0.174322,0.64578 -0.645784,1.00235 -0.471461,0.35656 -1.204405,0.35656 -0.923114,0 -1.465888,-0.56654 -0.538813,-0.57051 -0.538813,-1.59663 0,-1.06178 0.546736,-1.64814 0.546737,-0.58635 1.418346,-0.58635 0.843877,0 1.378728,0.57447 0.534851,0.57447 0.534851,1.61644 0,0.0634 -0.004,0.19017 h -3.137793 q 0.03962,0.69332 0.392224,1.06178 0.352605,0.36845 0.879533,0.36845 0.392224,0 0.669554,-0.20602 0.27733,-0.20601 0.439767,-0.65767 z m -2.34146,-1.1529 h 2.349383 q -0.04754,-0.53089 -0.269406,-0.79633 -0.34072,-0.41204 -0.883495,-0.41204 -0.491271,0 -0.828029,0.32884 -0.332796,0.32883 -0.368453,0.87953 z" /><path
         d="m 89.925539,196.81931 c -0.07412,0.19933 -0.147682,0.39893 -0.220686,0.59879 -0.202611,-0.0673 -0.375385,-0.14374 -0.517642,-0.22793 -0.232415,-0.13755 -0.390225,-0.28171 -0.473589,-0.42881 -0.08346,-0.14726 -0.114987,-0.29295 -0.0957,-0.43646 0.02075,-0.1462 0.145159,-0.39904 0.373062,-0.76107 l 1.288224,-2.04638 c -0.138739,-0.0874 -0.27688,-0.17576 -0.414418,-0.26513 l 0.301832,-0.46472 c 0.135341,0.088 0.271262,0.17497 0.40776,0.26095 l 0.554505,-0.88084 c 0.25529,-0.008 0.509219,-0.0183 0.761683,-0.0324 l -0.75772,1.25747 c 0.189303,0.1141 0.37968,0.22626 0.571123,0.33641 l -0.276337,0.48016 c -0.194684,-0.11203 -0.388259,-0.22607 -0.580718,-0.34206 l -1.268315,2.10483 c -0.104883,0.17405 -0.161899,0.29197 -0.171049,0.35428 -0.0068,0.0636 0.0053,0.12475 0.03645,0.18326 0.03349,0.0599 0.09691,0.11755 0.190298,0.17239 0.06995,0.0411 0.167166,0.0872 0.291223,0.13734 6e-6,-10e-6 1.2e-5,-2e-5 1.7e-5,-4e-5 z"
         style="font-family:arial;-inkscape-font-specification:arial"
         id="path4519"
         inkscape:original-d="m 87.811837,186.57584 0.103008,0.62994 q -0.301101,0.0634 -0.538813,0.0634 -0.388262,0 -0.602203,-0.12282 -0.21394,-0.12282 -0.301101,-0.32091 -0.08716,-0.20206 -0.08716,-0.84388 v -2.4207 h -0.522966 v -0.55466 h 0.522966 v -1.04197 l 0.709173,-0.42788 v 1.46985 h 0.717097 v 0.55466 H 87.09474 v 2.46032 q 0,0.30506 0.03566,0.39222 0.03962,0.0872 0.122817,0.13867 0.08716,0.0515 0.245636,0.0515 0.118856,0 0.312987,-0.0277 z" /><path
         d="m 91.025257,195.75995 c 0.379511,-0.67855 0.845558,-1.07912 1.376702,-1.21813 0.445176,-0.11527 0.874819,-0.0678 1.305238,0.14067 0.08676,0.042 0.168126,0.0879 0.2442,0.13766 0.342461,0.22514 0.578472,0.53172 0.713066,0.92933 0.164793,0.4813 0.131132,1.03363 -0.12335,1.65056 -0.206652,0.50097 -0.443774,0.86328 -0.720073,1.08586 -0.272052,0.22061 -0.592692,0.34521 -0.96106,0.36867 -0.262378,0.0176 -0.52244,-0.0147 -0.777457,-0.097 -0.09982,-0.0325 -0.198792,-0.0727 -0.296702,-0.12056 -0.55697,-0.27212 -0.914576,-0.67419 -1.066188,-1.18448 -0.149821,-0.51108 -0.04102,-1.07275 0.305624,-1.69254 z m 0.63302,0.34552 c -0.25298,0.47562 -0.339617,0.88627 -0.250581,1.2368 0.08997,0.34711 0.302781,0.60563 0.634306,0.76744 0.09917,0.0484 0.198924,0.0829 0.298906,0.10345 0.232397,0.0473 0.465523,0.0197 0.696355,-0.0824 0.331558,-0.14665 0.603279,-0.47508 0.825506,-0.98081 0.209059,-0.47578 0.261017,-0.88356 0.165802,-1.21856 -0.06415,-0.23494 -0.176337,-0.42125 -0.338256,-0.56122 -0.07076,-0.061 -0.151032,-0.11322 -0.241034,-0.15688 -0.300513,-0.14575 -0.606837,-0.15203 -0.927769,-0.0181 -0.319836,0.13349 -0.610713,0.43548 -0.863235,0.91024 z"
         style="font-family:arial;-inkscape-font-specification:arial"
         id="path4521"
         inkscape:original-d="m 88.243679,185.10995 q 0,-1.16875 0.649745,-1.73133 0.542775,-0.4675 1.323262,-0.4675 0.867647,0 1.418346,0.57051 0.550698,0.56654 0.550698,1.56889 0,0.81219 -0.245635,1.27968 -0.241674,0.46354 -0.709173,0.72106 -0.463538,0.25752 -1.014236,0.25752 -0.883495,0 -1.430232,-0.56654 -0.542775,-0.56655 -0.542775,-1.63229 z m 0.732944,0 q 0,0.80822 0.352606,1.21233 0.352605,0.40015 0.887457,0.40015 0.530889,0 0.883494,-0.40411 0.352606,-0.40411 0.352606,-1.23214 0,-0.78049 -0.356567,-1.18063 -0.352606,-0.40411 -0.879533,-0.40411 -0.534852,0 -0.887457,0.40014 -0.352606,0.40015 -0.352606,1.20837 z" /><path
         d="m 97.278571,200.64302 0.171393,-0.59359 c -0.455929,0.36267 -0.976844,0.45524 -1.53996,0.26751 -0.248077,-0.0827 -0.464272,-0.208 -0.646274,-0.37393 -0.179403,-0.16501 -0.294783,-0.33464 -0.347585,-0.50651 -0.04936,-0.17356 -0.0565,-0.36544 -0.02249,-0.57577 0.02218,-0.14158 0.08771,-0.35344 0.196437,-0.63721 l 0.932357,-2.43345 c 0.204518,0.0784 0.409916,0.15451 0.616143,0.22838 l -0.786601,2.196 c -0.125652,0.35079 -0.196341,0.59116 -0.212038,0.72328 -0.02,0.19189 0.02223,0.36395 0.128076,0.51525 0.106684,0.14876 0.265871,0.25889 0.476145,0.32798 0.210226,0.0691 0.424954,0.0804 0.641275,0.0338 0.217197,-0.0491 0.38937,-0.15367 0.517014,-0.31142 0.131228,-0.15984 0.245657,-0.41189 0.346148,-0.75696 l 0.630089,-2.16362 c 0.21043,0.0613 0.421541,0.12026 0.633282,0.17697 l -1.088457,4.06288 c -0.215538,-0.0578 -0.430535,-0.11764 -0.644956,-0.17958 z"
         style="font-family:arial;-inkscape-font-specification:arial"
         id="path4523"
         inkscape:original-d="m 95.779137,187.2137 v -0.61805 q -0.49127,0.71313 -1.335146,0.71313 -0.372415,0 -0.697288,-0.14262 -0.32091,-0.14263 -0.479385,-0.35657 -0.154512,-0.2179 -0.217902,-0.53089 -0.04358,-0.20998 -0.04358,-0.66559 v -2.60691 h 0.713135 v 2.33354 q 0,0.55862 0.04358,0.75275 0.06735,0.28129 0.285254,0.44373 0.217902,0.15848 0.538813,0.15848 0.32091,0 0.602202,-0.16244 0.281292,-0.1664 0.396186,-0.44769 0.118856,-0.28525 0.118856,-0.82407 v -2.2543 h 0.713135 v 4.2075 z" /><path
         d="m 99.052771,201.1051 0.951699,-4.09734 c 0.19222,0.0446 0.38487,0.0874 0.57793,0.1283 l -0.13223,0.62386 c 0.21279,-0.26002 0.38812,-0.42494 0.53117,-0.49364 0.14534,-0.0682 0.29235,-0.0884 0.44285,-0.0608 0.21746,0.0399 0.42502,0.15337 0.62787,0.34112 -0.10992,0.20568 -0.22139,0.41082 -0.33443,0.61541 -0.14562,-0.12896 -0.29796,-0.20812 -0.45942,-0.23792 -0.14431,-0.0266 -0.28249,-0.005 -0.41615,0.0656 -0.13307,0.0679 -0.24139,0.17782 -0.32449,0.33053 -0.1254,0.23285 -0.22042,0.49642 -0.28219,0.79094 l -0.452045,2.15542 c -0.244079,-0.0512 -0.487618,-0.10508 -0.730564,-0.16155 z"
         style="font-family:arial;-inkscape-font-specification:arial"
         id="path4525"
         inkscape:original-d="m 97.526317,187.2137 v -4.2075 h 0.641821 v 0.63786 q 0.245636,-0.44769 0.451652,-0.59031 0.209979,-0.14263 0.459576,-0.14263 0.36053,0 0.732944,0.22979 l -0.245635,0.66163 q -0.261483,-0.15451 -0.522965,-0.15451 -0.23375,0 -0.419958,0.14262 -0.186207,0.13867 -0.265444,0.38826 -0.118856,0.38034 -0.118856,0.832 v 2.20279 z" /><path
         d="m 107.07149,201.49039 c -0.01,0.008 -0.0194,0.0161 -0.0292,0.0241 0,0 0,0 0,0 -0.26223,0.21271 -0.52063,0.361 -0.77057,0.44534 -0.25648,0.0875 -0.53348,0.12565 -0.8279,0.11302 -0.48627,-0.0209 -0.85336,-0.15889 -1.09425,-0.40185 -0.2413,-0.24621 -0.34236,-0.54573 -0.31213,-0.89562 0.0177,-0.20522 0.0806,-0.38801 0.18644,-0.54884 0.10872,-0.16329 0.24079,-0.29067 0.39618,-0.38286 0.15806,-0.092 0.33115,-0.15888 0.52005,-0.20131 0.13986,-0.0295 0.34628,-0.0541 0.62416,-0.0785 0.56265,-0.0481 0.97936,-0.12949 1.24095,-0.22451 0.002,-0.0977 0.003,-0.15989 0.003,-0.18622 -7e-4,-0.29038 -0.0658,-0.49513 -0.19235,-0.61421 -0.17174,-0.16193 -0.42385,-0.24434 -0.76033,-0.25387 -0.31433,-0.009 -0.549,0.0394 -0.70675,0.15042 -0.15493,0.10832 -0.27834,0.30891 -0.37015,0.60215 -0.22114,-0.0454 -0.44147,-0.093 -0.66095,-0.14299 0.0851,-0.29227 0.2029,-0.52415 0.3518,-0.69579 0.14929,-0.1745 0.35327,-0.30196 0.61198,-0.3858 0.25905,-0.0866 0.55281,-0.12393 0.88549,-0.11555 0.33035,0.008 0.59754,0.0521 0.80518,0.13639 0.0198,0.008 0.0391,0.0163 0.058,0.0247 0,0 0,0 0,0 0.17876,0.0801 0.31397,0.17706 0.40507,0.29275 0.10062,0.1252 0.17352,0.28486 0.21785,0.47921 0.0252,0.12062 0.0417,0.33989 0.0489,0.65625 l 0.0218,0.94986 c 0.0152,0.66315 0.0394,1.08055 0.0738,1.25741 0.0368,0.17327 0.10384,0.33913 0.20221,0.49704 -0.25882,0.008 -0.51798,0.0138 -0.77748,0.0168 -0.0785,-0.14706 -0.12861,-0.31958 -0.15119,-0.51757 -4e-5,0 -7e-5,10e-6 -1.1e-4,2e-5 z m -0.0649,-1.59239 c -0.25376,0.10572 -0.64138,0.19476 -1.15705,0.25156 -0.29323,0.0327 -0.50059,0.0695 -0.62505,0.11622 -0.12383,0.0464 -0.22196,0.11873 -0.29442,0.21758 -0.0723,0.0962 -0.11287,0.20604 -0.12072,0.32992 -0.012,0.18975 0.0503,0.35267 0.18985,0.48768 0.14203,0.13496 0.3578,0.21005 0.64488,0.22088 0.28431,0.0107 0.53935,-0.0426 0.76158,-0.15803 0.2224,-0.11811 0.38424,-0.28264 0.48641,-0.49114 0.0781,-0.1613 0.11577,-0.39865 0.11506,-0.71319 -1.8e-4,-0.0872 -3.6e-4,-0.17432 -5.4e-4,-0.26148 z m -0.35789,-2.62004 c -0.17358,-0.002 -0.34717,-0.005 -0.52072,-0.009 -0.26654,-0.37706 -0.52277,-0.75767 -0.76864,-1.14138 0.27754,0.0151 0.55527,0.0263 0.83306,0.0334 0.1461,0.37363 0.2982,0.74616 0.4563,1.11744 z"
         style="font-family:arial;-inkscape-font-specification:arial"
         id="path4527"
         inkscape:original-d="m 105.2361,186.6947 q -0.39619,0.33675 -0.76464,0.47542 -0.36449,0.13866 -0.78445,0.13866 -0.69333,0 -1.06574,-0.33675 -0.37242,-0.34072 -0.37242,-0.86765 0,-0.30903 0.13867,-0.56259 0.14263,-0.25752 0.36845,-0.41203 0.22979,-0.15451 0.51504,-0.23375 0.20998,-0.0555 0.6339,-0.10697 0.86369,-0.10301 1.27176,-0.24563 0.004,-0.14659 0.004,-0.18621 0,-0.43581 -0.20205,-0.61409 -0.27337,-0.24167 -0.81218,-0.24167 -0.50316,0 -0.74483,0.17828 -0.23772,0.17432 -0.35261,0.62201 l -0.69729,-0.0951 q 0.0951,-0.44769 0.31299,-0.72106 0.2179,-0.27733 0.62994,-0.42392 0.41203,-0.15055 0.9548,-0.15055 0.53882,0 0.87557,0.12678 0.33676,0.12678 0.49524,0.32091 0.15847,0.19017 0.22186,0.48335 0.0357,0.18224 0.0357,0.65767 v 0.95084 q 0,0.99443 0.0436,1.25987 0.0475,0.26149 0.18224,0.50316 h -0.74483 q -0.11093,-0.22186 -0.14262,-0.519 z m -0.0594,-1.59267 q -0.38826,0.15847 -1.16479,0.2694 -0.43976,0.0634 -0.62201,0.14263 -0.18225,0.0792 -0.28129,0.23375 -0.0991,0.15055 -0.0991,0.33676 0,0.28525 0.21394,0.47542 0.2179,0.19017 0.6339,0.19017 0.41203,0 0.73294,-0.17828 0.32091,-0.18225 0.47147,-0.49523 0.11489,-0.24168 0.11489,-0.71314 z m -0.38826,-2.61879 h -0.57447 l -0.91519,-1.10932 h 0.95481 z" /><path
         d="m 111.23012,201.75463 -0.65908,-5.75886 c 0.20894,-0.024 0.41784,-0.05 0.62667,-0.078 l 0.7648,5.74655 c -0.2437,0.0323 -0.48784,0.0624 -0.73239,0.0903 z"
         style="font-family:arial;-inkscape-font-specification:arial"
         id="path4529"
         inkscape:original-d="m 109.24154,187.2137 v -5.80809 h 0.71313 v 5.80809 z" /><path
         d="m 112.49913,197.80001 c -0.11396,-0.34757 -0.22634,-0.69549 -0.3371,-1.04377 l -0.15022,-0.95743 c 0.23761,-0.0376 0.4751,-0.0777 0.71244,-0.12019 l 0.16933,0.9546 c 0.006,0.36604 0.0105,0.73221 0.0132,1.09849 -0.13581,0.0235 -0.27171,0.0463 -0.4077,0.0683 z"
         style="font-family:arial;-inkscape-font-specification:arial"
         id="path4531"
         inkscape:original-d="m 111.06399,183.46182 -0.18224,-1.08555 v -0.97066 h 0.81218 v 0.97066 l -0.19017,1.08555 z" /><path
         d="m 117.19546,199.23575 c 0.24435,-0.034 0.48861,-0.07 0.73276,-0.10795 0.007,0.44632 -0.1113,0.8274 -0.35893,1.1408 -0.24726,0.31292 -0.61791,0.5329 -1.10718,0.65077 -0.61658,0.14855 -1.15206,0.0699 -1.5894,-0.22514 -0.43673,-0.29923 -0.71206,-0.78727 -0.84244,-1.45867 -0.1347,-0.69355 -0.065,-1.26718 0.1911,-1.7183 0.25706,-0.45273 0.6423,-0.73671 1.16756,-0.86416 0.50863,-0.12342 0.9694,-0.048 1.39606,0.23268 0.42534,0.27984 0.74114,0.75116 0.93242,1.41937 0.0116,0.0407 0.0279,0.10209 0.0486,0.18414 -0.98981,0.2828 -1.98934,0.53271 -2.9968,0.74594 0.12141,0.44679 0.32194,0.7657 0.60723,0.95473 0.2847,0.18866 0.60392,0.2423 0.95121,0.15849 0.25843,-0.0624 0.4619,-0.18453 0.60854,-0.36415 0.14677,-0.17976 0.23318,-0.42951 0.2592,-0.74857 2e-5,1e-5 3e-5,1e-5 5e-5,2e-5 z m -2.51024,-0.58184 c 0.74369,-0.15838 1.48334,-0.33711 2.21819,-0.53458 -0.12171,-0.33393 -0.27422,-0.56837 -0.45545,-0.70361 -0.27955,-0.21085 -0.58212,-0.2747 -0.91395,-0.19425 -0.30041,0.0728 -0.52898,0.23761 -0.68986,0.49798 -0.1582,0.25943 -0.21286,0.57088 -0.15893,0.93446 z m 0.22683,-2.32726 c 0.074,-0.39694 0.14359,-0.79395 0.2088,-1.19096 0.27143,-0.0668 0.54253,-0.13657 0.81325,-0.20912 -0.15717,0.42527 -0.32148,0.84974 -0.49321,1.27318 -0.1761,0.0435 -0.35239,0.0858 -0.52884,0.1269 z"
         style="font-family:arial;-inkscape-font-specification:arial"
         id="path4533"
         inkscape:original-d="m 115.48939,185.85874 0.73691,0.0911 q -0.17432,0.64578 -0.64579,1.00235 -0.47146,0.35656 -1.2044,0.35656 -0.92311,0 -1.46589,-0.56654 -0.53881,-0.57051 -0.53881,-1.59663 0,-1.06178 0.54673,-1.64814 0.54674,-0.58635 1.41835,-0.58635 0.84388,0 1.37873,0.57447 0.53485,0.57447 0.53485,1.61644 0,0.0634 -0.004,0.19017 h -3.1378 q 0.0396,0.69332 0.39223,1.06178 0.3526,0.36845 0.87953,0.36845 0.39223,0 0.66956,-0.20602 0.27733,-0.20601 0.43976,-0.65767 z m -2.34146,-1.1529 h 2.34939 q -0.0476,-0.53089 -0.26941,-0.79633 -0.34072,-0.41204 -0.8835,-0.41204 -0.49127,0 -0.82802,0.32884 -0.3328,0.32883 -0.36846,0.87953 z m 0.7686,-2.2226 0.52693,-1.10932 h 0.935 l -0.87161,1.10932 z" /><path
         d="m 120.46429,198.99143 c 0.1006,0.18798 0.20158,0.37579 0.30296,0.56343 -0.18008,0.10649 -0.34764,0.18501 -0.50152,0.23588 -0.25139,0.0831 -0.45987,0.10673 -0.62358,0.0726 -0.16373,-0.0342 -0.29334,-0.1061 -0.38895,-0.21493 -0.0967,-0.11161 -0.20751,-0.37169 -0.3341,-0.78144 l -0.71572,-2.31662 c -0.15795,0.0488 -0.31613,0.0968 -0.47453,0.14395 l -0.15822,-0.53246 c 0.15645,-0.0466 0.31271,-0.094 0.46876,-0.1423 l -0.30807,-0.99717 c 0.16459,-0.20054 0.32687,-0.40202 0.48692,-0.60434 l 0.45482,1.40049 c 0.21319,-0.0693 0.42596,-0.14012 0.6383,-0.21245 l 0.17914,0.52604 c -0.21481,0.0732 -0.43008,0.1448 -0.64581,0.2149 l 0.76131,2.34422 c 0.063,0.19384 0.1147,0.31462 0.15553,0.36262 0.0433,0.0472 0.0969,0.0784 0.1608,0.0936 0.0665,0.0144 0.1504,0.005 0.25155,-0.0288 0.0758,-0.0253 0.17288,-0.0676 0.29042,-0.12714 -10e-6,-1e-5 -10e-6,-3e-5 -10e-6,-4e-5 z"
         style="font-family:arial;-inkscape-font-specification:arial"
         id="path4535"
         inkscape:original-d="m 118.67869,186.57584 0.10301,0.62994 q -0.3011,0.0634 -0.53882,0.0634 -0.38826,0 -0.6022,-0.12282 -0.21394,-0.12282 -0.3011,-0.32091 -0.0872,-0.20206 -0.0872,-0.84388 v -2.4207 h -0.52297 v -0.55466 h 0.52297 v -1.04197 l 0.70917,-0.42788 v 1.46985 h 0.7171 v 0.55466 h -0.7171 v 2.46032 q 0,0.30506 0.0357,0.39222 0.0396,0.0872 0.12282,0.13867 0.0872,0.0515 0.24563,0.0515 0.11886,0 0.31299,-0.0277 z" /><path
         d="m 123.7483,197.87618 c -0.15919,0.30954 -0.33882,0.55408 -0.53612,0.73265 -0.1948,0.17757 -0.42611,0.31813 -0.69265,0.42015 -0.44021,0.16847 -0.82055,0.18706 -1.13344,0.0606 -0.31398,-0.12907 -0.52745,-0.36177 -0.64386,-0.69391 -0.0683,-0.19477 -0.0869,-0.38734 -0.0572,-0.57741 0.0312,-0.19346 0.0988,-0.36358 0.20234,-0.51074 0.10605,-0.14808 0.23657,-0.27897 0.39181,-0.39329 0.11535,-0.0827 0.29465,-0.18784 0.53909,-0.31913 0.49648,-0.26529 0.84822,-0.49848 1.05408,-0.68585 -0.0349,-0.0913 -0.0574,-0.14932 -0.0675,-0.17371 -0.11083,-0.26864 -0.24886,-0.43341 -0.41249,-0.49497 -0.22191,-0.0837 -0.48969,-0.0623 -0.80704,0.0618 -0.29642,0.11586 -0.49536,0.25462 -0.59711,0.41997 -0.10023,0.16186 -0.1334,0.39568 -0.0994,0.70168 -0.2212,0.0476 -0.44252,0.0936 -0.66395,0.13816 -0.042,-0.30216 -0.0287,-0.56253 0.039,-0.7808 0.0669,-0.22094 0.20462,-0.4214 0.41239,-0.60332 0.20695,-0.1845 0.4676,-0.33731 0.78357,-0.46135 0.31373,-0.12315 0.58285,-0.18673 0.81054,-0.1887 0.22751,-0.002 0.41241,0.0366 0.55485,0.11705 0.0683,0.0377 0.13344,0.0854 0.19534,0.14312 0.0662,0.0617 0.12879,0.1349 0.18759,0.21964 0.0685,0.10271 0.16524,0.30007 0.28968,0.59138 l 0.3735,0.87433 c 0.26062,0.61009 0.43835,0.98964 0.53501,1.14127 0.0977,0.14772 0.21985,0.27774 0.36688,0.38959 -0.10881,0.0472 -0.21778,0.094 -0.32691,0.14063 -0.12176,0.0521 -0.24377,0.10388 -0.36603,0.15519 -0.12607,-0.1076 -0.23653,-0.24902 -0.33192,-0.42403 -2e-5,2e-5 -5e-5,4e-5 -8e-5,5e-5 z m -0.66279,-1.45026 c -0.19272,0.19363 -0.51235,0.42217 -0.95919,0.67523 -0.25361,0.14406 -0.42735,0.26018 -0.52122,0.3521 -0.0936,0.0916 -0.15333,0.19701 -0.17899,0.31652 -0.0266,0.11699 -0.0187,0.23387 0.0241,0.35062 0.0656,0.17883 0.18716,0.3034 0.36596,0.37242 0.18112,0.068 0.40349,0.0525 0.66449,-0.0483 0.25848,-0.0998 0.4659,-0.24605 0.62096,-0.43662 0.15414,-0.19308 0.23712,-0.40577 0.25018,-0.63692 0.009,-0.17835 -0.0465,-0.41239 -0.16651,-0.70324 -0.0333,-0.0806 -0.0665,-0.16123 -0.0998,-0.24184 z"
         style="font-family:arial;-inkscape-font-specification:arial"
         id="path4537"
         inkscape:original-d="m 122.12155,186.6947 q -0.39619,0.33675 -0.76464,0.47542 -0.36449,0.13866 -0.78445,0.13866 -0.69333,0 -1.06574,-0.33675 -0.37242,-0.34072 -0.37242,-0.86765 0,-0.30903 0.13867,-0.56259 0.14263,-0.25752 0.36845,-0.41203 0.22979,-0.15451 0.51504,-0.23375 0.20998,-0.0555 0.6339,-0.10697 0.86369,-0.10301 1.27176,-0.24563 0.004,-0.14659 0.004,-0.18621 0,-0.43581 -0.20206,-0.61409 -0.27336,-0.24167 -0.81218,-0.24167 -0.50315,0 -0.74483,0.17828 -0.23771,0.17432 -0.3526,0.62201 l -0.69729,-0.0951 q 0.0951,-0.44769 0.31299,-0.72106 0.2179,-0.27733 0.62993,-0.42392 0.41204,-0.15055 0.95481,-0.15055 0.53881,0 0.87557,0.12678 0.33676,0.12678 0.49524,0.32091 0.15847,0.19017 0.22186,0.48335 0.0357,0.18224 0.0357,0.65767 v 0.95084 q 0,0.99443 0.0436,1.25987 0.0475,0.26149 0.18224,0.50316 h -0.74483 q -0.11093,-0.22186 -0.14262,-0.519 z m -0.0594,-1.59267 q -0.38826,0.15847 -1.16479,0.2694 -0.43977,0.0634 -0.62201,0.14263 -0.18225,0.0792 -0.28129,0.23375 -0.099,0.15055 -0.099,0.33676 0,0.28525 0.21394,0.47542 0.2179,0.19017 0.6339,0.19017 0.41203,0 0.73294,-0.17828 0.32091,-0.18225 0.47146,-0.49523 0.1149,-0.24168 0.1149,-0.71314 z" /><path
         d="m 126.73179,196.41084 c 0.12131,0.17446 0.2429,0.34875 0.36478,0.52288 -0.16364,0.12549 -0.31812,0.22218 -0.46251,0.29016 -0.2359,0.11105 -0.43686,0.15884 -0.60135,0.1444 -0.16452,-0.0145 -0.30047,-0.0701 -0.40787,-0.16624 -0.10872,-0.0987 -0.25036,-0.34271 -0.42622,-0.73269 l -0.99443,-2.20513 c -0.15096,0.068 -0.3022,0.1354 -0.45373,0.20214 l -0.22368,-0.50727 c 0.15013,-0.0661 0.29998,-0.13279 0.44955,-0.20013 l -0.42804,-0.94918 c 0.1407,-0.21955 0.27948,-0.43957 0.41638,-0.66004 l 0.6186,1.33178 c 0.20405,-0.0947 0.40759,-0.19052 0.61061,-0.2875 l 0.23896,0.49984 c -0.20485,0.0979 -0.41022,0.19463 -0.61614,0.29022 l 1.03544,2.22921 c 0.0856,0.18431 0.15127,0.29772 0.19725,0.3404 0.0483,0.0416 0.10472,0.0662 0.16929,0.0738 0.067,0.007 0.14819,-0.0127 0.24337,-0.0577 0.0714,-0.0337 0.16147,-0.0867 0.26976,-0.15898 z"
         style="font-family:arial;-inkscape-font-specification:arial"
         id="path4539"
         inkscape:original-d="m 125.44555,186.57584 0.103,0.62994 q -0.3011,0.0634 -0.53881,0.0634 -0.38826,0 -0.6022,-0.12282 -0.21394,-0.12282 -0.3011,-0.32091 -0.0872,-0.20206 -0.0872,-0.84388 v -2.4207 h -0.52297 v -0.55466 h 0.52297 v -1.04197 l 0.70917,-0.42788 v 1.46985 h 0.7171 v 0.55466 h -0.7171 v 2.46032 q 0,0.30506 0.0357,0.39222 0.0396,0.0872 0.12281,0.13867 0.0872,0.0515 0.24564,0.0515 0.11885,0 0.31299,-0.0277 z" /><path
         d="m 127.31149,191.25031 -0.38525,-0.72282 c 0.19295,-0.10292 0.38545,-0.20688 0.57752,-0.31186 l 0.39253,0.71897 c -0.19446,0.10626 -0.3894,0.2115 -0.5848,0.31571 z m 2.34314,4.39622 -1.9765,-3.70834 c 0.19774,-0.10542 0.39498,-0.21189 0.59173,-0.31936 l 2.01386,3.68862 c -0.20907,0.11402 -0.41876,0.22705 -0.62909,0.33908 z"
         style="font-family:arial;-inkscape-font-specification:arial"
         id="path4541"
         inkscape:original-d="m 128.40109,182.22572 v -0.82011 h 0.71314 v 0.82011 z m 0,4.98798 v -4.2075 h 0.71314 v 4.2075 z" /><path
         d="m 131.23408,194.77996 -2.06912,-3.65889 c 0.17574,-0.0995 0.35109,-0.1997 0.52606,-0.30072 l 0.2987,0.51776 c 0.0241,-0.54731 0.27054,-0.9579 0.74246,-1.24153 0.20518,-0.12333 0.41655,-0.19782 0.63533,-0.22354 0.21951,-0.0293 0.41082,-0.008 0.5742,0.0646 0.16334,0.0726 0.31621,0.18427 0.45825,0.33531 0.0913,0.0985 0.22474,0.28793 0.39969,0.56776 l 1.37141,2.19362 c -0.20126,0.12558 -0.40313,0.25032 -0.60561,0.37419 l -1.33722,-2.1815 c -0.15175,-0.24757 -0.28783,-0.41835 -0.40748,-0.51218 -0.12112,-0.0962 -0.26175,-0.14481 -0.42186,-0.14649 -0.15935,-0.005 -0.31629,0.0386 -0.47164,0.13157 -0.24809,0.1484 -0.41431,0.35814 -0.50016,0.63145 -0.0835,0.27152 0.008,0.64129 0.2773,1.10715 l 1.14927,1.98771 c -0.20591,0.11885 -0.41243,0.23678 -0.61958,0.35375 z"
         style="font-family:arial;-inkscape-font-specification:arial"
         id="path4543"
         inkscape:original-d="m 130.19978,187.2137 v -4.2075 h 0.64182 v 0.59824 q 0.46354,-0.69332 1.33911,-0.69332 0.38034,0 0.69729,0.13866 0.32091,0.13471 0.47938,0.35657 0.15848,0.22187 0.22187,0.52693 0.0396,0.19809 0.0396,0.69332 v 2.5871 h -0.71313 v -2.55936 q 0,-0.43581 -0.0832,-0.64975 -0.0832,-0.2179 -0.29714,-0.34468 -0.20998,-0.13074 -0.49523,-0.13074 -0.45561,0 -0.78841,0.28922 -0.32884,0.28921 -0.32884,1.09743 v 2.29788 z" /><path
         d="m 132.39537,188.25317 -0.44403,-0.68981 c 0.18547,-0.11963 0.37053,-0.2401 0.55519,-0.36139 l 0.44985,0.68622 c -0.18657,0.12248 -0.37358,0.24415 -0.56101,0.36498 z m 2.70061,4.19545 -2.27804,-3.53898 c 0.18931,-0.12197 0.37816,-0.24477 0.56656,-0.36839 l 2.30794,3.5206 c -0.19823,0.12971 -0.39705,0.25864 -0.59646,0.38677 z"
         style="font-family:arial;-inkscape-font-specification:arial"
         id="path4545"
         inkscape:original-d="m 134.7163,182.22572 v -0.82011 h 0.71313 v 0.82011 z m 0,4.98798 v -4.2075 h 0.71313 v 4.2075 z" /><path
         d="m 137.50623,190.06509 c 0.14815,0.15297 0.29648,0.30579 0.44499,0.45847 -0.13929,0.149 -0.27416,0.26832 -0.40394,0.35792 -0.21202,0.14638 -0.40034,0.22534 -0.56375,0.23744 -0.16344,0.0121 -0.30609,-0.0207 -0.42789,-0.0979 -0.12346,-0.0795 -0.30458,-0.29652 -0.54436,-0.65152 l -1.35605,-2.00767 c -0.13794,0.0932 -0.27613,0.186 -0.41457,0.27838 l -0.30797,-0.46177 c 0.13752,-0.0918 0.27479,-0.18401 0.41183,-0.27663 l -0.5837,-0.86419 c 0.10363,-0.24241 0.2059,-0.48499 0.30687,-0.72771 l 0.83299,1.21281 c 0.18701,-0.12853 0.37358,-0.25781 0.5597,-0.38783 l 0.31789,0.4553 c -0.18729,0.1308 -0.37504,0.26088 -0.56326,0.3902 l 1.3943,2.03007 c 0.11528,0.16784 0.19898,0.26904 0.25131,0.30371 0.0544,0.0332 0.11396,0.0485 0.17858,0.0456 0.0668,-0.004 0.1432,-0.0361 0.229,-0.0955 0.0643,-0.0446 0.14382,-0.11097 0.23805,-0.19924 z"
         style="font-family:arial;-inkscape-font-specification:arial"
         id="path4547"
         inkscape:original-d="m 138.072,186.57584 0.103,0.62994 q -0.3011,0.0634 -0.53881,0.0634 -0.38826,0 -0.6022,-0.12282 -0.21394,-0.12282 -0.3011,-0.32091 -0.0872,-0.20206 -0.0872,-0.84388 v -2.4207 h -0.52297 v -0.55466 h 0.52297 v -1.04197 l 0.70917,-0.42788 v 1.46985 h 0.7171 v 0.55466 h -0.7171 v 2.46032 q 0,0.30506 0.0357,0.39222 0.0396,0.0872 0.12281,0.13867 0.0872,0.0515 0.24564,0.0515 0.11885,0 0.31299,-0.0277 z" /><path
         d="m 135.55314,186.11392 -0.47499,-0.66981 c 0.181,-0.12847 0.36162,-0.25766 0.54186,-0.38753 l 0.47988,0.6664 c -0.18184,0.13101 -0.36409,0.26133 -0.54675,0.39094 z m 2.88893,4.07388 -2.43689,-3.43643 c 0.18423,-0.1307 0.36804,-0.26211 0.55141,-0.39419 l 2.462,3.4189 c -0.1916,0.1379 -0.38377,0.27515 -0.57652,0.41172 z"
         style="font-family:arial;-inkscape-font-specification:arial"
         id="path4549"
         inkscape:original-d="m 138.77325,182.22572 v -0.82011 h 0.71313 v 0.82011 z m 0,4.98798 v -4.2075 h 0.71313 v 4.2075 z" /><path
         d="m 141.73929,187.09005 c -0.0675,0.33708 -0.17019,0.61668 -0.30686,0.83799 -0.13459,0.21972 -0.3129,0.41364 -0.53452,0.58086 -0.36595,0.27614 -0.71659,0.3962 -1.04767,0.36132 -0.33275,-0.037 -0.60256,-0.19866 -0.81051,-0.48239 -0.12194,-0.16639 -0.19637,-0.34466 -0.22393,-0.53446 -0.027,-0.19347 -0.0124,-0.37509 0.0438,-0.54503 0.0583,-0.17149 0.14534,-0.33346 0.26126,-0.48624 0.0866,-0.11114 0.22869,-0.26216 0.42624,-0.45491 0.40245,-0.39094 0.67755,-0.70765 0.82645,-0.94323 -0.0579,-0.0789 -0.095,-0.12881 -0.11117,-0.14968 -0.17819,-0.22982 -0.35504,-0.35207 -0.52989,-0.36729 -0.23696,-0.0209 -0.49107,0.0731 -0.76447,0.28114 -0.25534,0.19426 -0.4092,0.38438 -0.46124,0.5722 -0.0516,0.18411 -0.0177,0.41799 0.1016,0.70173 -0.1986,0.10839 -0.39749,0.21606 -0.59664,0.32299 -0.12774,-0.27695 -0.18984,-0.53018 -0.18668,-0.7594 0.002,-0.23145 0.0781,-0.46426 0.22879,-0.69931 0.14915,-0.23718 0.36043,-0.45932 0.63416,-0.66793 0.27178,-0.20713 0.51726,-0.34302 0.73825,-0.40709 0.2209,-0.064 0.41089,-0.0764 0.57021,-0.0365 0.15766,0.0378 0.31291,0.12107 0.46557,0.24993 0.093,0.0815 0.2376,0.24711 0.43347,0.49654 l 0.58775,0.74847 c 0.40997,0.52207 0.68037,0.84344 0.81248,0.9652 0.13228,0.11791 0.28306,0.21283 0.45252,0.28445 -0.19243,0.15203 -0.38544,0.3035 -0.57905,0.4544 -0.14863,-0.0719 -0.29183,-0.17989 -0.42985,-0.3238 -2e-5,2e-5 -4e-5,5e-5 -6e-5,7e-5 z m -1.02309,-1.22416 c -0.13346,0.23713 -0.37767,0.53987 -0.73406,0.90326 -0.20187,0.20638 -0.33464,0.36548 -0.39779,0.47903 -0.0631,0.11337 -0.0897,0.23063 -0.0798,0.35193 0.008,0.11918 0.0494,0.22868 0.12365,0.32841 0.11369,0.15277 0.26463,0.23833 0.45316,0.2559 0.19058,0.016 0.39566,-0.0583 0.61376,-0.22343 0.21602,-0.16353 0.37148,-0.35716 0.46602,-0.57975 0.093,-0.22474 0.11401,-0.44997 0.0639,-0.67534 -0.0394,-0.17357 -0.15569,-0.3844 -0.34852,-0.63311 -0.0534,-0.069 -0.1069,-0.13793 -0.16035,-0.2069 z"
         style="font-family:arial;-inkscape-font-specification:arial"
         id="path4551"
         inkscape:original-d="m 143.3175,186.6947 q -0.39619,0.33675 -0.76464,0.47542 -0.36449,0.13866 -0.78445,0.13866 -0.69332,0 -1.06574,-0.33675 -0.37241,-0.34072 -0.37241,-0.86765 0,-0.30903 0.13866,-0.56259 0.14263,-0.25752 0.36845,-0.41203 0.22979,-0.15451 0.51505,-0.23375 0.20998,-0.0555 0.63389,-0.10697 0.86369,-0.10301 1.27176,-0.24563 0.004,-0.14659 0.004,-0.18621 0,-0.43581 -0.20205,-0.61409 -0.27337,-0.24167 -0.81218,-0.24167 -0.50316,0 -0.74483,0.17828 -0.23771,0.17432 -0.35261,0.62201 l -0.69729,-0.0951 q 0.0951,-0.44769 0.31299,-0.72106 0.2179,-0.27733 0.62994,-0.42392 0.41203,-0.15055 0.95481,-0.15055 0.53881,0 0.87557,0.12678 0.33675,0.12678 0.49523,0.32091 0.15847,0.19017 0.22186,0.48335 0.0357,0.18224 0.0357,0.65767 v 0.95084 q 0,0.99443 0.0436,1.25987 0.0475,0.26149 0.18225,0.50316 h -0.74483 q -0.11094,-0.22186 -0.14263,-0.519 z m -0.0594,-1.59267 q -0.38826,0.15847 -1.16479,0.2694 -0.43976,0.0634 -0.62201,0.14263 -0.18224,0.0792 -0.28129,0.23375 -0.0991,0.15055 -0.0991,0.33676 0,0.28525 0.21394,0.47542 0.21791,0.19017 0.6339,0.19017 0.41204,0 0.73295,-0.17828 0.32091,-0.18225 0.47146,-0.49523 0.11489,-0.24168 0.11489,-0.71314 z" /><path
         d="m 143.41518,186.42844 -3.62969,-4.53737 c 0.1746,-0.13926 0.34886,-0.27902 0.52278,-0.41928 l 3.65407,4.51503 c -0.18185,0.14766 -0.36424,0.29488 -0.54716,0.44162 z"
         style="font-family:arial;-inkscape-font-specification:arial"
         id="path4553"
         inkscape:original-d="m 145.06864,187.2137 v -5.80809 h 0.71314 v 5.80809 z" /></g><text
       xml:space="preserve"
       style="font-style:normal;font-weight:normal;font-size:8.81944px;line-height:1.25;font-family:sans-serif;letter-spacing:0px;word-spacing:0px;fill:#000000;fill-opacity:1;stroke:none;stroke-width:0.264583"
       x="-97.430481"
       y="236.16077"
       id="text2211-23"
       transform="rotate(-50.143407)"><tspan
         sodipodi:role="line"
         id="tspan2209-7"
         style="font-style:normal;font-variant:normal;font-weight:normal;font-stretch:normal;font-size:8.81944px;font-family:arial;-inkscape-font-specification:arial;stroke-width:0.264583"
         x="-97.430481"
         y="236.16077">Libration</tspan><tspan
         sodipodi:role="line"
         style="font-style:normal;font-variant:normal;font-weight:normal;font-stretch:normal;font-size:8.81944px;font-family:arial;-inkscape-font-specification:arial;stroke-width:0.264583"
         x="-97.430481"
         y="247.2655"
         id="tspan10150">du produit</tspan></text><text
       xml:space="preserve"
       style="font-style:normal;font-weight:normal;font-size:8.81944px;line-height:1.25;font-family:sans-serif;letter-spacing:0px;word-spacing:0px;fill:#000000;fill-opacity:1;stroke:none;stroke-width:0.264583"
       x="24.616329"
       y="183.40134"
       id="text2211-5"><tspan
         sodipodi:role="line"
         id="tspan2209-9"
         style="font-style:normal;font-variant:normal;font-weight:normal;font-stretch:normal;font-size:8.81944px;font-family:arial;-inkscape-font-specification:arial;stroke-width:0.264583"
         x="24.616329"
         y="183.40134">Enzyme</tspan></text><text
       xml:space="preserve"
       style="font-style:normal;font-weight:normal;font-size:8.81944px;line-height:1.25;font-family:sans-serif;letter-spacing:0px;word-spacing:0px;fill:#000000;fill-opacity:1;stroke:none;stroke-width:0.264583"
       x="53.59697"
       y="166.40196"
       id="text2211-22"><tspan
         sodipodi:role="line"
         id="tspan2209-8"
         style="font-style:normal;font-variant:normal;font-weight:normal;font-stretch:normal;font-size:8.81944px;font-family:arial;-inkscape-font-specification:arial;stroke-width:0.264583"
         x="53.59697"
         y="166.40196">Site actif</tspan></text><text
       xml:space="preserve"
       style="font-style:normal;font-weight:normal;font-size:8.81944px;line-height:1.25;font-family:sans-serif;letter-spacing:0px;word-spacing:0px;fill:#000000;fill-opacity:1;stroke:none;stroke-width:0.264583"
       x="102.73517"
       y="106.68906"
       id="text2211-9"><tspan
         sodipodi:role="line"
         id="tspan2209-73"
         style="font-style:normal;font-variant:normal;font-weight:normal;font-stretch:normal;font-size:8.81944px;font-family:arial;-inkscape-font-specification:arial;text-align:center;text-anchor:middle;stroke-width:0.264583"
         x="102.73517"
         y="106.68906">Complexe </tspan><tspan
         sodipodi:role="line"
         style="font-style:normal;font-variant:normal;font-weight:normal;font-stretch:normal;font-size:8.81944px;font-family:arial;-inkscape-font-specification:arial;text-align:center;text-anchor:middle;stroke-width:0.264583"
         x="102.73517"
         y="117.79379"
         id="tspan10241">enzyme-substrat</tspan></text></g><metadata
     id="metadata10632"><rdf:RDF><cc:Work
         rdf:about=""><dc:date>t 2022 - V1 du TST</dc:date><dc:creator><cc:Agent><dc:title>Paulhenry Saux</dc:title></cc:Agent></dc:creator><dc:publisher><cc:Agent><dc:title>Paulhenry.eu</dc:title></cc:Agent></dc:publisher><dc:language>FR</dc:language><cc:license
           rdf:resource="http://creativecommons.org/licenses/by-sa/4.0/" /></cc:Work><cc:License
         rdf:about="http://creativecommons.org/licenses/by-sa/4.0/"><cc:permits
           rdf:resource="http://creativecommons.org/ns#Reproduction" /><cc:permits
           rdf:resource="http://creativecommons.org/ns#Distribution" /><cc:requires
           rdf:resource="http://creativecommons.org/ns#Notice" /><cc:requires
           rdf:resource="http://creativecommons.org/ns#Attribution" /><cc:permits
           rdf:resource="http://creativecommons.org/ns#DerivativeWorks" /><cc:requires
           rdf:resource="http://creativecommons.org/ns#ShareAlike" /></cc:License></rdf:RDF></metadata></svg>
