<?xml version="1.0" encoding="UTF-8" standalone="no"?>
<!-- Created with Inkscape (http://www.inkscape.org/) -->

<svg
   width="179.4583mm"
   height="179.91734mm"
   viewBox="0 0 179.4583 179.91734"
   version="1.1"
   id="svg5"
   inkscape:version="1.2 (1:1.2.1+202207142221+cd75a1ee6d)"
   sodipodi:docname="chap1-fig1.svg"
   xmlns:inkscape="http://www.inkscape.org/namespaces/inkscape"
   xmlns:sodipodi="http://sodipodi.sourceforge.net/DTD/sodipodi-0.dtd"
   xmlns:xlink="http://www.w3.org/1999/xlink"
   xmlns="http://www.w3.org/2000/svg"
   xmlns:svg="http://www.w3.org/2000/svg"
   xmlns:rdf="http://www.w3.org/1999/02/22-rdf-syntax-ns#"
   xmlns:cc="http://creativecommons.org/ns#"
   xmlns:dc="http://purl.org/dc/elements/1.1/">
  <sodipodi:namedview
     id="namedview7"
     pagecolor="#ffffff"
     bordercolor="#666666"
     borderopacity="1.0"
     inkscape:showpageshadow="2"
     inkscape:pageopacity="0.0"
     inkscape:pagecheckerboard="0"
     inkscape:deskcolor="#d1d1d1"
     inkscape:document-units="mm"
     showgrid="false"
     inkscape:zoom="0.2605745"
     inkscape:cx="531.51787"
     inkscape:cy="792.47971"
     inkscape:window-width="1366"
     inkscape:window-height="740"
     inkscape:window-x="0"
     inkscape:window-y="0"
     inkscape:window-maximized="1"
     inkscape:current-layer="layer1" />
  <defs
     id="defs2">
    <linearGradient
       inkscape:collect="always"
       xlink:href="#linearGradient4102"
       id="linearGradient4108"
       x1="460"
       y1="120"
       x2="460"
       y2="360"
       gradientUnits="userSpaceOnUse"
       gradientTransform="matrix(0.09402927,0,0,0.09402927,13.106916,133.53095)" />
    <linearGradient
       inkscape:collect="always"
       id="linearGradient4102">
      <stop
         style="stop-color:#fdff00;stop-opacity:1"
         offset="0"
         id="stop4104" />
      <stop
         style="stop-color:#fb9909;stop-opacity:1"
         offset="1"
         id="stop4106" />
    </linearGradient>
    <linearGradient
       id="linearGradient12536"
       y2="706.16998"
       gradientUnits="userSpaceOnUse"
       x2="1480.7"
       y1="706.16998"
       x1="1387"
       inkscape:collect="always"
       gradientTransform="matrix(0.27387,0,0,0.27387,-184.62367,202.65428)">
      <stop
         id="stop9459"
         style="stop-color:#d0d0d0"
         offset="0" />
      <stop
         id="stop9461"
         style="stop-color:#f2f2f2"
         offset="1" />
    </linearGradient>
  </defs>
  <g
     inkscape:label="Calque 1"
     inkscape:groupmode="layer"
     id="layer1"
     transform="translate(-15.377945,-71.025341)">
    <circle
       style="fill:url(#linearGradient4108);fill-opacity:1;stroke:none;stroke-width:0.0940292"
       id="path4100"
       inkscape:export-filename="./sun.png"
       inkscape:export-xdpi="90"
       inkscape:export-ydpi="90"
       cx="54.479813"
       cy="156.09796"
       r="11.283513" />
    <g
       id="g5158"
       transform="matrix(0.20616,0,0,0.20616,27.88255,80.910154)">
      <path
         id="path9349"
         style="color:#000000;opacity:0.98471;fill:url(#linearGradient12536);stroke-width:0.27387"
         inkscape:connector-curvature="0"
         d="m 207.14736,350.05933 c -3.28287,0 -5.92243,2.64805 -5.92243,5.93093 v 62.30542 c 0,0.0143 -1.1e-4,0.0286 0,0.0428 -3.60632,2.27325 -5.9994,6.29134 -5.9994,10.86935 0,7.09104 5.74661,12.83765 12.83766,12.83765 7.09104,0 12.83765,-5.74661 12.83765,-12.83765 0,-4.67825 -2.50032,-8.77041 -6.23903,-11.01478 V 355.9917 c 0,-3.28288 -2.63945,-5.93093 -5.92244,-5.93093 h -1.59184 z" />
      <g
         id="g9345"
         transform="matrix(0.27387,0,0,0.27387,-184.62367,205.39298)"
         style="fill:#d40000;fill-opacity:1">
        <path
           id="rect9247"
           style="color:#000000;opacity:0.98471;fill:#d40000;fill-opacity:1"
           inkscape:connector-curvature="0"
           d="m 1409.5,625.66 v 152.97 c 0,11.987 9.6689,21.656 21.656,21.656 h 5.7813 c 11.987,0 21.656,-9.669 21.656,-21.656 V 625.91 c -6.8688,1.3372 -15.103,2.125 -23.969,2.125 -9.3753,0 -18.031,-0.89378 -25.125,-2.375 z" />
        <circle
           id="path9249"
           style="color:#000000;opacity:0.98471;fill:#d40000;fill-opacity:1"
           transform="matrix(1.1758,0,0,1.1758,35.756,-143.29)"
           cx="1189.5702"
           cy="817.95331"
           r="39.871414" />
      </g>
      <path
         id="path9353"
         d="m 207.0652,350.12506 c -3.43022,0 -6.1963,2.77512 -6.1963,6.2048 v 62.21231 c -3.60797,2.3363 -5.9994,6.38993 -5.9994,11.00628 0,7.23894 5.87259,13.11153 13.11153,13.11153 7.23893,0 13.11152,-5.87259 13.11152,-13.11153 0,-4.71631 -2.49939,-8.84161 -6.23903,-11.15171 v -62.06442 c 0,-3.42967 -2.76609,-6.2048 -6.19631,-6.2048 h -1.59184 z m 0,0.54774 h 1.59185 c 3.13581,0 5.64856,2.52094 5.64856,5.65706 v 62.20135 0.15405 l 0.13694,0.077 c 3.6589,2.19649 6.1021,6.20316 6.1021,10.78363 0,6.94315 -5.62064,12.56379 -12.56379,12.56379 -6.94315,0 -12.56379,-5.62064 -12.56379,-12.56379 0,-4.48243 2.3417,-8.41329 5.87123,-10.63821 l 0.12839,-0.077 v -0.15405 c -1.1e-4,-0.0114 0,-0.0271 0,-0.0428 v -62.30542 c 0,-3.13609 2.51284,-5.65706 5.64857,-5.65706 z"
         style="color:#000000;text-indent:0;text-transform:none;opacity:0.98471;fill:#333333;stroke-width:0.27387"
         inkscape:connector-curvature="0" />
    </g>
    <g
       id="g8004"
       transform="matrix(0.26560374,0,0,0.26560374,54.208864,92.520763)">
      <path
         d="m 342.05834,107.24308 1.03434,-3.7144 c 0.69286,-2.11314 0.79023,-4.376913 0.28011,-6.54191 l 3.2265,2.696633 c 5.68678,4.752267 7.71702,12.596637 5.05037,19.510377 l -9.59132,-11.9507"
         style="fill:#882e1b;fill-opacity:1;fill-rule:evenodd;stroke:none;stroke-width:0.0352778"
         id="path1514" />
      <path
         d="m 332.64552,120.08595 1.52612,-1.84326 c 4.21781,-5.09376 7.70749,-10.74914 10.37025,-16.80245 l 2.65113,2.03552 c 4.79566,3.68336 6.79767,9.95963 5.02003,15.73954 -1.77765,5.78026 -6.96066,9.84638 -12.99775,10.19774 l -6.56978,-9.32709"
         style="fill:#d9701a;fill-opacity:1;fill-rule:evenodd;stroke:none;stroke-width:0.0352778"
         id="path1516" />
      <path
         d="m 334.43975,172.75532 h 4.1021 c 8.37953,0 16.40346,-3.3849 22.25075,-9.386 5.848,-6.00146 9.0237,-14.11112 8.80604,-22.48782 -0.30727,-11.82441 6.23429,-22.76475 16.79575,-28.09064 10.56111,-5.32624 23.24735,-4.08199 32.57268,3.19511 9.32568,7.27675 13.61616,19.27966 11.0176,30.81902 l -4.41854,2.22109 c -4.55436,2.28917 -9.77442,2.88501 -14.72847,1.68275 l -3.36621,8.41657 c -5.34494,13.3611 -16.4726,23.56838 -30.24399,27.74244 -13.77139,4.17513 -28.69424,1.86408 -40.5571,-6.28121 l -2.23061,-7.83131"
         style="fill:#ef6c17;fill-opacity:1;fill-rule:evenodd;stroke:none;stroke-width:0.0352778"
         id="path1518" />
      <path
         d="m 410.83766,150.70883 -3.36621,8.41657 c -5.34494,13.3611 -16.4726,23.56838 -30.24399,27.74244 -10.06369,3.05118 -20.74227,2.63772 -30.39251,-0.98495 24.4161,4.00402 47.52975,-12.32147 51.9176,-36.67231 l 0.94721,-5.25357 c 1.97414,3.19723 5.16431,5.45465 8.83602,6.25228 l 2.30188,0.49954"
         style="fill:#d9631c;fill-opacity:1;fill-rule:evenodd;stroke:none;stroke-width:0.0352778"
         id="path1520" />
      <path
         d="m 394.99652,109.95523 c 8.34955,-1.42981 17.07833,0.65229 23.97055,6.03074 9.32568,7.27675 13.61616,19.27966 11.0176,30.81902 l -4.41854,2.22109 c -4.55436,2.28917 -9.77442,2.88501 -14.72847,1.68275 l -1.72368,4.30882 c -11.33898,-0.77293 -20.95817,-9.09178 -23.14892,-20.51226 -1.81398,-9.45409 1.88877,-18.81787 9.03146,-24.55016"
         style="fill:#f5d497;fill-opacity:1;fill-rule:evenodd;stroke:none;stroke-width:0.0352778"
         id="path1522" />
      <path
         d="m 410.83766,150.70883 -1.72368,4.30882 c -3.91089,-0.26634 -7.61823,-1.43122 -10.88531,-3.31117 0.19544,-0.82268 0.37218,-1.65382 0.52388,-2.4959 l 0.94721,-5.25357 c 1.97414,3.19723 5.16431,5.45465 8.83602,6.25228 l 2.30188,0.49954"
         style="fill:#e0bc78;fill-opacity:1;fill-rule:evenodd;stroke:none;stroke-width:0.0352778"
         id="path1524" />
      <path
         d="m 354.56043,112.66245 2.30822,-3.08751 c 1.41217,-1.71909 2.32199,-3.79377 2.62996,-5.99652 l 2.03236,3.68194 c 3.57998,6.48794 2.63207,14.53551 -2.35621,20.0152 l -4.61433,-14.61311"
         style="fill:#882e1b;fill-opacity:1;fill-rule:evenodd;stroke:none;stroke-width:0.0352778"
         id="path1526" />
      <path
         d="m 331.39775,132.87732 c 4.79425,0 7.91845,4.96041 6.97688,11.07969 -0.94156,6.11893 -5.59117,11.07934 -10.38613,11.07934 -4.79425,0 -7.91774,-4.96041 -6.97653,-11.07934 0.94156,-6.11928 5.59153,-11.07969 10.38578,-11.07969"
         style="fill:#ffffff;fill-opacity:1;fill-rule:evenodd;stroke:none;stroke-width:0.0352778"
         id="path1528" />
      <path
         d="m 272.44329,221.08898 h 44.39567 V 87.271975 H 272.44329 V 221.08898"
         style="fill:#882e1b;fill-opacity:1;fill-rule:evenodd;stroke:none;stroke-width:0.0352778"
         id="path1530" />
      <path
         d="m 304.10922,96.182789 2.52487,46.519391 3.47175,-27.94176 c 0,-0.82832 -5.28348,-16.378414 -5.99662,-18.577631 z m -9.46809,-8.910814 3.99729,63.888055 -9.25753,-28.69671 -0.63126,61.92449 5.8915,-19.03059 2.10386,55.73176 h -24.3017 V 87.271975 h 22.19784 v 0"
         style="fill:#5c2314;fill-opacity:1;fill-rule:evenodd;stroke:none;stroke-width:0.0352778"
         id="path1532" />
      <path
         d="m 341.87031,172.75532 -1.50107,-6.8968 c -1.51624,-6.96807 -1.73179,-14.15662 -0.63641,-21.20336 0.3877,-2.48991 -0.73166,-4.97381 -2.85433,-6.33342 -2.1216,-1.3596 -4.84611,-1.33773 -6.94654,0.0554 -10.24467,6.79556 -14.17426,19.939 -9.3405,31.242 l 21.27885,3.13619"
         style="fill:#ef6c17;fill-opacity:1;fill-rule:evenodd;stroke:none;stroke-width:0.0352778"
         id="path1534" />
      <path
         d="m 321.70306,159.4623 c -6.6862,0.84984 -11.76055,5.9683 -12.45482,12.11439 -0.47343,4.19453 0.36407,8.42645 2.41441,12.20294 l -6.32188,-0.42087 c -2.38566,-0.15804 -4.55373,1.2693 -5.14682,3.38984 -0.59337,2.1209 0.55743,4.32647 2.73294,5.23699 l 7.93108,0.94721 c 5.6007,0.66781 11.25149,0.9144 16.89594,0.73625 4.86198,-0.15382 9.35425,-2.41512 12.09992,-6.09142 7.61894,-10.20022 0.37042,-30.46836 -18.15077,-28.11533"
         style="fill:#f68313;fill-opacity:1;fill-rule:evenodd;stroke:none;stroke-width:0.0352778"
         id="path1536" />
      <path
         d="m 329.25497,143.05637 -3.02471,1.08021 c -3.42477,1.22343 -7.24394,0.002 -9.32357,-2.98062 -1.33843,-1.91911 -3.68441,-2.86562 -5.97923,-2.4123 -2.29517,0.45368 -4.10555,2.22109 -4.61295,4.50533 -0.31641,1.42663 0.12636,2.91535 1.17298,3.93629 1.04673,1.02024 2.54639,1.42664 3.96491,1.07421 l 2.85362,1.77588 c 3.10409,1.93146 6.7691,2.75767 10.40165,2.34633 l 1.52259,1.20509 c 2.08456,1.65064 4.96993,1.85102 7.26263,0.50235 2.29235,-1.3469 3.52143,-3.96592 3.09245,-6.58989 -0.0526,-0.32455 -0.12947,-0.64064 -0.22824,-0.9465 -0.47661,-1.47285 -1.42276,-2.56681 -2.81129,-3.25049 -1.38889,-0.68333 -2.8328,-0.76659 -4.29084,-0.24589"
         style="fill:#f68313;fill-opacity:1;fill-rule:evenodd;stroke:none;stroke-width:0.0352778"
         id="path1538" />
      <path
         d="m 340.81586,116.21527 c -6.81567,-2.72803 -18.05658,-1.07879 -20.67349,5.45818 -2.61655,6.53768 4.38185,15.488 11.19646,18.21568 6.81602,2.72803 14.46213,-0.36018 17.07833,-6.89751 2.6169,-6.53768 -0.78634,-14.04867 -7.6013,-16.77635"
         style="fill:#f68313;fill-opacity:1;fill-rule:evenodd;stroke:none;stroke-width:0.0352778"
         id="path1540" />
      <path
         d="m 339.72119,121.67275 2.14912,-1.05163 c 5.94007,-2.9076 11.44799,-6.62482 16.36606,-11.04618 l 1.57833,2.94569 c 2.85539,5.33048 2.09691,11.8745 -1.90182,16.41122 -3.99909,4.53602 -10.39566,6.10976 -16.04257,3.94547 l -2.14912,-11.20457"
         style="fill:#f68313;fill-opacity:1;fill-rule:evenodd;stroke:none;stroke-width:0.0352778"
         id="path1542" />
      <path
         d="m 330.6742,120.91004 1.97132,-0.47307 c 3.33199,-0.80046 6.8446,0.0734 9.41282,2.34068 l -1.52153,1.57797 c -1.55822,1.61678 -3.91513,2.17805 -6.03497,1.43757 -2.1202,-0.74048 -3.61492,-2.6476 -3.82764,-4.88315"
         style="fill:#ffffff;fill-opacity:1;fill-rule:evenodd;stroke:none;stroke-width:0.0352778"
         id="path1544" />
      <path
         d="m 331.58542,121.29139 1.44675,-0.34748 c 2.44404,-0.58667 5.02073,0.054 6.90456,1.71732 l -1.11583,1.15782 c -1.143,1.18604 -2.87161,1.59773 -4.42772,1.05445 -1.55504,-0.54328 -2.65112,-1.94239 -2.80776,-3.58211"
         style="fill:#5c2314;fill-opacity:1;fill-rule:evenodd;stroke:none;stroke-width:0.0352778"
         id="path1546" />
      <path
         d="m 333.67387,121.30586 0.52282,-0.12524 c 0.88265,-0.21237 1.81398,0.0194 2.49484,0.62019 l -0.40322,0.41839 c -0.41311,0.42862 -1.03788,0.57714 -1.6002,0.38065 -0.56127,-0.19615 -0.95744,-0.70133 -1.01424,-1.29399"
         style="fill:#8d341c;fill-opacity:1;fill-rule:evenodd;stroke:none;stroke-width:0.0352778"
         id="path1548" />
      <path
         d="m 320.38967,125.4076 c 1.58644,0 2.87972,-1.61289 2.87972,-3.59021 0,-1.97732 -1.29328,-3.58987 -2.87972,-3.58987 -1.58538,0 -2.87973,1.61255 -2.87973,3.58987 0,1.97732 1.29435,3.59021 2.87973,3.59021"
         style="fill:#5c2314;fill-opacity:1;fill-rule:evenodd;stroke:none;stroke-width:0.0352778"
         id="path1550" />
    </g>
    <path
       id="rect11700"
       style="fill:#3b68ae;fill-opacity:1;fill-rule:evenodd;stroke-width:0.159594;stroke-linecap:round;stroke-linejoin:round;stroke-miterlimit:10.8"
       d="m 120.26095,101.26048 c -4.71012,0 -8.50186,3.79174 -8.50186,8.50186 v 50.9795 c 0,4.71012 3.79174,8.50209 8.50186,8.50209 h 53.2964 c 4.71013,0 8.50209,-3.79197 8.50209,-8.50209 v -50.9795 c 0,-4.71012 -3.79196,-8.50186 -8.50209,-8.50186 z m 26.95888,12.55587 a 19.812124,18.726011 0 0 1 19.81206,18.72591 19.812124,18.726011 0 0 1 -19.81206,18.72613 19.812124,18.726011 0 0 1 -19.81205,-18.72613 19.812124,18.726011 0 0 1 19.81205,-18.72591 z" />
    <g
       id="g14217"
       transform="matrix(0.29826564,0,0,0.29826564,38.216079,185.33026)">
      <path
         d="M 291.76577,0.61707618 H 429.86526 V 138.71656 H 291.76577 V 0.61707618"
         style="fill:#4f5f39;fill-opacity:1;fill-rule:evenodd;stroke:none;stroke-width:0.0209242"
         id="path1207" />
      <path
         d="m 326.73319,0.61707618 h 4.11411 L 323.14092,117.55156 369.08893,107.53767 357.25359,92.954782 360.41669,0.61707618 h 2.82729 V 86.82568 l 30.74073,2.113343 -7.5869,-88.32194682 h 2.65696 L 402.05893,96.51901 368.24359,126.18046 322.18323,125.59123 315.21192,109.82406 326.73319,0.61707618"
         style="fill:#465532;fill-opacity:1;fill-rule:evenodd;stroke:none;stroke-width:0.0209242"
         id="path1209" />
      <path
         d="M 429.86526,79.030592 V 138.71656 H 291.76577 V 67.664168 c 6.89859,0.244813 13.75969,1.875852 20.15373,4.895627 14.45149,6.825046 31.19919,6.825046 45.65088,0 14.9294,-7.050816 32.23075,-7.050816 47.16035,0 7.9899,3.773254 16.52318,5.929072 25.13453,6.470797"
         style="fill:#465532;fill-opacity:1;fill-rule:evenodd;stroke:none;stroke-width:0.0209242"
         id="path1211" />
      <path
         d="m 345.45299,116.14127 c 3.43428,-0.78403 6.68025,-2.33806 9.46191,-4.57612 l -3.92202,-2.89987 4.91173,2.05663 c 1.80743,-1.62916 3.38595,-3.5684 4.64914,-5.78992 l -4.14696,-3.12251 4.73807,2.01561 c 1.48813,-2.97227 2.28178,-6.115908 2.44059,-9.243861 l -3.8898,-1.177413 3.91178,-0.608477 c -0.0735,-2.809484 -0.65431,-5.576916 -1.69946,-8.165026 -2.91244,0.664768 -5.68992,1.883802 -8.16315,3.603769 l 1.37723,3.955092 -2.81682,-2.868071 c -2.37091,1.937997 -4.39721,4.377112 -5.90458,7.263398 -0.0444,0.08475 -0.0877,0.16969 -0.13083,0.254643 l 4.11705,3.294096 -4.84563,-1.715773 c -1.21945,2.919953 -1.80031,5.971123 -1.79571,8.985243 l 4.29428,2.14139 -4.27022,-1.12343 c 0.12004,2.65654 0.69323,5.26934 1.68335,7.7206"
         style="fill:#343d24;fill-opacity:1;fill-rule:evenodd;stroke:none;stroke-width:0.0209242"
         id="path1213" />
      <path
         d="m 345.45299,116.14127 c 3.43428,-0.78403 6.68025,-2.33806 9.46191,-4.57612 l -3.92202,-2.89987 4.91173,2.05663 c 1.80743,-1.62916 3.38595,-3.5684 4.64914,-5.78992 l -4.14696,-3.12251 4.73807,2.01561 c 1.48813,-2.97227 2.28178,-6.115908 2.44059,-9.243861 l -3.8898,-1.177413 3.91178,-0.608477 c -0.0735,-2.809484 -0.65431,-5.576916 -1.69946,-8.165026 l -16.45498,31.510957"
         style="fill:#343d24;fill-opacity:1;fill-rule:evenodd;stroke:none;stroke-width:0.0209242"
         id="path1215" />
      <path
         d="m 427.04781,103.12958 c 0.71289,-3.449563 0.6474,-7.048093 -0.2333,-10.507906 l -4.26664,2.363593 3.91093,-3.614017 c -0.73151,-2.320909 -1.83986,-4.562104 -3.33636,-6.63401 l -4.56252,2.475328 3.80131,-3.472989 c -2.08593,-2.58791 -4.61587,-4.615868 -7.39523,-6.059014 l -2.68667,3.049283 1.07112,-3.811131 c -2.58623,-1.099983 -5.34508,-1.720803 -8.13344,-1.844883 -0.60472,2.925407 -0.64928,5.957949 -0.11203,8.922268 l 4.16957,0.390031 -3.7789,1.370741 c 0.77858,2.962023 2.15559,5.818383 4.15532,8.38808 0.0589,0.07551 0.11773,0.150243 0.17723,0.224933 l 4.70626,-2.3772 -3.57302,3.695209 c 2.14976,2.322173 4.68409,4.117878 7.42788,5.365594 l 3.73141,-3.017271 -2.79526,3.417961 c 2.46654,0.99412 5.08102,1.55781 7.72226,1.6754"
         style="fill:#343d24;fill-opacity:1;fill-rule:evenodd;stroke:none;stroke-width:0.0209242"
         id="path1217" />
      <path
         d="m 427.04781,103.12958 c 0.71289,-3.449563 0.6474,-7.048093 -0.2333,-10.507906 l -4.26664,2.363593 3.91093,-3.614017 c -0.73151,-2.320909 -1.83986,-4.562104 -3.33636,-6.63401 l -4.56252,2.475328 3.80131,-3.472989 c -2.08593,-2.58791 -4.61587,-4.615868 -7.39523,-6.059014 l -2.68667,3.049283 1.07112,-3.811131 c -2.58623,-1.099983 -5.34508,-1.720803 -8.13344,-1.844883 l 21.8308,28.055746"
         style="fill:#343d24;fill-opacity:1;fill-rule:evenodd;stroke:none;stroke-width:0.0209242"
         id="path1219" />
      <path
         d="m 350.80707,138.71656 h -8.898 c 1.9562,-2.39059 4.21454,-4.53424 6.72419,-6.36927 z m 41.89791,0 c 0.91836,-1.05708 1.77584,-2.1663 2.56782,-3.32171 -3.3826,-3.21585 -7.36908,-5.77721 -11.74516,-7.51014 l -3.95759,5.21037 1.29897,-6.1446 c -4.57172,-1.41116 -9.49726,-1.94071 -14.55653,-1.40796 -0.14854,0.0154 -0.29669,0.0324 -0.44484,0.0501 l -0.72899,8.20472 -1.95474,-7.78902 c -4.8542,0.93621 -9.32758,2.81708 -13.24646,5.42778 l 0.90413,7.28055 h 41.86339 v 0"
         style="fill:#343d24;fill-opacity:1;fill-rule:evenodd;stroke:none;stroke-width:0.0209242"
         id="path1221" />
      <path
         d="m 392.70498,138.71656 c 0.91836,-1.05708 1.77584,-2.1663 2.56782,-3.32171 l -31.5482,3.32171 h 28.98038"
         style="fill:#343d24;fill-opacity:1;fill-rule:evenodd;stroke:none;stroke-width:0.0209242"
         id="path1223" />
      <path
         d="m 422.59746,138.71656 c 0.10278,-0.33788 0.20087,-0.67734 0.29356,-1.01923 l -7.21737,-0.0595 7.6685,-1.81076 c 0.74636,-3.52278 0.94891,-7.21679 0.52854,-10.97498 l -7.68022,-0.13051 7.42516,-1.70892 c -0.80434,-4.85227 -2.58853,-9.30577 -5.11973,-13.18783 l -5.68029,1.97399 4.15325,-4.13107 c -2.53182,-3.29911 -5.63467,-6.10651 -9.13737,-8.295173 -2.90763,3.329243 -5.17205,7.203983 -6.63631,11.414563 l 5.08876,3.53638 -5.86651,-0.98302 c -1.1523,4.38215 -1.45633,9.06454 -0.74972,13.83067 0.0205,0.14023 0.0427,0.27954 0.065,0.41891 l 7.79321,0.36158 -7.29249,2.16124 c 0.72648,3.06368 1.85031,5.94747 3.30727,8.6036 h 19.05668"
         style="fill:#343d24;fill-opacity:1;fill-rule:evenodd;stroke:none;stroke-width:0.0209242"
         id="path1225" />
      <path
         d="m 422.59746,138.71656 c 0.10278,-0.33788 0.20087,-0.67734 0.29356,-1.01923 l -7.21737,-0.0595 7.6685,-1.81076 c 0.74636,-3.52278 0.94891,-7.21679 0.52854,-10.97498 l -7.68022,-0.13051 7.42516,-1.70892 c -0.80434,-4.85227 -2.58853,-9.30577 -5.11973,-13.18783 l -5.68029,1.97399 4.15325,-4.13107 c -2.53182,-3.29911 -5.63467,-6.10651 -9.13737,-8.295173 l 5.83282,39.343923 h 8.93315"
         style="fill:#343d24;fill-opacity:1;fill-rule:evenodd;stroke:none;stroke-width:0.0209242"
         id="path1227" />
      <path
         d="m 393.17494,0.61707618 h 6.74387 L 429.86526,81.99847 v 56.71809 h -5.49532 z m -15.97958,0 h 4.04715 L 389.15918,138.71656 h -9.09782 z m -38.01376,0 h 9.14197 L 351.82419,138.71656 h -14.06836 z m -25.45508,0 h 7.49586 L 308.2254,138.71656 H 296.62263 L 313.72652,0.61707618 v 0"
         style="fill:#3d4b2b;fill-opacity:1;fill-rule:evenodd;stroke:none;stroke-width:0.0209242"
         id="path1229" />
      <path
         d="M 356.8665,13.242926 C 350.37226,7.0234278 340.06732,2.5730671 329.42948,0.61707618 H 306.9102 c -1.49256,0.33583415 -2.92922,0.74845872 -4.29238,1.24477872 2.01935,3.7058791 4.6212,6.209037 7.62424,7.8741819 l 2.06502,-3.7000205 0.38495,4.8443627 c 3.63892,1.418449 7.73524,1.876899 12.02763,1.900543 l 0.77105,-4.3890539 1.76203,4.3564119 c 4.42148,-0.127221 8.99069,-0.592782 13.43372,-0.846174 l -0.61851,-4.698311 2.30355,4.613777 c 5.20906,-0.224934 10.19236,-0.05503 14.495,1.425354"
         style="fill:#343d24;fill-opacity:1;fill-rule:evenodd;stroke:none;stroke-width:0.0209242"
         id="path1231" />
      <path
         d="m 301.51219,130.50546 c 5.96697,-1.36253 11.60711,-4.0628 16.44017,-7.95136 l -6.81458,-5.03853 8.53434,3.57346 c 3.1405,-2.83081 5.88324,-6.20007 8.07798,-10.06037 l -7.20523,-5.42543 8.23262,3.50208 c 2.58559,-5.16429 3.9647,-10.62676 4.24027,-16.061184 l -6.7583,-2.045956 6.7968,-1.056879 c -0.1276,-4.882023 -1.13701,-9.690603 -2.95323,-14.187422 -5.06031,1.155223 -9.88604,3.272957 -14.18324,6.261767 l 2.39247,6.871703 -4.89416,-4.983294 c -4.11952,3.367526 -7.6405,7.605306 -10.2593,12.620405 -0.0769,0.147469 -0.1524,0.295031 -0.22729,0.442963 l 7.15319,5.722767 -8.4191,-2.980869 c -2.11873,5.073699 -3.12817,10.375249 -3.12023,15.611939 l 7.46158,3.72111 -7.41957,-1.95197 c 0.20883,4.61607 1.20461,9.15536 2.92481,13.41507"
         style="fill:#343d24;fill-opacity:1;fill-rule:evenodd;stroke:none;stroke-width:0.0209242"
         id="path1233" />
      <path
         d="m 301.51219,130.50546 c 5.96697,-1.36253 11.60711,-4.0628 16.44017,-7.95136 l -6.81458,-5.03853 8.53434,3.57346 c 3.1405,-2.83081 5.88324,-6.20007 8.07798,-10.06037 l -7.20523,-5.42543 8.23262,3.50208 c 2.58559,-5.16429 3.9647,-10.62676 4.24027,-16.061184 l -6.7583,-2.045956 6.7968,-1.056879 c -0.1276,-4.882023 -1.13701,-9.690603 -2.95323,-14.187422 l -28.59084,54.751591"
         style="fill:#343d24;fill-opacity:1;fill-rule:evenodd;stroke:none;stroke-width:0.0209242"
         id="path1235" />
      <path
         d="m 402.2328,138.71656 c 0.50825,-1.2592 0.94389,-2.55168 1.30212,-3.87243 l -7.21737,-0.0596 7.66848,-1.8105 c 0.74638,-3.52279 0.94913,-7.21695 0.52855,-10.97497 l -7.68001,-0.13083 7.42495,-1.70867 c -0.80433,-4.8525 -2.58852,-9.30599 -5.11973,-13.18826 l -5.68028,1.9744 4.15324,-4.13106 c -2.53183,-3.29932 -5.63467,-6.10671 -9.13738,-8.29559 -2.90761,3.329449 -5.17181,7.2044 -6.63609,11.41476 l 5.08854,3.53639 -5.86651,-0.98301 c -1.15229,4.38214 -1.45631,9.06451 -0.7497,13.83089 0.0207,0.13976 0.0427,0.27929 0.065,0.41864 l 7.7932,0.3616 -7.29248,2.16124 c 0.99535,4.19782 2.73646,8.05751 5.05903,11.45704 h 5.75019 l 1.86057,-0.31133 -0.80035,0.31133 h 9.48596"
         style="fill:#343d24;fill-opacity:1;fill-rule:evenodd;stroke:none;stroke-width:0.0209242"
         id="path1237" />
      <path
         d="m 402.2328,138.71656 c 0.50825,-1.2592 0.94389,-2.55168 1.30212,-3.87243 l -7.21737,-0.0596 7.66848,-1.8105 c 0.74638,-3.52279 0.94913,-7.21695 0.52855,-10.97497 l -7.68001,-0.13083 7.42495,-1.70867 c -0.80433,-4.8525 -2.58852,-9.30599 -5.11973,-13.18826 l -5.68028,1.9744 4.15324,-4.13106 c -2.53183,-3.29932 -5.63467,-6.10671 -9.13738,-8.29559 l 6.25612,42.19755 h 7.50131"
         style="fill:#343d24;fill-opacity:1;fill-rule:evenodd;stroke:none;stroke-width:0.0209242"
         id="path1239" />
      <path
         d="m 319.50619,138.23343 c 0.46326,0.1718 0.93029,0.33266 1.40087,0.48313 h 12.55742 l -1.83651,-4.95837 3.35499,4.95837 h 5.7054 c 1.65782,-0.53357 3.2922,-1.20772 4.88829,-2.02735 l -2.44477,-6.78155 3.97349,5.94499 c 3.98919,-2.32274 7.30169,-5.37203 9.86428,-8.88624 l -3.62491,-4.32566 5.00821,2.2671 c 2.05098,-3.32066 3.4799,-6.97838 4.23316,-10.78053 -3.8898,-1.44168 -8.04388,-2.13698 -12.22578,-2.01876 l -1.40694,5.64304 -1.09244,-5.4746 c -4.22857,0.44923 -8.43789,1.74297 -12.38398,3.9509 -0.11572,0.0649 -0.231,0.13052 -0.34587,0.1969 l 2.27989,6.95769 -4.32627,-5.67797 c -3.63724,2.46587 -6.63233,5.57018 -8.91829,9.07587 l 3.36188,5.75372 -4.10805,-4.55245 c -1.88024,3.17875 -3.20076,6.65028 -3.91407,10.25177"
         style="fill:#343d24;fill-opacity:1;fill-rule:evenodd;stroke:none;stroke-width:0.0209242"
         id="path1241" />
      <path
         d="m 319.50619,138.23343 c 0.46326,0.1718 0.93029,0.33266 1.40087,0.48313 h 12.55742 l -1.83651,-4.95837 3.35499,4.95837 h 5.7054 c 1.65782,-0.53357 3.2922,-1.20772 4.88829,-2.02735 l -2.44477,-6.78155 3.97349,5.94499 c 3.98919,-2.32274 7.30169,-5.37203 9.86428,-8.88624 l -3.62491,-4.32566 5.00821,2.2671 c 2.05098,-3.32066 3.4799,-6.97838 4.23316,-10.78053 l -43.07992,24.10611"
         style="fill:#343d24;fill-opacity:1;fill-rule:evenodd;stroke:none;stroke-width:0.0209242"
         id="path1243" />
      <path
         d="m 398.87447,76.197461 c 2.39289,-14.964126 16.44535,-32.462377 30.99079,-39.665521 v 14.790246 c -1.64716,1.821659 -3.56967,3.499567 -5.64786,5.092314 l -3.26542,-3.032539 1.227,4.536359 c -3.60106,2.56907 -7.52413,4.957354 -11.21829,7.43875 l -2.34455,-4.118504 0.95037,5.068669 c -4.28757,2.96663 -8.15686,6.11174 -10.69204,9.890226"
         style="fill:#343d24;fill-opacity:1;fill-rule:evenodd;stroke:none;stroke-width:0.0209242"
         id="path1245" />
      <path
         d="m 408.46758,0.61707618 h 7.31237 L 429.86526,43.562041 V 94.967269 Z M 291.76577,103.12958 309.66459,0.61707618 h -6.37573 L 291.76577,39.590007 v 63.539573 0"
         style="fill:#945e42;fill-opacity:1;fill-rule:evenodd;stroke:none;stroke-width:0.0209242"
         id="path1247" />
      <path
         d="m 421.87348,19.195852 -8.89779,1.299181 1.49879,6.609107 9.28071,-2.170882 z m -5.90019,-17.9887134 -6.7675,2.6651106 0.99012,4.3662446 7.49001,-1.8099393 z m -108.67608,12.9687974 1.24802,-7.1474862 -6.69958,-1.5303931 -2.253,7.6205813 z m -3.15643,18.07806 1.21687,-6.969422 -9.68559,1.093497 -1.84902,6.254024 z m -12.37501,20.170895 v -4.998574 l 9.66362,0.356547 -1.05195,6.024485 z m 0,22.314783 v -6.923178 l 5.80891,2.043873 -1.12761,6.458034 z m 138.09949,-7.290187 v 9.047817 l -4.06222,0.558048 -1.94741,-8.586231 z m 0,-23.887236 v 4.813604 l -10.07666,2.159373 -2.03153,-8.957215 9.93395,-4.644329 z m -137.6896,57.219639 1.45611,-8.340169 -1.866,-1.0123 v 9.971609 l 0.40989,-0.61914 v 0"
         style="fill:#a96f4e;fill-opacity:1;fill-rule:evenodd;stroke:none;stroke-width:0.0209242"
         id="path1249" />
      <path
         d="M 323.19365,48.46813 C 321.71076,31.84702 309.01294,11.959648 294.02036,0.61707618 h -2.25459 V 20.180125 c 0.59193,0.560977 1.19954,1.115258 1.82024,1.663262 l 4.29558,-3.465252 -1.90638,5.499081 c 4.22781,3.484082 8.86898,6.772941 13.21933,10.156798 l 3.25151,-4.88642 -1.61076,6.180371 c 5.0416,4.034387 9.55139,8.253535 12.35836,13.140165"
         style="fill:#5f912e;fill-opacity:1;fill-rule:evenodd;stroke:none;stroke-width:0.0209242"
         id="path1251" />
      <path
         d="m 312.76149,138.71656 -2.88888,-3.44177 4.69695,3.44177 h 6.60555 c 2.47489,-1.69086 4.80168,-3.67365 6.92902,-5.94434 l -5.9209,-7.18099 7.41552,5.49912 c 3.83958,-4.55812 6.54069,-9.70611 8.12757,-15.09241 l -6.2875,-3.68223 7.07425,0.57855 c 1.04914,-4.9289 1.19603,-9.99694 0.45825,-14.946754 -5.35596,-0.06102 -10.70816,0.900149 -15.74062,2.862414 l 0.74363,7.47161 -3.70859,-6.18016 c -4.94543,2.38515 -9.49994,5.78825 -13.3369,10.18839 -0.11264,0.12913 -0.22404,0.25925 -0.33479,0.3894 l 5.79698,7.4672 -7.7283,-5.02117 c -3.3494,4.57949 -5.64053,9.65522 -6.89523,14.91161 l 6.58906,5.53256 -6.97364,-3.74772 c -0.44005,2.27982 -0.68844,4.5868 -0.74672,6.89492 h 16.12529"
         style="fill:#5f912e;fill-opacity:1;fill-rule:evenodd;stroke:none;stroke-width:0.0209242"
         id="path1253" />
      <path
         d="m 312.76149,138.71656 -2.88888,-3.44177 4.69695,3.44177 h 6.60555 c 2.47489,-1.69086 4.80168,-3.67365 6.92902,-5.94434 l -5.9209,-7.18099 7.41552,5.49912 c 3.83958,-4.55812 6.54069,-9.70611 8.12757,-15.09241 l -6.2875,-3.68223 7.07425,0.57855 c 1.04914,-4.9289 1.19603,-9.99694 0.45825,-14.946754 l -35.54948,40.769054 h 9.33965"
         style="fill:#6ba02e;fill-opacity:1;fill-rule:evenodd;stroke:none;stroke-width:0.0209242"
         id="path1255" />
      <path
         d="M 340.30606,32.835687 C 335.56131,20.489383 323.06748,8.1016509 309.38717,0.61707618 h -17.6214 V 4.5993641 c 0.25942,0.4159716 0.53177,0.8214831 0.81661,1.2165299 l 4.04025,-2.8944386 -2.01232,5.3331506 c 3.15276,3.323595 7.27049,5.857092 11.81358,8.02672 l 3.01161,-4.272088 -0.30718,5.503264 c 4.75576,2.074632 9.83698,3.863857 14.678,5.815035 l 1.69151,-5.294859 0.13899,6.047082 c 5.64011,2.364223 10.84333,5.034773 14.6693,8.755927"
         style="fill:#6ba02e;fill-opacity:1;fill-rule:evenodd;stroke:none;stroke-width:0.0209242"
         id="path1257" />
      <path
         d="m 298.25619,138.71656 c 2.9713,-2.34646 5.66438,-5.06299 8.00004,-8.10312 l -8.89775,-3.74642 10.40775,1.66243 c 2.71579,-3.97773 4.84662,-8.44439 6.23878,-13.30758 l -9.43421,-4.06934 10.05483,1.66431 c 1.47431,-6.412 1.53353,-12.829233 0.37789,-18.919425 l -8.03119,-0.448603 7.23984,-2.996756 c -1.45319,-5.369565 -3.86279,-10.421709 -7.0816,-14.911614 -5.29144,2.638956 -10.06438,6.279755 -14.01845,10.7431 l 4.49526,6.964391 -5.84161,-3.632431 v 20.916208 l 0.44309,0.20674 -0.44309,-0.0455 v 19.16926 l 0.32318,0.0737 -0.32318,-0.006 v 8.78667 h 6.49042"
         style="fill:#5f912e;fill-opacity:1;fill-rule:evenodd;stroke:none;stroke-width:0.0209242"
         id="path1259" />
      <path
         d="m 298.25619,138.71656 c 2.9713,-2.34646 5.66438,-5.06299 8.00004,-8.10312 l -8.89775,-3.74642 10.40775,1.66243 c 2.71579,-3.97773 4.84662,-8.44439 6.23878,-13.30758 l -9.43421,-4.06934 10.05483,1.66431 c 1.47431,-6.412 1.53353,-12.829233 0.37789,-18.919425 l -8.03119,-0.448603 7.23984,-2.996756 c -1.45319,-5.369565 -3.86279,-10.421709 -7.0816,-14.911614 l -15.3648,61.954348 v 1.22177 h 6.49042"
         style="fill:#6ba02e;fill-opacity:1;fill-rule:evenodd;stroke:none;stroke-width:0.0209242"
         id="path1261" />
      <path
         d="m 398.58678,138.71656 c -0.4798,-0.7987 -0.92988,-1.62333 -1.34774,-2.47346 l 6.16259,-4.08438 -6.90853,2.46006 c -1.8612,-4.35304 -2.72078,-8.89008 -2.67851,-13.35043 l 5.63048,-1.34103 -5.50911,-1.19964 c 0.34503,-3.98811 1.40757,-7.87291 3.11498,-11.46265 4.08356,1.19436 7.92775,3.16478 11.29674,5.82173 l -2.29621,5.50467 4.24991,-3.83659 c 3.20474,2.95826 5.87697,6.59925 7.7727,10.83156 0.0558,0.1245 0.11048,0.24881 0.16446,0.37354 l -6.13497,4.33024 7.03554,-2.02417 c 1.19895,3.43868 1.7978,6.96359 1.84404,10.45055 h -22.39637"
         style="fill:#5f912e;fill-opacity:1;fill-rule:evenodd;stroke:none;stroke-width:0.0209242"
         id="path1263" />
      <path
         d="m 398.58678,138.71656 c -0.4798,-0.7987 -0.92988,-1.62333 -1.34774,-2.47346 l 6.16259,-4.08438 -6.90853,2.46006 c -1.8612,-4.35304 -2.72078,-8.89008 -2.67851,-13.35043 l 5.63048,-1.34103 -5.50911,-1.19964 c 0.34503,-3.98811 1.40757,-7.87291 3.11498,-11.46265 l 14.08824,31.45153 h -12.5524"
         style="fill:#6ba02e;fill-opacity:1;fill-rule:evenodd;stroke:none;stroke-width:0.0209242"
         id="path1265" />
      <path
         d="m 411.74178,138.71656 c -0.52582,-1.70932 -0.93844,-3.47406 -1.22825,-5.28669 l 8.25627,-2.43685 -8.53079,0.3741 c -0.58189,-5.48149 0.0139,-10.82533 1.58689,-15.77511 l 6.72546,0.43418 -5.72089,-3.22003 c 1.74823,-4.32062 4.26017,-8.28052 7.38895,-11.69179 3.695,2.436 6.96503,5.49552 9.64584,9.05033 v 2.41926 l -3.50418,4.21622 3.50418,-1.63314 v 16.4715 l -0.77148,0.25258 0.77148,0.0139 v 6.81147 h -18.12348"
         style="fill:#5f912e;fill-opacity:1;fill-rule:evenodd;stroke:none;stroke-width:0.0209242"
         id="path1267" />
      <path
         d="m 411.74178,138.71656 c -0.52582,-1.70932 -0.93844,-3.47406 -1.22825,-5.28669 l 8.25627,-2.43685 -8.53079,0.3741 c -0.58189,-5.48149 0.0139,-10.82533 1.58689,-15.77511 l 6.72546,0.43418 -5.72089,-3.22003 c 1.74823,-4.32062 4.26017,-8.28052 7.38895,-11.69179 l 4.64329,37.60219 h -13.12093"
         style="fill:#6ba02e;fill-opacity:1;fill-rule:evenodd;stroke:none;stroke-width:0.0209242"
         id="path1269" />
      <path
         d="m 338.22557,138.71656 c 2.62389,-16.14299 6.74448,-30.10716 15.30708,-37.60219 -9.8559,5.01741 -16.48635,18.57854 -21.05453,37.60219 z m 16.26645,0 h -4.26058 c 0.87086,-14.06275 3.87098,-24.65913 10.6958,-29.02955 -5.13793,7.18264 -6.56704,17.4558 -6.43522,29.02955 z m 39.49269,0 h -6.10148 c -1.27471,-12.97593 -4.2472,-23.90167 -10.01453,-31.45153 7.31866,4.49221 12.36995,15.96243 16.11601,31.45153 v 0"
         style="fill:#6ba02e;fill-opacity:1;fill-rule:evenodd;stroke:none;stroke-width:0.0209242"
         id="path1271" />
      <path
         d="M 363.11759,17.260367 C 368.51665,10.470894 377.101,4.6650658 386.68489,0.61707618 h 35.02978 C 420.29706,2.707819 418.62543,4.4146037 416.75146,5.814011 l -2.98483,-3.9739175 0.31845,5.6913733 c -4.00529,2.2236116 -8.69336,3.4039432 -13.67853,4.1099252 l -1.59003,-4.9791147 -1.35923,5.3417287 c -5.15886,0.551143 -10.54306,0.732347 -15.7467,1.140159 l -0.0239,-5.5585044 -1.94783,5.7265254 c -6.08956,0.562023 -11.85458,1.547342 -16.62132,3.948181"
         style="fill:#5f912e;fill-opacity:1;fill-rule:evenodd;stroke:none;stroke-width:0.0209242"
         id="path1273" />
      <path
         d="M 382.11297,32.590665 C 386.80605,20.379322 399.07996,8.1250857 412.58482,0.61707618 h 17.28044 V 5.5311163 l -0.0287,0.039972 -4.04003,-2.8944401 2.01227,5.3331506 c -3.15285,3.3235952 -7.2703,5.8570922 -11.81357,8.0267202 l -3.01162,-4.272088 0.30718,5.503474 c -4.75545,2.074423 -9.83709,3.863439 -14.6781,5.814825 l -1.69129,-5.294859 -0.139,6.047084 c -5.64009,2.364221 -10.84353,5.034563 -14.6695,8.755716"
         style="fill:#6ba02e;fill-opacity:1;fill-rule:evenodd;stroke:none;stroke-width:0.0209242"
         id="path1275" />
      <path
         d="M 291.76577,75.275543 C 317.53995,71.554807 340.55402,59.569027 358.05583,42.067637 369.92255,30.1915 379.00426,16.078151 384.8555,0.61707618 h 3.19469 C 386.15928,5.7552143 383.9137,10.772201 381.317,15.650043 c -0.69928,1.389574 -0.0744,3.894615 -0.47665,5.497824 -0.19208,0.766034 -0.52372,-0.388353 -0.59445,-0.588177 -0.0912,-0.258206 -0.46494,-1.423681 -0.892,-1.184309 -0.2672,0.149396 -0.70304,1.013566 -0.87965,1.312154 l -0.0356,0.06005 c -1.23139,2.059566 -2.50169,4.031668 -3.84294,6.02051 -0.75158,1.134927 -0.72334,1.736288 -0.8039,3.028564 -0.0205,0.325788 -0.0994,2.558398 -0.43438,2.660925 -0.44527,0.136636 -0.76813,-2.602546 -1.42849,-1.90368 -0.30006,0.317839 -0.63463,0.823785 -0.90707,1.186609 -2.43829,3.21165 -5.04022,6.298383 -7.77897,9.257688 -0.42079,0.454682 -0.54989,0.895973 -0.67899,1.491056 -0.11403,0.527707 -0.48943,3.218346 -0.72817,3.524467 -0.1994,0.255902 -0.47309,-0.818763 -0.50679,-0.923175 -0.0971,-0.299844 -0.40467,-1.442721 -0.89951,-1.124464 -0.0788,0.05085 -0.13283,0.101487 -0.2013,0.164672 l -0.0546,0.05461 c -3.73831,3.735381 -7.69925,7.210257 -11.89204,10.427139 -0.76561,0.670828 -0.78214,1.250218 -0.85643,2.199338 -0.12528,1.604046 -0.0929,3.179218 -0.2582,4.786613 -0.0908,0.883417 -0.35718,3.789157 -0.74217,0.962928 -0.19315,-1.417193 -0.3055,-2.921641 -0.5637,-4.315608 -0.0479,-0.258832 -0.2511,-1.453182 -0.64028,-1.33245 -0.0285,0.0088 -0.0567,0.02302 -0.0835,0.03578 -0.21637,0.122614 -0.60031,0.416182 -0.82421,0.572484 -1.38036,0.96314 -2.76575,1.911634 -4.18106,2.82309 -5.12768,3.295555 -10.54599,6.236238 -16.11768,8.709892 -0.46557,0.227445 -0.62103,0.701797 -0.76101,1.167568 -0.26135,0.871284 -0.40635,1.825843 -0.67229,2.67641 -0.22681,0.724813 -0.36827,0.505947 -0.52562,-0.07637 -0.13961,-0.51641 -0.44965,-2.161048 -0.87086,-2.402722 -0.22683,-0.130149 -0.71079,0.141861 -0.93426,0.235187 -0.0522,0.02156 -0.10479,0.0431 -0.15735,0.06444 -9.01953,3.640804 -18.40942,6.156726 -28.0369,7.536464 l -0.0797,0.01156 -0.21055,0.02992 v -3.021449"
         style="fill:#343d24;fill-opacity:1;fill-rule:evenodd;stroke:none;stroke-width:0.0209242"
         id="path1277" />
      <path
         d="m 311.65148,0.61707618 5.46287,10.54075782 c 6.15296,11.873208 15.36043,21.53787 26.37386,28.234649 11.00716,6.693012 23.82426,10.418769 37.20338,10.418769 6.10064,-0.004 11.78134,-0.743644 17.6966,-2.217124 0.50826,-0.126589 0.919,-0.199826 1.42996,-0.365964 0.87317,-0.283732 1.77585,-0.524777 2.65821,-0.806627 5.41016,-1.727708 10.5644,-4.081676 15.41839,-7.029054 4.28862,-2.607569 8.30355,-5.665635 11.97051,-9.128586 v 4.029367 c -2.33912,2.045757 -4.81926,3.960317 -7.43771,5.741382 -0.56243,0.382702 -0.67522,0.833409 -0.81771,1.474107 -0.13976,0.627725 -0.47457,2.902809 -0.70096,3.268354 -0.22662,0.365755 -0.5185,-0.968789 -0.55094,-1.091822 -0.0894,-0.339808 -0.41533,-1.764325 -0.87922,-1.718502 -0.14023,0.01387 -1.23076,0.681919 -1.44378,0.804744 -1.09935,0.634001 -2.20352,1.245825 -3.33258,1.825842 -4.06244,2.083001 -8.26234,3.766559 -12.63401,5.081015 -0.81353,0.307167 -0.75579,0.894508 -0.79262,1.654264 -0.0481,0.994945 -0.0317,1.776462 -0.21467,2.774964 -0.0316,0.172204 -0.32726,1.960384 -0.58211,1.884221 -0.30006,-0.08956 -0.48628,-1.594004 -0.55157,-1.922304 -0.11034,-0.554072 -0.23247,-1.116304 -0.34609,-1.671841 -0.0732,-0.357384 -0.28708,-1.630201 -0.6748,-1.767882 -0.0943,-0.03369 -0.17702,-0.02364 -0.27369,-0.01156 -0.51557,0.107759 -1.06358,0.25695 -1.58605,0.374333 -5.38002,1.209627 -10.84102,1.810778 -16.35516,1.814126 -4.25807,-0.01032 -8.46466,-0.361569 -12.66206,-1.082198 -0.4281,-0.07366 -0.58775,-0.07407 -0.7859,0.366382 -0.23644,0.525615 -0.44778,1.760769 -0.62501,2.05852 -0.1128,0.189572 -0.20171,0.03746 -0.26637,-0.09666 -0.20547,-0.426434 -0.31574,-0.983227 -0.52477,-1.458624 -0.25486,-0.57918 -0.57584,-1.244569 -1.19771,-1.495658 -0.39692,-0.16007 -0.94702,-0.255067 -1.37116,-0.35634 -3.15431,-0.758501 -6.23749,-1.719966 -9.26751,-2.878745 -0.70285,-0.269294 -0.79846,-0.132029 -0.93929,0.580017 -0.0556,0.28143 -0.18308,1.725616 -0.47143,1.777926 -0.27515,0.0498 -0.62855,-0.712257 -0.71434,-0.912711 -0.30215,-0.705563 -0.4051,-1.363628 -0.79303,-2.081328 -0.49736,-0.919826 -0.8062,-0.904551 -1.71034,-1.321151 l -0.051,-0.02344 c -2.53517,-1.176148 -4.99083,-2.48893 -7.37954,-3.939602 -1.17049,-0.715397 -2.27278,-1.44272 -3.41105,-2.205407 -0.60951,-0.408439 -0.81458,-0.15463 -1.02277,0.469119 -0.0971,0.291265 -0.34546,1.343332 -0.48544,1.517212 -0.19481,0.241674 -0.33647,-0.231421 -0.3848,-0.370567 -0.44381,-1.275955 -0.55156,-3.128163 -1.5511,-4.103228 -0.27745,-0.270341 -0.63987,-0.522267 -0.94683,-0.765824 -2.20581,-1.765582 -4.29113,-3.646246 -6.29503,-5.63718 -1.02759,-1.022355 -1.19812,0.958745 -1.66033,0.857263 -0.38752,-0.08537 -0.72146,-2.065425 -0.82441,-2.474701 -0.24711,-0.984063 -0.74197,-1.816008 -1.39189,-2.583506 l -0.0619,-0.07324 c -3.67763,-4.318329 -6.82546,-9.012246 -9.43847,-14.046392 L 308.28599,0.61702533 h 3.36552"
         style="fill:#5f912e;fill-opacity:1;fill-rule:evenodd;stroke:none;stroke-width:0.0209242"
         id="path1279" />
      <path
         d="m 429.86526,67.941623 c -4.39701,0.757245 -8.85574,1.011683 -13.38937,0.773984 -0.60011,-0.03139 -0.59928,0.682546 -0.79512,1.071736 -0.12743,0.253601 -0.30634,0.0013 -0.40698,-0.131613 -0.26051,-0.343365 -0.63296,-0.990131 -1.07676,-1.096217 -0.21468,-0.05127 -0.6907,-0.08034 -0.93594,-0.107343 -2.55421,-0.278919 -5.0764,-0.721465 -7.5737,-1.324708 -1.13556,-0.276408 -2.26191,-0.582738 -3.37947,-0.924429 -0.55992,-0.170951 -0.76812,0.05629 -1.05854,0.512642 -0.0929,0.146051 -0.35823,0.690914 -0.55533,0.631281 -0.17871,-0.0542 -0.56392,-1.035537 -0.68255,-1.260262 -0.49423,-0.936566 -0.95436,-0.968162 -1.87941,-1.326801 -3.88751,-1.50675 -7.59965,-3.413779 -11.08918,-5.695139 l -0.0655,-0.04268 c -0.4915,-0.322022 -0.63714,0.02093 -0.92149,0.371824 -0.20505,0.252762 -0.31281,0.0272 -0.40928,-0.180368 -0.30674,-0.660157 -0.45969,-1.39606 -1.0799,-1.858484 -1.0598,-0.790306 -2.06081,-1.552364 -3.07773,-2.40042 -0.57772,-0.48251 -1.12259,-0.977995 -1.69026,-1.463854 -1.09663,-0.938239 -1.40065,1.617437 -1.87939,-0.157559 -0.25989,-0.963977 -0.46935,-2.053916 -1.18034,-2.803419 -1.73902,-1.832539 -3.28698,-3.654824 -4.81737,-5.6648 -0.2128,-0.279965 -0.42749,-0.562232 -0.72984,-0.159233 -0.26845,0.357594 -0.42894,1.422634 -0.54758,1.908493 -0.16656,0.682546 -0.23603,1.281396 -0.36178,1.957037 -0.0139,0.07427 -0.12729,0.812068 -0.24294,0.771684 -0.25945,-0.09019 -0.4055,-2.444151 -0.41491,-2.773081 -0.0331,-1.152711 -0.18225,-2.319024 -0.24105,-3.47885 -0.0661,-1.300228 -0.39045,-2.363385 -0.99998,-3.508355 -0.0525,-0.09751 -0.10648,-0.192921 -0.16132,-0.288963 -1.10815,-1.895938 -2.08425,-3.786227 -2.98608,-5.78888 -0.5614,-1.298344 -0.89577,-2.022739 -1.363,-0.120518 -0.0643,0.261971 -0.3306,1.916653 -0.50825,1.918956 -0.26323,0.0034 -0.34965,-3.177545 -0.36282,-3.434283 -0.0729,-1.448371 -0.0472,-2.867867 -0.36304,-4.289245 -0.0165,-0.07386 -0.0328,-0.147731 -0.0495,-0.221588 -0.1584,-0.714351 -0.29545,-1.365511 -0.42623,-2.086557 -0.13406,-0.740297 -0.29293,-1.407988 -0.47038,-2.138659 -1.7687,-7.306718 -2.15937,-14.947177 -1.07466,-22.5158662 h 3.0181 c -1.10688,7.3286886 -0.75494,14.7360522 0.95854,21.8138612 2.40754,9.94672 7.50864,19.246883 15.02816,26.7664 7.5193,7.519308 16.81989,12.620619 26.7666,15.028362 7.61284,1.843001 15.60734,2.111249 23.47546,0.682548 v 3.033375"
         style="fill:#6ba02e;fill-opacity:1;fill-rule:evenodd;stroke:none;stroke-width:0.0209242"
         id="path1281" />
    </g>
    <path
       id="rect11700-7"
       style="fill:#7ac52e;fill-opacity:1;fill-rule:evenodd;stroke-width:0.159594;stroke-linecap:round;stroke-linejoin:round;stroke-miterlimit:10.8"
       d="m 36.82798,128.32003 c -4.71012,0 -8.50186,3.79174 -8.50186,8.50187 v 50.9795 c 0,4.71012 3.79174,8.50208 8.50186,8.50208 h 53.29641 c 4.71012,0 8.50208,-3.79196 8.50208,-8.50208 v -50.9795 c 0,-4.71013 -3.79196,-8.50187 -8.50208,-8.50187 z M 63.78687,140.8759 A 19.812124,18.726011 0 0 1 83.59892,159.60182 19.812124,18.726011 0 0 1 63.78687,178.32795 19.812124,18.726011 0 0 1 43.97481,159.60182 19.812124,18.726011 0 0 1 63.78687,140.8759 Z" />
    <path
       id="rect11700-7-5"
       style="fill:#61abf2;fill-opacity:1;fill-rule:evenodd;stroke-width:0.159594;stroke-linecap:round;stroke-linejoin:round;stroke-miterlimit:10.8"
       d="m 119.50326,173.63022 c -4.71011,0 -8.50185,3.79173 -8.50185,8.50185 v 50.97951 c 0,4.71011 3.79174,8.50208 8.50185,8.50208 h 53.29641 c 4.71012,0 8.50208,-3.79197 8.50208,-8.50208 v -50.97951 c 0,-4.71012 -3.79196,-8.50185 -8.50208,-8.50185 z m 26.95888,12.55586 a 19.812124,18.726011 0 0 1 19.81207,18.72591 19.812124,18.726011 0 0 1 -19.81207,18.72614 19.812124,18.726011 0 0 1 -19.81205,-18.72614 19.812124,18.726011 0 0 1 19.81205,-18.72591 z" />
    <path
       id="rect11700-3"
       style="fill:none;fill-opacity:1;fill-rule:nonzero;stroke:#002255;stroke-width:0.874484;stroke-linecap:round;stroke-linejoin:round;stroke-miterlimit:10.8;stroke-dasharray:none;stroke-opacity:1"
       d="m 116.60986,87.377303 c -4.71012,0 -8.50186,3.79174 -8.50186,8.50186 V 237.09444 c 0,4.71011 3.79174,8.50207 8.50186,8.50207 h 59.31212 c 4.71011,0 8.44035,-3.79237 8.50208,-8.50207 l 1.85099,-141.215277 c 0.0618,-4.70971 -3.79196,-8.50186 -8.50209,-8.50186 z"
       sodipodi:nodetypes="sssssssss" />
    <path
       id="rect11700-3-5"
       style="fill:none;fill-opacity:1;fill-rule:nonzero;stroke:#44aa00;stroke-width:0.874484;stroke-linecap:round;stroke-linejoin:round;stroke-miterlimit:10.8;stroke-dasharray:none;stroke-opacity:1"
       d="m 24.317055,71.462583 c -4.710134,0 -8.501868,3.79174 -8.501868,8.50186 V 242.00336 c 0,4.71012 3.791734,8.50208 8.501868,8.50208 H 184.04539 c 4.7101,0 8.44828,-3.79228 8.50207,-8.50208 l 1.85098,-162.038917 c 0.0538,-4.7098 -3.79193,-8.50186 -8.50207,-8.50186 z"
       sodipodi:nodetypes="sssssssss" />
    <text
       xml:space="preserve"
       style="font-style:normal;font-weight:normal;font-size:7.05556px;line-height:1.25;font-family:sans-serif;letter-spacing:0px;word-spacing:0px;fill:#44aa00;fill-opacity:1;stroke:#00ff00;stroke-width:0.115687"
       x="89.264999"
       y="79.858124"
       id="text22372"><tspan
         sodipodi:role="line"
         id="tspan22370"
         style="font-style:normal;font-variant:normal;font-weight:normal;font-stretch:normal;font-size:7.05556px;font-family:arial;-inkscape-font-specification:arial;fill:#44aa00;stroke:#00ff00;stroke-width:0.115687"
         x="89.264999"
         y="79.858124">Écosystème</tspan></text>
    <text
       xml:space="preserve"
       style="font-style:normal;font-weight:normal;font-size:7.05556px;line-height:1.25;font-family:sans-serif;letter-spacing:0px;word-spacing:0px;fill:#5599ff;fill-opacity:1;stroke:#5599ff;stroke-width:0.115687"
       x="131.16673"
       y="96.775337"
       id="text22372-6"><tspan
         sodipodi:role="line"
         id="tspan22370-2"
         style="font-style:normal;font-variant:normal;font-weight:normal;font-stretch:normal;font-size:7.05556px;font-family:arial;-inkscape-font-specification:arial;fill:#5599ff;stroke:#5599ff;stroke-width:0.115687"
         x="131.16673"
         y="96.775337">Biocénose</tspan></text>
    <text
       xml:space="preserve"
       style="font-style:normal;font-weight:normal;font-size:7.05556px;line-height:1.25;font-family:sans-serif;letter-spacing:0px;word-spacing:0px;fill:#ffffff;fill-opacity:1;stroke:none;stroke-width:0.115687"
       x="136.98561"
       y="109.88181"
       id="text22372-6-9"><tspan
         sodipodi:role="line"
         id="tspan22370-2-1"
         style="font-style:normal;font-variant:normal;font-weight:normal;font-stretch:normal;font-size:7.05556px;font-family:arial;-inkscape-font-specification:arial;fill:#ffffff;stroke:none;stroke-width:0.115687"
         x="136.98561"
         y="109.88181">Faune</tspan></text>
    <text
       xml:space="preserve"
       style="font-style:normal;font-weight:normal;font-size:7.05556px;line-height:1.25;font-family:sans-serif;letter-spacing:0px;word-spacing:0px;fill:#ffffff;fill-opacity:1;stroke:none;stroke-width:0.115687"
       x="119.40804"
       y="160.12698"
       id="text22372-6-9-3"><tspan
         sodipodi:role="line"
         id="tspan22370-2-1-6"
         style="font-style:normal;font-variant:normal;font-weight:normal;font-stretch:normal;font-size:7.05556px;font-family:arial;-inkscape-font-specification:arial;fill:#ffffff;stroke:none;stroke-width:0.115687"
         x="119.40804"
         y="160.12698">Écureuils, lapins...</tspan></text>
    <text
       xml:space="preserve"
       style="font-style:normal;font-weight:normal;font-size:7.05556px;line-height:1.25;font-family:sans-serif;letter-spacing:0px;word-spacing:0px;fill:#ffffff;fill-opacity:1;stroke:none;stroke-width:0.115687"
       x="122.11402"
       y="235.32556"
       id="text22372-6-9-3-0"><tspan
         sodipodi:role="line"
         id="tspan22370-2-1-6-6"
         style="font-style:normal;font-variant:normal;font-weight:normal;font-stretch:normal;font-size:7.05556px;font-family:arial;-inkscape-font-specification:arial;fill:#ffffff;stroke:none;stroke-width:0.115687"
         x="122.11402"
         y="235.32556">Arbres, plantes...</tspan></text>
    <text
       xml:space="preserve"
       style="font-style:normal;font-weight:normal;font-size:7.05556px;line-height:1.25;font-family:sans-serif;letter-spacing:0px;word-spacing:0px;fill:#ffffff;fill-opacity:1;stroke:none;stroke-width:0.115687"
       x="139.52924"
       y="182.29234"
       id="text22372-6-9-2"><tspan
         sodipodi:role="line"
         style="font-style:normal;font-variant:normal;font-weight:normal;font-stretch:normal;font-size:7.05556px;font-family:arial;-inkscape-font-specification:arial;fill:#ffffff;stroke:none;stroke-width:0.115687"
         x="139.52924"
         y="182.29234"
         id="tspan26329">Flore</tspan></text>
    <text
       xml:space="preserve"
       style="font-style:normal;font-weight:normal;font-size:7.05556px;line-height:1.25;font-family:sans-serif;letter-spacing:0px;word-spacing:0px;fill:#ffffff;fill-opacity:1;stroke:none;stroke-width:0.115687"
       x="52.903786"
       y="136.43484"
       id="text22372-6-9-2-0"><tspan
         sodipodi:role="line"
         style="font-style:normal;font-variant:normal;font-weight:normal;font-stretch:normal;font-size:7.05556px;font-family:arial;-inkscape-font-specification:arial;fill:#ffffff;stroke:none;stroke-width:0.115687"
         x="52.903786"
         y="136.43484"
         id="tspan26329-9">Biotope</tspan></text>
    <text
       xml:space="preserve"
       style="font-style:normal;font-weight:normal;font-size:7.05556px;line-height:1.25;font-family:sans-serif;letter-spacing:0px;word-spacing:0px;fill:#ffffff;fill-opacity:1;stroke:none;stroke-width:0.115687"
       x="29.550797"
       y="188.46249"
       id="text22372-6-9-3-2"><tspan
         sodipodi:role="line"
         id="tspan22370-2-1-6-61"
         style="font-style:normal;font-variant:normal;font-weight:normal;font-stretch:normal;font-size:7.05556px;font-family:arial;-inkscape-font-specification:arial;fill:#ffffff;stroke:none;stroke-width:0.115687"
         x="29.550797"
         y="188.46249">Pression, luminosité...</tspan></text>
  </g>
  <metadata
     id="metadata8369">
    <rdf:RDF>
      <cc:Work
         rdf:about="">
        <dc:date>été 2022 - V1 du TST</dc:date>
        <dc:creator>
          <cc:Agent>
            <dc:title>Paulhenry Saux</dc:title>
          </cc:Agent>
        </dc:creator>
        <dc:publisher>
          <cc:Agent>
            <dc:title>Paulhenry.eu</dc:title>
          </cc:Agent>
        </dc:publisher>
        <dc:language>FR</dc:language>
        <dc:contributor>
          <cc:Agent>
            <dc:title>bird, squirell, sun, forest, sensor from publicdomainvectors.org</dc:title>
          </cc:Agent>
        </dc:contributor>
        <cc:license
           rdf:resource="http://creativecommons.org/licenses/by-sa/4.0/" />
      </cc:Work>
      <cc:License
         rdf:about="http://creativecommons.org/licenses/by-sa/4.0/">
        <cc:permits
           rdf:resource="http://creativecommons.org/ns#Reproduction" />
        <cc:permits
           rdf:resource="http://creativecommons.org/ns#Distribution" />
        <cc:requires
           rdf:resource="http://creativecommons.org/ns#Notice" />
        <cc:requires
           rdf:resource="http://creativecommons.org/ns#Attribution" />
        <cc:permits
           rdf:resource="http://creativecommons.org/ns#DerivativeWorks" />
        <cc:requires
           rdf:resource="http://creativecommons.org/ns#ShareAlike" />
      </cc:License>
    </rdf:RDF>
  </metadata>
</svg>
