<?xml version="1.0" encoding="UTF-8" standalone="no"?>
<!-- Created with Inkscape (http://www.inkscape.org/) -->

<svg
   width="188.60971mm"
   height="62.706379mm"
   viewBox="0 0 188.60971 62.706379"
   version="1.1"
   id="svg5"
   xml:space="preserve"
   inkscape:version="1.2 (1:1.2+202206011327+fc4e4096c5)"
   sodipodi:docname="chap6-fig2.svg"
   xmlns:inkscape="http://www.inkscape.org/namespaces/inkscape"
   xmlns:sodipodi="http://sodipodi.sourceforge.net/DTD/sodipodi-0.dtd"
   xmlns="http://www.w3.org/2000/svg"
   xmlns:svg="http://www.w3.org/2000/svg"
   xmlns:rdf="http://www.w3.org/1999/02/22-rdf-syntax-ns#"
   xmlns:cc="http://creativecommons.org/ns#"
   xmlns:dc="http://purl.org/dc/elements/1.1/"><sodipodi:namedview
     id="namedview7"
     pagecolor="#ffffff"
     bordercolor="#666666"
     borderopacity="1.0"
     inkscape:showpageshadow="2"
     inkscape:pageopacity="0.0"
     inkscape:pagecheckerboard="0"
     inkscape:deskcolor="#d1d1d1"
     inkscape:document-units="mm"
     showgrid="true"
     inkscape:zoom="1.042298"
     inkscape:cx="328.60085"
     inkscape:cy="117.52877"
     inkscape:window-width="1366"
     inkscape:window-height="740"
     inkscape:window-x="0"
     inkscape:window-y="0"
     inkscape:window-maximized="1"
     inkscape:current-layer="layer1"><inkscape:grid
       type="xygrid"
       id="grid720"
       originx="-6.1873768"
       originy="-142.34574" /></sodipodi:namedview><defs
     id="defs2"><marker
       style="overflow:visible"
       id="TriangleStart"
       refX="0"
       refY="0"
       orient="auto-start-reverse"
       inkscape:stockid="TriangleStart"
       markerWidth="5.3244081"
       markerHeight="6.155385"
       viewBox="0 0 5.3244081 6.1553851"
       inkscape:isstock="true"
       inkscape:collect="always"
       preserveAspectRatio="xMidYMid"><path
         transform="scale(0.5)"
         style="fill:context-stroke;fill-rule:evenodd;stroke:context-stroke;stroke-width:1pt"
         d="M 5.77,0 -2.88,5 V -5 Z"
         id="path135" /></marker></defs><g
     inkscape:label="Calque 1"
     inkscape:groupmode="layer"
     id="layer1"
     transform="translate(-6.1873766,-142.34574)"><path
       style="fill:#000000;stroke:none;stroke-width:0.264583"
       d="m 50.535415,170.39167 c -23.707916,0.26459 -21.56306,0 -37.306248,0 v 0.26458 c 15.906996,3e-5 13.389388,0 37.835415,0 l 1.058333,-12.7 h 0.264584 v 30.69167 h 0.264583 c 1.24116,-4.19947 1.058333,-9.90309 1.058333,-14.2875 h 0.264584 v 1.5875 l 1.16787,-3.43958 1.477963,-8.73125 h 0.264583 V 174.625 h 0.264584 l 0.529166,-4.7625 h 0.264584 v 4.7625 c 1.372923,-1.03108 1.717939,-4.17936 1.852083,-5.82083 h 0.264583 v 5.02708 l 2.116667,-4.49791 0.264583,2.11666 1.058334,-2.38125 h 0.264583 l 0.529167,2.38125 1.058334,-1.5875 h 0.264583 l 0.264584,1.5875 0.529166,-0.52916 H 66.675 l 0.264583,1.32291 h 0.264583 v -2.38125 h 0.264584 l 0.79375,1.5875 v -1.05833 h 0.264583 l 0.529167,2.11667 h 0.264583 l 0.79375,-11.64167 h 0.264583 v 17.99166 l 0.264584,8.73125 h 0.264583 L 71.4375,167.21667 h 0.264583 l 0.264583,22.48958 h 0.529167 L 73.025,161.925 h 0.264583 l 0.79375,12.7 c 1.467115,-1.1168 1.318154,-5.38268 1.322917,-7.14375 h 0.264583 L 75.40625,174.625 c 1.504156,-1.05833 1.710266,-5.36284 1.852083,-7.14375 h 0.264583 v 10.58333 h 0.529167 l 0.79375,-9.26041 h 0.264583 l 0.529167,5.82083 h 0.529167 l 0.79375,-6.08541 h 0.264583 l 0.529167,6.08541 h 0.529166 v -4.49791 H 82.55 l 0.529166,4.49791 c 1.161786,-0.81994 1.215496,-3.14748 1.322917,-4.49791 h 0.264583 v 3.43958 c 1.179513,-0.89376 1.397265,-3.3491 1.5875,-4.7625 h 0.264584 v 4.23333 h 0.529166 l 0.264584,-4.23333 h 0.264583 c 0.02699,1.30148 -0.04154,3.39593 1.058333,4.23333 l 0.529167,-3.175 h 0.264583 v 3.96875 c 1.217348,-0.9144 1.635655,-3.56235 1.852084,-5.02708 h 0.264583 l 0.264583,4.23333 c 0.960438,-0.6051 1.011238,-1.56633 1.058334,-2.64583 h 0.529166 l 0.79375,2.64583 0.79375,-5.02708 H 95.25 l 0.79375,5.02708 c 1.175014,-0.75882 1.217612,-2.91174 1.322916,-4.23333 h 0.264584 v 5.82083 h 0.52916 l 1.32292,-6.08541 h 0.26458 l 0.79375,4.49791 c 1.06522,-0.68262 1.16205,-2.24525 1.32292,-3.43958 h 0.26458 v 2.91042 l 1.85209,-4.49792 h 0.26458 l 1.5875,2.64583 v -2.11666 h 0.26458 l 1.32292,4.49791 H 107.95 l 2.11666,-3.70416 1.05834,3.70416 1.05833,-3.175 h 0.26458 l 0.26459,3.175 2.11666,-4.23333 1.05834,2.64583 h 0.52916 l 0.52917,-1.5875 h 0.26458 l 0.26459,3.175 c 1.26153,-0.71596 1.86928,-2.31695 2.11666,-3.70416 h 0.26459 v 3.70416 l 2.91041,-3.70416 0.79375,2.91041 2.11667,-2.64583 0.79375,2.64583 h 0.26458 l 0.79375,-1.85208 1.05834,2.64583 h 0.79375 l 1.5875,-2.64583 h 0.26458 l 1.05833,4.23333 3.175,-2.64583 0.26459,1.85208 2.64583,-2.11666 c 1.0967,2.29658 2.33733,1.93331 3.70417,0 h 0.26458 l 1.58882,1.12553 2.00316,-0.74559 8.84344,-0.64453 h 39.15833 v -0.52916 H 158.75 l -8.73125,0.0106 -3.96875,-0.0106 h -0.26459 c -1.4007,1.19062 -2.07433,1.27767 -3.43958,0 h -0.26458 l -2.38125,2.11666 -1.32292,-2.11666 h -0.26458 l -2.11667,2.11666 -0.52917,-2.11666 -2.91041,2.91041 -1.05834,-4.23333 h -0.52916 l -2.11667,2.64583 -1.05833,-2.91041 h -0.52917 l -0.52917,1.5875 h -0.26458 l -0.52917,-2.38125 h -0.52916 l -1.32292,2.64583 -0.79375,-2.91042 h -0.52917 l -2.11666,3.70417 h -0.26459 v -4.49792 h -0.26458 l -2.11667,4.23334 -0.52916,-3.43959 -1.32292,2.11667 -1.32292,-2.91042 -1.5875,3.96875 h -0.26458 l -0.79375,-3.96875 -0.79375,3.70417 H 111.125 l -0.52917,-2.91042 c -1.31392,0.79719 -2.19075,2.53074 -2.64583,3.96875 h -0.26459 c -0.39502,-1.72349 -0.81729,-5.12948 -2.38125,-6.08541 v 2.64583 h -0.26458 l -0.79375,-1.85208 h -0.26458 l -1.05834,3.175 h -0.26458 v -3.43959 c -1.27291,0.88821 -1.39912,3.30385 -1.5875,4.7625 h -0.26458 c -0.27385,-1.41181 -0.3437,-3.63008 -1.5875,-4.49791 L 98.425,171.45 h -0.26459 l -0.264577,-6.35 -1.322917,6.08542 h -0.264583 l -0.79375,-5.02708 c -1.17766,0.89535 -1.262327,3.35729 -1.322917,4.7625 h -0.264583 l -0.79375,-2.64584 -0.79375,2.64584 h -0.264584 l -0.264584,-3.96875 -1.5875,4.23333 h -0.264583 l -0.264583,-4.49792 -1.058334,4.23334 h -0.264583 c -0.250825,-1.04167 -0.09816,-3.82165 -0.978429,-4.47517 -1.243277,-0.92286 -1.876954,3.53589 -1.931988,4.21058 h -0.264583 v -4.49791 c -1.40044,1.06494 -1.454679,4.66804 -1.5875,6.35 h -0.264583 c -0.214048,-1.69149 -0.129116,-5.32078 -1.5875,-6.35 v 2.64583 h -0.264584 l -0.79375,-2.64583 -0.529166,5.29166 h -0.264584 l -0.529166,-6.87916 h -0.529167 l -0.529167,7.14375 h -0.264583 l -0.264583,-8.20209 -1.322917,6.61459 h -0.264583 l 0.264584,-10.58334 h -0.529168 l -1.322916,11.64167 H 74.347915 L 73.289582,155.575 h -0.529167 l -0.264583,16.40417 h -0.264583 c -0.09638,-11.06333 -0.537815,-30.31112 -1.058334,-7.40833 h -0.264583 c -0.316293,-4.68788 0.50921,-21.69523 -0.838729,-7.40834 l -1.013354,12.96459 h -0.264584 l -0.79375,-2.64584 -0.264583,1.32292 h -0.264583 l -0.529167,-1.32292 -0.264583,1.32292 h -0.264584 l -0.264583,-1.32292 -1.322917,2.64584 h -0.264583 l -0.79375,-2.64584 -0.79375,2.38125 h -0.264583 l -0.79375,-2.38125 -1.058334,3.70417 h -0.264583 v -5.02708 c -1.388004,0.96863 -1.719792,4.20264 -1.852083,5.82083 h -0.264584 v -7.40833 h -0.529166 l -0.529167,4.7625 h -0.264583 v -9.525 h -0.264584 l -2.116666,12.43541 h -0.264584 v -7.67291 h -0.529166 l -0.79375,14.02291 H 52.916665 V 158.75"
       id="path474"
       sodipodi:nodetypes="cccccccccccccccccccccccccccccccccccccccccccccccccccccccccccccccccccccccccccccccccccccccccccccccccccccccccccccccccccccccccccccccccccccccccccccccccccccccccccccccccccccccccccccccccccccccccccccccccccccccccccccccccccccccccccccccccccccccccccccccccccccccccccccccccccccccccccccccccccc" /><path
       sodipodi:type="star"
       style="fill:#ff0000;stroke:#aa0000;stroke-width:0.564999;stroke-linecap:round;stroke-linejoin:round;stroke-miterlimit:10.8;stroke-dasharray:none;stroke-dashoffset:0"
       id="path2706"
       inkscape:flatsided="false"
       sodipodi:sides="9"
       sodipodi:cx="89.958328"
       sodipodi:cy="209.02083"
       sodipodi:r1="11.22532"
       sodipodi:r2="6.2300525"
       sodipodi:arg1="0.78539816"
       sodipodi:arg2="1.134464"
       inkscape:rounded="0.11"
       inkscape:randomized="0"
       d="m 97.895828,216.95833 c -0.44944,0.44944 -4.728513,-2.55977 -5.304566,-2.29116 -0.576053,0.26862 -1.021397,5.48087 -1.654583,5.53626 -0.633185,0.0554 -1.976861,-5.00033 -2.590807,-5.16483 -0.613946,-0.16451 -4.305466,3.54204 -4.826123,3.17747 -0.520656,-0.36457 1.699787,-5.10117 1.335219,-5.62183 -0.364567,-0.52066 -5.57496,-0.0541 -5.739466,-0.66809 -0.164507,-0.61394 4.581084,-2.81512 4.636481,-3.44831 0.0554,-0.63318 -4.235867,-3.62498 -3.96725,-4.20104 0.268618,-0.57605 5.318843,0.78816 5.768283,0.33872 0.44944,-0.44944 -0.914766,-5.49967 -0.338713,-5.76829 0.576053,-0.26861 3.567855,4.02265 4.20104,3.96725 0.633186,-0.0554 2.834365,-4.80098 3.448312,-4.63648 0.613946,0.16451 0.147428,5.3749 0.668084,5.73947 0.520657,0.36457 5.257265,-1.85588 5.621833,-1.33522 0.364567,0.52066 -3.341982,4.21218 -3.177475,4.82612 0.164506,0.61395 5.220233,1.95762 5.164833,2.59081 -0.0554,0.63318 -5.267639,1.07853 -5.536257,1.65458 -0.268618,0.57606 2.740595,4.85513 2.291155,5.30457 z"
       inkscape:transform-center-x="-0.44002002"
       inkscape:transform-center-y="-0.43768715"
       transform="rotate(8.9456566,295.24944,-269.0225)" /><text
       xml:space="preserve"
       style="font-style:normal;font-weight:normal;font-size:7.05556px;line-height:1.25;font-family:sans-serif;letter-spacing:0px;word-spacing:0px;fill:#d40000;fill-opacity:1;stroke:none;stroke-width:0.264583"
       x="5.8704276"
       y="190.41388"
       id="text6444-5-5"><tspan
         sodipodi:role="line"
         id="tspan6442-3-6"
         style="font-style:normal;font-variant:normal;font-weight:normal;font-stretch:normal;font-size:7.05556px;font-family:arial;-inkscape-font-specification:arial;fill:#d40000;stroke-width:0.264583"
         x="5.8704276"
         y="190.41388">Séisme</tspan></text><path
       style="fill:none;stroke:#000000;stroke-width:0.264583px;stroke-linecap:round;stroke-linejoin:miter;stroke-opacity:1;marker-end:url(#TriangleStart)"
       d="m 52.916666,198.31871 v -7.9375"
       id="path776"
       sodipodi:nodetypes="cc" /><path
       style="fill:none;stroke:#000000;stroke-width:0.265;stroke-linecap:round;stroke-linejoin:miter;stroke-dasharray:none;stroke-opacity:1;marker-end:url(#TriangleStart)"
       d="m 71.437499,197.79102 v -5.29167"
       id="path778"
       sodipodi:nodetypes="cc" /><text
       xml:space="preserve"
       style="font-style:normal;font-weight:normal;font-size:7.05556px;line-height:1.25;font-family:sans-serif;letter-spacing:0px;word-spacing:0px;fill:#000000;fill-opacity:1;stroke:none;stroke-width:0.264583"
       x="31.942911"
       y="204.96599"
       id="text782"><tspan
         sodipodi:role="line"
         id="tspan780"
         x="31.942911"
         y="204.96599"
         style="font-style:normal;font-variant:normal;font-weight:normal;font-stretch:normal;font-size:7.05556px;font-family:arial;-inkscape-font-specification:arial;stroke-width:0.264583">Onde P</tspan></text><text
       xml:space="preserve"
       style="font-style:normal;font-weight:normal;font-size:7.05556px;line-height:1.25;font-family:sans-serif;letter-spacing:0px;word-spacing:0px;fill:#000000;fill-opacity:1;stroke:none;stroke-width:0.264583"
       x="69.773521"
       y="204.96599"
       id="text782-3"><tspan
         sodipodi:role="line"
         id="tspan780-6"
         x="69.773521"
         y="204.96599"
         style="font-style:normal;font-variant:normal;font-weight:normal;font-stretch:normal;font-size:7.05556px;font-family:arial;-inkscape-font-specification:arial;stroke-width:0.264583">Onde S</tspan></text><path
       style="fill:none;stroke:#000000;stroke-width:0.465;stroke-linecap:round;stroke-linejoin:miter;stroke-dasharray:none;stroke-opacity:1;marker-end:url(#TriangleStart)"
       d="M 15.875,150.28338 H 193.14583"
       id="path1624"
       sodipodi:nodetypes="cc" /><text
       xml:space="preserve"
       style="font-style:normal;font-weight:normal;font-size:7.05556px;line-height:1.25;font-family:sans-serif;letter-spacing:0px;word-spacing:0px;fill:#000000;fill-opacity:1;stroke:none;stroke-width:0.264583"
       x="171.55885"
       y="147.28256"
       id="text1652"><tspan
         sodipodi:role="line"
         id="tspan1650"
         style="font-style:normal;font-variant:normal;font-weight:normal;font-stretch:normal;font-size:7.05556px;font-family:arial;-inkscape-font-specification:arial;stroke-width:0.264583"
         x="171.55885"
         y="147.28256">temps</tspan></text></g><metadata
     id="metadata2037"><rdf:RDF><cc:Work
         rdf:about=""><dc:date>été 2022 - V1 du TST</dc:date><dc:creator><cc:Agent><dc:title>Paulhenry Saux</dc:title></cc:Agent></dc:creator><dc:publisher><cc:Agent><dc:title>Paulhenry.eu</dc:title></cc:Agent></dc:publisher><dc:language>FR</dc:language><cc:license
           rdf:resource="http://creativecommons.org/licenses/by-sa/4.0/" /></cc:Work><cc:License
         rdf:about="http://creativecommons.org/licenses/by-sa/4.0/"><cc:permits
           rdf:resource="http://creativecommons.org/ns#Reproduction" /><cc:permits
           rdf:resource="http://creativecommons.org/ns#Distribution" /><cc:requires
           rdf:resource="http://creativecommons.org/ns#Notice" /><cc:requires
           rdf:resource="http://creativecommons.org/ns#Attribution" /><cc:permits
           rdf:resource="http://creativecommons.org/ns#DerivativeWorks" /><cc:requires
           rdf:resource="http://creativecommons.org/ns#ShareAlike" /></cc:License></rdf:RDF></metadata></svg>
