<?xml version="1.0" encoding="UTF-8" standalone="no"?>
<!-- Created with Inkscape (http://www.inkscape.org/) -->

<svg
   width="207.91096mm"
   height="115.40775mm"
   viewBox="0 0 207.91096 115.40775"
   version="1.1"
   id="svg23763"
   xml:space="preserve"
   inkscape:version="1.2 (1:1.2.1+202207142221+cd75a1ee6d)"
   sodipodi:docname="chap7-fig3.svg"
   xmlns:inkscape="http://www.inkscape.org/namespaces/inkscape"
   xmlns:sodipodi="http://sodipodi.sourceforge.net/DTD/sodipodi-0.dtd"
   xmlns:xlink="http://www.w3.org/1999/xlink"
   xmlns="http://www.w3.org/2000/svg"
   xmlns:svg="http://www.w3.org/2000/svg"
   xmlns:rdf="http://www.w3.org/1999/02/22-rdf-syntax-ns#"
   xmlns:cc="http://creativecommons.org/ns#"
   xmlns:dc="http://purl.org/dc/elements/1.1/"><sodipodi:namedview
     id="namedview23765"
     pagecolor="#ffffff"
     bordercolor="#666666"
     borderopacity="1.0"
     inkscape:showpageshadow="2"
     inkscape:pageopacity="0.0"
     inkscape:pagecheckerboard="0"
     inkscape:deskcolor="#d1d1d1"
     inkscape:document-units="mm"
     showgrid="false"
     inkscape:zoom="0.52114899"
     inkscape:cx="570.85403"
     inkscape:cy="210.11266"
     inkscape:window-width="1366"
     inkscape:window-height="740"
     inkscape:window-x="0"
     inkscape:window-y="0"
     inkscape:window-maximized="1"
     inkscape:current-layer="layer1" /><defs
     id="defs23760"><linearGradient
       inkscape:collect="always"
       id="linearGradient4611"><stop
         style="stop-color:#502d16;stop-opacity:1;"
         offset="0"
         id="stop4613" /><stop
         style="stop-color:#502d16;stop-opacity:0;"
         offset="1"
         id="stop4615" /></linearGradient><linearGradient
       inkscape:collect="always"
       id="linearGradient4583"><stop
         style="stop-color:#a85e2e;stop-opacity:1;"
         offset="0"
         id="stop4585" /><stop
         style="stop-color:#a85e2e;stop-opacity:0;"
         offset="1"
         id="stop4587" /></linearGradient><mask
       id="mask5086"
       maskUnits="userSpaceOnUse"><path
         style="fill:#000000;fill-rule:evenodd;stroke:none;stroke-width:1px;stroke-linecap:butt;stroke-linejoin:miter;stroke-opacity:1"
         d="m 2432.0396,-737.00749 25.1188,-4.42913 V 277.26419 l -25.1188,-4.4292 z"
         id="path5088"
         inkscape:connector-curvature="0" /></mask><linearGradient
       inkscape:collect="always"
       xlink:href="#linearGradient4583"
       id="linearGradient4575"
       x1="1354.9722"
       y1="0.29636124"
       x2="1428.5114"
       y2="46.965412"
       gradientUnits="userSpaceOnUse"
       gradientTransform="matrix(0.04608475,0,0,0.04608475,22.761441,187.08393)" /><linearGradient
       inkscape:collect="always"
       xlink:href="#linearGradient4583"
       id="linearGradient4589"
       x1="1810.349"
       y1="-37.887405"
       x2="1756.6089"
       y2="24.337994"
       gradientUnits="userSpaceOnUse"
       gradientTransform="matrix(0.04608475,0,0,0.04608475,22.761441,187.08393)" /><linearGradient
       inkscape:collect="always"
       xlink:href="#linearGradient4611"
       id="linearGradient4617"
       x1="1380.4281"
       y1="51.915157"
       x2="1496.7472"
       y2="120.50452"
       gradientUnits="userSpaceOnUse" /><linearGradient
       inkscape:collect="always"
       xlink:href="#linearGradient4611"
       id="linearGradient4621"
       gradientUnits="userSpaceOnUse"
       x1="1345.2531"
       y1="48.36763"
       x2="1420.6097"
       y2="-62.360722"
       gradientTransform="rotate(180,1574.6606,12.225398)" /><linearGradient
       id="a"
       x1="1981.4"
       x2="2140.3999"
       y1="301.29999"
       y2="430"
       gradientUnits="userSpaceOnUse"
       gradientTransform="matrix(0.04608475,0,0,0.04608475,89.747231,157.5947)"><stop
         stop-color="#a05a2c"
         offset="0"
         id="stop24446"
         style="stop-color:#a85e2e;stop-opacity:1;" /><stop
         stop-color="#a05a2c"
         stop-opacity="0"
         offset="1"
         id="stop24448" /></linearGradient></defs><g
     inkscape:label="Calque 1"
     inkscape:groupmode="layer"
     id="layer1"
     transform="translate(-0.887,-102.96795)"><path
       fill="#aade87"
       d="m 208.79796,136.70448 -23.16219,-4.08772 -92.602699,16.33705 23.152979,4.0785 z"
       id="path24453"
       style="fill:#8887de;fill-opacity:1;stroke-width:0.0460848" /><path
       fill="#ff6600"
       d="m 116.18605,164.68849 92.61191,-13.60557 v 40.82163 l -92.61652,13.60558 z"
       id="path24455"
       style="stroke-width:0.0476373" /><path
       fill="#502d16"
       d="m 152.23815,131.7688 -9.65476,7.18001 18.71041,-0.52537 z"
       id="path24461"
       style="stroke-width:0.0460848" /><path
       fill="#764220"
       d="m 131.51384,142.38673 c 4.77438,-3.59461 10.0603,-6.77446 13.82542,-11.15251 4.56239,3.00473 9.44738,5.63156 15.34622,7.05097 z"
       id="path24463"
       style="stroke-width:0.0460848" /><path
       fill="#a85e2e"
       d="m 156.69915,135.6814 -28.94122,7.14313 c -1.69131,4.47023 -0.23042,5.68686 0,8.16622 10.59027,-3.2628 18.89475,-6.0371 28.94122,-15.30935 z"
       id="path24465"
       style="stroke-width:0.0460848" /><path
       fill="#8b4e26"
       d="m 208.79796,136.70448 v 24.49404 l -32.36071,5.91729 c -13.87151,-6.82055 -10.48889,-19.14361 -42.84499,-16.88546 l -5.80668,0.7604 c 10.63636,-4.28588 23.20828,-10.34142 28.94122,-15.30935 7.28139,2.20285 18.68737,4.38727 28.94123,5.10158 z"
       id="path24467"
       style="stroke-width:0.0460848" /><path
       fill="url(#a)"
       d="m 116.16301,177.51714 c 0,0 13.89455,-2.45632 23.11611,-4.11537 23.18985,-4.05546 21.9133,9.81605 34.68338,16.314 5.50713,-0.25347 12.51662,2.10147 12.56731,-3.41027 0.55302,-21.29116 -28.67393,-40.62832 -47.19078,-37.35169 -18.53068,3.24897 -23.15298,4.0785 -23.15298,4.0785 v 24.49404 z"
       id="path24469"
       style="fill:url(#a);stroke-width:0.0460848" /><g
       fill="#ff2a2a"
       id="g24477"
       transform="matrix(0.04608475,0,0,0.04608475,93.033071,131.23422)"><path
         d="m 1636.6,592.7 c -9.7,1.8 -17.6,-5.2 -17.6,-15.5 0,-10.3 8,-20 17.6,-21.7 9.7,-1.7 17.6,5.3 17.6,15.5 0,10.2 -8,20 -17.6,21.7"
         id="path24471" /><path
         fill-opacity="0.8"
         d="m 1636.6,632 c -30.2,5.2 -54.6,-16.3 -54.6,-48.2 0,-31.9 24.4,-62 54.6,-67.4 30,-5.3 54.6,16.2 54.6,48 0,31.8 -24.5,62.2 -54.6,67.5"
         id="path24473" /><path
         fill-opacity="0.3"
         d="m 1636.6,682 c -56.4,10 -102,-30.2 -102,-90 0,-59.8 45.6,-116 102,-126 56.4,-9.8 102,30.5 102,90 0,59.5 -45.7,116.2 -102,126"
         id="path24475" /></g><g
       id="g34863"
       transform="translate(-25.140289,-13.170347)"><path
         fill="#ff7f2a"
         d="m 118.17336,162.16563 23.15298,4.08311 v 48.98809 l -23.15298,-4.08311 z"
         id="path24457"
         style="stroke-width:0.0460848" /><path
         fill="#c87137"
         d="m 118.17336,186.6182 23.15298,4.0785 v -24.49404 l -23.15298,-4.0785"
         id="path24459"
         style="stroke-width:0.0460848" /><path
         style="fill:#ff6600;fill-rule:evenodd;stroke:none;stroke-width:0.0460848px;stroke-linecap:butt;stroke-linejoin:miter;stroke-opacity:1"
         d="m 49.179223,182.50969 92.607737,-16.32778 v 52.58294 l -92.607737,12.73464 z"
         id="path3356"
         inkscape:connector-curvature="0"
         sodipodi:nodetypes="ccccc" /><path
         style="fill:#b66836;fill-opacity:1;fill-rule:evenodd;stroke:none;stroke-width:0.0460848px;stroke-linecap:butt;stroke-linejoin:miter;stroke-opacity:1"
         d="m 141.78696,166.18252 -23.15193,-4.08231 -92.607741,16.32924 23.151934,4.08231 z"
         id="path3364"
         inkscape:connector-curvature="0" /><path
         style="fill:#8887de;fill-opacity:1;fill-rule:evenodd;stroke:none;stroke-width:0.0460848px;stroke-linecap:butt;stroke-linejoin:miter;stroke-opacity:1"
         d="m 118.63502,162.10021 23.15193,4.08231 -46.303861,8.16462 -1.157598,-4.69466 -10.418624,-1.42925 z"
         id="path4187"
         inkscape:connector-curvature="0"
         sodipodi:nodetypes="cccccc" /><path
         style="fill:#ff7f2a;fill-rule:evenodd;stroke:none;stroke-width:0.0460848px;stroke-linecap:butt;stroke-linejoin:miter;stroke-opacity:1"
         d="m 26.027289,178.476 23.151934,4.08231 v 48.98773 l -23.151934,-4.08231 z"
         id="path3360"
         inkscape:connector-curvature="0" /><path
         style="fill:#c87137;fill-rule:evenodd;stroke:none;stroke-width:0.0460848px;stroke-linecap:butt;stroke-linejoin:miter;stroke-opacity:1"
         d="m 26.027289,202.92331 23.151934,4.08231 v -24.49386 l -23.151934,-4.08231 z"
         id="path3366"
         inkscape:connector-curvature="0" /><path
         style="fill:#915128;fill-opacity:1;fill-rule:evenodd;stroke:none;stroke-width:0.0460848px;stroke-linecap:butt;stroke-linejoin:miter;stroke-opacity:1"
         d="m 97.797958,169.04001 -20.823933,-3.68274 -0.03451,3.6567 21.71478,5.00496 z"
         id="path4185"
         inkscape:connector-curvature="0"
         sodipodi:nodetypes="ccccc" /><path
         style="fill:none;fill-rule:evenodd;stroke:none;stroke-width:0.0460848px;stroke-linecap:butt;stroke-linejoin:miter;stroke-opacity:1"
         d="M 141.78696,166.18252 49.179223,182.51176"
         id="path4189"
         inkscape:connector-curvature="0" /><path
         style="fill:#5e5cd2;fill-opacity:1;fill-rule:evenodd;stroke:none;stroke-width:0.0460848px;stroke-linecap:butt;stroke-linejoin:miter;stroke-opacity:1"
         d="m 98.954284,171.67346 -21.992744,-3.85801 -2.315196,0.40823 15.048758,5.10289 z"
         id="path4167"
         inkscape:connector-curvature="0"
         sodipodi:nodetypes="ccccc" /><path
         style="fill:#9c572b;fill-opacity:1;fill-rule:evenodd;stroke:none;stroke-width:0.0460848px;stroke-linecap:butt;stroke-linejoin:miter;stroke-opacity:1"
         d="m 89.695102,173.32657 -0.109801,7.73403 10.724809,-2.01113 -1.354236,-7.35583 z"
         id="path4165"
         inkscape:connector-curvature="0"
         sodipodi:nodetypes="ccccc" /><path
         style="fill:#ff6600;fill-opacity:1;fill-rule:evenodd;stroke:none;stroke-width:0.0460848px;stroke-linecap:butt;stroke-linejoin:miter;stroke-opacity:1"
         d="m 89.667783,181.19848 10.995707,-1.69511 c 0,0 -0.42108,-1.5424 -1.113205,-1.88337 -0.932544,-0.45942 -2.120221,0.13409 -3.177005,0.23351 -1.0421,0.098 -2.087044,0.18989 -3.118131,0.3578 -1.048727,0.17079 -1.908641,0.41051 -3.112361,0.6594 -1.242472,0.25691 -0.475005,2.32777 -0.475005,2.32777 z"
         id="path4179"
         inkscape:connector-curvature="0"
         sodipodi:nodetypes="ccaaasc" /><path
         style="fill:#864a25;fill-opacity:1;fill-rule:evenodd;stroke:none;stroke-width:0.0460848px;stroke-linecap:butt;stroke-linejoin:miter;stroke-opacity:1"
         d="m 97.798276,169.8566 -1.157593,0.20412 v 2.04115 l 2.315191,-0.40823 -1.157598,-1.83704"
         id="path4207"
         inkscape:connector-curvature="0" /><path
         style="fill:url(#linearGradient4589);fill-opacity:1;fill-rule:evenodd;stroke:none;stroke-width:0.0460848px;stroke-linecap:butt;stroke-linejoin:miter;stroke-opacity:1"
         d="m 141.78695,166.18252 v 24.49386 l -28.93992,5.10289 c -4.77179,0.13522 -15.675949,-17.48834 -15.048703,-26.73957 3.460613,3.87641 9.260743,2.85806 15.048703,2.24571 z"
         id="path4175"
         inkscape:connector-curvature="0"
         sodipodi:nodetypes="cccccc" /><path
         style="fill:#7472d8;fill-opacity:1;fill-rule:evenodd;stroke:none;stroke-width:0.0460848px;stroke-linecap:butt;stroke-linejoin:miter;stroke-opacity:1"
         d="m 96.640683,170.06072 -20.836741,-3.67408 1.157598,-0.20412 20.836736,3.67408 z"
         id="path4209"
         inkscape:connector-curvature="0" /><path
         style="fill:#ae6031;fill-opacity:1;fill-rule:evenodd;stroke:none;stroke-width:0.0460848px;stroke-linecap:butt;stroke-linejoin:miter;stroke-opacity:1"
         d="m 96.640683,170.06072 v 2.04115 l -20.836741,-3.67408 v -2.04115 z"
         id="path4211"
         inkscape:connector-curvature="0" /><path
         style="fill:#ae6031;fill-opacity:1;fill-rule:evenodd;stroke:none;stroke-width:0.0460848px;stroke-linecap:butt;stroke-linejoin:miter;stroke-opacity:1"
         d="m 96.640683,172.10187 v -0.81646 l -1.157599,0.20412 v 0.81646 z"
         id="path4213"
         inkscape:connector-curvature="0" /><path
         style="fill:#864a25;fill-opacity:1;fill-rule:evenodd;stroke:none;stroke-width:0.0460848px;stroke-linecap:butt;stroke-linejoin:miter;stroke-opacity:1"
         d="m 95.483084,172.30599 v -0.81646 l -20.83674,-3.67408 v 0.81646 l 20.83674,3.67408"
         id="path4217"
         inkscape:connector-curvature="0" /><path
         style="fill:#7472d8;fill-opacity:1;fill-rule:evenodd;stroke:none;stroke-width:0.0460848px;stroke-linecap:butt;stroke-linejoin:miter;stroke-opacity:1"
         d="m 96.640683,171.28541 c 0,0 -20.836741,-3.67408 -20.836741,-3.67408 l -1.157598,0.20412 20.83674,3.67408 z"
         id="path4215"
         inkscape:connector-curvature="0" /><path
         style="fill:#8887de;fill-opacity:1;fill-rule:evenodd;stroke:none;stroke-width:0.0460848px;stroke-linecap:butt;stroke-linejoin:miter;stroke-opacity:1"
         d="m 89.688904,170.46372 c -5.451683,-0.99955 -13.736528,-2.41705 -20.843028,-3.65366 -1.900309,2.45748 -6.994599,5.19037 -13.87867,6.5165 l -28.939916,5.10289 23.151933,4.08231 40.51511,-7.1443 z"
         id="path4177"
         inkscape:connector-curvature="0"
         sodipodi:nodetypes="ccccccc" /><path
         style="fill:#ae6031;fill-opacity:1;fill-rule:evenodd;stroke:none;stroke-width:0.0460848px;stroke-linecap:butt;stroke-linejoin:miter;stroke-opacity:1"
         d="m 92.010294,172.91833 v -0.81646 l -1.157598,0.20412 v 0.81646 l 1.157598,-0.20412"
         id="path4219"
         inkscape:connector-curvature="0" /><path
         style="fill:#864a25;fill-opacity:1;fill-rule:evenodd;stroke:none;stroke-width:0.0460848px;stroke-linecap:butt;stroke-linejoin:miter;stroke-opacity:1"
         d="m 90.852696,173.12245 v -1.22469 l -1.157594,0.20411 v 1.2247 z"
         id="path4221"
         inkscape:connector-curvature="0" /><path
         style="fill:#8887de;fill-opacity:1;fill-rule:evenodd;stroke:none;stroke-width:0.0460848px;stroke-linecap:butt;stroke-linejoin:miter;stroke-opacity:1"
         d="m 90.852696,171.89776 -1.157594,-0.20412 v 0.40823"
         id="path4223"
         inkscape:connector-curvature="0" /><path
         style="fill:url(#linearGradient4575);fill-opacity:1;fill-rule:evenodd;stroke:none;stroke-width:0.0460848px;stroke-linecap:butt;stroke-linejoin:miter;stroke-opacity:1"
         d="m 49.179223,182.51176 v 24.49386 l 28.939916,-5.10288 c 11.156661,-3.56695 12.237091,-24.02782 11.572733,-31.42783 -1.687951,3.33301 -4.127244,5.66002 -11.572733,6.93396 z"
         id="path4173"
         inkscape:connector-curvature="0"
         sodipodi:nodetypes="cccccc" /><path
         style="fill:#8887de;fill-opacity:1;fill-rule:evenodd;stroke:none;stroke-width:0.0460848px;stroke-linecap:butt;stroke-linejoin:miter;stroke-opacity:1"
         d="m 92.010294,172.10187 -1.157598,-0.20411 v 0.40823 z"
         id="path4225"
         inkscape:connector-curvature="0" /><g
         id="g4227"
         transform="matrix(0.04608475,0,0,0.04608475,22.761441,187.08393)"><path
           style="fill:url(#linearGradient4621);fill-opacity:1;fill-rule:evenodd;stroke:none;stroke-width:1px;stroke-linecap:butt;stroke-linejoin:miter;stroke-opacity:1"
           d="M 2199.2947,-93.364601 2073.7004,-9.2110056 V -53.502403 l -251.1887,44.2913974 c -29.1942,2.5765434 -70.5212,29.2511486 -93.6704,104.9223516 l -46.9142,7.817414 c -1.299,-48.057142 46.2808,-149.831813 140.5846,-157.031163 l 251.1887,-44.291298 V -142.0851 Z"
           id="path4619"
           inkscape:connector-curvature="0"
           sodipodi:nodetypes="cccccccccc" /><path
           sodipodi:nodetypes="cccccccc"
           inkscape:connector-curvature="0"
           id="path4623"
           d="m 1576.1598,401.53005 25.1189,-4.4291 V -54.670733 l 25.1189,-4.42913 -37.9914,-28.962893 -37.3652,42.250293 25.1188,-4.42913 V 401.53005"
           style="fill:#cc5300;fill-opacity:1;fill-rule:evenodd;stroke:none;stroke-width:1px;stroke-linecap:butt;stroke-linejoin:miter;stroke-opacity:1" /><path
           sodipodi:nodetypes="cccccccccc"
           inkscape:connector-curvature="0"
           id="path4627"
           d="m 1954.781,675.8863 25.1188,-4.4292 c 7.6366,-131.93699 28.7971,-393.51588 226.0698,-438.4842 225.8341,-29.47921 230.5507,216.5491 251.1887,354.3307 l -25.1189,4.4291 40.2929,19.7174 35.0637,-33.0048 -25.1188,4.4292 C 2467.302,406.28087 2437.5399,179.71273 2207.3839,212.80093 1941.4219,246.79156 1954.8535,662.70474 1954.781,675.8863"
           style="fill:#cc5300;fill-opacity:1;fill-rule:evenodd;stroke:none;stroke-width:1px;stroke-linecap:butt;stroke-linejoin:miter;stroke-opacity:1" /><path
           sodipodi:nodetypes="cccccccccc"
           inkscape:connector-curvature="0"
           id="path4629"
           d="m 1327.1052,742.5878 -26.1795,5.13631 C 1297.3761,618.24393 1261.7367,382.42998 1021.5264,439.05458 835.68413,487.77523 852.05106,763.09417 852.05096,825.1018 l 25.11887,-4.4291 -33.95771,32.77167 -43.89889,-18.10927 27.61887,-5.8042 c -14.0906,-162.43655 12.14278,-358.40032 189.3339,-415.67411 259.2901,-58.00701 305.4742,174.08452 310.8392,328.73101 z"
           style="fill:#cc5300;fill-opacity:1;fill-rule:evenodd;stroke:none;stroke-width:1px;stroke-linecap:butt;stroke-linejoin:miter;stroke-opacity:1" /><path
           sodipodi:nodetypes="cccccccccc"
           inkscape:connector-curvature="0"
           id="path4593"
           d="M 950.02645,117.81539 1075.6207,33.66185 v 44.29134 l 251.1887,-44.29134 c 74.224,-6.873867 160.5031,-0.418493 194.5943,93.68704 l -36.8566,14.0374 C 1441.9112,63.874069 1387.787,66.376885 1326.8094,77.95319 l -251.1887,44.2913 v 44.2914 z"
           style="fill:url(#linearGradient4617);fill-opacity:1;fill-rule:evenodd;stroke:none;stroke-width:1px;stroke-linecap:butt;stroke-linejoin:miter;stroke-opacity:1" /></g></g><path
       fill="#502d16"
       d="m 125.08411,161.76294 v 2.04156 l -11.57649,2.04155 v 2.04616 l 11.57649,-2.04616 v 2.04616 l 5.78825,-4.05545 z m 68.16486,-5.38488 v -1.36411 l 7.76067,-1.36872 v -1.36871 l -7.76067,1.36871 v -1.36871 l -3.88034,2.719 z m -36.69268,7.62242 -0.67284,1.6867 c 5.80668,1.43784 9.95431,4.6776 14.28627,8.68697 l -1.15211,1.84339 4.6269,-0.80187 -1.15211,-4.70064 -1.16134,1.84339 c -4.53935,-3.52549 -8.92201,-7.39661 -14.77477,-8.5349 z m 24.31431,-8.72385 0.43781,-1.72817 c -5.90807,-0.89405 -10.34603,-3.73287 -15.02363,-7.32748 l 0.977,-1.93556 -4.53474,1.24429 1.58531,4.56239 0.98622,-1.93556 c 4.86194,3.08768 9.65475,6.53021 15.57664,7.12009 z"
       id="path24479"
       style="stroke-width:0.0460848"
       sodipodi:nodetypes="cccccccccccccccccccccccccccccccccc" /><path
       style="fill:none;stroke:#000000;stroke-width:0.264583px;stroke-linecap:butt;stroke-linejoin:miter;stroke-opacity:1"
       d="M 65.019768,157.34349 58.041076,128.21343"
       id="path40699" /><path
       style="fill:none;stroke:#000000;stroke-width:0.264583px;stroke-linecap:butt;stroke-linejoin:miter;stroke-opacity:1"
       d="M 34.869729,164.93562 27.891037,135.80556"
       id="path40699-1" /><path
       style="fill:none;stroke:#000000;stroke-width:0.264583px;stroke-linecap:butt;stroke-linejoin:miter;stroke-opacity:1"
       d="M 127.19383,149.50454 105.75017,126.65625"
       id="path40699-0"
       sodipodi:nodetypes="cc" /><path
       style="fill:none;stroke:#000000;stroke-width:0.264583px;stroke-linecap:butt;stroke-linejoin:miter;stroke-opacity:1"
       d="M 182.46939,146.99274 175.4907,117.86268"
       id="path40699-63" /><text
       xml:space="preserve"
       style="font-style:normal;font-weight:normal;font-size:7.05556px;line-height:1.25;font-family:sans-serif;letter-spacing:0px;word-spacing:0px;fill:#000000;fill-opacity:1;stroke:none;stroke-width:0.264583"
       x="17.057596"
       y="132.72954"
       id="text9944-8-3"><tspan
         sodipodi:role="line"
         id="tspan9942-97-6"
         style="font-style:normal;font-variant:normal;font-weight:normal;font-stretch:normal;font-size:7.05556px;font-family:arial;-inkscape-font-specification:arial;stroke-width:0.264583"
         x="17.057596"
         y="132.72954">Océan</tspan></text><text
       xml:space="preserve"
       style="font-style:normal;font-weight:normal;font-size:7.05556px;line-height:1.25;font-family:sans-serif;letter-spacing:0px;word-spacing:0px;fill:#000000;fill-opacity:1;stroke:none;stroke-width:0.264583"
       x="57.203381"
       y="116.85368"
       id="text9944-8-3-2"><tspan
         sodipodi:role="line"
         id="tspan9942-97-6-0"
         style="font-style:normal;font-variant:normal;font-weight:normal;font-stretch:normal;font-size:7.05556px;font-family:arial;-inkscape-font-specification:arial;text-align:center;text-anchor:middle;stroke-width:0.264583"
         x="57.203381"
         y="116.85368">Dorsale </tspan><tspan
         sodipodi:role="line"
         style="font-style:normal;font-variant:normal;font-weight:normal;font-stretch:normal;font-size:7.05556px;font-family:arial;-inkscape-font-specification:arial;text-align:center;text-anchor:middle;stroke-width:0.264583"
         x="57.203381"
         y="125.73749"
         id="tspan64174">océanique</tspan></text><text
       xml:space="preserve"
       style="font-style:normal;font-weight:normal;font-size:7.05556px;line-height:1.25;font-family:sans-serif;letter-spacing:0px;word-spacing:0px;fill:#000000;fill-opacity:1;stroke:none;stroke-width:0.264583"
       x="95.481865"
       y="115.61337"
       id="text9944-8-3-5"><tspan
         sodipodi:role="line"
         id="tspan9942-97-6-5"
         style="font-style:normal;font-variant:normal;font-weight:normal;font-stretch:normal;font-size:7.05556px;font-family:arial;-inkscape-font-specification:arial;text-align:center;text-anchor:middle;stroke-width:0.264583"
         x="95.481865"
         y="115.61337">Fosse </tspan><tspan
         sodipodi:role="line"
         style="font-style:normal;font-variant:normal;font-weight:normal;font-stretch:normal;font-size:7.05556px;font-family:arial;-inkscape-font-specification:arial;text-align:center;text-anchor:middle;stroke-width:0.264583"
         x="95.481865"
         y="124.49718"
         id="tspan69386">océanique</tspan></text><text
       xml:space="preserve"
       style="font-style:normal;font-weight:normal;font-size:7.05556px;line-height:1.25;font-family:sans-serif;letter-spacing:0px;word-spacing:0px;fill:#000000;fill-opacity:1;stroke:none;stroke-width:0.264583"
       x="172.50668"
       y="108.04602"
       id="text9944-8-3-6-4"><tspan
         sodipodi:role="line"
         id="tspan9942-97-6-1-7"
         style="font-style:normal;font-variant:normal;font-weight:normal;font-stretch:normal;font-size:7.05556px;font-family:arial;-inkscape-font-specification:arial;text-align:center;text-anchor:middle;stroke-width:0.264583"
         x="172.50668"
         y="108.04602">Litosphère </tspan><tspan
         sodipodi:role="line"
         style="font-style:normal;font-variant:normal;font-weight:normal;font-stretch:normal;font-size:7.05556px;font-family:arial;-inkscape-font-specification:arial;text-align:center;text-anchor:middle;stroke-width:0.264583"
         x="172.50668"
         y="116.92982"
         id="tspan65645-6">continentale</tspan></text><path
       style="fill:none;stroke:#000000;stroke-width:0.264583px;stroke-linecap:butt;stroke-linejoin:miter;stroke-opacity:1"
       d="M 164.79891,155.21687 135.16239,118.71429"
       id="path40699-0-5"
       sodipodi:nodetypes="cc" /><text
       xml:space="preserve"
       style="font-style:normal;font-weight:normal;font-size:7.05556px;line-height:1.25;font-family:sans-serif;letter-spacing:0px;word-spacing:0px;fill:#000000;fill-opacity:1;stroke:none;stroke-width:0.264583"
       x="115.26854"
       y="115.7575"
       id="text9944-8-3-5-6"><tspan
         sodipodi:role="line"
         id="tspan9942-97-6-5-9"
         style="font-style:normal;font-variant:normal;font-weight:normal;font-stretch:normal;font-size:7.05556px;font-family:arial;-inkscape-font-specification:arial;stroke-width:0.264583"
         x="115.26854"
         y="115.7575">Subduction</tspan></text><text
       xml:space="preserve"
       style="font-style:normal;font-weight:normal;font-size:6.35px;line-height:1.25;font-family:sans-serif;letter-spacing:0px;word-spacing:0px;fill:#000000;fill-opacity:1;stroke:none;stroke-width:0.264583"
       x="112.38904"
       y="210.68292"
       id="text9944-8-3-5-6-3"
       transform="skewY(-6.2755316)"><tspan
         sodipodi:role="line"
         id="tspan9942-97-6-5-9-7"
         style="font-style:normal;font-variant:normal;font-weight:normal;font-stretch:normal;font-size:6.35px;font-family:arial;-inkscape-font-specification:arial;stroke-width:0.264583"
         x="112.38904"
         y="210.68292">Convection</tspan></text><text
       xml:space="preserve"
       style="font-style:normal;font-weight:normal;font-size:6.35px;line-height:1.25;font-family:sans-serif;letter-spacing:0px;word-spacing:0px;fill:#000000;fill-opacity:1;stroke:none;stroke-width:0.264583"
       x="58.231457"
       y="207.32722"
       id="text9944-8-3-5-6-3-4"
       transform="skewY(-6.2755317)"><tspan
         sodipodi:role="line"
         id="tspan9942-97-6-5-9-7-5"
         style="font-style:normal;font-variant:normal;font-weight:normal;font-stretch:normal;font-size:6.35px;font-family:arial;-inkscape-font-specification:arial;stroke-width:0.264583"
         x="58.231457"
         y="207.32722">Remontée</tspan></text><text
       xml:space="preserve"
       style="font-style:normal;font-weight:normal;font-size:4.93889px;line-height:1.25;font-family:sans-serif;letter-spacing:0px;word-spacing:0px;fill:#000000;fill-opacity:1;stroke:none;stroke-width:0.264583"
       x="12.872094"
       y="177.3157"
       id="text9944-8-3-6-2"
       transform="skewY(9.9425797)"><tspan
         sodipodi:role="line"
         id="tspan9942-97-6-1-5"
         style="font-style:normal;font-variant:normal;font-weight:normal;font-stretch:normal;font-size:4.93889px;font-family:arial;-inkscape-font-specification:arial;text-align:center;text-anchor:middle;stroke-width:0.264583"
         x="12.872093"
         y="177.3157">Litosphère </tspan><tspan
         sodipodi:role="line"
         style="font-style:normal;font-variant:normal;font-weight:normal;font-stretch:normal;font-size:4.93889px;font-family:arial;-inkscape-font-specification:arial;text-align:center;text-anchor:middle;stroke-width:0.264583"
         x="12.872094"
         y="183.53436"
         id="tspan65645-4">océanique</tspan></text><text
       xml:space="preserve"
       style="font-style:normal;font-weight:normal;font-size:5.29167px;line-height:1.25;font-family:sans-serif;letter-spacing:0px;word-spacing:0px;fill:#000000;fill-opacity:1;stroke:none;stroke-width:0.264583"
       x="11.906203"
       y="204.82407"
       id="text9944-8-3-6-2-7"
       transform="skewY(10.621158)"><tspan
         sodipodi:role="line"
         style="font-style:normal;font-variant:normal;font-weight:normal;font-stretch:normal;font-size:5.29167px;font-family:arial;-inkscape-font-specification:arial;text-align:center;text-anchor:middle;stroke-width:0.264583"
         x="11.906203"
         y="204.82407"
         id="tspan65645-4-4">Manteau</tspan></text></g><metadata
     id="metadata24247"><rdf:RDF><cc:Work
         rdf:about=""><dc:date>été 2022 - V1 du TST</dc:date><dc:creator><cc:Agent><dc:title>Paulhenry Saux</dc:title></cc:Agent></dc:creator><dc:publisher><cc:Agent><dc:title>Paulhenry.eu</dc:title></cc:Agent></dc:publisher><dc:language>FR</dc:language><dc:contributor><cc:Agent><dc:title>domdomegg, CC BY 4.0 &lt;https://creativecommons.org/licenses/by/4.0&gt;, via Wikimedia Commons</dc:title></cc:Agent></dc:contributor><cc:license
           rdf:resource="http://creativecommons.org/licenses/by-sa/4.0/" /></cc:Work><cc:License
         rdf:about="http://creativecommons.org/licenses/by-sa/4.0/"><cc:permits
           rdf:resource="http://creativecommons.org/ns#Reproduction" /><cc:permits
           rdf:resource="http://creativecommons.org/ns#Distribution" /><cc:requires
           rdf:resource="http://creativecommons.org/ns#Notice" /><cc:requires
           rdf:resource="http://creativecommons.org/ns#Attribution" /><cc:permits
           rdf:resource="http://creativecommons.org/ns#DerivativeWorks" /><cc:requires
           rdf:resource="http://creativecommons.org/ns#ShareAlike" /></cc:License></rdf:RDF></metadata></svg>
