<?xml version="1.0" encoding="UTF-8" standalone="no"?>
<!-- Created with Inkscape (http://www.inkscape.org/) -->

<svg
   width="73.276375mm"
   height="53.975895mm"
   viewBox="0 0 73.276375 53.975895"
   version="1.1"
   id="svg46363"
   xml:space="preserve"
   inkscape:version="1.2 (1:1.2.1+202207142221+cd75a1ee6d)"
   sodipodi:docname="chap5-fig4.svg"
   xmlns:inkscape="http://www.inkscape.org/namespaces/inkscape"
   xmlns:sodipodi="http://sodipodi.sourceforge.net/DTD/sodipodi-0.dtd"
   xmlns="http://www.w3.org/2000/svg"
   xmlns:svg="http://www.w3.org/2000/svg"
   xmlns:rdf="http://www.w3.org/1999/02/22-rdf-syntax-ns#"
   xmlns:cc="http://creativecommons.org/ns#"
   xmlns:dc="http://purl.org/dc/elements/1.1/"><sodipodi:namedview
     id="namedview46365"
     pagecolor="#ffffff"
     bordercolor="#666666"
     borderopacity="1.0"
     inkscape:showpageshadow="2"
     inkscape:pageopacity="0.0"
     inkscape:pagecheckerboard="0"
     inkscape:deskcolor="#d1d1d1"
     inkscape:document-units="mm"
     showgrid="true"
     inkscape:zoom="0.73701597"
     inkscape:cx="273.39977"
     inkscape:cy="168.92443"
     inkscape:window-width="1366"
     inkscape:window-height="740"
     inkscape:window-x="0"
     inkscape:window-y="0"
     inkscape:window-maximized="1"
     inkscape:current-layer="layer1"><inkscape:grid
       type="xygrid"
       id="grid47793"
       originx="-75.048308"
       originy="-53.416879" /></sodipodi:namedview><defs
     id="defs46360" /><g
     inkscape:label="Calque 1"
     inkscape:groupmode="layer"
     id="layer1"
     transform="translate(-75.048307,-53.41688)"><rect
       style="fill:#67ff55;fill-opacity:1;stroke:none;stroke-width:1.065;stroke-linecap:round;stroke-linejoin:round"
       id="rect57447-3"
       width="10.801524"
       height="3.5666735"
       x="46.46611"
       y="140.04913"
       ry="1.3578084"
       transform="rotate(-38.169521)" /><rect
       style="fill:#67ff55;fill-opacity:1;stroke:none;stroke-width:1.065;stroke-linecap:round;stroke-linejoin:round"
       id="rect57447-33"
       width="10.801524"
       height="3.5666735"
       x="-125.74805"
       y="-17.539003"
       ry="1.3578084"
       transform="rotate(-146.69644)" /><path
       id="rect46995"
       style="fill:#2a7fff;stroke-width:1.065;stroke-linecap:round;stroke-linejoin:round"
       d="m 124.26053,63.3501 c -0.413,0.0063 -0.8177,0.200913 -1.07953,0.562756 l -1.66036,2.294434 c -0.44096,0.609419 -0.30504,1.455047 0.30437,1.896008 l 4.63693,3.355351 -4.84156,3.503145 c -0.60942,0.440965 -0.74483,1.286585 -0.30386,1.896008 l 1.66036,2.294434 c 0.44097,0.609423 1.28659,0.744822 1.89601,0.303857 l 7.26674,-5.258076 h 14.39447 c 0.75459,0 1.36167,-0.607087 1.36167,-1.361674 v -3.044776 c 0,-0.754587 -0.60708,-1.361674 -1.36167,-1.361674 h -14.79393 l -6.66316,-4.820894 c -0.24757,-0.179141 -0.53391,-0.263183 -0.81648,-0.258899 z" /><path
       id="rect46995-7"
       style="fill:#2a7fff;stroke-width:1.065;stroke-linecap:round;stroke-linejoin:round"
       d="m 98.683546,63.861003 c 0.413,0.0063 0.817703,0.200913 1.079533,0.562756 l 1.660361,2.294434 c 0.44096,0.609419 0.30504,1.455047 -0.30437,1.896008 l -4.636934,3.355351 4.841564,3.503145 c 0.60942,0.440965 0.74483,1.286585 0.30386,1.896008 l -1.660361,2.294434 c -0.44097,0.609423 -1.286593,0.744822 -1.896013,0.303857 L 90.804446,74.70892 H 76.409977 c -0.75459,0 -1.36167,-0.607087 -1.36167,-1.361674 V 70.30247 c 0,-0.754587 0.60708,-1.361674 1.36167,-1.361674 h 14.793929 l 6.66316,-4.820894 c 0.24757,-0.179141 0.53391,-0.263183 0.81648,-0.258899 z" /><path
       id="path50112"
       style="fill:#33e3e9;stroke-width:0.489011;stroke-linecap:round;stroke-linejoin:round"
       inkscape:transform-center-x="0.048075078"
       inkscape:transform-center-y="-1.1081863"
       d="m 103.51897,65.572231 c -2.65104,-1.174344 -5.305385,-1.49802 -7.966184,-0.166535 2.449055,-1.762732 3.666734,-4.109613 4.127317,-6.815652 0.298502,3.082589 1.792607,5.244888 3.838867,6.982187 z"
       sodipodi:nodetypes="cccc" /><ellipse
       style="fill:#ffdd55;fill-opacity:1;stroke:none;stroke-width:1.065;stroke-linecap:round;stroke-linejoin:round"
       id="path51103"
       cx="114.39568"
       cy="60.345566"
       rx="14.808702"
       ry="6.9286857" /><path
       id="path50112-9"
       style="fill:#33e3e9;stroke-width:0.489011;stroke-linecap:round;stroke-linejoin:round"
       inkscape:transform-center-x="0.64205508"
       inkscape:transform-center-y="-0.5483193"
       d="m 131.15996,67.751424 c -2.25641,-1.820908 -4.73635,-2.821034 -7.65121,-2.224151 2.82204,-1.068256 4.60603,-3.019663 5.75177,-5.514066 -0.51009,3.054711 0.37298,5.530207 1.89944,7.738217 z"
       sodipodi:nodetypes="cccc" /><rect
       style="fill:#67ff55;fill-opacity:1;stroke:none;stroke-width:1.065;stroke-linecap:round;stroke-linejoin:round"
       id="rect57447"
       width="10.801524"
       height="3.5666735"
       x="27.669222"
       y="105.45032"
       ry="1.3578084"
       transform="rotate(-38.169521)" /><rect
       style="fill:#67ff55;fill-opacity:1;stroke:none;stroke-width:1.065;stroke-linecap:round;stroke-linejoin:round"
       id="rect57447-0"
       width="10.801524"
       height="3.5666735"
       x="-139.3922"
       y="60.972977"
       ry="1.3578084"
       transform="rotate(-129.74869)" /><path
       id="path50112-7"
       style="fill:#33e3e9;stroke-width:0.489011;stroke-linecap:round;stroke-linejoin:round"
       inkscape:transform-center-x="0.048075078"
       inkscape:transform-center-y="1.1081867"
       d="m 102.2559,77.764458 c -2.65104,1.17434 -5.305394,1.49802 -7.966188,0.16653 2.449054,1.762736 3.666734,4.109617 4.127314,6.815656 0.2985,-3.082589 1.792614,-5.244886 3.838874,-6.982186 z"
       sodipodi:nodetypes="cccc" /><path
       id="rect46995-6"
       style="fill:#2a7fff;stroke-width:1.065;stroke-linecap:round;stroke-linejoin:round"
       d="m 124.68944,91.027708 c -0.413,0.0063 -0.8177,0.200913 -1.07953,0.562756 l -1.66036,2.294434 c -0.44096,0.60942 -0.30504,1.45505 0.30437,1.89601 l 4.63693,3.35535 -4.84156,3.503142 c -0.60942,0.44097 -0.74483,1.28659 -0.30386,1.89601 l 1.66036,2.29444 c 0.44097,0.60942 1.28659,0.74482 1.89601,0.30385 l 7.26674,-5.25807 h 14.39447 c 0.75459,0 1.36167,-0.60709 1.36167,-1.36168 v -3.044772 c 0,-0.75459 -0.60708,-1.36168 -1.36167,-1.36168 h -14.79393 l -6.66316,-4.820891 c -0.24757,-0.179141 -0.53391,-0.263183 -0.81648,-0.258899 z" /><ellipse
       style="fill:#ffdd55;fill-opacity:1;stroke:none;stroke-width:1.065;stroke-linecap:round;stroke-linejoin:round"
       id="path51103-3"
       cx="139.93871"
       cy="-22.814335"
       rx="14.808702"
       ry="6.9286857"
       transform="matrix(0.88095795,0.47319457,0.47319457,-0.88095795,0,0)" /><path
       id="path50112-9-2"
       style="fill:#33e3e9;stroke-width:0.489011;stroke-linecap:round;stroke-linejoin:round"
       inkscape:transform-center-x="0.64205508"
       inkscape:transform-center-y="0.5483197"
       d="m 124.55817,78.908881 c -2.25641,1.8209 -4.73635,2.82103 -7.65121,2.22415 2.82204,1.06825 4.60603,3.01966 5.75177,5.514063 -0.51009,-3.054711 0.37298,-5.530203 1.89944,-7.738213 z"
       sodipodi:nodetypes="cccc" /><path
       id="path50112-9-2-5"
       style="fill:#33e3e9;stroke-width:0.489011;stroke-linecap:round;stroke-linejoin:round"
       inkscape:transform-center-x="0.43422508"
       inkscape:transform-center-y="-0.7533373"
       d="m 128.88719,96.783183 c -1.93309,-2.161076 -3.0578,-4.587052 -2.60965,-7.528451 -0.92363,2.872622 -2.78194,4.753379 -5.215,6.024239 3.02488,-0.664485 5.542,0.09179 7.82465,1.504212 z"
       sodipodi:nodetypes="cccc" /><rect
       style="fill:#67ff55;fill-opacity:1;stroke:none;stroke-width:1.065;stroke-linecap:round;stroke-linejoin:round"
       id="rect57447-0-2"
       width="10.801524"
       height="3.5666735"
       x="-158.30612"
       y="41.668919"
       ry="1.3578084"
       transform="rotate(-129.74869)" /><text
       xml:space="preserve"
       style="font-style:normal;font-weight:normal;font-size:5.29167px;line-height:1.25;font-family:sans-serif;letter-spacing:0px;word-spacing:0px;fill:#000000;fill-opacity:1;stroke:none;stroke-width:0.264583"
       x="104.06721"
       y="62.166973"
       id="text57722"><tspan
         sodipodi:role="line"
         id="tspan57720"
         style="font-style:normal;font-variant:normal;font-weight:normal;font-stretch:normal;font-size:5.29167px;font-family:arial;-inkscape-font-specification:arial;stroke-width:0.264583"
         x="104.06721"
         y="62.166973">Antigène</tspan></text><text
       xml:space="preserve"
       style="font-style:normal;font-weight:normal;font-size:5.29167px;line-height:1.25;font-family:sans-serif;letter-spacing:0px;word-spacing:0px;fill:#000000;fill-opacity:1;stroke:none;stroke-width:0.264583"
       x="126.10973"
       y="72.885468"
       id="text57722-6"><tspan
         sodipodi:role="line"
         id="tspan57720-5"
         style="font-style:normal;font-variant:normal;font-weight:normal;font-stretch:normal;font-size:5.29167px;font-family:arial;-inkscape-font-specification:arial;stroke-width:0.264583"
         x="126.10973"
         y="72.885468">Anticorps</tspan></text></g><metadata
     id="metadata58126"><rdf:RDF><cc:Work
         rdf:about=""><dc:date>été 2022 - V1 du TST</dc:date><dc:creator><cc:Agent><dc:title>Paulhenry Saux</dc:title></cc:Agent></dc:creator><dc:publisher><cc:Agent><dc:title>Paulhenry.eu</dc:title></cc:Agent></dc:publisher><dc:language>FR</dc:language><cc:license
           rdf:resource="http://creativecommons.org/licenses/by-sa/4.0/" /></cc:Work><cc:License
         rdf:about="http://creativecommons.org/licenses/by-sa/4.0/"><cc:permits
           rdf:resource="http://creativecommons.org/ns#Reproduction" /><cc:permits
           rdf:resource="http://creativecommons.org/ns#Distribution" /><cc:requires
           rdf:resource="http://creativecommons.org/ns#Notice" /><cc:requires
           rdf:resource="http://creativecommons.org/ns#Attribution" /><cc:permits
           rdf:resource="http://creativecommons.org/ns#DerivativeWorks" /><cc:requires
           rdf:resource="http://creativecommons.org/ns#ShareAlike" /></cc:License></rdf:RDF></metadata></svg>
