<?xml version="1.0" encoding="UTF-8" standalone="no"?>
<!-- Created with Inkscape (http://www.inkscape.org/) -->

<svg
   width="151.38788mm"
   height="80.00856mm"
   viewBox="0 0 151.38788 80.00856"
   version="1.1"
   id="svg5"
   inkscape:version="1.2 (1:1.2.1+202207142221+cd75a1ee6d)"
   sodipodi:docname="chap5-fig1.svg"
   xmlns:inkscape="http://www.inkscape.org/namespaces/inkscape"
   xmlns:sodipodi="http://sodipodi.sourceforge.net/DTD/sodipodi-0.dtd"
   xmlns="http://www.w3.org/2000/svg"
   xmlns:svg="http://www.w3.org/2000/svg"
   xmlns:rdf="http://www.w3.org/1999/02/22-rdf-syntax-ns#"
   xmlns:cc="http://creativecommons.org/ns#"
   xmlns:dc="http://purl.org/dc/elements/1.1/">
  <sodipodi:namedview
     id="namedview7"
     pagecolor="#ffffff"
     bordercolor="#666666"
     borderopacity="1.0"
     inkscape:showpageshadow="2"
     inkscape:pageopacity="0.0"
     inkscape:pagecheckerboard="0"
     inkscape:deskcolor="#d1d1d1"
     inkscape:document-units="mm"
     showgrid="true"
     inkscape:zoom="1.042298"
     inkscape:cx="306.05451"
     inkscape:cy="173.17505"
     inkscape:window-width="1366"
     inkscape:window-height="740"
     inkscape:window-x="0"
     inkscape:window-y="0"
     inkscape:window-maximized="1"
     inkscape:current-layer="layer1">
    <inkscape:grid
       type="xygrid"
       id="grid7341"
       originx="-26.179985"
       originy="-152.82477" />
  </sodipodi:namedview>
  <defs
     id="defs2">
    <marker
       style="overflow:visible"
       id="TriangleStart"
       refX="0"
       refY="0"
       orient="auto-start-reverse"
       inkscape:stockid="TriangleStart"
       markerWidth="5.3244081"
       markerHeight="6.155385"
       viewBox="0 0 5.3244081 6.1553851"
       inkscape:isstock="true"
       inkscape:collect="always"
       preserveAspectRatio="xMidYMid">
      <path
         transform="scale(0.5)"
         style="fill:context-stroke;fill-rule:evenodd;stroke:context-stroke;stroke-width:1pt"
         d="M 5.77,0 -2.88,5 V -5 Z"
         id="path135" />
    </marker>
    <inkscape:path-effect
       effect="simplify"
       id="path-effect15296"
       is_visible="true"
       lpeversion="1"
       steps="1"
       threshold="0.0151852"
       smooth_angles="360"
       helper_size="0"
       simplify_individual_paths="false"
       simplify_just_coalesce="false" />
    <inkscape:path-effect
       effect="spiro"
       id="path-effect15298"
       is_visible="true"
       lpeversion="1" />
    <inkscape:path-effect
       effect="simplify"
       id="path-effect15404"
       is_visible="true"
       lpeversion="1"
       steps="1"
       threshold="0.0151852"
       smooth_angles="360"
       helper_size="0"
       simplify_individual_paths="false"
       simplify_just_coalesce="false" />
    <inkscape:path-effect
       effect="spiro"
       id="path-effect15406"
       is_visible="true"
       lpeversion="1" />
  </defs>
  <g
     inkscape:label="Calque 1"
     inkscape:groupmode="layer"
     id="layer1"
     transform="translate(-26.179986,-152.82478)">
    <path
       style="fill:#214478;stroke:none;stroke-width:0.264583px;stroke-linecap:butt;stroke-linejoin:miter;stroke-opacity:1"
       d="m 69.610933,192.6143 c -0.815098,0.13501 -1.48988,-0.28966 -2.181449,-0.0106 -0.691582,0.27911 -1.265531,0.83789 -1.563049,1.52175 -0.297518,0.68385 -0.315093,1.48471 -0.04786,2.18095 0.267241,0.69625 0.816098,1.27971 1.494807,1.58885 0.700554,0.31914 1.496333,0.345 2.265851,0.32313 0.769513,-0.0219 1.548909,-0.0852 2.302176,0.0736 0.473336,0.0998 0.939907,0.29497 1.279677,0.6393 0.169886,0.17217 0.305309,0.38013 0.382029,0.60952 0.07672,0.22937 0.09337,0.48031 0.03531,0.71511 -0.08629,0.34898 -0.332665,0.64391 -0.63106,0.84441 -0.29838,0.20052 -0.646532,0.31486 -0.997073,0.3946 -0.350537,0.0798 -0.707819,0.12721 -1.058292,0.20723 -0.350469,0.0801 -0.698466,0.19503 -0.996344,0.3963 -0.295551,0.19963 -0.53382,0.48132 -0.688883,0.8025 -0.155064,0.32118 -0.22731,0.68091 -0.216153,1.03739 0.0223,0.71296 0.382905,1.39687 0.921683,1.86433 0.591358,0.51309 1.368044,0.76861 2.143141,0.87896 0.775106,0.11035 1.562004,0.0876 2.344535,0.11234 1.039377,0.0328 2.075534,0.14976 3.115415,0.15558 1.039878,0.006 2.097573,-0.10419 3.05697,-0.50538 1.322472,-0.55299 2.387169,-1.64736 3.010659,-2.9381 0.62349,-1.29073 0.82145,-2.76524 0.67969,-4.19165 -0.13596,-1.36805 -0.58597,-2.71747 -1.38962,-3.8329 -0.80366,-1.11543 -1.972207,-1.98464 -3.302451,-2.33175 -1.11298,-0.29042 -2.283257,-0.21361 -3.432278,-0.26672 -1.598321,-0.0739 -3.180979,-0.40271 -4.781005,-0.40177 -0.584378,3.8e-4 -1.168732,0.0448 -1.746429,0.13296 -10e-7,0 3e-6,0 3e-6,0 z"
       id="path15300"
       sodipodi:nodetypes="ssssssssssssscsssssssssssssss" />
    <path
       style="fill:#2a7fff;stroke:none;stroke-width:0.264583px;stroke-linecap:butt;stroke-linejoin:miter;stroke-opacity:1"
       d="m 38.083382,205.45129 c -1.613533,-2.01375 -3.633925,-3.65418 -5.550672,-5.38183 -1.916747,-1.72765 -3.775207,-3.59989 -4.93372,-5.90565 -1.453061,-2.892 -1.691513,-6.2855 -1.159426,-9.47798 0.532086,-3.19248 1.791592,-6.21833 3.217315,-9.1239 1.701051,-3.46668 3.675303,-6.84047 6.304291,-9.66887 2.628988,-2.82839 5.962692,-5.09822 9.719964,-5.98946 2.889989,-0.68552 5.922159,-0.53812 8.849838,-0.0375 2.92768,0.50066 5.783215,1.34651 8.666737,2.05874 3.394897,0.83854 6.885146,1.51125 9.978034,3.14297 1.546443,0.81587 2.980712,1.87298 4.107086,3.21029 1.126382,1.33731 1.935539,2.96484 2.177549,4.69647 0.231714,1.65793 -0.05913,3.35784 -0.622306,4.93431 -0.563188,1.57646 -1.391536,3.04388 -2.26114,4.47434 -1.739218,2.86091 -3.712578,5.74971 -4.099623,9.07535 -0.276273,2.37384 0.2931,4.77481 1.152909,7.00465 0.859808,2.22985 2.007934,4.33642 2.958538,6.5291 0.950604,2.19267 1.711009,4.51774 1.728466,6.90754 0.0087,1.1949 -0.171725,2.39666 -0.592271,3.51515 -0.420546,1.11848 -1.085549,2.15208 -1.973191,2.95206 -0.918305,0.8276 -2.057812,1.39085 -3.252353,1.70911 -1.194541,0.31826 -2.444212,0.3978 -3.678477,0.32845 -2.46853,-0.13869 -4.860601,-0.8606 -7.273802,-1.3985 -3.230611,-0.72011 -6.532502,-1.11563 -9.728506,-1.97642 -3.196005,-0.86079 -6.347563,-2.24007 -8.662809,-4.60545 -2.013211,-2.05681 -3.272772,-4.72698 -5.072431,-6.97302 z"
       id="path15294" />
    <path
       style="fill:#0044aa;stroke:none;stroke-width:0.264583px;stroke-linecap:butt;stroke-linejoin:miter;stroke-opacity:1"
       d="m 43.648643,178.36768 c -1.641072,0.74145 -3.06683,1.95242 -4.064105,3.45186 -0.917046,1.3788 -1.474436,3.02494 -1.407076,4.67949 0.05635,1.38421 0.546051,2.73147 1.288132,3.90131 0.742081,1.16984 1.729842,2.16982 2.814802,3.03126 0.553509,0.43947 1.138699,0.84784 1.786032,1.13152 0.647332,0.28367 1.363016,0.43864 2.064955,0.35623 0.540841,-0.0635 1.059577,-0.26601 1.5274,-0.54472 0.467806,-0.27875 0.88717,-0.63252 1.277142,-1.01261 0.779942,-0.76017 1.452309,-1.63228 2.293977,-2.32349 1.040079,-0.85414 2.297144,-1.39844 3.40596,-2.16123 0.554407,-0.3814 1.075282,-0.82163 1.483814,-1.35636 0.408531,-0.53473 0.701368,-1.16969 0.767027,-1.83941 0.08002,-0.81621 -0.182223,-1.64067 -0.616611,-2.3363 -0.434385,-0.69564 -1.032759,-1.27448 -1.66637,-1.79518 -1.248304,-1.02586 -2.656741,-1.85355 -4.151032,-2.46816 -1.429314,-0.58789 -2.954182,-0.98391 -4.499653,-0.99225 -0.775725,-0.004 -1.551927,0.0895 -2.304394,0.27804 z"
       id="path15402" />
    <path
       sodipodi:type="star"
       style="fill:#969696;stroke:none;stroke-width:0.704001;stroke-linecap:round;stroke-linejoin:round"
       id="path873"
       inkscape:flatsided="true"
       sodipodi:sides="4"
       sodipodi:cx="98.512024"
       sodipodi:cy="188.54408"
       sodipodi:r1="4.6314006"
       sodipodi:r2="3.274895"
       sodipodi:arg1="0.024925506"
       sodipodi:arg2="0.81032367"
       inkscape:rounded="-3.469447e-18"
       inkscape:randomized="0"
       d="m 103.14199,188.65951 -4.745394,4.51453 -4.514534,-4.74539 4.74539,-4.51453 z"
       inkscape:transform-center-x="-2.6124564e-06"
       inkscape:transform-center-y="-1.7578204e-06"
       transform="matrix(1.0173841,0,0,0.58478863,-15.45399,90.031019)" />
    <ellipse
       style="fill:#80b3ff;stroke:none;stroke-width:0.704001;stroke-linecap:round;stroke-linejoin:round"
       id="path4433"
       cx="149.92731"
       cy="198.32101"
       rx="27.640564"
       ry="26.942636" />
    <ellipse
       style="fill:#0055d4;stroke:none;stroke-width:0.704001;stroke-linecap:round;stroke-linejoin:round"
       id="path4435"
       cx="147.09251"
       cy="190.85152"
       rx="10.191659"
       ry="9.9708157" />
    <path
       style="fill:none;stroke:#000000;stroke-width:0.563522;stroke-linecap:round;stroke-linejoin:miter;stroke-dasharray:none;stroke-opacity:1;marker-end:url(#TriangleStart)"
       d="M 92.604166,201.08333 H 116.41667"
       id="path7397" />
    <path
       style="fill:none;stroke:#000000;stroke-width:0.56441;stroke-linecap:round;stroke-linejoin:miter;stroke-dasharray:none;stroke-opacity:1;marker-end:url(#TriangleStart)"
       d="m 85.195831,179.91666 v 15.875"
       id="path7399" />
    <path
       style="fill:none;stroke:#000000;stroke-width:0.563522;stroke-linecap:round;stroke-linejoin:miter;stroke-dasharray:none;stroke-opacity:1;marker-start:url(#TriangleStart)"
       d="m 79.904166,208.90204 v 18.52083"
       id="path7401" />
    <text
       xml:space="preserve"
       style="font-style:normal;font-weight:normal;font-size:5.29167px;line-height:1.25;font-family:sans-serif;letter-spacing:0px;word-spacing:0px;fill:#000000;fill-opacity:1;stroke:none;stroke-width:0.264583"
       x="97.366669"
       y="156.63333"
       id="text9162"><tspan
         sodipodi:role="line"
         id="tspan9160"
         style="font-style:normal;font-variant:normal;font-weight:normal;font-stretch:normal;font-size:5.29167px;font-family:arial;-inkscape-font-specification:arial;text-align:center;text-anchor:middle;stroke-width:0.264583"
         x="97.366669"
         y="156.63333">Antigène </tspan><tspan
         sodipodi:role="line"
         style="font-style:normal;font-variant:normal;font-weight:normal;font-stretch:normal;font-size:5.29167px;font-family:arial;-inkscape-font-specification:arial;text-align:center;text-anchor:middle;stroke-width:0.264583"
         x="97.366669"
         y="163.29619"
         id="tspan9214">récupéré </tspan><tspan
         sodipodi:role="line"
         style="font-style:normal;font-variant:normal;font-weight:normal;font-stretch:normal;font-size:5.29167px;font-family:arial;-inkscape-font-specification:arial;text-align:center;text-anchor:middle;stroke-width:0.264583"
         x="97.366669"
         y="169.95903"
         id="tspan9216">après la  </tspan><tspan
         sodipodi:role="line"
         style="font-style:normal;font-variant:normal;font-weight:normal;font-stretch:normal;font-size:5.29167px;font-family:arial;-inkscape-font-specification:arial;text-align:center;text-anchor:middle;stroke-width:0.264583"
         x="97.366669"
         y="176.62189"
         id="tspan9218">phagocytose</tspan></text>
    <text
       xml:space="preserve"
       style="font-style:normal;font-weight:normal;font-size:5.29167px;line-height:1.25;font-family:sans-serif;letter-spacing:0px;word-spacing:0px;fill:#000000;fill-opacity:1;stroke:none;stroke-width:0.264583"
       x="148.16667"
       y="214.3125"
       id="text9162-0"><tspan
         sodipodi:role="line"
         style="font-style:normal;font-variant:normal;font-weight:normal;font-stretch:normal;font-size:5.29167px;font-family:arial;-inkscape-font-specification:arial;text-align:center;text-anchor:middle;stroke-width:0.264583"
         x="148.16667"
         y="214.3125"
         id="tspan9218-18">Lymphocyte T</tspan></text>
    <text
       xml:space="preserve"
       style="font-style:normal;font-weight:normal;font-size:5.29167px;line-height:1.25;font-family:sans-serif;letter-spacing:0px;word-spacing:0px;fill:#000000;fill-opacity:1;stroke:none;stroke-width:0.264583"
       x="146.65642"
       y="191.64204"
       id="text9162-7"><tspan
         sodipodi:role="line"
         style="font-style:normal;font-variant:normal;font-weight:normal;font-stretch:normal;font-size:5.29167px;font-family:arial;-inkscape-font-specification:arial;text-align:center;text-anchor:middle;stroke-width:0.264583"
         x="146.65642"
         y="191.64204"
         id="tspan9218-2">T</tspan></text>
    <text
       xml:space="preserve"
       style="font-style:normal;font-weight:normal;font-size:5.29167px;line-height:1.25;font-family:sans-serif;letter-spacing:0px;word-spacing:0px;fill:#000000;fill-opacity:1;stroke:none;stroke-width:0.264583"
       x="79.06752"
       y="232.76874"
       id="text9162-3"><tspan
         sodipodi:role="line"
         style="font-style:normal;font-variant:normal;font-weight:normal;font-stretch:normal;font-size:5.29167px;font-family:arial;-inkscape-font-specification:arial;text-align:center;text-anchor:middle;stroke-width:0.264583"
         x="79.06752"
         y="232.76874"
         id="tspan9218-3">CMH</tspan></text>
    <text
       xml:space="preserve"
       style="font-style:normal;font-weight:normal;font-size:5.29167px;line-height:1.25;font-family:sans-serif;letter-spacing:0px;word-spacing:0px;fill:#000000;fill-opacity:1;stroke:none;stroke-width:0.264583"
       x="105.83334"
       y="190.5"
       id="text9162-5"><tspan
         sodipodi:role="line"
         style="font-style:normal;font-variant:normal;font-weight:normal;font-stretch:normal;font-size:5.29167px;font-family:arial;-inkscape-font-specification:arial;text-align:center;text-anchor:middle;stroke-width:0.264583"
         x="105.83334"
         y="190.5"
         id="tspan9218-1">Présentation </tspan><tspan
         sodipodi:role="line"
         style="font-style:normal;font-variant:normal;font-weight:normal;font-stretch:normal;font-size:5.29167px;font-family:arial;-inkscape-font-specification:arial;text-align:center;text-anchor:middle;stroke-width:0.264583"
         x="105.83334"
         y="197.16286"
         id="tspan10803">de l'antigène</tspan></text>
    <text
       xml:space="preserve"
       style="font-style:normal;font-weight:normal;font-size:5.29167px;line-height:1.25;font-family:sans-serif;letter-spacing:0px;word-spacing:0px;fill:#000000;fill-opacity:1;stroke:none;stroke-width:0.264583"
       x="55.5625"
       y="174.625"
       id="text9162-2"><tspan
         sodipodi:role="line"
         style="font-style:normal;font-variant:normal;font-weight:normal;font-stretch:normal;font-size:5.29167px;font-family:arial;-inkscape-font-specification:arial;text-align:center;text-anchor:middle;stroke-width:0.264583"
         x="55.5625"
         y="174.625"
         id="tspan9218-36">Macrophage</tspan></text>
  </g>
  <metadata
     id="metadata15165">
    <rdf:RDF>
      <cc:Work
         rdf:about="">
        <dc:date>été 2022 - V1 du TST</dc:date>
        <dc:creator>
          <cc:Agent>
            <dc:title>Paulhenry Saux</dc:title>
          </cc:Agent>
        </dc:creator>
        <dc:publisher>
          <cc:Agent>
            <dc:title>Paulhenry.eu</dc:title>
          </cc:Agent>
        </dc:publisher>
        <dc:language>FR</dc:language>
        <cc:license
           rdf:resource="http://creativecommons.org/licenses/by-sa/4.0/" />
      </cc:Work>
      <cc:License
         rdf:about="http://creativecommons.org/licenses/by-sa/4.0/">
        <cc:permits
           rdf:resource="http://creativecommons.org/ns#Reproduction" />
        <cc:permits
           rdf:resource="http://creativecommons.org/ns#Distribution" />
        <cc:requires
           rdf:resource="http://creativecommons.org/ns#Notice" />
        <cc:requires
           rdf:resource="http://creativecommons.org/ns#Attribution" />
        <cc:permits
           rdf:resource="http://creativecommons.org/ns#DerivativeWorks" />
        <cc:requires
           rdf:resource="http://creativecommons.org/ns#ShareAlike" />
      </cc:License>
    </rdf:RDF>
  </metadata>
</svg>
