<?xml version="1.0" encoding="UTF-8" standalone="no"?>
<!-- Created with Inkscape (http://www.inkscape.org/) -->

<svg
   width="167.89247mm"
   height="120.43298mm"
   viewBox="0 0 167.89247 120.43298"
   version="1.1"
   id="svg5"
   xml:space="preserve"
   inkscape:version="1.2 (1:1.2+202206011327+fc4e4096c5)"
   sodipodi:docname="chap1-fig1.svg"
   xmlns:inkscape="http://www.inkscape.org/namespaces/inkscape"
   xmlns:sodipodi="http://sodipodi.sourceforge.net/DTD/sodipodi-0.dtd"
   xmlns="http://www.w3.org/2000/svg"
   xmlns:svg="http://www.w3.org/2000/svg"
   xmlns:rdf="http://www.w3.org/1999/02/22-rdf-syntax-ns#"
   xmlns:cc="http://creativecommons.org/ns#"
   xmlns:dc="http://purl.org/dc/elements/1.1/"><sodipodi:namedview
     id="namedview7"
     pagecolor="#ffffff"
     bordercolor="#666666"
     borderopacity="1.0"
     inkscape:showpageshadow="2"
     inkscape:pageopacity="0.0"
     inkscape:pagecheckerboard="0"
     inkscape:deskcolor="#d1d1d1"
     inkscape:document-units="mm"
     showgrid="true"
     inkscape:zoom="1.042298"
     inkscape:cx="341.07329"
     inkscape:cy="266.23864"
     inkscape:window-width="1366"
     inkscape:window-height="740"
     inkscape:window-x="0"
     inkscape:window-y="0"
     inkscape:window-maximized="1"
     inkscape:current-layer="layer1"><inkscape:grid
       type="xygrid"
       id="grid1776"
       originx="-18.009358"
       originy="-19.400245" /></sodipodi:namedview><defs
     id="defs2"><marker
       style="overflow:visible"
       id="TriangleStart"
       refX="0"
       refY="0"
       orient="auto-start-reverse"
       inkscape:stockid="TriangleStart"
       markerWidth="5.3244081"
       markerHeight="6.155385"
       viewBox="0 0 5.3244081 6.1553851"
       inkscape:isstock="true"
       inkscape:collect="always"
       preserveAspectRatio="xMidYMid"><path
         transform="scale(0.5)"
         style="fill:context-stroke;fill-rule:evenodd;stroke:context-stroke;stroke-width:1pt"
         d="M 5.77,0 -2.88,5 V -5 Z"
         id="path135" /></marker><inkscape:path-effect
       effect="vonkoch"
       id="path-effect14709"
       is_visible="true"
       lpeversion="1"
       ref_path="M 50.270833,26.458333 H 113.77083"
       generator="m 50.270833,26.458333 h 21.166666 m 21.166665,0 h 21.166666"
       similar_only="false"
       nbgenerations="1"
       drawall="true"
       maxComplexity="1000" /></defs><g
     inkscape:label="Calque 1"
     inkscape:groupmode="layer"
     id="layer1"
     transform="translate(-18.009357,-19.400245)"><path
       style="fill:none;stroke:#0044aa;stroke-width:0.264583px;stroke-linecap:butt;stroke-linejoin:miter;stroke-opacity:1"
       d="m 18.009357,50.625755 h 22.034594 2.508904 c 2.443999,0 4.02301,-1.614935 5.089832,-2.645833 15.407298,-14.888468 16.303344,-12.543817 22.489584,-2.645833 1.983136,3.173017 3.439583,4.7625 3.95687,5.291666 11.91813,15.875 15.886856,0 26.681089,0 h 79.16404"
       id="path1832"
       sodipodi:nodetypes="cccssccc" /><path
       style="fill:#f1c100;fill-opacity:1;stroke:#d4aa00;stroke-width:0.017661"
       d="m 116.14254,50.584725 c 1.26245,-0.109362 2.47152,-0.624462 2.66201,-1.93656 0.0734,-0.505361 -0.0763,-1.013768 -0.20829,-1.498392 -0.0641,-0.235051 -0.32414,-0.574898 0.11564,-0.616171 0.4572,-0.04291 0.96266,-0.217432 1.25628,-0.585012 0.29069,-0.363898 -0.43665,-0.224009 -0.62885,-0.189802 -0.37295,0.06637 -0.26387,-0.190838 -0.24947,-0.439326 0.0329,-0.568086 -0.34524,-1.140548 -0.90922,-1.312738 -0.48337,-0.14758 -1.09734,-0.135926 -1.42983,0.295473 -0.36997,0.480042 -0.28791,1.162707 0.0128,1.656126 0.2187,0.35895 0.51071,0.780524 0.39309,1.204166 -0.12809,0.461384 -0.71248,0.551905 -1.13591,0.611739 -0.74926,0.10588 -1.5072,-0.04149 -2.24996,-0.149228 -0.3138,-0.04552 -0.6501,-0.295777 -0.59061,-0.643582 0.0234,-0.137141 0.07,-0.469351 -0.1238,-0.21559 -0.30134,0.39453 -0.54912,0.892184 -0.52446,1.396567 0.10282,2.102735 1.97113,2.564359 3.61067,2.42233 z"
       id="path3298"
       inkscape:connector-curvature="0"
       sodipodi:nodetypes="sssssssssssssssss" /><path
       style="fill:none;stroke:#000000;stroke-width:0.265;stroke-linecap:round;stroke-linejoin:miter;stroke-dasharray:0.265, 0.53;stroke-dashoffset:0;stroke-opacity:1"
       d="m 42.615604,50.625755 57.020349,-0.0086"
       id="path9379"
       sodipodi:nodetypes="cc" /><path
       style="fill:none;stroke:#0044aa;stroke-width:0.264583px;stroke-linecap:butt;stroke-linejoin:miter;stroke-opacity:1"
       d="m 18.538541,77.084088 h 53.25543 2.508904 c 2.443999,0 4.02301,-1.614935 5.089832,-2.645833 15.407298,-14.888468 16.303344,-12.543817 22.489593,-2.645833 1.98315,3.173017 3.4396,4.7625 3.95689,5.291666 11.9182,15.874997 15.88695,0 26.68124,0 h 48.47237"
       id="path1832-3"
       sodipodi:nodetypes="cccssccc" /><path
       style="fill:#f1c100;fill-opacity:1;stroke:#d4aa00;stroke-width:0.017661"
       d="m 116.14254,83.922229 c 1.26245,-0.109362 2.47152,-0.624462 2.66201,-1.93656 0.0734,-0.505361 -0.0763,-1.013768 -0.20829,-1.498392 -0.0641,-0.235051 -0.32414,-0.574898 0.11564,-0.616171 0.4572,-0.04291 0.96266,-0.217432 1.25628,-0.585012 0.29069,-0.363898 -0.43665,-0.224009 -0.62885,-0.189802 -0.37295,0.06637 -0.26387,-0.190838 -0.24947,-0.439326 0.0329,-0.568086 -0.34524,-1.140548 -0.90922,-1.312738 -0.48337,-0.14758 -1.09734,-0.135926 -1.42983,0.295473 -0.36997,0.480042 -0.28791,1.162707 0.0128,1.656126 0.2187,0.35895 0.51071,0.780524 0.39309,1.204166 -0.12809,0.461384 -0.71248,0.551905 -1.13591,0.611739 -0.74926,0.10588 -1.5072,-0.04149 -2.24996,-0.149228 -0.3138,-0.04552 -0.6501,-0.295777 -0.59061,-0.643582 0.0234,-0.137141 0.07,-0.469351 -0.1238,-0.21559 -0.30134,0.39453 -0.54912,0.892184 -0.52446,1.396567 0.10282,2.102735 1.97113,2.564359 3.61067,2.42233 z"
       id="path3298-6"
       inkscape:connector-curvature="0"
       sodipodi:nodetypes="sssssssssssssssss" /><path
       style="fill:none;stroke:#000000;stroke-width:0.265;stroke-linecap:round;stroke-linejoin:miter;stroke-dasharray:0.265, 0.53;stroke-dashoffset:0;stroke-opacity:1"
       d="m 74.894791,77.084088 57.020529,-0.0086"
       id="path9379-7"
       sodipodi:nodetypes="cc" /><path
       style="fill:none;stroke:#0044aa;stroke-width:0.264583px;stroke-linecap:butt;stroke-linejoin:miter;stroke-opacity:1"
       d="m 18.538561,105.92366 h 74.951263 2.508904 c 2.443999,0 4.023012,-1.61493 5.089842,-2.64583 15.40738,-14.888463 16.30343,-12.543812 22.4897,-2.64583 1.98315,3.17302 3.4396,4.7625 3.95689,5.29167 11.9182,15.87499 15.88695,0 26.68124,0 h 27.3057"
       id="path1832-3-5"
       sodipodi:nodetypes="cccssccc" /><path
       style="fill:#f1c100;fill-opacity:1;stroke:#d4aa00;stroke-width:0.017661"
       d="m 116.14254,92.653392 c 1.26245,-0.109367 2.47152,-0.624464 2.66201,-1.936548 0.0734,-0.505357 -0.0763,-1.013764 -0.20829,-1.498391 -0.0641,-0.23505 -0.32414,-0.574887 0.11564,-0.616167 0.4572,-0.0429 0.96266,-0.21743 1.25628,-0.585007 0.29069,-0.363897 -0.43665,-0.224007 -0.62885,-0.189797 -0.37295,0.0664 -0.26387,-0.19084 -0.24947,-0.43933 0.0329,-0.568077 -0.34524,-1.140534 -0.90922,-1.312721 -0.48337,-0.14758 -1.09734,-0.13593 -1.42983,0.295467 -0.36997,0.480037 -0.28791,1.162704 0.0128,1.656111 0.2187,0.358947 0.51071,0.780527 0.39309,1.204164 -0.12809,0.461377 -0.71248,0.551907 -1.13591,0.611737 -0.74926,0.105877 -1.5072,-0.0415 -2.24996,-0.14923 -0.3138,-0.0455 -0.6501,-0.295777 -0.59061,-0.643577 0.0234,-0.13714 0.07,-0.469347 -0.1238,-0.215587 -0.30134,0.394527 -0.54912,0.892174 -0.52446,1.396561 0.10282,2.102718 1.97113,2.564345 3.61067,2.422315 z"
       id="path3298-6-3"
       inkscape:connector-curvature="0"
       sodipodi:nodetypes="sssssssssssssssss" /><path
       style="fill:none;stroke:#000000;stroke-width:0.265;stroke-linecap:round;stroke-linejoin:miter;stroke-dasharray:0.265, 0.53;stroke-dashoffset:0;stroke-opacity:1"
       d="m 96.590644,105.92366 57.020646,-0.009"
       id="path9379-7-5"
       sodipodi:nodetypes="cc" /><path
       style="fill:none;stroke:#0044aa;stroke-width:0.264583px;stroke-linecap:butt;stroke-linejoin:miter;stroke-opacity:1"
       d="m 18.538567,132.64659 h 99.293033 2.50891 c 2.44402,0 4.02304,-1.61494 5.08987,-2.64584 15.40738,-14.88846 16.30343,-12.54381 22.48971,-2.64583 1.98314,3.17302 3.4396,4.7625 3.95689,5.29167 11.91817,15.875 15.88692,0 26.68121,0 h 1.9057"
       id="path1832-6"
       sodipodi:nodetypes="cccssccc" /><path
       style="fill:#f1c100;fill-opacity:1;stroke:#d4aa00;stroke-width:0.017661"
       d="m 116.14251,132.60556 c 1.26245,-0.10937 2.47152,-0.62447 2.66201,-1.93656 0.0734,-0.50536 -0.0763,-1.01377 -0.20829,-1.4984 -0.0641,-0.23505 -0.32414,-0.57489 0.11564,-0.61617 0.4572,-0.0429 0.96266,-0.21743 1.25628,-0.58501 0.29069,-0.3639 -0.43665,-0.22401 -0.62885,-0.1898 -0.37295,0.0664 -0.26387,-0.19084 -0.24947,-0.43933 0.0329,-0.56808 -0.34524,-1.14054 -0.90922,-1.31273 -0.48337,-0.14758 -1.09734,-0.13593 -1.42983,0.29547 -0.36997,0.48004 -0.28791,1.16271 0.0128,1.65612 0.2187,0.35895 0.51071,0.78053 0.39309,1.20417 -0.12809,0.46138 -0.71248,0.55191 -1.13591,0.61174 -0.74926,0.10588 -1.5072,-0.0415 -2.24996,-0.14923 -0.3138,-0.0455 -0.6501,-0.29578 -0.59061,-0.64358 0.0234,-0.13714 0.07,-0.46935 -0.1238,-0.21559 -0.30134,0.39453 -0.54912,0.89218 -0.52446,1.39657 0.10282,2.10273 1.97113,2.56436 3.61067,2.42233 z"
       id="path3298-2"
       inkscape:connector-curvature="0"
       sodipodi:nodetypes="sssssssssssssssss" /><path
       style="fill:none;stroke:#000000;stroke-width:0.265;stroke-linecap:round;stroke-linejoin:miter;stroke-dasharray:0.265, 0.53;stroke-dashoffset:0;stroke-opacity:1"
       d="m 121.99077,132.64659 57.02065,-0.009"
       id="path9379-9"
       sodipodi:nodetypes="cc" /><text
       xml:space="preserve"
       style="font-style:normal;font-weight:normal;font-size:5.29167px;line-height:1.25;font-family:sans-serif;letter-spacing:0px;word-spacing:0px;fill:#0044aa;fill-opacity:1;stroke:none;stroke-width:0.264583"
       x="33.702091"
       y="23.650311"
       id="text14655"><tspan
         sodipodi:role="line"
         id="tspan14653"
         style="font-style:normal;font-variant:normal;font-weight:normal;font-stretch:normal;font-size:5.29167px;font-family:arial;-inkscape-font-specification:arial;fill:#0044aa;fill-opacity:1;stroke-width:0.264583"
         x="33.702091"
         y="23.650311">Perturbation à la surface de l'eau</tspan></text><path
       style="fill:none;stroke:#0044aa;stroke-width:0.265;stroke-linecap:butt;stroke-linejoin:miter;stroke-dasharray:none;stroke-opacity:1;marker-start:url(#TriangleStart);marker-end:url(#TriangleStart)"
       d="M 50.270833,26.458333 H 113.77083"
       id="path14707"
       class="UnoptimicedTransforms"
       transform="translate(-11.641668)" /><text
       xml:space="preserve"
       style="font-style:normal;font-variant:normal;font-weight:normal;font-stretch:normal;font-size:5.29167px;line-height:1.25;font-family:arial;-inkscape-font-specification:arial;letter-spacing:0px;word-spacing:0px;fill:#f1c100;fill-opacity:1;stroke:none;stroke-width:0.264583"
       x="107.60715"
       y="38.907696"
       id="text14955"><tspan
         sodipodi:role="line"
         id="tspan14953"
         style="font-style:normal;font-variant:normal;font-weight:normal;font-stretch:normal;font-size:5.29167px;font-family:arial;-inkscape-font-specification:arial;fill:#f1c100;fill-opacity:1;stroke-width:0.264583"
         x="107.60715"
         y="38.907696">Canard</tspan></text><path
       style="fill:none;stroke:#000000;stroke-width:0.265;stroke-linecap:butt;stroke-linejoin:miter;stroke-dasharray:none;stroke-opacity:1;marker-end:url(#TriangleStart)"
       d="m 117.47781,26.535234 59.79293,-0.0769"
       id="path16161"
       sodipodi:nodetypes="cc" /><text
       xml:space="preserve"
       style="font-style:normal;font-weight:normal;font-size:5.29167px;line-height:1.25;font-family:sans-serif;letter-spacing:0px;word-spacing:0px;fill:#000000;fill-opacity:1;stroke:none;stroke-width:0.264583"
       x="114.49788"
       y="23.252726"
       id="text16183"><tspan
         sodipodi:role="line"
         id="tspan16181"
         style="font-style:normal;font-variant:normal;font-weight:normal;font-stretch:normal;font-size:5.29167px;font-family:arial;-inkscape-font-specification:arial;stroke-width:0.264583"
         x="114.49788"
         y="23.252726">Sens de propagation de l'onde</tspan></text></g><metadata
     id="metadata17364"><rdf:RDF><cc:Work
         rdf:about=""><dc:date>été 2022 - V1 du TST</dc:date><dc:creator><cc:Agent><dc:title>Paulhenry Saux</dc:title></cc:Agent></dc:creator><dc:publisher><cc:Agent><dc:title>Paulhenry.eu</dc:title></cc:Agent></dc:publisher><dc:language>FR</dc:language><cc:license
           rdf:resource="http://creativecommons.org/licenses/by-sa/4.0/" /></cc:Work><cc:License
         rdf:about="http://creativecommons.org/licenses/by-sa/4.0/"><cc:permits
           rdf:resource="http://creativecommons.org/ns#Reproduction" /><cc:permits
           rdf:resource="http://creativecommons.org/ns#Distribution" /><cc:requires
           rdf:resource="http://creativecommons.org/ns#Notice" /><cc:requires
           rdf:resource="http://creativecommons.org/ns#Attribution" /><cc:permits
           rdf:resource="http://creativecommons.org/ns#DerivativeWorks" /><cc:requires
           rdf:resource="http://creativecommons.org/ns#ShareAlike" /></cc:License></rdf:RDF></metadata></svg>
