<?xml version="1.0" encoding="UTF-8" standalone="no"?>
<!-- Created with Inkscape (http://www.inkscape.org/) -->

<svg
   width="86.518959mm"
   height="27.129042mm"
   viewBox="0 0 86.518959 27.129042"
   version="1.1"
   id="svg17777"
   inkscape:version="1.2 (1:1.2+202206011327+fc4e4096c5)"
   sodipodi:docname="chap1-fig2.svg"
   xmlns:inkscape="http://www.inkscape.org/namespaces/inkscape"
   xmlns:sodipodi="http://sodipodi.sourceforge.net/DTD/sodipodi-0.dtd"
   xmlns="http://www.w3.org/2000/svg"
   xmlns:svg="http://www.w3.org/2000/svg"
   xmlns:rdf="http://www.w3.org/1999/02/22-rdf-syntax-ns#"
   xmlns:cc="http://creativecommons.org/ns#"
   xmlns:dc="http://purl.org/dc/elements/1.1/">
  <sodipodi:namedview
     id="namedview17779"
     pagecolor="#ffffff"
     bordercolor="#666666"
     borderopacity="1.0"
     inkscape:showpageshadow="2"
     inkscape:pageopacity="0.0"
     inkscape:pagecheckerboard="0"
     inkscape:deskcolor="#d1d1d1"
     inkscape:document-units="mm"
     showgrid="true"
     inkscape:zoom="1.4740319"
     inkscape:cx="216.75243"
     inkscape:cy="72.92922"
     inkscape:window-width="1366"
     inkscape:window-height="740"
     inkscape:window-x="0"
     inkscape:window-y="0"
     inkscape:window-maximized="1"
     inkscape:current-layer="layer1">
    <inkscape:grid
       type="xygrid"
       id="grid20502"
       originx="-64.839644"
       originy="-107.26336" />
  </sodipodi:namedview>
  <defs
     id="defs17774">
    <marker
       style="overflow:visible"
       id="marker22765"
       refX="0"
       refY="0"
       orient="auto-start-reverse"
       inkscape:stockid="TriangleStart"
       markerWidth="5.3244081"
       markerHeight="6.155385"
       viewBox="0 0 5.3244081 6.1553851"
       inkscape:isstock="true"
       inkscape:collect="always"
       preserveAspectRatio="xMidYMid">
      <path
         transform="scale(0.5)"
         style="fill:context-stroke;fill-rule:evenodd;stroke:context-stroke;stroke-width:1pt"
         d="M 5.77,0 -2.88,5 V -5 Z"
         id="path22763" />
    </marker>
    <marker
       style="overflow:visible"
       id="TriangleStart"
       refX="0"
       refY="0"
       orient="auto-start-reverse"
       inkscape:stockid="TriangleStart"
       markerWidth="5.3244081"
       markerHeight="6.155385"
       viewBox="0 0 5.3244081 6.1553851"
       inkscape:isstock="true"
       inkscape:collect="always"
       preserveAspectRatio="xMidYMid">
      <path
         transform="scale(0.5)"
         style="fill:context-stroke;fill-rule:evenodd;stroke:context-stroke;stroke-width:1pt"
         d="M 5.77,0 -2.88,5 V -5 Z"
         id="path135" />
    </marker>
  </defs>
  <g
     inkscape:label="Calque 1"
     inkscape:groupmode="layer"
     id="layer1"
     transform="translate(-64.839645,-107.26335)">
    <path
       style="fill:none;stroke:#0044aa;stroke-width:0.264583px;stroke-linecap:round;stroke-linejoin:miter;stroke-opacity:1"
       d="m 64.971936,127.20575 h 15.684596 2.508904 c 2.443999,0 4.023012,-1.61493 5.089842,-2.64583 15.407382,-14.88846 16.303432,-12.54381 22.489702,-2.64583 1.98315,3.17302 3.4396,4.7625 3.95689,5.29167 11.9182,15.87499 15.88695,0 26.68124,0 h 9.8432"
       id="path1832-3-5"
       sodipodi:nodetypes="cccssccc" />
    <path
       style="fill:#f1c100;fill-opacity:1;stroke:#d4aa00;stroke-width:0.017661"
       d="m 103.30925,113.93548 c 1.26245,-0.10936 2.47152,-0.62446 2.66201,-1.93654 0.0734,-0.50536 -0.0763,-1.01377 -0.20829,-1.4984 -0.0641,-0.23505 -0.32414,-0.57488 0.11564,-0.61616 0.4572,-0.0429 0.96266,-0.21743 1.25628,-0.58501 0.29069,-0.3639 -0.43665,-0.22401 -0.62885,-0.1898 -0.37295,0.0664 -0.26387,-0.19084 -0.24947,-0.43933 0.0329,-0.56807 -0.34524,-1.14053 -0.90922,-1.31272 -0.48337,-0.14758 -1.09734,-0.13593 -1.42983,0.29547 -0.36997,0.48004 -0.28791,1.1627 0.0128,1.65611 0.2187,0.35895 0.51071,0.78053 0.39309,1.20416 -0.12809,0.46138 -0.71248,0.55191 -1.13591,0.61174 -0.74926,0.10588 -1.5072,-0.0415 -2.24996,-0.14923 -0.3138,-0.0455 -0.6501,-0.29578 -0.59061,-0.64358 0.0234,-0.13714 0.07,-0.46934 -0.1238,-0.21558 -0.301342,0.39452 -0.549122,0.89217 -0.524462,1.39656 0.10282,2.10272 1.971132,2.56434 3.610672,2.42231 z"
       id="path3298-6-3"
       inkscape:connector-curvature="0"
       sodipodi:nodetypes="sssssssssssssssss" />
    <path
       style="fill:#808080;fill-opacity:0.71214;stroke:none;stroke-width:0.017661"
       d="m 103.30925,126.90014 c 1.26245,-0.10936 2.47152,-0.62446 2.66201,-1.93654 0.0734,-0.50536 -0.0763,-1.01377 -0.20829,-1.4984 -0.0641,-0.23505 -0.32414,-0.57488 0.11564,-0.61616 0.4572,-0.0429 0.96266,-0.21743 1.25628,-0.58501 0.29069,-0.3639 -0.43665,-0.22401 -0.62885,-0.1898 -0.37295,0.0664 -0.26387,-0.19084 -0.24947,-0.43933 0.0329,-0.56807 -0.34524,-1.14053 -0.90922,-1.31272 -0.48337,-0.14758 -1.09734,-0.13593 -1.42983,0.29547 -0.36997,0.48004 -0.28791,1.1627 0.0128,1.65611 0.2187,0.35895 0.51071,0.78053 0.39309,1.20416 -0.12809,0.46138 -0.71248,0.55191 -1.13591,0.61174 -0.74926,0.10588 -1.5072,-0.0415 -2.24996,-0.14923 -0.3138,-0.0455 -0.6501,-0.29578 -0.59061,-0.64358 0.0234,-0.13714 0.07,-0.46934 -0.1238,-0.21558 -0.30134,0.39452 -0.54912,0.89217 -0.52446,1.39656 0.10282,2.10272 1.97113,2.56434 3.61067,2.42231 z"
       id="path3298-6-3-1"
       inkscape:connector-curvature="0"
       sodipodi:nodetypes="sssssssssssssssss" />
    <path
       style="fill:none;stroke:#000000;stroke-width:0.265;stroke-linecap:round;stroke-linejoin:miter;stroke-dasharray:0.265, 0.53;stroke-dashoffset:0;stroke-opacity:1"
       d="m 83.757352,127.20575 57.020648,-0.009"
       id="path9379-7-5"
       sodipodi:nodetypes="cc" />
    <path
       style="fill:none;stroke:#000000;stroke-width:0.265;stroke-linecap:butt;stroke-linejoin:miter;stroke-dasharray:none;stroke-opacity:1;marker-start:url(#marker22765);marker-end:url(#TriangleStart)"
       d="M 116.41667,126.47083 V 113.24166"
       id="path22009" />
    <text
       xml:space="preserve"
       style="font-style:normal;font-weight:normal;font-size:3.52778px;line-height:1.25;font-family:sans-serif;letter-spacing:0px;word-spacing:0px;fill:#000000;fill-opacity:1;stroke:none;stroke-width:0.264583"
       x="117.74475"
       y="121.58775"
       id="text22827"><tspan
         sodipodi:role="line"
         id="tspan22825"
         style="font-style:normal;font-variant:normal;font-weight:normal;font-stretch:normal;font-size:3.52778px;font-family:arial;-inkscape-font-specification:arial;stroke-width:0.264583"
         x="117.74475"
         y="121.58775">Amplitude</tspan></text>
    <text
       xml:space="preserve"
       style="font-style:normal;font-weight:normal;font-size:3.52778px;line-height:1.25;font-family:sans-serif;letter-spacing:0px;word-spacing:0px;fill:#808080;fill-opacity:1;stroke:none;stroke-width:0.264583"
       x="91.708427"
       y="130.92741"
       id="text23581"><tspan
         sodipodi:role="line"
         id="tspan23579"
         style="font-style:normal;font-variant:normal;font-weight:normal;font-stretch:normal;font-size:3.52778px;font-family:arial;-inkscape-font-specification:arial;fill:#808080;fill-opacity:1;stroke-width:0.264583"
         x="91.708427"
         y="130.92741">Position initiale</tspan></text>
  </g>
  <metadata
     id="metadata23970">
    <rdf:RDF>
      <cc:Work
         rdf:about="">
        <dc:date>été 2022 - V1 du TST</dc:date>
        <dc:creator>
          <cc:Agent>
            <dc:title>Paulhenry Saux</dc:title>
          </cc:Agent>
        </dc:creator>
        <dc:publisher>
          <cc:Agent>
            <dc:title>Paulhenry.eu</dc:title>
          </cc:Agent>
        </dc:publisher>
        <dc:language>FR</dc:language>
        <cc:license
           rdf:resource="http://creativecommons.org/licenses/by-sa/4.0/" />
      </cc:Work>
      <cc:License
         rdf:about="http://creativecommons.org/licenses/by-sa/4.0/">
        <cc:permits
           rdf:resource="http://creativecommons.org/ns#Reproduction" />
        <cc:permits
           rdf:resource="http://creativecommons.org/ns#Distribution" />
        <cc:requires
           rdf:resource="http://creativecommons.org/ns#Notice" />
        <cc:requires
           rdf:resource="http://creativecommons.org/ns#Attribution" />
        <cc:permits
           rdf:resource="http://creativecommons.org/ns#DerivativeWorks" />
        <cc:requires
           rdf:resource="http://creativecommons.org/ns#ShareAlike" />
      </cc:License>
    </rdf:RDF>
  </metadata>
</svg>
