<?xml version="1.0" encoding="UTF-8" standalone="no"?>
<!-- Created with Inkscape (http://www.inkscape.org/) -->

<svg
   width="243.19925mm"
   height="128.93459mm"
   viewBox="0 0 243.19925 128.93459"
   version="1.1"
   id="svg67960"
   inkscape:version="1.2 (1:1.2+202206011327+fc4e4096c5)"
   sodipodi:docname="chap1-fig17.svg"
   xmlns:inkscape="http://www.inkscape.org/namespaces/inkscape"
   xmlns:sodipodi="http://sodipodi.sourceforge.net/DTD/sodipodi-0.dtd"
   xmlns="http://www.w3.org/2000/svg"
   xmlns:svg="http://www.w3.org/2000/svg"
   xmlns:rdf="http://www.w3.org/1999/02/22-rdf-syntax-ns#"
   xmlns:cc="http://creativecommons.org/ns#"
   xmlns:dc="http://purl.org/dc/elements/1.1/">
  <sodipodi:namedview
     id="namedview67962"
     pagecolor="#ffffff"
     bordercolor="#666666"
     borderopacity="1.0"
     inkscape:showpageshadow="2"
     inkscape:pageopacity="0.0"
     inkscape:pagecheckerboard="0"
     inkscape:deskcolor="#d1d1d1"
     inkscape:document-units="mm"
     showgrid="false"
     inkscape:zoom="0.52114899"
     inkscape:cx="432.69776"
     inkscape:cy="342.51242"
     inkscape:window-width="1366"
     inkscape:window-height="740"
     inkscape:window-x="0"
     inkscape:window-y="0"
     inkscape:window-maximized="1"
     inkscape:current-layer="layer1">
    <inkscape:grid
       type="xygrid"
       id="grid69739"
       originx="60.807914"
       originy="-67.940241" />
  </sodipodi:namedview>
  <defs
     id="defs67957" />
  <g
     inkscape:label="Calque 1"
     inkscape:groupmode="layer"
     id="layer1"
     transform="translate(60.807916,-67.940235)">
    <ellipse
       style="fill:none;stroke:#666666;stroke-width:0.765;stroke-linecap:round;stroke-linejoin:round;stroke-miterlimit:10.8"
       id="path42810"
       cx="123.80051"
       cy="126.92308"
       rx="58.208324"
       ry="58.208332" />
    <ellipse
       style="fill:none;stroke:#666666;stroke-width:0.765;stroke-linecap:round;stroke-linejoin:round;stroke-miterlimit:10.8"
       id="path42810-6"
       cx="-2.2170916"
       cy="126.53107"
       rx="58.208324"
       ry="58.208332" />
    <path
       style="fill:none;fill-rule:evenodd;stroke:#800000;stroke-width:0.284692;stroke-linecap:butt;stroke-linejoin:miter;stroke-miterlimit:4;stroke-dasharray:none;stroke-opacity:1"
       d="m -32.658888,153.98705 c -0.276982,-0.5467 -1.604554,-2.20853 -1.045336,-3.28772 0.169112,-1.23716 1.468278,-0.33614 2.434567,-0.63732 0.340882,0.41127 -0.577089,1.48105 -0.871282,1.5825 -0.448417,1.28369 -1.333298,3.16301 0.478856,3.05382 1.378721,0.0505 0.231335,-3.07813 0.0018,-3.32545 -0.582688,-1.02028 1.244375,0.0204 1.561518,0.65658 0.360842,1.12279 -3.469934,1.29672 -0.616338,2.91837 1.043741,0.51601 0.661988,-3.77506 0.58733,-3.68511 -0.522152,-1.77385 1.223465,-0.59808 1.632243,0.54155 0.322408,1.08171 -2.204859,2.63749 -1.936517,4.10094 0.297673,1.67017 2.106904,-2.00354 1.524818,-3.89108 -0.178876,-1.38539 1.480123,-2.09848 0.484687,-0.54416 -0.473041,1.52137 -1.139322,2.02794 -1.71057,3.88265 -0.08965,2.31378 1.757191,-0.43855 1.820883,-1.42053 0.47782,-1.87804 1.0153,-1.70483 2.685283,-1.66912 0.427292,-0.18832 -1.915421,1.75383 -2.335354,1.92206 -1.488339,-0.0547 -0.397379,2.16826 -0.06745,2.32328 0.478819,0.0223 0.707324,-4.61271 1.735012,-4.92559 1.21678,-0.14112 -0.500472,3.92174 -0.977807,3.8344 -0.695846,1.68029 0.381925,1.2553 1.060056,0.75564 0.724733,-0.30574 0.641558,-2.62438 0.81001,-3.40994 -0.220974,-0.31843 0.880252,0.0728 -0.183234,1.50983 -0.788735,1.20202 -1.344665,1.27599 -0.855441,2.18063 0.927011,1.10791 1.924342,-1.89248 1.893537,-2.20915 0.650216,-0.51453 -0.08355,2.02616 -0.885597,2.46904 -1.382304,1.12138 -1.158585,2.40598 0.23374,1.05566 0.692929,-0.71054 0.885641,-3.0092 0.652778,-3.44215 -0.144125,-1.6107 1.379806,-1.45794 1.30889,-0.4138 0.460258,1.29334 -2.007698,2.74645 -1.981718,3.7572 -0.364142,1.5203 1.450255,-0.21051 1.736332,-1.10514 0.562123,-1.53301 -0.980639,-2.54325 1.652031,-1.98396 1.326671,0.25867 0.321305,1.55089 -0.373702,1.88156 -1.062362,0.57331 -2.890854,3.68083 -1.716586,2.55152 0.686783,-0.62321 0.651017,-2.78061 1.991582,-3.70792 0.7875,-0.2467 -0.637348,2.37855 -1.337631,3.27271 -0.42351,1.57719 0.747267,1.10326 0.792498,-0.60221 -0.0096,-1.12957 -0.09871,-1.56764 1.466899,-1.57175 1.068171,0.10634 -0.85815,1.57267 -1.299651,2.47184 -1.045881,1.7686 1.212111,0.77295 1.445571,-0.13163 0.521039,-1.37475 -0.218951,-1.29382 0.634272,-2.79844 0.31257,-0.35408 0.257989,1.92589 -0.33468,2.45132 -0.81717,0.39476 -1.19708,2.29784 -0.482714,2.45868 0.3015,0.23889 1.172384,-2.17091 1.457558,-3.71326 0.35066,-1.63227 1.761627,-1.35609 0.413012,0.69529 -0.510472,1.33158 -0.651997,1.71904 -0.963218,2.86918 0.108889,0.28362 1.915446,-3.43603 2.08624,-3.44457 0.631774,-1.40547 0.779889,-0.74708 0.286079,0.23065 -0.615085,0.80458 -1.502876,1.93867 -2.441937,2.90381 -0.878611,0.6533 0.796774,1.26378 2.056231,-0.33575 0.59374,-1.06752 0.232366,-2.12486 0.398264,-2.15119 -0.17798,0.10211 -0.579747,1.34759 -1.055474,2.37309 0.130896,0.76879 0.395332,1.98205 1.712583,0.81279 0.30392,-0.64085 1.291853,-2.53855 1.390844,-3.33837 -0.225393,-0.001 0.131656,0.33486 -0.590247,1.23604 -1.069434,1.07297 -2.309047,1.55231 -1.359481,2.43037 -0.09331,0.12106 0.830518,-3.51811 2.431125,-2.62627 0.505944,0.12824 -1.124641,2.56581 -1.077473,3.16286 -0.274778,0.5817 2.094596,-1.42229 2.414232,-1.85805 0.182299,-0.48691 0.513049,-2.48594 -0.17246,-1.21873 -0.633255,1.41436 -2.197042,1.82101 -2.547089,2.70865 -0.57864,1.72393 1.87071,-0.14995 2.109697,-0.79795 0.38208,-1.06837 -0.904472,-2.67034 0.946082,-1.96261 0.200383,0.1369 -1.974461,1.43982 -2.109573,2.07859 -0.339195,1.59158 1.918647,0.5434 2.161764,-0.11394 0.384333,-1.13463 0.613091,-2.13957 1.438233,-2.04143 0.973694,-0.31517 -1.181136,1.80613 -1.807658,2.51675 -1.391573,0.99511 -0.564977,2.19331 0.430081,1.06456 0.82352,-1.25228 0.753216,-1.65123 1.217872,-2.95116 0.669715,-0.0937 1.918242,-0.0704 -0.113902,1.19535 -1.31632,0.44479 -1.246146,1.73324 -0.40285,2.36473 -0.05242,0.0476 0.805224,-2.19652 1.208529,-3.49231 0.08768,-0.74702 1.493795,-0.33969 0.01089,1.05287 -0.845473,1.12555 -1.56649,2.11898 -0.543907,3.12102 1.055523,1.03882 1.015795,-2.07629 1.452591,-2.70647 0.07408,-1.18896 -0.120454,-1.78965 1.4861008,-1.40635 1.3604597,-0.0625 -1.8722818,1.79868 -2.1036658,2.7012 -0.73855,1.22155 -0.0074,1.87608 1.006015,0.44036 0.6043479,-0.9066 0.5571475,-2.44526 1.2057413,-2.74195 0.5140175,-0.86612 -0.6559692,1.86604 -1.3117783,2.75904 -0.782545,1.10804 2.3645457,1.09378 2.285329,-0.0764 0.511256,-1.42967 -0.5804418,-1.596 0.5756626,-1.65365 0.8700066,-0.20583 -0.4893098,-0.13645 -1.3324046,1.05636 -1.425829,1.50959 0.051387,1.82088 0.3728813,-0.39411 0.1289031,-1.22723 2.0188375,-0.88688 2.4300901,-0.0771 0.4724303,0.84115 -1.3214394,0.76961 -1.6859944,1.72257 -0.1535557,0.13302 1.7082962,-0.29484 2.0781362,-1.31552 0.098659,-0.19233 0.1794901,0.65304 -1.1893997,1.69621 -0.6242564,0.62949 0.243688,1.60598 0.9061099,-0.11226 0.2603788,-0.70607 1.7142666,-3.03889 1.6796005,-1.08906 0.3884154,0.73252 -2.1983521,0.59535 -2.3868883,1.63838 0.083245,1.38119 1.780706,-0.69838 1.877626,-0.90725 0.1527785,-0.97946 -0.3478437,-1.92873 0.8344653,-1.25012 0.9022804,0.66728 -0.7623645,0.87841 -1.0313209,1.63715 -0.1173095,0.0422 1.6055248,-2.7595 1.5515995,-0.78682 0.036706,0.89927 -1.569621,0.58832 -1.7431219,1.47149 -0.4702308,1.38177 1.4558461,0.80768 1.7383626,0.0471 0.2221507,-0.79855 1.2020964,-2.64121 0.5869381,-0.96223 -0.3702245,1.02048 -0.5686866,1.19938 -0.861342,2.23756 -0.040441,0.78416 1.1541629,-1.75403 0.8327808,-2.76401 -0.4402254,-0.9384 0.7882467,-0.85199 1.2225658,-0.28851 0.2821271,0.11261 -1.3507984,2.29982 -1.2582578,2.52794 -0.081609,0.39049 4.1757982,1.94916 3.51857915,-0.29169 -0.40263115,-1.21845 -2.18672775,-2.07644 -3.97608715,-1.59088 -1.0654655,0.7156 0.5748718,2.34334 0.8234893,3.1658 0.4202578,0.93044 0.4661722,-1.72629 0.5560172,-2.11329 0.845409,-1.5844 2.47394425,-1.28342 2.38513612,0.1052 -0.23150708,0.14068 -1.93862092,1.59424 -1.98863482,2.37883 -0.4408401,1.41994 2.20281913,-0.4567 2.25310643,-0.79306 0.47124477,-1.22863 0.23915496,-2.28835 1.15032327,-2.9672 1.2450307,-1.17243 1.4738608,0.65111 0.9458418,1.73174 -0.6292778,0.91038 -1.7830575,0.43613 -2.34707433,1.74263 0.23744544,0.76325 1.83846003,1.0538 1.44081293,-0.90785 0.00567,-0.98463 0.9242842,-2.27527 1.87272,-2.26622 0.5790813,0.29329 -1.6925746,1.5808 -1.894569,2.18916 -0.2920311,1.01963 -1.43278099,1.48914 -0.2205737,1.98 0.7329515,0.17612 1.5434245,-2.16883 1.6896772,-2.819 0.597523,0.0762 3.4751413,-2.20463 0.189569,0.90349 -0.4851438,0.3465 -0.2327945,2.12756 0.2356784,2.08592 0.9151889,0.088 0.3834406,-2.0759 0.7464153,-3.04222 0.1040687,-0.27353 1.3879389,1.10743 -0.309106,2.00618 -1.1568316,0.62243 -0.4906207,1.02177 -0.24384,2.1811 0.2812741,0.86424 1.4616508,-0.61008 1.2951624,-1.5363 0.079063,-0.70426 0.8888539,-2.17554 1.7573739,-3.26281 -0.010924,0.10806 0.7550135,1.53104 -1.5400114,2.94878 -1.2735993,1.09576 -2.3569072,1.32403 -0.8213547,2.75597 0.5977027,0.57921 1.3576524,-2.11799 1.4411318,-2.34884 0.3501057,-0.81098 1.0684556,-1.43938 1.7478778,-1.98087 0.7175484,-0.67974 -0.8282789,2.01983 -1.8178817,2.53559 -1.1055263,0.63402 -0.6110059,1.64313 0.676574,0.28376 0.8060986,-0.79861 0.6883252,-0.49301 0.9224377,-1.21334"
       id="path2419-5-4"
       sodipodi:nodetypes="ccccccccccccccccccccccccccccccccccccccccccccccccccccccccccccccccccccccccccccccccccccccccccccccccccccccccccccccccccccccccccccccccccc" />
    <path
       id="path2421-8"
       d="m -4.5455979,132.07675 c 0.1298819,0.42654 0.9921427,2.68791 2.0012512,3.18401 1.1242726,0.27492 1.74311474,0.43097 2.36527254,-0.7333 0.4822056,-0.34519 -1.86354854,-1.01607 -2.15526704,-1.17127 -1.3308487,-0.5761 -2.3341911,-0.97451 -1.0242479,-2.17965 0.7189696,-0.52949 1.8933898,1.92402 2.43666814,1.98248 0.8595518,1.36914 1.002217,0.0889 0.8903528,-1.00627 0.1943428,-0.51778 -3.80735004,1.16576 -3.18591604,-2.36919 0.5286483,-1.41715 2.74723304,2.67184 2.76960644,2.48179 0.3004127,1.77096 2.15971366,0.47691 1.56829376,-1.15534 -0.62537076,-0.92589 -3.9549935,-0.20714 -4.8245196,-1.65934 -1.0811833,-1.54095 2.6009596,0.49524 3.81821894,1.86458 1.05958376,1.61697 2.03524776,0.25588 0.6923263,-0.39031 -1.91972384,-0.69379 -1.5544769,-0.20228 -3.29271904,-1.73192 -1.7589466,-1.40982 1.59242354,-0.50273 2.15119074,-0.0873 1.35739016,1.01569 1.51118806,0.84925 2.65578776,-0.47997 0.4902921,-0.64129 -1.94457446,-0.23138 -2.50816156,0.22822 -1.85783504,0.97033 -2.05755924,-1.39792 -1.49161354,-1.95877 0.1756033,-0.13029 2.57740624,3.23694 3.4652042,2.72549 1.1983847,-0.18849 -2.17084166,-2.52432 -2.12234966,-2.47333 -1.72961064,-0.77864 -0.94525034,-1.49472 -0.5333417,-1.60126 0.7784522,-0.20435 2.85722316,1.27779 3.56607186,2.30036 0.2232529,-0.021 0.8636017,-0.50204 -1.1677243,-0.95595 -1.66549756,-0.46281 -2.5388161,-0.97343 -3.1076828,-1.62911 -0.6061894,-1.13132 3.3620381,0.87792 3.8889692,0.95768 1.2657315,0.35215 -1.2648582,-1.41114 -2.45471256,-1.26176 -2.14788254,-0.20267 -1.45980974,-1.66461 -0.1810369,-1.50504 1.2698817,-0.12883 2.27489056,1.95408 2.65470946,2.56138 0.909471,1.48884 1.2440207,0.29659 0.7269687,-0.72945 -0.6770728,-1.30731 -2.39114236,-0.85074 -3.05471006,-1.62222 -1.29993794,-1.11742 0.7661987,-0.8436 1.89064996,-0.38313 1.8135865,1.10835 1.3096756,2.10958 2.6409442,0.44245 0.8801098,-1.16991 -2.4406729,-0.85111 -2.9642933,-0.86258 -1.19239366,-0.20131 -3.1771077,-0.80069 -1.52755656,-0.66779 1.76023036,-0.23172 1.64253196,0.80848 3.53101146,1.00015 1.0184863,-0.25415 -1.5999197,-0.67983 -2.70425926,-1.19028 -1.5043164,-0.57384 0.18750986,-1.45241 1.12248826,-0.49225 0.732925,0.96006 0.9842554,2.49889 2.0056686,1.14602 0.8858009,-1.07719 -2.379978,-1.00805 -3.07656616,-1.54463 -1.5255742,-0.61402 1.03920606,-1.99109 1.98138976,-1.48187 1.1070661,0.63152 0.5294407,2.19302 2.1334446,2.40496 0.2939506,0.11675 -1.2745412,-1.22565 -2.0297785,-1.32214 -1.1607528,-0.17261 -1.6221443,-1.80414 -1.9290757,-2.31079 0.2217298,-4.9e-4 2.2794126,1.19178 3.5417892,2.09061 1.5736964,1.63051 2.5538934,-0.60538 0.2001432,-1.22466 -1.3011582,-0.34709 -2.2269729,-0.28533 -2.5310474,-0.94317 -0.086471,0.003 3.0732793,0.70022 3.1617087,0.6964 1.1856389,0.91144 1.9575029,-0.26971 0.5441319,-0.63335 -1.0885034,-0.39915 -2.1528694,0.1034 -3.4701167,-0.0337 -1.3507984,-0.0589 -1.2193279,-1.72369 0.838412,-1.32402 1.4530855,0.0893 2.6637127,0.84998 2.7569387,1.16934 0.04914,4.9e-4 -1.363464,-0.27953 -2.3581147,-1.03999 -0.8870882,-0.6554 -1.1442751,-1.47741 0.6702373,-1.43434 1.325571,0.31398 2.2092254,1.00897 2.7695554,1.94072 0.03061,-0.0114 0.03281,-0.99563 -1.334574,-1.06518 -1.502214,0.0721 -2.5176322,0.12893 -2.4292584,-1.52511 0.059603,-0.24558 2.9915124,3.10439 3.5460164,1.22929 0.104249,-0.39043 -2.8541106,-1.48635 -3.0050926,-1.98855 -0.2363127,-0.56652 2.1261746,0.007 3.1810916,-0.046 0.887856,0.1787 2.594796,1.2977 0.856006,0.61477 -1.21839,0.0627 -3.0145317,0.3492 -3.873234,-0.0571 -1.6277972,-0.67806 1.6806385,-0.8891 2.115309,-1.10289 1.273958,0.29324 1.36915,3.44169 2.481078,1.02749 0.01536,-0.0902 -3.2205939,-0.0642 -3.5552955,-0.81088 -1.8346965,-0.74217 1.5187175,-1.425 2.1958465,-0.82134 1.412511,0.50035 1.169759,1.21018 2.162079,0.73055 0.9970126,-0.59422 -1.361099,-1.05233 -2.330187,-1.1645 -1.4862627,0.0213 -2.384828,-1.01349 -0.987528,-0.71201 2.167376,0.48229 1.372448,0.63764 3.070259,0.95971 0.131668,0.25572 1.1528526,-1.43666 -1.143936,-0.74994 -1.090847,0.96024 -2.5840394,-0.34296 -2.3034653,-1.56852 -0.2245635,0.10777 2.2484373,0.59713 3.7544483,1.68914 0.8736506,0.18098 1.4172726,-1.1193 -0.68531,-1.03488 -1.826659,-0.0835 -3.1850247,0.17364 -2.78344,-1.0074 0.227111,-1.33037 2.544575,0.37208 2.998192,0.73327 0.8826076,0.66555 1.4358986,2.11735 2.2496736,0.23285 0.515403,-1.08217 -1.7945346,-0.53738 -2.8265106,-1.05634 -1.4486,-0.71698 -2.018097,-1.70787 -0.349366,-1.19191 1.083986,-0.10402 1.552518,1.32144 2.7822336,1.56947 1.20416,0.56134 -1.8319456,-1.43275 -2.6691626,-1.41026 -1.442687,-0.35924 0.73131,-0.64365 1.8920736,-0.32725 1.656012,0.52468 1.575839,0.85172 2.314259,0.36063 1.08154,-0.58477 -2.357114,-0.79459 -3.0262506,-0.67107 -2.232103,-0.61392 -0.553766,-1.97413 1.1247716,-0.39447 0.972095,0.79104 1.553311,0.34638 1.282373,-0.47842 -0.311971,-0.94343 -1.9924756,-0.99818 -2.9861876,-0.68107 -0.528403,-0.32708 1.8506596,-1.12769 2.8108226,-0.70312 1.106726,0.47023 0.785369,0.0791 -0.791628,-0.12407 -0.872024,-0.003 -1.5693876,-1.7649 0.04442,-0.90832 0.740146,0.34401 3.251951,2.15774 2.013776,0.30858 -0.223585,-0.19257 -1.824464,0.9047 -2.930567,-0.42468 -1.1533136,-0.94851 1.955732,-0.96791 2.129524,-0.6627 1.054514,0.47108 0.429019,2.30368 0.817917,0.86479 0.206876,-0.87731 -0.302352,-0.75366 -0.800948,-1.42114 -0.387907,-0.28065 1.940223,2.83249 0.531611,0.93101 -0.716907,-0.71002 -0.378799,0.12274 -1.108462,-0.31101 -1.383903,-0.8124 0.275525,-1.70603 0.873369,-1.59707 1.19215,0.56322 3.177359,1.73244 1.183725,0.73204 -1.293364,-0.64474 -0.987951,1.19245 -2.192791,-0.3488 -0.6588,-0.65818 1.742036,0.24222 1.964723,1.15319 1.184113,1.12118 1.582469,-0.44251 1.603453,-1.30722 -0.04378,-0.38913 -2.957107,-1.24944 -3.363072,-1.08235 -0.519739,-0.19288 2.995133,-4.592918 3.878831,-2.565056 0.526939,1.104896 0.21399,3.184706 -1.815159,3.601416 -1.590469,0.67262 -1.471244,-1.13025 -1.982376,-1.84838 -0.06887,-0.79964 1.492799,-0.47764 2.0815,-0.17069 1.540629,0.58987 2.495939,0.0139 1.239857,-1.236041 -0.240315,0.03316 -2.674419,0.04111 -2.931858,-0.02249 -1.404526,-0.699173 0.917052,-1.504122 1.624451,-0.855764 1.224914,0.581264 1.945315,0.291607 3.476963,0.612043 2.336568,-0.07785 0.54773,-0.937786 -0.616312,-1.186263 -1.268313,-0.197671 -1.51547,0.37145 -2.733623,-0.175307 -0.249207,-0.450303 0.320877,-1.290509 1.582901,-0.101054 0.743787,1.060738 2.619641,1.545504 3.418334,0.467152 0.621401,-0.553681 -2.803645,-0.862386 -3.474293,-0.860395 -1.272379,-0.101254 -1.802574,0.462243 -1.45618,-1.136579 0.233589,-0.771772 2.702606,0.387509 3.334472,0.859542 -0.06306,-0.243021 3.88715,-0.820612 -1.058395,-0.610192 -0.952674,0.01519 -0.990721,-1.41707 -0.906172,-2.107526 0.721348,-0.998921 1.646127,1.640324 2.833983,1.890782 0.254156,0.146042 0.417593,-1.849989 -1.708853,-1.340719 -1.312441,0.325767 -1.124564,-0.574348 -1.504012,-1.163545 -0.470349,-0.99495 3.591339,0.230059 3.43154,0.370605 0.651262,0.69337 1.253326,1.009268 2.494251,1.269153 0.106501,0.04011 -0.603256,-1.79836 -3.32073,-1.253634 -1.853881,0.900974 -2.4302,0.451942 -2.777771,-1.747763 -0.07423,-0.610345 2.592362,0.433311 2.852157,0.693747 0.854047,0.407649 1.665975,0.494551 2.633418,0.442008 1.882451,0.683316 -2.067995,-0.806324 -3.190515,-0.806711 -1.578249,-0.152838 -1.265667,-1.608825 0.514295,-1.373112 1.987383,0.211547 0.732096,0.572289 1.671559,1.106485"
       style="fill:none;fill-rule:evenodd;stroke:#009000;stroke-width:0.303897;stroke-linecap:butt;stroke-linejoin:miter;stroke-miterlimit:4;stroke-dasharray:none;stroke-opacity:1"
       sodipodi:nodetypes="ccccccccccccccccccccccccccccccccccccccccccccccccccccccccccccccccccccccccccccccccccccccccccccccccccccccccccccccccccccccccccccccccccc" />
    <path
       style="fill:none;fill-rule:evenodd;stroke:#800000;stroke-width:0.284692;stroke-linecap:butt;stroke-linejoin:miter;stroke-miterlimit:4;stroke-dasharray:none;stroke-opacity:1"
       d="m 96.222711,107.36332 c -0.27698,0.5467 -1.60455,2.20853 -1.04533,3.28772 0.16911,1.23716 1.46827,0.33614 2.43456,0.63732 0.34088,-0.41127 -0.57709,-1.48105 -0.87128,-1.5825 -0.44842,-1.28369 -1.3333,-3.16301 0.47886,-3.05382 1.37872,-0.0505 0.23133,3.07813 0.002,3.32545 -0.58269,1.02028 1.24437,-0.0204 1.56151,-0.65658 0.36085,-1.12279 -3.46993,-1.29672 -0.61633,-2.91837 1.04374,-0.51601 0.66199,3.77506 0.58733,3.68511 -0.52215,1.77385 1.22346,0.59808 1.632239,-0.54155 0.32241,-1.08171 -2.204859,-2.63749 -1.936519,-4.10094 0.29768,-1.67017 2.106909,2.00354 1.52482,3.89108 -0.17887,1.38539 1.480119,2.09848 0.484689,0.54416 -0.473039,-1.52137 -1.139319,-2.02794 -1.710569,-3.88265 -0.0897,-2.31378 1.757189,0.43855 1.820879,1.42053 0.47782,1.87804 1.0153,1.70483 2.68528,1.66912 0.4273,0.18832 -1.91542,-1.75383 -2.33535,-1.92206 -1.488339,0.0547 -0.39738,-2.16826 -0.0674,-2.32328 0.47882,-0.0223 0.70732,4.61271 1.73501,4.92559 1.21678,0.14112 -0.50047,-3.92174 -0.9778,-3.8344 -0.69585,-1.68029 0.38192,-1.2553 1.06005,-0.75564 0.72473,0.30574 0.64156,2.62438 0.81001,3.40994 -0.22097,0.31843 0.88025,-0.0728 -0.18323,-1.50983 -0.78874,-1.20202 -1.34467,-1.27599 -0.85544,-2.18063 0.92701,-1.10791 1.92434,1.89248 1.89353,2.20915 0.65022,0.51453 -0.0836,-2.02616 -0.88559,-2.46904 -1.38231,-1.12138 -1.15859,-2.40598 0.23374,-1.05566 0.69293,0.71054 0.88564,3.0092 0.65277,3.44215 -0.14412,1.6107 1.37981,1.45794 1.30889,0.4138 0.46026,-1.29334 -2.00769,-2.74645 -1.98171,-3.7572 -0.36415,-1.5203 1.45025,0.21051 1.73633,1.10514 0.56212,1.53301 -0.98064,2.54325 1.65203,1.98396 1.32667,-0.25867 0.3213,-1.55089 -0.3737,-1.88156 -1.06237,-0.57331 -2.89086,-3.68083 -1.71659,-2.55152 0.68678,0.62321 0.65102,2.78061 1.99158,3.70792 0.7875,0.2467 -0.63734,-2.37855 -1.33763,-3.27271 -0.42351,-1.57719 0.74727,-1.10326 0.7925,0.60221 -0.01,1.12957 -0.0987,1.56764 1.4669,1.57175 1.06817,-0.10634 -0.85815,-1.57267 -1.29965,-2.47184 -1.04588,-1.7686 1.21211,-0.77295 1.44557,0.13163 0.52104,1.37475 -0.21895,1.29382 0.63427,2.79844 0.31257,0.35408 0.25799,-1.92589 -0.33468,-2.45132 -0.81717,-0.39476 -1.19708,-2.29784 -0.48271,-2.45868 0.3015,-0.23889 1.17238,2.17091 1.45756,3.71326 0.35066,1.63227 1.76162,1.35609 0.41301,-0.69529 -0.51048,-1.33158 -0.652,-1.71904 -0.96322,-2.86918 0.10889,-0.28362 1.91544,3.43603 2.08624,3.44457 0.63177,1.40547 0.77989,0.74708 0.28608,-0.23065 -0.61509,-0.80458 -1.50288,-1.93867 -2.44194,-2.90381 -0.87861,-0.6533 0.79678,-1.263778 2.05623,0.33575 0.59374,1.06752 0.23237,2.12486 0.39827,2.15119 -0.17798,-0.10211 -0.57975,-1.34759 -1.05548,-2.37309 0.1309,-0.76879 0.39533,-1.982048 1.71259,-0.81279 0.30392,0.64085 1.29185,2.53855 1.39084,3.33837 -0.22539,0.001 0.13165,-0.33486 -0.59025,-1.23604 -1.06943,-1.07297 -2.30904,-1.55231 -1.35948,-2.430368 -0.0933,-0.12106 0.83052,3.518108 2.43113,2.626268 0.50594,-0.12824 -1.12464,-2.565808 -1.07748,-3.162858 -0.27478,-0.5817 2.0946,1.422288 2.41424,1.858048 0.18229,0.48691 0.51304,2.48594 -0.17246,1.21873 -0.63326,-1.41436 -2.19705,-1.82101 -2.54709,-2.708648 -0.57864,-1.72393 1.87071,0.14995 2.10969,0.797948 0.38208,1.06837 -0.90447,2.67034 0.94609,1.96261 0.20038,-0.1369 -1.97447,-1.43982 -2.10958,-2.07859 -0.33919,-1.591578 1.91865,-0.543398 2.16177,0.11394 0.38433,1.13463 0.61309,2.13957 1.43823,2.04143 0.97369,0.31517 -1.18114,-1.80613 -1.80766,-2.51675 -1.39157,-0.995108 -0.56498,-2.193308 0.43008,-1.064558 0.82352,1.252278 0.75322,1.651228 1.21787,2.951158 0.66972,0.0937 1.91825,0.0704 -0.1139,-1.19535 -1.31632,-0.44479 -1.24614,-1.733238 -0.40285,-2.364728 -0.0524,-0.0476 0.80523,2.196518 1.20853,3.492308 0.0877,0.74702 1.4938,0.33969 0.0109,-1.05287 -0.84547,-1.125548 -1.56649,-2.118978 -0.54391,-3.121018 1.05553,-1.03882 1.0158,2.07629 1.4526,2.706468 0.0741,1.18896 -0.12046,1.78965 1.4861,1.40635 1.36046,0.0625 -1.87229,-1.79868 -2.10367,-2.701198 -0.73855,-1.22155 -0.007,-1.87608 1.00602,-0.44036 0.60434,0.9066 0.55714,2.445258 1.20574,2.741948 0.51401,0.86612 -0.65597,-1.866038 -1.31178,-2.759038 -0.78255,-1.10804 2.36454,-1.09378 2.28533,0.0764 0.51125,1.429668 -0.58044,1.595998 0.57566,1.653648 0.87001,0.20583 -0.48931,0.13645 -1.33241,-1.056358 -1.42582,-1.50959 0.0514,-1.82088 0.37289,0.39411 0.1289,1.227228 2.01883,0.886878 2.43009,0.0771 0.47243,-0.84115 -1.32144,-0.76961 -1.686,-1.72257 -0.15355,-0.13302 1.7083,0.29484 2.07814,1.31552 0.0987,0.19233 0.17949,-0.65304 -1.1894,-1.69621 -0.62426,-0.62949 0.24369,-1.60598 0.90611,0.11226 0.26038,0.70607 1.71426,3.038888 1.6796,1.08906 0.38841,-0.73252 -2.19835,-0.59535 -2.38689,-1.63838 0.0833,-1.38119 1.78071,0.69838 1.87763,0.90725 0.15278,0.97946 -0.34785,1.928728 0.83446,1.25012 0.90228,-0.66728 -0.76236,-0.87841 -1.03132,-1.63715 -0.11731,-0.0422 1.60553,2.759498 1.5516,0.78682 0.0367,-0.89927 -1.56962,-0.58832 -1.74312,-1.47149 -0.47023,-1.38177 1.45584,-0.80768 1.73836,-0.0471 0.22215,0.79855 1.2021,2.64121 0.58694,0.96223 -0.37023,-1.02048 -0.56869,-1.19938 -0.86134,-2.23756 -0.0404,-0.78416 1.15416,1.75403 0.83278,2.76401 -0.44023,0.9384 0.78824,0.85199 1.22256,0.28851 0.28213,-0.11261 -1.35079,-2.29982 -1.25825,-2.52794 -0.0816,-0.39049 4.17579,-1.94916 3.51858,0.29169 -0.40264,1.21845 -2.18673,2.07644 -3.97609,1.59088 -1.06547,-0.7156 0.57487,-2.34334 0.82349,-3.1658 0.42026,-0.93044 0.46617,1.72629 0.55601,2.11329 0.84541,1.5844 2.47395,1.28342 2.38514,-0.1052 -0.23151,-0.14068 -1.93862,-1.59424 -1.98863,-2.37883 -0.44084,-1.41994 2.20282,0.4567 2.2531,0.79306 0.47125,1.22863 0.23916,2.28835 1.15033,2.9672 1.24503,1.17243 1.47386,-0.65111 0.94584,-1.73174 -0.62928,-0.91038 -1.78306,-0.43613 -2.34708,-1.74263 0.23745,-0.76325 1.83846,-1.0538 1.44082,0.90785 0.006,0.98463 0.92428,2.27527 1.87272,2.26622 0.57908,-0.29329 -1.69258,-1.5808 -1.89457,-2.18916 -0.29203,-1.01963 -1.43278,-1.48914 -0.22058,-1.98 0.73295,-0.17612 1.54343,2.16883 1.68968,2.819 0.59752,-0.0762 3.47514,2.20463 0.18957,-0.90349 -0.48514,-0.3465 -0.2328,-2.12756 0.23568,-2.08592 0.91519,-0.088 0.38344,2.0759 0.74641,3.04222 0.10407,0.27353 1.38794,-1.10743 -0.3091,-2.00618 -1.15683,-0.62243 -0.49062,-1.02177 -0.24384,-2.1811 0.28127,-0.86424 1.46165,0.61008 1.29516,1.5363 0.0791,0.70426 0.88885,2.17554 1.75737,3.26281 -0.0109,-0.10806 0.75502,-1.53104 -1.54001,-2.94878 -1.2736,-1.09576 -2.35691,-1.32403 -0.82135,-2.75597 0.5977,-0.57921 1.35765,2.11799 1.44113,2.34884 0.3501,0.81098 1.06845,1.43938 1.74788,1.98087 0.71755,0.67974 -0.82828,-2.01983 -1.81788,-2.53559 -1.10553,-0.63402 -0.61101,-1.64313 0.67657,-0.28376 0.8061,0.79861 0.68832,0.49301 0.92244,1.21334"
       id="path2419-5-4-7"
       sodipodi:nodetypes="ccccccccccccccccccccccccccccccccccccccccccccccccccccccccccccccccccccccccccccccccccccccccccccccccccccccccccccccccccccccccccccccccccc" />
    <path
       id="path2421-8-1"
       d="m 124.336,129.27362 c 0.12988,-0.42654 0.99214,-2.68791 2.00125,-3.18401 1.12428,-0.27492 1.74312,-0.43097 2.36528,0.7333 0.4822,0.34519 -1.86355,1.01607 -2.15527,1.17127 -1.33085,0.5761 -2.33419,0.97451 -1.02425,2.17965 0.71897,0.52949 1.89339,-1.92402 2.43667,-1.98248 0.85955,-1.36914 1.00222,-0.0889 0.89035,1.00627 0.19434,0.51778 -3.80735,-1.16576 -3.18591,2.36919 0.52864,1.41715 2.74723,-2.67184 2.7696,-2.48179 0.30041,-1.77096 2.15972,-0.47691 1.5683,1.15534 -0.62537,0.92589 -3.955,0.20714 -4.82452,1.65934 -1.08119,1.54095 2.60096,-0.49524 3.81822,-1.86458 1.05958,-1.61697 2.03524,-0.25588 0.69232,0.39031 -1.91972,0.69379 -1.55448,0.20228 -3.29272,1.73192 -1.75894,1.40982 1.59243,0.50273 2.15119,0.0873 1.35739,-1.01569 1.51119,-0.84925 2.65579,0.47997 0.49029,0.64129 -1.94457,0.23138 -2.50816,-0.22822 -1.85784,-0.97033 -2.05756,1.39792 -1.49161,1.95877 0.1756,0.13029 2.5774,-3.23694 3.4652,-2.72549 1.19838,0.18849 -2.17084,2.52432 -2.12235,2.47333 -1.72961,0.77864 -0.94525,1.49472 -0.53334,1.60126 0.77845,0.20435 2.85722,-1.27779 3.56607,-2.30036 0.22325,0.021 0.8636,0.50204 -1.16772,0.95595 -1.6655,0.46281 -2.53882,0.97343 -3.10769,1.62911 -0.60619,1.13132 3.36204,-0.87792 3.88897,-0.95768 1.26573,-0.35215 -1.26486,1.41114 -2.45471,1.26176 -2.14788,0.20267 -1.45981,1.66461 -0.18104,1.50504 1.26989,0.12883 2.27489,-1.95408 2.65471,-2.56138 0.90947,-1.48884 1.24402,-0.29659 0.72697,0.72945 -0.67707,1.30731 -2.39114,0.85074 -3.05471,1.62222 -1.29994,1.11742 0.7662,0.8436 1.89065,0.38313 1.81359,-1.10835 1.30968,-2.10958 2.64095,-0.44245 0.88011,1.16991 -2.44068,0.85111 -2.9643,0.86258 -1.19239,0.20131 -3.17711,0.80069 -1.52755,0.66779 1.76023,0.23172 1.64253,-0.80848 3.53101,-1.00015 1.01848,0.25415 -1.59992,0.67983 -2.70426,1.19028 -1.50432,0.57384 0.18751,1.45241 1.12249,0.49225 0.73292,-0.96006 0.98425,-2.49889 2.00566,-1.14602 0.88581,1.07719 -2.37997,1.00805 -3.07656,1.54463 -1.52558,0.61402 1.0392,1.99109 1.98139,1.48187 1.10706,-0.63152 0.52944,-2.19302 2.13344,-2.40496 0.29395,-0.11675 -1.27454,1.22565 -2.02978,1.32214 -1.16075,0.17261 -1.62214,1.80414 -1.92907,2.31079 0.22173,4.9e-4 2.27941,-1.19178 3.54179,-2.09061 1.57369,-1.63051 2.55389,0.60538 0.20014,1.22466 -1.30116,0.34709 -2.22697,0.28533 -2.53105,0.94317 -0.0865,-0.003 3.07328,-0.70022 3.16171,-0.6964 1.18564,-0.91144 1.95751,0.26971 0.54413,0.63335 -1.0885,0.39915 -2.15287,-0.1034 -3.47011,0.0337 -1.3508,0.0589 -1.21933,1.72369 0.83841,1.32402 1.45309,-0.0893 2.66371,-0.84998 2.75694,-1.16934 0.0491,-4.9e-4 -1.36347,0.27953 -2.35812,1.03999 -0.88708,0.6554 -1.14427,1.47741 0.67024,1.43434 1.32557,-0.31398 2.20923,-1.00897 2.76956,-1.94072 0.0306,0.0114 0.0328,0.99563 -1.33458,1.06518 -1.50221,-0.0721 -2.51763,-0.12893 -2.42926,1.52511 0.0596,0.24558 2.99152,-3.10439 3.54602,-1.22929 0.10425,0.39043 -2.85411,1.48635 -3.00509,1.98855 -0.23631,0.56652 2.12617,-0.007 3.18109,0.046 0.88786,-0.1787 2.5948,-1.2977 0.85601,-0.61477 -1.21839,-0.0627 -3.01454,-0.3492 -3.87324,0.0571 -1.6278,0.67806 1.68064,0.8891 2.11531,1.10289 1.27396,-0.29324 1.36915,-3.44169 2.48108,-1.02749 0.0154,0.0902 -3.2206,0.0642 -3.5553,0.81088 -1.83469,0.74217 1.51872,1.425 2.19585,0.82134 1.41251,-0.50035 1.16976,-1.21018 2.16208,-0.73055 0.99701,0.59422 -1.3611,1.05233 -2.33019,1.1645 -1.48626,-0.0213 -2.38483,1.01349 -0.98753,0.71201 2.16738,-0.48229 1.37245,-0.63764 3.07026,-0.95971 0.13167,-0.25572 1.15285,1.43666 -1.14393,0.74994 -1.09085,-0.96024 -2.58404,0.34296 -2.30347,1.56852 -0.22456,-0.10777 2.24844,-0.59713 3.75445,-1.68914 0.87365,-0.18098 1.41727,1.1193 -0.68531,1.03488 -1.82666,0.0835 -3.18503,-0.17364 -2.78344,1.0074 0.22711,1.33037 2.54457,-0.37208 2.99819,-0.73327 0.88261,-0.66555 1.4359,-2.11735 2.24967,-0.23285 0.51541,1.08217 -1.79453,0.53738 -2.82651,1.05634 -1.4486,0.71698 -2.01809,1.70787 -0.34936,1.19191 1.08398,0.10402 1.55252,-1.32144 2.78223,-1.56947 1.20416,-0.56134 -1.83194,1.43275 -2.66916,1.41026 -1.44269,0.35924 0.73131,0.64365 1.89207,0.32725 1.65601,-0.52468 1.57584,-0.85172 2.31426,-0.36063 1.08154,0.58477 -2.35711,0.79459 -3.02625,0.67107 -2.2321,0.61392 -0.55376,1.97413 1.12477,0.39447 0.9721,-0.79104 1.55331,-0.34638 1.28238,0.47842 -0.31198,0.94343 -1.99248,0.99818 -2.98619,0.68107 -0.5284,0.32708 1.85066,1.12769 2.81082,0.70312 1.10673,-0.47023 0.78537,-0.0791 -0.79163,0.12407 -0.87202,0.003 -1.56938,1.7649 0.0444,0.90832 0.74015,-0.34401 3.25195,-2.15774 2.01378,-0.30858 -0.22359,0.19257 -1.82447,-0.9047 -2.93057,0.42468 -1.15331,0.94851 1.95573,0.96791 2.12953,0.6627 1.05451,-0.47108 0.42901,-2.30368 0.81791,-0.86479 0.20688,0.87731 -0.30235,0.75366 -0.80095,1.42114 -0.3879,0.28065 1.94023,-2.83249 0.53162,-0.93101 -0.71691,0.71002 -0.3788,-0.12274 -1.10847,0.31101 -1.3839,0.8124 0.27553,1.70603 0.87337,1.59707 1.19215,-0.56322 3.17736,-1.73244 1.18373,-0.73204 -1.29337,0.64474 -0.98795,-1.19245 -2.19279,0.3488 -0.6588,0.65818 1.74203,-0.24222 1.96472,-1.15319 1.18411,-1.12118 1.58247,0.44251 1.60345,1.30722 -0.0438,0.38913 -2.9571,1.24944 -3.36307,1.08235 -0.51974,0.19288 2.99513,4.59291 3.87883,2.56505 0.52694,-1.10489 0.21399,-3.1847 -1.81516,-3.60141 -1.59047,-0.67262 -1.47124,1.13025 -1.98237,1.84838 -0.0689,0.79964 1.4928,0.47764 2.0815,0.17069 1.54063,-0.58987 2.49594,-0.0139 1.23985,1.23604 -0.24031,-0.0332 -2.67442,-0.0411 -2.93185,0.0225 -1.40453,0.69917 0.91705,1.50412 1.62445,0.85576 1.22491,-0.58126 1.94531,-0.29161 3.47696,-0.61204 2.33657,0.0778 0.54773,0.93778 -0.61631,1.18626 -1.26832,0.19767 -1.51547,-0.37145 -2.73363,0.17531 -0.2492,0.4503 0.32088,1.29051 1.58291,0.10105 0.74378,-1.06074 2.61964,-1.5455 3.41833,-0.46715 0.6214,0.55368 -2.80365,0.86239 -3.47429,0.86039 -1.27238,0.10126 -1.80258,-0.46224 -1.45618,1.13658 0.23359,0.77178 2.7026,-0.38751 3.33447,-0.85954 -0.0631,0.24302 3.88715,0.82061 -1.0584,0.61019 -0.95267,-0.0152 -0.99072,1.41707 -0.90617,2.10753 0.72135,0.99892 1.64613,-1.64032 2.83399,-1.89078 0.25415,-0.14604 0.41759,1.84999 -1.70886,1.34072 -1.31244,-0.32577 -1.12456,0.57434 -1.50401,1.16354 -0.47035,0.99495 3.59134,-0.23006 3.43154,-0.3706 0.65126,-0.69337 1.25333,-1.00927 2.49425,-1.26916 0.1065,-0.0401 -0.60326,1.79836 -3.32073,1.25364 -1.85388,-0.90098 -2.4302,-0.45195 -2.77777,1.74776 -0.0742,0.61034 2.59236,-0.43331 2.85216,-0.69375 0.85404,-0.40765 1.66597,-0.49455 2.63341,-0.44201 1.88246,-0.68331 -2.06799,0.80633 -3.19051,0.80672 -1.57825,0.15283 -1.26567,1.60882 0.51429,1.37311 1.98739,-0.21155 0.7321,-0.57229 1.67156,-1.10649"
       style="fill:none;fill-rule:evenodd;stroke:#009000;stroke-width:0.303897;stroke-linecap:butt;stroke-linejoin:miter;stroke-miterlimit:4;stroke-dasharray:none;stroke-opacity:1"
       sodipodi:nodetypes="ccccccccccccccccccccccccccccccccccccccccccccccccccccccccccccccccccccccccccccccccccccccccccccccccccccccccccccccccccccccccccccccccccc" />
    <text
       xml:space="preserve"
       style="font-style:normal;font-weight:normal;font-size:10.5833px;line-height:1.25;font-family:sans-serif;letter-spacing:0px;word-spacing:0px;fill:#000000;fill-opacity:1;stroke:none;stroke-width:0.264583"
       x="-43.907772"
       y="196.75079"
       id="text69829"><tspan
         sodipodi:role="line"
         id="tspan69827"
         style="font-style:normal;font-variant:normal;font-weight:normal;font-stretch:normal;font-family:arial;-inkscape-font-specification:arial;stroke-width:0.264583"
         x="-43.907772"
         y="196.75079">2 cellules avec n chromosomes à 1 chromatide</tspan></text>
  </g>
  <metadata
     id="metadata69831">
    <rdf:RDF>
      <cc:Work
         rdf:about="">
        <dc:date>été 2022 - V1 du TST</dc:date>
        <dc:creator>
          <cc:Agent>
            <dc:title>Paulhenry Saux</dc:title>
          </cc:Agent>
        </dc:creator>
        <dc:publisher>
          <cc:Agent>
            <dc:title>Paulhenry.eu</dc:title>
          </cc:Agent>
        </dc:publisher>
        <dc:language>FR</dc:language>
        <cc:license
           rdf:resource="http://creativecommons.org/licenses/by-sa/4.0/" />
      </cc:Work>
      <cc:License
         rdf:about="http://creativecommons.org/licenses/by-sa/4.0/">
        <cc:permits
           rdf:resource="http://creativecommons.org/ns#Reproduction" />
        <cc:permits
           rdf:resource="http://creativecommons.org/ns#Distribution" />
        <cc:requires
           rdf:resource="http://creativecommons.org/ns#Notice" />
        <cc:requires
           rdf:resource="http://creativecommons.org/ns#Attribution" />
        <cc:permits
           rdf:resource="http://creativecommons.org/ns#DerivativeWorks" />
        <cc:requires
           rdf:resource="http://creativecommons.org/ns#ShareAlike" />
      </cc:License>
    </rdf:RDF>
  </metadata>
</svg>
