<?xml version="1.0" encoding="UTF-8" standalone="no"?>
<!-- Created with Inkscape (http://www.inkscape.org/) -->

<svg
   width="77.492271mm"
   height="106.19966mm"
   viewBox="0 0 77.492271 106.19966"
   version="1.1"
   id="svg9600"
   inkscape:version="1.2 (1:1.2.1+202207142221+cd75a1ee6d)"
   sodipodi:docname="etape4.svg"
   xmlns:inkscape="http://www.inkscape.org/namespaces/inkscape"
   xmlns:sodipodi="http://sodipodi.sourceforge.net/DTD/sodipodi-0.dtd"
   xmlns="http://www.w3.org/2000/svg"
   xmlns:svg="http://www.w3.org/2000/svg">
  <sodipodi:namedview
     id="namedview9602"
     pagecolor="#ffffff"
     bordercolor="#666666"
     borderopacity="1.0"
     inkscape:showpageshadow="2"
     inkscape:pageopacity="0.0"
     inkscape:pagecheckerboard="0"
     inkscape:deskcolor="#d1d1d1"
     inkscape:document-units="mm"
     showgrid="false"
     inkscape:zoom="0.52114899"
     inkscape:cx="-77.712901"
     inkscape:cy="240.81405"
     inkscape:window-width="1366"
     inkscape:window-height="740"
     inkscape:window-x="0"
     inkscape:window-y="0"
     inkscape:window-maximized="1"
     inkscape:current-layer="layer1" />
  <defs
     id="defs9597">
    <inkscape:path-effect
       effect="simplify"
       id="path-effect5788"
       is_visible="true"
       lpeversion="1"
       steps="1"
       threshold="0.00426573"
       smooth_angles="360"
       helper_size="0"
       simplify_individual_paths="false"
       simplify_just_coalesce="false" />
    <inkscape:path-effect
       effect="spiro"
       id="path-effect5790"
       is_visible="true"
       lpeversion="1" />
    <inkscape:path-effect
       effect="simplify"
       id="path-effect5794"
       is_visible="true"
       lpeversion="1"
       steps="1"
       threshold="0.00426573"
       smooth_angles="360"
       helper_size="0"
       simplify_individual_paths="false"
       simplify_just_coalesce="false" />
    <inkscape:path-effect
       effect="spiro"
       id="path-effect5796"
       is_visible="true"
       lpeversion="1" />
    <inkscape:path-effect
       effect="simplify"
       id="path-effect5800"
       is_visible="true"
       lpeversion="1"
       steps="1"
       threshold="0.00426573"
       smooth_angles="360"
       helper_size="0"
       simplify_individual_paths="false"
       simplify_just_coalesce="false" />
    <inkscape:path-effect
       effect="spiro"
       id="path-effect5802"
       is_visible="true"
       lpeversion="1" />
    <inkscape:path-effect
       effect="simplify"
       id="path-effect5806"
       is_visible="true"
       lpeversion="1"
       steps="1"
       threshold="0.00426573"
       smooth_angles="360"
       helper_size="0"
       simplify_individual_paths="false"
       simplify_just_coalesce="false" />
    <inkscape:path-effect
       effect="spiro"
       id="path-effect5808"
       is_visible="true"
       lpeversion="1" />
    <inkscape:path-effect
       effect="simplify"
       id="path-effect5788-1"
       is_visible="true"
       lpeversion="1"
       steps="1"
       threshold="0.00426573"
       smooth_angles="360"
       helper_size="0"
       simplify_individual_paths="false"
       simplify_just_coalesce="false" />
    <inkscape:path-effect
       effect="spiro"
       id="path-effect5790-7"
       is_visible="true"
       lpeversion="1" />
    <inkscape:path-effect
       effect="simplify"
       id="path-effect5794-8"
       is_visible="true"
       lpeversion="1"
       steps="1"
       threshold="0.00426573"
       smooth_angles="360"
       helper_size="0"
       simplify_individual_paths="false"
       simplify_just_coalesce="false" />
    <inkscape:path-effect
       effect="spiro"
       id="path-effect5796-5"
       is_visible="true"
       lpeversion="1" />
    <inkscape:path-effect
       effect="simplify"
       id="path-effect5800-7"
       is_visible="true"
       lpeversion="1"
       steps="1"
       threshold="0.00426573"
       smooth_angles="360"
       helper_size="0"
       simplify_individual_paths="false"
       simplify_just_coalesce="false" />
    <inkscape:path-effect
       effect="spiro"
       id="path-effect5802-4"
       is_visible="true"
       lpeversion="1" />
    <inkscape:path-effect
       effect="simplify"
       id="path-effect5806-1"
       is_visible="true"
       lpeversion="1"
       steps="1"
       threshold="0.00426573"
       smooth_angles="360"
       helper_size="0"
       simplify_individual_paths="false"
       simplify_just_coalesce="false" />
    <inkscape:path-effect
       effect="spiro"
       id="path-effect5808-8"
       is_visible="true"
       lpeversion="1" />
  </defs>
  <g
     inkscape:label="Calque 1"
     inkscape:groupmode="layer"
     id="layer1"
     transform="translate(-61.269252,-83.977092)">
    <path
       id="path42810-1-1-8"
       style="fill:none;stroke:#666666;stroke-width:0.428862;stroke-linecap:round;stroke-linejoin:round;stroke-miterlimit:10.8"
       d="m 104.64994,84.191523 a 32.631809,32.631817 0 0 0 -32.631604,32.632117 32.631809,32.631817 0 0 0 7.72717,21.05194 32.631809,32.631817 0 0 0 -6.46162,19.45514 32.631809,32.631817 0 0 0 32.631604,32.6316 32.631809,32.631817 0 0 0 32.6316,-32.6316 32.631809,32.631817 0 0 0 -7.71529,-21.06848 32.631809,32.631817 0 0 0 6.44974,-19.4386 32.631809,32.631817 0 0 0 -32.6316,-32.632117 z" />
    <ellipse
       style="fill:none;stroke:#666666;stroke-width:0.549071;stroke-linecap:round;stroke-linejoin:round;stroke-miterlimit:10.8;stroke-dasharray:0.549071, 1.09814;stroke-dashoffset:0"
       id="path42810-4-6"
       cx="105.74165"
       cy="164.77017"
       rx="23.877136"
       ry="19.105589" />
    <ellipse
       style="fill:none;stroke:#666666;stroke-width:0.549071;stroke-linecap:round;stroke-linejoin:round;stroke-miterlimit:10.8;stroke-dasharray:0.549071, 1.09814;stroke-dashoffset:0"
       id="path42810-4-6-2"
       cx="104.97425"
       cy="110.9409"
       rx="23.877136"
       ry="19.105589" />
    <path
       style="fill:none;stroke:#800080;stroke-width:0.264583px;stroke-linecap:butt;stroke-linejoin:miter;stroke-opacity:1"
       d="m 112.68537,126.47673 c -0.2786,0.1093 -0.59249,0.12645 -0.88134,0.0481 -0.28885,-0.0783 -0.55111,-0.25161 -0.73638,-0.48664 -0.18527,-0.23504 -0.29255,-0.53051 -0.30122,-0.82966 -0.009,-0.29915 0.0813,-0.60035 0.25263,-0.84573 0.22335,-0.31987 0.57672,-0.53628 0.954,-0.63557 0.26428,-0.0695 0.53919,-0.0851 0.81047,-0.11815 0.27127,-0.033 0.54627,-0.0859 0.78358,-0.22145 0.19892,-0.1136 0.36426,-0.28265 0.48259,-0.47879 0.11833,-0.19614 0.19036,-0.41875 0.22001,-0.64589 0.0593,-0.45428 -0.0496,-0.91737 -0.23149,-1.33788 -0.18538,-0.4287 -0.44626,-0.82325 -0.75652,-1.17237 -0.5316,-0.59818 -1.23459,-1.07324 -2.02458,-1.20104 -0.44001,-0.0712 -0.89039,-0.0336 -1.33416,-0.0754 -0.22189,-0.0209 -0.44339,-0.0621 -0.65048,-0.14445 -0.20708,-0.0824 -0.39987,-0.20757 -0.54265,-0.37869 -0.23181,-0.27783 -0.31452,-0.65575 -0.30299,-1.0174 0.0172,-0.5383 0.22671,-1.05884 0.53295,-1.50187 0.33849,-0.48969 0.79611,-0.89463 1.31723,-1.18239 0.76732,-0.42371 1.66952,-0.59917 2.36606,-1.13128 0.49145,-0.37543 0.84464,-0.90351 1.13224,-1.45102 0.2876,-0.5475 0.5188,-1.1238 0.82004,-1.66392 0.30726,-0.5509 0.68732,-1.06425 0.92595,-1.64816 0.15696,-0.38408 0.24995,-0.79422 0.27398,-1.20844"
       id="path5786"
       inkscape:path-effect="#path-effect5788;#path-effect5790"
       inkscape:original-d="m 112.68537,126.47673 c -0.55296,-0.68434 -1.36277,-1.1463 -1.64372,-2.02428 -0.16133,-0.50413 0.34709,-0.5785 0.73683,-0.68601 0.51279,-0.14145 1.07981,0.0462 1.56683,-0.22492 0.8469,-0.47146 1.07143,-1.79026 0.69291,-2.6164 -0.0322,-0.0702 -0.13077,-0.0909 -0.17004,-0.15744 -0.48949,-0.82927 -0.65323,-1.39941 -1.58704,-1.90058 -1.00425,-0.53897 -3.34423,-0.39377 -3.87313,-1.20333 -0.2608,-0.39918 0.35044,-1.5055 0.41565,-1.69815 0.107,-0.31609 0.13007,-0.76057 0.37787,-1.02338 0.81996,-0.86966 2.10014,-0.86414 3.06071,-1.52947 1.27111,-0.88041 1.47393,-1.85061 2.21052,-3.20511 0.22696,-0.41734 0.70344,-0.93417 0.88799,-1.39451 0.21157,-0.52773 0.34401,-1.10756 0.43454,-1.66441" />
    <path
       style="fill:none;stroke:#000000;stroke-width:0.264583px;stroke-linecap:butt;stroke-linejoin:miter;stroke-opacity:1"
       d="m 90.308016,99.072483 c -0.04102,-0.411333 0.08259,-0.836789 0.337652,-1.162094 0.255058,-0.325305 0.638733,-0.546861 1.047975,-0.605161 0.314783,-0.04484 0.641487,0.0052 0.931457,0.135623 0.289969,0.13045 0.542791,0.340212 0.730409,0.59692 0.273831,0.374668 0.40497,0.839884 0.434198,1.303031 0.06959,1.102728 -0.403303,2.156158 -0.794399,3.189548 -0.172525,0.45586 -0.332899,0.92988 -0.318933,1.4171 0.0083,0.2899 0.08041,0.58001 0.22547,0.83115 0.145058,0.25114 0.364886,0.46163 0.630107,0.57898 0.285462,0.1263 0.609934,0.14103 0.919212,0.0987 0.309278,-0.0423 0.608116,-0.1387 0.907205,-0.22806 0.381961,-0.11413 0.768154,-0.21774 1.137005,-0.36896 0.368851,-0.15122 0.722994,-0.35314 1.001048,-0.63881 0.260018,-0.26714 0.444525,-0.59743 0.676547,-0.88922 0.116011,-0.14589 0.244962,-0.28305 0.395837,-0.3925 0.150876,-0.10945 0.324879,-0.19062 0.5094,-0.21698 0.296926,-0.0424 0.601205,0.0608 0.848054,0.23116 0.23805,0.16431 0.42918,0.38717 0.60639,0.61578 1.60554,2.07119 2.23447,4.71356 2.82873,7.2659 0.10983,0.47171 0.22043,0.94522 0.39562,1.39676 0.17518,0.45154 0.41841,0.8835 0.76323,1.22362 0.25434,0.25087 0.55935,0.44709 0.88355,0.59717 0.66785,0.30916 1.4244,0.42372 2.15384,0.32614"
       id="path5792"
       inkscape:path-effect="#path-effect5794;#path-effect5796"
       inkscape:original-d="m 90.308016,99.072483 c 0.53829,-0.9731 1.43614,-3.27216 3.45747,-0.52856 0.26067,0.35381 -0.38605,2.905527 -0.71794,3.857377 -0.11889,0.34098 -0.42068,0.7081 -0.43455,1.07962 -0.0188,0.50435 0.33831,1.23659 0.62348,1.60819 0.48936,0.63767 1.18508,0.35411 1.85155,0.20242 1.07472,-0.24459 0.85564,-0.25192 2.00269,-0.89968 0.16951,-0.0957 0.37616,-0.12686 0.52901,-0.24741 0.44712,-0.35264 0.85683,-0.82291 1.26585,-1.21457 0.26263,-0.25148 0.48326,-0.67892 0.88799,-0.4161 0.334554,0.21723 0.0237,0.33887 0.226724,0.62977 0.81527,1.16827 0.12105,-0.42742 0.86909,1.04588 0.93458,1.84068 1.7024,3.75726 2.24831,5.74672 0.3723,1.35679 0.57646,2.3345 1.36032,3.47502 0.0464,0.0676 0.14007,0.0916 0.18893,0.15745 0.12564,0.16924 0.12025,0.36391 0.32118,0.46108 0.12492,0.0604 0.27757,0.009 0.41566,0.0225 1.47374,0.14449 0.99072,0.0685 2.15384,0.32614" />
    <path
       style="fill:none;stroke:#000000;stroke-width:0.264583px;stroke-linecap:butt;stroke-linejoin:miter;stroke-opacity:1"
       d="m 114.73439,100.82166 c 0.79334,0.0977 1.56775,0.3469 2.26924,0.73012 0.11672,0.0638 0.23208,0.13165 0.33372,0.21743 0.10163,0.0858 0.18963,0.19071 0.24048,0.3136 0.0728,0.17583 0.0645,0.3769 0.0133,0.56019 -0.0511,0.18328 -0.14249,0.35241 -0.23438,0.51904 -0.059,0.10708 -0.11889,0.21444 -0.1606,0.32939 -0.0417,0.11495 -0.0648,0.23894 -0.0478,0.36004 0.0154,0.10987 0.0636,0.21373 0.1299,0.30267 0.0663,0.0889 0.15044,0.16353 0.24132,0.22718 0.18176,0.1273 0.3897,0.21144 0.5822,0.32183 0.18855,0.10813 0.36161,0.24104 0.54471,0.35816 0.1831,0.11712 0.38025,0.21981 0.59425,0.25787 0.33771,0.0601 0.67951,-0.0451 1.01691,-0.1068 0.28415,-0.052 0.57487,-0.0734 0.86266,-0.0484 0.31206,0.0271 0.62254,0.1104 0.89127,0.27134 0.47896,0.28684 0.78195,0.78682 1.07289,1.26329 0.17547,0.28736 0.35506,0.57668 0.45945,0.89679 0.12494,0.38312 0.13538,0.80568 0.0114,1.18911 -0.0434,0.13411 -0.10244,0.26254 -0.15267,0.39424 -0.0502,0.1317 -0.092,0.26857 -0.0983,0.40938 -0.0113,0.25058 0.0891,0.49076 0.14347,0.73564 0.0683,0.30768 0.0634,0.63134 -0.0142,0.93681"
       id="path5798"
       inkscape:path-effect="#path-effect5800;#path-effect5802"
       inkscape:original-d="m 114.73439,100.82166 c 2.39242,1.05297 3.25678,0.33449 2.6722,2.20686 -0.13685,0.43835 -0.24164,0.16278 -0.32119,0.50607 -0.0922,0.39779 0.62324,0.93628 0.90689,1.11335 0.13914,0.0869 0.31052,0.11068 0.45344,0.19119 0.43811,0.24681 0.69433,0.58355 1.22806,0.52856 0.85149,-0.0877 0.35026,-0.31268 1.39811,-0.21367 0.13325,0.0126 0.22952,0.14588 0.35897,0.17993 0.14658,0.0386 0.31791,-0.0341 0.45344,0.0337 0.70968,0.35538 0.90773,0.79681 1.24696,1.417 0.11137,0.20362 0.29838,0.36674 0.37787,0.58479 0.0634,0.1739 0.078,1.26559 0.0567,1.37202 -0.0465,0.23245 -0.25887,0.41648 -0.28341,0.65226 -0.022,0.21111 0.13402,0.40699 0.15115,0.61854 0.0336,0.41474 0,0.8322 0,1.24831" />
    <path
       style="fill:none;stroke:#800080;stroke-width:0.264583px;stroke-linecap:butt;stroke-linejoin:miter;stroke-opacity:1"
       d="m 96.086926,121.04228 c -0.340023,-0.56878 -0.65362,-1.15335 -0.939441,-1.7512 -0.09995,-0.20907 -0.196823,-0.42058 -0.264182,-0.64231 -0.06736,-0.22172 -0.104728,-0.45506 -0.08316,-0.68579 0.02302,-0.24622 0.111947,-0.48128 0.211032,-0.70786 0.09908,-0.22658 0.209586,-0.44935 0.279811,-0.68647 0.05415,-0.18284 0.084,-0.37314 0.153548,-0.5507 0.03477,-0.0888 0.07963,-0.17424 0.139594,-0.24837 0.05996,-0.0741 0.135562,-0.13674 0.223092,-0.17455 0.09352,-0.0404 0.199606,-0.0513 0.299277,-0.0303 0.09967,0.0211 0.192423,0.074 0.260748,0.14961 0.07678,0.0849 0.120593,0.19355 0.171366,0.29615 0.02539,0.0513 0.05297,0.1018 0.08755,0.14741 0.03458,0.0456 0.07649,0.0864 0.126311,0.11455 0.06097,0.0345 0.132373,0.049 0.202331,0.0454 0.06996,-0.004 0.138448,-0.0249 0.200323,-0.0578 0.123749,-0.0657 0.218847,-0.17487 0.298168,-0.29036 0.07932,-0.11549 0.145881,-0.23961 0.229857,-0.35176 0.08398,-0.11215 0.188876,-0.21406 0.319734,-0.26411 0.08784,-0.0336 0.184245,-0.0423 0.277634,-0.0312 0.09339,0.0111 0.183881,0.0415 0.268072,0.0834 0.16838,0.0838 0.310072,0.21169 0.45,0.33737 0.309371,0.27787 0.632793,0.56905 0.777695,0.95883 0.0739,0.19878 0.09663,0.41213 0.134815,0.62073 0.03818,0.20861 0.0954,0.42076 0.225625,0.58814 0.0651,0.0837 0.14818,0.15455 0.24483,0.19817 0.0967,0.0436 0.2072,0.0589 0.31054,0.0352 0.10335,-0.0237 0.19833,-0.088 0.25211,-0.17937 0.0269,-0.0457 0.0434,-0.0976 0.0468,-0.15049 0.003,-0.0529 -0.006,-0.10675 -0.0293,-0.1546 -0.0311,-0.0652 -0.0842,-0.11658 -0.13275,-0.16994 -0.0486,-0.0534 -0.0952,-0.11324 -0.10804,-0.18427 -0.002,-0.0125 -0.003,-0.0252 -0.004,-0.0379 -0.003,-0.0942 0.0402,-0.1875 0.10975,-0.25109 0.0695,-0.0636 0.16376,-0.0978 0.25795,-0.0997 0.0942,-0.002 0.1879,0.0274 0.26764,0.0776 0.0797,0.0502 0.14583,0.12055 0.19635,0.20008 0.10102,0.15906 0.13904,0.34994 0.15689,0.53752 0.0178,0.18758 0.0175,0.37725 0.0509,0.5627 0.0169,0.0939 0.0435,0.18859 0.0997,0.2657 0.0281,0.0386 0.0635,0.0722 0.10507,0.0956 0.0416,0.0234 0.0895,0.0363 0.13711,0.034 0.0393,-0.002 0.0779,-0.0143 0.1118,-0.0343 0.0339,-0.02 0.0631,-0.0476 0.0862,-0.0794 0.0462,-0.0637 0.0671,-0.14342 0.069,-0.22212 0.004,-0.1574 -0.0638,-0.30626 -0.11193,-0.45616 -0.14399,-0.44831 -0.11692,-0.9404 0.0203,-1.39082 0.13723,-0.45042 0.3798,-0.86269 0.66038,-1.24083 0.13683,-0.18441 0.28315,-0.36179 0.43818,-0.5312"
       id="path5804"
       inkscape:path-effect="#path-effect5806;#path-effect5808"
       inkscape:original-d="m 96.086926,121.04228 c -0.0921,-0.988 -1.12221,-1.62259 -1.30365,-2.56409 -0.11223,-0.58242 0.29272,-1.14971 0.45344,-1.72064 0.0936,-0.33247 0.43579,-1.612 1.03914,-1.12461 0.34772,0.2809 0.44657,0.67086 0.48449,0.63826 0.45034,-0.3872 0.99553,-1.12692 1.72775,-0.90028 0.56701,0.1755 0.7606,0.87695 1.15249,1.21457 2.988754,2.57489 -0.0769,-0.41138 1.417004,1.0009 0.23467,0.22185 0.50569,0.44953 0.69905,0.70849 5.3e-4,8e-4 0.20719,0.39664 0.23088,0.41273 0.2,0.13585 0.16342,-0.45538 0.23204,-0.68722 0.30302,-1.02379 0.26212,-2.55989 1.15288,-3.28509" />
    <path
       style="fill:none;stroke:#800080;stroke-width:0.264583px;stroke-linecap:butt;stroke-linejoin:miter;stroke-opacity:1"
       d="m 122.78649,157.59792 c -0.13387,-0.26723 -0.35528,-0.4897 -0.62186,-0.62485 -0.26658,-0.13515 -0.5769,-0.18224 -0.87158,-0.13227 -0.29467,0.05 -0.57212,0.19673 -0.77924,0.41221 -0.20713,0.21548 -0.34281,0.49851 -0.3811,0.79493 -0.05,0.3871 0.066,0.78563 0.2812,1.11129 0.14689,0.22233 0.33674,0.41221 0.51361,0.61152 0.17688,0.1993 0.34458,0.41428 0.43419,0.66524 0.076,0.21281 0.0923,0.44531 0.0565,0.66842 -0.0358,0.22312 -0.12291,0.43681 -0.24502,0.62695 -0.24421,0.38027 -0.62197,0.65999 -1.02942,0.85552 -0.42527,0.20407 -0.88808,0.32415 -1.3564,0.3805 -0.79292,0.0954 -1.63191,3e-5 -2.3153,-0.41324 -0.38959,-0.2356 -0.71377,-0.56385 -1.07978,-0.83463 -0.18301,-0.13539 -0.37783,-0.25707 -0.5893,-0.34135 -0.21147,-0.0843 -0.44071,-0.13029 -0.6676,-0.11181 -0.30275,0.0247 -0.59087,0.16511 -0.81361,0.37164 -0.21524,0.19958 -0.371,0.45759 -0.47605,0.73168 -0.10506,0.27408 -0.16125,0.56467 -0.19675,0.85604 -0.0703,0.57661 -0.0598,1.1703 0.10556,1.72715 0.12681,0.42709 0.34098,0.82198 0.54472,1.21818 0.20373,0.39621 0.40035,0.80272 0.48764,1.2396 0.11549,0.57802 0.033,1.17842 -0.1102,1.7502 -0.14323,0.57178 -0.3465,1.12762 -0.47769,1.70228 -0.15404,0.67474 -0.20865,1.37474 -0.44099,2.02668 -0.14536,0.40787 -0.35926,0.79121 -0.63004,1.1291"
       id="path5786-5"
       inkscape:path-effect="#path-effect5788-1;#path-effect5790-7"
       inkscape:original-d="m 122.78649,157.59792 c -0.86915,0.13662 -1.77962,-0.064 -2.57692,0.39872 -0.45782,0.26567 -0.13063,0.66187 0.0863,1.00303 0.28543,0.44888 0.83183,0.69006 1.01117,1.21783 0.31185,0.91774 -0.40626,2.04644 -1.24115,2.40524 -0.071,0.0305 -0.15796,-0.0203 -0.23172,0.003 -0.9193,0.28668 -1.42318,0.59969 -2.45192,0.345 -1.10633,-0.27391 -2.74438,-1.95123 -3.67968,-1.7056 -0.46119,0.12111 -0.74997,1.35163 -0.83083,1.53825 -0.13267,0.3062 -0.41371,0.65132 -0.40622,1.01246 0.0248,1.195 0.97791,2.04963 1.24402,3.18741 0.35215,1.5056 -0.14822,2.3612 -0.51051,3.85986 -0.11162,0.46176 -0.10493,1.16469 -0.27684,1.62989 -0.19709,0.53331 -0.48781,1.05218 -0.79419,1.52589" />
    <path
       style="fill:none;stroke:#000000;stroke-width:0.264583px;stroke-linecap:butt;stroke-linejoin:miter;stroke-opacity:1"
       d="m 84.821386,168.76456 c -0.307239,0.27696 -0.501658,0.67562 -0.530725,1.08824 -0.02907,0.41263 0.107546,0.8346 0.372923,1.1519 0.203829,0.24371 0.479945,0.42476 0.782352,0.52218 0.302406,0.0974 0.630061,0.11186 0.941551,0.0493 0.436178,-0.0876 0.833819,-0.3227 1.1606,-0.62459 0.414004,-0.38247 0.720118,-0.86888 0.962289,-1.37784 0.242172,-0.50896 0.424369,-1.04383 0.623533,-1.57111 0.166214,-0.44004 0.350698,-0.8855 0.666941,-1.23372 0.20203,-0.22246 0.456527,-0.40013 0.741673,-0.49498 0.285146,-0.0948 0.601101,-0.10414 0.885857,-0.008 0.295633,0.0997 0.545505,0.30637 0.746667,0.54484 0.201162,0.23847 0.358872,0.50975 0.521156,0.7762 0.207381,0.3405 0.4244,0.67639 0.596409,1.03605 0.172009,0.35966 0.298863,0.74712 0.31327,1.14554 0.01347,0.37255 -0.07126,0.74127 -0.09487,1.11332 -0.0118,0.18602 -0.0081,0.37426 0.03037,0.55663 0.03851,0.18238 0.113146,0.35928 0.23233,0.5026 0.191781,0.23061 0.486654,0.35819 0.784013,0.39742 0.286764,0.0378 0.57801,7.5e-4 0.862784,-0.0499 2.580074,-0.45913 4.818988,-1.99695 6.971798,-3.49128 0.39788,-0.27618 0.79753,-0.55316 1.23034,-0.77054 0.43281,-0.21737 0.90298,-0.37458 1.38686,-0.39551 0.35691,-0.0154 0.71474,0.0436 1.05584,0.14982 0.70268,0.21872 1.34062,0.64124 1.81617,1.20289"
       id="path5792-9"
       inkscape:path-effect="#path-effect5794-8;#path-effect5796-5"
       inkscape:original-d="m 84.821386,168.76456 c -0.25352,1.08278 -1.12981,3.39014 2.20968,2.71123 0.43065,-0.0875 1.66267,-2.41384 2.05502,-3.34241 0.14055,-0.33264 0.16298,-0.80735 0.40191,-1.09219 0.32437,-0.38666 1.08039,-0.69018 1.54116,-0.77449 0.79067,-0.14467 1.11644,0.53231 1.50898,1.09187 0.633,0.90231 0.4656,0.76079 0.8818,2.01063 0.0615,0.18468 0.19388,0.3464 0.22638,0.53834 0.0951,0.56146 0.0835,1.18506 0.1241,1.7499 0.0261,0.36268 -0.097,0.82769 0.37946,0.90426 0.39384,0.0633 0.24489,-0.23543 0.59059,-0.31499 1.38831,-0.31958 -0.19693,0.39819 1.34612,-0.19271 1.92784,-0.73823 3.78291,-1.64462 5.522294,-2.75391 1.18623,-0.75653 1.99348,-1.3447 3.33988,-1.66476 0.0798,-0.019 0.16533,0.026 0.24573,0.01 0.20671,-0.0412 0.33329,-0.18923 0.54749,-0.12651 0.13317,0.039 0.2119,0.17951 0.32337,0.26213 1.18992,0.88141 0.78072,0.61376 1.81617,1.20289" />
    <path
       style="fill:none;stroke:#000000;stroke-width:0.264583px;stroke-linecap:butt;stroke-linejoin:miter;stroke-opacity:1"
       d="m 107.09706,177.99945 c 0.65392,0.4597 1.39541,0.79438 2.17273,0.98068 0.12933,0.031 0.26043,0.058 0.39335,0.0626 0.13291,0.005 0.26855,-0.0142 0.38871,-0.0712 0.17193,-0.0816 0.3007,-0.23624 0.38573,-0.40649 0.085,-0.17024 0.13073,-0.35697 0.17426,-0.54222 0.028,-0.11906 0.0555,-0.23886 0.10166,-0.35211 0.0461,-0.11326 0.11223,-0.22075 0.2062,-0.29902 0.0852,-0.071 0.19065,-0.11541 0.29951,-0.13658 0.10885,-0.0212 0.2212,-0.0198 0.33121,-0.006 0.22003,0.0278 0.43066,0.1047 0.64769,0.15036 0.21299,0.0448 0.43113,0.0594 0.64596,0.0943 0.21483,0.0349 0.43078,0.0923 0.61197,0.21286 0.15513,0.10324 0.27776,0.24817 0.38771,0.39862 0.10995,0.15045 0.20971,0.30875 0.33081,0.45038 0.18857,0.22054 0.42445,0.39548 0.66703,0.5547 0.2523,0.1656 0.51979,0.31862 0.81464,0.38296 0.2857,0.0623 0.58444,0.0382 0.8701,-0.0244 0.28566,-0.0625 0.5615,-0.16243 0.83959,-0.25285 0.27506,-0.0894 0.55549,-0.17081 0.80843,-0.31109 0.35273,-0.19563 0.64185,-0.50588 0.80608,-0.87428 0.0574,-0.12875 0.0997,-0.26363 0.15084,-0.39497 0.0512,-0.13135 0.11224,-0.26076 0.20208,-0.36938 0.15987,-0.19328 0.39535,-0.30413 0.59986,-0.44936 0.25695,-0.18247 0.47041,-0.42578 0.61789,-0.70429"
       id="path5798-7"
       inkscape:path-effect="#path-effect5800-7;#path-effect5802-4"
       inkscape:original-d="m 107.09706,177.99945 c 2.48065,0.82387 2.63976,1.93654 3.46217,0.15576 0.19254,-0.41689 -0.07,-0.28281 0.10125,-0.59077 0.19845,-0.35687 1.09027,-0.27633 1.41942,-0.21739 0.16148,0.0289 0.30454,0.12621 0.46454,0.16237 0.49048,0.11083 0.90639,0.033 1.26534,0.43176 0.57268,0.63621 0.05,0.46685 0.89358,1.0963 0.10728,0.08 0.26808,0.0458 0.38693,0.10735 0.1346,0.0697 0.2129,0.23854 0.3589,0.27917 0.76471,0.21247 1.2077,0.0179 1.87531,-0.21448 0.21918,-0.0763 0.4673,-0.0718 0.67252,-0.18024 0.16367,-0.0864 0.90679,-0.8863 0.96238,-0.97952 0.12144,-0.20359 0.0874,-0.48253 0.22734,-0.67386 0.12529,-0.17132 0.3724,-0.21194 0.52701,-0.35735 0.30312,-0.28505 0.55823,-0.6172 0.83735,-0.92581" />
    <path
       style="fill:none;stroke:#800080;stroke-width:0.264583px;stroke-linecap:butt;stroke-linejoin:miter;stroke-opacity:1"
       d="m 100.83317,152.27514 c -0.67148,0.17376 -1.327905,0.40566 -1.959523,0.69226 -0.410527,0.18628 -0.826442,0.40903 -1.087023,0.7769 -0.140145,0.19785 -0.227639,0.42763 -0.304442,0.6576 -0.0768,0.22997 -0.144861,0.4641 -0.251757,0.68172 -0.08441,0.17185 -0.192653,0.33254 -0.258998,0.51214 -0.03317,0.0898 -0.05559,0.1843 -0.05742,0.28001 -0.0018,0.0957 0.01759,0.19284 0.06387,0.27664 0.05948,0.10771 0.162009,0.18921 0.277799,0.23084 0.115791,0.0416 0.243871,0.0446 0.36371,0.0167 0.08657,-0.0202 0.168697,-0.0558 0.25362,-0.0821 0.08492,-0.0263 0.175639,-0.0432 0.262583,-0.0247 0.06944,0.0148 0.133276,0.052 0.183634,0.10206 0.05036,0.05 0.08754,0.11253 0.11187,0.17923 0.04866,0.13339 0.04612,0.28008 0.02819,0.42093 -0.01793,0.14086 -0.05058,0.27988 -0.06027,0.42154 -0.0097,0.14167 0.0054,0.28976 0.07655,0.41264 0.0491,0.0848 0.123153,0.15388 0.207592,0.20364 0.08444,0.0497 0.179061,0.0807 0.27549,0.0983 0.192859,0.035 0.390765,0.017 0.586591,0.008 0.196043,-0.009 0.392672,-0.008 0.587997,-0.0264 0.19533,-0.0188 0.39099,-0.0583 0.56772,-0.14359 0.17383,-0.0839 0.32363,-0.20906 0.47915,-0.32335 0.15553,-0.1143 0.32356,-0.22085 0.51292,-0.2582 0.0947,-0.0187 0.19368,-0.0193 0.28698,0.005 0.0933,0.0246 0.18063,0.0753 0.24305,0.14894 0.0624,0.0736 0.0986,0.17055 0.0927,0.26687 -0.006,0.0963 -0.0558,0.19046 -0.13599,0.24407 -0.0514,0.0343 -0.11233,0.0514 -0.17309,0.0626 -0.0608,0.0112 -0.12253,0.0172 -0.18251,0.032 -0.0306,0.008 -0.0609,0.0175 -0.0888,0.0321 -0.0452,0.0236 -0.0839,0.0594 -0.11186,0.10205 -0.028,0.0427 -0.0452,0.0922 -0.0508,0.1429 -0.0113,0.10142 0.0249,0.20572 0.091,0.28349 0.0661,0.0778 0.16024,0.12949 0.25993,0.15128 0.0997,0.0218 0.20456,0.0147 0.30285,-0.0128 0.19659,-0.0549 0.36221,-0.18647 0.51079,-0.3264 0.14858,-0.13993 0.28765,-0.29254 0.458,-0.40495 0.077,-0.0508 0.16183,-0.0935 0.25335,-0.10492 0.0458,-0.006 0.0928,-0.003 0.13707,0.009 0.0443,0.0128 0.0858,0.0362 0.11785,0.0694 0.0286,0.0296 0.0492,0.0666 0.0609,0.10607 0.0116,0.0395 0.0143,0.0814 0.009,0.12227 -0.01,0.0817 -0.0506,0.15764 -0.10489,0.21951 -0.1086,0.12374 -0.26547,0.19126 -0.40753,0.27447 -0.39444,0.23104 -0.69466,0.60307 -0.8894,1.01663 -0.19474,0.41357 -0.28956,0.8681 -0.33461,1.323 -0.0226,0.22853 -0.0331,0.45825 -0.0314,0.68789"
       id="path5804-5"
       inkscape:path-effect="#path-effect5806-1;#path-effect5808-8"
       inkscape:original-d="m 100.83317,152.27514 c -0.73104,0.67097 -1.920704,0.45063 -2.686814,1.02718 -0.47391,0.35667 -0.55411,1.04904 -0.81789,1.58028 -0.15359,0.30936 -0.7581,1.48786 0.0163,1.53111 0.44631,0.0249 0.7812,-0.19799 0.78746,-0.14838 0.0743,0.58925 -0.0176,1.50357 0.67749,1.82664 0.53824,0.25019 1.15234,-0.14018 1.669464,-0.12771 3.94381,0.0952 -0.33298,0.25352 1.72231,0.20819 0.32285,-0.007 0.67658,0.006 0.99369,-0.0565 9.3e-4,-2.3e-4 0.41973,-0.15518 0.44809,-0.15123 0.23946,0.0334 -0.18426,0.44736 -0.28889,0.66533 -0.46201,0.96256 -1.52274,2.07437 -1.34856,3.20972" />
    <path
       style="color:#000000;fill:#808080;stroke-width:3.96125;stroke-dasharray:none"
       d="M 64.790906,110.62911 V 110.89 h 14.87481 v -0.26089 z"
       id="path55300-2-7-3"
       sodipodi:nodetypes="ccccc" />
    <g
       id="g55290-3-8-8"
       transform="matrix(-0.98217323,0,0,0.98217323,157.16334,-91.936444)"
       style="fill:#808080">
      <g
         id="path55292-7-4-8"
         style="fill:#808080">
        <path
           style="color:#000000;fill:#808080;fill-rule:evenodd;stroke-width:0.132291pt"
           d="m 78.611677,206.375 1.144322,-0.66146 v 1.32292 z"
           id="path55296-5-5-31" />
        <path
           style="color:#000000;fill:#808080;fill-rule:evenodd"
           d="m 79.84375,205.56055 -1.408203,0.81445 0.132812,0.0762 1.275391,0.73828 z m -0.175781,0.30468 v 1.01954 l -0.88086,-0.50977 z"
           id="path55298-9-0-8" />
      </g>
    </g>
    <text
       xml:space="preserve"
       style="font-style:normal;font-weight:normal;font-size:3.95537px;line-height:1.25;font-family:sans-serif;letter-spacing:0px;word-spacing:0px;fill:#808080;fill-opacity:1;stroke:none;stroke-width:0.148326"
       x="62.771408"
       y="111.9632"
       id="text55232-7-3-9"><tspan
         sodipodi:role="line"
         id="tspan55230-3-6-64"
         style="font-style:normal;font-variant:normal;font-weight:normal;font-stretch:normal;font-size:3.95537px;font-family:arial;-inkscape-font-specification:arial;fill:#808080;stroke-width:0.148326"
         x="62.771408"
         y="111.9632">1</tspan></text>
    <path
       style="color:#000000;fill:#808080;stroke-width:3.96125;stroke-dasharray:none"
       d="m 63.942716,137.77916 v 0.26089 h 14.87481 v -0.26089 z"
       id="path55300-2-7-33"
       sodipodi:nodetypes="ccccc" />
    <g
       id="g55290-3-8-3"
       transform="matrix(-0.98217323,0,0,0.98217323,156.31515,-64.786393)"
       style="fill:#808080">
      <g
         id="path55292-7-4-86"
         style="fill:#808080">
        <path
           style="color:#000000;fill:#808080;fill-rule:evenodd;stroke-width:0.132291pt"
           d="m 78.611677,206.375 1.144322,-0.66146 v 1.32292 z"
           id="path55296-5-5-0" />
        <path
           style="color:#000000;fill:#808080;fill-rule:evenodd"
           d="m 79.84375,205.56055 -1.408203,0.81445 0.132812,0.0762 1.275391,0.73828 z m -0.175781,0.30468 v 1.01954 l -0.88086,-0.50977 z"
           id="path55298-9-0-4" />
      </g>
    </g>
    <text
       xml:space="preserve"
       style="font-style:normal;font-weight:normal;font-size:3.95537px;line-height:1.25;font-family:sans-serif;letter-spacing:0px;word-spacing:0px;fill:#808080;fill-opacity:1;stroke:none;stroke-width:0.148326"
       x="61.149818"
       y="138.99249"
       id="text55232-7-3-0-9"><tspan
         sodipodi:role="line"
         id="tspan55230-3-6-6-7"
         style="font-style:normal;font-variant:normal;font-weight:normal;font-stretch:normal;font-size:3.95537px;font-family:arial;-inkscape-font-specification:arial;fill:#808080;stroke-width:0.148326"
         x="61.149818"
         y="138.99249">2</tspan></text>
  </g>
</svg>
