<?xml version="1.0" encoding="UTF-8" standalone="no"?>
<!-- Created with Inkscape (http://www.inkscape.org/) -->

<svg
   width="35.509125mm"
   height="109.16779mm"
   viewBox="0 0 35.509125 109.16779"
   version="1.1"
   id="svg8647"
   inkscape:version="1.2 (1:1.2.1+202207142221+cd75a1ee6d)"
   sodipodi:docname="fig4.svg"
   xmlns:inkscape="http://www.inkscape.org/namespaces/inkscape"
   xmlns:sodipodi="http://sodipodi.sourceforge.net/DTD/sodipodi-0.dtd"
   xmlns="http://www.w3.org/2000/svg"
   xmlns:svg="http://www.w3.org/2000/svg">
  <sodipodi:namedview
     id="namedview8649"
     pagecolor="#ffffff"
     bordercolor="#666666"
     borderopacity="1.0"
     inkscape:showpageshadow="2"
     inkscape:pageopacity="0.0"
     inkscape:pagecheckerboard="0"
     inkscape:deskcolor="#d1d1d1"
     inkscape:document-units="mm"
     showgrid="true"
     inkscape:zoom="1.4740319"
     inkscape:cx="102.10091"
     inkscape:cy="247.95935"
     inkscape:window-width="1366"
     inkscape:window-height="740"
     inkscape:window-x="0"
     inkscape:window-y="0"
     inkscape:window-maximized="1"
     inkscape:current-layer="layer1">
    <inkscape:grid
       type="xygrid"
       id="grid9130"
       originx="-88.696872"
       originy="-83.99068" />
  </sodipodi:namedview>
  <defs
     id="defs8644">
    <marker
       style="overflow:visible"
       id="TriangleStart"
       refX="0"
       refY="0"
       orient="auto-start-reverse"
       inkscape:stockid="TriangleStart"
       markerWidth="5.3244081"
       markerHeight="6.155385"
       viewBox="0 0 5.3244081 6.1553851"
       inkscape:isstock="true"
       inkscape:collect="always"
       preserveAspectRatio="xMidYMid">
      <path
         transform="scale(0.5)"
         style="fill:context-stroke;fill-rule:evenodd;stroke:context-stroke;stroke-width:1pt"
         d="M 5.77,0 -2.88,5 V -5 Z"
         id="path135" />
    </marker>
  </defs>
  <g
     inkscape:label="Calque 1"
     inkscape:groupmode="layer"
     id="layer1"
     transform="translate(-88.696873,-83.990684)">
    <g
       id="g8813"
       transform="rotate(-14.235755,106.65829,131.52204)">
      <path
         style="fill:none;fill-rule:evenodd;stroke:#000000;stroke-width:0.612155;stroke-linecap:butt;stroke-linejoin:miter;stroke-miterlimit:4;stroke-dasharray:none;stroke-opacity:1"
         d="m 104.97743,174.94205 c -1.00166,0.85627 -3.80001,4.47383 -6.338811,3.85326 -2.670835,0.27472 -1.447747,-2.89724 -2.5676,-4.76334 0.686267,-0.92105 3.387527,0.4539 3.748873,1.01709 2.909848,0.28525 7.285818,1.18007 6.137688,-2.55089 -0.59447,-2.90639 -6.549047,1.0793 -6.949274,1.68446 -1.836,1.73547 -0.589196,-2.61038 0.579137,-3.59602 2.162827,-1.32398 4.471037,6.59191 6.410687,-0.19379 0.54831,-2.44281 -8.223873,0.53332 -7.998013,0.64364 -3.441271,1.99154 -1.870771,-2.25273 0.302886,-3.68541 2.096497,-1.22282 6.630247,3.26795 9.551827,1.9643 3.33861,-1.46987 -5.25592,-3.38511 -8.90432,-1.21062 -2.803887,1.07708 -5.136093,-2.02729 -1.383065,-0.73647 3.418965,0.21604 4.815675,1.35102 8.981005,1.60301 4.88004,-0.98731 -1.8084,-3.44891 -3.89254,-3.08346 -4.16663,-0.045 -4.077594,-1.2559 -4.850794,-4.76339 -0.610401,-0.79718 4.636944,3.1118 5.201654,3.90382 0.64127,3.13758 4.73221,-0.27046 4.8886,-1.03854 -0.19647,-1.0118 -9.997107,0.86384 -11.172571,-1.12462 -0.912583,-2.47076 8.448331,-0.94527 8.508191,0.0965 3.86414,0.60089 2.42897,-1.4353 1.0407,-2.59854 -1.00677,-1.35909 -5.80921,-0.008 -7.536109,0.0386 -0.553157,0.62337 -0.294718,-1.87621 3.247719,-0.38364 2.91199,1.03778 3.34878,2.1618 4.9906,0.68035 1.8443,-2.4994 -4.93116,-3.06005 -5.57719,-2.83493 -1.405168,-1.09737 4.27596,-0.85405 5.60851,0.59695 3.04481,2.31896 5.61534,1.19934 2.08708,-1.02433 -1.83641,-1.08711 -6.73716,-0.32279 -7.5236,0.38356 -3.292285,1.11885 -3.746751,-2.14288 -1.52908,-2.52477 2.4687,-1.61829 6.75782,2.80065 8.85654,2.23324 3.36143,-0.011 -1.17611,-2.92336 -3.19063,-3.06691 -3.48851,-0.39626 -4.81616,3.34014 -4.98408,-2.44463 -0.13303,-2.90331 3.07739,-1.45869 4.12115,-0.1744 1.73724,1.92869 9.15852,4.17163 6.20272,2.29138 -1.65084,-1.11861 -6.14045,0.0514 -8.75856,-2.27888 -0.91527,-1.5202 5.29339,0.12417 7.51724,1.13343 3.51045,0.0842 1.92582,-2.12148 -1.66064,-1.35016 -2.35529,0.59361 -3.22537,1.00211 -4.02878,-2.26706 -0.32005,-2.28589 3.72166,0.99465 5.82457,1.46065 4.22635,1.28744 0.99967,-2.92504 -1.0089,-2.95362 -3.13701,-0.39075 -2.59222,1.11434 -6.16921,0.0954 -0.89852,-0.47335 3.89307,-1.51679 5.29179,-0.54518 1.23971,1.50701 5.40895,1.33467 5.38236,-0.23961 0.34609,-0.75124 -5.1312,-1.34752 -8.49863,-1.16037 -3.58856,0.096 -3.72782,-2.99236 1.2431,-1.21593 3.04141,0.39058 3.92285,0.4896 6.484,0.55597 0.53733,-0.37151 -8.15182,-2.25783 -8.25636,-2.61037 -3.25741,-0.60653 -1.95699,-1.25018 0.33667,-0.71482 1.9934,0.8767 4.81373,2.15594 7.30709,3.62809 1.81109,1.50414 2.23609,-2.30641 -1.74544,-4.12594 -2.53196,-0.69863 -4.55774,0.59325 -4.69699,0.25997 0.30372,0.32004 3.11005,0.5272 5.49429,1.00058 1.53988,-0.66378 3.94068,-1.83225 0.82883,-3.99097 -1.49331,-0.30969 -5.96,-1.41051 -7.68143,-1.21129 0.11228,0.47146 0.63283,-0.44508 2.88228,0.60579 2.78484,1.68981 4.41572,4.03657 5.76832,1.60671 0.30032,0.13352 -7.77254,0.0507 -6.72167,-3.74641 0.0111,-1.12225 5.93207,1.04727 7.15563,0.64563 1.35491,0.27882 -4.03517,-3.6545 -5.10795,-4.10112 -1.10991,-0.13373 -5.45469,0.19006 -2.4589,0.97905 3.2767,0.60511 4.92027,3.66612 6.95266,3.94689 3.89582,0.33385 -1.26303,-3.83262 -2.73831,-4.003 -2.42629,-0.25594 -5.12036,3.24552 -4.58108,-0.9804 0.18432,-0.48821 4.01082,3.39456 5.41408,3.35258 3.49773,-0.0993 0.16136,-4.28478 -1.33556,-4.45905 -2.56584,-0.22703 -4.78176,-0.19481 -4.99561,-1.96872 -1.15284,-1.87449 4.37347,1.55098 6.17633,2.49931 2.78569,2.40242 4.86964,0.067 2.00601,-1.43908 -3.03466,-1.08495 -3.83255,-0.73553 -6.78457,-1.04646 -0.53574,-1.35178 -1.121,-3.9723 2.55545,-0.36882 1.59761,2.52458 4.25413,1.72385 5.14547,-0.35877 0.12598,0.0854 -4.99828,-0.56736 -7.91052,-0.7522 -1.60535,0.19608 -1.46814,-2.94876 2.19438,-0.55726 2.78102,1.19515 5.22279,2.19734 6.79734,-0.44801 1.6347,-2.73284 -4.85399,-1.06836 -6.39249,-1.66108 -2.52186,0.44879 -3.67821,1.16023 -3.69292,-2.39116 -0.82126,-2.81089 4.70875,2.99887 6.71198,3.02415 2.92732,0.92302 3.92373,-0.9369 0.40939,-2.32557 -2.20112,-0.80248 -5.39212,0.0773 -6.34129,-1.12731 -2.07068,-0.63429 4.232,0.42328 6.43081,1.34019 2.71248,1.07256 1.08498,-5.49586 -1.31975,-4.7363 -3.24676,-0.34244 -3.04008,2.02305 -3.74747,-0.36329 -0.87175,-1.71334 -0.0367,1.09165 2.88364,2.24769 3.87807,2.21282 3.77854,-1.03178 -1.01277,-0.57904 -2.62968,0.35369 -2.878,-3.76801 -1.39488,-5.03838 1.51769,-1.41414 2.27893,2.37037 4.45515,2.6483 0.35586,0.25339 -1.48329,-3.41973 -3.80372,-3.67431 -0.45194,-0.1085 1.27338,-0.70656 4.14796,1.62408 1.63221,0.98477 3.23191,-1.3245 -0.69456,-1.83628 -1.60749,-0.1856 -7.21988,-2.03911 -3.12822,-2.95655 1.33337,-1.18346 2.36,4.29109 4.63506,4.15551 2.84369,-0.87514 -2.36323,-3.36615 -2.84885,-3.46262 -2.12411,0.17804 -3.8534,1.70597 -3.03571,-1.10891 0.93618,-2.22403 2.22241,1.14697 3.9443,1.32376 0.14783,0.22367 -6.58089,-1.95374 -2.43172,-2.84254 1.86035,-0.53323 2.02613,2.98097 3.95956,2.89512 3.12583,0.28104 0.9485,-3.45196 -0.78415,-3.65612 -1.78132,-0.0588 -6.12893,-1.17084 -2.3085,-0.73788 2.32019,0.2555 2.79474,0.57935 5.11253,0.66377 1.659,-0.31365 -4.25087,-1.52109 -6.19802,-0.33683 -1.73725,1.39624 -2.18035,-1.21447 -1.22349,-2.40801 0.0921,-0.64666 5.49111,1.65486 5.92078,1.34569 0.85733,-0.0277 1.95271,-9.71465 -2.39577,-7.203801 -2.34147,1.459851 -3.22846,5.623211 -1.3055,9.115471 2.03613,1.86294 4.60443,-2.39082 6.19671,-3.32784 1.73075,-1.35046 -3.84366,-0.0976 -4.6979,-0.0889 -3.73969,-0.96208 -3.93757,-4.51761 -0.99105,-5.03701 0.41148,0.4123 4.31526,3.24128 5.98001,2.94747 3.1907,0.20023 -2.07255,-4.370828 -2.8009,-4.305131 -2.8064,-0.360898 -4.90278,0.66208 -6.78378,-0.897157 -3.08182,-2.006213 0.61221,-3.410118 3.1382,-2.855462 2.22166,0.852669 1.81647,3.504205 4.83268,4.019389 1.47422,-0.883597 1.26852,-4.376343 -2.62839,-2.549588 -2.06019,0.488016 -5.22329,-0.776147 -5.68587,-2.762453 0.31884,-1.358858 4.16223,2.734091 5.53596,2.847215 2.27872,0.09254 3.83887,2.237716 4.24908,-0.544311 -0.004,-1.620872 -5.31519,-2.123835 -6.74794,-2.09935 -0.14418,-1.287171 -6.37071,-6.141886 1.79155,-0.854777 0.97028,0.83778 4.56361,-0.5937 4.23875,-1.551404 -0.28066,-1.956931 -4.53214,0.252706 -6.73548,-0.01514 -0.62435,-0.07858 1.60931,-3.462234 4.34874,-0.372629 1.88781,2.101152 2.38401,0.506395 4.68107,-0.597799 1.663,-1.026463 -2.01677,-2.744313 -3.86754,-1.926227 -1.51164,0.192333 -4.99692,-0.752748 -7.70962,-2.015495 0.23132,-0.03205 2.81571,-2.354826 6.94312,1.720751 2.93613,2.104826 3.96303,4.252459 6.17545,0.317034 0.90676,-1.542921 -5.11469,-1.761483 -5.63941,-1.818718 -1.87225,-0.319802 -3.54993,-1.501743 -5.02626,-2.646454 -1.78441,-1.15444 4.64082,0.705221 6.22086,2.511106 1.88599,1.988068 3.74341,0.442496 0.24942,-1.557719 -2.07789,-1.278855 -1.37955,-1.187935 -3.00351,-1.311396"
         id="path2419"
         sodipodi:nodetypes="ccccccccccccccccccccccccccccccccccccccccccccccccccccccccccccccccccccccccccccccccccccccccccccccccccccccccccccccccccccccccccccccccccc" />
      <path
         id="path2421"
         d="m 81.001313,169.61193 c 0.261628,0.85921 1.998525,5.41439 4.031225,6.41372 2.264681,0.55378 3.511247,0.86814 4.764492,-1.47713 0.971332,-0.69533 -3.753843,-2.04672 -4.341467,-2.35935 -2.680798,-1.16046 -4.701883,-1.96301 -2.063196,-4.39058 1.448258,-1.06657 3.813954,3.87566 4.908308,3.99342 1.73144,2.75794 2.018818,0.17901 1.793484,-2.02698 0.391475,-1.04299 -7.669344,2.34824 -6.417557,-4.7724 1.064884,-2.85464 5.533895,5.38204 5.578963,4.9992 0.605137,3.56734 4.350424,0.96067 3.159096,-2.32725 -1.259717,-1.86507 -7.96675,-0.41725 -9.718282,-3.3425 -2.177884,-3.10401 5.239249,0.99759 7.691238,3.75593 2.134375,3.25713 4.099706,0.51542 1.394589,-0.78622 -3.867,-1.39754 -3.131264,-0.40746 -6.632696,-3.4887 -3.543138,-2.83988 3.207702,-1.01268 4.333256,-0.17577 2.734262,2.04595 3.044065,1.71068 5.349692,-0.96683 0.987621,-1.29179 -3.917058,-0.46608 -5.052321,0.45971 -3.742334,1.95459 -4.144649,-2.8159 -3.004635,-3.94565 0.353727,-0.26245 5.191804,6.52033 6.980142,5.49009 2.413969,-0.37967 -4.37284,-5.08487 -4.27516,-4.98215 -3.484045,-1.56846 -1.904067,-3.0109 -1.074338,-3.22551 1.568077,-0.41162 5.755454,2.57393 7.183325,4.63374 0.44971,-0.0423 1.739598,-1.01128 -2.352208,-1.92562 -3.354899,-0.93226 -5.11407,-1.96084 -6.259968,-3.28161 -1.221079,-2.27887 6.772329,1.76845 7.833754,1.92912 2.549629,0.70934 -2.54787,-2.84254 -4.944656,-2.54163 -4.326592,-0.40825 -2.940571,-3.35311 -0.364672,-3.03167 2.557989,-0.25953 4.582431,3.93619 5.34752,5.15951 1.831995,2.99906 2.505896,0.59743 1.464371,-1.46938 -1.363863,-2.63337 -4.816603,-1.71368 -6.153262,-3.26772 -2.618533,-2.25087 1.543394,-1.6993 3.808435,-0.77175 3.653202,2.23259 2.638148,4.24943 5.319792,0.89125 1.772853,-2.35661 -4.916375,-1.71445 -5.971131,-1.73754 -2.401901,-0.40551 -6.399814,-1.61287 -3.077037,-1.34517 3.545724,-0.46677 3.308638,1.62857 7.112701,2.01465 2.05159,-0.51195 -3.222802,-1.36941 -5.447331,-2.39765 -3.030223,-1.15589 0.377711,-2.92565 2.261087,-0.99155 1.476369,1.93389 1.982637,5.03363 4.040123,2.30848 1.784315,-2.16984 -4.794114,-2.03057 -6.197288,-3.11142 -3.073044,-1.23685 2.093327,-4.01076 3.991217,-2.98502 2.230021,1.27212 1.06648,4.41752 4.297512,4.84445 0.59212,0.23516 -2.567378,-2.46889 -4.088692,-2.66326 -2.338165,-0.3477 -3.26757,-3.63417 -3.885838,-4.65474 0.446642,-0.001 4.59154,2.40066 7.134411,4.21121 3.169979,3.28442 5.144439,-1.21944 0.403159,-2.46689 -2.620991,-0.69916 -4.485908,-0.57475 -5.098421,-1.89988 -0.174183,0.006 6.190671,1.4105 6.368791,1.40279 2.3883,1.83597 3.94311,-0.54329 1.09608,-1.27578 -2.19263,-0.80404 -4.33664,0.20829 -6.99004,-0.0679 -2.720984,-0.11865 -2.456156,-3.47211 1.688857,-2.66705 2.927026,0.17998 5.365653,1.71217 5.553443,2.35546 0.099,10e-4 -2.746494,-0.56306 -4.750071,-2.0949 -1.786908,-1.3202 -2.304973,-2.97602 1.350094,-2.88926 2.670167,0.63246 4.450157,2.03241 5.578857,3.90928 0.0617,-0.023 0.0661,-2.00554 -2.6883,-2.14565 -3.025987,0.14526 -5.071397,0.25972 -4.893381,-3.0721 0.120061,-0.49469 6.025961,6.25334 7.142931,2.47623 0.20999,-0.78648 -5.749189,-2.99405 -6.05332,-4.00563 -0.476017,-1.14118 4.28286,0.0141 6.40784,-0.0926 1.78845,0.35996 5.22683,2.61403 1.7243,1.23837 -2.45427,0.12621 -6.07233,0.70339 -7.802061,-0.11498 -3.278957,-1.36584 3.385401,-1.79096 4.260981,-2.2216 2.5662,0.59069 2.75795,6.93277 4.99776,2.06972 0.0309,-0.18162 -6.48741,-0.12929 -7.16162,-1.6334 -3.695721,-1.49498 3.05924,-2.87044 4.42321,-1.65447 2.8453,1.00789 2.35631,2.43773 4.35519,1.47159 2.00834,-1.19697 -2.74173,-2.11976 -4.69382,-2.34569 -2.99385,0.043 -4.80388,-2.04154 -1.98923,-1.43426 4.36586,0.97151 2.7646,1.28443 6.18459,1.93319 0.26522,0.51512 2.32225,-2.89394 -2.30429,-1.51063 -2.19735,1.93426 -5.20517,-0.69086 -4.63999,-3.15956 -0.45235,0.21709 4.52914,1.20282 7.56278,3.40253 1.75984,0.36456 2.85489,-2.25468 -1.38046,-2.08462 -3.67953,-0.16821 -6.41576,0.34977 -5.60683,-2.02925 0.45749,-2.67983 5.12568,0.74951 6.03942,1.47707 1.77788,1.34064 2.8924,4.26507 4.53164,0.46903 1.0382,-2.17988 -3.61483,-1.08247 -5.69359,-2.12785 -2.91799,-1.44424 -4.06516,-3.44025 -0.70375,-2.40091 2.18353,-0.20955 3.12732,2.66185 5.6044,3.16146 2.4256,1.13073 -3.69019,-2.88607 -5.37663,-2.84076 -2.90609,-0.72365 1.47311,-1.29653 3.8113,-0.65919 3.33579,1.05688 3.17429,1.71566 4.66173,0.72643 2.1786,-1.17793 -4.74806,-1.6006 -6.09593,-1.35177 -4.49625,-1.23666 -1.11549,-3.97661 2.26568,-0.79459 1.95814,1.59341 3.12892,0.69772 2.58315,-0.96373 -0.62842,-1.9004 -4.01355,-2.01069 -6.01523,-1.37191 -1.06439,-0.65885 3.72788,-2.27157 5.66199,-1.41633 2.22933,0.9472 1.58201,0.15933 -1.59462,-0.24993 -1.75656,-0.006 -3.1613,-3.55512 0.0895,-1.82965 1.49092,0.69294 6.55058,4.34643 4.05645,0.62157 -0.45037,-0.38789 -3.67511,1.82239 -5.90319,-0.85545 -2.32318,-1.91063 3.93953,-1.94972 4.28961,-1.33491 2.12417,0.94892 0.8642,4.64042 1.64758,1.74199 0.41671,-1.7672 -0.60905,-1.51814 -1.6134,-2.86269 -0.78138,-0.56531 3.90829,5.70565 1.07085,1.8754 -1.4441,-1.43024 -0.76303,0.24725 -2.23283,-0.6265 -2.78766,-1.63646 0.55501,-3.43653 1.75928,-3.21705 2.4014,1.13451 6.40031,3.48974 2.38443,1.4746 -2.60528,-1.29875 -1.99008,2.402 -4.41705,-0.70262 -1.32705,-1.32582 3.50907,0.48792 3.95764,2.32292 2.38523,2.25845 3.18765,-0.89137 3.22992,-2.6332 -0.0882,-0.78384 -5.95665,-2.5168 -6.77441,-2.18023 -1.04694,-0.38852 6.03325,-9.251749 7.81334,-5.16692 1.06143,2.22565 0.43104,6.41511 -3.65638,7.25451 -3.20376,1.3549 -2.9636,-2.27671 -3.9932,-3.72329 -0.13872,-1.61074 3.00702,-0.96212 4.19288,-0.34383 3.10336,1.18822 5.02769,0.0279 2.4975,-2.48981 -0.48408,0.0668 -5.38722,0.0828 -5.90579,-0.0453 -2.82921,-1.40838 1.84726,-3.02982 3.27221,-1.72381 2.46742,1.17087 3.91855,0.5874 7.00383,1.23287 4.70668,-0.15682 1.10333,-1.88902 -1.24147,-2.38955 -2.55483,-0.39818 -3.05268,0.74823 -5.50647,-0.35313 -0.502,-0.90707 0.64635,-2.599538 3.18851,-0.20356 1.49825,2.1367 5.27689,3.11319 6.88573,0.94101 1.25173,-1.11531 -5.64753,-1.73715 -6.99845,-1.73313 -2.56302,-0.20397 -3.63101,0.93111 -2.93325,-2.289476 0.47052,-1.55462 5.444,0.780582 6.71679,1.731422 -0.12703,-0.489537 7.83009,-1.653004 -2.13198,-1.229141 -1.91902,0.03057 -1.99566,-2.854481 -1.82535,-4.245308 1.45305,-2.012172 3.31588,3.304192 5.70864,3.808706 0.51196,0.294182 0.84119,-3.726534 -3.44223,-2.700677 -2.64372,0.656203 -2.26526,-1.156947 -3.02961,-2.343795 -0.94744,-2.004182 7.23422,0.463424 6.91233,0.746535 1.31187,1.396686 2.52464,2.033016 5.02431,2.556516 0.21452,0.08079 -1.21518,-3.622528 -6.68913,-2.525259 -3.73437,1.814882 -4.89528,0.910366 -5.59541,-3.520611 -0.14953,-1.22945 5.22193,0.872843 5.74525,1.397451 1.72035,0.821147 3.35586,0.996196 5.30463,0.890356 3.79192,1.376442 -4.16567,-1.624218 -6.42682,-1.624995 -3.17914,-0.307877 -2.54949,-3.240741 1.03597,-2.76593 4.00329,0.426127 1.47471,1.152783 3.36711,2.228852"
         style="fill:none;fill-rule:evenodd;stroke:#000000;stroke-width:0.612155;stroke-linecap:butt;stroke-linejoin:miter;stroke-miterlimit:4;stroke-dasharray:none;stroke-opacity:1"
         sodipodi:nodetypes="ccccccccccccccccccccccccccccccccccccccccccccccccccccccccccccccccccccccccccccccccccccccccccccccccccccccccccccccccccccccccccccccccccc" />
      <circle
         id="path3243"
         style="fill:#ff6600;fill-opacity:1;stroke:none;stroke-width:2.39277;stroke-miterlimit:4;stroke-dasharray:none;stroke-opacity:1"
         cx="109.43187"
         cy="121.99058"
         r="5.5592284" />
    </g>
    <path
       id="rect8867"
       style="fill:none;stroke:#808080;stroke-width:0.666999;stroke-linecap:round;stroke-linejoin:round"
       d="m 103.73437,178.90105 v 4.99608 c 0,0.75222 -0.60558,1.35781 -1.35781,1.35781 H 90.388181 c -0.752226,0 -1.357809,-0.60559 -1.357809,-1.35781 v -4.99608"
       sodipodi:nodetypes="cssssc" />
    <rect
       style="fill:none;stroke:#808080;stroke-width:0.666999;stroke-linecap:round;stroke-linejoin:round"
       id="rect9018"
       width="0.051734924"
       height="2.8019032"
       x="95.98455"
       y="185.20436"
       ry="0.025866464" />
    <text
       xml:space="preserve"
       style="font-style:normal;font-weight:normal;font-size:5.29167px;line-height:1.25;font-family:sans-serif;letter-spacing:0px;word-spacing:0px;fill:#808080;fill-opacity:1;stroke:none;stroke-width:0.264583"
       x="94.668907"
       y="193.15848"
       id="text9074"><tspan
         sodipodi:role="line"
         id="tspan9072"
         style="font-size:5.29167px;fill:#808080;stroke:none;stroke-width:0.264583"
         x="94.668907"
         y="193.15848">1</tspan></text>
    <text
       xml:space="preserve"
       style="font-style:normal;font-weight:normal;font-size:5.29167px;line-height:1.25;font-family:sans-serif;letter-spacing:0px;word-spacing:0px;fill:#808080;fill-opacity:1;stroke:none;stroke-width:0.264583"
       x="121.45433"
       y="123.95203"
       id="text9074-6"><tspan
         sodipodi:role="line"
         id="tspan9072-5"
         style="font-size:5.29167px;fill:#808080;stroke:none;stroke-width:0.264583"
         x="121.45433"
         y="123.95203">2</tspan></text>
    <path
       style="fill:none;stroke:#808080;stroke-width:0.465;stroke-linecap:round;stroke-linejoin:miter;stroke-dasharray:none;stroke-opacity:1;marker-start:url(#TriangleStart)"
       d="m 112.06455,121.70833 h 7.9375"
       id="path9186" />
  </g>
</svg>
