<?xml version="1.0" encoding="UTF-8" standalone="no"?>
<!-- Created with Inkscape (http://www.inkscape.org/) -->

<svg
   width="102.85016mm"
   height="102.55408mm"
   viewBox="0 0 102.85016 102.55408"
   version="1.1"
   id="svg5403"
   inkscape:version="1.2 (1:1.2.1+202207142221+cd75a1ee6d)"
   sodipodi:docname="chap4-fig3.svg"
   xmlns:inkscape="http://www.inkscape.org/namespaces/inkscape"
   xmlns:sodipodi="http://sodipodi.sourceforge.net/DTD/sodipodi-0.dtd"
   xmlns="http://www.w3.org/2000/svg"
   xmlns:svg="http://www.w3.org/2000/svg"
   xmlns:rdf="http://www.w3.org/1999/02/22-rdf-syntax-ns#"
   xmlns:cc="http://creativecommons.org/ns#"
   xmlns:dc="http://purl.org/dc/elements/1.1/">
  <sodipodi:namedview
     id="namedview5405"
     pagecolor="#ffffff"
     bordercolor="#666666"
     borderopacity="1.0"
     inkscape:showpageshadow="2"
     inkscape:pageopacity="0.0"
     inkscape:pagecheckerboard="0"
     inkscape:deskcolor="#d1d1d1"
     inkscape:document-units="mm"
     showgrid="false"
     inkscape:zoom="0.52114899"
     inkscape:cx="-25.9043"
     inkscape:cy="246.57056"
     inkscape:window-width="1366"
     inkscape:window-height="740"
     inkscape:window-x="0"
     inkscape:window-y="0"
     inkscape:window-maximized="1"
     inkscape:current-layer="layer1" />
  <defs
     id="defs5400">
    <clipPath
       clipPathUnits="userSpaceOnUse"
       id="a-3">
      <path
         d="M 11.353,1.999 H 401.437 V 390.883 H 11.353 Z"
         id="path712" />
    </clipPath>
    <clipPath
       clipPathUnits="userSpaceOnUse"
       id="clipPath6021">
      <path
         d="M 11.353,1.999 H 401.437 V 390.883 H 11.353 Z"
         id="path6019" />
    </clipPath>
  </defs>
  <g
     inkscape:label="Calque 1"
     inkscape:groupmode="layer"
     id="layer1"
     transform="translate(-67.374923,-83.76911)">
    <g
       id="g774"
       transform="matrix(0.26458333,0,0,0.26458333,64.212623,83.081723)">
      <path
         clip-path="url(#a-3)"
         d="m 190.045,3.998 c -3.798,-4.038 -31.581,4.997 -27.783,37.777 3.797,32.54 11.393,25.904 11.633,46.332 0,20.627 0.24,23.026 -6.157,23.505 -6.436,0.24 -8.794,-13.312 -8.115,-20.667 0.72,-7.356 -1.399,-13.072 -3.797,-16.39 -2.359,-3.078 -2.839,-7.835 -1.64,-11.873 1.4,-4.038 -0.719,-12.113 -7.395,-6.196 -6.636,5.956 -6.156,20.188 -0.92,28.982 5.437,8.795 15.431,27.544 0.92,37.058 -5.916,3.558 -8.755,-3.078 -11.393,-9.954 -2.359,-5.957 -4.517,-11.913 -8.555,-10.474 -8.555,2.599 4.517,29.702 -2.838,35.139 -7.116,5.477 -6.876,6.916 -10.474,11.873 -3.558,5.236 -7.355,5.956 -11.633,10.953 -4.277,4.757 -35.618,12.832 -49.17,-16.15 -13.552,-28.983 -15.19,-67.68 -33.98,-62.962 -18.788,4.757 8.555,51.329 17.35,57.485 8.795,6.196 9.275,7.356 12.113,16.15 2.838,8.795 17.829,22.347 32.54,25.665 14.751,3.318 19.948,6.876 18.789,15.19 -1.2,8.316 -7.836,8.795 -12.593,5.917 -4.757,-2.838 -15.23,-0.44 -19.948,-2.598 -4.757,-2.12 -9.034,-0.48 -9.034,3.797 0,4.278 6.156,5.237 11.393,5.717 5.237,0.48 11.393,0.24 14.711,2.118 3.358,1.92 8.315,3.079 12.153,2.16 3.797,-0.96 6.156,-3.559 10.194,9.713 4.037,13.312 4.517,14.512 6.675,18.31 2.12,3.797 2.359,8.994 -2.878,9.953 -5.237,0.96 -16.87,7.596 -13.991,14.751 2.838,7.116 16.39,3.798 21.347,-3.797 4.997,-7.636 10.713,-10.474 14.031,-5.957 3.318,4.517 -4.757,11.633 -13.072,18.07 -8.315,6.395 -13.072,11.872 -19.708,24.904 -6.636,13.072 -10.234,18.789 -17.11,23.986 -6.875,5.236 -13.551,21.866 0,30.661 13.552,8.795 28.263,-50.13 41.335,-62.002 13.073,-11.873 14.032,-11.154 19.948,-21.827 5.957,-10.714 14.272,-5.717 18.31,-0.72 4.037,4.997 5.956,8.555 10.233,3.318 4.277,-5.237 4.517,-5.476 6.636,-3.318 2.159,2.119 4.277,3.078 7.116,-0.48 2.878,-3.557 4.757,-4.517 5.476,-0.48 0.72,4.038 0,20.189 4.518,19.949 4.517,-0.24 1.679,-23.746 11.153,-25.185 9.514,-1.4 17.11,1.919 23.066,22.826 5.916,20.867 5.676,80.032 19.468,94.743 13.792,14.71 37.777,13.551 20.907,-9.035 -16.87,-22.546 -15.19,-56.765 -21.626,-79.312 -6.397,-22.546 -14.951,-31.34 -9.035,-37.057 5.956,-5.677 4.997,-11.393 12.832,-8.315 7.875,3.118 9.035,3.318 12.832,9.034 3.798,5.717 5.957,7.356 8.555,4.757 2.639,-2.598 -1.639,-8.315 -7.115,-14.27 -5.477,-5.917 -11.394,-9.955 -8.076,-17.31 3.318,-7.356 4.278,-17.11 11.633,-20.668 7.356,-3.558 35.419,-5.716 59.884,1.64 24.465,7.395 35.379,9.513 40.855,15.95 5.477,6.396 26.624,13.751 29.463,3.078 2.838,-10.714 -10.434,-23.746 -22.787,-25.185 -12.352,-1.44 -21.627,-10.674 -32.1,-9.994 -5.437,0.48 -10.434,-0.92 -15.43,-2.119 -4.518,-1.2 -9.275,-2.358 -14.512,-2.358 -10.913,0.24 -46.332,-1.68 -46.332,-8.315 0,-6.676 42.294,-7.156 40.655,-16.63 -0.959,-4.518 -10.713,-2.879 -20.427,-0.96 -9.754,1.92 -19.748,3.798 -19.988,-1.439 -0.68,-9.954 37.297,-15.67 46.332,-29.902 9.034,-14.271 10.473,-15.43 6.676,-18.309 -3.798,-2.838 -11.193,2.879 -15.231,9.035 -4.038,6.196 -11.873,10.913 -17.79,12.832 -5.956,1.879 -16.19,5.917 -19.507,8.315 -3.318,2.359 -10.434,7.835 -14.472,0 -4.037,-7.835 8.075,-21.387 23.746,-35.139 15.67,-13.791 25.904,-26.623 33.98,-36.098 8.074,-9.514 33.5,-32.78 21.866,-41.335 -11.673,-8.555 -31.62,23.266 -38.736,33.02 -7.116,9.714 -17.11,23.506 -24.705,28.263 -7.596,4.717 -29.942,34.42 -34.94,29.902 -4.996,-4.517 16.87,-29.662 10.714,-34.42 -3.118,-2.398 -7.875,5.438 -13.312,13.273 -5.237,7.395 -11.433,14.99 -17.589,13.072 -12.592,-3.798 -19.708,-5.916 -27.543,-25.625 C 180.77,68.598 167.738,49.85 176.053,37.018 184.368,24.185 198.6,12.792 190.045,3.998 Z"
         fill="#8dd3f1"
         fill-rule="evenodd"
         id="path717" />
      <path
         d="m 190.085,4.038 0.44,-0.24 c -0.68,-0.96 -1.88,-1.2 -3.558,-1.2 -1.88,0 -4.518,0.72 -7.356,1.92 -4.037,1.918 -8.555,5.236 -12.113,10.193 -3.557,5.237 -5.916,12.113 -5.916,21.147 0,1.92 0,3.798 0.24,5.957 1.879,16.39 4.717,23.026 7.116,28.023 1.199,2.358 2.358,4.517 3.078,7.115 0.72,2.839 1.199,6.197 1.439,11.154 v 7.595 c 0,6.916 -0.24,10.714 -0.96,12.832 -0.48,0.96 -0.959,1.44 -1.679,1.92 -0.919,0.479 -1.878,0.479 -3.078,0.719 h -0.24 c -1.399,0 -2.358,-0.72 -3.317,-1.68 -1.44,-1.438 -2.36,-4.037 -3.079,-6.875 -0.72,-2.878 -1.199,-5.957 -1.199,-8.795 0,-0.96 0.24,-1.919 0.24,-2.838 0.24,-0.96 0.24,-2.159 0.24,-3.118 0,-5.917 -2.119,-10.674 -4.038,-13.512 -1.439,-1.919 -2.118,-4.517 -2.118,-7.156 0,-1.399 0,-2.838 0.44,-4.237 0.24,-0.72 0.479,-1.68 0.479,-2.878 0,-1.4 -0.24,-2.839 -0.92,-4.038 -0.24,-0.72 -0.719,-1.16 -1.199,-1.639 -0.72,-0.24 -1.199,-0.48 -1.919,-0.48 -1.399,0 -2.838,0.72 -4.477,2.119 -3.598,3.318 -5.237,8.555 -5.237,14.271 0,5.197 1.4,10.914 4.278,15.431 3.078,5.237 8.315,14.471 8.315,22.786 -0.24,5.237 -1.92,9.994 -7.596,13.552 a 4.61,4.61 0 0 1 -2.878,0.96 c -0.72,0 -1.639,-0.24 -2.359,-0.72 -1.199,-0.96 -2.158,-2.838 -3.318,-4.997 -1.439,-3.078 -2.638,-7.116 -4.037,-10.194 -0.72,-1.679 -1.68,-2.878 -2.399,-4.037 -0.92,-0.96 -2.118,-1.68 -3.318,-1.68 -0.48,0 -0.959,0 -1.199,0.24 -1.4,0.24 -2.358,1.2 -2.838,2.599 -0.48,1.2 -0.72,2.638 -0.72,4.277 0,3.318 0.72,7.116 1.44,10.954 0.48,3.797 1.199,7.835 1.199,10.913 0,1.639 -0.24,2.838 -0.48,4.038 -0.48,1.199 -0.96,1.878 -1.679,2.598 -3.558,2.638 -5.437,4.517 -6.636,6.196 -1.44,1.64 -2.159,3.318 -3.798,5.677 -1.919,2.638 -3.558,4.037 -5.476,5.476 -1.88,1.44 -4.038,2.839 -6.157,5.237 -0.48,0.44 -1.199,1.16 -2.398,1.64 -2.838,1.438 -8.275,3.077 -14.711,3.077 -5.237,0 -11.393,-1.159 -16.87,-4.277 -5.677,-3.078 -10.674,-8.275 -14.471,-16.35 -6.396,-13.552 -10.194,-29.462 -14.232,-41.815 -2.158,-6.196 -4.277,-11.633 -7.155,-15.43 -1.16,-1.92 -2.839,-3.558 -4.478,-4.518 -1.679,-1.199 -3.597,-1.679 -5.476,-1.679 -1.2,0 -2.159,0 -3.318,0.24 l -0.48,0.24 0.48,-0.24 c -2.399,0.72 -4.038,1.919 -5.237,3.798 -0.96,1.919 -1.44,4.037 -1.44,6.676 0,7.835 4.278,18.509 9.515,28.023 2.359,4.717 5.237,8.994 7.835,12.592 2.599,3.558 4.757,6.157 6.636,7.356 4.278,3.078 6.676,4.957 8.075,6.876 1.44,2.118 2.399,4.517 3.798,9.034 1.44,4.517 5.956,10.194 11.873,15.19 5.956,4.758 13.552,9.035 20.907,10.674 6.636,1.68 11.393,3.119 14.511,5.237 1.4,0.96 2.359,1.92 3.078,3.078 0.72,1.44 0.92,2.639 0.92,4.278 v 2.159 c -0.44,2.598 -1.4,4.517 -2.598,5.436 -1.2,1.2 -2.599,1.68 -4.278,1.68 -1.639,0 -3.558,-0.48 -4.997,-1.44 -2.598,-1.639 -6.396,-1.639 -10.194,-1.639 -1.879,0 -3.797,0 -5.476,-0.24 -1.64,0 -3.318,-0.24 -4.238,-0.72 -1.439,-0.719 -2.878,-1.199 -4.277,-1.199 -1.44,0 -2.878,0.48 -4.038,1.44 -0.96,0.959 -1.439,2.358 -1.439,3.797 0,1.2 0.48,2.359 1.2,3.078 0.919,1.2 2.598,1.92 4.517,2.399 1.879,0.44 4.037,0.68 6.156,0.68 2.598,0.24 5.477,0.48 8.075,0.72 2.598,0.239 4.757,0.479 6.396,1.438 2.639,1.44 6.196,2.599 9.275,2.599 1.199,0 2.118,-0.24 3.078,-0.48 1.439,-0.24 2.638,-0.68 3.558,-0.68 0.48,0 0.72,0 1.199,0.2 0.72,0.48 1.439,1.2 2.358,2.878 0.72,1.64 1.68,3.798 2.639,7.116 1.879,6.636 3.078,10.194 4.037,12.832 0.96,2.359 1.64,3.558 2.599,5.437 0.96,1.679 1.439,3.358 1.439,4.757 0,1.2 -0.24,2.159 -0.96,2.878 -0.48,0.92 -1.439,1.4 -3.078,1.64 -2.398,0.48 -5.956,2.158 -9.034,4.277 -1.68,1.2 -3.078,2.598 -4.038,4.037 -0.96,1.44 -1.679,3.079 -1.679,4.758 0,0.72 0.24,1.678 0.48,2.358 0.48,1.44 1.679,2.638 2.878,3.358 1.4,0.68 2.838,0.92 4.477,0.92 2.639,0 5.477,-0.72 8.076,-2.12 2.878,-1.438 5.236,-3.317 6.676,-5.956 1.639,-2.358 3.557,-4.517 5.196,-5.676 1.68,-1.44 3.358,-2.159 4.518,-2.159 1.439,0 2.638,0.72 3.558,2.159 0.48,0.48 0.72,1.16 0.72,1.879 0,0.96 -0.48,2.158 -1.16,3.318 -2.159,3.597 -7.156,8.075 -12.353,12.112 -8.555,6.436 -13.312,11.873 -19.948,24.945 -3.318,6.676 -5.956,11.393 -8.315,14.991 -2.638,3.798 -5.236,6.396 -8.554,8.995 -4.278,3.118 -8.076,9.994 -8.076,17.11 0,5.236 2.12,10.433 8.076,14.27 0.959,0.68 1.878,0.92 3.078,0.92 1.679,0 3.318,-0.92 4.997,-2.358 3.078,-2.599 5.916,-7.116 8.794,-12.353 4.278,-8.315 8.555,-18.509 12.793,-27.543 1.918,-4.757 4.037,-9.035 6.196,-12.593 2.119,-3.558 4.037,-6.436 5.916,-8.075 6.676,-5.956 9.994,-8.794 12.593,-11.393 2.878,-2.638 4.517,-5.237 7.595,-10.713 1.2,-2.12 2.638,-3.798 3.798,-4.718 1.439,-0.959 2.878,-1.199 4.277,-1.199 a 9.26,9.26 0 0 1 5.237,1.64 c 1.44,0.959 3.078,2.398 4.038,3.797 1.439,1.44 2.358,3.118 3.557,4.037 0.48,0.72 0.96,1.2 1.44,1.44 0.68,0.24 1.159,0.48 1.878,0.48 0.72,0 1.2,-0.24 1.92,-0.72 0.719,-0.48 1.398,-0.96 2.118,-1.88 1.439,-1.678 2.398,-2.877 3.078,-3.557 0.24,-0.48 0.72,-0.72 0.96,-0.72 0.24,-0.24 0.24,-0.24 0.48,-0.24 0,0 0.239,0 0.479,0.24 0.24,0.24 0.72,0.48 0.96,0.92 0.719,0.48 1.159,0.96 1.878,1.44 0.48,0.239 1.2,0.479 1.919,0.479 0.72,0 1.4,0 2.119,-0.48 0.72,-0.48 1.199,-1.2 1.919,-1.879 0.919,-0.96 1.639,-1.919 2.118,-2.398 0.72,-0.48 1.2,-0.72 1.44,-0.72 0,0 0.24,0 0.24,0.24 0.24,0 0.24,0.24 0.479,0.48 0.24,0.48 0.24,0.96 0.48,1.679 0.2,0.959 0.2,2.598 0.2,4.757 0.24,3.078 0.48,6.876 0.959,9.954 0.24,1.439 0.72,2.838 1.2,3.797 0.24,0.48 0.719,0.96 0.959,1.2 0.48,0.48 0.92,0.48 1.399,0.48 h 0.24 c 0.48,0 0.72,0 0.96,-0.24 0.719,-0.48 0.958,-1.2 1.198,-2.16 0.72,-1.398 0.92,-3.557 1.4,-5.916 0.48,-3.557 0.959,-7.595 2.158,-10.913 0.72,-1.44 1.2,-2.878 2.119,-4.038 0.96,-0.959 1.919,-1.678 3.318,-1.918 1.2,0 2.398,-0.24 3.598,-0.24 3.797,0 7.115,1.2 10.433,4.517 3.079,3.558 5.917,9.274 8.555,18.269 1.4,5.237 2.599,12.832 3.558,21.387 1.639,13.072 2.838,28.743 5.237,42.294 1.16,6.876 2.598,13.272 4.237,18.749 1.68,5.237 3.838,9.754 6.436,12.592 6.157,6.397 13.992,9.715 19.948,9.715 2.119,0 4.038,-0.44 5.437,-1.4 1.44,-1.199 2.159,-2.838 2.159,-4.997 0,-3.078 -1.68,-7.595 -5.957,-13.072 -8.315,-11.153 -12.112,-25.144 -14.47,-39.416 -2.6,-14.231 -3.799,-28.263 -6.877,-39.656 -2.638,-8.794 -5.237,-15.19 -7.355,-20.427 -2.159,-5.237 -3.798,-9.035 -3.798,-11.873 0,-1.68 0.68,-3.078 1.879,-4.278 2.398,-2.358 3.798,-4.757 4.997,-6.396 0.48,-0.96 1.2,-1.679 1.639,-1.919 0.72,-0.48 1.2,-0.72 2.159,-0.72 0.959,0 2.118,0.24 3.557,0.72 4.038,1.68 6.157,2.359 7.836,3.558 1.679,1.2 2.838,2.399 4.757,5.237 1.399,2.119 2.358,3.558 3.558,4.757 0.48,0.48 0.959,0.68 1.439,1.16 0.68,0.24 1.159,0.24 1.639,0.24 0.96,0 1.919,-0.48 2.598,-1.16 0.72,-0.72 0.96,-1.439 0.96,-2.398 0,-1.64 -0.96,-3.558 -2.359,-5.677 -1.44,-2.159 -3.558,-4.517 -5.717,-6.916 -2.118,-2.358 -4.277,-4.517 -6.156,-6.396 -1.679,-2.159 -2.598,-4.277 -2.598,-6.636 0,-0.96 0.2,-2.398 0.92,-3.838 1.678,-3.797 2.638,-8.075 4.277,-11.633 1.439,-3.797 3.557,-7.115 7.115,-8.754 1.68,-0.96 4.997,-1.68 9.035,-2.159 4.277,-0.72 9.274,-0.96 14.95,-0.96 10.714,0 23.507,1.2 35.38,4.758 12.352,3.797 21.147,6.196 27.543,8.315 6.436,2.358 10.473,4.517 13.072,7.595 1.919,2.159 5.237,4.278 9.034,5.717 3.798,1.639 8.315,2.838 12.113,2.838 2.119,0 4.037,-0.24 5.676,-1.2 1.68,-0.919 2.879,-2.358 3.598,-4.517 0.2,-1.159 0.2,-2.118 0.2,-3.078 0,-5.197 -3.078,-10.673 -7.355,-14.71 -4.518,-4.278 -10.434,-7.356 -16.15,-8.076 -5.917,-0.48 -10.914,-3.078 -15.911,-5.477 -4.957,-2.358 -9.954,-4.517 -14.95,-4.517 h -1.2 c -0.68,0.24 -1.4,0.24 -1.879,0.24 -4.757,0 -9.035,-1.16 -13.312,-2.359 -4.517,-1.199 -8.995,-2.398 -13.991,-2.398 h -2.639 c -6.396,0 -17.55,-0.44 -27.063,-1.64 -4.518,-0.719 -8.995,-1.438 -12.113,-2.598 -1.4,-0.48 -2.838,-1.199 -3.558,-1.679 -0.48,-0.24 -0.72,-0.72 -0.92,-0.959 -0.24,-0.24 -0.24,-0.48 -0.24,-0.96 0,-0.24 0,-0.44 0.24,-0.679 0.44,-0.72 1.4,-1.2 2.839,-1.919 2.358,-0.96 5.916,-1.679 9.954,-2.598 5.956,-1.2 12.592,-2.399 18.069,-4.038 2.598,-0.72 4.957,-1.679 6.636,-2.878 0.96,-0.44 1.679,-0.92 2.159,-1.639 0.44,-0.72 0.68,-1.44 0.68,-2.159 v -0.68 c -0.24,-0.719 -0.48,-1.199 -0.68,-1.678 -0.72,-0.72 -1.44,-1.2 -2.639,-1.44 -0.96,-0.24 -2.119,-0.24 -3.318,-0.24 -4.037,0 -9.034,0.96 -14.231,1.92 -5.237,0.959 -10.234,1.878 -14.032,1.878 -1.639,0 -3.078,-0.24 -4.037,-0.68 -0.48,-0.239 -0.72,-0.479 -0.96,-0.719 -0.24,-0.48 -0.44,-0.96 -0.44,-1.439 v -0.24 c 0,-0.96 0.44,-2.118 1.4,-3.078 1.679,-1.919 4.997,-3.798 8.794,-5.716 5.917,-2.599 13.312,-5.437 20.188,-8.755 6.636,-3.358 12.832,-6.916 15.67,-11.913 3.079,-4.477 5.238,-7.835 6.637,-10.194 1.439,-2.598 2.158,-4.037 2.158,-5.476 0,-0.48 -0.24,-1.16 -0.48,-1.64 -0.48,-0.48 -0.959,-0.959 -1.678,-1.439 -0.72,-0.72 -1.64,-0.959 -2.599,-0.959 -2.158,0 -4.757,1.2 -7.115,3.118 -2.16,1.879 -4.518,4.278 -6.197,6.876 -3.797,6.156 -11.633,10.913 -17.55,12.592 -2.877,0.96 -6.915,2.599 -10.713,4.038 -3.797,1.639 -7.115,3.318 -8.754,4.517 -1.2,0.68 -2.399,1.64 -4.038,2.359 -1.439,0.96 -3.118,1.439 -4.517,1.439 -0.96,0 -1.919,-0.24 -2.878,-0.72 -0.92,-0.48 -1.64,-1.439 -2.359,-3.078 -0.48,-0.96 -0.72,-1.919 -0.72,-3.118 -0.24,-3.798 2.639,-8.755 6.876,-13.991 4.518,-5.477 10.714,-11.394 17.35,-17.35 15.67,-13.752 25.904,-26.584 33.98,-36.098 3.317,-4.038 9.474,-10.194 14.95,-16.63 2.599,-3.318 5.197,-6.876 7.116,-9.954 1.679,-3.318 2.838,-6.436 2.838,-9.274 0,-2.359 -0.92,-4.518 -3.078,-6.157 -1.44,-1.199 -3.078,-1.679 -4.757,-1.679 -3.078,0 -6.396,1.68 -9.714,4.278 -4.757,4.037 -9.994,9.954 -14.272,15.67 -4.517,5.957 -8.315,11.633 -10.673,14.711 -3.558,4.997 -7.835,10.714 -12.113,15.91 -4.277,5.238 -8.794,9.995 -12.352,12.353 -1.88,1.2 -4.518,3.558 -7.356,6.676 -4.517,4.518 -9.754,10.434 -14.71,15.191 -2.4,2.359 -4.758,4.517 -6.677,5.916 -0.92,0.96 -1.879,1.44 -2.598,1.92 -0.96,0.24 -1.68,0.479 -2.119,0.479 -0.48,0 -0.72,0 -0.96,-0.24 -0.24,-0.48 -0.48,-0.96 -0.48,-1.679 0,-1.399 0.72,-3.798 1.88,-6.156 1.679,-3.798 4.277,-8.315 6.676,-12.592 0.96,-2.12 1.879,-4.038 2.598,-5.957 a 10.62,10.62 0 0 0 1.2,-4.957 c 0,-0.72 0,-1.2 -0.24,-1.919 -0.24,-0.48 -0.48,-0.96 -0.96,-1.199 -0.48,-0.44 -0.96,-0.68 -1.399,-0.68 -0.96,0 -1.919,0.68 -2.878,1.4 -1.64,1.439 -3.558,3.557 -5.437,6.196 -2.878,4.037 -5.956,9.034 -9.274,12.832 -1.68,2.119 -3.318,3.798 -4.997,4.957 -1.88,1.2 -3.558,1.919 -5.197,1.919 -0.72,0 -1.2,-0.24 -1.919,-0.48 -6.156,-1.919 -11.153,-3.318 -15.19,-6.636 -4.278,-3.358 -8.076,-8.794 -11.874,-18.549 -3.078,-7.835 -6.875,-15.19 -9.994,-22.306 -3.078,-6.916 -5.196,-13.552 -5.196,-19.228 0,-3.598 0.68,-6.676 2.358,-9.515 3.318,-4.997 7.596,-9.754 10.914,-14.271 3.318,-4.477 5.956,-8.995 5.956,-13.032 0,-2.159 -0.72,-4.277 -2.638,-6.196 l -0.44,0.24 -0.24,0.24 c 1.639,1.918 2.359,3.797 2.359,5.716 0,3.798 -2.36,7.835 -5.717,12.352 -3.318,4.478 -7.595,9.475 -10.913,14.472 -1.88,3.078 -2.599,6.396 -2.599,9.994 0,5.916 2.119,12.552 5.237,19.708 3.078,7.115 6.876,14.47 9.954,22.066 4.038,9.994 7.595,15.431 12.113,18.989 4.517,3.598 9.514,4.997 15.67,6.916 0.72,0.24 1.44,0.48 2.159,0.48 3.078,0 5.676,-1.92 8.515,-4.518 4.037,-3.798 7.595,-9.514 10.953,-14.271 1.639,-2.359 3.318,-4.518 4.717,-6.157 0.72,-0.72 1.2,-1.199 1.919,-1.679 0.48,-0.48 1.2,-0.72 1.679,-0.72 0.2,0 0.44,0.24 0.92,0.48 0.24,0.24 0.48,0.48 0.719,0.96 v 1.44 c 0,1.638 -0.72,3.797 -1.879,6.395 -1.679,4.038 -4.277,8.555 -6.436,12.593 -1.2,2.118 -2.119,4.037 -2.838,5.956 -0.72,1.879 -1.2,3.318 -1.2,4.717 0,0.96 0.24,1.68 0.72,2.399 0.48,0.48 1.2,0.48 1.679,0.48 0.92,0 2.119,-0.48 3.318,-1.2 2.119,-1.2 4.757,-3.558 7.595,-6.196 4.278,-4.038 8.795,-8.995 12.833,-13.512 2.118,-2.159 4.037,-4.277 5.916,-5.956 1.679,-1.64 3.078,-2.839 4.277,-3.558 3.798,-2.359 8.315,-7.116 12.593,-12.353 4.277,-5.197 8.555,-11.153 12.112,-15.91 3.318,-4.517 8.795,-13.072 15.191,-20.667 3.078,-3.558 6.396,-7.116 9.754,-9.715 3.318,-2.398 6.396,-4.037 8.995,-4.037 1.679,0 2.878,0.48 4.277,1.399 1.92,1.44 2.639,3.358 2.639,5.477 0,2.598 -0.96,5.476 -2.879,8.794 -2.598,4.757 -6.875,9.954 -10.913,14.472 -4.277,4.757 -8.315,9.034 -10.913,11.872 -8.075,9.515 -18.31,22.347 -33.98,36.099 -6.636,5.956 -12.792,11.872 -17.31,17.349 -4.516,5.477 -7.155,10.434 -7.155,14.711 0,1.2 0.24,2.638 0.72,3.598 0.72,1.639 1.679,2.598 2.878,3.318 0.92,0.72 2.119,0.92 3.318,0.92 1.639,0 3.558,-0.44 4.957,-1.4 1.679,-0.96 3.118,-1.919 4.037,-2.638 1.68,-1.16 4.997,-2.839 8.555,-4.238 3.798,-1.679 7.836,-3.118 10.714,-4.037 6.156,-1.919 13.991,-6.676 18.029,-13.072 1.679,-2.399 3.798,-4.757 6.156,-6.676 2.159,-1.64 4.517,-2.839 6.436,-2.839 0.72,0 1.44,0.24 2.119,0.72 l 1.2,1.2 c 0.479,0.479 0.479,0.679 0.479,1.159 0,0.959 -0.48,2.638 -1.919,4.997 -1.4,2.398 -3.558,5.476 -6.636,10.233 -2.119,3.558 -6.156,6.397 -10.913,8.995 -6.876,4.037 -15.91,7.395 -22.786,10.474 -3.598,1.639 -6.676,3.318 -9.035,4.997 -0.96,0.68 -1.919,1.639 -2.598,2.598 -0.72,0.96 -0.96,1.879 -0.96,2.838 v 0.24 c 0,0.72 0.24,1.44 0.48,1.919 0.68,0.68 1.399,1.16 2.358,1.4 1.2,0.479 2.359,0.479 3.558,0.479 4.038,0 9.035,-0.96 14.272,-1.879 4.957,-0.96 10.193,-1.919 13.991,-1.919 1.68,0 3.078,0.24 4.038,0.48 0.48,0.24 0.72,0.48 1.199,0.96 0.24,0.24 0.24,0.719 0.48,1.159 v 0.48 c 0,0.959 -0.48,1.678 -1.68,2.638 -1.678,1.399 -5.236,2.598 -9.034,3.797 -5.916,1.4 -13.512,2.839 -19.228,4.038 -3.078,0.72 -5.677,1.4 -7.596,2.358 -0.959,0.48 -1.679,0.72 -2.118,1.44 -0.72,0.48 -0.96,0.959 -0.96,1.639 0,0.48 0,0.959 0.48,1.439 0.48,0.96 1.4,1.439 2.598,2.158 1.92,0.92 4.997,1.88 8.555,2.359 10.194,2.119 25.385,2.838 33.22,2.838 h 2.64 c 4.757,0 9.274,1.2 13.751,2.399 4.278,1.16 8.795,2.358 13.552,2.358 0.48,0 1.2,0 1.879,-0.24 h 1.2 c 4.756,0 9.513,2.16 14.51,4.518 4.957,2.358 10.194,4.757 16.35,5.476 5.477,0.68 11.194,3.798 15.471,7.836 4.237,4.037 7.116,8.994 7.116,13.991 0,0.96 0,1.92 -0.24,2.879 -0.48,1.878 -1.68,3.078 -3.078,3.797 -1.44,0.92 -3.358,1.16 -5.237,1.16 -3.798,0 -7.835,-0.92 -11.633,-2.599 -3.798,-1.679 -7.116,-3.798 -8.795,-5.716 -2.838,-3.318 -6.876,-5.437 -13.551,-7.836 -6.397,-2.118 -15.191,-4.517 -27.544,-8.315 -11.873,-3.558 -24.665,-4.717 -35.618,-4.717 -5.677,0 -10.914,0.2 -14.951,0.92 -4.278,0.48 -7.596,1.439 -9.474,2.398 -3.838,1.64 -5.957,5.197 -7.636,8.995 -1.639,3.837 -2.598,8.075 -4.237,11.913 a 8.866,8.866 0 0 0 -0.96,4.037 c 0,2.838 1.16,4.957 2.839,7.116 1.918,2.118 4.037,4.277 6.156,6.636 2.159,2.398 4.277,4.517 5.716,6.636 1.44,2.158 2.12,3.837 2.12,5.237 0,0.72 -0.2,1.199 -0.68,1.679 -0.72,0.72 -1.44,0.959 -1.92,0.959 -0.479,0 -0.719,0 -1.199,-0.24 -1.159,-0.72 -2.598,-2.398 -4.717,-5.477 -1.919,-2.838 -3.118,-4.277 -4.997,-5.476 -1.679,-1.4 -4.037,-2.119 -7.835,-3.798 -1.679,-0.48 -2.838,-0.72 -4.037,-0.72 -0.96,0 -1.92,0.24 -2.599,0.72 -1.2,0.96 -1.919,2.159 -2.878,3.798 -0.92,1.439 -2.119,3.118 -4.038,4.757 -1.399,1.439 -2.118,3.078 -2.118,4.997 0,3.078 1.639,6.876 3.797,12.112 2.119,5.237 4.997,11.873 7.356,20.428 3.078,11.153 4.277,25.425 6.876,39.656 2.398,14.231 6.196,28.503 14.75,39.896 4.038,5.237 5.677,9.514 5.677,12.352 0,1.92 -0.72,3.318 -1.879,4.278 -1.199,0.72 -2.878,1.2 -4.757,1.2 -5.476,0 -13.312,-3.319 -19.228,-9.515 -3.318,-3.558 -5.956,-9.954 -7.835,-17.83 -3.118,-11.872 -4.757,-27.063 -6.436,-41.294 -1.4,-14.272 -2.839,-27.544 -4.957,-35.419 -2.639,-9.234 -5.717,-14.95 -9.035,-18.509 -3.078,-3.797 -6.876,-4.997 -10.913,-4.997 -1.2,0 -2.399,0.24 -3.598,0.24 -1.4,0.24 -2.359,0.96 -3.318,1.68 -1.64,1.398 -2.599,3.797 -3.318,6.155 -1.2,3.798 -1.64,8.315 -2.359,11.633 -0.24,1.68 -0.48,3.358 -0.96,4.278 -0.239,0.48 -0.479,0.96 -0.719,1.2 -0.24,0.239 -0.24,0.239 -0.48,0.239 h -0.24 c -0.24,0 -0.719,0 -0.919,-0.48 -0.72,-0.72 -1.199,-1.879 -1.439,-3.558 -0.72,-2.358 -0.96,-5.716 -0.96,-8.554 -0.24,-2.839 -0.24,-5.477 -0.479,-6.876 -0.24,-0.96 -0.48,-1.68 -0.72,-2.159 -0.2,-0.24 -0.44,-0.48 -0.68,-0.68 -0.239,0 -0.479,-0.24 -0.719,-0.24 -0.72,0 -1.439,0.44 -2.158,0.92 -0.48,0.72 -1.16,1.44 -2.119,2.399 -0.72,0.959 -1.2,1.399 -1.679,1.639 -0.72,0.48 -1.16,0.48 -1.639,0.48 -0.48,0 -0.96,0 -1.44,-0.48 -0.479,-0.24 -1.198,-0.68 -1.638,-1.16 -0.24,-0.48 -0.72,-0.72 -0.96,-0.96 -0.48,-0.239 -0.72,-0.479 -1.199,-0.479 -0.48,0 -0.72,0.24 -1.2,0.24 -0.919,0.72 -1.878,2.119 -4.037,4.517 -0.68,0.96 -1.399,1.4 -1.879,1.88 -0.48,0.479 -0.959,0.479 -1.439,0.479 -0.48,0 -0.96,0 -1.199,-0.24 -0.68,-0.48 -1.4,-1.16 -2.358,-2.119 -0.72,-0.96 -1.44,-2.158 -2.599,-3.318 -1.2,-1.439 -2.638,-2.878 -4.277,-4.037 -1.68,-0.96 -3.798,-1.68 -5.717,-1.68 -1.639,0 -3.078,0.48 -4.757,1.44 -1.4,0.92 -2.838,2.598 -4.237,4.957 -2.879,5.477 -4.758,7.875 -7.156,10.474 -2.599,2.598 -6.156,5.476 -12.792,11.393 -3.118,2.838 -6.197,8.075 -9.275,14.47 -4.997,9.755 -9.754,21.868 -14.71,31.622 -2.4,4.717 -4.758,8.994 -7.156,11.873 -1.16,1.639 -2.359,2.838 -3.558,3.557 -1.16,0.72 -2.359,1.2 -3.318,1.2 -0.96,0 -1.64,-0.24 -2.599,-0.72 -5.716,-3.798 -7.595,-8.795 -7.595,-13.552 0,-6.876 3.798,-13.551 7.595,-16.39 3.558,-2.598 6.157,-5.476 8.795,-9.274 2.598,-3.558 5.197,-8.315 8.515,-14.951 6.676,-13.072 11.193,-18.269 19.508,-24.705 3.558,-2.599 6.876,-5.437 9.474,-8.315 1.44,-1.4 2.599,-2.598 3.318,-4.038 0.72,-1.159 1.2,-2.598 1.2,-3.797 0,-0.96 -0.24,-1.88 -0.96,-2.599 -0.96,-1.439 -2.598,-2.398 -4.277,-2.398 -1.64,0 -3.318,0.96 -5.197,2.398 -1.68,1.44 -3.558,3.318 -5.237,5.917 -1.44,2.398 -3.798,4.277 -6.156,5.476 -2.639,1.44 -5.477,2.159 -7.876,2.159 -1.399,0 -2.838,-0.24 -4.037,-0.96 -1.16,-0.48 -1.879,-1.438 -2.359,-2.638 -0.48,-0.68 -0.48,-1.399 -0.48,-2.118 0,-1.44 0.48,-2.839 1.44,-4.278 1.399,-1.919 3.797,-3.798 6.156,-5.237 2.399,-1.159 4.757,-2.118 6.436,-2.598 1.64,-0.24 2.838,-0.96 3.558,-1.919 0.72,-0.92 1.16,-2.119 1.16,-3.558 0,-1.639 -0.68,-3.558 -1.4,-5.197 -1.2,-1.919 -1.919,-3.118 -2.598,-5.476 -0.96,-2.359 -2.159,-5.957 -4.038,-12.593 -1.439,-4.517 -2.638,-7.115 -3.598,-8.794 -0.68,-0.72 -1.159,-1.4 -1.879,-1.64 -0.48,-0.48 -1.199,-0.48 -1.678,-0.48 -1.16,0 -2.36,0.48 -3.798,0.72 -0.72,0.24 -1.64,0.44 -2.838,0.44 -3.079,0 -6.397,-1.16 -8.795,-2.358 -1.879,-1.2 -4.278,-1.44 -6.876,-1.68 -2.598,-0.2 -5.477,-0.44 -8.075,-0.679 -2.599,-0.24 -5.477,-0.48 -7.595,-1.44 -0.96,-0.239 -1.92,-0.719 -2.399,-1.438 -0.68,-0.68 -0.92,-1.4 -0.92,-2.359 0,-1.439 0.48,-2.358 1.16,-3.078 0.72,-0.72 1.919,-1.2 3.358,-1.2 1.16,0 2.358,0.48 3.797,0.96 1.16,0.72 2.839,0.96 4.518,0.96 2.598,0.2 5.676,0 8.515,0.2 2.638,0 5.236,0.48 6.915,1.439 1.64,0.96 3.558,1.679 5.437,1.679 1.919,0 3.558,-0.48 4.997,-1.92 1.44,-1.198 2.359,-3.317 2.838,-5.916 v -2.398 c 0,-1.64 -0.24,-3.318 -0.96,-4.757 -1.158,-1.88 -3.317,-3.558 -6.155,-4.957 -3.078,-1.44 -7.116,-2.639 -12.113,-3.798 -7.116,-1.679 -14.471,-5.717 -20.428,-10.713 -5.916,-4.758 -10.433,-10.194 -11.633,-14.472 -1.399,-4.517 -2.358,-6.876 -4.037,-9.274 -1.64,-2.119 -4.038,-4.038 -8.315,-7.116 -1.64,-1.199 -3.798,-3.797 -6.396,-7.115 -3.798,-5.237 -8.075,-12.593 -11.393,-19.709 -3.318,-7.395 -5.717,-14.75 -5.717,-20.427 0,-2.399 0.48,-4.517 1.44,-6.196 0.959,-1.64 2.358,-2.599 4.517,-3.318 1.159,-0.24 2.118,-0.24 3.078,-0.24 1.879,0 3.558,0.48 4.997,1.439 2.838,1.639 4.957,4.957 7.115,9.234 3.078,6.197 5.477,14.751 8.315,23.986 2.839,9.274 5.917,19.268 9.954,28.263 3.798,8.075 9.275,13.551 14.991,16.63 5.677,3.318 11.873,4.517 17.31,4.517 4.277,0 8.315,-0.72 11.393,-1.64 1.439,-0.479 2.878,-0.959 3.798,-1.678 1.199,-0.48 1.918,-1.2 2.638,-1.68 2.119,-2.358 4.037,-3.797 5.916,-5.196 1.92,-1.44 3.798,-2.878 5.717,-5.477 1.639,-2.598 2.598,-4.277 3.798,-5.916 1.159,-1.68 2.838,-3.358 6.396,-5.956 0.96,-0.72 1.679,-1.92 2.158,-3.079 0.24,-1.199 0.44,-2.638 0.44,-4.277 0,-3.318 -0.68,-7.116 -1.16,-10.913 -0.719,-4.038 -1.438,-7.876 -1.438,-10.954 0,-1.639 0.24,-3.078 0.72,-4.037 0.479,-0.96 1.199,-1.64 2.118,-1.88 0.24,-0.24 0.72,-0.24 0.96,-0.24 0.719,0.001 1.199,0.24 1.918,0.72 1.16,0.92 2.119,2.839 3.078,4.958 1.44,3.118 2.599,7.155 4.278,10.233 0.72,1.64 1.639,3.078 2.598,4.038 0.96,0.96 2.159,1.639 3.558,1.639 1.2,0 2.159,-0.44 3.558,-1.16 5.716,-3.557 7.835,-8.794 7.835,-14.27 -0.24,-8.556 -5.197,-18.03 -8.515,-23.267 -2.638,-4.277 -4.037,-9.754 -4.037,-14.95 0,-5.477 1.639,-10.474 4.717,-13.552 1.679,-1.44 3.118,-1.88 4.037,-1.88 0.48,0 0.96,0.2 1.2,0.44 0.72,0.24 1.199,0.96 1.439,1.92 0.24,0.959 0.48,1.878 0.48,2.838 0,0.959 0,1.918 -0.24,2.638 -0.48,1.4 -0.72,3.078 -0.72,4.477 0,2.879 0.72,5.477 2.119,7.876 2.159,2.598 4.037,7.115 4.037,12.792 0,0.96 0,1.919 -0.24,3.118 0,0.68 -0.24,1.879 -0.24,2.838 0,3.798 0.72,8.315 2.16,11.873 0.48,1.679 1.438,3.318 2.358,4.517 1.2,1.2 2.398,1.88 4.037,1.88 h 0.24 c 1.44,-0.24 2.399,-0.24 3.318,-0.68 0.72,-0.48 1.44,-0.96 1.92,-1.68 0.479,-1.199 0.959,-2.838 1.198,-4.996 0,-2.12 0.24,-5.237 0.24,-9.035 v -7.595 c -0.24,-5.197 -0.72,-8.555 -1.439,-11.393 -1.2,-4.278 -3.078,-6.876 -4.997,-11.633 -1.879,-4.518 -3.798,-11.154 -5.237,-23.506 -0.2,-1.919 -0.2,-4.038 -0.2,-5.717 0,-11.633 4.238,-19.708 9.475,-24.945 2.598,-2.598 5.476,-4.277 8.075,-5.436 2.598,-1.44 5.237,-1.92 6.876,-1.92 1.439,0 2.398,0.48 2.878,0.72 l 0.24,-0.24 z"
         fill="#343434"
         fill-rule="evenodd"
         id="path719" />
      <path
         d="m 225.903,170.537 c 10.434,10.433 12.073,32.02 -4.757,48.37 -16.87,16.39 -46.772,24.186 -57.205,13.752 -10.234,-10.634 -6.436,-36.018 10.433,-52.368 16.87,-16.39 41.295,-20.428 51.53,-9.754 z"
         fill="#6ebfe7"
         fill-rule="evenodd"
         id="path721" />
      <path
         d="m 211.872,166.42 c 8.275,10.913 6.636,31.58 -11.873,46.091 -18.549,14.272 -48.45,19.468 -57.006,8.795 -8.315,-10.914 -0.92,-34.939 17.83,-49.41 18.508,-14.272 42.494,-16.43 51.049,-5.477 z"
         fill="#ab72aa"
         fill-rule="evenodd"
         id="path723" />
      <path
         d="m 155.466,199.719 c -3.118,-3.358 -4.278,-12.153 -2.159,-20.268 -12.832,14.312 -17.11,32.86 -9.954,42.135 8.315,10.713 38.457,5.476 56.966,-8.795 9.754,-7.595 14.75,-16.67 16.15,-25.225 -3.798,18.55 -42.734,32.38 -61.003,12.153 z"
         fill="#9a609f"
         fill-rule="evenodd"
         id="path725" />
      <path
         d="m 211.992,166.38 -0.48,0.239 c 3.078,4.038 4.757,9.274 4.757,15.19 0,9.755 -4.757,21.148 -16.43,30.183 -11.633,9.034 -28.023,14.51 -40.376,14.51 -7.155,0 -13.072,-1.918 -15.95,-5.716 -2.359,-2.838 -3.318,-6.636 -3.318,-11.153 0,-11.673 7.595,-26.864 20.907,-37.337 10.474,-8.315 23.066,-12.353 33.06,-12.353 7.596,0 14.032,2.399 17.35,6.676 l 0.48,-0.24 0.24,-0.24 c -3.598,-4.757 -10.234,-7.155 -18.07,-7.155 -10.473,0 -23.066,4.277 -33.74,12.632 -13.551,10.434 -21.186,26.104 -21.186,38.017 0,4.757 0.959,8.795 3.597,11.873 3.079,4.037 9.275,5.916 16.63,5.916 12.593,0 29.223,-5.437 41.095,-14.71 11.673,-9.035 16.63,-20.668 16.63,-30.902 0,-6.156 -1.639,-11.633 -4.957,-15.67 l -0.24,0.24 z"
         fill="#343434"
         fill-rule="evenodd"
         id="path727" />
      <path
         d="m 196.201,165.94 c -1.639,0.24 -3.558,-0.72 -5.197,-0.72 -2.878,-0.24 -5.956,0 -8.555,0.96 -4.517,1.678 -7.635,6.635 -7.875,11.392 -0.24,7.596 10.474,9.235 16.19,8.075 4.997,-1.199 8.315,-4.277 9.275,-9.274 0.44,-1.879 0,-9.474 -2.878,-8.755 z"
         fill="#b581b3"
         fill-rule="evenodd"
         id="path729" />
      <path
         d="m 196.161,174.334 c 0,-1.839 1.6,-3.358 3.518,-3.358 1.959,0 3.518,1.52 3.518,3.358 0,1.88 -1.56,3.358 -3.518,3.358 -1.919,0 -3.518,-1.479 -3.518,-3.358 z m 5.517,11.673 c 0,-1.08 1,-1.999 2.158,-1.999 1.2,0 2.16,0.92 2.16,2 0,1.119 -0.96,1.998 -2.16,1.998 -1.159,0 -2.158,-0.88 -2.158,-1.999 z"
         fill="#ffffff"
         fill-rule="evenodd"
         id="path731" />
      <path
         d="m 218.867,117.249 c 2.12,6.396 5.477,0 9.754,0 -0.959,14.95 9.275,8.555 16.63,2.119 9.035,-7.836 15.191,-17.59 26.145,-23.026 9.714,-4.758 15.43,-11.393 23.505,-19.029 5.717,-5.437 12.593,-10.434 17.11,-17.11 2.878,-4.037 4.037,-10.673 9.034,-12.832 6.876,8.115 -56.325,61.563 -62.242,69.638 -5.716,7.356 -19.508,25.904 -8.315,33.02 8.995,5.956 18.509,-7.116 27.783,-5.716 -6.156,5.716 -20.907,8.794 -19.468,19.268 6.876,-0.96 12.593,4.997 19.948,2.598 -0.24,6.197 -14.511,4.757 -18.549,9.754 -2.838,3.318 -2.598,5.917 -0.72,9.714 2.64,5.477 6.197,4.038 10.954,5.237 7.356,1.68 14.711,3.078 22.107,4.518 7.355,1.679 20.427,-2.599 25.904,3.797 -7.156,4.278 -19.508,-1.879 -27.583,-2.358 -8.555,-0.48 -20.908,-2.159 -29.223,0.24 -9.034,2.358 -8.075,11.393 -11.153,19.228 -1.679,3.558 -4.277,6.436 -3.837,10.474 0.48,4.037 3.837,5.196 3.597,8.994 -2.878,0.24 -8.315,-0.92 -10.953,0 -4.997,1.919 -3.798,5.956 -6.156,9.274 -2.879,4.038 -5.477,2.16 -5.957,7.836 -0.24,2.638 1.44,8.555 2.359,10.953 5.956,16.87 13.552,33.26 12.632,51.529 -8.794,-4.278 -8.555,-21.827 -10.234,-30.142 -1.918,-7.835 -4.277,-18.309 -8.315,-25.185 -4.757,-7.835 -8.314,-3.358 -15.67,-6.915 -16.91,-8.555 8.315,-13.752 13.272,-18.03 8.555,-6.915 12.832,-21.147 19.988,-29.941 5.676,-7.156 9.274,-9.994 9.274,-19.509 0,-6.156 -2.159,-9.474 -3.598,-15.19 -1.878,-7.596 -0.24,-17.11 -5.436,-23.986 -4.518,-5.956 -20.228,-11.873 -20.228,-20.188 z"
         fill="#6ebfe7"
         fill-rule="evenodd"
         id="path733" />
      <path
         clip-path="url(#a-3)"
         d="m 171.856,13.672 c 0,0 11.873,-13.552 17.59,-6.876 5.916,6.396 -2.6,13.312 -7.596,19.468 0,0 12.352,-12.352 5.916,-18.269 -6.636,-6.196 -15.43,4.517 -15.91,5.677 z"
         fill="#ffffff"
         fill-rule="evenodd"
         id="path735" />
      <path
         d="m 152.827,60.283 c 0,-2.598 -1.679,-5.236 -4.557,-3.318 -2.398,1.64 -3.838,4.758 -4.317,7.596 -1.44,6.876 -0.24,13.991 4.077,19.668 -1.919,-2.838 -1.919,-6.636 -2.638,-9.714 -0.48,-1.879 -0.72,-3.558 -0.96,-5.437 -0.48,-2.638 0.48,-4.277 1.68,-6.676 0.719,-1.639 1.918,-3.318 3.357,-4.477 1.68,-0.96 2.639,-0.24 3.598,1.16 z m -22.826,44.094 c 0.2,-1.44 -2.158,-1.68 -2.878,-0.96 -1.16,0.72 -1.879,3.118 -1.879,4.518 -0.48,2.158 0,4.797 0.24,6.915 0.24,1.44 0.48,2.879 0.72,4.278 0.44,1.439 0.919,2.878 0.919,4.037 0,-4.517 -4.277,-17.11 2.398,-19.748 0.24,0.24 0.24,0.48 0.24,0.72 z m 34.339,7.715 c 0,1.2 4.558,1.2 5.757,0.96 1.439,-0.48 3.358,-1.88 4.077,-3.319 -0.72,2.599 -2.638,3.758 -5.276,3.758 -1.68,-0.2 -3.358,-0.92 -5.037,-1.16 z m 69.518,7.635 c 0,0 -1.399,6.117 7.316,3.798 0,0 -9.674,4.198 -7.316,-3.798 z m 17.789,17.99 c 0,0 -2.158,14.43 9.994,12.792 0,0 -13.831,3.997 -9.994,-12.792 z m -130.4,116.329 c 0,0 16.19,-8.315 12.392,7.356 0,0 5.916,-17.11 -12.392,-7.356 z m 64.121,11.194 c 0,0 6.356,-5.437 7.075,2.558 0,0 0.2,-9.674 -7.075,-2.559 z m 69.078,-19.869 c 0,0 -9.035,-4.757 -12.153,2.599 0,0 2.878,-9.994 12.153,-2.599 z m 17.189,-41.694 c 0,0 -11.033,3.597 -14.151,15.99 0,0 0.48,-14.072 14.151,-15.99 z m 31.501,-41.495 c 0,0 13.832,1.199 -2.878,7.835 0,0 13.872,-5.197 2.878,-7.835 z m 63.962,40.535 c 3.557,0.72 7.115,1.44 10.673,1.919 2.399,0.48 3.798,1.919 5.956,2.838 4.957,2.159 9.475,5.037 12.553,9.794 2.119,3.318 4.957,9.035 1.879,12.593 -3.078,3.558 -9.954,2.638 -13.752,1.199 -2.119,-0.72 -3.998,-1.44 -5.677,-2.878 2.839,1.679 7.116,1.199 10.434,1.679 1.879,0 4.038,0.72 5.677,-0.24 5.956,-2.359 1.679,-10.234 -0.92,-13.312 -1.439,-1.919 -3.318,-3.598 -5.237,-4.997 -2.118,-1.44 -4.517,-1.68 -6.875,-2.638 -1.88,-0.72 -3.558,-2.12 -5.437,-2.839 -2.599,-0.96 -6.636,-0.24 -8.315,-3.358 z M 246.21,371.655 c 3.559,6.876 7.796,12.072 15.152,15.15 1.639,0.72 5.916,1.88 7.795,1.68 2.838,-0.48 4.477,-4.518 3.798,-6.876 0.24,7.075 -8.755,5.676 -13.033,3.318 -2.598,-1.44 -5.436,-3.558 -7.795,-5.677 -3.078,-2.638 -3.997,-5.956 -6.636,-9.034 z M 92.024,315.05 c -0.72,2.398 -4.317,4.756 -5.996,6.195 -1.44,1.2 -2.599,2.599 -4.038,4.038 -2.878,3.078 -4.797,8.315 -5.276,12.832 -0.48,4.517 0.48,11.153 5.036,13.752 5.717,3.318 9.315,-7.596 10.954,-10.914 -1.879,2.359 -4.997,8.555 -8.115,9.035 -4.757,0.48 -5.717,-7.356 -5.717,-10.714 0,-4.477 0.72,-8.275 3.358,-11.872 a 37.82,37.82 0 0 1 5.717,-6.397 c 1.679,-1.439 4.317,-3.797 4.077,-5.956 z M 28.743,86.128 c -1.18,-3.098 -4.278,-3.578 -6.916,-3.578 -3.578,0 -5.477,1.44 -7.156,4.537 -1.919,3.798 -0.96,8.095 0.24,12.133 1.44,4.757 3.338,9.994 5.956,14.271 -2.378,-2.618 -2.378,-7.615 -3.577,-11.173 -0.48,-1.44 -1.18,-2.618 -1.42,-4.058 -0.72,-2.858 -0.959,-6.656 0,-9.514 1.18,-2.858 2.619,-4.517 5.717,-4.997 3.338,-0.48 4.057,0.72 6.936,2.139 z m 77.473,167.358 c -3.358,2.399 -6.956,2.639 -8.155,6.956 -1.2,4.318 0.72,6.236 4.797,7.675 -1.44,-1.199 -2.879,-1.439 -3.598,-3.357 -0.48,-1.68 0,-3.598 0.72,-5.037 1.199,-2.399 6.236,-4.318 6.715,-6.476 z M 308.973,48.61 c 4.557,-4.757 9.314,-10.473 14.311,-14.75 2.159,-1.68 4.797,-2.639 7.635,-2.16 2.399,0.48 4.798,3.119 4.997,5.717 -0.44,-2.118 -4.037,-4.277 -5.956,-4.517 -3.318,-0.72 -4.517,1.2 -6.436,3.318 -2.359,2.399 -5.477,4.277 -8.115,6.196 -1.879,1.68 -6.196,4.518 -6.676,6.636 z m 13.152,67.52 c -0.96,-3.598 -7.316,0 -8.955,1.399 -1.879,1.439 -2.358,3.797 -3.518,5.716 -0.96,1.88 -3.078,3.558 -4.037,5.437 3.797,-3.318 4.717,-8.515 8.714,-11.153 1.88,-1.16 5.437,-3.078 7.556,-1.88 0.68,0.24 0.24,0 0,-0.239 z"
         fill="#ffffff"
         fill-rule="evenodd"
         id="path737" />
      <path
         d="m 141.554,201.678 c -0.92,14.71 1.919,29.862 38.297,20.867 0,0 -48.29,16.07 -38.297,-20.867 z"
         fill="#732783"
         fill-rule="evenodd"
         id="path739" />
      <path
         d="m 190.604,122.206 c -12.352,0 -63.001,2.878 -80.15,48.29 -19.749,51.57 19.028,83.19 53.766,85.789 h 1.16 c 10.713,0 1.439,-11.873 -9.514,-28.983 -5.677,-0.48 -10.434,-2.398 -13.073,-5.716 -2.598,-3.078 -3.557,-7.116 -3.557,-11.873 0,-3.318 0.48,-7.156 1.918,-10.953 -9.993,-27.104 -6.436,-57.526 52.049,-76.554 z"
         fill="#afdff5"
         fill-rule="evenodd"
         id="path741" />
      <path
         d="m 141.594,200.159 c -0.92,3.358 -1.399,6.676 -1.399,9.514 0,4.517 0.96,8.315 3.318,11.193 2.399,3.078 6.436,4.997 11.873,5.437 -0.2,-0.2 -0.2,-0.44 -0.44,-0.68 -9.994,-0.96 -18.109,-6.676 -13.352,-24.025 -0.68,9.994 0.48,20.228 12.633,22.826 -4.518,-7.356 -9.275,-15.67 -12.633,-24.265 z"
         fill="#b38aba"
         fill-rule="evenodd"
         id="path743" />
      <path
         d="m 141.154,198.64 c -1.439,3.837 -1.918,7.635 -1.918,10.993 0,4.757 0.959,8.835 3.597,11.913 2.599,3.358 7.356,5.277 13.033,5.716 -0.2,-0.2 -0.2,-0.68 -0.44,-0.92 -5.477,-0.479 -9.514,-2.398 -11.913,-5.516 -2.359,-2.838 -3.318,-6.676 -3.318,-11.193 0,-2.878 0.48,-6.196 1.44,-9.554 -0.24,-0.48 -0.48,-0.96 -0.48,-1.44 z"
         fill="#5d5858"
         fill-rule="evenodd"
         id="path745" />
      <path
         d="m 141.594,201.678 c -4.757,17.35 3.318,23.066 13.232,23.985 -0.2,-0.2 -0.44,-0.68 -0.68,-1.16 -12.072,-2.637 -13.271,-12.831 -12.552,-22.825 z"
         fill="#945d9e"
         fill-rule="evenodd"
         id="path747" />
      <path
         d="m 136.837,202.717 c 0,-2.318 1.919,-4.237 4.277,-4.237 2.399,0 4.278,1.919 4.278,4.237 0,2.359 -1.879,4.238 -4.278,4.238 -2.358,0 -4.277,-1.88 -4.277,-4.238 z m -1.999,-14.591 c 0,-1.48 1.24,-2.678 2.759,-2.678 1.559,0 2.758,1.199 2.758,2.678 0,1.48 -1.2,2.678 -2.758,2.678 -1.52,0 -2.759,-1.199 -2.759,-2.678 z m 11.513,23.426 c 0,-0.48 0.44,-0.92 0.92,-0.92 0.52,0 0.92,0.44 0.92,0.92 0,0.52 -0.4,0.92 -0.92,0.92 a 0.93,0.93 0 0 1 -0.92,-0.92 z"
         fill="#ffffff"
         fill-rule="evenodd"
         id="path749" />
    </g>
  </g>
  <metadata
     id="metadata11303">
    <rdf:RDF>
      <cc:Work
         rdf:about="">
        <dc:date>été 2022 - V1 du TST</dc:date>
        <dc:creator>
          <cc:Agent>
            <dc:title>Paulhenry Saux</dc:title>
          </cc:Agent>
        </dc:creator>
        <dc:publisher>
          <cc:Agent>
            <dc:title>Paulhenry.eu</dc:title>
          </cc:Agent>
        </dc:publisher>
        <dc:language>FR</dc:language>
        <dc:contributor>
          <cc:Agent>
            <dc:title>dendritic-cell-2 icon by Servier https://smart.servier.com/ is licensed under CC-BY 3.0 Unported https://creativecommons.org/licenses/by/3.0/</dc:title>
          </cc:Agent>
        </dc:contributor>
        <cc:license
           rdf:resource="http://creativecommons.org/licenses/by-sa/4.0/" />
      </cc:Work>
      <cc:License
         rdf:about="http://creativecommons.org/licenses/by-sa/4.0/">
        <cc:permits
           rdf:resource="http://creativecommons.org/ns#Reproduction" />
        <cc:permits
           rdf:resource="http://creativecommons.org/ns#Distribution" />
        <cc:requires
           rdf:resource="http://creativecommons.org/ns#Notice" />
        <cc:requires
           rdf:resource="http://creativecommons.org/ns#Attribution" />
        <cc:permits
           rdf:resource="http://creativecommons.org/ns#DerivativeWorks" />
        <cc:requires
           rdf:resource="http://creativecommons.org/ns#ShareAlike" />
      </cc:License>
    </rdf:RDF>
  </metadata>
</svg>
