<?xml version="1.0" encoding="UTF-8" standalone="no"?>
<!-- Created with Inkscape (http://www.inkscape.org/) -->

<svg
   width="173.77449mm"
   height="147.27429mm"
   viewBox="0 0 173.77449 147.27429"
   version="1.1"
   id="svg13961"
   xml:space="preserve"
   inkscape:version="1.2 (1:1.2.1+202207142221+cd75a1ee6d)"
   sodipodi:docname="chap4-fig6.svg"
   xmlns:inkscape="http://www.inkscape.org/namespaces/inkscape"
   xmlns:sodipodi="http://sodipodi.sourceforge.net/DTD/sodipodi-0.dtd"
   xmlns="http://www.w3.org/2000/svg"
   xmlns:svg="http://www.w3.org/2000/svg"
   xmlns:rdf="http://www.w3.org/1999/02/22-rdf-syntax-ns#"
   xmlns:cc="http://creativecommons.org/ns#"
   xmlns:dc="http://purl.org/dc/elements/1.1/"><sodipodi:namedview
     id="namedview13963"
     pagecolor="#ffffff"
     bordercolor="#666666"
     borderopacity="1.0"
     inkscape:showpageshadow="2"
     inkscape:pageopacity="0.0"
     inkscape:pagecheckerboard="0"
     inkscape:deskcolor="#d1d1d1"
     inkscape:document-units="mm"
     showgrid="false"
     inkscape:zoom="0.36850798"
     inkscape:cx="316.13969"
     inkscape:cy="128.89816"
     inkscape:window-width="1366"
     inkscape:window-height="740"
     inkscape:window-x="0"
     inkscape:window-y="0"
     inkscape:window-maximized="1"
     inkscape:current-layer="layer1"><inkscape:grid
       type="xygrid"
       id="grid16886"
       originx="-8.4996304"
       originy="-99.762344" /></sodipodi:namedview><defs
     id="defs13958"><marker
       style="overflow:visible"
       id="TriangleStart"
       refX="0"
       refY="0"
       orient="auto-start-reverse"
       inkscape:stockid="TriangleStart"
       markerWidth="5.3244081"
       markerHeight="6.155385"
       viewBox="0 0 5.3244081 6.1553851"
       inkscape:isstock="true"
       inkscape:collect="always"
       preserveAspectRatio="xMidYMid"><path
         transform="scale(0.5)"
         style="fill:context-stroke;fill-rule:evenodd;stroke:context-stroke;stroke-width:1pt"
         d="M 5.77,0 -2.88,5 V -5 Z"
         id="path135" /></marker><inkscape:path-effect
       effect="spiro"
       id="path-effect15412"
       is_visible="true"
       lpeversion="1" /><inkscape:path-effect
       effect="simplify"
       id="path-effect15410"
       is_visible="true"
       lpeversion="1"
       steps="1"
       threshold="0.0151852"
       smooth_angles="360"
       helper_size="0"
       simplify_individual_paths="false"
       simplify_just_coalesce="false" /><inkscape:path-effect
       effect="spiro"
       id="path-effect15406"
       is_visible="true"
       lpeversion="1" /><inkscape:path-effect
       effect="simplify"
       id="path-effect15404"
       is_visible="true"
       lpeversion="1"
       steps="1"
       threshold="0.0151852"
       smooth_angles="360"
       helper_size="0"
       simplify_individual_paths="false"
       simplify_just_coalesce="false" /><inkscape:path-effect
       effect="spiro"
       id="path-effect15304"
       is_visible="true"
       lpeversion="1" /><inkscape:path-effect
       effect="simplify"
       id="path-effect15302"
       is_visible="true"
       lpeversion="1"
       steps="1"
       threshold="0.0151852"
       smooth_angles="360"
       helper_size="0"
       simplify_individual_paths="false"
       simplify_just_coalesce="false" /><inkscape:path-effect
       effect="spiro"
       id="path-effect15298"
       is_visible="true"
       lpeversion="1" /><inkscape:path-effect
       effect="simplify"
       id="path-effect15296"
       is_visible="true"
       lpeversion="1"
       steps="1"
       threshold="0.0151852"
       smooth_angles="360"
       helper_size="0"
       simplify_individual_paths="false"
       simplify_just_coalesce="false" /></defs><g
     inkscape:label="Calque 1"
     inkscape:groupmode="layer"
     id="layer1"
     transform="translate(-8.4996301,-99.76235)"><g
       id="g15598"
       transform="rotate(49.554881,5.803365,114.30036)"><path
         style="fill:#214478;stroke:none;stroke-width:0.264583px;stroke-linecap:butt;stroke-linejoin:miter;stroke-opacity:1"
         d="m 96.582348,89.634323 c 0.745296,0.356566 1.054876,1.091271 1.781557,1.258927 0.726682,0.167657 1.51728,0.03871 2.153025,-0.351157 0.63575,-0.389868 1.10916,-1.036059 1.28922,-1.759767 0.18005,-0.723707 0.0647,-1.516395 -0.31429,-2.158719 -0.39116,-0.663044 -1.02845,-1.140324 -1.671568,-1.563449 -0.643118,-0.423124 -1.318097,-0.817923 -1.844345,-1.379793 -0.330682,-0.353066 -0.60115,-0.78042 -0.682225,-1.25732 -0.04054,-0.23845 -0.03232,-0.486483 0.03628,-0.718423 0.0686,-0.231939 0.198779,-0.447111 0.380927,-0.606246 0.27073,-0.236525 0.641659,-0.336994 1.001095,-0.330271 0.359435,0.0067 0.710265,0.112538 1.043222,0.248104 0.332954,0.135566 0.652924,0.301458 0.985994,0.436739 0.33307,0.135281 0.68414,0.240505 1.04359,0.246306 0.35661,0.0058 0.71331,-0.08847 1.02446,-0.26279 0.31115,-0.174321 0.57653,-0.427697 0.7717,-0.726209 0.39035,-0.597023 0.48683,-1.364128 0.31325,-2.055993 -0.19052,-0.759383 -0.68053,-1.413923 -1.25244,-1.948594 -0.57192,-0.534672 -1.22978,-0.967045 -1.85686,-1.435804 -0.832902,-0.622621 -1.614972,-1.312301 -2.463769,-1.913075 -0.848798,-0.600775 -1.778587,-1.116824 -2.794703,-1.337949 -1.400654,-0.304808 -2.900355,-0.01825 -4.151052,0.682105 -1.250697,0.700355 -2.258021,1.795192 -2.959391,3.04532 -0.672673,1.198979 -1.077327,2.562691 -1.058065,3.937343 0.01926,1.374652 0.478653,2.756672 1.369784,3.803537 0.745585,0.875884 1.7486,1.483672 2.659729,2.185751 1.267406,0.976612 2.375863,2.153154 3.687547,3.069436 0.479069,0.334656 0.983418,0.633114 1.507331,0.891991 10e-7,0 -3e-6,0 -3e-6,0 z"
         id="path15300"
         sodipodi:nodetypes="ssssssssssssscsssssssssssssss" /><path
         style="fill:#2a7fff;stroke:none;stroke-width:0.264583px;stroke-linecap:butt;stroke-linejoin:miter;stroke-opacity:1"
         d="m 57.954441,69.1209 c -0.38768,-2.551155 -1.314502,-4.983027 -2.10793,-7.438462 -0.793428,-2.455435 -1.463976,-5.006811 -1.311564,-7.58275 0.191162,-3.230864 1.68477,-6.28731 3.744555,-8.783769 2.059785,-2.496459 4.665665,-4.484312 7.355144,-6.284791 3.208854,-2.148175 6.607627,-4.079103 10.299842,-5.210014 3.692214,-1.13091 7.714525,-1.42536 11.41282,-0.314496 2.844626,0.854446 5.395052,2.500989 7.678078,4.400927 2.283026,1.899938 4.330691,4.062485 6.469514,6.123409 2.51813,2.426417 5.20186,4.757074 7.06126,7.718682 0.9297,1.480804 1.64146,3.114211 1.94638,4.835879 0.30493,1.721668 0.18992,3.535604 -0.46809,5.155524 -0.63,1.550972 -1.73329,2.876508 -3.01044,3.958772 -1.27716,1.082263 -2.72918,1.937315 -4.19839,2.739708 -2.93843,1.604785 -6.093472,3.116407 -8.094435,5.800775 -1.42829,1.916105 -2.138281,4.279311 -2.511183,6.639908 -0.372902,2.360597 -0.434521,4.758943 -0.710222,7.132855 -0.275701,2.373913 -0.782333,4.767123 -1.964402,6.844185 -0.591035,1.038531 -1.349236,1.988225 -2.273516,2.745573 -0.924279,0.757348 -2.017605,1.318765 -3.186586,1.566457 -1.209362,0.256248 -2.477735,0.172884 -3.671014,-0.150077 -1.193279,-0.322961 -2.314684,-0.880145 -3.34817,-1.558471 -2.066971,-1.356653 -3.775608,-3.179759 -5.59471,-4.854198 -2.435276,-2.241613 -5.094841,-4.23802 -7.42969,-6.584054 -2.33485,-2.346034 -4.371493,-5.118544 -5.190337,-8.325551 -0.712023,-2.788638 -0.464514,-5.730584 -0.896914,-8.576021 z"
         id="path15294"
         inkscape:path-effect="#path-effect15296;#path-effect15298"
         inkscape:original-d="m 57.954441,69.1209 c -1.834142,-3.060142 -4.082854,-6.746174 -3.806103,-10.535068 0.346449,-4.743056 1.021313,-15.663008 6.197005,-18.083609 3.580403,-1.674503 8.559009,-1.67849 12.394023,-2.789013 6.656562,-1.927568 12.607184,-5.90987 19.800196,-3.418789 4.636373,1.605666 6.044192,7.243979 9.597808,10.34634 3.2706,2.855291 7.90114,7.536318 8.53978,12.055737 0.33613,2.378636 -0.42631,4.506907 -1.20918,6.657644 -3.00628,8.259043 -11.823526,4.051845 -14.736785,10.886152 C 91.854926,80.987798 89.83047,104.2782 77.198193,99.701296 73.384745,98.319615 72.698972,93.584711 70.245448,90.929387 67.418539,87.869971 60.49378,82.797533 59.136176,78.918635 58.036428,75.77647 59.946489,71.593807 57.954441,69.1209 Z" /><path
         style="fill:#0044aa;stroke:none;stroke-width:0.264583px;stroke-linecap:butt;stroke-linejoin:miter;stroke-opacity:1"
         d="m 76.338622,48.468637 c -1.791738,-0.18039 -3.632334,0.153439 -5.246596,0.951575 -1.484396,0.733927 -2.791439,1.879392 -3.561992,3.34511 -0.64465,1.226228 -0.895742,2.637566 -0.839523,4.02178 0.05622,1.384213 0.410161,2.744492 0.917629,4.033555 0.258893,0.657636 0.560785,1.304224 0.978928,1.87402 0.418143,0.569796 0.959917,1.062442 1.608715,1.342749 0.499896,0.215975 1.050291,0.30058 1.594804,0.293715 0.544513,-0.0069 1.084686,-0.103002 1.612601,-0.236598 1.055828,-0.267193 2.074635,-0.685167 3.149337,-0.861751 1.328048,-0.218211 2.688674,-0.05956 4.030449,-0.164274 0.670888,-0.05236 1.342227,-0.172436 1.963674,-0.430575 0.621447,-0.258139 1.192976,-0.660987 1.585298,-1.207718 0.478136,-0.666319 0.664189,-1.511247 0.636714,-2.330905 -0.02747,-0.819659 -0.255378,-1.620387 -0.542904,-2.388452 -0.566468,-1.5132 -1.370805,-2.9351 -2.356184,-4.215602 -0.942531,-1.224821 -2.063883,-2.331446 -3.397272,-3.112871 -0.669273,-0.392224 -1.387972,-0.70001 -2.133678,-0.913758 z"
         id="path15402"
         inkscape:path-effect="#path-effect15404;#path-effect15406"
         inkscape:original-d="m 76.338622,48.468637 c -2.004552,0.05966 -0.204724,-0.05844 -2.992554,0.44532 -7.971448,1.440421 -5.377338,3.682367 -5.664467,10.433208 -0.03941,0.926688 -0.464246,4.563669 1.229085,4.707668 1.759453,0.149619 3.301976,-0.494885 5.023207,-0.699791 2.886289,-0.343601 8.786871,0.430075 10.580801,-2.417448 0.791514,-1.256379 -0.52234,-4.817633 -0.853043,-6.350608 -0.26181,-1.213617 -2.254395,-2.305352 -2.99969,-3.107346 -3.066006,-1.109741 -1.981328,-4.825424 -4.323339,-3.011003 z" /></g><g
       id="g15604"><ellipse
         style="fill:#00d400;stroke:#aa0000;stroke-width:0;stroke-linecap:round;stroke-linejoin:round"
         id="path15466"
         cx="118.99579"
         cy="140.97322"
         rx="2.3272161"
         ry="4.134243"
         transform="rotate(29.514584)" /><path
         style="fill:#55ff55;stroke:none;stroke-width:0.264583px;stroke-linecap:butt;stroke-linejoin:miter;stroke-opacity:1"
         d="m 29.779068,180.45616 c 4.024416,2.69815 7.129411,6.5632 10.71681,9.81997 1.737449,1.57732 3.492438,3.16623 4.864147,5.0702 1.371709,1.90397 2.348769,4.17407 2.318969,6.52051 -0.02346,1.8472 -0.692588,3.68817 -1.899673,5.08661 -1.207082,1.39844 -2.949582,2.33471 -4.787665,2.51945 -2.092295,0.2103 -4.191444,-0.53481 -5.957921,-1.67563 -1.766477,-1.14083 -1.120932,-6.95148 -2.585933,-8.46002 -3.842495,-3.95671 -9.798797,-3.63897 -13.743252,-7.49404 -2.531218,-2.47386 -4.914462,-3.33823 -9.4510458,-5.81941 -1.9381972,-1.06006 0.4924306,-6.14539 0.3270497,-8.34834 -0.1653721,-2.20295 0.3781287,-4.49924 1.7380521,-6.2402 0.767946,-0.98311 1.795954,-1.7799 2.97821,-2.17807 1.182246,-0.39818 2.519727,-0.37745 3.648853,0.15296 0.930925,0.43731 1.684238,1.19453 2.254148,2.05073 0.569899,0.8562 0.969782,1.8129 1.335398,2.77424 0.365577,0.96135 0.701723,1.93677 1.158407,2.85834 0.456695,0.92157 0.746302,0.97044 1.537231,1.62793 0.715129,0.5945 1.660265,0.54873 2.576598,0.70739 0.91633,0.15866 2.199193,0.50951 2.971617,1.02738 z"
         id="path15408"
         sodipodi:nodetypes="ssssssssssssssssssss" /></g><g
       id="g15589"
       transform="translate(36.158761,24.864311)"><ellipse
         style="fill:#005500;stroke:none;stroke-width:0;stroke-linecap:round;stroke-linejoin:round"
         id="path15466-3"
         cx="-29.549177"
         cy="197.90169"
         rx="2.3272161"
         ry="4.134243"
         transform="rotate(-44.96468)" /><path
         style="fill:#00aa00;stroke:none;stroke-width:0.264583px;stroke-linecap:butt;stroke-linejoin:miter;stroke-opacity:1"
         d="m 121.95746,162.10095 c 3.67664,-3.15567 3.78221,-3.66272 6.1953,-7.48628 1.25242,-1.98447 3.21844,-4.47263 5.42003,-5.28484 2.20159,-0.81221 4.65036,-1.14619 6.90326,-0.4896 1.77356,0.51689 3.36835,1.65424 4.39279,3.19151 1.02445,1.53727 1.4603,3.46676 1.14646,5.28725 -0.35724,2.07227 -2.01003,3.56459 -3.20879,5.29228 -2.07715,2.99364 1.94229,5.08743 -1.0793,8.70709 -3.53449,4.2341 -8.34194,1.3913 -16.39353,2.26787 -4.64238,0.50541 -5.24292,8.3368 -10.4051,8.03886 -3.21528,-0.18557 -5.78952,-2.1189 -7.95638,-2.54903 -2.16687,-0.43014 -4.234,-1.56828 -5.54757,-3.34447 -0.74177,-1.00301 -1.23442,-2.20674 -1.30172,-3.45243 -0.0673,-1.24568 0.31057,-2.52884 1.12378,-3.47486 0.67046,-0.77996 1.60165,-1.30318 2.57912,-1.6232 0.97747,-0.32001 2.00629,-0.44931 3.03041,-0.54435 1.02412,-0.095 2.05391,-0.15788 3.06408,-0.35131 1.01017,-0.19344 1.13475,-0.45941 1.97991,-1.04556 0.76418,-0.52997 3.71273,-0.45731 4.11081,-1.29777 0.39807,-0.84046 5.24076,-1.23548 5.94644,-1.84116 z"
         id="path15408-9"
         sodipodi:nodetypes="ssssssssssssssssssss" /></g><ellipse
       style="fill:#d4aa00;stroke:none;stroke-width:0;stroke-linecap:round;stroke-linejoin:round"
       id="path15466-5"
       cx="15.135944"
       cy="229.62819"
       rx="2.3272161"
       ry="4.134243"
       transform="rotate(-17.926494)" /><path
       style="fill:#ffdd55;stroke:none;stroke-width:0.264583px;stroke-linecap:butt;stroke-linejoin:miter;stroke-opacity:1"
       d="m 87.993353,216.65897 c 4.305963,-2.22141 5.033843,-1.54306 8.921321,-3.85177 2.017644,-1.19824 3.713256,-2.58582 6.043446,-2.30845 2.33018,0.27737 2.83567,3.47793 5.81682,4.25129 1.78816,0.46388 5.96046,-1.5655 7.38738,2.34842 0.63275,1.7356 -3.45965,4.75867 -4.56676,6.23752 -1.26021,1.68338 -3.20442,3.22254 -3.03367,5.31843 0.35177,4.31755 -2.81285,3.35108 -7.14964,5.20156 -5.072935,2.16461 -2.729156,0.12399 -10.299212,-2.75537 -4.364737,-1.66018 -10.060532,-1.31958 -18.255701,-0.24662 -3.193375,0.4181 -4.193529,-4.51914 -5.928029,-5.88728 -1.734504,-1.36815 -3.058324,-3.32158 -3.420898,-5.50077 -0.204745,-1.23058 -0.09635,-2.5267 0.409973,-3.66683 0.506322,-1.14012 1.426197,-2.11127 2.580572,-2.58422 0.951739,-0.38993 2.019001,-0.43266 3.035113,-0.27336 1.016108,0.15931 1.991259,0.51183 2.94665,0.89272 4.848779,0.78972 10.885661,5.21176 15.512635,2.82473 z"
       id="path15408-9-4"
       sodipodi:nodetypes="ssssssssssssssscs" /><path
       style="fill:none;stroke:#c8beb7;stroke-width:0.565;stroke-linecap:butt;stroke-linejoin:miter;stroke-dasharray:none;stroke-opacity:1;marker-start:url(#TriangleStart);marker-end:url(#TriangleStart)"
       d="m 43.288592,179.16718 48.555628,-4.58505 47.36934,7.05149"
       id="path15660"
       sodipodi:nodetypes="ccc" /><path
       style="fill:none;stroke:#c8beb7;stroke-width:0.565;stroke-linecap:butt;stroke-linejoin:miter;stroke-dasharray:none;stroke-opacity:1;marker-end:url(#TriangleStart)"
       d="m 91.864881,174.72139 -4.444525,29.2063"
       id="path15662"
       sodipodi:nodetypes="cc" /><text
       xml:space="preserve"
       style="font-style:normal;font-weight:normal;font-size:8.81944px;line-height:1.25;font-family:sans-serif;letter-spacing:0px;word-spacing:0px;fill:#000000;fill-opacity:1;stroke:none;stroke-width:0.264583"
       x="119.07457"
       y="169.33333"
       id="text16775"><tspan
         sodipodi:role="line"
         id="tspan16773"
         style="font-style:normal;font-variant:normal;font-weight:normal;font-stretch:normal;font-size:8.81944px;font-family:arial;-inkscape-font-specification:arial;stroke-width:0.264583"
         x="119.07457"
         y="169.33333">PRR</tspan></text><text
       xml:space="preserve"
       style="font-style:normal;font-weight:normal;font-size:8.81944px;line-height:1.25;font-family:sans-serif;letter-spacing:0px;word-spacing:0px;fill:#000000;fill-opacity:1;stroke:none;stroke-width:0.264583"
       x="26.684523"
       y="156.85393"
       id="text16775-1"><tspan
         sodipodi:role="line"
         id="tspan16773-7"
         style="font-style:normal;font-variant:normal;font-weight:normal;font-stretch:normal;font-size:8.81944px;font-family:arial;-inkscape-font-specification:arial;stroke-width:0.264583"
         x="26.684523"
         y="156.85393">PAMP</tspan></text><path
       style="fill:none;stroke:#000000;stroke-width:0.264583px;stroke-linecap:butt;stroke-linejoin:miter;stroke-opacity:1;marker-end:url(#TriangleStart)"
       d="m 35.71875,160.07292 v 15.875"
       id="path16866"
       sodipodi:nodetypes="cc" /><path
       style="fill:none;stroke:#000000;stroke-width:0.264583px;stroke-linecap:butt;stroke-linejoin:miter;stroke-opacity:1;marker-end:url(#TriangleStart)"
       d="m 116.41667,166.6875 -15.875,-2.64584"
       id="path16890" /><text
       xml:space="preserve"
       style="font-style:normal;font-weight:normal;font-size:8.81944px;line-height:1.25;font-family:sans-serif;letter-spacing:0px;word-spacing:0px;fill:#000000;fill-opacity:1;stroke:none;stroke-width:0.264583"
       x="60.714931"
       y="106.18314"
       id="text16775-4"><tspan
         sodipodi:role="line"
         id="tspan16773-3"
         style="font-style:normal;font-variant:normal;font-weight:normal;font-stretch:normal;font-size:8.81944px;font-family:arial;-inkscape-font-specification:arial;stroke-width:0.264583"
         x="60.714931"
         y="106.18314">Cellule sentinelle</tspan></text><text
       xml:space="preserve"
       style="font-style:normal;font-weight:normal;font-size:8.81944px;line-height:1.25;font-family:sans-serif;letter-spacing:0px;word-spacing:0px;fill:#000000;fill-opacity:1;stroke:none;stroke-width:0.264583"
       x="73.609558"
       y="246.93329"
       id="text16775-14"><tspan
         sodipodi:role="line"
         id="tspan16773-6"
         style="font-style:normal;font-variant:normal;font-weight:normal;font-stretch:normal;font-size:8.81944px;font-family:arial;-inkscape-font-specification:arial;stroke-width:0.264583"
         x="73.609558"
         y="246.93329">Bactéries</tspan></text></g><metadata
     id="metadata17319"><rdf:RDF><cc:Work
         rdf:about=""><dc:date>été 2022 - V1 du TST</dc:date><dc:creator><cc:Agent><dc:title>Paulhenry Saux</dc:title></cc:Agent></dc:creator><dc:publisher><cc:Agent><dc:title>Paulhenry.eu</dc:title></cc:Agent></dc:publisher><dc:language>FR</dc:language><cc:license
           rdf:resource="http://creativecommons.org/licenses/by-sa/4.0/" /></cc:Work><cc:License
         rdf:about="http://creativecommons.org/licenses/by-sa/4.0/"><cc:permits
           rdf:resource="http://creativecommons.org/ns#Reproduction" /><cc:permits
           rdf:resource="http://creativecommons.org/ns#Distribution" /><cc:requires
           rdf:resource="http://creativecommons.org/ns#Notice" /><cc:requires
           rdf:resource="http://creativecommons.org/ns#Attribution" /><cc:permits
           rdf:resource="http://creativecommons.org/ns#DerivativeWorks" /><cc:requires
           rdf:resource="http://creativecommons.org/ns#ShareAlike" /></cc:License></rdf:RDF></metadata></svg>
