<?xml version="1.0" encoding="UTF-8" standalone="no"?>
<!-- Created with Inkscape (http://www.inkscape.org/) -->

<svg
   width="30.410814mm"
   height="32.002159mm"
   viewBox="0 0 30.410814 32.002159"
   version="1.1"
   id="svg5"
   xml:space="preserve"
   inkscape:version="1.2 (1:1.2.1+202207142221+cd75a1ee6d)"
   sodipodi:docname="chap4-fig4.svg"
   xmlns:inkscape="http://www.inkscape.org/namespaces/inkscape"
   xmlns:sodipodi="http://sodipodi.sourceforge.net/DTD/sodipodi-0.dtd"
   xmlns="http://www.w3.org/2000/svg"
   xmlns:svg="http://www.w3.org/2000/svg"
   xmlns:rdf="http://www.w3.org/1999/02/22-rdf-syntax-ns#"
   xmlns:cc="http://creativecommons.org/ns#"
   xmlns:dc="http://purl.org/dc/elements/1.1/"><sodipodi:namedview
     id="namedview7"
     pagecolor="#ffffff"
     bordercolor="#666666"
     borderopacity="1.0"
     inkscape:showpageshadow="2"
     inkscape:pageopacity="0.0"
     inkscape:pagecheckerboard="0"
     inkscape:deskcolor="#d1d1d1"
     inkscape:document-units="mm"
     showgrid="false"
     inkscape:zoom="0.52114899"
     inkscape:cx="284.9473"
     inkscape:cy="-100.73895"
     inkscape:window-width="1366"
     inkscape:window-height="740"
     inkscape:window-x="0"
     inkscape:window-y="0"
     inkscape:window-maximized="1"
     inkscape:current-layer="layer1" /><defs
     id="defs2"><clipPath
       clipPathUnits="userSpaceOnUse"
       id="a"><path
         d="M 0.16,0.48 H 149.91 V 162.382 H 0.16 Z"
         id="path672" /></clipPath><clipPath
       clipPathUnits="userSpaceOnUse"
       id="a-3"><path
         d="M 11.353,1.999 H 401.437 V 390.883 H 11.353 Z"
         id="path712" /></clipPath><clipPath
       clipPathUnits="userSpaceOnUse"
       id="a-6"><path
         d="M -0.16,-0.24 H 116.41 V 187.486 H -0.16 Z"
         id="path776" /></clipPath><clipPath
       clipPathUnits="userSpaceOnUse"
       id="a-7"><path
         d="m 2.718,-0.08 h 116.41 V 122.166 H 2.718 Z"
         id="path816" /></clipPath><clipPath
       clipPathUnits="userSpaceOnUse"
       id="a-7-5"><path
         d="m 2.718,-0.08 h 116.41 V 122.166 H 2.718 Z"
         id="path816-3" /></clipPath><clipPath
       clipPathUnits="userSpaceOnUse"
       id="clipPath1718"><path
         d="m 2.718,-0.08 h 116.41 V 122.166 H 2.718 Z"
         id="path1716" /></clipPath><clipPath
       clipPathUnits="userSpaceOnUse"
       id="a-7-9"><path
         d="m 2.718,-0.08 h 116.41 V 122.166 H 2.718 Z"
         id="path816-7" /></clipPath><clipPath
       clipPathUnits="userSpaceOnUse"
       id="clipPath1718-5"><path
         d="m 2.718,-0.08 h 116.41 V 122.166 H 2.718 Z"
         id="path1716-3" /></clipPath></defs><g
     inkscape:label="Calque 1"
     inkscape:groupmode="layer"
     id="layer1"
     transform="translate(-65.388448,-123.46758)"><g
       id="g10862"><path
         clip-path="url(#a-7-5)"
         d="M 13.512,28.623 C 10.394,36.698 7.276,37.177 5.916,50.969 4.157,65.24 1,66.64 9.474,84.27 c 8.915,17.59 8.475,16.15 20.508,25.664 11.593,9.035 25.424,12.353 38.776,10.474 13.832,-2.399 15.63,-1.919 27.664,-10.474 11.593,-9.034 16.47,-9.994 17.829,-23.785 0.88,-14.272 5.317,-21.867 2.678,-38.537 -2.678,-16.63 -4.037,-21.387 -14.71,-30.901 C 89.705,6.236 85.708,1 58.963,1 32.66,1 16.63,20.507 13.512,28.622 Z"
         fill="#f8e1e2"
         fill-rule="evenodd"
         id="path821-6"
         transform="matrix(0.26458333,0,0,0.26458333,64.495052,123.32986)" /><path
         d="m 94.734281,136.18067 c -0.592138,-4.27302 -0.951706,-5.40464 -3.659188,-7.79515 -1.057804,-0.88847 -1.883039,-1.63936 -2.70801,-2.1471 0.232833,0.127 0.465667,0.381 0.698235,0.508 2.718065,2.39025 3.067315,3.52187 3.659452,7.80548 0.708819,4.27302 -4.833672,5.02417 -5.182658,8.54604 -0.243417,3.5224 2.348177,3.5224 -0.592137,5.79623 -3.067315,2.13677 -2.834746,3.26839 -6.251046,3.89255 -3.4163,0.50747 -6.843183,-0.37042 -9.783762,-2.64425 l -0.127,-0.11642 c 0.476249,0.49716 1.184804,1.00489 2.126191,1.75578 3.067315,2.26351 6.367198,3.1414 9.783498,2.64424 3.426883,-0.63473 3.892285,-0.508 6.843448,-2.64424 3.067314,-2.26351 4.241271,-2.51725 4.601104,-6.03938 0.232569,-3.52213 1.290108,-5.40491 0.592137,-9.56151 z"
         fill="#f3c9cb"
         fill-rule="evenodd"
         id="path827-1"
         style="stroke-width:0.264583" /><path
         d="m 90.567093,139.20592 c 0.592402,0.38073 0.941388,1.76636 0.708819,2.51724 -0.232833,0.62389 -0.941387,0.75089 -1.184804,1.37504 0.951971,1.13163 2.125927,2.13651 2.009775,3.76529 -0.116417,2.26351 -2.601913,2.63366 -4.135438,3.25781 1.660261,-1.87219 -0.232833,-3.25781 -0.825235,-5.01359 -0.359569,-1.25862 0.824971,-2.88739 1.417373,-3.89228 z"
         fill="#eba8ad"
         fill-rule="evenodd"
         id="path829-2"
         style="stroke-width:0.264583" /><path
         d="m 82.697856,154.39432 c 3.426883,-0.62415 3.892285,-0.49715 6.843448,-2.63366 3.067314,-2.26351 4.241271,-2.51724 4.601104,-6.03938 0.232569,-3.52213 1.290108,-5.40491 0.592137,-9.56151 -0.243416,2.14709 0,3.64887 -0.95197,6.03938 -0.941388,2.39025 -0.116417,5.28849 -1.882775,6.66353 -1.649942,1.51236 -2.950898,2.02009 -4.241271,3.26813 -1.18454,1.25863 -3.183731,2.1471 -4.960673,2.26351 z"
         fill="#eba8ad"
         fill-rule="evenodd"
         id="path831-7"
         style="stroke-width:0.264583" /><path
         d="m 69.476892,146.62034 c -2.115609,-4.40002 -1.290373,-4.78102 -0.941388,-8.30289 0.475985,-3.3954 1.05754,-5.27791 1.766358,-7.28769 0.824971,-2.02009 4.357688,-5.91238 11.073606,-5.91238 2.242344,0 4.484688,0.254 5.658644,0.62389 1.290373,0.254 1.174221,0.508 0.232833,0 -1.533789,-0.87789 -3.532716,-1.25862 -7.298002,-1.25862 -6.600031,0 -10.492316,4.78102 -11.317551,6.79053 -0.824971,2.02009 -1.533525,2.13651 -1.882511,5.65864 -0.359833,3.39514 -1.184539,3.90261 0.941388,8.17589 1.998927,4.14602 1.998927,4.01902 4.59052,6.0288 -0.941652,-0.87789 -1.407054,-1.75578 -2.824162,-4.51644 z"
         fill="#ffffff"
         fill-rule="evenodd"
         id="path833-0"
         style="stroke-width:0.264583" /><path
         d="m 75.632423,136.29709 c 2.591593,-1.38562 3.998118,-5.65864 1.057804,-7.41442 -1.533525,-0.88847 -3.299883,-0.50774 -4.241271,1.25862 -1.290373,2.13678 -0.232833,3.1414 0.824971,4.77044 0.824971,1.38536 -0.232833,3.26813 -1.290373,4.65376 -0.592402,0.76147 -1.53379,1.00488 -1.766358,2.13651 -0.127,1.25862 0.824971,3.15198 1.522941,4.1566 0.941388,1.50204 2.475177,3.51155 4.357688,3.2684 1.766358,-0.254 1.882775,-1.76636 2.707746,-3.02498 0.941387,-1.37504 2.475177,-0.87789 2.707745,0.88847 0.232834,1.50177 -0.82497,2.50666 0.475986,4.14602 1.290373,1.62904 3.4163,1.25862 5.182658,0.62415 2.940315,-1.25862 6.229879,-5.65864 2.464329,-7.66842 -0.708554,-0.25373 -1.173956,-0.37015 -0.941123,-1.00462 0.708554,-1.38562 2.358496,-1.25862 2.242079,-3.1414 -0.116416,-1.88277 -2.707481,-4.14602 -4.357687,-3.1414 -4.008437,2.76067 3.300148,5.78565 -0.359569,8.04916 -1.173956,0.24342 -1.057539,-1.51262 -1.998927,-1.38562 -0.581819,0.127 -1.290373,1.38562 -1.766358,1.50177 -0.824971,0.254 -1.173956,-0.62389 -1.882775,-0.87789 -0.232833,0 -0.708554,-0.49688 -0.348986,-1.13162 0.465403,-1.00489 1.057805,-1.88277 0.34925,-3.1414 -1.17422,-1.75577 -2.475177,-0.75089 -3.881966,-0.38073 -0.941388,0.254 -1.998927,0.381 -2.242344,-0.87789 -0.232833,-1.00489 0.359833,-1.88278 1.18454,-2.26351 z"
         fill="#ab538b"
         fill-rule="evenodd"
         id="path835-9"
         style="stroke-width:0.264583" /><path
         d="m 73.136344,138.57118 c -0.232834,0.76147 -0.824971,1.64994 -1.649942,2.1471 -0.824971,0.63473 -1.18454,1.76635 0.592402,4.91834 -0.47625,-0.75089 -0.941388,-3.15199 -0.47625,-4.15661 0.47625,-1.01547 1.53379,-2.27409 1.53379,-2.90883 z m 2.45401,1.52321 c 1.068123,0.127 2.00951,-0.39158 2.834481,-0.64532 0.824971,-0.39132 1.766358,0.39158 1.882775,0.89905 -0.34925,-0.50773 -1.290373,-0.64531 -2.35876,-0.254 -0.697971,0.254 -1.766359,0.254 -2.358496,0 z m 13.009562,-2.79241 c -0.941387,-0.254 -1.533789,-0.254 -2.242343,0.50773 -0.719138,0.88847 -0.475986,1.90368 0.708554,3.55389 -0.592138,-0.76174 -0.951971,-2.66542 -0.243417,-3.30015 0.835819,-0.63447 1.184804,-0.76147 1.777206,-0.76147 z m -5.817393,7.94332 c 0.719137,-0.254 1.07897,-1.38563 1.544373,-1.25863 0.359568,0.127 0.719137,1.51236 1.544108,1.51236 0.719137,-0.127 1.427956,-1.00462 1.544108,-1.25862 -0.232569,1.13189 -0.941123,1.88277 -1.776677,1.76636 -0.835819,-0.127 -1.068387,-1.51236 -1.427956,-1.51236 -0.34925,0 -0.824971,0.75089 -1.427956,0.75089 z m -6.8326,-16.23563 c -1.290373,-0.381 -2.950898,0.254 -3.5433,1.90394 -0.475986,1.51236 0.708554,2.90857 1.068123,3.53272 -0.475721,-1.00489 -0.824971,-3.53272 0.465666,-4.42119 z"
         fill="#c596b8"
         fill-rule="evenodd"
         id="path837-3"
         style="stroke-width:0.264583" /><path
         d="m 77.377614,129.89814 c 0.47625,0.88847 0.941388,3.1414 -0.465137,4.65402 -1.300956,1.50178 -2.358761,1.24778 -2.718329,2.87682 0,-1.75578 1.649941,-2.63367 2.242343,-3.88171 0.708555,-1.13188 1.18454,-2.88766 0.941123,-3.64913 z m -4.600839,16.74336 c 0.592402,1.37478 2.950898,2.86623 4.008437,1.6182 1.068388,-1.24804 1.301221,-2.99324 2.485761,-3.24724 1.057804,-0.254 1.523206,0.127 1.523206,0.127 -1.650206,-1.13162 -2.115344,-1.13162 -3.056731,0.127 -0.951971,1.12104 -2.951163,3.74412 -4.960673,1.37504 z m 9.074943,1.73461 c -0.359568,1.38536 0.592403,4.79134 4.95009,3.02498 4.357687,-1.89336 5.055658,-5.80681 2.823898,-6.56828 0.708819,0.63447 0.465667,3.4163 -2.125927,4.80192 -2.591329,1.51236 -5.764213,1.51236 -5.648061,-1.25862 z m 7.425002,-10.46056 c 0.951971,0.63447 1.776942,2.15767 1.068388,2.91914 -0.592402,0.63447 -2.020358,1.52294 -2.020358,2.15768 0,-1.39621 1.427956,-1.90394 1.544373,-2.91915 0.127,-0.88847 -0.116417,-1.77694 -0.592403,-2.15767 z"
         fill="#94056c"
         fill-rule="evenodd"
         id="path839-6"
         style="stroke-width:0.264583" /><path
         clip-path="url(#a-7-5)"
         d="M 13.552,28.663 C 10.434,36.738 7.316,37.217 5.956,51.009 4.197,65.28 1.04,66.68 9.514,84.31 c 8.915,17.59 8.475,16.15 20.508,25.664 11.593,9.035 25.424,12.353 38.776,10.474 13.832,-2.399 15.63,-1.919 27.664,-10.474 11.593,-9.034 16.47,-9.994 17.829,-23.785 0.88,-14.272 5.317,-21.867 2.678,-38.537 C 114.291,31.022 112.932,26.265 102.258,16.751 89.746,6.276 85.748,1.04 59.004,1.04 32.7,1.04 16.67,20.547 13.552,28.662"
         fill="none"
         stroke="#333333"
         stroke-width="1.039"
         stroke-linecap="round"
         stroke-linejoin="round"
         id="path841-0"
         transform="matrix(0.26458333,0,0,0.26458333,64.495052,123.32986)" /><path
         d="m 75.643006,136.30767 c 2.591594,-1.38562 3.998119,-5.65864 1.057804,-7.41442 -1.533525,-0.88847 -3.299883,-0.50773 -4.241271,1.25863 -1.290373,2.13651 -0.232833,3.14139 0.824971,4.77043 0.824971,1.38536 -0.232833,3.26814 -1.290373,4.65376 -0.592402,0.76147 -1.533789,1.00462 -1.766358,2.13651 -0.127,1.25862 0.824971,3.15198 1.522942,4.1566 0.941387,1.50204 2.475177,3.51155 4.357687,3.2684 1.766358,-0.254 1.882775,-1.76636 2.707746,-3.02498 0.941387,-1.37504 2.475177,-0.87789 2.707746,0.88847 0.232833,1.50178 -0.824971,2.50666 0.475985,4.14602 1.290373,1.62904 3.4163,1.25863 5.182658,0.62416 2.940315,-1.25863 6.229879,-5.65865 2.46433,-7.66842 -0.708555,-0.25374 -1.173957,-0.37016 -0.941123,-1.00463 0.708554,-1.38562 2.358495,-1.25862 2.242079,-3.14139 -0.116417,-1.88278 -2.707481,-4.14603 -4.357688,-3.1414 -4.008437,2.76066 3.300148,5.78564 -0.359568,8.04915 -1.173957,0.24342 -1.05754,-1.51262 -1.998927,-1.38562 -0.581819,0.127 -1.290373,1.38562 -1.766359,1.50177 -0.824971,0.254 -1.173956,-0.62388 -1.882775,-0.87788 -0.232833,0 -0.708554,-0.49689 -0.34925,-1.13163 0.465667,-1.00488 1.058069,-1.88277 0.34925,-3.14139 -1.173956,-1.75578 -2.474912,-0.75089 -3.881702,-0.38074 -0.941387,0.254 -1.998927,0.381 -2.242344,-0.87789 -0.232833,-1.00488 0.359834,-1.88277 1.18454,-2.26351"
         fill="none"
         stroke="#333333"
         stroke-width="0.274902"
         stroke-linecap="round"
         stroke-linejoin="round"
         id="path843-6" /><path
         d="m 71.845971,129.50682 c 0,-0.97314 0.740304,-1.76636 1.649941,-1.76636 0.920221,0 1.650207,0.79322 1.650207,1.76636 0,0.98372 -0.729986,1.76636 -1.650207,1.76636 -0.909637,0 -1.649941,-0.78264 -1.649941,-1.76636 z m 3.744383,-0.56065 c 0,-0.51832 0.401902,-0.95197 0.888471,-0.95197 0.496887,0 0.888471,0.43392 0.888471,0.95197 0,0.5289 -0.391584,0.95197 -0.888471,0.95197 -0.486834,0 -0.888471,-0.42333 -0.888471,-0.95197 z m -4.801923,2.59133 c 0,-0.41249 0.317236,-0.75089 0.708554,-0.75089 0.391584,0 0.708554,0.33867 0.708554,0.75089 0,0.42333 -0.317235,0.75089 -0.708554,0.75089 -0.391583,0 -0.708554,-0.32782 -0.708554,-0.75089 z"
         fill="#ffffff"
         fill-rule="evenodd"
         id="path845-2"
         style="stroke-width:0.264583" /><path
         d="m 77.092397,142.86563 c 0,-0.41275 0.3175,-0.76173 0.697971,-0.76173 0.391584,0 0.698236,0.34925 0.698236,0.76173 0,0.42307 -0.306917,0.76147 -0.698236,0.76147 -0.380735,0 -0.697971,-0.33866 -0.697971,-0.76147 z"
         fill="#4bb2e1"
         fill-rule="evenodd"
         id="path847-8"
         style="fill:#92979a;fill-opacity:1;stroke-width:0.264583" /><path
         d="m 77.4308,142.68572 c 0,-0.10584 0.0635,-0.20109 0.137583,-0.20109 0.08467,0 0.137583,0.0952 0.137583,0.20109 0,0.11641 -0.05292,0.20108 -0.137583,0.20108 -0.07408,0 -0.137583,-0.0847 -0.137583,-0.20108 z"
         fill="#ffffff"
         fill-rule="evenodd"
         id="path849-8"
         style="fill:#92979a;fill-opacity:1;stroke-width:0.264583" /><path
         d="m 77.4308,142.68572 c 0,-0.10584 0.0635,-0.20109 0.137583,-0.20109 0.08467,0 0.137583,0.0952 0.137583,0.20109 0,0.11641 -0.05292,0.20108 -0.137583,0.20108 -0.07408,0 -0.137583,-0.0847 -0.137583,-0.20108"
         fill="none"
         stroke="#ffffff"
         stroke-width="0.127"
         stroke-miterlimit="8"
         id="path851-8"
         style="fill:#92979a;fill-opacity:1" /><path
         d="m 73.771083,145.62603 c 0,-0.41248 0.328083,-0.75089 0.729985,-0.75089 0.412486,0 0.729721,0.33867 0.729721,0.75089 0,0.42333 -0.3175,0.75115 -0.729721,0.75115 -0.402166,0 -0.729721,-0.32808 -0.729721,-0.75115 z"
         fill="#4bb2e1"
         fill-rule="evenodd"
         id="path853-9"
         style="fill:#92979a;fill-opacity:1;stroke-width:0.264583" /><path
         d="m 74.130916,145.44638 c 0,-0.0847 0.0635,-0.16933 0.127,-0.16933 0.07408,0 0.127,0.0847 0.127,0.16933 0,0.0952 -0.05292,0.16933 -0.127,0.16933 -0.0635,0 -0.127,-0.0741 -0.127,-0.16933 z"
         fill="#ffffff"
         fill-rule="evenodd"
         id="path855-7"
         style="fill:#92979a;fill-opacity:1;stroke-width:0.264583" /><path
         d="m 74.130916,145.44638 c 0,-0.0847 0.0635,-0.16933 0.127,-0.16933 0.07408,0 0.127,0.0847 0.127,0.16933 0,0.0952 -0.05292,0.16933 -0.127,0.16933 -0.0635,0 -0.127,-0.0741 -0.127,-0.16933"
         fill="none"
         stroke="#ffffff"
         stroke-width="0.127"
         stroke-miterlimit="8"
         id="path857-7"
         style="fill:#92979a;fill-opacity:1" /><path
         d="m 92.42897,135.30305 c 0,-0.41249 0.3175,-0.75089 0.69797,-0.75089 0.39158,0 0.69824,0.3384 0.69824,0.75089 0,0.42333 -0.30692,0.75089 -0.69824,0.75089 -0.38073,0 -0.69797,-0.32782 -0.69797,-0.75089 z"
         fill="#4bb2e1"
         fill-rule="evenodd"
         id="path859-6"
         style="fill:#92979a;fill-opacity:1;stroke-width:0.264583" /><path
         d="m 92.64037,135.13371 a 0.18520833,0.18520833 0 0 1 0.17992,-0.17991 c 0.10583,0 0.17992,0.0847 0.17992,0.17991 0,0.10584 -0.0741,0.17992 -0.17992,0.17992 -0.0952,0 -0.17992,-0.0741 -0.17992,-0.17992 z"
         fill="#ffffff"
         fill-rule="evenodd"
         id="path861-4"
         style="fill:#92979a;fill-opacity:1;stroke-width:0.264583" /><path
         d="m 92.64037,135.13371 a 0.18520833,0.18520833 0 0 1 0.17992,-0.17991 c 0.10583,0 0.17992,0.0847 0.17992,0.17991 0,0.10584 -0.0741,0.17992 -0.17992,0.17992 -0.0952,0 -0.17992,-0.0741 -0.17992,-0.17992"
         fill="none"
         stroke="#ffffff"
         stroke-width="0.127"
         stroke-miterlimit="8"
         id="path863-3"
         style="fill:#92979a;fill-opacity:1" /><path
         d="m 91.9424,131.09353 c 0,-0.4445 0.3175,-0.81439 0.69797,-0.81439 0.39159,0 0.69824,0.37015 0.69824,0.81439 0,0.45482 -0.30692,0.81438 -0.69824,0.81438 -0.38073,0 -0.69797,-0.35983 -0.69797,-0.81438 z"
         fill="#4bb2e1"
         fill-rule="evenodd"
         id="path865-0"
         style="fill:#92979a;fill-opacity:1;stroke-width:0.264583" /><path
         d="m 92.19614,130.86069 a 0.18520833,0.18520833 0 0 1 0.17991,-0.17991 c 0.10584,0 0.17992,0.0847 0.17992,0.17991 0,0.10584 -0.0741,0.17992 -0.17992,0.17992 -0.0953,0 -0.17991,-0.0741 -0.17991,-0.17992 z"
         fill="#ffffff"
         fill-rule="evenodd"
         id="path867-3"
         style="fill:#92979a;fill-opacity:1;stroke-width:0.264583" /><path
         d="m 92.19614,130.86069 a 0.18520833,0.18520833 0 0 1 0.17991,-0.17991 c 0.10584,0 0.17992,0.0847 0.17992,0.17991 0,0.10584 -0.0741,0.17992 -0.17992,0.17992 -0.0953,0 -0.17991,-0.0741 -0.17991,-0.17992"
         fill="none"
         stroke="#ffffff"
         stroke-width="0.127"
         stroke-miterlimit="8"
         id="path869-0"
         style="fill:#92979a;fill-opacity:1" /><path
         d="m 82.76162,130.79719 c 0,-0.42306 0.3175,-0.77205 0.70856,-0.77205 0.39158,0 0.70882,0.34925 0.70882,0.77205 0,0.43392 -0.3175,0.77232 -0.70882,0.77232 -0.39132,0 -0.70856,-0.33866 -0.70856,-0.77232 z"
         fill="#4bb2e1"
         fill-rule="evenodd"
         id="path871-9"
         style="fill:#92979a;fill-opacity:1;stroke-width:0.264583" /><path
         d="m 82.99446,130.58579 c 0,-0.0952 0.0847,-0.17991 0.16907,-0.17991 0.0952,0 0.16933,0.0847 0.16933,0.17991 0,0.10584 -0.0741,0.17992 -0.16933,0.17992 -0.0847,0 -0.16934,-0.0741 -0.16934,-0.17992 z"
         fill="#ffffff"
         fill-rule="evenodd"
         id="path873-2"
         style="fill:#92979a;fill-opacity:1;stroke-width:0.264583" /><path
         d="m 82.99446,130.58579 c 0,-0.0952 0.0847,-0.17991 0.16907,-0.17991 0.0952,0 0.16933,0.0847 0.16933,0.17991 0,0.10584 -0.0741,0.17992 -0.16933,0.17992 -0.0847,0 -0.16934,-0.0741 -0.16934,-0.17992"
         fill="none"
         stroke="#ffffff"
         stroke-width="0.127"
         stroke-miterlimit="8"
         id="path875-5"
         style="fill:#92979a;fill-opacity:1" /><path
         d="m 69.900229,137.57714 c 0,-0.41275 0.317235,-0.76147 0.708554,-0.76147 0.391319,0 0.708554,0.34899 0.708554,0.76147 0,0.42307 -0.3175,0.76147 -0.708554,0.76147 -0.391583,0 -0.708819,-0.33866 -0.708819,-0.76147 z"
         fill="#4bb2e1"
         fill-rule="evenodd"
         id="path877-4"
         style="fill:#92979a;fill-opacity:1;stroke-width:0.264583" /><path
         d="m 70.153964,137.39723 c 0,-0.10584 0.08467,-0.20109 0.179917,-0.20109 0.105833,0 0.179652,0.0952 0.179652,0.20109 0,0.11641 -0.07408,0.20108 -0.179917,0.20108 -0.09525,0 -0.179916,-0.0847 -0.179916,-0.20108 z"
         fill="#ffffff"
         fill-rule="evenodd"
         id="path879-0"
         style="fill:#92979a;fill-opacity:1;stroke-width:0.264583" /><path
         d="m 70.153964,137.39723 c 0,-0.10584 0.08467,-0.20109 0.179917,-0.20109 0.105833,0 0.179652,0.0952 0.179652,0.20109 0,0.11641 -0.07408,0.20108 -0.179917,0.20108 -0.09525,0 -0.179916,-0.0847 -0.179916,-0.20108"
         fill="none"
         stroke="#ffffff"
         stroke-width="0.127"
         stroke-miterlimit="8"
         id="path881-5"
         style="fill:#92979a;fill-opacity:1" /><path
         d="m 85.72311,138.45503 c 0,-0.42333 0.3175,-0.77205 0.70881,-0.77205 0.39132,0 0.70856,0.34898 0.70856,0.77205 0,0.43365 -0.3175,0.77205 -0.70856,0.77205 -0.39158,0 -0.70881,-0.33866 -0.70881,-0.77205 z"
         fill="#4bb2e1"
         fill-rule="evenodd"
         id="path883-9"
         style="fill:#92979a;fill-opacity:1;stroke-width:0.264583" /><path
         d="m 86.08267,138.2857 c 0,-0.10584 0.0847,-0.20109 0.16934,-0.20109 0.0953,0 0.16933,0.0953 0.16933,0.20109 0,0.11641 -0.0741,0.20108 -0.16933,0.20108 -0.0847,0 -0.16934,-0.0847 -0.16934,-0.20108 z"
         fill="#ffffff"
         fill-rule="evenodd"
         id="path885-4"
         style="fill:#92979a;fill-opacity:1;stroke-width:0.264583" /><path
         d="m 86.08267,138.2857 c 0,-0.10584 0.0847,-0.20109 0.16934,-0.20109 0.0953,0 0.16933,0.0953 0.16933,0.20109 0,0.11641 -0.0741,0.20108 -0.16933,0.20108 -0.0847,0 -0.16934,-0.0847 -0.16934,-0.20108"
         fill="none"
         stroke="#ffffff"
         stroke-width="0.127"
         stroke-miterlimit="8"
         id="path887-6"
         style="fill:#92979a;fill-opacity:1" /><path
         d="m 87.14048,129.66557 c 0,-0.40217 0.3175,-0.7403 0.69797,-0.7403 0.39158,0 0.69823,0.3384 0.69823,0.7403 0,0.41249 -0.30691,0.74031 -0.69823,0.74031 -0.38074,0 -0.69797,-0.32782 -0.69797,-0.74031 z"
         fill="#4bb2e1"
         fill-rule="evenodd"
         id="path889-9"
         style="fill:#92979a;fill-opacity:1;stroke-width:0.264583" /><path
         d="m 87.35215,129.46449 c 0,-0.10584 0.0847,-0.20109 0.17965,-0.20109 0.10583,0 0.17991,0.0952 0.17991,0.20109 0,0.11641 -0.0741,0.20108 -0.17991,0.20108 -0.0953,0 -0.17992,-0.0847 -0.17992,-0.20108 z"
         fill="#ffffff"
         fill-rule="evenodd"
         id="path891-2"
         style="fill:#92979a;fill-opacity:1;stroke-width:0.264583" /><path
         d="m 87.35215,129.46449 c 0,-0.10584 0.0847,-0.20109 0.17965,-0.20109 0.10583,0 0.17991,0.0952 0.17991,0.20109 0,0.11641 -0.0741,0.20108 -0.17991,0.20108 -0.0953,0 -0.17992,-0.0847 -0.17992,-0.20108"
         fill="none"
         stroke="#ffffff"
         stroke-width="0.127"
         stroke-miterlimit="8"
         id="path893-2"
         style="fill:#92979a;fill-opacity:1" /><path
         d="m 83.48076,135.99044 c 0,-0.45456 0.3175,-0.82498 0.69824,-0.82498 0.39132,0 0.69797,0.37042 0.69797,0.82498 0,0.46566 -0.30692,0.82523 -0.69797,0.82523 -0.381,0 -0.69824,-0.35983 -0.69824,-0.82523 z"
         fill="#4bb2e1"
         fill-rule="evenodd"
         id="path895-4"
         style="fill:#92979a;fill-opacity:1;stroke-width:0.264583" /><path
         d="m 83.81943,135.81052 c 0,-0.0632 0.0847,-0.11615 0.17992,-0.11615 0.10556,0 0.17965,0.0529 0.17965,0.11641 0,0.0741 -0.0741,0.11642 -0.17992,0.11642 -0.0953,0 -0.17992,-0.0423 -0.17992,-0.11642 z"
         fill="#ffffff"
         fill-rule="evenodd"
         id="path897-7"
         style="fill:#92979a;fill-opacity:1;stroke-width:0.264583" /><path
         d="m 83.81943,135.81052 c 0,-0.0632 0.0847,-0.11615 0.17992,-0.11615 0.10556,0 0.17965,0.0529 0.17965,0.11641 0,0.0741 -0.0741,0.11642 -0.17992,0.11642 -0.0953,0 -0.17992,-0.0423 -0.17992,-0.11642"
         fill="none"
         stroke="#ffffff"
         stroke-width="0.127"
         stroke-miterlimit="8"
         id="path899-7"
         style="fill:#92979a;fill-opacity:1" /><path
         d="m 89.38282,131.03003 a 0.75406249,0.75406249 0 0 1 0.75089,-0.75089 0.74718332,0.74718332 0 0 1 0.75089,0.75089 c 0,0.42307 -0.32782,0.75088 -0.75089,0.75088 a 0.74718332,0.74718332 0 0 1 -0.75089,-0.75088 z"
         fill="#4bb2e1"
         fill-rule="evenodd"
         id="path901-5"
         style="fill:#92979a;fill-opacity:1;stroke-width:0.264583" /><path
         d="m 89.72122,130.86069 a 0.18520833,0.18520833 0 0 1 0.17992,-0.17991 c 0.10583,0 0.17992,0.0847 0.17992,0.17991 0,0.10584 -0.0741,0.17992 -0.17992,0.17992 -0.0952,0 -0.17992,-0.0741 -0.17992,-0.17992 z"
         fill="#ffffff"
         fill-rule="evenodd"
         id="path903-4"
         style="fill:#92979a;fill-opacity:1;stroke-width:0.264583" /><path
         d="m 89.72122,130.86069 a 0.18520833,0.18520833 0 0 1 0.17992,-0.17991 c 0.10583,0 0.17992,0.0847 0.17992,0.17991 0,0.10584 -0.0741,0.17992 -0.17992,0.17992 -0.0952,0 -0.17992,-0.0741 -0.17992,-0.17992"
         fill="none"
         stroke="#ffffff"
         stroke-width="0.127"
         stroke-miterlimit="8"
         id="path905-8"
         style="fill:#92979a;fill-opacity:1" /><path
         d="m 77.092397,133.48377 c 0,-0.44423 0.3175,-0.81438 0.697971,-0.81438 0.391584,0 0.698236,0.37041 0.698236,0.81438 0,0.45509 -0.306917,0.81439 -0.698236,0.81439 -0.380735,0 -0.697971,-0.35957 -0.697971,-0.81439 z"
         fill="#4bb2e1"
         fill-rule="evenodd"
         id="path907-1"
         style="fill:#92979a;fill-opacity:1;stroke-width:0.264583" /><path
         d="m 77.346133,133.23004 a 0.18520833,0.18520833 0 0 1 0.179917,-0.17992 c 0.105833,0 0.179916,0.0847 0.179916,0.17992 0,0.10583 -0.07408,0.17991 -0.179916,0.17991 -0.09525,0 -0.179917,-0.0741 -0.179917,-0.17991 z"
         fill="#ffffff"
         fill-rule="evenodd"
         id="path909-2"
         style="fill:#92979a;fill-opacity:1;stroke-width:0.264583" /><path
         d="m 77.346133,133.23004 a 0.18520833,0.18520833 0 0 1 0.179917,-0.17992 c 0.105833,0 0.179916,0.0847 0.179916,0.17992 0,0.10583 -0.07408,0.17991 -0.179916,0.17991 -0.09525,0 -0.179917,-0.0741 -0.179917,-0.17991"
         fill="none"
         stroke="#ffffff"
         stroke-width="0.127"
         stroke-miterlimit="8"
         id="path911-8"
         style="fill:#92979a;fill-opacity:1" /><path
         d="m 75.103789,141.98775 c 0,-0.42334 0.3175,-0.77232 0.698236,-0.77232 0.391318,0 0.69797,0.34925 0.69797,0.77232 0,0.43365 -0.306652,0.77205 -0.69797,0.77205 -0.381,0 -0.698236,-0.33867 -0.698236,-0.77205 z"
         fill="#4bb2e1"
         fill-rule="evenodd"
         id="path913-9"
         style="fill:#92979a;fill-opacity:1;stroke-width:0.264583" /><path
         d="m 75.442456,141.80783 c 0,-0.0952 0.08467,-0.1905 0.179916,-0.1905 0.105834,0 0.179653,0.0952 0.179653,0.1905 0,0.10583 -0.07408,0.1905 -0.179917,0.1905 -0.09525,0 -0.179917,-0.0847 -0.179917,-0.1905 z"
         fill="#ffffff"
         fill-rule="evenodd"
         id="path915-3"
         style="fill:#92979a;fill-opacity:1;stroke-width:0.264583" /><path
         d="m 75.442456,141.80783 c 0,-0.0952 0.08467,-0.1905 0.179916,-0.1905 0.105834,0 0.179653,0.0952 0.179653,0.1905 0,0.10583 -0.07408,0.1905 -0.179917,0.1905 -0.09525,0 -0.179917,-0.0847 -0.179917,-0.1905"
         fill="none"
         stroke="#ffffff"
         stroke-width="0.127"
         stroke-miterlimit="8"
         id="path917-6"
         style="fill:#92979a;fill-opacity:1" /><path
         d="m 80.03271,140.52804 c 0,-0.44424 0.3175,-0.81439 0.70882,-0.81439 0.39132,0 0.70855,0.37042 0.70855,0.81439 0,0.45482 -0.3175,0.81439 -0.70855,0.81439 -0.39158,0 -0.70882,-0.35957 -0.70882,-0.81439 z"
         fill="#4bb2e1"
         fill-rule="evenodd"
         id="path919-8"
         style="fill:#92979a;fill-opacity:1;stroke-width:0.264583" /><path
         d="m 80.30788,140.34812 c 0,-0.0529 0.0847,-0.10583 0.16933,-0.10583 0.095,0 0.16907,0.0529 0.16907,0.10583 0,0.0635 -0.0741,0.10584 -0.16933,0.10584 -0.0847,0 -0.16934,-0.0423 -0.16934,-0.10584 z"
         fill="#ffffff"
         fill-rule="evenodd"
         id="path921-0"
         style="fill:#92979a;fill-opacity:1;stroke-width:0.264583" /><path
         d="m 80.30788,140.34812 c 0,-0.0529 0.0847,-0.10583 0.16933,-0.10583 0.095,0 0.16907,0.0529 0.16907,0.10583 0,0.0635 -0.0741,0.10584 -0.16933,0.10584 -0.0847,0 -0.16934,-0.0423 -0.16934,-0.10584"
         fill="none"
         stroke="#ffffff"
         stroke-width="0.127"
         stroke-miterlimit="8"
         id="path923-2"
         style="fill:#92979a;fill-opacity:1" /><path
         d="m 83.20586,147.78371 c 0,-0.41249 0.32808,-0.75089 0.72972,-0.75089 0.41275,0 0.72999,0.33867 0.72999,0.75089 0,0.42333 -0.3175,0.75115 -0.72999,0.75115 -0.4019,0 -0.72972,-0.32808 -0.72972,-0.75115 z"
         fill="#4bb2e1"
         fill-rule="evenodd"
         id="path925-1"
         style="fill:#92979a;fill-opacity:1;stroke-width:0.264583" /><path
         d="m 83.48076,147.58289 c 0,-0.0953 0.0847,-0.1905 0.16934,-0.1905 0.0952,0 0.16933,0.0952 0.16933,0.1905 0,0.10583 -0.0741,0.1905 -0.16933,0.1905 -0.0847,0 -0.16934,-0.0847 -0.16934,-0.1905 z"
         fill="#ffffff"
         fill-rule="evenodd"
         id="path927-0"
         style="fill:#92979a;fill-opacity:1;stroke-width:0.264583" /><path
         d="m 83.48076,147.58289 c 0,-0.0953 0.0847,-0.1905 0.16934,-0.1905 0.0952,0 0.16933,0.0952 0.16933,0.1905 0,0.10583 -0.0741,0.1905 -0.16933,0.1905 -0.0847,0 -0.16934,-0.0847 -0.16934,-0.1905"
         fill="none"
         stroke="#ffffff"
         stroke-width="0.127"
         stroke-miterlimit="8"
         id="path929-5"
         style="fill:#92979a;fill-opacity:1" /><path
         d="m 80.51928,144.49441 c 0,-0.34925 0.28575,-0.63474 0.63474,-0.63474 a 0.62970833,0.62970833 0 0 1 0.63447,0.63474 c 0,0.35983 -0.27517,0.63473 -0.63447,0.63473 a 0.62970833,0.62970833 0 0 1 -0.63474,-0.63473 z"
         fill="#4bb2e1"
         fill-rule="evenodd"
         id="path931-1"
         style="fill:#92979a;fill-opacity:1;stroke-width:0.264583" /><path
         d="m 80.73095,144.38858 c 0,-0.0635 0.0847,-0.127 0.17991,-0.127 0.10557,0 0.17966,0.0635 0.17966,0.127 0,0.0741 -0.0741,0.127 -0.17992,0.127 -0.0953,0 -0.17992,-0.0529 -0.17992,-0.127 z"
         fill="#ffffff"
         fill-rule="evenodd"
         id="path933-1"
         style="fill:#92979a;fill-opacity:1;stroke-width:0.264583" /><path
         d="m 80.73095,144.38858 c 0,-0.0635 0.0847,-0.127 0.17991,-0.127 0.10557,0 0.17966,0.0635 0.17966,0.127 0,0.0741 -0.0741,0.127 -0.17992,0.127 -0.0953,0 -0.17992,-0.0529 -0.17992,-0.127"
         fill="none"
         stroke="#ffffff"
         stroke-width="0.127"
         stroke-miterlimit="8"
         id="path935-0"
         style="fill:#92979a;fill-opacity:1" /><path
         d="m 83.56543,139.97797 c 0,-0.3384 0.27517,-0.62389 0.5924,-0.62389 0.32782,0 0.59214,0.28575 0.59214,0.62389 0,0.34925 -0.26432,0.62415 -0.59214,0.62415 -0.3175,0 -0.5924,-0.27516 -0.5924,-0.62415 z"
         fill="#4bb2e1"
         fill-rule="evenodd"
         id="path937-8"
         style="fill:#92979a;fill-opacity:1;stroke-width:0.264583" /><path
         d="m 83.81943,139.78774 c 0,-0.10584 0.0847,-0.20109 0.17992,-0.20109 0.10556,0 0.17965,0.0952 0.17965,0.20109 0,0.11641 -0.0741,0.20108 -0.17992,0.20108 -0.0953,0 -0.17992,-0.0847 -0.17992,-0.20108 z"
         fill="#ffffff"
         fill-rule="evenodd"
         id="path939-5"
         style="fill:#92979a;fill-opacity:1;stroke-width:0.264583" /><path
         d="m 83.81943,139.78774 c 0,-0.10584 0.0847,-0.20109 0.17992,-0.20109 0.10556,0 0.17965,0.0952 0.17965,0.20109 0,0.11641 -0.0741,0.20108 -0.17992,0.20108 -0.0953,0 -0.17992,-0.0847 -0.17992,-0.20108"
         fill="none"
         stroke="#ffffff"
         stroke-width="0.127"
         stroke-miterlimit="8"
         id="path941-0"
         style="fill:#92979a;fill-opacity:1" /><path
         d="m 88.76925,142.4214 c 0,-0.37042 0.27517,-0.67707 0.59241,-0.67707 0.32808,0 0.59213,0.30692 0.59213,0.67707 0,0.38073 -0.26432,0.6768 -0.59213,0.6768 -0.3175,0 -0.59241,-0.29633 -0.59241,-0.6768 z"
         fill="#4bb2e1"
         fill-rule="evenodd"
         id="path943-6"
         style="fill:#92979a;fill-opacity:1;stroke-width:0.264583" /><path
         d="m 89.02325,142.2309 c 0,-0.0635 0.0847,-0.127 0.17992,-0.127 0.10557,0 0.17965,0.0635 0.17965,0.127 0,0.0741 -0.0741,0.127 -0.17991,0.127 -0.0953,0 -0.17992,-0.0529 -0.17992,-0.127 z"
         fill="#ffffff"
         fill-rule="evenodd"
         id="path945-4"
         style="fill:#92979a;fill-opacity:1;stroke-width:0.264583" /><path
         d="m 89.02325,142.2309 c 0,-0.0635 0.0847,-0.127 0.17992,-0.127 0.10557,0 0.17965,0.0635 0.17965,0.127 0,0.0741 -0.0741,0.127 -0.17991,0.127 -0.0953,0 -0.17992,-0.0529 -0.17992,-0.127"
         fill="none"
         stroke="#ffffff"
         stroke-width="0.127"
         stroke-miterlimit="8"
         id="path947-6"
         style="fill:#92979a;fill-opacity:1" /><path
         d="m 90.16546,147.40297 c 0,-0.34898 0.27517,-0.64505 0.60299,-0.64505 0.3384,0 0.60272,0.29633 0.60272,0.64505 0,0.35984 -0.26459,0.64532 -0.60272,0.64532 -0.32809,0 -0.60299,-0.28575 -0.60299,-0.64532 z"
         fill="#4bb2e1"
         fill-rule="evenodd"
         id="path949-2"
         style="fill:#92979a;fill-opacity:1;stroke-width:0.264583" /><path
         d="m 90.44036,147.27624 c 0,-0.0635 0.0529,-0.11642 0.10584,-0.11642 0.0635,0 0.10583,0.0529 0.10583,0.11642 0,0.0741 -0.0423,0.11641 -0.10583,0.11641 -0.0529,0 -0.10584,-0.0423 -0.10584,-0.11641 z"
         fill="#ffffff"
         fill-rule="evenodd"
         id="path951-5"
         style="fill:#92979a;fill-opacity:1;stroke-width:0.264583" /><path
         d="m 90.44036,147.27624 c 0,-0.0635 0.0529,-0.11642 0.10584,-0.11642 0.0635,0 0.10583,0.0529 0.10583,0.11642 0,0.0741 -0.0423,0.11641 -0.10583,0.11641 -0.0529,0 -0.10584,-0.0423 -0.10584,-0.11641"
         fill="none"
         stroke="#ffffff"
         stroke-width="0.127"
         stroke-miterlimit="8"
         id="path953-8"
         style="fill:#92979a;fill-opacity:1" /><path
         d="m 86.78065,126.75701 c 0,-0.33867 0.26458,-0.62416 0.5715,-0.62416 0.31723,0 0.57097,0.28575 0.57097,0.62416 0,0.34898 -0.254,0.62388 -0.57124,0.62388 -0.30665,0 -0.57097,-0.27516 -0.57097,-0.62388 z"
         fill="#4bb2e1"
         fill-rule="evenodd"
         id="path955-6"
         style="fill:#92979a;fill-opacity:1;stroke-width:0.264583" /><path
         d="m 86.99231,126.56651 c 0,-0.10584 0.0847,-0.20109 0.17992,-0.20109 0.10583,0 0.17992,0.0953 0.17992,0.20109 0,0.11641 -0.0741,0.20108 -0.17992,0.20108 -0.0952,0 -0.17992,-0.0847 -0.17992,-0.20108 z"
         fill="#ffffff"
         fill-rule="evenodd"
         id="path957-2"
         style="fill:#92979a;fill-opacity:1;stroke-width:0.264583" /><path
         d="m 86.99231,126.56651 c 0,-0.10584 0.0847,-0.20109 0.17992,-0.20109 0.10583,0 0.17992,0.0953 0.17992,0.20109 0,0.11641 -0.0741,0.20108 -0.17992,0.20108 -0.0952,0 -0.17992,-0.0847 -0.17992,-0.20108"
         fill="none"
         stroke="#ffffff"
         stroke-width="0.127"
         stroke-miterlimit="8"
         id="path959-8"
         style="fill:#92979a;fill-opacity:1" /><path
         d="m 69.540395,145.00214 c 0,-0.33866 0.275167,-0.61356 0.602986,-0.61356 0.338667,0 0.602721,0.27516 0.602721,0.61356 0,0.34899 -0.264319,0.61331 -0.602721,0.61331 -0.328083,0 -0.602986,-0.26432 -0.602986,-0.61331 z"
         fill="#4bb2e1"
         fill-rule="evenodd"
         id="path961-4"
         style="fill:#92979a;fill-opacity:1;stroke-width:0.264583" /><path
         d="m 69.773229,144.87514 c 0,-0.0635 0.0635,-0.127 0.127,-0.127 0.07408,0 0.127,0.0635 0.127,0.127 0,0.0741 -0.05292,0.127 -0.127,0.127 -0.0635,0 -0.127,-0.0529 -0.127,-0.127 z"
         fill="#ffffff"
         fill-rule="evenodd"
         id="path963-7"
         style="fill:#92979a;fill-opacity:1;stroke-width:0.264583" /><path
         d="m 69.773229,144.87514 c 0,-0.0635 0.0635,-0.127 0.127,-0.127 0.07408,0 0.127,0.0635 0.127,0.127 0,0.0741 -0.05292,0.127 -0.127,0.127 -0.0635,0 -0.127,-0.0529 -0.127,-0.127"
         fill="none"
         stroke="#ffffff"
         stroke-width="0.127"
         stroke-miterlimit="8"
         id="path965-2"
         style="fill:#92979a;fill-opacity:1" /><path
         d="m 78.848172,129.53857 c 0,-0.3384 0.275168,-0.6133 0.592398,-0.6133 0.32782,0 0.59214,0.2749 0.59214,0.6133 0,0.34925 -0.26458,0.61357 -0.59214,0.61357 -0.3175,0 -0.592662,-0.26458 -0.592662,-0.61357 z"
         fill="#4bb2e1"
         fill-rule="evenodd"
         id="path967-4"
         style="fill:#92979a;fill-opacity:1;stroke-width:0.264583" /><path
         d="m 79.10191,129.33775 c 0,-0.10583 0.0529,-0.20108 0.11641,-0.20108 0.0741,0 0.11642,0.0952 0.11642,0.20108 0,0.11642 -0.0423,0.20109 -0.11642,0.20109 -0.0635,0 -0.11641,-0.0847 -0.11641,-0.20109 z"
         fill="#ffffff"
         fill-rule="evenodd"
         id="path969-0"
         style="fill:#92979a;fill-opacity:1;stroke-width:0.264583" /><path
         d="m 79.10191,129.33775 c 0,-0.10583 0.0529,-0.20108 0.11641,-0.20108 0.0741,0 0.11642,0.0952 0.11642,0.20108 0,0.11642 -0.0423,0.20109 -0.11642,0.20109 -0.0635,0 -0.11641,-0.0847 -0.11641,-0.20109"
         fill="none"
         stroke="#ffffff"
         stroke-width="0.127"
         stroke-miterlimit="8"
         id="path971-6"
         style="fill:#92979a;fill-opacity:1" /><path
         d="m 81.21725,128.78768 c 0,-0.41275 0.34925,-0.75088 0.77232,-0.75088 0.43365,0 0.77205,0.3384 0.77205,0.75088 0,0.42307 -0.33866,0.75089 -0.77205,0.75089 -0.42333,0 -0.77232,-0.32782 -0.77232,-0.75089 z"
         fill="#4bb2e1"
         fill-rule="evenodd"
         id="path973-2"
         style="fill:#92979a;fill-opacity:1;stroke-width:0.264583" /><path
         d="m 81.57708,128.5866 c 0,-0.0952 0.0847,-0.1905 0.17992,-0.1905 0.10557,0 0.17965,0.0952 0.17965,0.1905 0,0.10583 -0.0741,0.1905 -0.17991,0.1905 -0.0953,0 -0.17992,-0.0847 -0.17992,-0.1905 z"
         fill="#ffffff"
         fill-rule="evenodd"
         id="path975-9"
         style="fill:#92979a;fill-opacity:1;stroke-width:0.264583" /><path
         d="m 81.57708,128.5866 c 0,-0.0952 0.0847,-0.1905 0.17992,-0.1905 0.10557,0 0.17965,0.0952 0.17965,0.1905 0,0.10583 -0.0741,0.1905 -0.17991,0.1905 -0.0953,0 -0.17992,-0.0847 -0.17992,-0.1905"
         fill="none"
         stroke="#ffffff"
         stroke-width="0.127"
         stroke-miterlimit="8"
         id="path977-9"
         style="fill:#92979a;fill-opacity:1" /><path
         d="m 93.33861,138.70876 c 0,-0.41248 0.32782,-0.75088 0.72972,-0.75088 0.41275,0 0.72972,0.33866 0.72972,0.75088 0,0.42334 -0.31724,0.75116 -0.72972,0.75116 -0.4019,0 -0.72972,-0.32809 -0.72972,-0.75116 z"
         fill="#4bb2e1"
         fill-rule="evenodd"
         id="path979-0"
         style="fill:#92979a;fill-opacity:1;stroke-width:0.264583" /><path
         d="m 93.61351,138.51853 c 0,-0.0952 0.0847,-0.17992 0.16933,-0.17992 0.0952,0 0.16934,0.0847 0.16934,0.17992 0,0.10583 -0.0741,0.17992 -0.16934,0.17992 -0.0847,0 -0.16933,-0.0741 -0.16933,-0.17992 z"
         fill="#ffffff"
         fill-rule="evenodd"
         id="path981-8"
         style="fill:#92979a;fill-opacity:1;stroke-width:0.264583" /><path
         d="m 93.61351,138.51853 c 0,-0.0952 0.0847,-0.17992 0.16933,-0.17992 0.0952,0 0.16934,0.0847 0.16934,0.17992 0,0.10583 -0.0741,0.17992 -0.16934,0.17992 -0.0847,0 -0.16933,-0.0741 -0.16933,-0.17992"
         fill="none"
         stroke="#ffffff"
         stroke-width="0.127"
         stroke-miterlimit="8"
         id="path983-1"
         style="fill:#92979a;fill-opacity:1" /><path
         d="m 88.05012,145.50988 c 0,-0.41275 0.34898,-0.76174 0.77205,-0.76174 0.43392,0 0.77205,0.34925 0.77205,0.76174 0,0.42307 -0.3384,0.76147 -0.77205,0.76147 -0.42307,0 -0.77205,-0.33867 -0.77205,-0.76147 z"
         fill="#4bb2e1"
         fill-rule="evenodd"
         id="path985-3"
         style="fill:#92979a;fill-opacity:1;stroke-width:0.264583" /><path
         d="m 88.40968,145.30906 a 0.18520833,0.18520833 0 0 1 0.17992,-0.17992 c 0.10583,0 0.17992,0.0847 0.17992,0.17992 0,0.10557 -0.0741,0.17965 -0.17992,0.17965 -0.0953,0 -0.17992,-0.0741 -0.17992,-0.17991 z"
         fill="#ffffff"
         fill-rule="evenodd"
         id="path987-1"
         style="fill:#92979a;fill-opacity:1;stroke-width:0.264583" /><path
         d="m 88.40968,145.30906 a 0.18520833,0.18520833 0 0 1 0.17992,-0.17992 c 0.10583,0 0.17992,0.0847 0.17992,0.17992 0,0.10557 -0.0741,0.17965 -0.17992,0.17965 -0.0953,0 -0.17992,-0.0741 -0.17992,-0.17991"
         fill="none"
         stroke="#ffffff"
         stroke-width="0.127"
         stroke-miterlimit="8"
         id="path989-1"
         style="fill:#92979a;fill-opacity:1" /><path
         d="m 83.81943,152.7973 c 0,-0.41275 0.34898,-0.75089 0.77205,-0.75089 0.43365,0 0.77206,0.3384 0.77206,0.75089 0,0.42307 -0.33867,0.75089 -0.77206,0.75089 -0.42333,0 -0.77205,-0.32782 -0.77205,-0.75089 z"
         fill="#4bb2e1"
         fill-rule="evenodd"
         id="path991-0"
         style="fill:#92979a;fill-opacity:1;stroke-width:0.264583" /><path
         d="m 84.179,152.56473 c 0,-0.0635 0.0847,-0.11642 0.17991,-0.11642 0.10584,0 0.17966,0.0529 0.17966,0.11642 0,0.0741 -0.0741,0.11642 -0.17992,0.11642 -0.0952,0 -0.17992,-0.0423 -0.17992,-0.11642 z"
         fill="#ffffff"
         fill-rule="evenodd"
         id="path993-3"
         style="fill:#92979a;fill-opacity:1;stroke-width:0.264583" /><path
         d="m 84.179,152.56473 c 0,-0.0635 0.0847,-0.11642 0.17991,-0.11642 0.10584,0 0.17966,0.0529 0.17966,0.11642 0,0.0741 -0.0741,0.11642 -0.17992,0.11642 -0.0952,0 -0.17992,-0.0423 -0.17992,-0.11642"
         fill="none"
         stroke="#ffffff"
         stroke-width="0.127"
         stroke-miterlimit="8"
         id="path995-4"
         style="fill:#92979a;fill-opacity:1" /><path
         d="m 74.74422,150.66079 c 0,-0.42334 0.3175,-0.77206 0.708819,-0.77206 0.391319,0 0.708554,0.34899 0.708554,0.77206 0,0.43365 -0.3175,0.77205 -0.708554,0.77205 -0.391583,0 -0.708819,-0.33866 -0.708819,-0.77205 z"
         fill="#4bb2e1"
         fill-rule="evenodd"
         id="path997-0"
         style="fill:#92979a;fill-opacity:1;stroke-width:0.264583" /><path
         d="m 74.977054,150.49145 c 0,-0.10583 0.08467,-0.20108 0.169333,-0.20108 0.09525,0 0.169069,0.0953 0.169069,0.20108 0,0.11642 -0.07408,0.20109 -0.169334,0.20109 -0.08467,0 -0.169333,-0.0847 -0.169333,-0.20109 z"
         fill="#ffffff"
         fill-rule="evenodd"
         id="path999-3"
         style="fill:#92979a;fill-opacity:1;stroke-width:0.264583" /><path
         d="m 74.977054,150.49145 c 0,-0.10583 0.08467,-0.20108 0.169333,-0.20108 0.09525,0 0.169069,0.0953 0.169069,0.20108 0,0.11642 -0.07408,0.20109 -0.169334,0.20109 -0.08467,0 -0.169333,-0.0847 -0.169333,-0.20109"
         fill="none"
         stroke="#ffffff"
         stroke-width="0.127"
         stroke-miterlimit="8"
         id="path1001-9"
         style="fill:#92979a;fill-opacity:1" /><path
         d="m 81.00585,151.44343 c 0,-0.41249 0.3175,-0.75089 0.70855,-0.75089 0.39159,0 0.70882,0.3384 0.70882,0.75089 0,0.42333 -0.3175,0.75088 -0.70882,0.75088 -0.39132,0 -0.70855,-0.32782 -0.70855,-0.75088 z"
         fill="#4bb2e1"
         fill-rule="evenodd"
         id="path1003-1"
         style="fill:#92979a;fill-opacity:1;stroke-width:0.264583" /><path
         d="m 81.21725,151.23202 c 0,-0.10583 0.0847,-0.20108 0.17992,-0.20108 0.10583,0 0.17991,0.0952 0.17991,0.20108 0,0.11642 -0.0741,0.20109 -0.17991,0.20109 -0.0953,0 -0.17992,-0.0847 -0.17992,-0.20109 z"
         fill="#ffffff"
         fill-rule="evenodd"
         id="path1005-9"
         style="fill:#92979a;fill-opacity:1;stroke-width:0.264583" /><path
         d="m 81.21725,151.23202 c 0,-0.10583 0.0847,-0.20108 0.17992,-0.20108 0.10583,0 0.17991,0.0952 0.17991,0.20108 0,0.11642 -0.0741,0.20109 -0.17991,0.20109 -0.0953,0 -0.17992,-0.0847 -0.17992,-0.20109"
         fill="none"
         stroke="#ffffff"
         stroke-width="0.127"
         stroke-miterlimit="8"
         id="path1007-6"
         style="fill:#92979a;fill-opacity:1" /><path
         d="m 71.655739,149.85698 c 0,-0.45508 0.3175,-0.83555 0.708819,-0.83555 0.391319,0 0.708554,0.38073 0.708554,0.83555 0,0.46541 -0.3175,0.83556 -0.708554,0.83556 -0.391583,0 -0.708819,-0.37042 -0.708819,-0.83556 z"
         fill="#4bb2e1"
         fill-rule="evenodd"
         id="path1009-9"
         style="fill:#92979a;fill-opacity:1;stroke-width:0.264583" /><path
         d="m 71.930906,149.67733 c 0,-0.0635 0.08467,-0.127 0.169333,-0.127 0.09525,0 0.169069,0.0635 0.169069,0.127 0,0.0738 -0.07408,0.12674 -0.169333,0.12674 -0.08467,0 -0.169334,-0.0529 -0.169334,-0.127 z"
         fill="#ffffff"
         fill-rule="evenodd"
         id="path1011-3"
         style="fill:#92979a;fill-opacity:1;stroke-width:0.264583" /><path
         d="m 71.930906,149.67733 c 0,-0.0635 0.08467,-0.127 0.169333,-0.127 0.09525,0 0.169069,0.0635 0.169069,0.127 0,0.0738 -0.07408,0.12674 -0.169333,0.12674 -0.08467,0 -0.169334,-0.0529 -0.169334,-0.127"
         fill="none"
         stroke="#ffffff"
         stroke-width="0.127"
         stroke-miterlimit="8"
         id="path1013-3"
         style="fill:#92979a;fill-opacity:1" /><path
         d="m 72.628877,138.70876 c 0,-0.41248 0.3175,-0.75088 0.708818,-0.75088 0.391319,0 0.708555,0.33866 0.708555,0.75088 0,0.42334 -0.3175,0.75116 -0.708555,0.75116 -0.391583,0 -0.708818,-0.32809 -0.708818,-0.75116 z"
         fill="#4bb2e1"
         fill-rule="evenodd"
         id="path1015-8"
         style="fill:#92979a;fill-opacity:1;stroke-width:0.264583" /><path
         d="m 72.86171,138.51853 c 0,-0.0952 0.08467,-0.17992 0.169333,-0.17992 0.09499,0 0.169069,0.0847 0.169069,0.17992 0,0.10583 -0.07408,0.17992 -0.169333,0.17992 -0.08467,0 -0.169334,-0.0741 -0.169334,-0.17992 z"
         fill="#ffffff"
         fill-rule="evenodd"
         id="path1017-0"
         style="fill:#92979a;fill-opacity:1;stroke-width:0.264583" /><path
         d="m 72.86171,138.51853 c 0,-0.0952 0.08467,-0.17992 0.169333,-0.17992 0.09499,0 0.169069,0.0847 0.169069,0.17992 0,0.10583 -0.07408,0.17992 -0.169333,0.17992 -0.08467,0 -0.169334,-0.0741 -0.169334,-0.17992"
         fill="none"
         stroke="#ffffff"
         stroke-width="0.127"
         stroke-miterlimit="8"
         id="path1019-5"
         style="fill:#92979a;fill-opacity:1" /><path
         d="m 79.58848,137.71473 c 0,-0.42334 0.3175,-0.77232 0.70882,-0.77232 0.39131,0 0.70855,0.34925 0.70855,0.77232 0,0.43365 -0.3175,0.77205 -0.70855,0.77205 -0.39159,0 -0.70882,-0.33867 -0.70882,-0.77205 z"
         fill="#4bb2e1"
         fill-rule="evenodd"
         id="path1021-6"
         style="fill:#92979a;fill-opacity:1;stroke-width:0.264583" /><path
         d="m 79.82131,137.47131 c 0,-0.0635 0.0847,-0.127 0.16933,-0.127 0.0953,0 0.16907,0.0635 0.16907,0.127 0,0.0741 -0.0741,0.127 -0.16933,0.127 -0.0847,0 -0.16933,-0.0529 -0.16933,-0.127 z"
         fill="#ffffff"
         fill-rule="evenodd"
         id="path1023-6"
         style="fill:#92979a;fill-opacity:1;stroke-width:0.264583" /><path
         d="m 79.82131,137.47131 c 0,-0.0635 0.0847,-0.127 0.16933,-0.127 0.0953,0 0.16907,0.0635 0.16907,0.127 0,0.0741 -0.0741,0.127 -0.16933,0.127 -0.0847,0 -0.16933,-0.0529 -0.16933,-0.127"
         fill="none"
         stroke="#ffffff"
         stroke-width="0.127"
         stroke-miterlimit="8"
         id="path1025-4"
         style="fill:#92979a;fill-opacity:1" /><path
         d="m 80.39228,126.14344 c 0,-0.41249 0.3175,-0.75089 0.69824,-0.75089 0.39131,0 0.69797,0.3384 0.69797,0.75089 0,0.42333 -0.30692,0.75089 -0.69797,0.75089 -0.381,0 -0.69824,-0.32782 -0.69824,-0.75089 z"
         fill="#4bb2e1"
         fill-rule="evenodd"
         id="path1027-0"
         style="fill:#92979a;fill-opacity:1;stroke-width:0.264583" /><path
         d="m 80.73095,125.94235 c 0,-0.0952 0.0635,-0.1905 0.13758,-0.1905 0.0847,0 0.13732,0.0952 0.13732,0.1905 0,0.10584 -0.0529,0.1905 -0.13758,0.1905 -0.0741,0 -0.13759,-0.0847 -0.13759,-0.1905 z"
         fill="#ffffff"
         fill-rule="evenodd"
         id="path1029-0"
         style="fill:#92979a;fill-opacity:1;stroke-width:0.264583" /><path
         d="m 80.73095,125.94235 c 0,-0.0952 0.0635,-0.1905 0.13758,-0.1905 0.0847,0 0.13732,0.0952 0.13732,0.1905 0,0.10584 -0.0529,0.1905 -0.13758,0.1905 -0.0741,0 -0.13759,-0.0847 -0.13759,-0.1905"
         fill="none"
         stroke="#ffffff"
         stroke-width="0.127"
         stroke-miterlimit="8"
         id="path1031-4"
         style="fill:#92979a;fill-opacity:1" /><path
         d="m 80.87885,133.54727 c 0,-0.41248 0.3175,-0.75088 0.69823,-0.75088 0.39132,0 0.69798,0.3384 0.69798,0.75088 0,0.42334 -0.30692,0.75089 -0.69798,0.75089 -0.381,0 -0.69823,-0.32782 -0.69823,-0.75089 z"
         fill="#4bb2e1"
         fill-rule="evenodd"
         id="path1033-6"
         style="fill:#92979a;fill-opacity:1;stroke-width:0.264583" /><path
         d="m 81.09052,133.36736 c 0,-0.0847 0.0847,-0.16934 0.17991,-0.16934 0.10584,0 0.17965,0.0847 0.17965,0.16934 0,0.0952 -0.0741,0.16933 -0.17991,0.16933 -0.0953,0 -0.17992,-0.0741 -0.17992,-0.16933 z"
         fill="#ffffff"
         fill-rule="evenodd"
         id="path1035-2"
         style="fill:#92979a;fill-opacity:1;stroke-width:0.264583" /><path
         d="m 81.09052,133.36736 c 0,-0.0847 0.0847,-0.16934 0.17991,-0.16934 0.10584,0 0.17965,0.0847 0.17965,0.16934 0,0.0952 -0.0741,0.16933 -0.17991,0.16933 -0.0953,0 -0.17992,-0.0741 -0.17992,-0.16933"
         fill="none"
         stroke="#ffffff"
         stroke-width="0.127"
         stroke-miterlimit="8"
         id="path1037-6"
         style="fill:#92979a;fill-opacity:1" /><path
         d="m 86.65391,132.41565 c 0,-0.27517 0.21167,-0.508 0.45482,-0.508 0.254,0 0.45482,0.23283 0.45482,0.508 0,0.28549 -0.20109,0.50747 -0.45482,0.50747 -0.24342,0 -0.45482,-0.22198 -0.45482,-0.50747 z"
         fill="#4bb2e1"
         fill-rule="evenodd"
         id="path1039-7"
         style="fill:#92979a;fill-opacity:1;stroke-width:0.264583" /><path
         d="m 86.78065,132.30982 c 0,-0.0635 0.0529,-0.127 0.10583,-0.127 0.0635,0 0.10583,0.0635 0.10583,0.127 0,0.0741 -0.0423,0.127 -0.10583,0.127 -0.0529,0 -0.10583,-0.0529 -0.10583,-0.127 z"
         fill="#ffffff"
         fill-rule="evenodd"
         id="path1041-5"
         style="fill:#92979a;fill-opacity:1;stroke-width:0.264583" /><path
         d="m 86.78065,132.30982 c 0,-0.0635 0.0529,-0.127 0.10583,-0.127 0.0635,0 0.10583,0.0635 0.10583,0.127 0,0.0741 -0.0423,0.127 -0.10583,0.127 -0.0529,0 -0.10583,-0.0529 -0.10583,-0.127"
         fill="none"
         stroke="#ffffff"
         stroke-width="0.127"
         stroke-miterlimit="8"
         id="path1043-6"
         style="fill:#92979a;fill-opacity:1" /><path
         d="m 83.69243,127.12689 c 0,-0.2749 0.22225,-0.50747 0.48657,-0.50747 0.27516,0 0.48657,0.23284 0.48657,0.50774 0,0.28575 -0.21167,0.50773 -0.48684,0.50773 -0.26432,0 -0.4863,-0.22225 -0.4863,-0.508 z"
         fill="#4bb2e1"
         fill-rule="evenodd"
         id="path1045-9"
         style="fill:#92979a;fill-opacity:1;stroke-width:0.264583" /><path
         d="m 83.90383,127.02133 c 0,-0.0635 0.0635,-0.127 0.13758,-0.127 0.0847,0 0.13759,0.0635 0.13759,0.127 0,0.0741 -0.0529,0.127 -0.13759,0.127 -0.0741,0 -0.13758,-0.0529 -0.13758,-0.127 z"
         fill="#ffffff"
         fill-rule="evenodd"
         id="path1047-8"
         style="fill:#92979a;fill-opacity:1;stroke-width:0.264583" /><path
         d="m 83.90383,127.02133 c 0,-0.0635 0.0635,-0.127 0.13758,-0.127 0.0847,0 0.13759,0.0635 0.13759,0.127 0,0.0741 -0.0529,0.127 -0.13759,0.127 -0.0741,0 -0.13758,-0.0529 -0.13758,-0.127"
         fill="none"
         stroke="#ffffff"
         stroke-width="0.127"
         stroke-miterlimit="8"
         id="path1049-7"
         style="fill:#92979a;fill-opacity:1" /><path
         d="m 91.0116,132.81755 c 0,-0.27516 0.1905,-0.508 0.41275,-0.508 0.23257,0 0.41222,0.23284 0.41222,0.508 0,0.28575 -0.17992,0.50774 -0.41249,0.50774 -0.22225,0 -0.41248,-0.22225 -0.41248,-0.508 z"
         fill="#4bb2e1"
         fill-rule="evenodd"
         id="path1051-2"
         style="fill:#92979a;fill-opacity:1;stroke-width:0.264583" /><path
         d="m 91.13833,132.6588 c 0,-0.0741 0.0529,-0.13758 0.11642,-0.13758 0.0741,0 0.11642,0.0635 0.11642,0.13758 0,0.0847 -0.0423,0.13759 -0.11642,0.13759 -0.0635,0 -0.11642,-0.0529 -0.11642,-0.13759 z"
         fill="#ffffff"
         fill-rule="evenodd"
         id="path1053-8"
         style="fill:#92979a;fill-opacity:1;stroke-width:0.264583" /><path
         d="m 91.13833,132.6588 c 0,-0.0741 0.0529,-0.13758 0.11642,-0.13758 0.0741,0 0.11642,0.0635 0.11642,0.13758 0,0.0847 -0.0423,0.13759 -0.11642,0.13759 -0.0635,0 -0.11642,-0.0529 -0.11642,-0.13759"
         fill="none"
         stroke="#ffffff"
         stroke-width="0.127"
         stroke-miterlimit="8"
         id="path1055-2"
         style="fill:#92979a;fill-opacity:1" /><path
         d="m 90.44036,138.39153 c 0,-0.23283 0.21167,-0.43365 0.46567,-0.43365 0.26432,0 0.46514,0.20108 0.46514,0.43365 0,0.24342 -0.20109,0.43365 -0.46541,0.43365 -0.254,0 -0.4654,-0.1905 -0.4654,-0.43365 z"
         fill="#4bb2e1"
         fill-rule="evenodd"
         id="path1057-9"
         style="fill:#92979a;fill-opacity:1;stroke-width:0.264583" /><path
         d="m 90.65203,138.27511 c 0,-0.0318 0.0318,-0.0635 0.0635,-0.0635 0.0423,0 0.0635,0.0317 0.0635,0.0635 0,0.0423 -0.0212,0.0635 -0.0635,0.0635 -0.0318,0 -0.0635,-0.0212 -0.0635,-0.0635 z"
         fill="#ffffff"
         fill-rule="evenodd"
         id="path1059-9"
         style="fill:#92979a;fill-opacity:1;stroke-width:0.264583" /><path
         d="m 90.65203,138.27511 c 0,-0.0318 0.0318,-0.0635 0.0635,-0.0635 0.0423,0 0.0635,0.0317 0.0635,0.0635 0,0.0423 -0.0212,0.0635 -0.0635,0.0635 -0.0318,0 -0.0635,-0.0212 -0.0635,-0.0635"
         fill="none"
         stroke="#ffffff"
         stroke-width="0.127"
         stroke-miterlimit="8"
         id="path1061-6"
         style="fill:#92979a;fill-opacity:1" /><path
         d="m 91.58283,142.86563 c 0,-0.27516 0.1905,-0.508 0.42307,-0.508 0.24342,0 0.42307,0.23284 0.42307,0.508 0,0.28575 -0.17992,0.50774 -0.42333,0.50774 -0.23257,0 -0.42281,-0.22225 -0.42281,-0.508 z"
         fill="#4bb2e1"
         fill-rule="evenodd"
         id="path1063-0"
         style="fill:#92979a;fill-opacity:1;stroke-width:0.264583" /><path
         d="m 91.70983,142.7598 c 0,-0.0635 0.0529,-0.127 0.11642,-0.127 0.0738,0 0.11615,0.0635 0.11615,0.127 0,0.0741 -0.0423,0.127 -0.11642,0.127 -0.0635,0 -0.11641,-0.0529 -0.11641,-0.127 z"
         fill="#ffffff"
         fill-rule="evenodd"
         id="path1065-2"
         style="fill:#92979a;fill-opacity:1;stroke-width:0.264583" /><path
         d="m 91.70983,142.7598 c 0,-0.0635 0.0529,-0.127 0.11642,-0.127 0.0738,0 0.11615,0.0635 0.11615,0.127 0,0.0741 -0.0423,0.127 -0.11642,0.127 -0.0635,0 -0.11641,-0.0529 -0.11641,-0.127"
         fill="none"
         stroke="#ffffff"
         stroke-width="0.127"
         stroke-miterlimit="8"
         id="path1067-7"
         style="fill:#92979a;fill-opacity:1" /><path
         d="m 80.64628,147.13865 c 0,-0.27516 0.21167,-0.50773 0.4654,-0.50773 0.26459,0 0.4654,0.23283 0.4654,0.50773 0,0.28575 -0.20108,0.50774 -0.46566,0.50774 -0.25374,0 -0.46514,-0.22225 -0.46514,-0.508 z"
         fill="#4bb2e1"
         fill-rule="evenodd"
         id="path1069-6"
         style="fill:#92979a;fill-opacity:1;stroke-width:0.264583" /><path
         d="m 80.73095,147.03282 c 0,-0.0635 0.0635,-0.127 0.13758,-0.127 0.0847,0 0.13732,0.0635 0.13732,0.127 0,0.0741 -0.0529,0.127 -0.13758,0.127 -0.0741,0 -0.13759,-0.0529 -0.13759,-0.127 z"
         fill="#ffffff"
         fill-rule="evenodd"
         id="path1071-1"
         style="fill:#92979a;fill-opacity:1;stroke-width:0.264583" /><path
         d="m 80.73095,147.03282 c 0,-0.0635 0.0635,-0.127 0.13758,-0.127 0.0847,0 0.13732,0.0635 0.13732,0.127 0,0.0741 -0.0529,0.127 -0.13758,0.127 -0.0741,0 -0.13759,-0.0529 -0.13759,-0.127"
         fill="none"
         stroke="#ffffff"
         stroke-width="0.127"
         stroke-miterlimit="8"
         id="path1073-3"
         style="fill:#92979a;fill-opacity:1" /><path
         d="m 82.84629,143.94434 c 0,-0.24342 0.22225,-0.44424 0.48657,-0.44424 0.2749,0 0.48657,0.20109 0.48657,0.4445 0,0.25374 -0.21167,0.44398 -0.48683,0.44398 -0.26432,0 -0.48631,-0.1905 -0.48631,-0.44424 z"
         fill="#4bb2e1"
         fill-rule="evenodd"
         id="path1075-2"
         style="fill:#92979a;fill-opacity:1;stroke-width:0.264583" /><path
         d="m 83.12146,143.74352 c 0,-0.0635 0.0526,-0.11642 0.10557,-0.11642 0.0635,0 0.10583,0.0529 0.10583,0.11642 0,0.0741 -0.0423,0.11642 -0.10583,0.11642 -0.0529,0 -0.10584,-0.0423 -0.10584,-0.11642 z"
         fill="#ffffff"
         fill-rule="evenodd"
         id="path1077-1"
         style="fill:#92979a;fill-opacity:1;stroke-width:0.264583" /><path
         d="m 83.12146,143.74352 c 0,-0.0635 0.0526,-0.11642 0.10557,-0.11642 0.0635,0 0.10583,0.0529 0.10583,0.11642 0,0.0741 -0.0423,0.11642 -0.10583,0.11642 -0.0529,0 -0.10584,-0.0423 -0.10584,-0.11642"
         fill="none"
         stroke="#ffffff"
         stroke-width="0.127"
         stroke-miterlimit="8"
         id="path1079-5"
         style="fill:#92979a;fill-opacity:1" /><path
         d="m 87.22515,143.88084 c 0,-0.2749 0.22225,-0.50747 0.48656,-0.50747 0.27491,0 0.48631,0.23257 0.48631,0.50747 0,0.28575 -0.2114,0.508 -0.48631,0.508 -0.26458,0 -0.48683,-0.22225 -0.48683,-0.508 z"
         fill="#4bb2e1"
         fill-rule="evenodd"
         id="path1081-9"
         style="fill:#92979a;fill-opacity:1;stroke-width:0.264583" /><path
         d="m 87.47915,143.74352 c 0,-0.0635 0.0212,-0.11642 0.0421,-0.11642 0.0318,0 0.0423,0.0529 0.0423,0.11642 0,0.0741 -0.0106,0.11642 -0.0423,0.11642 -0.0212,0 -0.0423,-0.0423 -0.0423,-0.11642 z"
         fill="#ffffff"
         fill-rule="evenodd"
         id="path1083-9"
         style="fill:#92979a;fill-opacity:1;stroke-width:0.264583" /><path
         d="m 87.47915,143.74352 c 0,-0.0635 0.0212,-0.11642 0.0421,-0.11642 0.0318,0 0.0423,0.0529 0.0423,0.11642 0,0.0741 -0.0106,0.11642 -0.0423,0.11642 -0.0212,0 -0.0423,-0.0423 -0.0423,-0.11642"
         fill="none"
         stroke="#ffffff"
         stroke-width="0.127"
         stroke-miterlimit="8"
         id="path1085-1"
         style="fill:#92979a;fill-opacity:1" /><path
         d="m 88.89625,135.19721 c 0,-0.26458 0.21167,-0.49715 0.46541,-0.49715 0.26458,0 0.4654,0.23284 0.4654,0.49742 0,0.2749 -0.20109,0.49689 -0.46567,0.49689 -0.25373,0 -0.46514,-0.22225 -0.46514,-0.49716 z"
         fill="#4bb2e1"
         fill-rule="evenodd"
         id="path1087-4"
         style="fill:#92979a;fill-opacity:1;stroke-width:0.264583" /><path
         d="m 89.10766,135.0599 c 0,-0.0529 0.0423,-0.10584 0.0741,-0.10584 0.0423,0 0.0741,0.0529 0.0741,0.10584 0,0.0635 -0.0318,0.10583 -0.0741,0.10583 -0.0318,0 -0.0741,-0.0423 -0.0741,-0.10583 z"
         fill="#ffffff"
         fill-rule="evenodd"
         id="path1089-9"
         style="fill:#92979a;fill-opacity:1;stroke-width:0.264583" /><path
         d="m 89.10766,135.0599 c 0,-0.0529 0.0423,-0.10584 0.0741,-0.10584 0.0423,0 0.0741,0.0529 0.0741,0.10584 0,0.0635 -0.0318,0.10583 -0.0741,0.10583 -0.0318,0 -0.0741,-0.0423 -0.0741,-0.10583"
         fill="none"
         stroke="#ffffff"
         stroke-width="0.127"
         stroke-miterlimit="8"
         id="path1091-1"
         style="fill:#92979a;fill-opacity:1" /><path
         d="m 93.61351,134.50983 c 0,-0.24342 0.1905,-0.4445 0.41275,-0.4445 0.23257,0 0.41222,0.20108 0.41222,0.4445 0,0.254 -0.17992,0.44423 -0.41248,0.44423 -0.22225,0 -0.41249,-0.1905 -0.41249,-0.4445 z"
         fill="#4bb2e1"
         fill-rule="evenodd"
         id="path1093-0"
         style="fill:#92979a;fill-opacity:1;stroke-width:0.264583" /><path
         d="m 93.74051,134.42516 c 0,-0.0635 0.0529,-0.127 0.10583,-0.127 0.0635,0 0.10584,0.0635 0.10584,0.127 0,0.0741 -0.0423,0.127 -0.10584,0.127 -0.0529,0 -0.10583,-0.0529 -0.10583,-0.127 z"
         fill="#ffffff"
         fill-rule="evenodd"
         id="path1095-7"
         style="fill:#92979a;fill-opacity:1;stroke-width:0.264583" /><path
         d="m 93.74051,134.42516 c 0,-0.0635 0.0529,-0.127 0.10583,-0.127 0.0635,0 0.10584,0.0635 0.10584,0.127 0,0.0741 -0.0423,0.127 -0.10584,0.127 -0.0529,0 -0.10583,-0.0529 -0.10583,-0.127"
         fill="none"
         stroke="#ffffff"
         stroke-width="0.127"
         stroke-miterlimit="8"
         id="path1097-5"
         style="fill:#92979a;fill-opacity:1" /><path
         d="m 89.10766,128.41753 c 0,-0.27517 0.22225,-0.50773 0.48683,-0.50773 0.2749,0 0.4863,0.23283 0.4863,0.50773 0,0.28575 -0.21166,0.50774 -0.48657,0.50774 -0.26458,0 -0.48656,-0.22225 -0.48656,-0.508 z"
         fill="#4bb2e1"
         fill-rule="evenodd"
         id="path1099-8"
         style="fill:#92979a;fill-opacity:1;stroke-width:0.264583" /><path
         d="m 89.38282,128.25878 c 0,-0.0741 0.0529,-0.13758 0.10584,-0.13758 0.0635,0 0.10583,0.0635 0.10583,0.13758 0,0.0847 -0.0423,0.13758 -0.10583,0.13758 -0.0529,0 -0.10584,-0.0529 -0.10584,-0.13758 z"
         fill="#ffffff"
         fill-rule="evenodd"
         id="path1101-7"
         style="fill:#92979a;fill-opacity:1;stroke-width:0.264583" /><path
         d="m 89.38282,128.25878 c 0,-0.0741 0.0529,-0.13758 0.10584,-0.13758 0.0635,0 0.10583,0.0635 0.10583,0.13758 0,0.0847 -0.0423,0.13758 -0.10583,0.13758 -0.0529,0 -0.10584,-0.0529 -0.10584,-0.13758"
         fill="none"
         stroke="#ffffff"
         stroke-width="0.127"
         stroke-miterlimit="8"
         id="path1103-0"
         style="fill:#92979a;fill-opacity:1" /><path
         d="m 85.1098,128.75593 c 0,-0.27516 0.22225,-0.50773 0.48631,-0.50773 0.27516,0 0.48683,0.23283 0.48683,0.50773 0,0.28575 -0.21167,0.50774 -0.48683,0.50774 -0.26432,0 -0.48631,-0.22225 -0.48631,-0.50774 z"
         fill="#4bb2e1"
         fill-rule="evenodd"
         id="path1105-4"
         style="fill:#92979a;fill-opacity:1;stroke-width:0.264583" /><path
         d="m 85.36354,128.6501 c 0,-0.0635 0.0212,-0.127 0.0423,-0.127 0.0317,0 0.0423,0.0635 0.0423,0.127 0,0.0741 -0.0106,0.127 -0.0423,0.127 -0.0212,0 -0.0423,-0.0529 -0.0423,-0.127 z"
         fill="#ffffff"
         fill-rule="evenodd"
         id="path1107-8"
         style="fill:#92979a;fill-opacity:1;stroke-width:0.264583" /><path
         d="m 85.36354,128.6501 c 0,-0.0635 0.0212,-0.127 0.0423,-0.127 0.0317,0 0.0423,0.0635 0.0423,0.127 0,0.0741 -0.0106,0.127 -0.0423,0.127 -0.0212,0 -0.0423,-0.0529 -0.0423,-0.127"
         fill="none"
         stroke="#ffffff"
         stroke-width="0.127"
         stroke-miterlimit="8"
         id="path1109-0"
         style="fill:#92979a;fill-opacity:1" /><path
         d="m 83.90383,132.28865 c 0,-0.27517 0.22225,-0.50774 0.48683,-0.50774 0.27491,0 0.48631,0.23284 0.48631,0.50774 0,0.28575 -0.21167,0.50774 -0.48657,0.50774 -0.26458,0 -0.48657,-0.22225 -0.48657,-0.508 z"
         fill="#4bb2e1"
         fill-rule="evenodd"
         id="path1111-4"
         style="fill:#92979a;fill-opacity:1;stroke-width:0.264583" /><path
         d="m 84.179,132.18308 c 0,-0.0635 0.0529,-0.127 0.10583,-0.127 0.0635,0 0.10583,0.0635 0.10583,0.127 0,0.0738 -0.0423,0.12674 -0.10583,0.12674 -0.0529,0 -0.10583,-0.0529 -0.10583,-0.127 z"
         fill="#ffffff"
         fill-rule="evenodd"
         id="path1113-2"
         style="fill:#92979a;fill-opacity:1;stroke-width:0.264583" /><path
         d="m 84.179,132.18308 c 0,-0.0635 0.0529,-0.127 0.10583,-0.127 0.0635,0 0.10583,0.0635 0.10583,0.127 0,0.0738 -0.0423,0.12674 -0.10583,0.12674 -0.0529,0 -0.10583,-0.0529 -0.10583,-0.127"
         fill="none"
         stroke="#ffffff"
         stroke-width="0.127"
         stroke-miterlimit="8"
         id="path1115-9"
         style="fill:#92979a;fill-opacity:1" /><path
         d="m 71.803906,133.91743 c 0,-0.27517 0.1905,-0.50774 0.41275,-0.50774 0.232569,0 0.412221,0.23283 0.412221,0.508 0,0.28549 -0.179917,0.50747 -0.412486,0.50747 -0.22225,0 -0.412485,-0.22225 -0.412485,-0.50773 z"
         fill="#4bb2e1"
         fill-rule="evenodd"
         id="path1117-6"
         style="fill:#92979a;fill-opacity:1;stroke-width:0.264583" /><path
         d="m 71.930906,133.81159 c 0,-0.0635 0.05292,-0.127 0.105833,-0.127 0.0635,0 0.105833,0.0635 0.105833,0.127 0,0.0741 -0.04233,0.127 -0.105833,0.127 -0.05292,0 -0.105833,-0.0529 -0.105833,-0.127 z"
         fill="#ffffff"
         fill-rule="evenodd"
         id="path1119-1"
         style="fill:#92979a;fill-opacity:1;stroke-width:0.264583" /><path
         d="m 71.930906,133.81159 c 0,-0.0635 0.05292,-0.127 0.105833,-0.127 0.0635,0 0.105833,0.0635 0.105833,0.127 0,0.0741 -0.04233,0.127 -0.105833,0.127 -0.05292,0 -0.105833,-0.0529 -0.105833,-0.127"
         fill="none"
         stroke="#ffffff"
         stroke-width="0.127"
         stroke-miterlimit="8"
         id="path1121-0"
         style="fill:#92979a;fill-opacity:1" /><path
         d="m 72.713543,136.62517 c 0,-0.24342 0.22225,-0.44423 0.486569,-0.44423 0.275167,0 0.486569,0.20108 0.486569,0.44423 0,0.254 -0.211667,0.44424 -0.486834,0.44424 -0.264318,0 -0.486304,-0.1905 -0.486304,-0.44424 z"
         fill="#4bb2e1"
         fill-rule="evenodd"
         id="path1123-4"
         style="fill:#92979a;fill-opacity:1;stroke-width:0.264583" /><path
         d="m 72.86171,136.4561 c 0,-0.0635 0.05292,-0.127 0.105833,-0.127 0.0635,0 0.105834,0.0635 0.105834,0.127 0,0.0741 -0.04233,0.127 -0.105834,0.127 -0.05292,0 -0.105833,-0.0529 -0.105833,-0.127 z"
         fill="#ffffff"
         fill-rule="evenodd"
         id="path1125-2"
         style="fill:#92979a;fill-opacity:1;stroke-width:0.264583" /><path
         d="m 72.86171,136.4561 c 0,-0.0635 0.05292,-0.127 0.105833,-0.127 0.0635,0 0.105834,0.0635 0.105834,0.127 0,0.0741 -0.04233,0.127 -0.105834,0.127 -0.05292,0 -0.105833,-0.0529 -0.105833,-0.127"
         fill="none"
         stroke="#ffffff"
         stroke-width="0.127"
         stroke-miterlimit="8"
         id="path1127-2"
         style="fill:#92979a;fill-opacity:1" /><path
         d="m 74.87122,134.68948 c 0,-0.25374 0.211667,-0.47572 0.465402,-0.47572 0.264584,0 0.465403,0.22198 0.465403,0.47572 0,0.26458 -0.201084,0.47625 -0.465403,0.47625 -0.254,0 -0.465402,-0.21167 -0.465402,-0.47625 z"
         fill="#4bb2e1"
         fill-rule="evenodd"
         id="path1129-2"
         style="fill:#92979a;fill-opacity:1;stroke-width:0.264583" /><path
         d="m 75.103789,134.56274 c 0,-0.0741 0.03175,-0.13758 0.0635,-0.13758 0.04233,0 0.0635,0.0635 0.0635,0.13758 0,0.0847 -0.02117,0.13759 -0.0635,0.13759 -0.03175,0 -0.0635,-0.0529 -0.0635,-0.13759 z"
         fill="#ffffff"
         fill-rule="evenodd"
         id="path1131-0"
         style="fill:#92979a;fill-opacity:1;stroke-width:0.264583" /><path
         d="m 75.103789,134.56274 c 0,-0.0741 0.03175,-0.13758 0.0635,-0.13758 0.04233,0 0.0635,0.0635 0.0635,0.13758 0,0.0847 -0.02117,0.13759 -0.0635,0.13759 -0.03175,0 -0.0635,-0.0529 -0.0635,-0.13759"
         fill="none"
         stroke="#ffffff"
         stroke-width="0.127"
         stroke-miterlimit="8"
         id="path1133-5"
         style="fill:#92979a;fill-opacity:1" /><path
         d="m 75.675025,136.68867 c 0,-0.27517 0.1905,-0.50773 0.41275,-0.50773 0.232568,0 0.41222,0.23283 0.41222,0.50773 0,0.28575 -0.179916,0.50774 -0.412485,0.50774 -0.22225,0 -0.412485,-0.22225 -0.412485,-0.508 z"
         fill="#4bb2e1"
         fill-rule="evenodd"
         id="path1135-5"
         style="fill:#92979a;fill-opacity:1;stroke-width:0.264583" /><path
         d="m 75.802025,136.5831 c 0,-0.0635 0.05292,-0.127 0.116416,-0.127 0.07408,0 0.116417,0.0635 0.116417,0.127 0,0.0738 -0.04233,0.12674 -0.116417,0.12674 -0.0635,0 -0.116416,-0.0529 -0.116416,-0.127 z"
         fill="#ffffff"
         fill-rule="evenodd"
         id="path1137-2"
         style="fill:#92979a;fill-opacity:1;stroke-width:0.264583" /><path
         d="m 75.802025,136.5831 c 0,-0.0635 0.05292,-0.127 0.116416,-0.127 0.07408,0 0.116417,0.0635 0.116417,0.127 0,0.0738 -0.04233,0.12674 -0.116417,0.12674 -0.0635,0 -0.116416,-0.0529 -0.116416,-0.127"
         fill="none"
         stroke="#ffffff"
         stroke-width="0.127"
         stroke-miterlimit="8"
         id="path1139-9"
         style="fill:#92979a;fill-opacity:1" /><path
         d="m 72.375141,143.26754 c 0,-0.27517 0.22225,-0.50774 0.475986,-0.50774 0.264318,0 0.475985,0.23283 0.475985,0.50774 0,0.28575 -0.211667,0.50773 -0.47625,0.50773 -0.253735,0 -0.475721,-0.22225 -0.475721,-0.508 z"
         fill="#4bb2e1"
         fill-rule="evenodd"
         id="path1141-0"
         style="fill:#92979a;fill-opacity:1;stroke-width:0.264583" /><path
         d="m 72.501877,143.10879 c 0,-0.0741 0.05292,-0.13759 0.105833,-0.13759 0.0635,0 0.105833,0.0635 0.105833,0.13759 0,0.0847 -0.04233,0.13758 -0.105833,0.13758 -0.05292,0 -0.105833,-0.0529 -0.105833,-0.13758 z"
         fill="#ffffff"
         fill-rule="evenodd"
         id="path1143-2"
         style="fill:#92979a;fill-opacity:1;stroke-width:0.264583" /><path
         d="m 72.501877,143.10879 c 0,-0.0741 0.05292,-0.13759 0.105833,-0.13759 0.0635,0 0.105833,0.0635 0.105833,0.13759 0,0.0847 -0.04233,0.13758 -0.105833,0.13758 -0.05292,0 -0.105833,-0.0529 -0.105833,-0.13758"
         fill="none"
         stroke="#ffffff"
         stroke-width="0.127"
         stroke-miterlimit="8"
         id="path1145-8"
         style="fill:#92979a;fill-opacity:1" /><path
         d="m 75.590358,144.89631 c 0,-0.27517 0.211667,-0.50773 0.455083,-0.50773 0.253736,0 0.454554,0.23283 0.454554,0.508 0,0.28522 -0.201083,0.50747 -0.454818,0.50747 -0.243417,0 -0.454819,-0.22225 -0.454819,-0.50774 z"
         fill="#4bb2e1"
         fill-rule="evenodd"
         id="path1147-3"
         style="fill:#92979a;fill-opacity:1;stroke-width:0.264583" /><path
         d="m 75.675025,144.73756 c 0,-0.0741 0.0635,-0.13758 0.127,-0.13758 0.07408,0 0.127,0.0635 0.127,0.13758 0,0.0847 -0.05292,0.13758 -0.127,0.13758 -0.0635,0 -0.127,-0.0529 -0.127,-0.13758 z"
         fill="#ffffff"
         fill-rule="evenodd"
         id="path1149-8"
         style="fill:#92979a;fill-opacity:1;stroke-width:0.264583" /><path
         d="m 75.675025,144.73756 c 0,-0.0741 0.0635,-0.13758 0.127,-0.13758 0.07408,0 0.127,0.0635 0.127,0.13758 0,0.0847 -0.05292,0.13758 -0.127,0.13758 -0.0635,0 -0.127,-0.0529 -0.127,-0.13758"
         fill="none"
         stroke="#ffffff"
         stroke-width="0.127"
         stroke-miterlimit="8"
         id="path1151-0"
         style="fill:#92979a;fill-opacity:1" /><path
         d="m 77.705966,152.76555 c 0,-0.24342 0.211402,-0.44424 0.454554,-0.44424 0.254,0 0.455084,0.20109 0.455084,0.44424 0,0.254 -0.201084,0.44423 -0.455084,0.44423 -0.243152,0 -0.454554,-0.1905 -0.454554,-0.44423 z"
         fill="#4bb2e1"
         fill-rule="evenodd"
         id="path1153-4"
         style="fill:#92979a;fill-opacity:1;stroke-width:0.264583" /><path
         d="m 77.790368,152.56473 c 0,-0.0635 0.0635,-0.11642 0.127,-0.11642 0.07408,0 0.127,0.0529 0.127,0.11642 0,0.0741 -0.05292,0.11642 -0.127,0.11642 -0.0635,0 -0.127,-0.0423 -0.127,-0.11642 z"
         fill="#ffffff"
         fill-rule="evenodd"
         id="path1155-0"
         style="fill:#92979a;fill-opacity:1;stroke-width:0.264583" /><path
         d="m 77.790368,152.56473 c 0,-0.0635 0.0635,-0.11642 0.127,-0.11642 0.07408,0 0.127,0.0529 0.127,0.11642 0,0.0741 -0.05292,0.11642 -0.127,0.11642 -0.0635,0 -0.127,-0.0423 -0.127,-0.11642"
         fill="none"
         stroke="#ffffff"
         stroke-width="0.127"
         stroke-miterlimit="8"
         id="path1157-9"
         style="fill:#92979a;fill-opacity:1" /><path
         d="m 78.615604,150.79837 c 0,-0.27517 0.221985,-0.508 0.486306,-0.508 0.27516,0 0.48683,0.23283 0.48683,0.508 0,0.28549 -0.21167,0.50747 -0.48683,0.50747 -0.264586,0 -0.486571,-0.22225 -0.486571,-0.50747 z"
         fill="#4bb2e1"
         fill-rule="evenodd"
         id="path1159-1"
         style="fill:#92979a;fill-opacity:1;stroke-width:0.264583" /><path
         d="m 78.848172,150.67137 c 0,-0.0529 0.0635,-0.10583 0.127,-0.10583 0.07408,0 0.126998,0.0529 0.126998,0.10583 0,0.0635 -0.05291,0.10583 -0.126998,0.10583 -0.0635,0 -0.127,-0.0423 -0.127,-0.10583 z"
         fill="#ffffff"
         fill-rule="evenodd"
         id="path1161-9"
         style="fill:#92979a;fill-opacity:1;stroke-width:0.264583" /><path
         d="m 78.848172,150.67137 c 0,-0.0529 0.0635,-0.10583 0.127,-0.10583 0.07408,0 0.126998,0.0529 0.126998,0.10583 0,0.0635 -0.05291,0.10583 -0.126998,0.10583 -0.0635,0 -0.127,-0.0423 -0.127,-0.10583"
         fill="none"
         stroke="#ffffff"
         stroke-width="0.127"
         stroke-miterlimit="8"
         id="path1163-6"
         style="fill:#92979a;fill-opacity:1" /><path
         d="m 80.30788,149.52916 c 0,-0.27516 0.21167,-0.508 0.45482,-0.508 0.25373,0 0.45455,0.23284 0.45455,0.508 0,0.28549 -0.20108,0.50748 -0.45455,0.50748 -0.24342,0 -0.45509,-0.22225 -0.45509,-0.50774 z"
         fill="#4bb2e1"
         fill-rule="evenodd"
         id="path1165-2"
         style="fill:#92979a;fill-opacity:1;stroke-width:0.264583" /><path
         d="m 80.51928,149.41275 c 0,-0.0741 0.0317,-0.13759 0.0635,-0.13759 0.0423,0 0.0635,0.0635 0.0635,0.13759 0,0.0847 -0.0212,0.13758 -0.0635,0.13758 -0.0318,0 -0.0635,-0.0529 -0.0635,-0.13758 z"
         fill="#ffffff"
         fill-rule="evenodd"
         id="path1167-5"
         style="fill:#92979a;fill-opacity:1;stroke-width:0.264583" /><path
         d="m 80.51928,149.41275 c 0,-0.0741 0.0317,-0.13759 0.0635,-0.13759 0.0423,0 0.0635,0.0635 0.0635,0.13759 0,0.0847 -0.0212,0.13758 -0.0635,0.13758 -0.0318,0 -0.0635,-0.0529 -0.0635,-0.13758"
         fill="none"
         stroke="#ffffff"
         stroke-width="0.127"
         stroke-miterlimit="8"
         id="path1169-4"
         style="fill:#92979a;fill-opacity:1" /><path
         d="m 69.773229,135.8211 c 0,-0.2749 0.22225,-0.50747 0.486569,-0.50747 0.274902,0 0.486304,0.23283 0.486304,0.50774 0,0.28575 -0.211402,0.50773 -0.486304,0.50773 -0.264584,0 -0.486834,-0.22225 -0.486834,-0.508 z"
         fill="#4bb2e1"
         fill-rule="evenodd"
         id="path1171-4"
         style="fill:#92979a;fill-opacity:1;stroke-width:0.264583" /><path
         d="m 70.027229,135.70495 c 0,-0.0741 0.05265,-0.13758 0.116152,-0.13758 0.07408,0 0.116417,0.0635 0.116417,0.13758 0,0.0847 -0.04233,0.13758 -0.116417,0.13758 -0.0635,0 -0.116417,-0.0529 -0.116417,-0.13758 z"
         fill="#ffffff"
         fill-rule="evenodd"
         id="path1173-9"
         style="fill:#92979a;fill-opacity:1;stroke-width:0.264583" /><path
         d="m 70.027229,135.70495 c 0,-0.0741 0.05265,-0.13758 0.116152,-0.13758 0.07408,0 0.116417,0.0635 0.116417,0.13758 0,0.0847 -0.04233,0.13758 -0.116417,0.13758 -0.0635,0 -0.116417,-0.0529 -0.116417,-0.13758"
         fill="none"
         stroke="#ffffff"
         stroke-width="0.127"
         stroke-miterlimit="8"
         id="path1175-9"
         style="fill:#92979a;fill-opacity:1" /><path
         d="m 70.746102,139.84065 c 0,-0.26458 0.211666,-0.48683 0.455083,-0.48683 0.253735,0 0.454554,0.22225 0.454554,0.48683 0,0.2749 -0.201083,0.48657 -0.454819,0.48657 -0.243152,0 -0.454818,-0.21167 -0.454818,-0.48683 z"
         fill="#4bb2e1"
         fill-rule="evenodd"
         id="path1177-3"
         style="fill:#92979a;fill-opacity:1;stroke-width:0.264583" /><path
         d="m 70.957768,139.71365 c 0,-0.0635 0.0635,-0.127 0.127,-0.127 0.07408,0 0.127,0.0635 0.127,0.127 0,0.0741 -0.05292,0.127 -0.127,0.127 -0.0635,0 -0.127,-0.0529 -0.127,-0.127 z"
         fill="#ffffff"
         fill-rule="evenodd"
         id="path1179-6"
         style="fill:#92979a;fill-opacity:1;stroke-width:0.264583" /><path
         d="m 70.957768,139.71365 c 0,-0.0635 0.0635,-0.127 0.127,-0.127 0.07408,0 0.127,0.0635 0.127,0.127 0,0.0741 -0.05292,0.127 -0.127,0.127 -0.0635,0 -0.127,-0.0529 -0.127,-0.127"
         fill="none"
         stroke="#ffffff"
         stroke-width="0.127"
         stroke-miterlimit="8"
         id="path1181-0"
         style="fill:#92979a;fill-opacity:1" /><path
         d="m 86.29434,147.64639 c 0,-0.26458 0.21167,-0.48683 0.4654,-0.48683 0.26459,0 0.46541,0.22225 0.46541,0.48683 0,0.27517 -0.20109,0.48657 -0.46567,0.48657 -0.25374,0 -0.46514,-0.21167 -0.46514,-0.48683 z"
         fill="#4bb2e1"
         fill-rule="evenodd"
         id="path1183-5"
         style="fill:#92979a;fill-opacity:1;stroke-width:0.264583" /><path
         d="m 86.50574,147.51939 c 0,-0.0635 0.0635,-0.127 0.13759,-0.127 0.0847,0 0.13758,0.0635 0.13758,0.127 0,0.0741 -0.0529,0.127 -0.13758,0.127 -0.0741,0 -0.13759,-0.0529 -0.13759,-0.127 z"
         fill="#ffffff"
         fill-rule="evenodd"
         id="path1185-0"
         style="fill:#92979a;fill-opacity:1;stroke-width:0.264583" /><path
         d="m 86.50574,147.51939 c 0,-0.0635 0.0635,-0.127 0.13759,-0.127 0.0847,0 0.13758,0.0635 0.13758,0.127 0,0.0741 -0.0529,0.127 -0.13758,0.127 -0.0741,0 -0.13759,-0.0529 -0.13759,-0.127"
         fill="none"
         stroke="#ffffff"
         stroke-width="0.127"
         stroke-miterlimit="8"
         id="path1187-2"
         style="fill:#92979a;fill-opacity:1" /></g></g><metadata
     id="metadata11227"><rdf:RDF><cc:Work
         rdf:about=""><dc:date>t 2022 - V1 du TST</dc:date><dc:creator><cc:Agent><dc:title>Paulhenry Saux</dc:title></cc:Agent></dc:creator><dc:publisher><cc:Agent><dc:title>Paulhenry.eu</dc:title></cc:Agent></dc:publisher><dc:language>FR</dc:language><dc:contributor><cc:Agent><dc:title>basophil-granulocyte icon by Servier https://smart.servier.com/ is licensed under CC-BY 3.0 Unported https://creativecommons.org/licenses/by/3.0/</dc:title></cc:Agent></dc:contributor><cc:license
           rdf:resource="http://creativecommons.org/licenses/by-sa/4.0/" /></cc:Work><cc:License
         rdf:about="http://creativecommons.org/licenses/by-sa/4.0/"><cc:permits
           rdf:resource="http://creativecommons.org/ns#Reproduction" /><cc:permits
           rdf:resource="http://creativecommons.org/ns#Distribution" /><cc:requires
           rdf:resource="http://creativecommons.org/ns#Notice" /><cc:requires
           rdf:resource="http://creativecommons.org/ns#Attribution" /><cc:permits
           rdf:resource="http://creativecommons.org/ns#DerivativeWorks" /><cc:requires
           rdf:resource="http://creativecommons.org/ns#ShareAlike" /></cc:License></rdf:RDF></metadata></svg>
