<?xml version="1.0" encoding="UTF-8" standalone="no"?>
<!-- Created with Inkscape (http://www.inkscape.org/) -->

<svg
   width="30.410814mm"
   height="32.002159mm"
   viewBox="0 0 30.410814 32.002159"
   version="1.1"
   id="svg5527"
   inkscape:version="1.2 (1:1.2.1+202207142221+cd75a1ee6d)"
   sodipodi:docname="chap4-fig5.svg"
   xml:space="preserve"
   xmlns:inkscape="http://www.inkscape.org/namespaces/inkscape"
   xmlns:sodipodi="http://sodipodi.sourceforge.net/DTD/sodipodi-0.dtd"
   xmlns="http://www.w3.org/2000/svg"
   xmlns:svg="http://www.w3.org/2000/svg"
   xmlns:rdf="http://www.w3.org/1999/02/22-rdf-syntax-ns#"
   xmlns:cc="http://creativecommons.org/ns#"
   xmlns:dc="http://purl.org/dc/elements/1.1/"><sodipodi:namedview
     id="namedview5529"
     pagecolor="#ffffff"
     bordercolor="#666666"
     borderopacity="1.0"
     inkscape:showpageshadow="2"
     inkscape:pageopacity="0.0"
     inkscape:pagecheckerboard="0"
     inkscape:deskcolor="#d1d1d1"
     inkscape:document-units="mm"
     showgrid="false"
     inkscape:zoom="2.9480639"
     inkscape:cx="59.869802"
     inkscape:cy="72.081206"
     inkscape:window-width="1366"
     inkscape:window-height="740"
     inkscape:window-x="0"
     inkscape:window-y="0"
     inkscape:window-maximized="1"
     inkscape:current-layer="layer1" /><defs
     id="defs5524"><clipPath
       clipPathUnits="userSpaceOnUse"
       id="a-7"><path
         d="m 2.718,-0.08 h 116.41 V 122.166 H 2.718 Z"
         id="path816" /></clipPath><clipPath
       clipPathUnits="userSpaceOnUse"
       id="clipPath8618"><path
         d="m 2.718,-0.08 h 116.41 V 122.166 H 2.718 Z"
         id="path8616" /></clipPath><clipPath
       clipPathUnits="userSpaceOnUse"
       id="a"><path
         d="m 2.718,-0.08 h 116.41 V 122.166 H 2.718 Z"
         id="path30056" /></clipPath></defs><g
     inkscape:label="Calque 1"
     inkscape:groupmode="layer"
     id="layer1"
     transform="translate(-61.891066,-160.82312)"><g
       id="g30619"
       transform="matrix(0.26458333,0,0,0.26458333,60.99767,160.6854)"><path
         clip-path="url(#a)"
         d="M 13.512,28.623 C 10.394,36.698 7.276,37.177 5.916,50.969 4.157,65.24 1,66.64 9.474,84.27 c 8.915,17.59 8.475,16.15 20.508,25.664 11.593,9.035 25.424,12.353 38.776,10.474 13.832,-2.399 15.63,-1.919 27.664,-10.474 11.593,-9.034 16.47,-9.994 17.829,-23.785 0.88,-14.272 5.317,-21.867 2.678,-38.537 -2.678,-16.63 -4.037,-21.387 -14.71,-30.901 C 89.705,6.236 85.708,1 58.963,1 32.66,1 16.63,20.507 13.512,28.622 Z"
         fill="#f8e1e2"
         fill-rule="evenodd"
         id="path30061" /><path
         d="m 31.301,90.945 c 3.598,5.716 10.274,12.832 17.83,9.994 1.318,-0.48 2.678,-3.318 4.876,-2.838 1.8,0.44 3.998,8.075 5.797,9.474 8.435,9.034 21.787,1.439 16.03,-11.393 -2.239,-5.717 -8.035,-11.873 -13.352,-12.833 -4.477,-0.48 -7.555,0.48 -10.673,-2.878 z"
         fill="#f3c9cb"
         fill-rule="evenodd"
         id="path30063" /><path
         d="m 49.13,92.864 c 1.36,-4.278 4.917,-4.757 7.556,-1.92 2.678,2.4 2.238,6.677 2.678,9.515 0.88,2.878 2.678,6.676 5.317,8.595 3.997,1.879 12.912,0 15.55,-4.278 -1.759,-0.959 -3.517,-1.918 -4.877,-3.357 C 70.917,96.661 70.477,90.025 66.919,85.229 64.241,81.91 58.485,79.992 54.487,80.471 Z"
         fill="#eba8ad"
         fill-rule="evenodd"
         id="path30065" /><path
         d="M 114.29,48.57 C 112.052,32.42 110.693,28.143 100.46,19.108 96.462,15.75 93.343,12.912 90.225,10.993 c 0.88,0.48 1.76,1.44 2.639,1.92 10.273,9.034 11.593,13.311 13.831,29.501 2.679,16.15 -18.269,18.989 -19.588,32.3 -0.92,13.313 8.875,13.313 -2.238,21.907 -11.593,8.076 -10.714,12.353 -23.626,14.712 -12.912,1.918 -25.864,-1.4 -36.978,-9.994 l -0.48,-0.44 c 1.8,1.879 4.478,3.798 8.036,6.636 11.593,8.555 24.065,11.873 36.977,9.994 12.952,-2.399 14.711,-1.92 25.865,-9.994 11.593,-8.555 16.03,-9.514 17.39,-22.826 0.879,-13.312 4.876,-20.428 2.238,-36.138 z"
         fill="#f3c9cb"
         fill-rule="evenodd"
         id="path30067" /><path
         d="m 98.54,60.004 c 2.239,1.439 3.558,6.676 2.679,9.514 -0.88,2.358 -3.558,2.838 -4.478,5.197 3.598,4.277 8.035,8.075 7.596,14.231 -0.44,8.555 -9.834,9.954 -15.63,12.313 6.275,-7.076 -0.88,-12.313 -3.119,-18.949 -1.359,-4.757 3.118,-10.913 5.357,-14.711 z"
         fill="#eba8ad"
         fill-rule="evenodd"
         id="path30069" /><path
         d="m 68.798,117.409 c 12.952,-2.359 14.711,-1.879 25.865,-9.954 11.593,-8.555 16.03,-9.514 17.39,-22.826 0.879,-13.312 4.876,-20.428 2.238,-36.138 -0.92,8.115 0,13.791 -3.598,22.826 -3.558,9.034 -0.44,19.988 -7.116,25.185 -6.236,5.716 -11.153,7.635 -16.03,12.352 -4.477,4.757 -12.033,8.115 -18.749,8.555 z"
         fill="#eba8ad"
         fill-rule="evenodd"
         id="path30071" /><path
         d="M 18.829,88.027 C 10.833,71.397 13.952,69.957 15.271,56.646 17.07,43.813 19.268,36.698 21.947,29.102 25.065,21.467 38.417,6.756 63.8,6.756 c 8.475,0 16.95,0.96 21.387,2.358 4.877,0.96 4.438,1.92 0.88,0 C 80.27,5.796 72.715,4.357 58.484,4.357 c -24.945,0 -39.656,18.07 -42.775,25.665 -3.118,7.635 -5.796,8.075 -7.115,21.387 -1.36,12.832 -4.477,14.75 3.558,30.901 7.555,15.67 7.555,15.19 17.35,22.786 -3.559,-3.318 -5.318,-6.636 -10.674,-17.07 z"
         fill="#ffffff"
         fill-rule="evenodd"
         id="path30073" /><path
         d="m 42.094,49.01 c 9.795,-5.237 15.111,-21.387 3.998,-28.023 -5.796,-3.358 -12.472,-1.919 -16.03,4.757 -4.877,8.076 -0.88,11.873 3.118,18.03 3.118,5.236 -0.88,12.352 -4.877,17.589 -2.239,2.878 -5.797,3.798 -6.676,8.075 -0.48,4.757 3.118,11.913 5.756,15.71 3.558,5.677 9.355,13.272 16.47,12.353 6.676,-0.96 7.116,-6.676 10.234,-11.433 3.558,-5.197 9.355,-3.318 10.234,3.358 0.88,5.676 -3.118,9.474 1.799,15.67 4.877,6.157 12.912,4.757 19.588,2.359 11.113,-4.757 23.546,-21.387 9.314,-28.983 -2.678,-0.959 -4.437,-1.399 -3.557,-3.797 2.678,-5.237 8.914,-4.757 8.474,-11.873 -0.44,-7.116 -10.233,-15.67 -16.47,-11.873 -15.15,10.434 12.473,21.867 -1.359,30.422 -4.437,0.92 -3.997,-5.717 -7.555,-5.237 -2.199,0.48 -4.877,5.237 -6.676,5.676 -3.118,0.96 -4.437,-2.358 -7.116,-3.318 -0.88,0 -2.678,-1.878 -1.319,-4.277 1.759,-3.798 3.998,-7.116 1.32,-11.873 -4.438,-6.636 -9.355,-2.838 -14.672,-1.439 -3.558,0.96 -7.555,1.44 -8.475,-3.318 -0.88,-3.798 1.36,-7.116 4.477,-8.555 z"
         fill="#ab538b"
         fill-rule="evenodd"
         id="path30075" /><path
         d="m 32.66,57.605 c -0.88,2.878 -3.118,6.236 -6.236,8.115 -3.118,2.399 -4.477,6.676 2.239,18.589 -1.8,-2.838 -3.558,-11.913 -1.8,-15.71 1.8,-3.838 5.797,-8.595 5.797,-10.994 z m 9.275,5.757 c 4.037,0.48 7.595,-1.48 10.713,-2.439 3.118,-1.479 6.676,1.48 7.116,3.398 -1.32,-1.919 -4.877,-2.439 -8.915,-0.96 -2.638,0.96 -6.676,0.96 -8.914,0 z m 49.17,-10.554 c -3.558,-0.96 -5.797,-0.96 -8.475,1.919 -2.718,3.358 -1.799,7.195 2.678,13.432 -2.238,-2.879 -3.598,-10.074 -0.92,-12.473 3.159,-2.398 4.478,-2.878 6.717,-2.878 z M 69.118,82.83 c 2.718,-0.96 4.078,-5.237 5.837,-4.757 1.359,0.48 2.718,5.716 5.836,5.716 2.718,-0.48 5.397,-3.797 5.836,-4.757 -0.879,4.278 -3.557,7.116 -6.715,6.676 -3.159,-0.48 -4.038,-5.716 -5.397,-5.716 -1.32,0 -3.118,2.838 -5.397,2.838 z M 43.294,21.467 c -4.877,-1.44 -11.153,0.96 -13.392,7.196 -1.799,5.716 2.678,10.993 4.037,13.352 -1.798,-3.798 -3.118,-13.352 1.76,-16.71 z"
         fill="#c596b8"
         fill-rule="evenodd"
         id="path30077" /><path
         d="m 48.69,24.825 c 1.8,3.358 3.558,11.873 -1.758,17.59 -4.917,5.676 -8.915,4.716 -10.274,10.873 0,-6.636 6.236,-9.954 8.475,-14.671 2.678,-4.278 4.477,-10.914 3.557,-13.792 z M 31.301,88.107 c 2.239,5.196 11.153,10.833 15.15,6.116 4.038,-4.717 4.918,-11.313 9.395,-12.273 3.998,-0.96 5.757,0.48 5.757,0.48 -6.237,-4.277 -7.995,-4.277 -11.553,0.48 -3.598,4.237 -11.154,14.151 -18.749,5.197 z M 65.6,94.663 c -1.359,5.236 2.239,18.109 18.709,11.433 16.47,-7.156 19.108,-21.947 10.673,-24.825 2.679,2.398 1.76,12.912 -8.035,18.149 -9.794,5.716 -21.786,5.716 -21.347,-4.757 z M 93.663,55.127 c 3.598,2.398 6.716,8.155 4.038,11.033 -2.239,2.398 -7.636,5.756 -7.636,8.155 0,-5.277 5.397,-7.196 5.837,-11.033 0.48,-3.358 -0.44,-6.716 -2.239,-8.155 z"
         fill="#94056c"
         fill-rule="evenodd"
         id="path30079" /><path
         clip-path="url(#a)"
         d="M 13.552,28.663 C 10.434,36.738 7.316,37.217 5.956,51.009 4.197,65.28 1.04,66.68 9.514,84.31 c 8.915,17.59 8.475,16.15 20.508,25.664 11.593,9.035 25.424,12.353 38.776,10.474 13.832,-2.399 15.63,-1.919 27.664,-10.474 11.593,-9.034 16.47,-9.994 17.829,-23.785 0.88,-14.272 5.317,-21.867 2.678,-38.537 C 114.291,31.022 112.932,26.265 102.258,16.751 89.746,6.276 85.748,1.04 59.004,1.04 32.7,1.04 16.67,20.547 13.552,28.662"
         fill="none"
         stroke="#333333"
         stroke-width="1.039"
         stroke-linecap="round"
         stroke-linejoin="round"
         id="path30081" /><path
         d="m 42.134,49.05 c 9.795,-5.237 15.111,-21.387 3.998,-28.023 -5.796,-3.358 -12.472,-1.919 -16.03,4.757 -4.877,8.075 -0.88,11.873 3.118,18.03 3.118,5.236 -0.88,12.352 -4.877,17.589 -2.239,2.878 -5.797,3.797 -6.676,8.075 -0.48,4.757 3.118,11.913 5.756,15.71 3.558,5.677 9.355,13.272 16.47,12.353 6.676,-0.96 7.116,-6.676 10.234,-11.433 3.558,-5.197 9.355,-3.318 10.234,3.358 0.88,5.676 -3.118,9.474 1.799,15.67 4.877,6.157 12.912,4.757 19.588,2.359 11.113,-4.757 23.546,-21.387 9.314,-28.983 -2.678,-0.959 -4.437,-1.399 -3.557,-3.797 2.678,-5.237 8.914,-4.757 8.474,-11.873 -0.44,-7.116 -10.233,-15.67 -16.47,-11.873 -15.15,10.434 12.473,21.867 -1.359,30.422 -4.437,0.92 -3.997,-5.717 -7.555,-5.237 -2.199,0.48 -4.877,5.237 -6.676,5.676 -3.118,0.96 -4.437,-2.358 -7.116,-3.318 -0.88,0 -2.678,-1.878 -1.32,-4.277 1.76,-3.798 3.999,-7.116 1.32,-11.873 -4.437,-6.636 -9.354,-2.838 -14.671,-1.439 -3.558,0.96 -7.555,1.44 -8.475,-3.318 -0.88,-3.798 1.36,-7.116 4.477,-8.555"
         fill="none"
         stroke="#333333"
         stroke-width="1.039"
         stroke-linecap="round"
         stroke-linejoin="round"
         id="path30083" /><path
         d="m 27.783,23.346 c 0,-3.678 2.798,-6.676 6.236,-6.676 3.478,0 6.237,2.998 6.237,6.676 0,3.718 -2.759,6.676 -6.237,6.676 -3.438,0 -6.236,-2.958 -6.236,-6.676 z m 14.152,-2.119 c 0,-1.959 1.519,-3.598 3.358,-3.598 1.878,0 3.358,1.64 3.358,3.598 0,1.999 -1.48,3.598 -3.358,3.598 -1.84,0 -3.358,-1.6 -3.358,-3.598 z m -18.149,9.794 c 0,-1.559 1.199,-2.838 2.678,-2.838 1.48,0 2.678,1.28 2.678,2.838 0,1.6 -1.199,2.838 -2.678,2.838 -1.48,0 -2.678,-1.239 -2.678,-2.838 z"
         fill="#ffffff"
         fill-rule="evenodd"
         id="path30085" /><path
         d="m 44.653,74.715 c 0,-1.56 1.2,-2.879 2.638,-2.879 1.48,0 2.639,1.32 2.639,2.879 0,1.599 -1.16,2.878 -2.639,2.878 -1.439,0 -2.638,-1.28 -2.638,-2.878 z"
         fill="#4bb2e1"
         fill-rule="evenodd"
         id="path30087" /><path
         d="m 45.932,74.035 c 0,-0.4 0.24,-0.76 0.52,-0.76 0.32,0 0.52,0.36 0.52,0.76 0,0.44 -0.2,0.76 -0.52,0.76 -0.28,0 -0.52,-0.32 -0.52,-0.76 z"
         fill="#ffffff"
         fill-rule="evenodd"
         id="path30089" /><path
         d="m 45.932,74.035 c 0,-0.4 0.24,-0.76 0.52,-0.76 0.32,0 0.52,0.36 0.52,0.76 0,0.44 -0.2,0.76 -0.52,0.76 -0.28,0 -0.52,-0.32 -0.52,-0.76"
         fill="none"
         stroke="#ffffff"
         stroke-width="0.48"
         stroke-miterlimit="8"
         id="path30091" /><path
         d="m 32.1,85.148 c 0,-1.559 1.24,-2.838 2.759,-2.838 1.559,0 2.758,1.28 2.758,2.838 0,1.6 -1.2,2.839 -2.758,2.839 -1.52,0 -2.758,-1.24 -2.758,-2.839 z"
         fill="#4bb2e1"
         fill-rule="evenodd"
         id="path30093" /><path
         d="m 33.46,84.469 c 0,-0.32 0.24,-0.64 0.48,-0.64 0.28,0 0.48,0.32 0.48,0.64 0,0.36 -0.2,0.64 -0.48,0.64 -0.24,0 -0.48,-0.28 -0.48,-0.64 z"
         fill="#ffffff"
         fill-rule="evenodd"
         id="path30095" /><path
         d="m 33.46,84.469 c 0,-0.32 0.24,-0.64 0.48,-0.64 0.28,0 0.48,0.32 0.48,0.64 0,0.36 -0.2,0.64 -0.48,0.64 -0.24,0 -0.48,-0.28 -0.48,-0.64"
         fill="none"
         stroke="#ffffff"
         stroke-width="0.48"
         stroke-miterlimit="8"
         id="path30097" /><path
         d="m 102.618,46.132 c 0,-1.559 1.2,-2.838 2.638,-2.838 1.48,0 2.639,1.279 2.639,2.838 0,1.6 -1.16,2.838 -2.639,2.838 -1.439,0 -2.638,-1.239 -2.638,-2.838 z"
         fill="#4bb2e1"
         fill-rule="evenodd"
         id="path30099" /><path
         d="m 103.417,45.492 a 0.7,0.7 0 0 1 0.68,-0.68 c 0.4,0 0.68,0.32 0.68,0.68 0,0.4 -0.28,0.68 -0.68,0.68 -0.36,0 -0.68,-0.28 -0.68,-0.68 z"
         fill="#ffffff"
         fill-rule="evenodd"
         id="path30101" /><path
         d="m 103.417,45.492 a 0.7,0.7 0 0 1 0.68,-0.68 c 0.4,0 0.68,0.32 0.68,0.68 0,0.4 -0.28,0.68 -0.68,0.68 -0.36,0 -0.68,-0.28 -0.68,-0.68"
         fill="none"
         stroke="#ffffff"
         stroke-width="0.48"
         stroke-miterlimit="8"
         id="path30103" /><path
         d="m 100.779,30.222 c 0,-1.68 1.2,-3.078 2.638,-3.078 1.48,0 2.639,1.399 2.639,3.078 0,1.719 -1.16,3.078 -2.639,3.078 -1.439,0 -2.638,-1.36 -2.638,-3.078 z"
         fill="#4bb2e1"
         fill-rule="evenodd"
         id="path30105" /><path
         d="m 101.738,29.342 a 0.7,0.7 0 0 1 0.68,-0.68 c 0.4,0 0.68,0.32 0.68,0.68 0,0.4 -0.28,0.68 -0.68,0.68 -0.36,0 -0.68,-0.28 -0.68,-0.68 z"
         fill="#ffffff"
         fill-rule="evenodd"
         id="path30107" /><path
         d="m 101.738,29.342 a 0.7,0.7 0 0 1 0.68,-0.68 c 0.4,0 0.68,0.32 0.68,0.68 0,0.4 -0.28,0.68 -0.68,0.68 -0.36,0 -0.68,-0.28 -0.68,-0.68"
         fill="none"
         stroke="#ffffff"
         stroke-width="0.48"
         stroke-miterlimit="8"
         id="path30109" /><path
         d="m 66.08,29.102 c 0,-1.599 1.2,-2.918 2.678,-2.918 1.48,0 2.679,1.32 2.679,2.918 0,1.64 -1.2,2.919 -2.679,2.919 -1.479,0 -2.678,-1.28 -2.678,-2.919 z"
         fill="#4bb2e1"
         fill-rule="evenodd"
         id="path30111" /><path
         d="m 66.96,28.303 c 0,-0.36 0.32,-0.68 0.639,-0.68 0.36,0 0.64,0.32 0.64,0.68 0,0.4 -0.28,0.68 -0.64,0.68 -0.32,0 -0.64,-0.28 -0.64,-0.68 z"
         fill="#ffffff"
         fill-rule="evenodd"
         id="path30113" /><path
         d="m 66.96,28.303 c 0,-0.36 0.32,-0.68 0.639,-0.68 0.36,0 0.64,0.32 0.64,0.68 0,0.4 -0.28,0.68 -0.64,0.68 -0.32,0 -0.64,-0.28 -0.64,-0.68"
         fill="none"
         stroke="#ffffff"
         stroke-width="0.48"
         stroke-miterlimit="8"
         id="path30115" /><path
         d="m 17.47,54.727 c 0,-1.56 1.199,-2.878 2.678,-2.878 1.479,0 2.678,1.319 2.678,2.878 0,1.599 -1.2,2.878 -2.678,2.878 -1.48,0 -2.679,-1.28 -2.679,-2.878 z"
         fill="#4bb2e1"
         fill-rule="evenodd"
         id="path30117" /><path
         d="m 18.429,54.047 c 0,-0.4 0.32,-0.76 0.68,-0.76 0.4,0 0.679,0.36 0.679,0.76 0,0.44 -0.28,0.76 -0.68,0.76 -0.36,0 -0.68,-0.32 -0.68,-0.76 z"
         fill="#ffffff"
         fill-rule="evenodd"
         id="path30119" /><path
         d="m 18.429,54.047 c 0,-0.4 0.32,-0.76 0.68,-0.76 0.4,0 0.679,0.36 0.679,0.76 0,0.44 -0.28,0.76 -0.68,0.76 -0.36,0 -0.68,-0.32 -0.68,-0.76"
         fill="none"
         stroke="#ffffff"
         stroke-width="0.48"
         stroke-miterlimit="8"
         id="path30121" /><path
         d="m 77.273,58.045 c 0,-1.6 1.2,-2.918 2.679,-2.918 1.479,0 2.678,1.319 2.678,2.918 0,1.639 -1.2,2.918 -2.678,2.918 -1.48,0 -2.679,-1.28 -2.679,-2.918 z"
         fill="#4bb2e1"
         fill-rule="evenodd"
         id="path30123" /><path
         d="m 78.632,57.405 c 0,-0.4 0.32,-0.76 0.64,-0.76 0.36,0 0.64,0.36 0.64,0.76 0,0.44 -0.28,0.76 -0.64,0.76 -0.32,0 -0.64,-0.32 -0.64,-0.76 z"
         fill="#ffffff"
         fill-rule="evenodd"
         id="path30125" /><path
         d="m 78.632,57.405 c 0,-0.4 0.32,-0.76 0.64,-0.76 0.36,0 0.64,0.36 0.64,0.76 0,0.44 -0.28,0.76 -0.64,0.76 -0.32,0 -0.64,-0.32 -0.64,-0.76"
         fill="none"
         stroke="#ffffff"
         stroke-width="0.48"
         stroke-miterlimit="8"
         id="path30127" /><path
         d="m 82.63,24.825 c 0,-1.52 1.2,-2.798 2.638,-2.798 1.48,0 2.639,1.279 2.639,2.798 0,1.559 -1.16,2.798 -2.639,2.798 -1.439,0 -2.638,-1.239 -2.638,-2.798 z"
         fill="#4bb2e1"
         fill-rule="evenodd"
         id="path30129" /><path
         d="m 83.43,24.065 c 0,-0.4 0.32,-0.76 0.679,-0.76 0.4,0 0.68,0.36 0.68,0.76 0,0.44 -0.28,0.76 -0.68,0.76 -0.36,0 -0.68,-0.32 -0.68,-0.76 z"
         fill="#ffffff"
         fill-rule="evenodd"
         id="path30131" /><path
         d="m 83.43,24.065 c 0,-0.4 0.32,-0.76 0.679,-0.76 0.4,0 0.68,0.36 0.68,0.76 0,0.44 -0.28,0.76 -0.68,0.76 -0.36,0 -0.68,-0.32 -0.68,-0.76"
         fill="none"
         stroke="#ffffff"
         stroke-width="0.48"
         stroke-miterlimit="8"
         id="path30133" /><path
         d="m 68.798,48.73 c 0,-1.718 1.2,-3.118 2.639,-3.118 1.479,0 2.638,1.4 2.638,3.118 0,1.76 -1.16,3.119 -2.638,3.119 -1.44,0 -2.639,-1.36 -2.639,-3.119 z"
         fill="#4bb2e1"
         fill-rule="evenodd"
         id="path30135" /><path
         d="m 70.078,48.05 c 0,-0.239 0.32,-0.439 0.68,-0.439 0.399,0 0.679,0.2 0.679,0.44 0,0.28 -0.28,0.44 -0.68,0.44 -0.36,0 -0.68,-0.16 -0.68,-0.44 z"
         fill="#ffffff"
         fill-rule="evenodd"
         id="path30137" /><path
         d="m 70.078,48.05 c 0,-0.239 0.32,-0.439 0.68,-0.439 0.399,0 0.679,0.2 0.679,0.44 0,0.28 -0.28,0.44 -0.68,0.44 -0.36,0 -0.68,-0.16 -0.68,-0.44"
         fill="none"
         stroke="#ffffff"
         stroke-width="0.48"
         stroke-miterlimit="8"
         id="path30139" /><path
         d="m 91.105,29.982 a 2.85,2.85 0 0 1 2.838,-2.838 2.824,2.824 0 0 1 2.838,2.838 c 0,1.599 -1.239,2.838 -2.838,2.838 a 2.824,2.824 0 0 1 -2.838,-2.838 z"
         fill="#4bb2e1"
         fill-rule="evenodd"
         id="path30141" /><path
         d="m 92.384,29.342 a 0.7,0.7 0 0 1 0.68,-0.68 c 0.4,0 0.68,0.32 0.68,0.68 0,0.4 -0.28,0.68 -0.68,0.68 -0.36,0 -0.68,-0.28 -0.68,-0.68 z"
         fill="#ffffff"
         fill-rule="evenodd"
         id="path30143" /><path
         d="m 92.384,29.342 a 0.7,0.7 0 0 1 0.68,-0.68 c 0.4,0 0.68,0.32 0.68,0.68 0,0.4 -0.28,0.68 -0.68,0.68 -0.36,0 -0.68,-0.28 -0.68,-0.68"
         fill="none"
         stroke="#ffffff"
         stroke-width="0.48"
         stroke-miterlimit="8"
         id="path30145" /><path
         d="m 44.653,39.256 c 0,-1.679 1.2,-3.078 2.638,-3.078 1.48,0 2.639,1.4 2.639,3.078 0,1.72 -1.16,3.078 -2.639,3.078 -1.439,0 -2.638,-1.359 -2.638,-3.078 z"
         fill="#4bb2e1"
         fill-rule="evenodd"
         id="path30147" /><path
         d="m 45.612,38.297 a 0.7,0.7 0 0 1 0.68,-0.68 c 0.4,0 0.68,0.32 0.68,0.68 0,0.4 -0.28,0.68 -0.68,0.68 -0.36,0 -0.68,-0.28 -0.68,-0.68 z"
         fill="#ffffff"
         fill-rule="evenodd"
         id="path30149" /><path
         d="m 45.612,38.297 a 0.7,0.7 0 0 1 0.68,-0.68 c 0.4,0 0.68,0.32 0.68,0.68 0,0.4 -0.28,0.68 -0.68,0.68 -0.36,0 -0.68,-0.28 -0.68,-0.68"
         fill="none"
         stroke="#ffffff"
         stroke-width="0.48"
         stroke-miterlimit="8"
         id="path30151" /><path
         d="m 37.137,71.397 c 0,-1.6 1.2,-2.919 2.639,-2.919 1.479,0 2.638,1.32 2.638,2.919 0,1.639 -1.159,2.918 -2.638,2.918 -1.44,0 -2.639,-1.28 -2.639,-2.918 z"
         fill="#4bb2e1"
         fill-rule="evenodd"
         id="path30153" /><path
         d="m 38.417,70.717 c 0,-0.36 0.32,-0.72 0.68,-0.72 0.4,0 0.679,0.36 0.679,0.72 0,0.4 -0.28,0.72 -0.68,0.72 -0.36,0 -0.68,-0.32 -0.68,-0.72 z"
         fill="#ffffff"
         fill-rule="evenodd"
         id="path30155" /><path
         d="m 38.417,70.717 c 0,-0.36 0.32,-0.72 0.68,-0.72 0.4,0 0.679,0.36 0.679,0.72 0,0.4 -0.28,0.72 -0.68,0.72 -0.36,0 -0.68,-0.32 -0.68,-0.72"
         fill="none"
         stroke="#ffffff"
         stroke-width="0.48"
         stroke-miterlimit="8"
         id="path30157" /><path
         d="m 55.766,65.88 c 0,-1.679 1.2,-3.078 2.679,-3.078 1.479,0 2.678,1.4 2.678,3.078 0,1.719 -1.2,3.078 -2.678,3.078 -1.48,0 -2.679,-1.359 -2.679,-3.078 z"
         fill="#4bb2e1"
         fill-rule="evenodd"
         id="path30159" /><path
         d="m 56.806,65.2 c 0,-0.2 0.32,-0.4 0.64,-0.4 0.359,0 0.639,0.2 0.639,0.4 0,0.24 -0.28,0.4 -0.64,0.4 -0.32,0 -0.64,-0.16 -0.64,-0.4 z"
         fill="#ffffff"
         fill-rule="evenodd"
         id="path30161" /><path
         d="m 56.806,65.2 c 0,-0.2 0.32,-0.4 0.64,-0.4 0.359,0 0.639,0.2 0.639,0.4 0,0.24 -0.28,0.4 -0.64,0.4 -0.32,0 -0.64,-0.16 -0.64,-0.4"
         fill="none"
         stroke="#ffffff"
         stroke-width="0.48"
         stroke-miterlimit="8"
         id="path30163" /><path
         d="m 67.759,93.303 c 0,-1.559 1.24,-2.838 2.758,-2.838 1.56,0 2.759,1.28 2.759,2.838 0,1.6 -1.2,2.839 -2.759,2.839 -1.519,0 -2.758,-1.24 -2.758,-2.839 z"
         fill="#4bb2e1"
         fill-rule="evenodd"
         id="path30165" /><path
         d="m 68.798,92.544 c 0,-0.36 0.32,-0.72 0.64,-0.72 0.36,0 0.64,0.36 0.64,0.72 0,0.4 -0.28,0.72 -0.64,0.72 -0.32,0 -0.64,-0.32 -0.64,-0.72 z"
         fill="#ffffff"
         fill-rule="evenodd"
         id="path30167" /><path
         d="m 68.798,92.544 c 0,-0.36 0.32,-0.72 0.64,-0.72 0.36,0 0.64,0.36 0.64,0.72 0,0.4 -0.28,0.72 -0.64,0.72 -0.32,0 -0.64,-0.32 -0.64,-0.72"
         fill="none"
         stroke="#ffffff"
         stroke-width="0.48"
         stroke-miterlimit="8"
         id="path30169" /><path
         d="m 57.605,80.871 c 0,-1.32 1.08,-2.399 2.399,-2.399 a 2.38,2.38 0 0 1 2.398,2.399 c 0,1.36 -1.04,2.399 -2.398,2.399 a 2.38,2.38 0 0 1 -2.399,-2.399 z"
         fill="#4bb2e1"
         fill-rule="evenodd"
         id="path30171" /><path
         d="m 58.405,80.471 c 0,-0.24 0.32,-0.48 0.68,-0.48 0.399,0 0.679,0.24 0.679,0.48 0,0.28 -0.28,0.48 -0.68,0.48 -0.36,0 -0.68,-0.2 -0.68,-0.48 z"
         fill="#ffffff"
         fill-rule="evenodd"
         id="path30173" /><path
         d="m 58.405,80.471 c 0,-0.24 0.32,-0.48 0.68,-0.48 0.399,0 0.679,0.24 0.679,0.48 0,0.28 -0.28,0.48 -0.68,0.48 -0.36,0 -0.68,-0.2 -0.68,-0.48"
         fill="none"
         stroke="#ffffff"
         stroke-width="0.48"
         stroke-miterlimit="8"
         id="path30175" /><path
         d="m 69.118,63.801 c 0,-1.279 1.04,-2.358 2.239,-2.358 1.239,0 2.238,1.08 2.238,2.358 0,1.32 -0.999,2.359 -2.238,2.359 -1.2,0 -2.239,-1.04 -2.239,-2.359 z"
         fill="#4bb2e1"
         fill-rule="evenodd"
         id="path30177" /><path
         d="m 70.078,63.082 c 0,-0.4 0.32,-0.76 0.68,-0.76 0.399,0 0.679,0.36 0.679,0.76 0,0.44 -0.28,0.76 -0.68,0.76 -0.36,0 -0.68,-0.32 -0.68,-0.76 z"
         fill="#ffffff"
         fill-rule="evenodd"
         id="path30179" /><path
         d="m 70.078,63.082 c 0,-0.4 0.32,-0.76 0.68,-0.76 0.399,0 0.679,0.36 0.679,0.76 0,0.44 -0.28,0.76 -0.68,0.76 -0.36,0 -0.68,-0.32 -0.68,-0.76"
         fill="none"
         stroke="#ffffff"
         stroke-width="0.48"
         stroke-miterlimit="8"
         id="path30181" /><path
         d="m 88.786,73.036 c 0,-1.4 1.04,-2.559 2.239,-2.559 1.24,0 2.238,1.16 2.238,2.559 0,1.439 -0.999,2.558 -2.238,2.558 -1.2,0 -2.239,-1.12 -2.239,-2.558 z"
         fill="#4bb2e1"
         fill-rule="evenodd"
         id="path30183" /><path
         d="m 89.746,72.316 c 0,-0.24 0.32,-0.48 0.68,-0.48 0.399,0 0.679,0.24 0.679,0.48 0,0.28 -0.28,0.48 -0.68,0.48 -0.36,0 -0.68,-0.2 -0.68,-0.48 z"
         fill="#ffffff"
         fill-rule="evenodd"
         id="path30185" /><path
         d="m 89.746,72.316 c 0,-0.24 0.32,-0.48 0.68,-0.48 0.399,0 0.679,0.24 0.679,0.48 0,0.28 -0.28,0.48 -0.68,0.48 -0.36,0 -0.68,-0.2 -0.68,-0.48"
         fill="none"
         stroke="#ffffff"
         stroke-width="0.48"
         stroke-miterlimit="8"
         id="path30187" /><path
         d="m 94.063,91.864 c 0,-1.319 1.04,-2.438 2.279,-2.438 1.279,0 2.278,1.12 2.278,2.438 0,1.36 -1,2.439 -2.278,2.439 -1.24,0 -2.279,-1.08 -2.279,-2.439 z"
         fill="#4bb2e1"
         fill-rule="evenodd"
         id="path30189" /><path
         d="m 95.102,91.385 c 0,-0.24 0.2,-0.44 0.4,-0.44 0.24,0 0.4,0.2 0.4,0.44 0,0.28 -0.16,0.44 -0.4,0.44 -0.2,0 -0.4,-0.16 -0.4,-0.44 z"
         fill="#ffffff"
         fill-rule="evenodd"
         id="path30191" /><path
         d="m 95.102,91.385 c 0,-0.24 0.2,-0.44 0.4,-0.44 0.24,0 0.4,0.2 0.4,0.44 0,0.28 -0.16,0.44 -0.4,0.44 -0.2,0 -0.4,-0.16 -0.4,-0.44"
         fill="none"
         stroke="#ffffff"
         stroke-width="0.48"
         stroke-miterlimit="8"
         id="path30193" /><path
         d="m 81.27,13.832 c 0,-1.28 1,-2.359 2.16,-2.359 1.199,0 2.158,1.08 2.158,2.359 0,1.319 -0.96,2.358 -2.159,2.358 -1.159,0 -2.158,-1.04 -2.158,-2.358 z"
         fill="#4bb2e1"
         fill-rule="evenodd"
         id="path30195" /><path
         d="m 82.07,13.112 c 0,-0.4 0.32,-0.76 0.68,-0.76 0.4,0 0.68,0.36 0.68,0.76 0,0.44 -0.28,0.76 -0.68,0.76 -0.36,0 -0.68,-0.32 -0.68,-0.76 z"
         fill="#ffffff"
         fill-rule="evenodd"
         id="path30197" /><path
         d="m 82.07,13.112 c 0,-0.4 0.32,-0.76 0.68,-0.76 0.4,0 0.68,0.36 0.68,0.76 0,0.44 -0.28,0.76 -0.68,0.76 -0.36,0 -0.68,-0.32 -0.68,-0.76"
         fill="none"
         stroke="#ffffff"
         stroke-width="0.48"
         stroke-miterlimit="8"
         id="path30199" /><path
         d="m 16.11,82.79 c 0,-1.28 1.04,-2.319 2.279,-2.319 1.28,0 2.278,1.04 2.278,2.319 0,1.319 -0.999,2.318 -2.278,2.318 -1.24,0 -2.279,-0.999 -2.279,-2.318 z"
         fill="#4bb2e1"
         fill-rule="evenodd"
         id="path30201" /><path
         d="m 16.99,82.31 c 0,-0.24 0.24,-0.48 0.48,-0.48 0.28,0 0.48,0.24 0.48,0.48 0,0.28 -0.2,0.48 -0.48,0.48 -0.24,0 -0.48,-0.2 -0.48,-0.48 z"
         fill="#ffffff"
         fill-rule="evenodd"
         id="path30203" /><path
         d="m 16.99,82.31 c 0,-0.24 0.24,-0.48 0.48,-0.48 0.28,0 0.48,0.24 0.48,0.48 0,0.28 -0.2,0.48 -0.48,0.48 -0.24,0 -0.48,-0.2 -0.48,-0.48"
         fill="none"
         stroke="#ffffff"
         stroke-width="0.48"
         stroke-miterlimit="8"
         id="path30205" /><path
         d="m 51.289,24.345 c 0,-1.279 1.04,-2.318 2.239,-2.318 1.239,0 2.238,1.039 2.238,2.318 0,1.32 -1,2.319 -2.238,2.319 -1.2,0 -2.24,-1 -2.24,-2.319 z"
         fill="#4bb2e1"
         fill-rule="evenodd"
         id="path30207" /><path
         d="m 52.248,23.586 c 0,-0.4 0.2,-0.76 0.44,-0.76 0.28,0 0.44,0.36 0.44,0.76 0,0.44 -0.16,0.76 -0.44,0.76 -0.24,0 -0.44,-0.32 -0.44,-0.76 z"
         fill="#ffffff"
         fill-rule="evenodd"
         id="path30209" /><path
         d="m 52.248,23.586 c 0,-0.4 0.2,-0.76 0.44,-0.76 0.28,0 0.44,0.36 0.44,0.76 0,0.44 -0.16,0.76 -0.44,0.76 -0.24,0 -0.44,-0.32 -0.44,-0.76"
         fill="none"
         stroke="#ffffff"
         stroke-width="0.48"
         stroke-miterlimit="8"
         id="path30211" /><path
         d="m 60.243,21.507 c 0,-1.56 1.32,-2.838 2.919,-2.838 1.639,0 2.918,1.279 2.918,2.838 0,1.599 -1.28,2.838 -2.918,2.838 -1.6,0 -2.919,-1.239 -2.919,-2.838 z"
         fill="#4bb2e1"
         fill-rule="evenodd"
         id="path30213" /><path
         d="m 61.603,20.747 c 0,-0.36 0.32,-0.72 0.68,-0.72 0.399,0 0.679,0.36 0.679,0.72 0,0.4 -0.28,0.72 -0.68,0.72 -0.36,0 -0.68,-0.32 -0.68,-0.72 z"
         fill="#ffffff"
         fill-rule="evenodd"
         id="path30215" /><path
         d="m 61.603,20.747 c 0,-0.36 0.32,-0.72 0.68,-0.72 0.399,0 0.679,0.36 0.679,0.72 0,0.4 -0.28,0.72 -0.68,0.72 -0.36,0 -0.68,-0.32 -0.68,-0.72"
         fill="none"
         stroke="#ffffff"
         stroke-width="0.48"
         stroke-miterlimit="8"
         id="path30217" /><path
         d="m 106.056,59.004 c 0,-1.559 1.239,-2.838 2.758,-2.838 1.56,0 2.758,1.28 2.758,2.838 0,1.6 -1.199,2.839 -2.758,2.839 -1.519,0 -2.758,-1.24 -2.758,-2.839 z"
         fill="#4bb2e1"
         fill-rule="evenodd"
         id="path30219" /><path
         d="m 107.095,58.285 c 0,-0.36 0.32,-0.68 0.64,-0.68 0.36,0 0.64,0.32 0.64,0.68 0,0.4 -0.28,0.68 -0.64,0.68 -0.32,0 -0.64,-0.28 -0.64,-0.68 z"
         fill="#ffffff"
         fill-rule="evenodd"
         id="path30221" /><path
         d="m 107.095,58.285 c 0,-0.36 0.32,-0.68 0.64,-0.68 0.36,0 0.64,0.32 0.64,0.68 0,0.4 -0.28,0.68 -0.64,0.68 -0.32,0 -0.64,-0.28 -0.64,-0.68"
         fill="none"
         stroke="#ffffff"
         stroke-width="0.48"
         stroke-miterlimit="8"
         id="path30223" /><path
         d="m 86.068,84.709 c 0,-1.56 1.319,-2.879 2.918,-2.879 1.64,0 2.918,1.32 2.918,2.879 0,1.599 -1.279,2.878 -2.918,2.878 -1.599,0 -2.918,-1.28 -2.918,-2.878 z"
         fill="#4bb2e1"
         fill-rule="evenodd"
         id="path30225" /><path
         d="m 87.427,83.95 a 0.7,0.7 0 0 1 0.68,-0.68 c 0.4,0 0.68,0.32 0.68,0.68 0,0.399 -0.28,0.679 -0.68,0.679 -0.36,0 -0.68,-0.28 -0.68,-0.68 z"
         fill="#ffffff"
         fill-rule="evenodd"
         id="path30227" /><path
         d="m 87.427,83.95 a 0.7,0.7 0 0 1 0.68,-0.68 c 0.4,0 0.68,0.32 0.68,0.68 0,0.399 -0.28,0.679 -0.68,0.679 -0.36,0 -0.68,-0.28 -0.68,-0.68"
         fill="none"
         stroke="#ffffff"
         stroke-width="0.48"
         stroke-miterlimit="8"
         id="path30229" /><path
         d="m 70.078,112.252 c 0,-1.56 1.319,-2.838 2.918,-2.838 1.639,0 2.918,1.279 2.918,2.838 0,1.599 -1.28,2.838 -2.918,2.838 -1.6,0 -2.918,-1.239 -2.918,-2.838 z"
         fill="#4bb2e1"
         fill-rule="evenodd"
         id="path30231" /><path
         d="m 71.437,111.373 c 0,-0.24 0.32,-0.44 0.68,-0.44 0.4,0 0.679,0.2 0.679,0.44 0,0.28 -0.28,0.44 -0.68,0.44 -0.36,0 -0.68,-0.16 -0.68,-0.44 z"
         fill="#ffffff"
         fill-rule="evenodd"
         id="path30233" /><path
         d="m 71.437,111.373 c 0,-0.24 0.32,-0.44 0.68,-0.44 0.4,0 0.679,0.2 0.679,0.44 0,0.28 -0.28,0.44 -0.68,0.44 -0.36,0 -0.68,-0.16 -0.68,-0.44"
         fill="none"
         stroke="#ffffff"
         stroke-width="0.48"
         stroke-miterlimit="8"
         id="path30235" /><path
         d="m 35.778,104.177 c 0,-1.6 1.2,-2.918 2.679,-2.918 1.479,0 2.678,1.319 2.678,2.918 0,1.639 -1.2,2.918 -2.678,2.918 -1.48,0 -2.679,-1.28 -2.679,-2.918 z"
         fill="#4bb2e1"
         fill-rule="evenodd"
         id="path30237" /><path
         d="m 36.658,103.537 c 0,-0.4 0.32,-0.76 0.64,-0.76 0.36,0 0.639,0.36 0.639,0.76 0,0.44 -0.28,0.76 -0.64,0.76 -0.32,0 -0.64,-0.32 -0.64,-0.76 z"
         fill="#ffffff"
         fill-rule="evenodd"
         id="path30239" /><path
         d="m 36.658,103.537 c 0,-0.4 0.32,-0.76 0.64,-0.76 0.36,0 0.639,0.36 0.639,0.76 0,0.44 -0.28,0.76 -0.64,0.76 -0.32,0 -0.64,-0.32 -0.64,-0.76"
         fill="none"
         stroke="#ffffff"
         stroke-width="0.48"
         stroke-miterlimit="8"
         id="path30241" /><path
         d="m 59.444,107.135 c 0,-1.559 1.2,-2.838 2.678,-2.838 1.48,0 2.679,1.279 2.679,2.838 0,1.6 -1.2,2.838 -2.679,2.838 -1.479,0 -2.678,-1.239 -2.678,-2.838 z"
         fill="#4bb2e1"
         fill-rule="evenodd"
         id="path30243" /><path
         d="m 60.243,106.336 c 0,-0.4 0.32,-0.76 0.68,-0.76 0.4,0 0.68,0.36 0.68,0.76 0,0.44 -0.28,0.76 -0.68,0.76 -0.36,0 -0.68,-0.32 -0.68,-0.76 z"
         fill="#ffffff"
         fill-rule="evenodd"
         id="path30245" /><path
         d="m 60.243,106.336 c 0,-0.4 0.32,-0.76 0.68,-0.76 0.4,0 0.68,0.36 0.68,0.76 0,0.44 -0.28,0.76 -0.68,0.76 -0.36,0 -0.68,-0.32 -0.68,-0.76"
         fill="none"
         stroke="#ffffff"
         stroke-width="0.48"
         stroke-miterlimit="8"
         id="path30247" /><path
         d="m 24.105,101.139 c 0,-1.72 1.2,-3.158 2.679,-3.158 1.479,0 2.678,1.439 2.678,3.158 0,1.759 -1.2,3.158 -2.678,3.158 -1.48,0 -2.679,-1.4 -2.679,-3.158 z"
         fill="#4bb2e1"
         fill-rule="evenodd"
         id="path30249" /><path
         d="m 25.145,100.46 c 0,-0.24 0.32,-0.48 0.64,-0.48 0.36,0 0.639,0.24 0.639,0.48 0,0.279 -0.28,0.479 -0.64,0.479 -0.32,0 -0.64,-0.2 -0.64,-0.48 z"
         fill="#ffffff"
         fill-rule="evenodd"
         id="path30251" /><path
         d="m 25.145,100.46 c 0,-0.24 0.32,-0.48 0.64,-0.48 0.36,0 0.639,0.24 0.639,0.48 0,0.279 -0.28,0.479 -0.64,0.479 -0.32,0 -0.64,-0.2 -0.64,-0.48"
         fill="none"
         stroke="#ffffff"
         stroke-width="0.48"
         stroke-miterlimit="8"
         id="path30253" /><path
         d="m 27.783,59.004 c 0,-1.559 1.2,-2.838 2.679,-2.838 1.479,0 2.678,1.28 2.678,2.838 0,1.6 -1.2,2.839 -2.678,2.839 -1.48,0 -2.679,-1.24 -2.679,-2.839 z"
         fill="#4bb2e1"
         fill-rule="evenodd"
         id="path30255" /><path
         d="m 28.663,58.285 c 0,-0.36 0.32,-0.68 0.64,-0.68 0.359,0 0.639,0.32 0.639,0.68 0,0.4 -0.28,0.68 -0.64,0.68 -0.32,0 -0.64,-0.28 -0.64,-0.68 z"
         fill="#ffffff"
         fill-rule="evenodd"
         id="path30257" /><path
         d="m 28.663,58.285 c 0,-0.36 0.32,-0.68 0.64,-0.68 0.359,0 0.639,0.32 0.639,0.68 0,0.4 -0.28,0.68 -0.64,0.68 -0.32,0 -0.64,-0.28 -0.64,-0.68"
         fill="none"
         stroke="#ffffff"
         stroke-width="0.48"
         stroke-miterlimit="8"
         id="path30259" /><path
         d="m 54.087,55.247 c 0,-1.6 1.2,-2.919 2.679,-2.919 1.479,0 2.678,1.32 2.678,2.919 0,1.639 -1.2,2.918 -2.678,2.918 -1.48,0 -2.679,-1.28 -2.679,-2.918 z"
         fill="#4bb2e1"
         fill-rule="evenodd"
         id="path30261" /><path
         d="m 54.967,54.327 c 0,-0.24 0.32,-0.48 0.64,-0.48 0.36,0 0.639,0.24 0.639,0.48 0,0.28 -0.28,0.48 -0.64,0.48 -0.32,0 -0.64,-0.2 -0.64,-0.48 z"
         fill="#ffffff"
         fill-rule="evenodd"
         id="path30263" /><path
         d="m 54.967,54.327 c 0,-0.24 0.32,-0.48 0.64,-0.48 0.36,0 0.639,0.24 0.639,0.48 0,0.28 -0.28,0.48 -0.64,0.48 -0.32,0 -0.64,-0.2 -0.64,-0.48"
         fill="none"
         stroke="#ffffff"
         stroke-width="0.48"
         stroke-miterlimit="8"
         id="path30265" /><path
         d="m 57.125,11.513 c 0,-1.559 1.2,-2.838 2.639,-2.838 1.479,0 2.638,1.279 2.638,2.838 0,1.6 -1.16,2.838 -2.638,2.838 -1.44,0 -2.639,-1.239 -2.639,-2.838 z"
         fill="#4bb2e1"
         fill-rule="evenodd"
         id="path30267" /><path
         d="m 58.405,10.753 c 0,-0.36 0.24,-0.72 0.52,-0.72 0.32,0 0.519,0.36 0.519,0.72 0,0.4 -0.2,0.72 -0.52,0.72 -0.28,0 -0.52,-0.32 -0.52,-0.72 z"
         fill="#ffffff"
         fill-rule="evenodd"
         id="path30269" /><path
         d="m 58.405,10.753 c 0,-0.36 0.24,-0.72 0.52,-0.72 0.32,0 0.519,0.36 0.519,0.72 0,0.4 -0.2,0.72 -0.52,0.72 -0.28,0 -0.52,-0.32 -0.52,-0.72"
         fill="none"
         stroke="#ffffff"
         stroke-width="0.48"
         stroke-miterlimit="8"
         id="path30271" /><path
         d="m 58.964,39.496 c 0,-1.559 1.2,-2.838 2.639,-2.838 1.479,0 2.638,1.279 2.638,2.838 0,1.6 -1.16,2.838 -2.638,2.838 -1.44,0 -2.639,-1.239 -2.639,-2.838 z"
         fill="#4bb2e1"
         fill-rule="evenodd"
         id="path30273" /><path
         d="m 59.764,38.816 c 0,-0.32 0.32,-0.64 0.68,-0.64 0.4,0 0.679,0.32 0.679,0.64 0,0.36 -0.28,0.64 -0.68,0.64 -0.36,0 -0.68,-0.28 -0.68,-0.64 z"
         fill="#ffffff"
         fill-rule="evenodd"
         id="path30275" /><path
         d="m 59.764,38.816 c 0,-0.32 0.32,-0.64 0.68,-0.64 0.4,0 0.679,0.32 0.679,0.64 0,0.36 -0.28,0.64 -0.68,0.64 -0.36,0 -0.68,-0.28 -0.68,-0.64"
         fill="none"
         stroke="#ffffff"
         stroke-width="0.48"
         stroke-miterlimit="8"
         id="path30277" /><path
         d="m 80.791,35.219 c 0,-1.04 0.8,-1.92 1.719,-1.92 0.96,0 1.719,0.88 1.719,1.92 0,1.079 -0.76,1.918 -1.719,1.918 -0.92,0 -1.719,-0.839 -1.719,-1.918 z"
         fill="#4bb2e1"
         fill-rule="evenodd"
         id="path30279" /><path
         d="m 81.27,34.819 c 0,-0.24 0.2,-0.48 0.4,-0.48 0.24,0 0.4,0.24 0.4,0.48 0,0.28 -0.16,0.48 -0.4,0.48 -0.2,0 -0.4,-0.2 -0.4,-0.48 z"
         fill="#ffffff"
         fill-rule="evenodd"
         id="path30281" /><path
         d="m 81.27,34.819 c 0,-0.24 0.2,-0.48 0.4,-0.48 0.24,0 0.4,0.24 0.4,0.48 0,0.28 -0.16,0.48 -0.4,0.48 -0.2,0 -0.4,-0.2 -0.4,-0.48"
         fill="none"
         stroke="#ffffff"
         stroke-width="0.48"
         stroke-miterlimit="8"
         id="path30283" /><path
         d="m 69.598,15.23 c 0,-1.039 0.84,-1.918 1.839,-1.918 1.04,0 1.839,0.88 1.839,1.919 0,1.08 -0.8,1.919 -1.84,1.919 -0.999,0 -1.838,-0.84 -1.838,-1.92 z"
         fill="#4bb2e1"
         fill-rule="evenodd"
         id="path30285" /><path
         d="m 70.397,14.831 c 0,-0.24 0.24,-0.48 0.52,-0.48 0.32,0 0.52,0.24 0.52,0.48 0,0.28 -0.2,0.48 -0.52,0.48 -0.28,0 -0.52,-0.2 -0.52,-0.48 z"
         fill="#ffffff"
         fill-rule="evenodd"
         id="path30287" /><path
         d="m 70.397,14.831 c 0,-0.24 0.24,-0.48 0.52,-0.48 0.32,0 0.52,0.24 0.52,0.48 0,0.28 -0.2,0.48 -0.52,0.48 -0.28,0 -0.52,-0.2 -0.52,-0.48"
         fill="none"
         stroke="#ffffff"
         stroke-width="0.48"
         stroke-miterlimit="8"
         id="path30289" /><path
         d="m 97.261,36.738 c 0,-1.04 0.72,-1.92 1.56,-1.92 0.879,0 1.558,0.88 1.558,1.92 0,1.08 -0.68,1.919 -1.559,1.919 -0.84,0 -1.559,-0.84 -1.559,-1.92 z"
         fill="#4bb2e1"
         fill-rule="evenodd"
         id="path30291" /><path
         d="m 97.74,36.138 c 0,-0.28 0.2,-0.52 0.44,-0.52 0.28,0 0.44,0.24 0.44,0.52 0,0.32 -0.16,0.52 -0.44,0.52 -0.24,0 -0.44,-0.2 -0.44,-0.52 z"
         fill="#ffffff"
         fill-rule="evenodd"
         id="path30293" /><path
         d="m 97.74,36.138 c 0,-0.28 0.2,-0.52 0.44,-0.52 0.28,0 0.44,0.24 0.44,0.52 0,0.32 -0.16,0.52 -0.44,0.52 -0.24,0 -0.44,-0.2 -0.44,-0.52"
         fill="none"
         stroke="#ffffff"
         stroke-width="0.48"
         stroke-miterlimit="8"
         id="path30295" /><path
         d="m 95.102,57.805 c 0,-0.88 0.8,-1.639 1.76,-1.639 0.999,0 1.758,0.76 1.758,1.639 0,0.92 -0.76,1.639 -1.759,1.639 -0.96,0 -1.759,-0.72 -1.759,-1.639 z"
         fill="#4bb2e1"
         fill-rule="evenodd"
         id="path30297" /><path
         d="m 95.902,57.365 c 0,-0.12 0.12,-0.24 0.24,-0.24 0.16,0 0.24,0.12 0.24,0.24 0,0.16 -0.08,0.24 -0.24,0.24 -0.12,0 -0.24,-0.08 -0.24,-0.24 z"
         fill="#ffffff"
         fill-rule="evenodd"
         id="path30299" /><path
         d="m 95.902,57.365 c 0,-0.12 0.12,-0.24 0.24,-0.24 0.16,0 0.24,0.12 0.24,0.24 0,0.16 -0.08,0.24 -0.24,0.24 -0.12,0 -0.24,-0.08 -0.24,-0.24"
         fill="none"
         stroke="#ffffff"
         stroke-width="0.48"
         stroke-miterlimit="8"
         id="path30301" /><path
         d="m 99.42,74.715 c 0,-1.04 0.72,-1.92 1.599,-1.92 0.92,0 1.599,0.88 1.599,1.92 0,1.08 -0.68,1.919 -1.6,1.919 -0.879,0 -1.598,-0.84 -1.598,-1.92 z"
         fill="#4bb2e1"
         fill-rule="evenodd"
         id="path30303" /><path
         d="m 99.9,74.315 c 0,-0.24 0.2,-0.48 0.44,-0.48 0.279,0 0.439,0.24 0.439,0.48 0,0.28 -0.16,0.48 -0.44,0.48 -0.24,0 -0.44,-0.2 -0.44,-0.48 z"
         fill="#ffffff"
         fill-rule="evenodd"
         id="path30305" /><path
         d="m 99.9,74.315 c 0,-0.24 0.2,-0.48 0.44,-0.48 0.279,0 0.439,0.24 0.439,0.48 0,0.28 -0.16,0.48 -0.44,0.48 -0.24,0 -0.44,-0.2 -0.44,-0.48"
         fill="none"
         stroke="#ffffff"
         stroke-width="0.48"
         stroke-miterlimit="8"
         id="path30307" /><path
         d="m 58.085,90.865 c 0,-1.04 0.8,-1.919 1.759,-1.919 1,0 1.759,0.88 1.759,1.919 0,1.08 -0.76,1.919 -1.76,1.919 -0.959,0 -1.758,-0.84 -1.758,-1.92 z"
         fill="#4bb2e1"
         fill-rule="evenodd"
         id="path30309" /><path
         d="m 58.405,90.465 c 0,-0.24 0.24,-0.48 0.52,-0.48 0.32,0 0.519,0.24 0.519,0.48 0,0.28 -0.2,0.48 -0.52,0.48 -0.28,0 -0.52,-0.2 -0.52,-0.48 z"
         fill="#ffffff"
         fill-rule="evenodd"
         id="path30311" /><path
         d="m 58.405,90.465 c 0,-0.24 0.24,-0.48 0.52,-0.48 0.32,0 0.519,0.24 0.519,0.48 0,0.28 -0.2,0.48 -0.52,0.48 -0.28,0 -0.52,-0.2 -0.52,-0.48"
         fill="none"
         stroke="#ffffff"
         stroke-width="0.48"
         stroke-miterlimit="8"
         id="path30313" /><path
         d="m 66.4,78.792 c 0,-0.92 0.84,-1.679 1.839,-1.679 1.039,0 1.839,0.76 1.839,1.68 0,0.959 -0.8,1.678 -1.84,1.678 -0.999,0 -1.838,-0.72 -1.838,-1.679 z"
         fill="#4bb2e1"
         fill-rule="evenodd"
         id="path30315" /><path
         d="m 67.44,78.033 c 0,-0.24 0.199,-0.44 0.399,-0.44 0.24,0 0.4,0.2 0.4,0.44 0,0.28 -0.16,0.44 -0.4,0.44 -0.2,0 -0.4,-0.16 -0.4,-0.44 z"
         fill="#ffffff"
         fill-rule="evenodd"
         id="path30317" /><path
         d="m 67.44,78.033 c 0,-0.24 0.199,-0.44 0.399,-0.44 0.24,0 0.4,0.2 0.4,0.44 0,0.28 -0.16,0.44 -0.4,0.44 -0.2,0 -0.4,-0.16 -0.4,-0.44"
         fill="none"
         stroke="#ffffff"
         stroke-width="0.48"
         stroke-miterlimit="8"
         id="path30319" /><path
         d="m 82.95,78.552 c 0,-1.039 0.84,-1.918 1.839,-1.918 1.039,0 1.838,0.879 1.838,1.918 0,1.08 -0.799,1.92 -1.838,1.92 -1,0 -1.84,-0.84 -1.84,-1.92 z"
         fill="#4bb2e1"
         fill-rule="evenodd"
         id="path30321" /><path
         d="m 83.91,78.033 c 0,-0.24 0.08,-0.44 0.159,-0.44 0.12,0 0.16,0.2 0.16,0.44 0,0.28 -0.04,0.44 -0.16,0.44 -0.08,0 -0.16,-0.16 -0.16,-0.44 z"
         fill="#ffffff"
         fill-rule="evenodd"
         id="path30323" /><path
         d="m 83.91,78.033 c 0,-0.24 0.08,-0.44 0.159,-0.44 0.12,0 0.16,0.2 0.16,0.44 0,0.28 -0.04,0.44 -0.16,0.44 -0.08,0 -0.16,-0.16 -0.16,-0.44"
         fill="none"
         stroke="#ffffff"
         stroke-width="0.48"
         stroke-miterlimit="8"
         id="path30325" /><path
         d="m 89.266,45.732 c 0,-1 0.8,-1.879 1.759,-1.879 1,0 1.759,0.88 1.759,1.88 0,1.039 -0.76,1.878 -1.76,1.878 -0.959,0 -1.758,-0.84 -1.758,-1.879 z"
         fill="#4bb2e1"
         fill-rule="evenodd"
         id="path30327" /><path
         d="m 90.065,45.213 c 0,-0.2 0.16,-0.4 0.28,-0.4 0.16,0 0.28,0.2 0.28,0.4 0,0.24 -0.12,0.4 -0.28,0.4 -0.12,0 -0.28,-0.16 -0.28,-0.4 z"
         fill="#ffffff"
         fill-rule="evenodd"
         id="path30329" /><path
         d="m 90.065,45.213 c 0,-0.2 0.16,-0.4 0.28,-0.4 0.16,0 0.28,0.2 0.28,0.4 0,0.24 -0.12,0.4 -0.28,0.4 -0.12,0 -0.28,-0.16 -0.28,-0.4"
         fill="none"
         stroke="#ffffff"
         stroke-width="0.48"
         stroke-miterlimit="8"
         id="path30331" /><path
         d="m 107.095,43.134 c 0,-0.92 0.72,-1.68 1.56,-1.68 0.879,0 1.558,0.76 1.558,1.68 0,0.96 -0.68,1.679 -1.559,1.679 -0.84,0 -1.559,-0.72 -1.559,-1.68 z"
         fill="#4bb2e1"
         fill-rule="evenodd"
         id="path30333" /><path
         d="m 107.575,42.814 c 0,-0.24 0.2,-0.48 0.4,-0.48 0.24,0 0.4,0.24 0.4,0.48 0,0.28 -0.16,0.48 -0.4,0.48 -0.2,0 -0.4,-0.2 -0.4,-0.48 z"
         fill="#ffffff"
         fill-rule="evenodd"
         id="path30335" /><path
         d="m 107.575,42.814 c 0,-0.24 0.2,-0.48 0.4,-0.48 0.24,0 0.4,0.24 0.4,0.48 0,0.28 -0.16,0.48 -0.4,0.48 -0.2,0 -0.4,-0.2 -0.4,-0.48"
         fill="none"
         stroke="#ffffff"
         stroke-width="0.48"
         stroke-miterlimit="8"
         id="path30337" /><path
         d="m 90.065,20.108 c 0,-1.04 0.84,-1.919 1.84,-1.919 1.039,0 1.838,0.88 1.838,1.919 0,1.08 -0.8,1.919 -1.839,1.919 -1,0 -1.839,-0.84 -1.839,-1.92 z"
         fill="#4bb2e1"
         fill-rule="evenodd"
         id="path30339" /><path
         d="m 91.105,19.508 c 0,-0.28 0.2,-0.52 0.4,-0.52 0.24,0 0.4,0.24 0.4,0.52 0,0.32 -0.16,0.52 -0.4,0.52 -0.2,0 -0.4,-0.2 -0.4,-0.52 z"
         fill="#ffffff"
         fill-rule="evenodd"
         id="path30341" /><path
         d="m 91.105,19.508 c 0,-0.28 0.2,-0.52 0.4,-0.52 0.24,0 0.4,0.24 0.4,0.52 0,0.32 -0.16,0.52 -0.4,0.52 -0.2,0 -0.4,-0.2 -0.4,-0.52"
         fill="none"
         stroke="#ffffff"
         stroke-width="0.48"
         stroke-miterlimit="8"
         id="path30343" /><path
         d="m 74.955,21.387 c 0,-1.04 0.84,-1.919 1.838,-1.919 1.04,0 1.84,0.88 1.84,1.919 0,1.08 -0.8,1.919 -1.84,1.919 -0.999,0 -1.838,-0.84 -1.838,-1.919 z"
         fill="#4bb2e1"
         fill-rule="evenodd"
         id="path30345" /><path
         d="m 75.914,20.987 c 0,-0.24 0.08,-0.48 0.16,-0.48 0.12,0 0.16,0.24 0.16,0.48 0,0.28 -0.04,0.48 -0.16,0.48 -0.08,0 -0.16,-0.2 -0.16,-0.48 z"
         fill="#ffffff"
         fill-rule="evenodd"
         id="path30347" /><path
         d="m 75.914,20.987 c 0,-0.24 0.08,-0.48 0.16,-0.48 0.12,0 0.16,0.24 0.16,0.48 0,0.28 -0.04,0.48 -0.16,0.48 -0.08,0 -0.16,-0.2 -0.16,-0.48"
         fill="none"
         stroke="#ffffff"
         stroke-width="0.48"
         stroke-miterlimit="8"
         id="path30349" /><path
         d="m 70.397,34.739 c 0,-1.04 0.84,-1.919 1.84,-1.919 1.039,0 1.838,0.88 1.838,1.919 0,1.08 -0.8,1.919 -1.839,1.919 -1,0 -1.839,-0.84 -1.839,-1.92 z"
         fill="#4bb2e1"
         fill-rule="evenodd"
         id="path30351" /><path
         d="m 71.437,34.34 c 0,-0.24 0.2,-0.48 0.4,-0.48 0.24,0 0.4,0.24 0.4,0.48 0,0.279 -0.16,0.479 -0.4,0.479 -0.2,0 -0.4,-0.2 -0.4,-0.48 z"
         fill="#ffffff"
         fill-rule="evenodd"
         id="path30353" /><path
         d="m 71.437,34.34 c 0,-0.24 0.2,-0.48 0.4,-0.48 0.24,0 0.4,0.24 0.4,0.48 0,0.279 -0.16,0.479 -0.4,0.479 -0.2,0 -0.4,-0.2 -0.4,-0.48"
         fill="none"
         stroke="#ffffff"
         stroke-width="0.48"
         stroke-miterlimit="8"
         id="path30355" /><path
         d="m 24.665,40.895 c 0,-1.04 0.72,-1.919 1.56,-1.919 0.879,0 1.558,0.88 1.558,1.92 0,1.079 -0.68,1.918 -1.559,1.918 -0.84,0 -1.559,-0.84 -1.559,-1.919 z"
         fill="#4bb2e1"
         fill-rule="evenodd"
         id="path30357" /><path
         d="m 25.145,40.495 c 0,-0.24 0.2,-0.48 0.4,-0.48 0.24,0 0.4,0.24 0.4,0.48 0,0.28 -0.16,0.48 -0.4,0.48 -0.2,0 -0.4,-0.2 -0.4,-0.48 z"
         fill="#ffffff"
         fill-rule="evenodd"
         id="path30359" /><path
         d="m 25.145,40.495 c 0,-0.24 0.2,-0.48 0.4,-0.48 0.24,0 0.4,0.24 0.4,0.48 0,0.28 -0.16,0.48 -0.4,0.48 -0.2,0 -0.4,-0.2 -0.4,-0.48"
         fill="none"
         stroke="#ffffff"
         stroke-width="0.48"
         stroke-miterlimit="8"
         id="path30361" /><path
         d="m 28.103,51.129 c 0,-0.92 0.84,-1.679 1.839,-1.679 1.04,0 1.839,0.76 1.839,1.679 0,0.96 -0.8,1.679 -1.84,1.679 -0.999,0 -1.838,-0.72 -1.838,-1.679 z"
         fill="#4bb2e1"
         fill-rule="evenodd"
         id="path30363" /><path
         d="m 28.663,50.49 c 0,-0.24 0.2,-0.48 0.4,-0.48 0.24,0 0.4,0.24 0.4,0.48 0,0.28 -0.16,0.48 -0.4,0.48 -0.2,0 -0.4,-0.2 -0.4,-0.48 z"
         fill="#ffffff"
         fill-rule="evenodd"
         id="path30365" /><path
         d="m 28.663,50.49 c 0,-0.24 0.2,-0.48 0.4,-0.48 0.24,0 0.4,0.24 0.4,0.48 0,0.28 -0.16,0.48 -0.4,0.48 -0.2,0 -0.4,-0.2 -0.4,-0.48"
         fill="none"
         stroke="#ffffff"
         stroke-width="0.48"
         stroke-miterlimit="8"
         id="path30367" /><path
         d="m 36.258,43.813 c 0,-0.959 0.8,-1.798 1.759,-1.798 1,0 1.759,0.839 1.759,1.798 0,1 -0.76,1.8 -1.759,1.8 -0.96,0 -1.759,-0.8 -1.759,-1.8 z"
         fill="#4bb2e1"
         fill-rule="evenodd"
         id="path30369" /><path
         d="m 37.137,43.334 c 0,-0.28 0.12,-0.52 0.24,-0.52 0.16,0 0.24,0.24 0.24,0.52 0,0.32 -0.08,0.52 -0.24,0.52 -0.12,0 -0.24,-0.2 -0.24,-0.52 z"
         fill="#ffffff"
         fill-rule="evenodd"
         id="path30371" /><path
         d="m 37.137,43.334 c 0,-0.28 0.12,-0.52 0.24,-0.52 0.16,0 0.24,0.24 0.24,0.52 0,0.32 -0.08,0.52 -0.24,0.52 -0.12,0 -0.24,-0.2 -0.24,-0.52"
         fill="none"
         stroke="#ffffff"
         stroke-width="0.48"
         stroke-miterlimit="8"
         id="path30373" /><path
         d="m 39.296,51.369 c 0,-1.04 0.72,-1.919 1.56,-1.919 0.879,0 1.558,0.88 1.558,1.919 0,1.08 -0.68,1.919 -1.559,1.919 -0.84,0 -1.559,-0.84 -1.559,-1.92 z"
         fill="#4bb2e1"
         fill-rule="evenodd"
         id="path30375" /><path
         d="m 39.776,50.97 c 0,-0.24 0.2,-0.48 0.44,-0.48 0.28,0 0.44,0.24 0.44,0.48 0,0.279 -0.16,0.479 -0.44,0.479 -0.24,0 -0.44,-0.2 -0.44,-0.48 z"
         fill="#ffffff"
         fill-rule="evenodd"
         id="path30377" /><path
         d="m 39.776,50.97 c 0,-0.24 0.2,-0.48 0.44,-0.48 0.28,0 0.44,0.24 0.44,0.48 0,0.279 -0.16,0.479 -0.44,0.479 -0.24,0 -0.44,-0.2 -0.44,-0.48"
         fill="none"
         stroke="#ffffff"
         stroke-width="0.48"
         stroke-miterlimit="8"
         id="path30379" /><path
         d="m 26.824,76.234 c 0,-1.04 0.84,-1.919 1.799,-1.919 0.999,0 1.799,0.88 1.799,1.919 0,1.08 -0.8,1.919 -1.8,1.919 -0.959,0 -1.798,-0.84 -1.798,-1.92 z"
         fill="#4bb2e1"
         fill-rule="evenodd"
         id="path30381" /><path
         d="m 27.303,75.634 c 0,-0.28 0.2,-0.52 0.4,-0.52 0.24,0 0.4,0.24 0.4,0.52 0,0.32 -0.16,0.52 -0.4,0.52 -0.2,0 -0.4,-0.2 -0.4,-0.52 z"
         fill="#ffffff"
         fill-rule="evenodd"
         id="path30383" /><path
         d="m 27.303,75.634 c 0,-0.28 0.2,-0.52 0.4,-0.52 0.24,0 0.4,0.24 0.4,0.52 0,0.32 -0.16,0.52 -0.4,0.52 -0.2,0 -0.4,-0.2 -0.4,-0.52"
         fill="none"
         stroke="#ffffff"
         stroke-width="0.48"
         stroke-miterlimit="8"
         id="path30385" /><path
         d="m 38.976,82.39 c 0,-1.04 0.8,-1.919 1.72,-1.919 0.959,0 1.718,0.88 1.718,1.92 0,1.078 -0.76,1.918 -1.719,1.918 -0.92,0 -1.719,-0.84 -1.719,-1.919 z"
         fill="#4bb2e1"
         fill-rule="evenodd"
         id="path30387" /><path
         d="m 39.296,81.79 c 0,-0.28 0.24,-0.52 0.48,-0.52 0.28,0 0.48,0.24 0.48,0.52 0,0.32 -0.2,0.52 -0.48,0.52 -0.24,0 -0.48,-0.2 -0.48,-0.52 z"
         fill="#ffffff"
         fill-rule="evenodd"
         id="path30389" /><path
         d="m 39.296,81.79 c 0,-0.28 0.24,-0.52 0.48,-0.52 0.28,0 0.48,0.24 0.48,0.52 0,0.32 -0.2,0.52 -0.48,0.52 -0.24,0 -0.48,-0.2 -0.48,-0.52"
         fill="none"
         stroke="#ffffff"
         stroke-width="0.48"
         stroke-miterlimit="8"
         id="path30391" /><path
         d="m 46.972,112.132 c 0,-0.92 0.799,-1.679 1.718,-1.679 0.96,0 1.72,0.76 1.72,1.679 0,0.96 -0.76,1.679 -1.72,1.679 -0.919,0 -1.718,-0.72 -1.718,-1.679 z"
         fill="#4bb2e1"
         fill-rule="evenodd"
         id="path30393" /><path
         d="m 47.291,111.373 c 0,-0.24 0.24,-0.44 0.48,-0.44 0.28,0 0.48,0.2 0.48,0.44 0,0.28 -0.2,0.44 -0.48,0.44 -0.24,0 -0.48,-0.16 -0.48,-0.44 z"
         fill="#ffffff"
         fill-rule="evenodd"
         id="path30395" /><path
         d="m 47.291,111.373 c 0,-0.24 0.24,-0.44 0.48,-0.44 0.28,0 0.48,0.2 0.48,0.44 0,0.28 -0.2,0.44 -0.48,0.44 -0.24,0 -0.48,-0.16 -0.48,-0.44"
         fill="none"
         stroke="#ffffff"
         stroke-width="0.48"
         stroke-miterlimit="8"
         id="path30397" /><path
         d="m 50.41,104.697 c 0,-1.04 0.839,-1.92 1.838,-1.92 1.04,0 1.84,0.88 1.84,1.92 0,1.079 -0.8,1.918 -1.84,1.918 -1,0 -1.839,-0.84 -1.839,-1.918 z"
         fill="#4bb2e1"
         fill-rule="evenodd"
         id="path30399" /><path
         d="m 51.289,104.217 c 0,-0.2 0.24,-0.4 0.48,-0.4 0.28,0 0.48,0.2 0.48,0.4 0,0.24 -0.2,0.4 -0.48,0.4 -0.24,0 -0.48,-0.16 -0.48,-0.4 z"
         fill="#ffffff"
         fill-rule="evenodd"
         id="path30401" /><path
         d="m 51.289,104.217 c 0,-0.2 0.24,-0.4 0.48,-0.4 0.28,0 0.48,0.2 0.48,0.4 0,0.24 -0.2,0.4 -0.48,0.4 -0.24,0 -0.48,-0.16 -0.48,-0.4"
         fill="none"
         stroke="#ffffff"
         stroke-width="0.48"
         stroke-miterlimit="8"
         id="path30403" /><path
         d="m 56.806,99.9 c 0,-1.04 0.8,-1.92 1.719,-1.92 0.959,0 1.718,0.88 1.718,1.92 0,1.079 -0.76,1.918 -1.718,1.918 -0.92,0 -1.72,-0.84 -1.72,-1.919 z"
         fill="#4bb2e1"
         fill-rule="evenodd"
         id="path30405" /><path
         d="m 57.605,99.46 c 0,-0.28 0.12,-0.52 0.24,-0.52 0.16,0 0.24,0.24 0.24,0.52 0,0.32 -0.08,0.52 -0.24,0.52 -0.12,0 -0.24,-0.2 -0.24,-0.52 z"
         fill="#ffffff"
         fill-rule="evenodd"
         id="path30407" /><path
         d="m 57.605,99.46 c 0,-0.28 0.12,-0.52 0.24,-0.52 0.16,0 0.24,0.24 0.24,0.52 0,0.32 -0.08,0.52 -0.24,0.52 -0.12,0 -0.24,-0.2 -0.24,-0.52"
         fill="none"
         stroke="#ffffff"
         stroke-width="0.48"
         stroke-miterlimit="8"
         id="path30409" /><path
         d="m 16.99,48.09 c 0,-1.039 0.84,-1.918 1.839,-1.918 1.039,0 1.838,0.88 1.838,1.919 0,1.08 -0.799,1.919 -1.838,1.919 -1,0 -1.84,-0.84 -1.84,-1.92 z"
         fill="#4bb2e1"
         fill-rule="evenodd"
         id="path30411" /><path
         d="m 17.95,47.651 c 0,-0.28 0.199,-0.52 0.439,-0.52 0.28,0 0.44,0.24 0.44,0.52 0,0.32 -0.16,0.52 -0.44,0.52 -0.24,0 -0.44,-0.2 -0.44,-0.52 z"
         fill="#ffffff"
         fill-rule="evenodd"
         id="path30413" /><path
         d="m 17.95,47.651 c 0,-0.28 0.199,-0.52 0.439,-0.52 0.28,0 0.44,0.24 0.44,0.52 0,0.32 -0.16,0.52 -0.44,0.52 -0.24,0 -0.44,-0.2 -0.44,-0.52"
         fill="none"
         stroke="#ffffff"
         stroke-width="0.48"
         stroke-miterlimit="8"
         id="path30415" /><path
         d="m 20.667,63.282 c 0,-1 0.8,-1.84 1.72,-1.84 0.959,0 1.718,0.84 1.718,1.84 0,1.039 -0.76,1.839 -1.719,1.839 -0.919,0 -1.719,-0.8 -1.719,-1.84 z"
         fill="#4bb2e1"
         fill-rule="evenodd"
         id="path30417" /><path
         d="m 21.467,62.802 c 0,-0.24 0.24,-0.48 0.48,-0.48 0.28,0 0.48,0.24 0.48,0.48 0,0.28 -0.2,0.48 -0.48,0.48 -0.24,0 -0.48,-0.2 -0.48,-0.48 z"
         fill="#ffffff"
         fill-rule="evenodd"
         id="path30419" /><path
         d="m 21.467,62.802 c 0,-0.24 0.24,-0.48 0.48,-0.48 0.28,0 0.48,0.24 0.48,0.48 0,0.28 -0.2,0.48 -0.48,0.48 -0.24,0 -0.48,-0.2 -0.48,-0.48"
         fill="none"
         stroke="#ffffff"
         stroke-width="0.48"
         stroke-miterlimit="8"
         id="path30421" /><path
         d="m 79.432,92.784 c 0,-1 0.8,-1.84 1.759,-1.84 1,0 1.759,0.84 1.759,1.84 0,1.04 -0.76,1.839 -1.76,1.839 -0.959,0 -1.758,-0.8 -1.758,-1.84 z"
         fill="#4bb2e1"
         fill-rule="evenodd"
         id="path30423" /><path
         d="m 80.231,92.304 c 0,-0.24 0.24,-0.48 0.52,-0.48 0.32,0 0.52,0.24 0.52,0.48 0,0.28 -0.2,0.48 -0.52,0.48 -0.28,0 -0.52,-0.2 -0.52,-0.48 z"
         fill="#ffffff"
         fill-rule="evenodd"
         id="path30425" /><path
         d="m 80.231,92.304 c 0,-0.24 0.24,-0.48 0.52,-0.48 0.32,0 0.52,0.24 0.52,0.48 0,0.28 -0.2,0.48 -0.52,0.48 -0.28,0 -0.52,-0.2 -0.52,-0.48"
         fill="none"
         stroke="#ffffff"
         stroke-width="0.48"
         stroke-miterlimit="8"
         id="path30427" /></g></g><metadata
     id="metadata13746"><rdf:RDF><cc:Work
         rdf:about=""><dc:contributor><cc:Agent><dc:title>basophil-granulocyte icon by Servier https://smart.servier.com/ is licensed under CC-BY 3.0 Unported https://creativecommons.org/licenses/by/3.0/</dc:title></cc:Agent></dc:contributor><cc:license
           rdf:resource="http://creativecommons.org/licenses/by-sa/4.0/" /></cc:Work><cc:License
         rdf:about="http://creativecommons.org/licenses/by-sa/4.0/"><cc:permits
           rdf:resource="http://creativecommons.org/ns#Reproduction" /><cc:permits
           rdf:resource="http://creativecommons.org/ns#Distribution" /><cc:requires
           rdf:resource="http://creativecommons.org/ns#Notice" /><cc:requires
           rdf:resource="http://creativecommons.org/ns#Attribution" /><cc:permits
           rdf:resource="http://creativecommons.org/ns#DerivativeWorks" /><cc:requires
           rdf:resource="http://creativecommons.org/ns#ShareAlike" /></cc:License></rdf:RDF></metadata></svg>
