<?xml version="1.0" encoding="UTF-8" standalone="no"?>
<!-- Created with Inkscape (http://www.inkscape.org/) -->

<svg
   width="30.438763mm"
   height="49.233662mm"
   viewBox="0 0 30.438763 49.233662"
   version="1.1"
   id="svg4792"
   inkscape:version="1.2 (1:1.2.1+202207142221+cd75a1ee6d)"
   sodipodi:docname="chap4-fig1.svg"
   xmlns:inkscape="http://www.inkscape.org/namespaces/inkscape"
   xmlns:sodipodi="http://sodipodi.sourceforge.net/DTD/sodipodi-0.dtd"
   xmlns="http://www.w3.org/2000/svg"
   xmlns:svg="http://www.w3.org/2000/svg"
   xmlns:rdf="http://www.w3.org/1999/02/22-rdf-syntax-ns#"
   xmlns:cc="http://creativecommons.org/ns#"
   xmlns:dc="http://purl.org/dc/elements/1.1/">
  <sodipodi:namedview
     id="namedview4794"
     pagecolor="#ffffff"
     bordercolor="#666666"
     borderopacity="1.0"
     inkscape:showpageshadow="2"
     inkscape:pageopacity="0.0"
     inkscape:pagecheckerboard="0"
     inkscape:deskcolor="#d1d1d1"
     inkscape:document-units="mm"
     showgrid="false"
     inkscape:zoom="0.52114899"
     inkscape:cx="73.875227"
     inkscape:cy="235.05754"
     inkscape:window-width="1366"
     inkscape:window-height="740"
     inkscape:window-x="0"
     inkscape:window-y="0"
     inkscape:window-maximized="1"
     inkscape:current-layer="layer1" />
  <defs
     id="defs4789">
    <clipPath
       clipPathUnits="userSpaceOnUse"
       id="a-6">
      <path
         d="M -0.16,-0.24 H 116.41 V 187.486 H -0.16 Z"
         id="path776" />
    </clipPath>
    <clipPath
       clipPathUnits="userSpaceOnUse"
       id="clipPath7771">
      <path
         d="M -0.16,-0.24 H 116.41 V 187.486 H -0.16 Z"
         id="path7769" />
    </clipPath>
  </defs>
  <g
     inkscape:label="Calque 1"
     inkscape:groupmode="layer"
     id="layer1"
     transform="translate(-41.134465,-86.567784)">
    <g
       id="g814"
       transform="matrix(0.26458333,0,0,0.26458333,41.004443,86.434546)">
      <path
         clip-path="url(#a-6)"
         d="m 88.107,123.105 c -1.5,6.097 -1.2,17.99 1.219,20.248 2.698,2.239 4.817,3.198 4.517,-4.177 -0.62,-7.396 -1.519,-18.649 3.298,-23.786 4.837,-5.137 4.837,-16.05 6.936,-19.588 2.119,-3.538 5.417,-10.614 8.135,-21.847 1.5,-11.253 6.316,-24.105 -0.3,-37.917 C 105.876,26.404 101.978,19.968 89.326,14.191 76.354,8.075 61.303,7.755 56.786,9.055 51.969,10.334 52.868,7.115 53.468,4.557 54.367,2.299 52.268,0.04 51.368,0.7 c -0.919,0.32 0.3,1.599 -0.319,3.198 -0.6,1.619 0.32,6.116 -1.499,8.355 -1.799,2.258 -4.517,3.537 -7.236,4.497 -2.998,1.3 -2.998,-1.6 -3.298,-3.518 -0.3,-1.619 -2.118,-1.619 -2.718,-0.98 -0.6,0.98 0.9,4.178 0.6,5.797 -0.3,1.919 0.6,1.919 -2.719,4.178 -2.998,2.238 -8.734,5.456 -11.733,11.553 -3.018,6.116 -2.418,10.613 -4.517,10.293 -1.819,0 -9.954,-5.476 -10.853,-2.898 -1.2,2.259 2.718,1.28 5.117,2.898 2.118,1.28 4.517,1.6 3.018,6.736 -1.8,4.817 -4.218,11.573 -4.218,14.152 0,2.238 -5.117,0.959 -6.935,-1.3 -1.5,-2.558 -2.699,-3.218 -3.298,-2.238 -0.32,2.558 2.398,5.456 5.416,7.715 3.318,2.239 9.634,4.817 10.834,8.335 1.219,3.858 0,9.334 -1.2,14.471 -1.199,6.736 1.82,11.233 5.117,24.405 3.618,13.192 8.135,12.213 10.554,24.745 2.099,12.213 2.698,15.431 4.217,23.146 1.2,7.696 -4.817,10.914 -4.817,18.31 0,7.055 3.918,1.598 5.717,-0.96 1.499,-2.898 8.735,-10.933 7.535,-20.568 -1.199,-9.634 0.6,-21.527 3.918,-24.105 3.318,-2.878 12.053,-1.28 12.352,3.538 0.3,5.137 0,21.527 2.999,20.567 3.018,-0.959 5.136,-13.811 3.318,-20.567 -1.5,-6.756 -3.318,-7.396 -3.618,-14.451 0,-7.076 9.354,-14.152 15.67,-12.853 6.336,1.28 11.153,3.198 9.335,9.954 z"
         fill="#bbe0e3"
         fill-rule="evenodd"
         id="path781" />
      <path
         d="m 33.68,59.604 c 2.718,5.157 11.752,12.872 19.888,7.076 7.835,-5.477 6.316,-9.974 8.734,-12.553 2.399,-2.258 8.435,-2.258 6.017,3.538 -2.1,5.797 -1.8,15.79 11.153,21.267 12.952,5.457 24.405,-2.578 27.423,-9.994 C 109.893,61.543 105.376,46.072 98.76,40.595 91.824,35.459 90.625,32.56 82.19,30.302 73.755,27.723 70.437,27.084 62.602,27.403 55.067,27.723 52.048,26.424 46.632,30.302 40.915,33.839 27.943,48.331 33.68,59.604 Z"
         fill="#c3b1fd"
         fill-rule="evenodd"
         id="path783" />
      <path
         d="m 58.345,129.981 c -2.12,-19.608 31.6,-28.283 32.2,-6.416 2.399,-1.3 1.799,-4.517 2.399,-7.076 0.9,-2.258 2.118,-3.857 3.318,-6.116 2.098,-4.817 2.098,-10.274 4.217,-15.09 2.399,-5.477 4.797,-9.335 5.717,-15.751 0.6,-3.858 4.497,-15.75 2.098,-18.33 -1.799,6.437 -3.617,12.873 -6.616,19.29 -3.617,6.755 -8.135,19.927 -16.25,22.166 -2.418,0.66 -5.117,0 -7.535,0 -3.598,0.34 -7.516,1.299 -10.834,2.898 -3.897,1.939 -9.314,5.797 -11.433,9.974 -1.799,3.198 -1.799,7.376 -4.197,10.274 -2.419,3.538 -6.017,3.538 -9.035,6.116 -8.135,6.416 -3.318,19.908 -2.398,28.583 0.6,-8.675 -0.62,-27.943 12.632,-27.624 3.298,0 6.616,5.457 8.715,2.24 2.119,-2.56 -0.6,-3.199 -0.9,-4.818 -0.9,-2.558 -1.199,-3.218 -0.3,-6.736 z"
         fill="#96d0d4"
         fill-rule="evenodd"
         id="path785" />
      <path
         d="m 52.568,16.59 c -6.316,2.259 -14.451,8.355 -19.268,12.852 -6.336,5.457 -9.335,10.594 -12.653,18.29 -2.418,5.456 -5.736,10.912 -4.517,17.009 1.5,7.715 6.916,9.954 5.117,18.289 6.316,-2.879 2.419,-11.234 0.9,-16.03 -2.1,-7.396 0.6,-12.853 3.318,-19.589 2.418,-6.736 4.517,-9.954 9.034,-15.09 2.419,-2.24 4.817,-4.498 6.936,-6.737 2.099,-2.238 3.618,-6.096 6.316,-7.055 z"
         fill="#ffffff"
         fill-rule="evenodd"
         id="path787" />
      <path
         d="m 33.58,59.924 c 2.718,4.837 11.753,12.552 19.588,7.075 8.135,-5.796 6.616,-10.293 9.034,-12.552 2.419,-2.259 8.135,-2.578 6.017,3.218 -2.399,5.797 -2.1,15.79 10.853,21.267 12.952,5.457 24.405,-2.258 27.423,-9.674 C 109.494,61.863 104.976,46.072 98.36,40.915 91.724,35.439 90.525,32.54 82.09,30.302 73.655,28.043 70.038,27.084 62.502,27.403 54.667,27.723 51.949,26.743 46.232,30.302 40.815,33.839 27.543,48.651 33.58,59.924"
         fill="none"
         stroke="#58585a"
         stroke-width="0.32"
         stroke-linecap="round"
         stroke-linejoin="round"
         id="path789" />
      <path
         d="m 70.617,58.924 c -7.255,14.112 16.61,21.467 25.365,17.63 12.073,-5.457 11.473,-27.564 0,-33.34 6.956,8.335 8.455,21.487 -1.5,28.543 -4.836,3.517 -9.374,1.279 -14.19,-1.3 -6.057,-2.558 -8.156,-3.198 -9.975,-10.253 z"
         fill="#ad94fc"
         fill-rule="evenodd"
         id="path791" />
      <path
         d="m 55.207,29.702 c -7.496,2.578 -14.092,6.436 -18.29,13.832 -2.998,5.456 -5.696,14.79 1.5,18.309 -4.498,-5.137 -0.6,-13.812 2.398,-18.63 1.2,-2.258 2.998,-5.796 4.797,-7.715 2.1,-1.938 5.097,-2.578 7.196,-4.497 z m 2.558,-1.999 c 0,-3.558 2.758,-6.476 6.156,-6.476 3.418,0 6.157,2.918 6.157,6.476 0,3.578 -2.739,6.476 -6.157,6.476 -3.398,0 -6.156,-2.898 -6.156,-6.476 z"
         fill="#ffffff"
         fill-rule="evenodd"
         id="path793" />
      <path
         d="m 52.248,28.143 c 0,-1.34 1.02,-2.439 2.239,-2.439 1.24,0 2.239,1.1 2.239,2.439 0,1.36 -1,2.438 -2.239,2.438 -1.22,0 -2.239,-1.079 -2.239,-2.438 z m 19.988,0.68 c 0,-1.32 0.94,-2.399 2.079,-2.399 1.16,0 2.079,1.08 2.079,2.399 0,1.339 -0.92,2.398 -2.079,2.398 -1.14,0 -2.079,-1.06 -2.079,-2.398 z"
         fill="#ffffff"
         fill-rule="evenodd"
         id="path795" />
      <path
         clip-path="url(#a-6)"
         d="m 88.107,123.445 c -1.8,6.116 -1.2,17.67 1.219,20.248 2.698,2.239 4.817,2.878 4.217,-4.178 -0.32,-7.395 -1.219,-18.628 3.598,-23.765 4.517,-5.137 4.517,-16.07 6.636,-19.588 2.099,-3.538 5.717,-10.614 8.135,-21.847 1.8,-11.553 6.616,-24.085 0,-37.897 C 105.576,26.784 101.978,20.368 89.326,14.571 76.354,8.475 61.303,7.835 56.486,9.434 c -4.517,1.3 -3.918,-1.919 -3.018,-4.497 0.899,-2.239 -1.2,-4.497 -2.1,-4.157 -0.919,0.64 0,1.918 -0.619,3.517 -0.3,1.62 0.62,6.117 -1.199,8.355 -1.799,1.92 -4.517,3.538 -7.535,4.498 -2.699,1.279 -2.699,-1.6 -2.999,-3.538 -0.3,-1.6 -2.418,-1.6 -2.718,-0.96 -0.6,0.96 0.9,4.178 0.6,5.777 -0.6,1.619 0.3,1.939 -2.719,4.177 -2.998,1.94 -8.734,5.457 -11.733,11.573 -3.018,6.097 -2.418,10.594 -4.517,10.274 -2.119,-0.32 -10.254,-5.457 -11.153,-2.898 -0.9,2.258 2.718,1.279 5.117,2.898 2.418,1.28 4.817,1.6 3.018,6.736 -1.5,4.817 -3.918,11.573 -3.918,14.131 0,2.259 -5.117,0.96 -6.935,-1.279 -1.8,-2.578 -2.999,-3.218 -3.298,-2.258 -0.32,2.578 2.098,5.476 5.416,7.715 3.318,1.919 9.634,4.817 10.834,8.355 1.219,3.857 -0.3,9.314 -1.5,14.451 -0.899,6.416 2.12,11.233 5.417,24.405 3.618,13.172 8.135,12.213 10.254,24.405 2.099,12.533 2.998,15.73 4.218,23.446 1.499,7.716 -4.518,10.914 -4.518,18.31 0,7.055 3.918,1.598 5.417,-0.96 1.799,-2.898 9.035,-10.934 7.835,-20.568 -1.199,-9.634 0.3,-21.507 3.918,-24.085 3.318,-2.878 11.753,-1.6 12.352,3.538 0.3,5.137 0,21.527 2.999,20.547 3.018,-0.96 5.136,-13.791 3.318,-20.547 -1.8,-6.736 -3.318,-7.376 -3.918,-14.452 0,-7.055 9.334,-14.131 15.97,-12.852 6.336,1.3 11.153,3.218 9.335,9.954"
         fill="none"
         stroke="#58585a"
         stroke-width="0.48"
         stroke-linecap="round"
         stroke-linejoin="round"
         id="path797" />
    </g>
  </g>
  <metadata
     id="metadata11229">
    <rdf:RDF>
      <cc:Work
         rdf:about="">
        <dc:date>été 2022 - V1 du TST</dc:date>
        <dc:creator>
          <cc:Agent>
            <dc:title>Paulhenry Saux</dc:title>
          </cc:Agent>
        </dc:creator>
        <dc:publisher>
          <cc:Agent>
            <dc:title>Paulhenry.eu</dc:title>
          </cc:Agent>
        </dc:publisher>
        <dc:language>FR</dc:language>
        <dc:contributor>
          <cc:Agent>
            <dc:title>monocyte-16 icon by Servier https://smart.servier.com/ is licensed under CC-BY 3.0 Unported https://creativecommons.org/licenses/by/3.0/</dc:title>
          </cc:Agent>
        </dc:contributor>
      </cc:Work>
    </rdf:RDF>
  </metadata>
</svg>
