<?xml version="1.0" encoding="UTF-8" standalone="no"?>
<!-- Created with Inkscape (http://www.inkscape.org/) -->

<svg
   width="80.262962mm"
   height="81.229378mm"
   viewBox="0 0 80.262963 81.229377"
   version="1.1"
   id="svg12723"
   xml:space="preserve"
   inkscape:version="1.2.2 (1:1.2.2+202212051552+b0a8486541)"
   sodipodi:docname="chap5-fig3.svg"
   xmlns:inkscape="http://www.inkscape.org/namespaces/inkscape"
   xmlns:sodipodi="http://sodipodi.sourceforge.net/DTD/sodipodi-0.dtd"
   xmlns="http://www.w3.org/2000/svg"
   xmlns:svg="http://www.w3.org/2000/svg"
   xmlns:rdf="http://www.w3.org/1999/02/22-rdf-syntax-ns#"
   xmlns:cc="http://creativecommons.org/ns#"
   xmlns:dc="http://purl.org/dc/elements/1.1/"><sodipodi:namedview
     id="namedview12725"
     pagecolor="#ffffff"
     bordercolor="#666666"
     borderopacity="1.0"
     inkscape:showpageshadow="2"
     inkscape:pageopacity="0.0"
     inkscape:pagecheckerboard="0"
     inkscape:deskcolor="#d1d1d1"
     inkscape:document-units="mm"
     showgrid="true"
     inkscape:zoom="4.1691919"
     inkscape:cx="120.88674"
     inkscape:cy="56.006057"
     inkscape:window-width="1366"
     inkscape:window-height="740"
     inkscape:window-x="0"
     inkscape:window-y="0"
     inkscape:window-maximized="1"
     inkscape:current-layer="layer1"><inkscape:grid
       type="xygrid"
       id="grid22085"
       originx="-15.558441"
       originy="-120.27721" /></sodipodi:namedview><defs
     id="defs12720" /><g
     inkscape:label="Calque 1"
     inkscape:groupmode="layer"
     id="layer1"
     transform="translate(-15.558441,-120.27721)"><path
       style="fill:none;stroke:#000000;stroke-width:0.465;stroke-linecap:round;stroke-linejoin:miter;stroke-dasharray:0.465, 1.86;stroke-dashoffset:0;stroke-opacity:1"
       d="m 29.104167,125.67709 v 10.58333"
       id="path1224" /><path
       style="fill:none;stroke:#000000;stroke-width:0.465;stroke-linecap:round;stroke-linejoin:miter;stroke-dasharray:0.465, 1.86;stroke-dashoffset:0;stroke-opacity:1"
       d="M 47.624999,125.67709 V 142.875"
       id="path1226" /><path
       style="fill:none;stroke:#000000;stroke-width:0.465;stroke-linecap:round;stroke-linejoin:miter;stroke-dasharray:0.465, 1.86;stroke-dashoffset:0;stroke-opacity:1"
       d="m 52.916666,125.67709 v 18.52083"
       id="path1228" /><path
       style="fill:none;stroke:#000000;stroke-width:0.465;stroke-linecap:round;stroke-linejoin:miter;stroke-dasharray:0.465, 1.86;stroke-dashoffset:0;stroke-opacity:1"
       d="M 68.791665,125.67709 V 142.875"
       id="path1232" /><path
       id="path451-6-5"
       style="fill:#2a7fff;stroke:#000080;stroke-width:0.665;stroke-linecap:butt;stroke-linejoin:miter;stroke-dasharray:none;stroke-opacity:1"
       d="m 73.709015,128.16088 a 24.64086,14.097285 0 0 1 -8.79585,9.05061 c 0.94952,1.13269 3.45736,3.37744 3.26027,3.853 -0.24006,0.57921 -5.17554,0.17548 -5.67304,0.55707 -0.49751,0.38159 -1.38651,5.25286 -2.00815,5.33456 -0.62163,0.0817 -2.73893,-4.39429 -3.31814,-4.63435 -0.57922,-0.24005 -5.24236,1.42561 -5.62395,0.92811 -0.21575,-0.28128 0.5878,-1.70084 1.31517,-2.99775 a 24.64086,14.097285 0 0 1 -3.564124,0.15193 24.64086,14.097285 0 0 1 -1.521871,-0.03 c -0.0206,0.0456 -0.04125,0.0844 -0.06201,0.11524 -0.657416,0.97632 -8.439661,4.77908 -9.613884,4.6979 -1.174224,-0.0812 -8.35862,-4.91888 -8.875427,-5.97638 -0.226002,-0.46245 -0.235694,-2.37856 -0.123507,-4.46639 -1.865166,1.02859 -3.603048,2.34379 -5.321639,3.61528 -1.773638,1.31223 -3.582021,2.6096 -5.06274,4.24522 -1.480728,1.63561 -2.628663,3.66441 -2.803963,5.86373 -0.1774,2.22552 0.639178,4.39165 1.118278,6.57221 0.37101,1.68863 0.542469,3.41767 0.945679,5.09891 0.403219,1.68124 1.065542,3.35105 2.26136,4.59972 0.995189,1.03915 2.294872,1.72286 3.56309,2.40244 1.268229,0.67959 2.556627,1.39487 3.506246,2.47581 1.212719,1.38041 1.747548,3.20672 2.436027,4.9103 0.4807,1.18945 1.055254,2.35122 1.834514,3.37034 0.779269,1.01911 1.774135,1.89416 2.950724,2.40553 0.834419,0.36266 1.737749,0.53539 2.635498,0.68317 7.390453,1.2165 15.04182,0.93121 22.28081,-0.99116 0.85415,-0.22683 1.70693,-0.47753 2.50269,-0.86196 0.79576,-0.38442 1.53735,-0.91013 2.07533,-1.61127 0.86215,-1.12366 1.13268,-2.62871 0.93224,-4.03076 -0.20044,-1.40206 -0.83576,-2.71143 -1.62936,-3.88452 -1.58719,-2.34618 -3.82879,-4.24214 -5.10977,-6.76858 -1.2725,-2.50971 -1.47729,-5.50697 -0.7276,-8.21914 1.04381,-3.77625 3.86922,-6.92847 7.31428,-8.79429 2.59321,-1.40445 5.49886,-2.12716 8.17315,-3.37034 1.33714,-0.62159 2.62335,-1.37988 3.71192,-2.37453 1.08856,-0.99464 1.97557,-2.23768 2.41329,-3.64577 0.30891,-0.99376 0.38851,-2.06073 0.21083,-3.08612 -0.17768,-1.02539 -0.61434,-2.00729 -1.2733,-2.81275 -0.7943,-0.97088 -1.89614,-1.66868 -3.0856,-2.06706 -0.40713,-0.13634 -0.82469,-0.23606 -1.24747,-0.30799 z" /><text
       xml:space="preserve"
       style="font-style:normal;font-weight:normal;font-size:8.81944px;line-height:1.25;font-family:sans-serif;letter-spacing:0px;word-spacing:0px;fill:#000000;fill-opacity:1;stroke:none;stroke-width:0.264583"
       x="23.013132"
       y="163.81078"
       id="text2211-5-8"><tspan
         sodipodi:role="line"
         id="tspan2209-9-4"
         style="font-style:normal;font-variant:normal;font-weight:normal;font-stretch:normal;font-size:8.81944px;font-family:arial;-inkscape-font-specification:arial;stroke-width:0.264583"
         x="23.013132"
         y="163.81078">Enzyme</tspan></text><path
       style="color:#000000;fill:#ff6600;-inkscape-stroke:none"
       d="m 30.427734,132.05859 v 0.46485 c 5.732634,0 -5.749716,-2e-5 15.875,0 v -0.46485 c -21.624716,-2e-5 -10.142367,0 -15.875,0 z"
       id="path3156" /><g
       id="path3148"><path
         style="color:#000000;fill:#ff6600;fill-rule:evenodd;stroke-width:0.2325pt;-inkscape-stroke:none"
         d="m 47.643608,132.29167 -2.011125,1.1625 v -2.325 z"
         id="path3152" /><path
         style="color:#000000;fill:#ff6600;fill-rule:evenodd;-inkscape-stroke:none"
         d="m 45.476562,130.86133 v 2.86133 l 2.476563,-1.43164 -0.232422,-0.13282 z m 0.310547,0.53711 1.546875,0.89453 -1.546875,0.89258 z"
         id="path3154" /></g><g
       id="path3140"
       transform="matrix(-1,0,0,1,60.357422,0)"><path
         style="color:#000000;fill:#ff6600;fill-rule:evenodd;stroke-width:0.2325pt;-inkscape-stroke:none"
         d="m 31.768608,132.29167 -2.011125,1.1625 v -2.325 z"
         id="path3144" /><path
         style="color:#000000;fill:#ff6600;fill-rule:evenodd;-inkscape-stroke:none"
         d="m 29.601562,130.86133 v 2.86133 l 2.476563,-1.43164 -0.232422,-0.13282 z m 0.310547,0.53711 1.546875,0.89453 -1.546875,0.89258 z"
         id="path3146" /></g><path
       style="color:#000000;fill:#ff6600;-inkscape-stroke:none"
       d="m 54.240234,132.05859 v 0.46485 H 67.46875 v -0.46485 z"
       id="path3186" /><g
       id="path3178"><path
         style="color:#000000;fill:#ff6600;fill-rule:evenodd;stroke-width:0.2325pt;-inkscape-stroke:none"
         d="m 68.810275,132.29167 -2.011125,1.1625 v -2.325 z"
         id="path3182" /><path
         style="color:#000000;fill:#ff6600;fill-rule:evenodd;-inkscape-stroke:none"
         d="m 66.644531,130.86133 v 2.86133 l 2.47461,-1.43164 -0.230469,-0.13282 z m 0.310547,0.53711 1.544922,0.89453 -1.544922,0.89258 z"
         id="path3184" /></g><g
       id="path3170"
       transform="matrix(-1,0,0,1,109.30469,0)"><path
         style="color:#000000;fill:#ff6600;fill-rule:evenodd;stroke-width:0.2325pt;-inkscape-stroke:none"
         d="m 55.581108,132.29167 -2.011125,1.1625 v -2.325 z"
         id="path3174" /><path
         style="color:#000000;fill:#ff6600;fill-rule:evenodd;-inkscape-stroke:none"
         d="m 53.414062,130.86133 v 2.86133 l 2.476563,-1.43164 -0.232422,-0.13282 z m 0.310547,0.53711 1.546875,0.89453 -1.546875,0.89258 z"
         id="path3176" /></g><path
       style="color:#000000;fill:#ff0000;-inkscape-stroke:none"
       d="m 48.947266,129.41406 v 0.46485 h 2.646484 v -0.46485 z"
       id="path3216" /><g
       id="path3208"><path
         style="color:#000000;fill:#ff0000;fill-rule:evenodd;stroke-width:0.2325pt;-inkscape-stroke:none"
         d="m 52.935275,129.64584 -2.011125,1.1625 v -2.325 z"
         id="path3212" /><path
         style="color:#000000;fill:#ff0000;fill-rule:evenodd;-inkscape-stroke:none"
         d="m 50.769531,128.21484 v 2.86133 l 2.47461,-1.42969 -0.230469,-0.13476 z m 0.310547,0.53711 1.544922,0.89258 -1.544922,0.89453 z"
         id="path3214" /></g><g
       id="path3200"
       transform="matrix(-1,0,0,1,97.664322,0)"><path
         style="color:#000000;fill:#ff0000;fill-rule:evenodd;stroke-width:0.2325pt;-inkscape-stroke:none"
         d="m 50.289442,129.64584 -2.011125,1.1625 v -2.325 z"
         id="path3204" /><path
         style="color:#000000;fill:#ff0000;fill-rule:evenodd;-inkscape-stroke:none"
         d="m 48.123047,128.21484 v 2.86133 l 2.476562,-1.42969 -0.232422,-0.13476 z m 0.310547,0.53711 1.546875,0.89258 -1.546875,0.89453 z"
         id="path3206" /></g><path
       style="color:#000000;fill:#000000;-inkscape-stroke:none"
       d="m 66.146484,125.44531 v 0.46485 z"
       id="path1230" /><g
       id="g3455"><g
         id="g3426"><path
           style="color:#000000;fill:#ff6600;-inkscape-stroke:none"
           d="m 18.521484,192.91406 v 0.46485 h 18.519532 v -0.46485 z"
           id="path3306" /><g
           id="path3298"><path
             style="color:#000000;fill:#ff6600;fill-rule:evenodd;stroke-width:0.2325pt;-inkscape-stroke:none"
             d="m 38.383192,193.14584 -2.011125,1.1625 v -2.325 z"
             id="path3302" /><path
             style="color:#000000;fill:#ff6600;fill-rule:evenodd;-inkscape-stroke:none"
             d="m 36.216797,191.71484 v 2.86133 l 2.476562,-1.42969 -0.232422,-0.13476 z m 0.310547,0.53711 1.546875,0.89258 -1.546875,0.89453 z"
             id="path3304" /></g><g
           id="path3290"
           transform="matrix(-1,0,0,1,37.867187,0)"><path
             style="color:#000000;fill:#ff6600;fill-rule:evenodd;stroke-width:0.2325pt;-inkscape-stroke:none"
             d="m 19.862358,193.14584 -2.011125,1.1625 v -2.325 z"
             id="path3294" /><path
             style="color:#000000;fill:#ff6600;fill-rule:evenodd;-inkscape-stroke:none"
             d="m 17.695312,191.71484 v 2.86133 l 2.476563,-1.42969 -0.232422,-0.13476 z m 0.310547,0.53711 1.546875,0.89258 -1.546875,0.89453 z"
             id="path3296" /></g></g></g><g
       id="g3465"><g
         id="g3435"><path
           style="color:#000000;fill:#ff0000;-inkscape-stroke:none"
           d="m 18.521484,198.20508 v 0.46484 h 18.519532 v -0.46484 z"
           id="path3336" /><g
           id="path3328"><path
             style="color:#000000;fill:#ff0000;fill-rule:evenodd;stroke-width:0.2325pt;-inkscape-stroke:none"
             d="M 38.383192,198.4375 36.372067,199.6 v -2.325 z"
             id="path3332" /><path
             style="color:#000000;fill:#ff0000;fill-rule:evenodd;-inkscape-stroke:none"
             d="m 36.216797,197.00586 v 2.86328 l 2.476562,-1.43164 -0.232422,-0.13477 z m 0.310547,0.53906 1.544922,0.89258 -1.544922,0.89258 z"
             id="path3334" /></g><g
           id="path3320"
           transform="matrix(-1,0,0,1,37.867187,0)"><path
             style="color:#000000;fill:#ff0000;fill-rule:evenodd;stroke-width:0.2325pt;-inkscape-stroke:none"
             d="M 19.862358,198.4375 17.851233,199.6 v -2.325 z"
             id="path3324" /><path
             style="color:#000000;fill:#ff0000;fill-rule:evenodd;-inkscape-stroke:none"
             d="m 17.695312,197.00586 v 2.86328 l 2.476563,-1.43164 -0.232422,-0.13477 z m 0.310547,0.53906 1.546875,0.89258 -1.546875,0.89258 z"
             id="path3326" /></g></g></g><text
       xml:space="preserve"
       style="font-style:normal;font-weight:normal;font-size:5.29167px;line-height:1.25;font-family:sans-serif;letter-spacing:0px;word-spacing:0px;fill:#000000;fill-opacity:1;stroke:none;stroke-width:0.264583"
       x="39.422913"
       y="194.9978"
       id="text1704"><tspan
         sodipodi:role="line"
         id="tspan1702"
         style="font-size:5.29167px;stroke-width:0.264583"
         x="39.422913"
         y="194.9978">Site de reconnaissance</tspan></text><text
       xml:space="preserve"
       style="font-style:normal;font-weight:normal;font-size:5.29167px;line-height:1.25;font-family:sans-serif;letter-spacing:0px;word-spacing:0px;fill:#000000;fill-opacity:1;stroke:none;stroke-width:0.264583"
       x="39.417625"
       y="200.23659"
       id="text1704-6"><tspan
         sodipodi:role="line"
         id="tspan1702-2"
         style="font-size:5.29167px;stroke-width:0.264583"
         x="39.417625"
         y="200.23659">Site catalytique</tspan></text><text
       xml:space="preserve"
       style="font-style:normal;font-weight:normal;font-size:5.29167px;line-height:1.25;font-family:sans-serif;letter-spacing:0px;word-spacing:0px;fill:#000000;fill-opacity:1;stroke:none;stroke-width:0.264583"
       x="39.481159"
       y="189.25647"
       id="text1704-6-3"><tspan
         sodipodi:role="line"
         id="tspan1702-2-6"
         style="font-size:5.29167px;stroke-width:0.264583"
         x="39.481159"
         y="189.25647">Site actif</tspan></text><path
       style="color:#000000;fill:#d4aa00;-inkscape-stroke:none"
       d="m 29.103516,121.47656 v 0.46485 h 39.6875 v -0.46485 z"
       id="path3258" /><g
       id="path3250"><path
         style="color:#000000;fill:#d4aa00;fill-rule:evenodd;stroke-width:0.2325pt;-inkscape-stroke:none"
         d="m 70.133192,121.70834 -2.011125,1.1625 v -2.325 z"
         id="path3254" /><path
         style="color:#000000;fill:#d4aa00;fill-rule:evenodd;-inkscape-stroke:none"
         d="m 67.966797,120.27734 v 2.86133 l 2.476562,-1.42969 -0.232422,-0.13476 z m 0.310547,0.53711 1.546875,0.89258 -1.546875,0.89453 z"
         id="path3256" /></g><g
       id="path3242"
       transform="matrix(-1,0,0,1,58.240754,0)"><path
         style="color:#000000;fill:#d4aa00;fill-rule:evenodd;stroke-width:0.2325pt;-inkscape-stroke:none"
         d="m 30.445692,121.70834 -2.011125,1.1625 v -2.325 z"
         id="path3246" /><path
         style="color:#000000;fill:#d4aa00;fill-rule:evenodd;-inkscape-stroke:none"
         d="m 28.279297,120.27734 v 2.86133 l 2.476562,-1.42969 -0.232422,-0.13476 z m 0.310547,0.53711 1.546875,0.89258 -1.546875,0.89453 z"
         id="path3248" /></g><g
       id="g3445"><g
         id="g3417"><path
           style="color:#000000;fill:#d4aa00;-inkscape-stroke:none"
           d="m 18.521484,187.62109 v 0.46485 h 18.519532 v -0.46485 z"
           id="path3366" /><g
           id="path3358"><path
             style="color:#000000;fill:#d4aa00;fill-rule:evenodd;stroke-width:0.2325pt;-inkscape-stroke:none"
             d="m 38.383192,187.85417 -2.011125,1.1625 v -2.325 z"
             id="path3362" /><path
             style="color:#000000;fill:#d4aa00;fill-rule:evenodd;-inkscape-stroke:none"
             d="m 36.216797,186.42383 v 2.86133 l 2.476562,-1.43164 -0.232422,-0.13282 z m 0.310547,0.53711 1.546875,0.89453 -1.546875,0.89258 z"
             id="path3364" /></g><g
           id="path3350"
           transform="matrix(-1,0,0,1,37.867187,0)"><path
             style="color:#000000;fill:#d4aa00;fill-rule:evenodd;stroke-width:0.2325pt;-inkscape-stroke:none"
             d="m 19.862358,187.85417 -2.011125,1.1625 v -2.325 z"
             id="path3354" /><path
             style="color:#000000;fill:#d4aa00;fill-rule:evenodd;-inkscape-stroke:none"
             d="m 17.695312,186.42383 v 2.86133 l 2.476563,-1.43164 -0.232422,-0.13282 z m 0.310547,0.53711 1.546875,0.89453 -1.546875,0.89258 z"
             id="path3356" /></g></g></g></g><metadata
     id="metadata23592"><rdf:RDF><cc:Work
         rdf:about=""><dc:date>été 2022 - V1 du TST</dc:date><dc:creator><cc:Agent><dc:title>Paulhenry Saux</dc:title></cc:Agent></dc:creator><dc:publisher><cc:Agent><dc:title>Paulhenry.eu</dc:title></cc:Agent></dc:publisher><dc:language>FR</dc:language><cc:license
           rdf:resource="http://creativecommons.org/licenses/by-sa/4.0/" /></cc:Work><cc:License
         rdf:about="http://creativecommons.org/licenses/by-sa/4.0/"><cc:permits
           rdf:resource="http://creativecommons.org/ns#Reproduction" /><cc:permits
           rdf:resource="http://creativecommons.org/ns#Distribution" /><cc:requires
           rdf:resource="http://creativecommons.org/ns#Notice" /><cc:requires
           rdf:resource="http://creativecommons.org/ns#Attribution" /><cc:permits
           rdf:resource="http://creativecommons.org/ns#DerivativeWorks" /><cc:requires
           rdf:resource="http://creativecommons.org/ns#ShareAlike" /></cc:License></rdf:RDF></metadata></svg>
