<?xml version="1.0" encoding="UTF-8" standalone="no"?>
<!-- Created with Inkscape (http://www.inkscape.org/) -->

<svg
   width="115.08445mm"
   height="63.907833mm"
   viewBox="0 0 115.08445 63.907833"
   version="1.1"
   id="svg5"
   xml:space="preserve"
   inkscape:version="1.2 (1:1.2.1+202207142221+cd75a1ee6d)"
   sodipodi:docname="chap3-fig1.svg"
   xmlns:inkscape="http://www.inkscape.org/namespaces/inkscape"
   xmlns:sodipodi="http://sodipodi.sourceforge.net/DTD/sodipodi-0.dtd"
   xmlns="http://www.w3.org/2000/svg"
   xmlns:svg="http://www.w3.org/2000/svg"
   xmlns:rdf="http://www.w3.org/1999/02/22-rdf-syntax-ns#"
   xmlns:cc="http://creativecommons.org/ns#"
   xmlns:dc="http://purl.org/dc/elements/1.1/"><sodipodi:namedview
     id="namedview7"
     pagecolor="#ffffff"
     bordercolor="#666666"
     borderopacity="1.0"
     inkscape:showpageshadow="2"
     inkscape:pageopacity="0.0"
     inkscape:pagecheckerboard="0"
     inkscape:deskcolor="#d1d1d1"
     inkscape:document-units="mm"
     showgrid="true"
     inkscape:zoom="1.042298"
     inkscape:cx="367.93701"
     inkscape:cy="126.16354"
     inkscape:window-width="1366"
     inkscape:window-height="740"
     inkscape:window-x="0"
     inkscape:window-y="0"
     inkscape:window-maximized="1"
     inkscape:current-layer="layer1"><inkscape:grid
       type="xygrid"
       id="grid10972"
       originx="-60.413523"
       originy="-52.415529" /></sodipodi:namedview><defs
     id="defs2"><marker
       style="overflow:visible"
       id="TriangleStart"
       refX="0"
       refY="0"
       orient="auto-start-reverse"
       inkscape:stockid="TriangleStart"
       markerWidth="5.3244081"
       markerHeight="6.155385"
       viewBox="0 0 5.3244081 6.1553851"
       inkscape:isstock="true"
       inkscape:collect="always"
       preserveAspectRatio="xMidYMid"><path
         transform="scale(0.5)"
         style="fill:context-stroke;fill-rule:evenodd;stroke:context-stroke;stroke-width:1pt"
         d="M 5.77,0 -2.88,5 V -5 Z"
         id="path135" /></marker><inkscape:path-effect
       effect="spiro"
       id="path-effect6515"
       is_visible="true"
       lpeversion="1" /><inkscape:path-effect
       effect="simplify"
       id="path-effect6513"
       is_visible="true"
       lpeversion="1"
       steps="1"
       threshold="0.00645161"
       smooth_angles="360"
       helper_size="0"
       simplify_individual_paths="false"
       simplify_just_coalesce="false" /><linearGradient
       id="linearGradient4988"><stop
         style="stop-color:#fffb7f;stop-opacity:1;"
         offset="0"
         id="stop4990" /><stop
         style="stop-color:#ffc650;stop-opacity:1;"
         offset="1"
         id="stop4992" /></linearGradient><linearGradient
       id="linearGradient4978"><stop
         style="stop-color:#13571f;stop-opacity:1;"
         offset="0"
         id="stop4980" /><stop
         style="stop-color:#1f980f;stop-opacity:0.74825174;"
         offset="1"
         id="stop4982" /></linearGradient><linearGradient
       id="linearGradient3259"><stop
         style="stop-color:#751313;stop-opacity:1;"
         offset="0"
         id="stop3261" /><stop
         style="stop-color:#000000;stop-opacity:0;"
         offset="1"
         id="stop3263" /></linearGradient><inkscape:perspective
       sodipodi:type="inkscape:persp3d"
       inkscape:vp_x="0 : 293.08891 : 1"
       inkscape:vp_y="0 : 999.99999 : 0"
       inkscape:vp_z="744.09451 : 293.08891 : 1"
       inkscape:persp3d-origin="372.04725 : 117.69521 : 1"
       id="perspective9" /><inkscape:perspective
       sodipodi:type="inkscape:persp3d"
       inkscape:vp_x="0 : 293.08891 : 1"
       inkscape:vp_y="0 : 999.99999 : 0"
       inkscape:vp_z="744.09451 : 293.08891 : 1"
       inkscape:persp3d-origin="372.04725 : 117.69521 : 1"
       id="perspective9-2" /></defs><g
     inkscape:label="Calque 1"
     inkscape:groupmode="layer"
     id="layer1"
     transform="translate(-60.413522,-52.415528)"><rect
       ry="16.202942"
       rx="16.81679"
       y="3.0131667"
       x="-172.66879"
       height="33.935371"
       width="85.006821"
       id="rect3208"
       style="font-style:normal;font-variant:normal;font-weight:normal;font-stretch:normal;font-size:12px;line-height:100%;font-family:Calibri;-inkscape-font-specification:Calibri;text-align:start;writing-mode:lr-tb;text-anchor:start;fill:#ccecd1;fill-opacity:1;fill-rule:evenodd;stroke:#127a22;stroke-width:3.30729;stroke-linecap:butt;stroke-linejoin:round;stroke-miterlimit:4;stroke-dasharray:none;stroke-opacity:1"
       transform="matrix(-0.85613558,-0.51675127,-0.51675127,0.85613558,0,0)" /><rect
       style="font-style:normal;font-variant:normal;font-weight:normal;font-stretch:normal;font-size:12px;line-height:100%;font-family:Calibri;-inkscape-font-specification:Calibri;text-align:start;writing-mode:lr-tb;text-anchor:start;fill:none;fill-rule:evenodd;stroke:#31ee4d;stroke-width:2.38125;stroke-linecap:butt;stroke-linejoin:round;stroke-miterlimit:4;stroke-dasharray:none;stroke-opacity:1"
       id="rect3204"
       width="81.955307"
       height="31.956375"
       x="-171.4572"
       y="4.092627"
       rx="16.213116"
       ry="15.258039"
       transform="matrix(-0.85613558,-0.51675127,-0.51675127,0.85613558,0,0)" /><path
       style="font-style:normal;font-variant:normal;font-weight:normal;font-stretch:normal;font-size:12px;line-height:100%;font-family:Calibri;-inkscape-font-specification:Calibri;text-align:start;writing-mode:lr-tb;text-anchor:start;fill:#e28412;fill-opacity:1;fill-rule:evenodd;stroke:#0d7f1e;stroke-width:0.79375;stroke-linecap:butt;stroke-linejoin:round;stroke-miterlimit:4;stroke-opacity:1"
       d="m 129.73199,83.622763 c 7.87426,4.752792 10.8869,14.106004 6.74903,20.961487 l -1.01225,1.67706 c -4.13787,6.85548 -13.81568,8.54488 -21.68993,3.79209 L 73.476675,85.727592 c -7.87426,-4.752789 -10.88869,-14.103045 -6.75081,-20.958526 l 1.01225,-1.677057 c 4.13787,-6.855482 13.81746,-8.547847 21.69172,-3.795053 13.433825,8.108532 26.741895,16.239646 40.298825,24.323799 0.001,5.29e-4 0.002,0.0013 0.003,0.0021 z m -0.17139,0.283948 c -13.55949,-8.08568 -26.86961,-16.218056 -40.302155,-24.325807 -7.70649,-4.651528 -17.15704,-2.995867 -21.20092,3.703899 l -1.01225,1.677054 c -4.04389,6.699763 -1.10371,15.830264 6.60279,20.481792 l 40.302155,24.325811 c 7.70649,4.65152 17.15526,2.99882 21.19914,-3.70094 l 1.01225,-1.67706 c 4.04388,-6.699764 1.10548,-15.83322 -6.60101,-20.484749 z"
       id="rect2384" /><path
       style="fill:none;stroke:#000000;stroke-width:0.264583px;stroke-linecap:butt;stroke-linejoin:miter;stroke-opacity:1"
       d="m 104.00956,83.78633 c -2.03638,0.369535 -4.107738,0.546115 -6.177287,0.526605 -0.963434,-0.0091 -1.95368,-0.06686 -2.830331,-0.466576 -0.438326,-0.199856 -0.841839,-0.48565 -1.146999,-0.858409 -0.305161,-0.372758 -0.508286,-0.835116 -0.539008,-1.315874 -0.03177,-0.49722 0.121664,-0.997093 0.388307,-1.417972 0.266643,-0.420878 0.642045,-0.765983 1.05925,-1.038338 1.027009,-0.670439 2.295869,-0.901883 3.520445,-0.833708 1.224577,0.06817 2.416313,0.41799 3.570123,0.833859 1.04958,0.378298 2.0991,0.825669 2.93736,1.561904 0.41912,0.368118 0.78049,0.806913 1.02939,1.30614 0.2489,0.499228 0.38266,1.060296 0.35,1.617174 -0.0303,0.516735 -0.20453,1.023601 -0.49394,1.452757 -0.28941,0.429157 -0.6928,0.779884 -1.15566,1.011609 -0.7795,0.39025 -1.68908,0.433718 -2.55669,0.349073 -0.86761,-0.08465 -1.72055,-0.288835 -2.58886,-0.365959 -1.347976,-0.119728 -2.715897,0.06818 -4.053974,-0.134116 -1.135439,-0.171659 -2.243131,-0.638367 -3.0766,-1.428315 -0.83347,-0.789947 -1.369631,-1.918321 -1.333995,-3.06611 0.02475,-0.797197 0.321188,-1.577334 0.79876,-2.216131 0.477572,-0.638796 1.130989,-1.1381 1.85584,-1.470857 1.379092,-0.633099 2.989014,-0.656714 4.453376,-0.258781 1.464363,0.397934 2.795503,1.193273 3.985163,2.135306 0.42624,0.337519 0.83911,0.697148 1.18241,1.118745 0.3433,0.421597 0.61625,0.909483 0.7327,1.440555 0.1001,0.456522 0.0814,0.938613 -0.0541,1.3859 -0.13553,0.447287 -0.3876,0.858759 -0.72475,1.182427 -0.33715,0.323668 -0.75865,0.558772 -1.21128,0.675244 -0.45262,0.116473 -0.93534,0.114012 -1.38666,-0.0074 -0.45763,-0.123111 -0.87764,-0.365152 -1.244519,-0.665119 -0.36688,-0.299966 -0.68314,-0.657288 -0.974774,-1.030825 -0.672904,-0.861885 -1.22028,-1.813789 -1.843043,-2.712572 -0.262437,-0.378755 -0.541343,-0.753642 -0.707348,-1.183492 -0.083,-0.214925 -0.136664,-0.442701 -0.140921,-0.673057 -0.0043,-0.230357 0.04218,-0.463541 0.14976,-0.667275 0.175067,-0.331526 0.49236,-0.558579 0.768564,-0.812093 0.138102,-0.126757 0.268997,-0.263955 0.366423,-0.424104 0.09743,-0.160149 0.160176,-0.34546 0.153235,-0.532787 -0.0058,-0.155808 -0.06003,-0.308515 -0.14808,-0.437191 -0.08805,-0.128677 -0.2091,-0.233555 -0.345666,-0.308782 -0.273133,-0.150455 -0.600519,-0.179979 -0.909141,-0.135367 -0.617245,0.08922 -1.159252,0.451552 -1.757221,0.628713 -0.530844,0.157273 -1.100658,0.164763 -1.643836,0.05758 -0.543178,-0.10718 -1.060615,-0.326554 -1.53574,-0.610781 -0.950252,-0.568456 -1.723349,-1.384104 -2.485228,-2.187633 -0.44977,-0.474358 -0.918423,-0.961038 -1.521406,-1.213467 -0.301491,-0.126214 -0.633524,-0.189146 -0.957975,-0.149669 -0.324452,0.03948 -0.640153,0.186277 -0.857056,0.430776 -0.197315,0.222419 -0.30533,0.516011 -0.329295,0.812371 -0.02397,0.29636 0.03248,0.59548 0.134154,0.874882 0.203353,0.558804 0.57884,1.034638 0.896022,1.537639 0.557662,0.884363 0.94077,1.864768 1.367693,2.819137 0.426924,0.954369 0.910651,1.902773 1.629104,2.662319 0.890256,0.941175 2.127084,1.547741 3.416629,1.672001 1.100568,0.10605 2.231087,-0.136091 3.195171,-0.67742 0.621954,-0.349225 1.184149,-0.831292 1.536013,-1.451757 0.175932,-0.310232 0.297358,-0.652723 0.342707,-1.006474 0.04535,-0.353751 0.01361,-0.718685 -0.104892,-1.055069 -0.135718,-0.385264 -0.381988,-0.72572 -0.678649,-1.006505 -0.296662,-0.280784 -0.643063,-0.504552 -1.003017,-0.697636 -0.719907,-0.386169 -1.502866,-0.656832 -2.182995,-1.109399 -0.991696,-0.659887 -1.698858,-1.660194 -2.571889,-2.470583 -0.436515,-0.405194 -0.922395,-0.767438 -1.473356,-0.993646 -0.550961,-0.226207 -1.173088,-0.309222 -1.748383,-0.155067 -0.485532,0.130102 -0.913342,0.419608 -1.2984,0.742715 -0.385058,0.323107 -0.737691,0.684403 -1.134623,0.992807 -0.452699,0.351733 -0.9626,0.6345 -1.364202,1.043607 -0.200801,0.204553 -0.373098,0.441138 -0.477724,0.708003 -0.104626,0.266864 -0.138647,0.565702 -0.06704,0.843255 0.0695,0.269388 0.235169,0.507764 0.441719,0.694144 0.206551,0.186379 0.452893,0.323873 0.707601,0.435787 0.509415,0.223826 1.063919,0.353473 1.533575,0.651843 0.410792,0.260974 0.733847,0.63693 1.03923,1.015874 0.305384,0.378943 0.603308,0.770427 0.98105,1.077295 0.188871,0.153434 0.397245,0.284689 0.6236,0.374008 0.226354,0.08932 0.471244,0.135943 0.714074,0.120198 0.24283,-0.01575 0.483321,-0.09549 0.678572,-0.240719 0.19525,-0.145228 0.342895,-0.357387 0.396546,-0.594739 0.03929,-0.173815 0.02811,-0.357484 -0.02258,-0.528322 -0.05069,-0.170838 -0.140099,-0.329036 -0.25272,-0.467137 -0.225242,-0.276202 -0.537327,-0.468455 -0.85968,-0.620475 -1.28048,-0.603868 -2.743462,-0.63167 -4.150173,-0.791199 -0.703356,-0.07977 -1.407374,-0.196228 -2.073247,-0.436404 -0.665874,-0.240176 -1.295654,-0.610353 -1.765931,-1.13942 -0.428946,-0.482569 -0.709732,-1.076832 -0.958493,-1.672639 -0.248762,-0.595806 -0.473407,-1.206267 -0.812028,-1.755997 -0.516044,-0.837766 -1.277778,-1.503444 -1.788051,-2.344738 -0.255136,-0.420647 -0.446006,-0.889357 -0.484812,-1.379797 -0.03881,-0.490441 0.08576,-1.004555 0.401129,-1.382156 0.313482,-0.375346 0.79002,-0.588471 1.273667,-0.660866 0.483647,-0.0724 0.977541,-0.0157 1.458361,0.07357 2.478224,0.460071 4.714197,1.762837 6.805098,3.170457 0.699155,0.47068 1.397311,0.963387 1.939831,1.608391 0.542519,0.645004 0.920745,1.467162 0.873599,2.308669 -0.01957,0.349284 -0.112605,0.695411 -0.280201,1.002484 -0.167596,0.307072 -0.410369,0.574216 -0.705837,0.761515 -0.296003,0.187638 -0.640074,0.292926 -0.988599,0.32975 -0.348525,0.03682 -0.701868,0.0068 -1.045561,-0.06173 -0.687384,-0.137134 -1.333708,-0.425222 -1.997117,-0.651476 -2.342708,-0.798975 -4.890228,-0.824212 -7.246884,-1.581057 -0.775325,-0.248997 -1.554162,-0.596912 -2.079282,-1.219309 -0.26256,-0.311198 -0.453763,-0.688011 -0.515685,-1.090438 -0.06192,-0.402427 0.01125,-0.830087 0.232509,-1.171885 0.21847,-0.337487 0.573864,-0.578324 0.962888,-0.679749 0.389024,-0.101424 0.808334,-0.06727 1.185165,0.07282 0.37683,0.140091 0.711646,0.383053 0.981,0.681507 0.269355,0.298455 0.474713,0.651352 0.625253,1.024132 0.301079,0.745559 0.383314,1.559071 0.442669,2.360934 0.05936,0.801863 0.100314,1.613398 0.326473,2.384993 0.393629,1.34296 1.337585,2.484168 2.487778,3.281378 1.150192,0.79721 2.497818,1.272049 3.866626,1.56334 2.737616,0.582582 5.60159,0.463836 8.301771,1.200696 1.289208,0.351816 2.525534,0.896755 3.654985,1.611019"
       id="path6511"
       inkscape:path-effect="#path-effect6513;#path-effect6515"
       inkscape:original-d="m 104.00956,83.78633 c -7.238495,0.284321 -6.291045,1.803381 -10.693625,-2.114254 -1.20279,-1.070306 0.35442,-1.602441 1.09581,-2.20422 3.55973,-2.889393 13.460595,0.685594 11.524935,5.870424 -0.58232,1.559798 -4.08212,0.483817 -5.1012,0.539811 -1.335135,0.07336 -2.525315,0.782262 -3.929815,0.607285 -2.52295,-0.31432 -7.10095,-3.617267 -5.85693,-6.702634 1.51572,-3.759205 7.64453,-1.344745 10.013465,-0.427344 0.11199,0.04336 2.18474,0.807643 2.2672,0.899678 0.37691,0.420661 0.59653,0.99336 0.68016,1.551951 0.14205,0.948925 -2.98346,4.444111 -4.421045,3.666207 -0.94695,-0.512422 -1.68404,-2.725598 -2.22941,-3.598731 -0.42713,-0.683823 -2.58005,-1.602631 -2.19163,-2.496613 0.40605,-0.934538 1.84116,-1.563193 2.07827,-2.496622 0.0762,-0.300117 -0.61036,0.177755 -0.91798,0.142325 -0.93222,-0.107365 -1.85234,-0.318222 -2.75842,-0.5623 -1.98171,-0.533829 -2.54163,-0.825778 -4.19432,-1.844345 -0.6601,-0.406823 -3.44265,-2.878156 -4.72333,-1.529461 -0.3863,0.406818 0.66263,2.231896 0.83131,2.676554 1.39489,3.677021 1.24406,5.307777 5.17676,6.882567 1.48336,0.593989 1.0683,0.829387 3.24966,0.607285 1.33392,-0.135816 3.87885,-3.026754 2.94736,-4.475917 -1.07173,-1.667325 -2.53338,-1.721472 -4.00539,-2.699043 -1.45188,-0.964208 -3.72378,-3.641358 -5.9325,-3.441288 -1.01702,0.09212 -0.56265,0.332018 -1.28474,1.102109 -0.45602,0.486323 -3.58431,2.602989 -2.38057,3.666207 0.42148,0.372263 7.6736,4.213405 7.10389,2.76652 -0.99419,-2.524948 -7.88449,-2.127337 -9.78674,-3.98109 -1.70688,-1.663361 -0.99925,-2.758278 -1.70039,-4.363458 -0.45747,-1.047311 -2.37562,-3.432006 -1.1336,-4.633362 0.58157,-0.562541 2.39111,0.23704 2.60728,0.292399 3.69311,0.945772 6.09517,1.732296 8.16191,5.240647 0.55649,0.944668 1.50324,1.806046 1.54925,2.901474 0.0374,0.890714 -3.65485,0.677873 -4.34546,0.472334 -2.76196,-0.822013 -5.52497,-0.06715 -8.16191,-1.731889 -0.6284,-0.396713 -1.50276,-2.299734 -1.81377,-2.744033 -0.19757,-0.282247 -0.87802,-1.061032 -0.64237,-0.809712 1.59728,1.703445 2.61273,4.780806 4.49662,5.825442 4.53589,2.515206 9.49794,4.154546 14.32113,5.892916 1.15701,0.41701 2.69939,2.290027 3.99003,1.763517" /><ellipse
       style="fill:none;fill-opacity:1;stroke:#000000;stroke-width:0.29797;stroke-linecap:round;stroke-linejoin:round;stroke-dasharray:none;stroke-opacity:1"
       id="path9473"
       cx="-126.35214"
       cy="96.180267"
       rx="4.8101664"
       ry="4.5905943"
       transform="scale(-1,1)" /><ellipse
       style="fill:none;fill-opacity:1;stroke:#000000;stroke-width:0.22915;stroke-linecap:round;stroke-linejoin:round;stroke-dasharray:none;stroke-opacity:1"
       id="path9473-9"
       cx="-115.14461"
       cy="85.912437"
       rx="3.6992004"
       ry="3.5303411"
       transform="scale(-1,1)" /><ellipse
       style="fill:none;fill-opacity:1;stroke:#000000;stroke-width:0.135905;stroke-linecap:round;stroke-linejoin:round;stroke-dasharray:none;stroke-opacity:1"
       id="path9473-1"
       cx="-96.615219"
       cy="91.905434"
       rx="2.1939273"
       ry="2.09378"
       transform="scale(-1,1)" /><path
       style="fill:none;stroke:#000000;stroke-width:0.265;stroke-linecap:round;stroke-linejoin:miter;stroke-dasharray:none;stroke-opacity:1;marker-start:url(#TriangleStart)"
       d="m 141.81666,92.604166 6.35001,10e-7"
       id="path11028"
       sodipodi:nodetypes="cc" /><path
       style="fill:none;stroke:#000000;stroke-width:0.265;stroke-linecap:round;stroke-linejoin:miter;stroke-dasharray:none;stroke-opacity:1;marker-start:url(#TriangleStart)"
       d="m 139.17082,97.895832 8.99585,10e-7"
       id="path11030"
       sodipodi:nodetypes="cc" /><path
       style="fill:none;stroke:#000000;stroke-width:0.265;stroke-linecap:round;stroke-linejoin:miter;stroke-dasharray:none;stroke-opacity:1;marker-start:url(#TriangleStart)"
       d="m 119.59167,84.666666 28.575,10e-7"
       id="path11032"
       sodipodi:nodetypes="cc" /><path
       style="fill:none;stroke:#000000;stroke-width:0.265;stroke-linecap:round;stroke-linejoin:miter;stroke-dasharray:none;stroke-opacity:1;marker-start:url(#TriangleStart)"
       d="M 88.899998,71.437499 H 128.58749"
       id="path11034" /><path
       style="fill:none;stroke:#000000;stroke-width:0.265;stroke-linecap:round;stroke-linejoin:miter;stroke-dasharray:none;stroke-opacity:1;marker-start:url(#TriangleStart)"
       d="m 124.35417,105.83333 h 23.81249"
       id="path11036" /><text
       xml:space="preserve"
       style="font-style:normal;font-weight:normal;font-size:4.58611px;line-height:1.25;font-family:sans-serif;letter-spacing:0px;word-spacing:0px;fill:#000000;fill-opacity:1;stroke:none;stroke-width:0.264583"
       x="129.41742"
       y="74.027351"
       id="text12097"><tspan
         sodipodi:role="line"
         id="tspan12095"
         style="font-style:normal;font-variant:normal;font-weight:normal;font-stretch:normal;font-size:4.58611px;font-family:arial;-inkscape-font-specification:arial;stroke-width:0.264583"
         x="129.41742"
         y="74.027351">Chromosone bactérien</tspan></text><text
       xml:space="preserve"
       style="font-style:normal;font-weight:normal;font-size:4.58611px;line-height:1.25;font-family:sans-serif;letter-spacing:0px;word-spacing:0px;fill:#000000;fill-opacity:1;stroke:none;stroke-width:0.264583"
       x="150.24889"
       y="100.48792"
       id="text12097-2"><tspan
         sodipodi:role="line"
         id="tspan12095-7"
         style="font-style:normal;font-variant:normal;font-weight:normal;font-stretch:normal;font-size:4.58611px;font-family:arial;-inkscape-font-specification:arial;stroke-width:0.264583"
         x="150.24889"
         y="100.48792">Membrane</tspan></text><text
       xml:space="preserve"
       style="font-style:normal;font-weight:normal;font-size:4.58611px;line-height:1.25;font-family:sans-serif;letter-spacing:0px;word-spacing:0px;fill:#000000;fill-opacity:1;stroke:none;stroke-width:0.264583"
       x="150.45869"
       y="92.550423"
       id="text12097-0"><tspan
         sodipodi:role="line"
         id="tspan12095-9"
         style="font-style:normal;font-variant:normal;font-weight:normal;font-stretch:normal;font-size:4.58611px;font-family:arial;-inkscape-font-specification:arial;stroke-width:0.264583"
         x="150.45869"
         y="92.550423">Paroi</tspan></text><text
       xml:space="preserve"
       style="font-style:normal;font-weight:normal;font-size:4.58611px;line-height:1.25;font-family:sans-serif;letter-spacing:0px;word-spacing:0px;fill:#000000;fill-opacity:1;stroke:none;stroke-width:0.264583"
       x="150.45869"
       y="85.303665"
       id="text12097-3"><tspan
         sodipodi:role="line"
         id="tspan12095-6"
         style="font-style:normal;font-variant:normal;font-weight:normal;font-stretch:normal;font-size:4.58611px;font-family:arial;-inkscape-font-specification:arial;stroke-width:0.264583"
         x="150.45869"
         y="85.303665">Plasmide</tspan></text><text
       xml:space="preserve"
       style="font-style:normal;font-weight:normal;font-size:4.58611px;line-height:1.25;font-family:sans-serif;letter-spacing:0px;word-spacing:0px;fill:#000000;fill-opacity:1;stroke:none;stroke-width:0.264583"
       x="150.60167"
       y="106.52631"
       id="text12097-06"><tspan
         sodipodi:role="line"
         id="tspan12095-2"
         style="font-style:normal;font-variant:normal;font-weight:normal;font-stretch:normal;font-size:4.58611px;font-family:arial;-inkscape-font-specification:arial;stroke-width:0.264583"
         x="150.60167"
         y="106.52631">Cytoplasme</tspan></text></g><metadata
     id="metadata16410"><rdf:RDF><cc:Work
         rdf:about=""><dc:date>été 2022 - V1 du TST</dc:date><dc:creator><cc:Agent><dc:title>Paulhenry Saux</dc:title></cc:Agent></dc:creator><dc:publisher><cc:Agent><dc:title>Paulhenry.eu</dc:title></cc:Agent></dc:publisher><dc:language>FR</dc:language><cc:license
           rdf:resource="http://creativecommons.org/licenses/by-sa/4.0/" /></cc:Work><cc:License
         rdf:about="http://creativecommons.org/licenses/by-sa/4.0/"><cc:permits
           rdf:resource="http://creativecommons.org/ns#Reproduction" /><cc:permits
           rdf:resource="http://creativecommons.org/ns#Distribution" /><cc:requires
           rdf:resource="http://creativecommons.org/ns#Notice" /><cc:requires
           rdf:resource="http://creativecommons.org/ns#Attribution" /><cc:permits
           rdf:resource="http://creativecommons.org/ns#DerivativeWorks" /><cc:requires
           rdf:resource="http://creativecommons.org/ns#ShareAlike" /></cc:License></rdf:RDF></metadata></svg>
